M48
; DRILL file {KiCad 5.1.10-88a1d61d58~88~ubuntu20.04.1} date Thu May 20 12:52:36 2021
; FORMAT={-:-/ absolute / inch / decimal}
; #@! TF.CreationDate,2021-05-20T12:52:36-04:00
; #@! TF.GenerationSoftware,Kicad,Pcbnew,5.1.10-88a1d61d58~88~ubuntu20.04.1
FMAT,2
INCH
T1C0.0130
T2C0.0394
%
G90
G05
T1
X3.1575Y-4.9449
X3.2764Y-5.3275
X3.2874Y-5.0827
X3.3386Y-5.0079
X3.3386Y-5.0433
X3.3976Y-4.8898
X3.4724Y-5.5382
X3.4921Y-5.1024
X3.5118Y-4.6811
X3.552Y-5.0433
X3.6087Y-5.2677
X3.6102Y-5.1299
X3.6378Y-4.6811
X3.6417Y-4.8307
X3.6417Y-5.2677
X3.6496Y-5.1094
X3.6772Y-5.1584
X3.701Y-5.1812
X3.7305Y-5.196
X3.7362Y-5.374
X3.7636Y-5.2051
X3.7677Y-5.4803
X3.7692Y-5.374
X3.7717Y-4.6496
X3.8228Y-5.3819
X3.9173Y-5.4055
X4.0236Y-5.4055
X4.1181Y-5.4055
X4.1417Y-5.2244
X4.1496Y-4.9016
X4.1496Y-5.311
X4.1575Y-4.8189
X4.2244Y-5.4094
X4.2283Y-5.1457
X4.2314Y-4.7943
X4.2402Y-5.0472
X4.5896Y-4.7943
X4.8946Y-4.7943
X4.937Y-4.6575
X5.2244Y-4.6575
X5.2244Y-4.7323
T2
X3.0787Y-4.9331
X3.0787Y-5.0331
X3.0787Y-5.1331
X3.0787Y-5.2331
X3.0787Y-5.3331
X3.0787Y-5.4331
X3.2244Y-5.1331
X3.2244Y-5.2331
X3.2244Y-5.5118
X3.3244Y-5.5118
X3.4244Y-5.5118
X3.5244Y-5.5118
X3.6244Y-5.5118
X3.7244Y-5.5118
X3.8244Y-5.5118
X3.9244Y-5.5118
X4.0244Y-5.5118
X4.1244Y-5.5118
X4.2244Y-5.5118
X4.2874Y-4.8898
X4.2874Y-4.9898
X4.2874Y-5.0898
X4.2874Y-5.1898
X4.2874Y-5.2898
X4.3244Y-5.5118
X4.4244Y-5.5118
X4.4874Y-4.8898
X4.4874Y-4.9898
X4.4874Y-5.0898
X4.4874Y-5.1898
X4.4874Y-5.2898
X4.5244Y-5.5118
X4.5945Y-4.8898
X4.5945Y-4.9898
X4.5945Y-5.0898
X4.5945Y-5.1898
X4.5945Y-5.2898
X4.6244Y-5.5118
X4.7244Y-5.5118
X4.7945Y-4.8898
X4.7945Y-4.9898
X4.7945Y-5.0898
X4.7945Y-5.1898
X4.7945Y-5.2898
X4.9016Y-4.8898
X4.9016Y-4.9898
X4.9016Y-5.0898
X4.9016Y-5.1898
X4.9016Y-5.2898
X5.1016Y-4.8898
X5.1016Y-4.9898
X5.1016Y-5.0898
X5.1016Y-5.1898
X5.1016Y-5.2898
X5.2087Y-4.8898
X5.2087Y-4.9898
X5.2087Y-5.0898
X5.2087Y-5.1898
X5.2087Y-5.2898
X5.4087Y-4.8898
X5.4087Y-4.9898
X5.4087Y-5.0898
X5.4087Y-5.1898
X5.4087Y-5.2898
T0
M30
