G04 #@! TF.GenerationSoftware,KiCad,Pcbnew,5.1.10-88a1d61d58~88~ubuntu20.04.1*
G04 #@! TF.CreationDate,2021-05-20T13:34:08-04:00*
G04 #@! TF.ProjectId,hexdisplay16,68657864-6973-4706-9c61-7931362e6b69,rev?*
G04 #@! TF.SameCoordinates,Original*
G04 #@! TF.FileFunction,Soldermask,Bot*
G04 #@! TF.FilePolarity,Negative*
%FSLAX46Y46*%
G04 Gerber Fmt 4.6, Leading zero omitted, Abs format (unit mm)*
G04 Created by KiCad (PCBNEW 5.1.10-88a1d61d58~88~ubuntu20.04.1) date 2021-05-20 13:34:08*
%MOMM*%
%LPD*%
G01*
G04 APERTURE LIST*
G04 #@! TA.AperFunction,Profile*
%ADD10C,0.050000*%
G04 #@! TD*
%ADD11O,1.801600X1.801600*%
G04 APERTURE END LIST*
D10*
X139700000Y-141800000D02*
X76000000Y-141800000D01*
X139700000Y-117200000D02*
X76200000Y-117200000D01*
X139700000Y-125500000D02*
X139700000Y-141800000D01*
X139700000Y-117300000D02*
X139700000Y-117200000D01*
X139700000Y-125500000D02*
X139700000Y-117300000D01*
X76000000Y-117200000D02*
X76200000Y-117200000D01*
X76000000Y-141800000D02*
X76000000Y-117200000D01*
D11*
G04 #@! TO.C,J12*
X137380000Y-134360000D03*
X137380000Y-131820000D03*
X137380000Y-129280000D03*
X137380000Y-126740000D03*
G36*
G01*
X136479200Y-125050000D02*
X136479200Y-123350000D01*
G75*
G02*
X136530000Y-123299200I50800J0D01*
G01*
X138230000Y-123299200D01*
G75*
G02*
X138280800Y-123350000I0J-50800D01*
G01*
X138280800Y-125050000D01*
G75*
G02*
X138230000Y-125100800I-50800J0D01*
G01*
X136530000Y-125100800D01*
G75*
G02*
X136479200Y-125050000I0J50800D01*
G01*
G37*
G04 #@! TD*
G04 #@! TO.C,J11*
X132300000Y-134360000D03*
X132300000Y-131820000D03*
X132300000Y-129280000D03*
X132300000Y-126740000D03*
G36*
G01*
X131399200Y-125050000D02*
X131399200Y-123350000D01*
G75*
G02*
X131450000Y-123299200I50800J0D01*
G01*
X133150000Y-123299200D01*
G75*
G02*
X133200800Y-123350000I0J-50800D01*
G01*
X133200800Y-125050000D01*
G75*
G02*
X133150000Y-125100800I-50800J0D01*
G01*
X131450000Y-125100800D01*
G75*
G02*
X131399200Y-125050000I0J50800D01*
G01*
G37*
G04 #@! TD*
G04 #@! TO.C,J22*
G36*
G01*
X128679200Y-125050000D02*
X128679200Y-123350000D01*
G75*
G02*
X128730000Y-123299200I50800J0D01*
G01*
X130430000Y-123299200D01*
G75*
G02*
X130480800Y-123350000I0J-50800D01*
G01*
X130480800Y-125050000D01*
G75*
G02*
X130430000Y-125100800I-50800J0D01*
G01*
X128730000Y-125100800D01*
G75*
G02*
X128679200Y-125050000I0J50800D01*
G01*
G37*
X129580000Y-126740000D03*
X129580000Y-129280000D03*
X129580000Y-131820000D03*
X129580000Y-134360000D03*
G04 #@! TD*
G04 #@! TO.C,J32*
X121780000Y-134360000D03*
X121780000Y-131820000D03*
X121780000Y-129280000D03*
X121780000Y-126740000D03*
G36*
G01*
X120879200Y-125050000D02*
X120879200Y-123350000D01*
G75*
G02*
X120930000Y-123299200I50800J0D01*
G01*
X122630000Y-123299200D01*
G75*
G02*
X122680800Y-123350000I0J-50800D01*
G01*
X122680800Y-125050000D01*
G75*
G02*
X122630000Y-125100800I-50800J0D01*
G01*
X120930000Y-125100800D01*
G75*
G02*
X120879200Y-125050000I0J50800D01*
G01*
G37*
G04 #@! TD*
G04 #@! TO.C,J41*
G36*
G01*
X107999200Y-125050000D02*
X107999200Y-123350000D01*
G75*
G02*
X108050000Y-123299200I50800J0D01*
G01*
X109750000Y-123299200D01*
G75*
G02*
X109800800Y-123350000I0J-50800D01*
G01*
X109800800Y-125050000D01*
G75*
G02*
X109750000Y-125100800I-50800J0D01*
G01*
X108050000Y-125100800D01*
G75*
G02*
X107999200Y-125050000I0J50800D01*
G01*
G37*
X108900000Y-126740000D03*
X108900000Y-129280000D03*
X108900000Y-131820000D03*
X108900000Y-134360000D03*
G04 #@! TD*
G04 #@! TO.C,J31*
X116700000Y-134360000D03*
X116700000Y-131820000D03*
X116700000Y-129280000D03*
X116700000Y-126740000D03*
G36*
G01*
X115799200Y-125050000D02*
X115799200Y-123350000D01*
G75*
G02*
X115850000Y-123299200I50800J0D01*
G01*
X117550000Y-123299200D01*
G75*
G02*
X117600800Y-123350000I0J-50800D01*
G01*
X117600800Y-125050000D01*
G75*
G02*
X117550000Y-125100800I-50800J0D01*
G01*
X115850000Y-125100800D01*
G75*
G02*
X115799200Y-125050000I0J50800D01*
G01*
G37*
G04 #@! TD*
G04 #@! TO.C,J42*
G36*
G01*
X113079200Y-125050000D02*
X113079200Y-123350000D01*
G75*
G02*
X113130000Y-123299200I50800J0D01*
G01*
X114830000Y-123299200D01*
G75*
G02*
X114880800Y-123350000I0J-50800D01*
G01*
X114880800Y-125050000D01*
G75*
G02*
X114830000Y-125100800I-50800J0D01*
G01*
X113130000Y-125100800D01*
G75*
G02*
X113079200Y-125050000I0J50800D01*
G01*
G37*
X113980000Y-126740000D03*
X113980000Y-129280000D03*
X113980000Y-131820000D03*
X113980000Y-134360000D03*
G04 #@! TD*
G04 #@! TO.C,J21*
G36*
G01*
X123599200Y-125050000D02*
X123599200Y-123350000D01*
G75*
G02*
X123650000Y-123299200I50800J0D01*
G01*
X125350000Y-123299200D01*
G75*
G02*
X125400800Y-123350000I0J-50800D01*
G01*
X125400800Y-125050000D01*
G75*
G02*
X125350000Y-125100800I-50800J0D01*
G01*
X123650000Y-125100800D01*
G75*
G02*
X123599200Y-125050000I0J50800D01*
G01*
G37*
X124500000Y-126740000D03*
X124500000Y-129280000D03*
X124500000Y-131820000D03*
X124500000Y-134360000D03*
G04 #@! TD*
G04 #@! TO.C,J6*
G36*
G01*
X119150000Y-139099200D02*
X120850000Y-139099200D01*
G75*
G02*
X120900800Y-139150000I0J-50800D01*
G01*
X120900800Y-140850000D01*
G75*
G02*
X120850000Y-140900800I-50800J0D01*
G01*
X119150000Y-140900800D01*
G75*
G02*
X119099200Y-140850000I0J50800D01*
G01*
X119099200Y-139150000D01*
G75*
G02*
X119150000Y-139099200I50800J0D01*
G01*
G37*
X117460000Y-140000000D03*
X114920000Y-140000000D03*
X112380000Y-140000000D03*
X109840000Y-140000000D03*
X107300000Y-140000000D03*
X104760000Y-140000000D03*
X102220000Y-140000000D03*
X99680000Y-140000000D03*
X97140000Y-140000000D03*
X94600000Y-140000000D03*
X92060000Y-140000000D03*
X89520000Y-140000000D03*
X86980000Y-140000000D03*
X84440000Y-140000000D03*
X81900000Y-140000000D03*
G04 #@! TD*
G04 #@! TO.C,J5*
G36*
G01*
X80999200Y-131230000D02*
X80999200Y-129530000D01*
G75*
G02*
X81050000Y-129479200I50800J0D01*
G01*
X82750000Y-129479200D01*
G75*
G02*
X82800800Y-129530000I0J-50800D01*
G01*
X82800800Y-131230000D01*
G75*
G02*
X82750000Y-131280800I-50800J0D01*
G01*
X81050000Y-131280800D01*
G75*
G02*
X80999200Y-131230000I0J50800D01*
G01*
G37*
X81900000Y-132920000D03*
G04 #@! TD*
G04 #@! TO.C,J7*
G36*
G01*
X77299200Y-126150000D02*
X77299200Y-124450000D01*
G75*
G02*
X77350000Y-124399200I50800J0D01*
G01*
X79050000Y-124399200D01*
G75*
G02*
X79100800Y-124450000I0J-50800D01*
G01*
X79100800Y-126150000D01*
G75*
G02*
X79050000Y-126200800I-50800J0D01*
G01*
X77350000Y-126200800D01*
G75*
G02*
X77299200Y-126150000I0J50800D01*
G01*
G37*
X78200000Y-127840000D03*
X78200000Y-130380000D03*
X78200000Y-132920000D03*
X78200000Y-135460000D03*
X78200000Y-138000000D03*
G04 #@! TD*
M02*
