%TF.GenerationSoftware,KiCad,Pcbnew,5.1.10-88a1d61d58~88~ubuntu20.04.1*%
%TF.CreationDate,2021-05-20T12:52:21-04:00*%
%TF.ProjectId,hexdisplay16,68657864-6973-4706-9c61-7931362e6b69,rev?*%
%TF.SameCoordinates,Original*%
%TF.FileFunction,Legend,Top*%
%TF.FilePolarity,Positive*%
%FSLAX46Y46*%
G04 Gerber Fmt 4.6, Leading zero omitted, Abs format (unit mm)*
G04 Created by KiCad (PCBNEW 5.1.10-88a1d61d58~88~ubuntu20.04.1) date 2021-05-20 12:52:21*
%MOMM*%
%LPD*%
G01*
G04 APERTURE LIST*
%ADD10C,0.150000*%
%ADD11C,0.120000*%
G04 APERTURE END LIST*
D10*
X83571428Y-133700000D02*
X84171428Y-133500000D01*
X83571428Y-133300000D01*
X84114285Y-132757142D02*
X84142857Y-132785714D01*
X84171428Y-132871428D01*
X84171428Y-132928571D01*
X84142857Y-133014285D01*
X84085714Y-133071428D01*
X84028571Y-133100000D01*
X83914285Y-133128571D01*
X83828571Y-133128571D01*
X83714285Y-133100000D01*
X83657142Y-133071428D01*
X83600000Y-133014285D01*
X83571428Y-132928571D01*
X83571428Y-132871428D01*
X83600000Y-132785714D01*
X83628571Y-132757142D01*
X84114285Y-132157142D02*
X84142857Y-132185714D01*
X84171428Y-132271428D01*
X84171428Y-132328571D01*
X84142857Y-132414285D01*
X84085714Y-132471428D01*
X84028571Y-132500000D01*
X83914285Y-132528571D01*
X83828571Y-132528571D01*
X83714285Y-132500000D01*
X83657142Y-132471428D01*
X83600000Y-132414285D01*
X83571428Y-132328571D01*
X83571428Y-132271428D01*
X83600000Y-132185714D01*
X83628571Y-132157142D01*
X83600000Y-131057142D02*
X83571428Y-131114285D01*
X83571428Y-131200000D01*
X83600000Y-131285714D01*
X83657142Y-131342857D01*
X83714285Y-131371428D01*
X83828571Y-131400000D01*
X83914285Y-131400000D01*
X84028571Y-131371428D01*
X84085714Y-131342857D01*
X84142857Y-131285714D01*
X84171428Y-131200000D01*
X84171428Y-131142857D01*
X84142857Y-131057142D01*
X84114285Y-131028571D01*
X83914285Y-131028571D01*
X83914285Y-131142857D01*
X84171428Y-130771428D02*
X83571428Y-130771428D01*
X84171428Y-130428571D01*
X83571428Y-130428571D01*
X84171428Y-130142857D02*
X83571428Y-130142857D01*
X83571428Y-130000000D01*
X83600000Y-129914285D01*
X83657142Y-129857142D01*
X83714285Y-129828571D01*
X83828571Y-129800000D01*
X83914285Y-129800000D01*
X84028571Y-129828571D01*
X84085714Y-129857142D01*
X84142857Y-129914285D01*
X84171428Y-130000000D01*
X84171428Y-130142857D01*
X80371428Y-138942857D02*
X79771428Y-138942857D01*
X80200000Y-138742857D01*
X79771428Y-138542857D01*
X80371428Y-138542857D01*
X79771428Y-138142857D02*
X79771428Y-138028571D01*
X79800000Y-137971428D01*
X79857142Y-137914285D01*
X79971428Y-137885714D01*
X80171428Y-137885714D01*
X80285714Y-137914285D01*
X80342857Y-137971428D01*
X80371428Y-138028571D01*
X80371428Y-138142857D01*
X80342857Y-138200000D01*
X80285714Y-138257142D01*
X80171428Y-138285714D01*
X79971428Y-138285714D01*
X79857142Y-138257142D01*
X79800000Y-138200000D01*
X79771428Y-138142857D01*
X80342857Y-137657142D02*
X80371428Y-137571428D01*
X80371428Y-137428571D01*
X80342857Y-137371428D01*
X80314285Y-137342857D01*
X80257142Y-137314285D01*
X80200000Y-137314285D01*
X80142857Y-137342857D01*
X80114285Y-137371428D01*
X80085714Y-137428571D01*
X80057142Y-137542857D01*
X80028571Y-137600000D01*
X80000000Y-137628571D01*
X79942857Y-137657142D01*
X79885714Y-137657142D01*
X79828571Y-137628571D01*
X79800000Y-137600000D01*
X79771428Y-137542857D01*
X79771428Y-137400000D01*
X79800000Y-137314285D01*
X80371428Y-137057142D02*
X79771428Y-137057142D01*
X80371428Y-135828571D02*
X80085714Y-136028571D01*
X80371428Y-136171428D02*
X79771428Y-136171428D01*
X79771428Y-135942857D01*
X79800000Y-135885714D01*
X79828571Y-135857142D01*
X79885714Y-135828571D01*
X79971428Y-135828571D01*
X80028571Y-135857142D01*
X80057142Y-135885714D01*
X80085714Y-135942857D01*
X80085714Y-136171428D01*
X80342857Y-135600000D02*
X80371428Y-135514285D01*
X80371428Y-135371428D01*
X80342857Y-135314285D01*
X80314285Y-135285714D01*
X80257142Y-135257142D01*
X80200000Y-135257142D01*
X80142857Y-135285714D01*
X80114285Y-135314285D01*
X80085714Y-135371428D01*
X80057142Y-135485714D01*
X80028571Y-135542857D01*
X80000000Y-135571428D01*
X79942857Y-135600000D01*
X79885714Y-135600000D01*
X79828571Y-135571428D01*
X79800000Y-135542857D01*
X79771428Y-135485714D01*
X79771428Y-135342857D01*
X79800000Y-135257142D01*
X79771428Y-135085714D02*
X79771428Y-134742857D01*
X80371428Y-134914285D02*
X79771428Y-134914285D01*
X80342857Y-133771428D02*
X80371428Y-133685714D01*
X80371428Y-133542857D01*
X80342857Y-133485714D01*
X80314285Y-133457142D01*
X80257142Y-133428571D01*
X80200000Y-133428571D01*
X80142857Y-133457142D01*
X80114285Y-133485714D01*
X80085714Y-133542857D01*
X80057142Y-133657142D01*
X80028571Y-133714285D01*
X80000000Y-133742857D01*
X79942857Y-133771428D01*
X79885714Y-133771428D01*
X79828571Y-133742857D01*
X79800000Y-133714285D01*
X79771428Y-133657142D01*
X79771428Y-133514285D01*
X79800000Y-133428571D01*
X80314285Y-132828571D02*
X80342857Y-132857142D01*
X80371428Y-132942857D01*
X80371428Y-133000000D01*
X80342857Y-133085714D01*
X80285714Y-133142857D01*
X80228571Y-133171428D01*
X80114285Y-133200000D01*
X80028571Y-133200000D01*
X79914285Y-133171428D01*
X79857142Y-133142857D01*
X79800000Y-133085714D01*
X79771428Y-133000000D01*
X79771428Y-132942857D01*
X79800000Y-132857142D01*
X79828571Y-132828571D01*
X80371428Y-132571428D02*
X79771428Y-132571428D01*
X80371428Y-132228571D02*
X80028571Y-132485714D01*
X79771428Y-132228571D02*
X80114285Y-132571428D01*
X80371428Y-131342857D02*
X79771428Y-131342857D01*
X80200000Y-131142857D01*
X79771428Y-130942857D01*
X80371428Y-130942857D01*
X80371428Y-130657142D02*
X79771428Y-130657142D01*
X80342857Y-130400000D02*
X80371428Y-130314285D01*
X80371428Y-130171428D01*
X80342857Y-130114285D01*
X80314285Y-130085714D01*
X80257142Y-130057142D01*
X80200000Y-130057142D01*
X80142857Y-130085714D01*
X80114285Y-130114285D01*
X80085714Y-130171428D01*
X80057142Y-130285714D01*
X80028571Y-130342857D01*
X80000000Y-130371428D01*
X79942857Y-130400000D01*
X79885714Y-130400000D01*
X79828571Y-130371428D01*
X79800000Y-130342857D01*
X79771428Y-130285714D01*
X79771428Y-130142857D01*
X79800000Y-130057142D01*
X79771428Y-129685714D02*
X79771428Y-129571428D01*
X79800000Y-129514285D01*
X79857142Y-129457142D01*
X79971428Y-129428571D01*
X80171428Y-129428571D01*
X80285714Y-129457142D01*
X80342857Y-129514285D01*
X80371428Y-129571428D01*
X80371428Y-129685714D01*
X80342857Y-129742857D01*
X80285714Y-129800000D01*
X80171428Y-129828571D01*
X79971428Y-129828571D01*
X79857142Y-129800000D01*
X79800000Y-129742857D01*
X79771428Y-129685714D01*
X79771428Y-128600000D02*
X80371428Y-128400000D01*
X79771428Y-128200000D01*
X80314285Y-127657142D02*
X80342857Y-127685714D01*
X80371428Y-127771428D01*
X80371428Y-127828571D01*
X80342857Y-127914285D01*
X80285714Y-127971428D01*
X80228571Y-128000000D01*
X80114285Y-128028571D01*
X80028571Y-128028571D01*
X79914285Y-128000000D01*
X79857142Y-127971428D01*
X79800000Y-127914285D01*
X79771428Y-127828571D01*
X79771428Y-127771428D01*
X79800000Y-127685714D01*
X79828571Y-127657142D01*
X80314285Y-127057142D02*
X80342857Y-127085714D01*
X80371428Y-127171428D01*
X80371428Y-127228571D01*
X80342857Y-127314285D01*
X80285714Y-127371428D01*
X80228571Y-127400000D01*
X80114285Y-127428571D01*
X80028571Y-127428571D01*
X79914285Y-127400000D01*
X79857142Y-127371428D01*
X79800000Y-127314285D01*
X79771428Y-127228571D01*
X79771428Y-127171428D01*
X79800000Y-127085714D01*
X79828571Y-127057142D01*
X79800000Y-125757142D02*
X79771428Y-125814285D01*
X79771428Y-125900000D01*
X79800000Y-125985714D01*
X79857142Y-126042857D01*
X79914285Y-126071428D01*
X80028571Y-126100000D01*
X80114285Y-126100000D01*
X80228571Y-126071428D01*
X80285714Y-126042857D01*
X80342857Y-125985714D01*
X80371428Y-125900000D01*
X80371428Y-125842857D01*
X80342857Y-125757142D01*
X80314285Y-125728571D01*
X80114285Y-125728571D01*
X80114285Y-125842857D01*
X80371428Y-125471428D02*
X79771428Y-125471428D01*
X80371428Y-125128571D01*
X79771428Y-125128571D01*
X80371428Y-124842857D02*
X79771428Y-124842857D01*
X79771428Y-124700000D01*
X79800000Y-124614285D01*
X79857142Y-124557142D01*
X79914285Y-124528571D01*
X80028571Y-124500000D01*
X80114285Y-124500000D01*
X80228571Y-124528571D01*
X80285714Y-124557142D01*
X80342857Y-124614285D01*
X80371428Y-124700000D01*
X80371428Y-124842857D01*
X78728571Y-119700000D02*
X78685714Y-119657142D01*
X78600000Y-119528571D01*
X78557142Y-119442857D01*
X78514285Y-119314285D01*
X78471428Y-119100000D01*
X78471428Y-118928571D01*
X78514285Y-118714285D01*
X78557142Y-118585714D01*
X78600000Y-118500000D01*
X78685714Y-118371428D01*
X78728571Y-118328571D01*
X79457142Y-119314285D02*
X79371428Y-119357142D01*
X79200000Y-119357142D01*
X79114285Y-119314285D01*
X79071428Y-119271428D01*
X79028571Y-119185714D01*
X79028571Y-118928571D01*
X79071428Y-118842857D01*
X79114285Y-118800000D01*
X79200000Y-118757142D01*
X79371428Y-118757142D01*
X79457142Y-118800000D01*
X79757142Y-119700000D02*
X79800000Y-119657142D01*
X79885714Y-119528571D01*
X79928571Y-119442857D01*
X79971428Y-119314285D01*
X80014285Y-119100000D01*
X80014285Y-118928571D01*
X79971428Y-118714285D01*
X79928571Y-118585714D01*
X79885714Y-118500000D01*
X79800000Y-118371428D01*
X79757142Y-118328571D01*
X81085714Y-118542857D02*
X81128571Y-118500000D01*
X81214285Y-118457142D01*
X81428571Y-118457142D01*
X81514285Y-118500000D01*
X81557142Y-118542857D01*
X81600000Y-118628571D01*
X81600000Y-118714285D01*
X81557142Y-118842857D01*
X81042857Y-119357142D01*
X81600000Y-119357142D01*
X82157142Y-118457142D02*
X82242857Y-118457142D01*
X82328571Y-118500000D01*
X82371428Y-118542857D01*
X82414285Y-118628571D01*
X82457142Y-118800000D01*
X82457142Y-119014285D01*
X82414285Y-119185714D01*
X82371428Y-119271428D01*
X82328571Y-119314285D01*
X82242857Y-119357142D01*
X82157142Y-119357142D01*
X82071428Y-119314285D01*
X82028571Y-119271428D01*
X81985714Y-119185714D01*
X81942857Y-119014285D01*
X81942857Y-118800000D01*
X81985714Y-118628571D01*
X82028571Y-118542857D01*
X82071428Y-118500000D01*
X82157142Y-118457142D01*
X82800000Y-118542857D02*
X82842857Y-118500000D01*
X82928571Y-118457142D01*
X83142857Y-118457142D01*
X83228571Y-118500000D01*
X83271428Y-118542857D01*
X83314285Y-118628571D01*
X83314285Y-118714285D01*
X83271428Y-118842857D01*
X82757142Y-119357142D01*
X83314285Y-119357142D01*
X84171428Y-119357142D02*
X83657142Y-119357142D01*
X83914285Y-119357142D02*
X83914285Y-118457142D01*
X83828571Y-118585714D01*
X83742857Y-118671428D01*
X83657142Y-118714285D01*
X77271428Y-120857142D02*
X77271428Y-119957142D01*
X77271428Y-120814285D02*
X77185714Y-120857142D01*
X77014285Y-120857142D01*
X76928571Y-120814285D01*
X76885714Y-120771428D01*
X76842857Y-120685714D01*
X76842857Y-120428571D01*
X76885714Y-120342857D01*
X76928571Y-120300000D01*
X77014285Y-120257142D01*
X77185714Y-120257142D01*
X77271428Y-120300000D01*
X78085714Y-120857142D02*
X78085714Y-120385714D01*
X78042857Y-120300000D01*
X77957142Y-120257142D01*
X77785714Y-120257142D01*
X77700000Y-120300000D01*
X78085714Y-120814285D02*
X78000000Y-120857142D01*
X77785714Y-120857142D01*
X77700000Y-120814285D01*
X77657142Y-120728571D01*
X77657142Y-120642857D01*
X77700000Y-120557142D01*
X77785714Y-120514285D01*
X78000000Y-120514285D01*
X78085714Y-120471428D01*
X78428571Y-120257142D02*
X78642857Y-120857142D01*
X78857142Y-120257142D01*
X79542857Y-120814285D02*
X79457142Y-120857142D01*
X79285714Y-120857142D01*
X79200000Y-120814285D01*
X79157142Y-120728571D01*
X79157142Y-120385714D01*
X79200000Y-120300000D01*
X79285714Y-120257142D01*
X79457142Y-120257142D01*
X79542857Y-120300000D01*
X79585714Y-120385714D01*
X79585714Y-120471428D01*
X79157142Y-120557142D01*
X79971428Y-120857142D02*
X79971428Y-119957142D01*
X80357142Y-120857142D02*
X80357142Y-120385714D01*
X80314285Y-120300000D01*
X80228571Y-120257142D01*
X80100000Y-120257142D01*
X80014285Y-120300000D01*
X79971428Y-120342857D01*
X80914285Y-120857142D02*
X80828571Y-120814285D01*
X80785714Y-120771428D01*
X80742857Y-120685714D01*
X80742857Y-120428571D01*
X80785714Y-120342857D01*
X80828571Y-120300000D01*
X80914285Y-120257142D01*
X81042857Y-120257142D01*
X81128571Y-120300000D01*
X81171428Y-120342857D01*
X81214285Y-120428571D01*
X81214285Y-120685714D01*
X81171428Y-120771428D01*
X81128571Y-120814285D01*
X81042857Y-120857142D01*
X80914285Y-120857142D01*
X82285714Y-120857142D02*
X82285714Y-119957142D01*
X82671428Y-120857142D02*
X82671428Y-120385714D01*
X82628571Y-120300000D01*
X82542857Y-120257142D01*
X82414285Y-120257142D01*
X82328571Y-120300000D01*
X82285714Y-120342857D01*
X83485714Y-120857142D02*
X83485714Y-120385714D01*
X83442857Y-120300000D01*
X83357142Y-120257142D01*
X83185714Y-120257142D01*
X83100000Y-120300000D01*
X83485714Y-120814285D02*
X83400000Y-120857142D01*
X83185714Y-120857142D01*
X83100000Y-120814285D01*
X83057142Y-120728571D01*
X83057142Y-120642857D01*
X83100000Y-120557142D01*
X83185714Y-120514285D01*
X83400000Y-120514285D01*
X83485714Y-120471428D01*
X84300000Y-120814285D02*
X84214285Y-120857142D01*
X84042857Y-120857142D01*
X83957142Y-120814285D01*
X83914285Y-120771428D01*
X83871428Y-120685714D01*
X83871428Y-120428571D01*
X83914285Y-120342857D01*
X83957142Y-120300000D01*
X84042857Y-120257142D01*
X84214285Y-120257142D01*
X84300000Y-120300000D01*
X84685714Y-120857142D02*
X84685714Y-119957142D01*
X84771428Y-120514285D02*
X85028571Y-120857142D01*
X85028571Y-120257142D02*
X84685714Y-120600000D01*
X85371428Y-120814285D02*
X85457142Y-120857142D01*
X85628571Y-120857142D01*
X85714285Y-120814285D01*
X85757142Y-120728571D01*
X85757142Y-120685714D01*
X85714285Y-120600000D01*
X85628571Y-120557142D01*
X85500000Y-120557142D01*
X85414285Y-120514285D01*
X85371428Y-120428571D01*
X85371428Y-120385714D01*
X85414285Y-120300000D01*
X85500000Y-120257142D01*
X85628571Y-120257142D01*
X85714285Y-120300000D01*
D11*
X121291047Y-137976309D02*
X121291047Y-137426309D01*
X121526761Y-137976309D02*
X121526761Y-137688214D01*
X121500571Y-137635833D01*
X121448190Y-137609642D01*
X121369619Y-137609642D01*
X121317238Y-137635833D01*
X121291047Y-137662023D01*
X121710095Y-137609642D02*
X121919619Y-137609642D01*
X121788666Y-137426309D02*
X121788666Y-137897738D01*
X121814857Y-137950119D01*
X121867238Y-137976309D01*
X121919619Y-137976309D01*
X122024380Y-137609642D02*
X122233904Y-137609642D01*
X122102952Y-137426309D02*
X122102952Y-137897738D01*
X122129142Y-137950119D01*
X122181523Y-137976309D01*
X122233904Y-137976309D01*
X122417238Y-137609642D02*
X122417238Y-138159642D01*
X122417238Y-137635833D02*
X122469619Y-137609642D01*
X122574380Y-137609642D01*
X122626761Y-137635833D01*
X122652952Y-137662023D01*
X122679142Y-137714404D01*
X122679142Y-137871547D01*
X122652952Y-137923928D01*
X122626761Y-137950119D01*
X122574380Y-137976309D01*
X122469619Y-137976309D01*
X122417238Y-137950119D01*
X122888666Y-137950119D02*
X122941047Y-137976309D01*
X123045809Y-137976309D01*
X123098190Y-137950119D01*
X123124380Y-137897738D01*
X123124380Y-137871547D01*
X123098190Y-137819166D01*
X123045809Y-137792976D01*
X122967238Y-137792976D01*
X122914857Y-137766785D01*
X122888666Y-137714404D01*
X122888666Y-137688214D01*
X122914857Y-137635833D01*
X122967238Y-137609642D01*
X123045809Y-137609642D01*
X123098190Y-137635833D01*
X123360095Y-137923928D02*
X123386285Y-137950119D01*
X123360095Y-137976309D01*
X123333904Y-137950119D01*
X123360095Y-137923928D01*
X123360095Y-137976309D01*
X123360095Y-137635833D02*
X123386285Y-137662023D01*
X123360095Y-137688214D01*
X123333904Y-137662023D01*
X123360095Y-137635833D01*
X123360095Y-137688214D01*
X124014857Y-137400119D02*
X123543428Y-138107261D01*
X124591047Y-137400119D02*
X124119619Y-138107261D01*
X125010095Y-137609642D02*
X125010095Y-138054880D01*
X124983904Y-138107261D01*
X124957714Y-138133452D01*
X124905333Y-138159642D01*
X124826761Y-138159642D01*
X124774380Y-138133452D01*
X125010095Y-137950119D02*
X124957714Y-137976309D01*
X124852952Y-137976309D01*
X124800571Y-137950119D01*
X124774380Y-137923928D01*
X124748190Y-137871547D01*
X124748190Y-137714404D01*
X124774380Y-137662023D01*
X124800571Y-137635833D01*
X124852952Y-137609642D01*
X124957714Y-137609642D01*
X125010095Y-137635833D01*
X125272000Y-137976309D02*
X125272000Y-137609642D01*
X125272000Y-137426309D02*
X125245809Y-137452500D01*
X125272000Y-137478690D01*
X125298190Y-137452500D01*
X125272000Y-137426309D01*
X125272000Y-137478690D01*
X125455333Y-137609642D02*
X125664857Y-137609642D01*
X125533904Y-137426309D02*
X125533904Y-137897738D01*
X125560095Y-137950119D01*
X125612476Y-137976309D01*
X125664857Y-137976309D01*
X125848190Y-137976309D02*
X125848190Y-137426309D01*
X126083904Y-137976309D02*
X126083904Y-137688214D01*
X126057714Y-137635833D01*
X126005333Y-137609642D01*
X125926761Y-137609642D01*
X125874380Y-137635833D01*
X125848190Y-137662023D01*
X126581523Y-137609642D02*
X126581523Y-137976309D01*
X126345809Y-137609642D02*
X126345809Y-137897738D01*
X126372000Y-137950119D01*
X126424380Y-137976309D01*
X126502952Y-137976309D01*
X126555333Y-137950119D01*
X126581523Y-137923928D01*
X126843428Y-137976309D02*
X126843428Y-137426309D01*
X126843428Y-137635833D02*
X126895809Y-137609642D01*
X127000571Y-137609642D01*
X127052952Y-137635833D01*
X127079142Y-137662023D01*
X127105333Y-137714404D01*
X127105333Y-137871547D01*
X127079142Y-137923928D01*
X127052952Y-137950119D01*
X127000571Y-137976309D01*
X126895809Y-137976309D01*
X126843428Y-137950119D01*
X127341047Y-137923928D02*
X127367238Y-137950119D01*
X127341047Y-137976309D01*
X127314857Y-137950119D01*
X127341047Y-137923928D01*
X127341047Y-137976309D01*
X127838666Y-137950119D02*
X127786285Y-137976309D01*
X127681523Y-137976309D01*
X127629142Y-137950119D01*
X127602952Y-137923928D01*
X127576761Y-137871547D01*
X127576761Y-137714404D01*
X127602952Y-137662023D01*
X127629142Y-137635833D01*
X127681523Y-137609642D01*
X127786285Y-137609642D01*
X127838666Y-137635833D01*
X128152952Y-137976309D02*
X128100571Y-137950119D01*
X128074380Y-137923928D01*
X128048190Y-137871547D01*
X128048190Y-137714404D01*
X128074380Y-137662023D01*
X128100571Y-137635833D01*
X128152952Y-137609642D01*
X128231523Y-137609642D01*
X128283904Y-137635833D01*
X128310095Y-137662023D01*
X128336285Y-137714404D01*
X128336285Y-137871547D01*
X128310095Y-137923928D01*
X128283904Y-137950119D01*
X128231523Y-137976309D01*
X128152952Y-137976309D01*
X128572000Y-137976309D02*
X128572000Y-137609642D01*
X128572000Y-137662023D02*
X128598190Y-137635833D01*
X128650571Y-137609642D01*
X128729142Y-137609642D01*
X128781523Y-137635833D01*
X128807714Y-137688214D01*
X128807714Y-137976309D01*
X128807714Y-137688214D02*
X128833904Y-137635833D01*
X128886285Y-137609642D01*
X128964857Y-137609642D01*
X129017238Y-137635833D01*
X129043428Y-137688214D01*
X129043428Y-137976309D01*
X129698190Y-137400119D02*
X129226761Y-138107261D01*
X130117238Y-137976309D02*
X130117238Y-137426309D01*
X130117238Y-137950119D02*
X130064857Y-137976309D01*
X129960095Y-137976309D01*
X129907714Y-137950119D01*
X129881523Y-137923928D01*
X129855333Y-137871547D01*
X129855333Y-137714404D01*
X129881523Y-137662023D01*
X129907714Y-137635833D01*
X129960095Y-137609642D01*
X130064857Y-137609642D01*
X130117238Y-137635833D01*
X130614857Y-137976309D02*
X130614857Y-137688214D01*
X130588666Y-137635833D01*
X130536285Y-137609642D01*
X130431523Y-137609642D01*
X130379142Y-137635833D01*
X130614857Y-137950119D02*
X130562476Y-137976309D01*
X130431523Y-137976309D01*
X130379142Y-137950119D01*
X130352952Y-137897738D01*
X130352952Y-137845357D01*
X130379142Y-137792976D01*
X130431523Y-137766785D01*
X130562476Y-137766785D01*
X130614857Y-137740595D01*
X130824380Y-137609642D02*
X130955333Y-137976309D01*
X131086285Y-137609642D01*
X131505333Y-137950119D02*
X131452952Y-137976309D01*
X131348190Y-137976309D01*
X131295809Y-137950119D01*
X131269619Y-137897738D01*
X131269619Y-137688214D01*
X131295809Y-137635833D01*
X131348190Y-137609642D01*
X131452952Y-137609642D01*
X131505333Y-137635833D01*
X131531523Y-137688214D01*
X131531523Y-137740595D01*
X131269619Y-137792976D01*
X131767238Y-137976309D02*
X131767238Y-137426309D01*
X132002952Y-137976309D02*
X132002952Y-137688214D01*
X131976761Y-137635833D01*
X131924380Y-137609642D01*
X131845809Y-137609642D01*
X131793428Y-137635833D01*
X131767238Y-137662023D01*
X132343428Y-137976309D02*
X132291047Y-137950119D01*
X132264857Y-137923928D01*
X132238666Y-137871547D01*
X132238666Y-137714404D01*
X132264857Y-137662023D01*
X132291047Y-137635833D01*
X132343428Y-137609642D01*
X132422000Y-137609642D01*
X132474380Y-137635833D01*
X132500571Y-137662023D01*
X132526761Y-137714404D01*
X132526761Y-137871547D01*
X132500571Y-137923928D01*
X132474380Y-137950119D01*
X132422000Y-137976309D01*
X132343428Y-137976309D01*
X133155333Y-137400119D02*
X132683904Y-138107261D01*
X133652952Y-137976309D02*
X133469619Y-137714404D01*
X133338666Y-137976309D02*
X133338666Y-137426309D01*
X133548190Y-137426309D01*
X133600571Y-137452500D01*
X133626761Y-137478690D01*
X133652952Y-137531071D01*
X133652952Y-137609642D01*
X133626761Y-137662023D01*
X133600571Y-137688214D01*
X133548190Y-137714404D01*
X133338666Y-137714404D01*
X134124380Y-137976309D02*
X134124380Y-137688214D01*
X134098190Y-137635833D01*
X134045809Y-137609642D01*
X133941047Y-137609642D01*
X133888666Y-137635833D01*
X134124380Y-137950119D02*
X134072000Y-137976309D01*
X133941047Y-137976309D01*
X133888666Y-137950119D01*
X133862476Y-137897738D01*
X133862476Y-137845357D01*
X133888666Y-137792976D01*
X133941047Y-137766785D01*
X134072000Y-137766785D01*
X134124380Y-137740595D01*
X134386285Y-137609642D02*
X134386285Y-137976309D01*
X134386285Y-137662023D02*
X134412476Y-137635833D01*
X134464857Y-137609642D01*
X134543428Y-137609642D01*
X134595809Y-137635833D01*
X134622000Y-137688214D01*
X134622000Y-137976309D01*
X135119619Y-137976309D02*
X135119619Y-137426309D01*
X135119619Y-137950119D02*
X135067238Y-137976309D01*
X134962476Y-137976309D01*
X134910095Y-137950119D01*
X134883904Y-137923928D01*
X134857714Y-137871547D01*
X134857714Y-137714404D01*
X134883904Y-137662023D01*
X134910095Y-137635833D01*
X134962476Y-137609642D01*
X135067238Y-137609642D01*
X135119619Y-137635833D01*
X135460095Y-137976309D02*
X135407714Y-137950119D01*
X135381523Y-137923928D01*
X135355333Y-137871547D01*
X135355333Y-137714404D01*
X135381523Y-137662023D01*
X135407714Y-137635833D01*
X135460095Y-137609642D01*
X135538666Y-137609642D01*
X135591047Y-137635833D01*
X135617238Y-137662023D01*
X135643428Y-137714404D01*
X135643428Y-137871547D01*
X135617238Y-137923928D01*
X135591047Y-137950119D01*
X135538666Y-137976309D01*
X135460095Y-137976309D01*
X135879142Y-137976309D02*
X135879142Y-137609642D01*
X135879142Y-137662023D02*
X135905333Y-137635833D01*
X135957714Y-137609642D01*
X136036285Y-137609642D01*
X136088666Y-137635833D01*
X136114857Y-137688214D01*
X136114857Y-137976309D01*
X136114857Y-137688214D02*
X136141047Y-137635833D01*
X136193428Y-137609642D01*
X136272000Y-137609642D01*
X136324380Y-137635833D01*
X136350571Y-137688214D01*
X136350571Y-137976309D01*
X136586285Y-137950119D02*
X136664857Y-137976309D01*
X136795809Y-137976309D01*
X136848190Y-137950119D01*
X136874380Y-137923928D01*
X136900571Y-137871547D01*
X136900571Y-137819166D01*
X136874380Y-137766785D01*
X136848190Y-137740595D01*
X136795809Y-137714404D01*
X136691047Y-137688214D01*
X136638666Y-137662023D01*
X136612476Y-137635833D01*
X136586285Y-137583452D01*
X136586285Y-137531071D01*
X136612476Y-137478690D01*
X136638666Y-137452500D01*
X136691047Y-137426309D01*
X136822000Y-137426309D01*
X136900571Y-137452500D01*
X137057714Y-137609642D02*
X137267238Y-137609642D01*
X137136285Y-137426309D02*
X137136285Y-137897738D01*
X137162476Y-137950119D01*
X137214857Y-137976309D01*
X137267238Y-137976309D01*
X137686285Y-137609642D02*
X137686285Y-137976309D01*
X137450571Y-137609642D02*
X137450571Y-137897738D01*
X137476761Y-137950119D01*
X137529142Y-137976309D01*
X137607714Y-137976309D01*
X137660095Y-137950119D01*
X137686285Y-137923928D01*
X137869619Y-137609642D02*
X138079142Y-137609642D01*
X137948190Y-137976309D02*
X137948190Y-137504880D01*
X137974380Y-137452500D01*
X138026761Y-137426309D01*
X138079142Y-137426309D01*
X138183904Y-137609642D02*
X138393428Y-137609642D01*
X138262476Y-137976309D02*
X138262476Y-137504880D01*
X138288666Y-137452500D01*
X138341047Y-137426309D01*
X138393428Y-137426309D01*
X138969619Y-137400119D02*
X138498190Y-138107261D01*
X123360095Y-138554642D02*
X123569619Y-138554642D01*
X123438666Y-138371309D02*
X123438666Y-138842738D01*
X123464857Y-138895119D01*
X123517238Y-138921309D01*
X123569619Y-138921309D01*
X123752952Y-138921309D02*
X123752952Y-138554642D01*
X123752952Y-138659404D02*
X123779142Y-138607023D01*
X123805333Y-138580833D01*
X123857714Y-138554642D01*
X123910095Y-138554642D01*
X124302952Y-138895119D02*
X124250571Y-138921309D01*
X124145809Y-138921309D01*
X124093428Y-138895119D01*
X124067238Y-138842738D01*
X124067238Y-138633214D01*
X124093428Y-138580833D01*
X124145809Y-138554642D01*
X124250571Y-138554642D01*
X124302952Y-138580833D01*
X124329142Y-138633214D01*
X124329142Y-138685595D01*
X124067238Y-138737976D01*
X124774380Y-138895119D02*
X124722000Y-138921309D01*
X124617238Y-138921309D01*
X124564857Y-138895119D01*
X124538666Y-138842738D01*
X124538666Y-138633214D01*
X124564857Y-138580833D01*
X124617238Y-138554642D01*
X124722000Y-138554642D01*
X124774380Y-138580833D01*
X124800571Y-138633214D01*
X124800571Y-138685595D01*
X124538666Y-138737976D01*
X125429142Y-138345119D02*
X124957714Y-139052261D01*
X125612476Y-138921309D02*
X125612476Y-138554642D01*
X125612476Y-138607023D02*
X125638666Y-138580833D01*
X125691047Y-138554642D01*
X125769619Y-138554642D01*
X125822000Y-138580833D01*
X125848190Y-138633214D01*
X125848190Y-138921309D01*
X125848190Y-138633214D02*
X125874380Y-138580833D01*
X125926761Y-138554642D01*
X126005333Y-138554642D01*
X126057714Y-138580833D01*
X126083904Y-138633214D01*
X126083904Y-138921309D01*
X126581523Y-138921309D02*
X126581523Y-138633214D01*
X126555333Y-138580833D01*
X126502952Y-138554642D01*
X126398190Y-138554642D01*
X126345809Y-138580833D01*
X126581523Y-138895119D02*
X126529142Y-138921309D01*
X126398190Y-138921309D01*
X126345809Y-138895119D01*
X126319619Y-138842738D01*
X126319619Y-138790357D01*
X126345809Y-138737976D01*
X126398190Y-138711785D01*
X126529142Y-138711785D01*
X126581523Y-138685595D01*
X126817238Y-138895119D02*
X126869619Y-138921309D01*
X126974380Y-138921309D01*
X127026761Y-138895119D01*
X127052952Y-138842738D01*
X127052952Y-138816547D01*
X127026761Y-138764166D01*
X126974380Y-138737976D01*
X126895809Y-138737976D01*
X126843428Y-138711785D01*
X126817238Y-138659404D01*
X126817238Y-138633214D01*
X126843428Y-138580833D01*
X126895809Y-138554642D01*
X126974380Y-138554642D01*
X127026761Y-138580833D01*
X127210095Y-138554642D02*
X127419619Y-138554642D01*
X127288666Y-138371309D02*
X127288666Y-138842738D01*
X127314857Y-138895119D01*
X127367238Y-138921309D01*
X127419619Y-138921309D01*
X127812476Y-138895119D02*
X127760095Y-138921309D01*
X127655333Y-138921309D01*
X127602952Y-138895119D01*
X127576761Y-138842738D01*
X127576761Y-138633214D01*
X127602952Y-138580833D01*
X127655333Y-138554642D01*
X127760095Y-138554642D01*
X127812476Y-138580833D01*
X127838666Y-138633214D01*
X127838666Y-138685595D01*
X127576761Y-138737976D01*
X128074380Y-138921309D02*
X128074380Y-138554642D01*
X128074380Y-138659404D02*
X128100571Y-138607023D01*
X128126761Y-138580833D01*
X128179142Y-138554642D01*
X128231523Y-138554642D01*
X128807714Y-138345119D02*
X128336285Y-139052261D01*
X128991047Y-138633214D02*
X129174380Y-138633214D01*
X129252952Y-138921309D02*
X128991047Y-138921309D01*
X128991047Y-138371309D01*
X129252952Y-138371309D01*
X129488666Y-138554642D02*
X129488666Y-139104642D01*
X129488666Y-138580833D02*
X129541047Y-138554642D01*
X129645809Y-138554642D01*
X129698190Y-138580833D01*
X129724380Y-138607023D01*
X129750571Y-138659404D01*
X129750571Y-138816547D01*
X129724380Y-138868928D01*
X129698190Y-138895119D01*
X129645809Y-138921309D01*
X129541047Y-138921309D01*
X129488666Y-138895119D01*
X129986285Y-138921309D02*
X129986285Y-138554642D01*
X129986285Y-138371309D02*
X129960095Y-138397500D01*
X129986285Y-138423690D01*
X130012476Y-138397500D01*
X129986285Y-138371309D01*
X129986285Y-138423690D01*
X130222000Y-138895119D02*
X130274380Y-138921309D01*
X130379142Y-138921309D01*
X130431523Y-138895119D01*
X130457714Y-138842738D01*
X130457714Y-138816547D01*
X130431523Y-138764166D01*
X130379142Y-138737976D01*
X130300571Y-138737976D01*
X130248190Y-138711785D01*
X130222000Y-138659404D01*
X130222000Y-138633214D01*
X130248190Y-138580833D01*
X130300571Y-138554642D01*
X130379142Y-138554642D01*
X130431523Y-138580833D01*
X130772000Y-138921309D02*
X130719619Y-138895119D01*
X130693428Y-138868928D01*
X130667238Y-138816547D01*
X130667238Y-138659404D01*
X130693428Y-138607023D01*
X130719619Y-138580833D01*
X130772000Y-138554642D01*
X130850571Y-138554642D01*
X130902952Y-138580833D01*
X130929142Y-138607023D01*
X130955333Y-138659404D01*
X130955333Y-138816547D01*
X130929142Y-138868928D01*
X130902952Y-138895119D01*
X130850571Y-138921309D01*
X130772000Y-138921309D01*
X131426761Y-138921309D02*
X131426761Y-138371309D01*
X131426761Y-138895119D02*
X131374380Y-138921309D01*
X131269619Y-138921309D01*
X131217238Y-138895119D01*
X131191047Y-138868928D01*
X131164857Y-138816547D01*
X131164857Y-138659404D01*
X131191047Y-138607023D01*
X131217238Y-138580833D01*
X131269619Y-138554642D01*
X131374380Y-138554642D01*
X131426761Y-138580833D01*
X131898190Y-138895119D02*
X131845809Y-138921309D01*
X131741047Y-138921309D01*
X131688666Y-138895119D01*
X131662476Y-138842738D01*
X131662476Y-138633214D01*
X131688666Y-138580833D01*
X131741047Y-138554642D01*
X131845809Y-138554642D01*
X131898190Y-138580833D01*
X131924380Y-138633214D01*
X131924380Y-138685595D01*
X131662476Y-138737976D01*
X132264857Y-138371309D02*
X132317238Y-138371309D01*
X132369619Y-138397500D01*
X132395809Y-138423690D01*
X132422000Y-138476071D01*
X132448190Y-138580833D01*
X132448190Y-138711785D01*
X132422000Y-138816547D01*
X132395809Y-138868928D01*
X132369619Y-138895119D01*
X132317238Y-138921309D01*
X132264857Y-138921309D01*
X132212476Y-138895119D01*
X132186285Y-138868928D01*
X132160095Y-138816547D01*
X132133904Y-138711785D01*
X132133904Y-138580833D01*
X132160095Y-138476071D01*
X132186285Y-138423690D01*
X132212476Y-138397500D01*
X132264857Y-138371309D01*
X132762476Y-138607023D02*
X132710095Y-138580833D01*
X132683904Y-138554642D01*
X132657714Y-138502261D01*
X132657714Y-138476071D01*
X132683904Y-138423690D01*
X132710095Y-138397500D01*
X132762476Y-138371309D01*
X132867238Y-138371309D01*
X132919619Y-138397500D01*
X132945809Y-138423690D01*
X132972000Y-138476071D01*
X132972000Y-138502261D01*
X132945809Y-138554642D01*
X132919619Y-138580833D01*
X132867238Y-138607023D01*
X132762476Y-138607023D01*
X132710095Y-138633214D01*
X132683904Y-138659404D01*
X132657714Y-138711785D01*
X132657714Y-138816547D01*
X132683904Y-138868928D01*
X132710095Y-138895119D01*
X132762476Y-138921309D01*
X132867238Y-138921309D01*
X132919619Y-138895119D01*
X132945809Y-138868928D01*
X132972000Y-138816547D01*
X132972000Y-138711785D01*
X132945809Y-138659404D01*
X132919619Y-138633214D01*
X132867238Y-138607023D01*
X133600571Y-138345119D02*
X133129142Y-139052261D01*
X133783904Y-138921309D02*
X133783904Y-138371309D01*
X134019619Y-138921309D02*
X134019619Y-138633214D01*
X133993428Y-138580833D01*
X133941047Y-138554642D01*
X133862476Y-138554642D01*
X133810095Y-138580833D01*
X133783904Y-138607023D01*
X134491047Y-138895119D02*
X134438666Y-138921309D01*
X134333904Y-138921309D01*
X134281523Y-138895119D01*
X134255333Y-138842738D01*
X134255333Y-138633214D01*
X134281523Y-138580833D01*
X134333904Y-138554642D01*
X134438666Y-138554642D01*
X134491047Y-138580833D01*
X134517238Y-138633214D01*
X134517238Y-138685595D01*
X134255333Y-138737976D01*
X134700571Y-138921309D02*
X134988666Y-138554642D01*
X134700571Y-138554642D02*
X134988666Y-138921309D01*
X135433904Y-138921309D02*
X135433904Y-138371309D01*
X135433904Y-138895119D02*
X135381523Y-138921309D01*
X135276761Y-138921309D01*
X135224380Y-138895119D01*
X135198190Y-138868928D01*
X135172000Y-138816547D01*
X135172000Y-138659404D01*
X135198190Y-138607023D01*
X135224380Y-138580833D01*
X135276761Y-138554642D01*
X135381523Y-138554642D01*
X135433904Y-138580833D01*
X135695809Y-138921309D02*
X135695809Y-138554642D01*
X135695809Y-138371309D02*
X135669619Y-138397500D01*
X135695809Y-138423690D01*
X135722000Y-138397500D01*
X135695809Y-138371309D01*
X135695809Y-138423690D01*
X135931523Y-138895119D02*
X135983904Y-138921309D01*
X136088666Y-138921309D01*
X136141047Y-138895119D01*
X136167238Y-138842738D01*
X136167238Y-138816547D01*
X136141047Y-138764166D01*
X136088666Y-138737976D01*
X136010095Y-138737976D01*
X135957714Y-138711785D01*
X135931523Y-138659404D01*
X135931523Y-138633214D01*
X135957714Y-138580833D01*
X136010095Y-138554642D01*
X136088666Y-138554642D01*
X136141047Y-138580833D01*
X136402952Y-138554642D02*
X136402952Y-139104642D01*
X136402952Y-138580833D02*
X136455333Y-138554642D01*
X136560095Y-138554642D01*
X136612476Y-138580833D01*
X136638666Y-138607023D01*
X136664857Y-138659404D01*
X136664857Y-138816547D01*
X136638666Y-138868928D01*
X136612476Y-138895119D01*
X136560095Y-138921309D01*
X136455333Y-138921309D01*
X136402952Y-138895119D01*
X136979142Y-138921309D02*
X136926761Y-138895119D01*
X136900571Y-138842738D01*
X136900571Y-138371309D01*
X137424380Y-138921309D02*
X137424380Y-138633214D01*
X137398190Y-138580833D01*
X137345809Y-138554642D01*
X137241047Y-138554642D01*
X137188666Y-138580833D01*
X137424380Y-138895119D02*
X137372000Y-138921309D01*
X137241047Y-138921309D01*
X137188666Y-138895119D01*
X137162476Y-138842738D01*
X137162476Y-138790357D01*
X137188666Y-138737976D01*
X137241047Y-138711785D01*
X137372000Y-138711785D01*
X137424380Y-138685595D01*
X137633904Y-138554642D02*
X137764857Y-138921309D01*
X137895809Y-138554642D02*
X137764857Y-138921309D01*
X137712476Y-139052261D01*
X137686285Y-139078452D01*
X137633904Y-139104642D01*
X138393428Y-138921309D02*
X138079142Y-138921309D01*
X138236285Y-138921309D02*
X138236285Y-138371309D01*
X138183904Y-138449880D01*
X138131523Y-138502261D01*
X138079142Y-138528452D01*
X138864857Y-138371309D02*
X138760095Y-138371309D01*
X138707714Y-138397500D01*
X138681523Y-138423690D01*
X138629142Y-138502261D01*
X138602952Y-138607023D01*
X138602952Y-138816547D01*
X138629142Y-138868928D01*
X138655333Y-138895119D01*
X138707714Y-138921309D01*
X138812476Y-138921309D01*
X138864857Y-138895119D01*
X138891047Y-138868928D01*
X138917238Y-138816547D01*
X138917238Y-138685595D01*
X138891047Y-138633214D01*
X138864857Y-138607023D01*
X138812476Y-138580833D01*
X138707714Y-138580833D01*
X138655333Y-138607023D01*
X138629142Y-138633214D01*
X138602952Y-138685595D01*
D10*
X119446428Y-138439285D02*
X119446428Y-137689285D01*
X119625000Y-137689285D01*
X119732142Y-137725000D01*
X119803571Y-137796428D01*
X119839285Y-137867857D01*
X119875000Y-138010714D01*
X119875000Y-138117857D01*
X119839285Y-138260714D01*
X119803571Y-138332142D01*
X119732142Y-138403571D01*
X119625000Y-138439285D01*
X119446428Y-138439285D01*
X120339285Y-137689285D02*
X120410714Y-137689285D01*
X120482142Y-137725000D01*
X120517857Y-137760714D01*
X120553571Y-137832142D01*
X120589285Y-137975000D01*
X120589285Y-138153571D01*
X120553571Y-138296428D01*
X120517857Y-138367857D01*
X120482142Y-138403571D01*
X120410714Y-138439285D01*
X120339285Y-138439285D01*
X120267857Y-138403571D01*
X120232142Y-138367857D01*
X120196428Y-138296428D01*
X120160714Y-138153571D01*
X120160714Y-137975000D01*
X120196428Y-137832142D01*
X120232142Y-137760714D01*
X120267857Y-137725000D01*
X120339285Y-137689285D01*
X80989285Y-138439285D02*
X80989285Y-137689285D01*
X81167857Y-137689285D01*
X81275000Y-137725000D01*
X81346428Y-137796428D01*
X81382142Y-137867857D01*
X81417857Y-138010714D01*
X81417857Y-138117857D01*
X81382142Y-138260714D01*
X81346428Y-138332142D01*
X81275000Y-138403571D01*
X81167857Y-138439285D01*
X80989285Y-138439285D01*
X82132142Y-138439285D02*
X81703571Y-138439285D01*
X81917857Y-138439285D02*
X81917857Y-137689285D01*
X81846428Y-137796428D01*
X81775000Y-137867857D01*
X81703571Y-137903571D01*
X82810714Y-137689285D02*
X82453571Y-137689285D01*
X82417857Y-138046428D01*
X82453571Y-138010714D01*
X82525000Y-137975000D01*
X82703571Y-137975000D01*
X82775000Y-138010714D01*
X82810714Y-138046428D01*
X82846428Y-138117857D01*
X82846428Y-138296428D01*
X82810714Y-138367857D01*
X82775000Y-138403571D01*
X82703571Y-138439285D01*
X82525000Y-138439285D01*
X82453571Y-138403571D01*
X82417857Y-138367857D01*
D11*
%TO.C,J12*%
X136050000Y-122870000D02*
X137380000Y-122870000D01*
X136050000Y-124200000D02*
X136050000Y-122870000D01*
X136050000Y-125470000D02*
X138710000Y-125470000D01*
X138710000Y-125470000D02*
X138710000Y-135690000D01*
X136050000Y-125470000D02*
X136050000Y-135690000D01*
X136050000Y-135690000D02*
X138710000Y-135690000D01*
%TO.C,J11*%
X130970000Y-122870000D02*
X132300000Y-122870000D01*
X130970000Y-124200000D02*
X130970000Y-122870000D01*
X130970000Y-125470000D02*
X133630000Y-125470000D01*
X133630000Y-125470000D02*
X133630000Y-135690000D01*
X130970000Y-125470000D02*
X130970000Y-135690000D01*
X130970000Y-135690000D02*
X133630000Y-135690000D01*
%TO.C,J22*%
X128250000Y-135690000D02*
X130910000Y-135690000D01*
X128250000Y-125470000D02*
X128250000Y-135690000D01*
X130910000Y-125470000D02*
X130910000Y-135690000D01*
X128250000Y-125470000D02*
X130910000Y-125470000D01*
X128250000Y-124200000D02*
X128250000Y-122870000D01*
X128250000Y-122870000D02*
X129580000Y-122870000D01*
%TO.C,J32*%
X120450000Y-122870000D02*
X121780000Y-122870000D01*
X120450000Y-124200000D02*
X120450000Y-122870000D01*
X120450000Y-125470000D02*
X123110000Y-125470000D01*
X123110000Y-125470000D02*
X123110000Y-135690000D01*
X120450000Y-125470000D02*
X120450000Y-135690000D01*
X120450000Y-135690000D02*
X123110000Y-135690000D01*
%TO.C,J41*%
X107570000Y-135690000D02*
X110230000Y-135690000D01*
X107570000Y-125470000D02*
X107570000Y-135690000D01*
X110230000Y-125470000D02*
X110230000Y-135690000D01*
X107570000Y-125470000D02*
X110230000Y-125470000D01*
X107570000Y-124200000D02*
X107570000Y-122870000D01*
X107570000Y-122870000D02*
X108900000Y-122870000D01*
%TO.C,J31*%
X115370000Y-122870000D02*
X116700000Y-122870000D01*
X115370000Y-124200000D02*
X115370000Y-122870000D01*
X115370000Y-125470000D02*
X118030000Y-125470000D01*
X118030000Y-125470000D02*
X118030000Y-135690000D01*
X115370000Y-125470000D02*
X115370000Y-135690000D01*
X115370000Y-135690000D02*
X118030000Y-135690000D01*
%TO.C,J42*%
X112650000Y-135690000D02*
X115310000Y-135690000D01*
X112650000Y-125470000D02*
X112650000Y-135690000D01*
X115310000Y-125470000D02*
X115310000Y-135690000D01*
X112650000Y-125470000D02*
X115310000Y-125470000D01*
X112650000Y-124200000D02*
X112650000Y-122870000D01*
X112650000Y-122870000D02*
X113980000Y-122870000D01*
%TO.C,J21*%
X123170000Y-135690000D02*
X125830000Y-135690000D01*
X123170000Y-125470000D02*
X123170000Y-135690000D01*
X125830000Y-125470000D02*
X125830000Y-135690000D01*
X123170000Y-125470000D02*
X125830000Y-125470000D01*
X123170000Y-124200000D02*
X123170000Y-122870000D01*
X123170000Y-122870000D02*
X124500000Y-122870000D01*
%TO.C,J6*%
X121330000Y-138670000D02*
X121330000Y-140000000D01*
X120000000Y-138670000D02*
X121330000Y-138670000D01*
X118730000Y-138670000D02*
X118730000Y-141330000D01*
X118730000Y-141330000D02*
X80570000Y-141330000D01*
X118730000Y-138670000D02*
X80570000Y-138670000D01*
X80570000Y-138670000D02*
X80570000Y-141330000D01*
%TO.C,C1*%
X82910000Y-126473752D02*
X82910000Y-125051248D01*
X81090000Y-126473752D02*
X81090000Y-125051248D01*
%TO.C,J5*%
X80570000Y-129050000D02*
X81900000Y-129050000D01*
X80570000Y-130380000D02*
X80570000Y-129050000D01*
X80570000Y-131650000D02*
X83230000Y-131650000D01*
X83230000Y-131650000D02*
X83230000Y-134250000D01*
X80570000Y-131650000D02*
X80570000Y-134250000D01*
X80570000Y-134250000D02*
X83230000Y-134250000D01*
%TO.C,J7*%
X76870000Y-123970000D02*
X78200000Y-123970000D01*
X76870000Y-125300000D02*
X76870000Y-123970000D01*
X76870000Y-126570000D02*
X79530000Y-126570000D01*
X79530000Y-126570000D02*
X79530000Y-139330000D01*
X76870000Y-126570000D02*
X76870000Y-139330000D01*
X76870000Y-139330000D02*
X79530000Y-139330000D01*
%TO.C,Q1*%
X112260000Y-120780000D02*
X112260000Y-119850000D01*
X112260000Y-117620000D02*
X112260000Y-118550000D01*
X112260000Y-117620000D02*
X110100000Y-117620000D01*
X112260000Y-120780000D02*
X110800000Y-120780000D01*
%TO.C,Q2*%
X120160000Y-120780000D02*
X118700000Y-120780000D01*
X120160000Y-117620000D02*
X118000000Y-117620000D01*
X120160000Y-117620000D02*
X120160000Y-118550000D01*
X120160000Y-120780000D02*
X120160000Y-119850000D01*
%TO.C,Q3*%
X128060000Y-120780000D02*
X126600000Y-120780000D01*
X128060000Y-117620000D02*
X125900000Y-117620000D01*
X128060000Y-117620000D02*
X128060000Y-118550000D01*
X128060000Y-120780000D02*
X128060000Y-119850000D01*
%TO.C,Q4*%
X135560000Y-120780000D02*
X135560000Y-119850000D01*
X135560000Y-117620000D02*
X135560000Y-118550000D01*
X135560000Y-117620000D02*
X133400000Y-117620000D01*
X135560000Y-120780000D02*
X134100000Y-120780000D01*
%TO.C,R1*%
X102872936Y-122935000D02*
X103327064Y-122935000D01*
X102872936Y-121465000D02*
X103327064Y-121465000D01*
%TO.C,R2*%
X102872936Y-123715000D02*
X103327064Y-123715000D01*
X102872936Y-125185000D02*
X103327064Y-125185000D01*
%TO.C,R3*%
X102872936Y-127435000D02*
X103327064Y-127435000D01*
X102872936Y-125965000D02*
X103327064Y-125965000D01*
%TO.C,R4*%
X102872936Y-128215000D02*
X103327064Y-128215000D01*
X102872936Y-129685000D02*
X103327064Y-129685000D01*
%TO.C,R5*%
X102872936Y-131935000D02*
X103327064Y-131935000D01*
X102872936Y-130465000D02*
X103327064Y-130465000D01*
%TO.C,R6*%
X102872936Y-132715000D02*
X103327064Y-132715000D01*
X102872936Y-134185000D02*
X103327064Y-134185000D01*
%TO.C,R7*%
X102872936Y-136435000D02*
X103327064Y-136435000D01*
X102872936Y-134965000D02*
X103327064Y-134965000D01*
%TO.C,R8*%
X96765000Y-119472936D02*
X96765000Y-119927064D01*
X98235000Y-119472936D02*
X98235000Y-119927064D01*
%TO.C,R9*%
X94935000Y-119472936D02*
X94935000Y-119927064D01*
X93465000Y-119472936D02*
X93465000Y-119927064D01*
%TO.C,R10*%
X90165000Y-119472936D02*
X90165000Y-119927064D01*
X91635000Y-119472936D02*
X91635000Y-119927064D01*
%TO.C,R11*%
X88235000Y-119472936D02*
X88235000Y-119927064D01*
X86765000Y-119472936D02*
X86765000Y-119927064D01*
%TO.C,U1*%
X86590000Y-125065000D02*
X85300000Y-125065000D01*
X86590000Y-124490000D02*
X86590000Y-125065000D01*
X87165000Y-124490000D02*
X86590000Y-124490000D01*
X96810000Y-124490000D02*
X96810000Y-125065000D01*
X96235000Y-124490000D02*
X96810000Y-124490000D01*
X86590000Y-134710000D02*
X86590000Y-134135000D01*
X87165000Y-134710000D02*
X86590000Y-134710000D01*
X96810000Y-134710000D02*
X96810000Y-134135000D01*
X96235000Y-134710000D02*
X96810000Y-134710000D01*
%TO.C,J12*%
D10*
X136570476Y-121322380D02*
X136570476Y-122036666D01*
X136522857Y-122179523D01*
X136427619Y-122274761D01*
X136284761Y-122322380D01*
X136189523Y-122322380D01*
X137570476Y-122322380D02*
X136999047Y-122322380D01*
X137284761Y-122322380D02*
X137284761Y-121322380D01*
X137189523Y-121465238D01*
X137094285Y-121560476D01*
X136999047Y-121608095D01*
X137951428Y-121417619D02*
X137999047Y-121370000D01*
X138094285Y-121322380D01*
X138332380Y-121322380D01*
X138427619Y-121370000D01*
X138475238Y-121417619D01*
X138522857Y-121512857D01*
X138522857Y-121608095D01*
X138475238Y-121750952D01*
X137903809Y-122322380D01*
X138522857Y-122322380D01*
%TO.C,J11*%
X131490476Y-121322380D02*
X131490476Y-122036666D01*
X131442857Y-122179523D01*
X131347619Y-122274761D01*
X131204761Y-122322380D01*
X131109523Y-122322380D01*
X132490476Y-122322380D02*
X131919047Y-122322380D01*
X132204761Y-122322380D02*
X132204761Y-121322380D01*
X132109523Y-121465238D01*
X132014285Y-121560476D01*
X131919047Y-121608095D01*
X133442857Y-122322380D02*
X132871428Y-122322380D01*
X133157142Y-122322380D02*
X133157142Y-121322380D01*
X133061904Y-121465238D01*
X132966666Y-121560476D01*
X132871428Y-121608095D01*
%TO.C,J22*%
X128770476Y-121322380D02*
X128770476Y-122036666D01*
X128722857Y-122179523D01*
X128627619Y-122274761D01*
X128484761Y-122322380D01*
X128389523Y-122322380D01*
X129199047Y-121417619D02*
X129246666Y-121370000D01*
X129341904Y-121322380D01*
X129580000Y-121322380D01*
X129675238Y-121370000D01*
X129722857Y-121417619D01*
X129770476Y-121512857D01*
X129770476Y-121608095D01*
X129722857Y-121750952D01*
X129151428Y-122322380D01*
X129770476Y-122322380D01*
X130151428Y-121417619D02*
X130199047Y-121370000D01*
X130294285Y-121322380D01*
X130532380Y-121322380D01*
X130627619Y-121370000D01*
X130675238Y-121417619D01*
X130722857Y-121512857D01*
X130722857Y-121608095D01*
X130675238Y-121750952D01*
X130103809Y-122322380D01*
X130722857Y-122322380D01*
%TO.C,J32*%
X120970476Y-121322380D02*
X120970476Y-122036666D01*
X120922857Y-122179523D01*
X120827619Y-122274761D01*
X120684761Y-122322380D01*
X120589523Y-122322380D01*
X121351428Y-121322380D02*
X121970476Y-121322380D01*
X121637142Y-121703333D01*
X121780000Y-121703333D01*
X121875238Y-121750952D01*
X121922857Y-121798571D01*
X121970476Y-121893809D01*
X121970476Y-122131904D01*
X121922857Y-122227142D01*
X121875238Y-122274761D01*
X121780000Y-122322380D01*
X121494285Y-122322380D01*
X121399047Y-122274761D01*
X121351428Y-122227142D01*
X122351428Y-121417619D02*
X122399047Y-121370000D01*
X122494285Y-121322380D01*
X122732380Y-121322380D01*
X122827619Y-121370000D01*
X122875238Y-121417619D01*
X122922857Y-121512857D01*
X122922857Y-121608095D01*
X122875238Y-121750952D01*
X122303809Y-122322380D01*
X122922857Y-122322380D01*
%TO.C,J41*%
X108090476Y-121322380D02*
X108090476Y-122036666D01*
X108042857Y-122179523D01*
X107947619Y-122274761D01*
X107804761Y-122322380D01*
X107709523Y-122322380D01*
X108995238Y-121655714D02*
X108995238Y-122322380D01*
X108757142Y-121274761D02*
X108519047Y-121989047D01*
X109138095Y-121989047D01*
X110042857Y-122322380D02*
X109471428Y-122322380D01*
X109757142Y-122322380D02*
X109757142Y-121322380D01*
X109661904Y-121465238D01*
X109566666Y-121560476D01*
X109471428Y-121608095D01*
%TO.C,J31*%
X115890476Y-121322380D02*
X115890476Y-122036666D01*
X115842857Y-122179523D01*
X115747619Y-122274761D01*
X115604761Y-122322380D01*
X115509523Y-122322380D01*
X116271428Y-121322380D02*
X116890476Y-121322380D01*
X116557142Y-121703333D01*
X116700000Y-121703333D01*
X116795238Y-121750952D01*
X116842857Y-121798571D01*
X116890476Y-121893809D01*
X116890476Y-122131904D01*
X116842857Y-122227142D01*
X116795238Y-122274761D01*
X116700000Y-122322380D01*
X116414285Y-122322380D01*
X116319047Y-122274761D01*
X116271428Y-122227142D01*
X117842857Y-122322380D02*
X117271428Y-122322380D01*
X117557142Y-122322380D02*
X117557142Y-121322380D01*
X117461904Y-121465238D01*
X117366666Y-121560476D01*
X117271428Y-121608095D01*
%TO.C,J42*%
X113170476Y-121322380D02*
X113170476Y-122036666D01*
X113122857Y-122179523D01*
X113027619Y-122274761D01*
X112884761Y-122322380D01*
X112789523Y-122322380D01*
X114075238Y-121655714D02*
X114075238Y-122322380D01*
X113837142Y-121274761D02*
X113599047Y-121989047D01*
X114218095Y-121989047D01*
X114551428Y-121417619D02*
X114599047Y-121370000D01*
X114694285Y-121322380D01*
X114932380Y-121322380D01*
X115027619Y-121370000D01*
X115075238Y-121417619D01*
X115122857Y-121512857D01*
X115122857Y-121608095D01*
X115075238Y-121750952D01*
X114503809Y-122322380D01*
X115122857Y-122322380D01*
%TO.C,J21*%
X123690476Y-121322380D02*
X123690476Y-122036666D01*
X123642857Y-122179523D01*
X123547619Y-122274761D01*
X123404761Y-122322380D01*
X123309523Y-122322380D01*
X124119047Y-121417619D02*
X124166666Y-121370000D01*
X124261904Y-121322380D01*
X124500000Y-121322380D01*
X124595238Y-121370000D01*
X124642857Y-121417619D01*
X124690476Y-121512857D01*
X124690476Y-121608095D01*
X124642857Y-121750952D01*
X124071428Y-122322380D01*
X124690476Y-122322380D01*
X125642857Y-122322380D02*
X125071428Y-122322380D01*
X125357142Y-122322380D02*
X125357142Y-121322380D01*
X125261904Y-121465238D01*
X125166666Y-121560476D01*
X125071428Y-121608095D01*
%TO.C,J6*%
X121652380Y-140333333D02*
X122366666Y-140333333D01*
X122509523Y-140380952D01*
X122604761Y-140476190D01*
X122652380Y-140619047D01*
X122652380Y-140714285D01*
X121652380Y-139428571D02*
X121652380Y-139619047D01*
X121700000Y-139714285D01*
X121747619Y-139761904D01*
X121890476Y-139857142D01*
X122080952Y-139904761D01*
X122461904Y-139904761D01*
X122557142Y-139857142D01*
X122604761Y-139809523D01*
X122652380Y-139714285D01*
X122652380Y-139523809D01*
X122604761Y-139428571D01*
X122557142Y-139380952D01*
X122461904Y-139333333D01*
X122223809Y-139333333D01*
X122128571Y-139380952D01*
X122080952Y-139428571D01*
X122033333Y-139523809D01*
X122033333Y-139714285D01*
X122080952Y-139809523D01*
X122128571Y-139857142D01*
X122223809Y-139904761D01*
%TO.C,C1*%
X81833333Y-122957142D02*
X81785714Y-123004761D01*
X81642857Y-123052380D01*
X81547619Y-123052380D01*
X81404761Y-123004761D01*
X81309523Y-122909523D01*
X81261904Y-122814285D01*
X81214285Y-122623809D01*
X81214285Y-122480952D01*
X81261904Y-122290476D01*
X81309523Y-122195238D01*
X81404761Y-122100000D01*
X81547619Y-122052380D01*
X81642857Y-122052380D01*
X81785714Y-122100000D01*
X81833333Y-122147619D01*
X82785714Y-123052380D02*
X82214285Y-123052380D01*
X82500000Y-123052380D02*
X82500000Y-122052380D01*
X82404761Y-122195238D01*
X82309523Y-122290476D01*
X82214285Y-122338095D01*
%TO.C,J5*%
X81466666Y-134452380D02*
X81466666Y-135166666D01*
X81419047Y-135309523D01*
X81323809Y-135404761D01*
X81180952Y-135452380D01*
X81085714Y-135452380D01*
X82419047Y-134452380D02*
X81942857Y-134452380D01*
X81895238Y-134928571D01*
X81942857Y-134880952D01*
X82038095Y-134833333D01*
X82276190Y-134833333D01*
X82371428Y-134880952D01*
X82419047Y-134928571D01*
X82466666Y-135023809D01*
X82466666Y-135261904D01*
X82419047Y-135357142D01*
X82371428Y-135404761D01*
X82276190Y-135452380D01*
X82038095Y-135452380D01*
X81942857Y-135404761D01*
X81895238Y-135357142D01*
%TO.C,J7*%
X77866666Y-122422380D02*
X77866666Y-123136666D01*
X77819047Y-123279523D01*
X77723809Y-123374761D01*
X77580952Y-123422380D01*
X77485714Y-123422380D01*
X78247619Y-122422380D02*
X78914285Y-122422380D01*
X78485714Y-123422380D01*
%TO.C,Q1*%
X108704761Y-119947619D02*
X108609523Y-119900000D01*
X108514285Y-119804761D01*
X108371428Y-119661904D01*
X108276190Y-119614285D01*
X108180952Y-119614285D01*
X108228571Y-119852380D02*
X108133333Y-119804761D01*
X108038095Y-119709523D01*
X107990476Y-119519047D01*
X107990476Y-119185714D01*
X108038095Y-118995238D01*
X108133333Y-118900000D01*
X108228571Y-118852380D01*
X108419047Y-118852380D01*
X108514285Y-118900000D01*
X108609523Y-118995238D01*
X108657142Y-119185714D01*
X108657142Y-119519047D01*
X108609523Y-119709523D01*
X108514285Y-119804761D01*
X108419047Y-119852380D01*
X108228571Y-119852380D01*
X109609523Y-119852380D02*
X109038095Y-119852380D01*
X109323809Y-119852380D02*
X109323809Y-118852380D01*
X109228571Y-118995238D01*
X109133333Y-119090476D01*
X109038095Y-119138095D01*
%TO.C,Q2*%
X116604761Y-119847619D02*
X116509523Y-119800000D01*
X116414285Y-119704761D01*
X116271428Y-119561904D01*
X116176190Y-119514285D01*
X116080952Y-119514285D01*
X116128571Y-119752380D02*
X116033333Y-119704761D01*
X115938095Y-119609523D01*
X115890476Y-119419047D01*
X115890476Y-119085714D01*
X115938095Y-118895238D01*
X116033333Y-118800000D01*
X116128571Y-118752380D01*
X116319047Y-118752380D01*
X116414285Y-118800000D01*
X116509523Y-118895238D01*
X116557142Y-119085714D01*
X116557142Y-119419047D01*
X116509523Y-119609523D01*
X116414285Y-119704761D01*
X116319047Y-119752380D01*
X116128571Y-119752380D01*
X116938095Y-118847619D02*
X116985714Y-118800000D01*
X117080952Y-118752380D01*
X117319047Y-118752380D01*
X117414285Y-118800000D01*
X117461904Y-118847619D01*
X117509523Y-118942857D01*
X117509523Y-119038095D01*
X117461904Y-119180952D01*
X116890476Y-119752380D01*
X117509523Y-119752380D01*
%TO.C,Q3*%
X124404761Y-119647619D02*
X124309523Y-119600000D01*
X124214285Y-119504761D01*
X124071428Y-119361904D01*
X123976190Y-119314285D01*
X123880952Y-119314285D01*
X123928571Y-119552380D02*
X123833333Y-119504761D01*
X123738095Y-119409523D01*
X123690476Y-119219047D01*
X123690476Y-118885714D01*
X123738095Y-118695238D01*
X123833333Y-118600000D01*
X123928571Y-118552380D01*
X124119047Y-118552380D01*
X124214285Y-118600000D01*
X124309523Y-118695238D01*
X124357142Y-118885714D01*
X124357142Y-119219047D01*
X124309523Y-119409523D01*
X124214285Y-119504761D01*
X124119047Y-119552380D01*
X123928571Y-119552380D01*
X124690476Y-118552380D02*
X125309523Y-118552380D01*
X124976190Y-118933333D01*
X125119047Y-118933333D01*
X125214285Y-118980952D01*
X125261904Y-119028571D01*
X125309523Y-119123809D01*
X125309523Y-119361904D01*
X125261904Y-119457142D01*
X125214285Y-119504761D01*
X125119047Y-119552380D01*
X124833333Y-119552380D01*
X124738095Y-119504761D01*
X124690476Y-119457142D01*
%TO.C,Q4*%
X131904761Y-119647619D02*
X131809523Y-119600000D01*
X131714285Y-119504761D01*
X131571428Y-119361904D01*
X131476190Y-119314285D01*
X131380952Y-119314285D01*
X131428571Y-119552380D02*
X131333333Y-119504761D01*
X131238095Y-119409523D01*
X131190476Y-119219047D01*
X131190476Y-118885714D01*
X131238095Y-118695238D01*
X131333333Y-118600000D01*
X131428571Y-118552380D01*
X131619047Y-118552380D01*
X131714285Y-118600000D01*
X131809523Y-118695238D01*
X131857142Y-118885714D01*
X131857142Y-119219047D01*
X131809523Y-119409523D01*
X131714285Y-119504761D01*
X131619047Y-119552380D01*
X131428571Y-119552380D01*
X132714285Y-118885714D02*
X132714285Y-119552380D01*
X132476190Y-118504761D02*
X132238095Y-119219047D01*
X132857142Y-119219047D01*
%TO.C,R1*%
X100133333Y-122752380D02*
X99800000Y-122276190D01*
X99561904Y-122752380D02*
X99561904Y-121752380D01*
X99942857Y-121752380D01*
X100038095Y-121800000D01*
X100085714Y-121847619D01*
X100133333Y-121942857D01*
X100133333Y-122085714D01*
X100085714Y-122180952D01*
X100038095Y-122228571D01*
X99942857Y-122276190D01*
X99561904Y-122276190D01*
X101085714Y-122752380D02*
X100514285Y-122752380D01*
X100800000Y-122752380D02*
X100800000Y-121752380D01*
X100704761Y-121895238D01*
X100609523Y-121990476D01*
X100514285Y-122038095D01*
%TO.C,R2*%
X100133333Y-124902380D02*
X99800000Y-124426190D01*
X99561904Y-124902380D02*
X99561904Y-123902380D01*
X99942857Y-123902380D01*
X100038095Y-123950000D01*
X100085714Y-123997619D01*
X100133333Y-124092857D01*
X100133333Y-124235714D01*
X100085714Y-124330952D01*
X100038095Y-124378571D01*
X99942857Y-124426190D01*
X99561904Y-124426190D01*
X100514285Y-123997619D02*
X100561904Y-123950000D01*
X100657142Y-123902380D01*
X100895238Y-123902380D01*
X100990476Y-123950000D01*
X101038095Y-123997619D01*
X101085714Y-124092857D01*
X101085714Y-124188095D01*
X101038095Y-124330952D01*
X100466666Y-124902380D01*
X101085714Y-124902380D01*
%TO.C,R3*%
X100133333Y-127152380D02*
X99800000Y-126676190D01*
X99561904Y-127152380D02*
X99561904Y-126152380D01*
X99942857Y-126152380D01*
X100038095Y-126200000D01*
X100085714Y-126247619D01*
X100133333Y-126342857D01*
X100133333Y-126485714D01*
X100085714Y-126580952D01*
X100038095Y-126628571D01*
X99942857Y-126676190D01*
X99561904Y-126676190D01*
X100466666Y-126152380D02*
X101085714Y-126152380D01*
X100752380Y-126533333D01*
X100895238Y-126533333D01*
X100990476Y-126580952D01*
X101038095Y-126628571D01*
X101085714Y-126723809D01*
X101085714Y-126961904D01*
X101038095Y-127057142D01*
X100990476Y-127104761D01*
X100895238Y-127152380D01*
X100609523Y-127152380D01*
X100514285Y-127104761D01*
X100466666Y-127057142D01*
%TO.C,R4*%
X100133333Y-129402380D02*
X99800000Y-128926190D01*
X99561904Y-129402380D02*
X99561904Y-128402380D01*
X99942857Y-128402380D01*
X100038095Y-128450000D01*
X100085714Y-128497619D01*
X100133333Y-128592857D01*
X100133333Y-128735714D01*
X100085714Y-128830952D01*
X100038095Y-128878571D01*
X99942857Y-128926190D01*
X99561904Y-128926190D01*
X100990476Y-128735714D02*
X100990476Y-129402380D01*
X100752380Y-128354761D02*
X100514285Y-129069047D01*
X101133333Y-129069047D01*
%TO.C,R5*%
X100033333Y-131752380D02*
X99700000Y-131276190D01*
X99461904Y-131752380D02*
X99461904Y-130752380D01*
X99842857Y-130752380D01*
X99938095Y-130800000D01*
X99985714Y-130847619D01*
X100033333Y-130942857D01*
X100033333Y-131085714D01*
X99985714Y-131180952D01*
X99938095Y-131228571D01*
X99842857Y-131276190D01*
X99461904Y-131276190D01*
X100938095Y-130752380D02*
X100461904Y-130752380D01*
X100414285Y-131228571D01*
X100461904Y-131180952D01*
X100557142Y-131133333D01*
X100795238Y-131133333D01*
X100890476Y-131180952D01*
X100938095Y-131228571D01*
X100985714Y-131323809D01*
X100985714Y-131561904D01*
X100938095Y-131657142D01*
X100890476Y-131704761D01*
X100795238Y-131752380D01*
X100557142Y-131752380D01*
X100461904Y-131704761D01*
X100414285Y-131657142D01*
%TO.C,R6*%
X100033333Y-134002380D02*
X99700000Y-133526190D01*
X99461904Y-134002380D02*
X99461904Y-133002380D01*
X99842857Y-133002380D01*
X99938095Y-133050000D01*
X99985714Y-133097619D01*
X100033333Y-133192857D01*
X100033333Y-133335714D01*
X99985714Y-133430952D01*
X99938095Y-133478571D01*
X99842857Y-133526190D01*
X99461904Y-133526190D01*
X100890476Y-133002380D02*
X100700000Y-133002380D01*
X100604761Y-133050000D01*
X100557142Y-133097619D01*
X100461904Y-133240476D01*
X100414285Y-133430952D01*
X100414285Y-133811904D01*
X100461904Y-133907142D01*
X100509523Y-133954761D01*
X100604761Y-134002380D01*
X100795238Y-134002380D01*
X100890476Y-133954761D01*
X100938095Y-133907142D01*
X100985714Y-133811904D01*
X100985714Y-133573809D01*
X100938095Y-133478571D01*
X100890476Y-133430952D01*
X100795238Y-133383333D01*
X100604761Y-133383333D01*
X100509523Y-133430952D01*
X100461904Y-133478571D01*
X100414285Y-133573809D01*
%TO.C,R7*%
X100033333Y-136252380D02*
X99700000Y-135776190D01*
X99461904Y-136252380D02*
X99461904Y-135252380D01*
X99842857Y-135252380D01*
X99938095Y-135300000D01*
X99985714Y-135347619D01*
X100033333Y-135442857D01*
X100033333Y-135585714D01*
X99985714Y-135680952D01*
X99938095Y-135728571D01*
X99842857Y-135776190D01*
X99461904Y-135776190D01*
X100366666Y-135252380D02*
X101033333Y-135252380D01*
X100604761Y-136252380D01*
%TO.C,R8*%
X99602380Y-119866666D02*
X99126190Y-120200000D01*
X99602380Y-120438095D02*
X98602380Y-120438095D01*
X98602380Y-120057142D01*
X98650000Y-119961904D01*
X98697619Y-119914285D01*
X98792857Y-119866666D01*
X98935714Y-119866666D01*
X99030952Y-119914285D01*
X99078571Y-119961904D01*
X99126190Y-120057142D01*
X99126190Y-120438095D01*
X99030952Y-119295238D02*
X98983333Y-119390476D01*
X98935714Y-119438095D01*
X98840476Y-119485714D01*
X98792857Y-119485714D01*
X98697619Y-119438095D01*
X98650000Y-119390476D01*
X98602380Y-119295238D01*
X98602380Y-119104761D01*
X98650000Y-119009523D01*
X98697619Y-118961904D01*
X98792857Y-118914285D01*
X98840476Y-118914285D01*
X98935714Y-118961904D01*
X98983333Y-119009523D01*
X99030952Y-119104761D01*
X99030952Y-119295238D01*
X99078571Y-119390476D01*
X99126190Y-119438095D01*
X99221428Y-119485714D01*
X99411904Y-119485714D01*
X99507142Y-119438095D01*
X99554761Y-119390476D01*
X99602380Y-119295238D01*
X99602380Y-119104761D01*
X99554761Y-119009523D01*
X99507142Y-118961904D01*
X99411904Y-118914285D01*
X99221428Y-118914285D01*
X99126190Y-118961904D01*
X99078571Y-119009523D01*
X99030952Y-119104761D01*
%TO.C,R9*%
X96302380Y-119866666D02*
X95826190Y-120200000D01*
X96302380Y-120438095D02*
X95302380Y-120438095D01*
X95302380Y-120057142D01*
X95350000Y-119961904D01*
X95397619Y-119914285D01*
X95492857Y-119866666D01*
X95635714Y-119866666D01*
X95730952Y-119914285D01*
X95778571Y-119961904D01*
X95826190Y-120057142D01*
X95826190Y-120438095D01*
X96302380Y-119390476D02*
X96302380Y-119200000D01*
X96254761Y-119104761D01*
X96207142Y-119057142D01*
X96064285Y-118961904D01*
X95873809Y-118914285D01*
X95492857Y-118914285D01*
X95397619Y-118961904D01*
X95350000Y-119009523D01*
X95302380Y-119104761D01*
X95302380Y-119295238D01*
X95350000Y-119390476D01*
X95397619Y-119438095D01*
X95492857Y-119485714D01*
X95730952Y-119485714D01*
X95826190Y-119438095D01*
X95873809Y-119390476D01*
X95921428Y-119295238D01*
X95921428Y-119104761D01*
X95873809Y-119009523D01*
X95826190Y-118961904D01*
X95730952Y-118914285D01*
%TO.C,R10*%
X93002380Y-120342857D02*
X92526190Y-120676190D01*
X93002380Y-120914285D02*
X92002380Y-120914285D01*
X92002380Y-120533333D01*
X92050000Y-120438095D01*
X92097619Y-120390476D01*
X92192857Y-120342857D01*
X92335714Y-120342857D01*
X92430952Y-120390476D01*
X92478571Y-120438095D01*
X92526190Y-120533333D01*
X92526190Y-120914285D01*
X93002380Y-119390476D02*
X93002380Y-119961904D01*
X93002380Y-119676190D02*
X92002380Y-119676190D01*
X92145238Y-119771428D01*
X92240476Y-119866666D01*
X92288095Y-119961904D01*
X92002380Y-118771428D02*
X92002380Y-118676190D01*
X92050000Y-118580952D01*
X92097619Y-118533333D01*
X92192857Y-118485714D01*
X92383333Y-118438095D01*
X92621428Y-118438095D01*
X92811904Y-118485714D01*
X92907142Y-118533333D01*
X92954761Y-118580952D01*
X93002380Y-118676190D01*
X93002380Y-118771428D01*
X92954761Y-118866666D01*
X92907142Y-118914285D01*
X92811904Y-118961904D01*
X92621428Y-119009523D01*
X92383333Y-119009523D01*
X92192857Y-118961904D01*
X92097619Y-118914285D01*
X92050000Y-118866666D01*
X92002380Y-118771428D01*
%TO.C,R11*%
X89602380Y-120342857D02*
X89126190Y-120676190D01*
X89602380Y-120914285D02*
X88602380Y-120914285D01*
X88602380Y-120533333D01*
X88650000Y-120438095D01*
X88697619Y-120390476D01*
X88792857Y-120342857D01*
X88935714Y-120342857D01*
X89030952Y-120390476D01*
X89078571Y-120438095D01*
X89126190Y-120533333D01*
X89126190Y-120914285D01*
X89602380Y-119390476D02*
X89602380Y-119961904D01*
X89602380Y-119676190D02*
X88602380Y-119676190D01*
X88745238Y-119771428D01*
X88840476Y-119866666D01*
X88888095Y-119961904D01*
X89602380Y-118438095D02*
X89602380Y-119009523D01*
X89602380Y-118723809D02*
X88602380Y-118723809D01*
X88745238Y-118819047D01*
X88840476Y-118914285D01*
X88888095Y-119009523D01*
%TO.C,U1*%
X84838095Y-122852380D02*
X84838095Y-123661904D01*
X84885714Y-123757142D01*
X84933333Y-123804761D01*
X85028571Y-123852380D01*
X85219047Y-123852380D01*
X85314285Y-123804761D01*
X85361904Y-123757142D01*
X85409523Y-123661904D01*
X85409523Y-122852380D01*
X86409523Y-123852380D02*
X85838095Y-123852380D01*
X86123809Y-123852380D02*
X86123809Y-122852380D01*
X86028571Y-122995238D01*
X85933333Y-123090476D01*
X85838095Y-123138095D01*
%TD*%
M02*
