%TF.GenerationSoftware,KiCad,Pcbnew,5.1.10-88a1d61d58~88~ubuntu20.04.1*%
%TF.CreationDate,2021-05-20T12:52:21-04:00*%
%TF.ProjectId,hexdisplay16,68657864-6973-4706-9c61-7931362e6b69,rev?*%
%TF.SameCoordinates,Original*%
%TF.FileFunction,Copper,L1,Top*%
%TF.FilePolarity,Positive*%
%FSLAX46Y46*%
G04 Gerber Fmt 4.6, Leading zero omitted, Abs format (unit mm)*
G04 Created by KiCad (PCBNEW 5.1.10-88a1d61d58~88~ubuntu20.04.1) date 2021-05-20 12:52:21*
%MOMM*%
%LPD*%
G01*
G04 APERTURE LIST*
%TA.AperFunction,ComponentPad*%
%ADD10O,1.700000X1.700000*%
%TD*%
%TA.AperFunction,ComponentPad*%
%ADD11R,1.700000X1.700000*%
%TD*%
%TA.AperFunction,SMDPad,CuDef*%
%ADD12R,0.900000X0.800000*%
%TD*%
%TA.AperFunction,ViaPad*%
%ADD13C,0.685800*%
%TD*%
%TA.AperFunction,Conductor*%
%ADD14C,0.254000*%
%TD*%
%TA.AperFunction,Conductor*%
%ADD15C,0.152400*%
%TD*%
%TA.AperFunction,Conductor*%
%ADD16C,0.381000*%
%TD*%
%TA.AperFunction,NonConductor*%
%ADD17C,0.254000*%
%TD*%
%TA.AperFunction,NonConductor*%
%ADD18C,0.100000*%
%TD*%
G04 APERTURE END LIST*
D10*
%TO.P,J12,5*%
%TO.N,/CA4*%
X137380000Y-134360000D03*
%TO.P,J12,4*%
%TO.N,Net-(J12-Pad4)*%
X137380000Y-131820000D03*
%TO.P,J12,3*%
%TO.N,/C*%
X137380000Y-129280000D03*
%TO.P,J12,2*%
%TO.N,/B*%
X137380000Y-126740000D03*
D11*
%TO.P,J12,1*%
%TO.N,/A*%
X137380000Y-124200000D03*
%TD*%
D10*
%TO.P,J11,5*%
%TO.N,/D*%
X132300000Y-134360000D03*
%TO.P,J11,4*%
%TO.N,/E*%
X132300000Y-131820000D03*
%TO.P,J11,3*%
%TO.N,/G*%
X132300000Y-129280000D03*
%TO.P,J11,2*%
%TO.N,/F*%
X132300000Y-126740000D03*
D11*
%TO.P,J11,1*%
%TO.N,/CA4*%
X132300000Y-124200000D03*
%TD*%
%TO.P,J22,1*%
%TO.N,/A*%
X129580000Y-124200000D03*
D10*
%TO.P,J22,2*%
%TO.N,/B*%
X129580000Y-126740000D03*
%TO.P,J22,3*%
%TO.N,/C*%
X129580000Y-129280000D03*
%TO.P,J22,4*%
%TO.N,Net-(J22-Pad4)*%
X129580000Y-131820000D03*
%TO.P,J22,5*%
%TO.N,/CA3*%
X129580000Y-134360000D03*
%TD*%
%TO.P,J32,5*%
%TO.N,/CA2*%
X121780000Y-134360000D03*
%TO.P,J32,4*%
%TO.N,Net-(J32-Pad4)*%
X121780000Y-131820000D03*
%TO.P,J32,3*%
%TO.N,/C*%
X121780000Y-129280000D03*
%TO.P,J32,2*%
%TO.N,/B*%
X121780000Y-126740000D03*
D11*
%TO.P,J32,1*%
%TO.N,/A*%
X121780000Y-124200000D03*
%TD*%
%TO.P,J41,1*%
%TO.N,/CA1*%
X108900000Y-124200000D03*
D10*
%TO.P,J41,2*%
%TO.N,/F*%
X108900000Y-126740000D03*
%TO.P,J41,3*%
%TO.N,/G*%
X108900000Y-129280000D03*
%TO.P,J41,4*%
%TO.N,/E*%
X108900000Y-131820000D03*
%TO.P,J41,5*%
%TO.N,/D*%
X108900000Y-134360000D03*
%TD*%
%TO.P,J31,5*%
%TO.N,/D*%
X116700000Y-134360000D03*
%TO.P,J31,4*%
%TO.N,/E*%
X116700000Y-131820000D03*
%TO.P,J31,3*%
%TO.N,/G*%
X116700000Y-129280000D03*
%TO.P,J31,2*%
%TO.N,/F*%
X116700000Y-126740000D03*
D11*
%TO.P,J31,1*%
%TO.N,/CA2*%
X116700000Y-124200000D03*
%TD*%
%TO.P,J42,1*%
%TO.N,/A*%
X113980000Y-124200000D03*
D10*
%TO.P,J42,2*%
%TO.N,/B*%
X113980000Y-126740000D03*
%TO.P,J42,3*%
%TO.N,/C*%
X113980000Y-129280000D03*
%TO.P,J42,4*%
%TO.N,Net-(J42-Pad4)*%
X113980000Y-131820000D03*
%TO.P,J42,5*%
%TO.N,/CA1*%
X113980000Y-134360000D03*
%TD*%
D11*
%TO.P,J21,1*%
%TO.N,/CA3*%
X124500000Y-124200000D03*
D10*
%TO.P,J21,2*%
%TO.N,/F*%
X124500000Y-126740000D03*
%TO.P,J21,3*%
%TO.N,/G*%
X124500000Y-129280000D03*
%TO.P,J21,4*%
%TO.N,/E*%
X124500000Y-131820000D03*
%TO.P,J21,5*%
%TO.N,/D*%
X124500000Y-134360000D03*
%TD*%
D11*
%TO.P,J6,1*%
%TO.N,/D0*%
X120000000Y-140000000D03*
D10*
%TO.P,J6,2*%
%TO.N,/D1*%
X117460000Y-140000000D03*
%TO.P,J6,3*%
%TO.N,/D2*%
X114920000Y-140000000D03*
%TO.P,J6,4*%
%TO.N,/D3*%
X112380000Y-140000000D03*
%TO.P,J6,5*%
%TO.N,/D4*%
X109840000Y-140000000D03*
%TO.P,J6,6*%
%TO.N,/D5*%
X107300000Y-140000000D03*
%TO.P,J6,7*%
%TO.N,/D6*%
X104760000Y-140000000D03*
%TO.P,J6,8*%
%TO.N,/D7*%
X102220000Y-140000000D03*
%TO.P,J6,9*%
%TO.N,/D8*%
X99680000Y-140000000D03*
%TO.P,J6,10*%
%TO.N,/D9*%
X97140000Y-140000000D03*
%TO.P,J6,11*%
%TO.N,/D10*%
X94600000Y-140000000D03*
%TO.P,J6,12*%
%TO.N,/D11*%
X92060000Y-140000000D03*
%TO.P,J6,13*%
%TO.N,/D12*%
X89520000Y-140000000D03*
%TO.P,J6,14*%
%TO.N,/D13*%
X86980000Y-140000000D03*
%TO.P,J6,15*%
%TO.N,/D14*%
X84440000Y-140000000D03*
%TO.P,J6,16*%
%TO.N,/D15*%
X81900000Y-140000000D03*
%TD*%
%TO.P,C1,1*%
%TO.N,VCC*%
%TA.AperFunction,SMDPad,CuDef*%
G36*
G01*
X82650002Y-127987500D02*
X81349998Y-127987500D01*
G75*
G02*
X81100000Y-127737502I0J249998D01*
G01*
X81100000Y-126912498D01*
G75*
G02*
X81349998Y-126662500I249998J0D01*
G01*
X82650002Y-126662500D01*
G75*
G02*
X82900000Y-126912498I0J-249998D01*
G01*
X82900000Y-127737502D01*
G75*
G02*
X82650002Y-127987500I-249998J0D01*
G01*
G37*
%TD.AperFunction*%
%TO.P,C1,2*%
%TO.N,GND*%
%TA.AperFunction,SMDPad,CuDef*%
G36*
G01*
X82650002Y-124862500D02*
X81349998Y-124862500D01*
G75*
G02*
X81100000Y-124612502I0J249998D01*
G01*
X81100000Y-123787498D01*
G75*
G02*
X81349998Y-123537500I249998J0D01*
G01*
X82650002Y-123537500D01*
G75*
G02*
X82900000Y-123787498I0J-249998D01*
G01*
X82900000Y-124612502D01*
G75*
G02*
X82650002Y-124862500I-249998J0D01*
G01*
G37*
%TD.AperFunction*%
%TD*%
D11*
%TO.P,J5,1*%
%TO.N,GND*%
X81900000Y-130380000D03*
D10*
%TO.P,J5,2*%
%TO.N,VCC*%
X81900000Y-132920000D03*
%TD*%
D11*
%TO.P,J7,1*%
%TO.N,GND*%
X78200000Y-125300000D03*
D10*
%TO.P,J7,2*%
%TO.N,VCC*%
X78200000Y-127840000D03*
%TO.P,J7,3*%
%TO.N,/MISO*%
X78200000Y-130380000D03*
%TO.P,J7,4*%
%TO.N,/SCK*%
X78200000Y-132920000D03*
%TO.P,J7,5*%
%TO.N,/~RESET*%
X78200000Y-135460000D03*
%TO.P,J7,6*%
%TO.N,/MOSI*%
X78200000Y-138000000D03*
%TD*%
D12*
%TO.P,Q1,3*%
%TO.N,/CA1*%
X112500000Y-119200000D03*
%TO.P,Q1,2*%
%TO.N,VCC*%
X110500000Y-120150000D03*
%TO.P,Q1,1*%
%TO.N,Net-(Q1-Pad1)*%
X110500000Y-118250000D03*
%TD*%
%TO.P,Q2,1*%
%TO.N,Net-(Q2-Pad1)*%
X118400000Y-118250000D03*
%TO.P,Q2,2*%
%TO.N,VCC*%
X118400000Y-120150000D03*
%TO.P,Q2,3*%
%TO.N,/CA2*%
X120400000Y-119200000D03*
%TD*%
%TO.P,Q3,1*%
%TO.N,Net-(Q3-Pad1)*%
X126300000Y-118250000D03*
%TO.P,Q3,2*%
%TO.N,VCC*%
X126300000Y-120150000D03*
%TO.P,Q3,3*%
%TO.N,/CA3*%
X128300000Y-119200000D03*
%TD*%
%TO.P,Q4,3*%
%TO.N,/CA4*%
X135800000Y-119200000D03*
%TO.P,Q4,2*%
%TO.N,VCC*%
X133800000Y-120150000D03*
%TO.P,Q4,1*%
%TO.N,Net-(Q4-Pad1)*%
X133800000Y-118250000D03*
%TD*%
%TO.P,R1,1*%
%TO.N,Net-(R1-Pad1)*%
%TA.AperFunction,SMDPad,CuDef*%
G36*
G01*
X101500000Y-122650001D02*
X101500000Y-121749999D01*
G75*
G02*
X101749999Y-121500000I249999J0D01*
G01*
X102450001Y-121500000D01*
G75*
G02*
X102700000Y-121749999I0J-249999D01*
G01*
X102700000Y-122650001D01*
G75*
G02*
X102450001Y-122900000I-249999J0D01*
G01*
X101749999Y-122900000D01*
G75*
G02*
X101500000Y-122650001I0J249999D01*
G01*
G37*
%TD.AperFunction*%
%TO.P,R1,2*%
%TO.N,/A*%
%TA.AperFunction,SMDPad,CuDef*%
G36*
G01*
X103500000Y-122650001D02*
X103500000Y-121749999D01*
G75*
G02*
X103749999Y-121500000I249999J0D01*
G01*
X104450001Y-121500000D01*
G75*
G02*
X104700000Y-121749999I0J-249999D01*
G01*
X104700000Y-122650001D01*
G75*
G02*
X104450001Y-122900000I-249999J0D01*
G01*
X103749999Y-122900000D01*
G75*
G02*
X103500000Y-122650001I0J249999D01*
G01*
G37*
%TD.AperFunction*%
%TD*%
%TO.P,R2,2*%
%TO.N,/B*%
%TA.AperFunction,SMDPad,CuDef*%
G36*
G01*
X103500000Y-124900001D02*
X103500000Y-123999999D01*
G75*
G02*
X103749999Y-123750000I249999J0D01*
G01*
X104450001Y-123750000D01*
G75*
G02*
X104700000Y-123999999I0J-249999D01*
G01*
X104700000Y-124900001D01*
G75*
G02*
X104450001Y-125150000I-249999J0D01*
G01*
X103749999Y-125150000D01*
G75*
G02*
X103500000Y-124900001I0J249999D01*
G01*
G37*
%TD.AperFunction*%
%TO.P,R2,1*%
%TO.N,Net-(R2-Pad1)*%
%TA.AperFunction,SMDPad,CuDef*%
G36*
G01*
X101500000Y-124900001D02*
X101500000Y-123999999D01*
G75*
G02*
X101749999Y-123750000I249999J0D01*
G01*
X102450001Y-123750000D01*
G75*
G02*
X102700000Y-123999999I0J-249999D01*
G01*
X102700000Y-124900001D01*
G75*
G02*
X102450001Y-125150000I-249999J0D01*
G01*
X101749999Y-125150000D01*
G75*
G02*
X101500000Y-124900001I0J249999D01*
G01*
G37*
%TD.AperFunction*%
%TD*%
%TO.P,R3,1*%
%TO.N,Net-(R3-Pad1)*%
%TA.AperFunction,SMDPad,CuDef*%
G36*
G01*
X101500000Y-127150001D02*
X101500000Y-126249999D01*
G75*
G02*
X101749999Y-126000000I249999J0D01*
G01*
X102450001Y-126000000D01*
G75*
G02*
X102700000Y-126249999I0J-249999D01*
G01*
X102700000Y-127150001D01*
G75*
G02*
X102450001Y-127400000I-249999J0D01*
G01*
X101749999Y-127400000D01*
G75*
G02*
X101500000Y-127150001I0J249999D01*
G01*
G37*
%TD.AperFunction*%
%TO.P,R3,2*%
%TO.N,/C*%
%TA.AperFunction,SMDPad,CuDef*%
G36*
G01*
X103500000Y-127150001D02*
X103500000Y-126249999D01*
G75*
G02*
X103749999Y-126000000I249999J0D01*
G01*
X104450001Y-126000000D01*
G75*
G02*
X104700000Y-126249999I0J-249999D01*
G01*
X104700000Y-127150001D01*
G75*
G02*
X104450001Y-127400000I-249999J0D01*
G01*
X103749999Y-127400000D01*
G75*
G02*
X103500000Y-127150001I0J249999D01*
G01*
G37*
%TD.AperFunction*%
%TD*%
%TO.P,R4,2*%
%TO.N,/D*%
%TA.AperFunction,SMDPad,CuDef*%
G36*
G01*
X103500000Y-129400001D02*
X103500000Y-128499999D01*
G75*
G02*
X103749999Y-128250000I249999J0D01*
G01*
X104450001Y-128250000D01*
G75*
G02*
X104700000Y-128499999I0J-249999D01*
G01*
X104700000Y-129400001D01*
G75*
G02*
X104450001Y-129650000I-249999J0D01*
G01*
X103749999Y-129650000D01*
G75*
G02*
X103500000Y-129400001I0J249999D01*
G01*
G37*
%TD.AperFunction*%
%TO.P,R4,1*%
%TO.N,Net-(R4-Pad1)*%
%TA.AperFunction,SMDPad,CuDef*%
G36*
G01*
X101500000Y-129400001D02*
X101500000Y-128499999D01*
G75*
G02*
X101749999Y-128250000I249999J0D01*
G01*
X102450001Y-128250000D01*
G75*
G02*
X102700000Y-128499999I0J-249999D01*
G01*
X102700000Y-129400001D01*
G75*
G02*
X102450001Y-129650000I-249999J0D01*
G01*
X101749999Y-129650000D01*
G75*
G02*
X101500000Y-129400001I0J249999D01*
G01*
G37*
%TD.AperFunction*%
%TD*%
%TO.P,R5,1*%
%TO.N,Net-(R5-Pad1)*%
%TA.AperFunction,SMDPad,CuDef*%
G36*
G01*
X101500000Y-131650001D02*
X101500000Y-130749999D01*
G75*
G02*
X101749999Y-130500000I249999J0D01*
G01*
X102450001Y-130500000D01*
G75*
G02*
X102700000Y-130749999I0J-249999D01*
G01*
X102700000Y-131650001D01*
G75*
G02*
X102450001Y-131900000I-249999J0D01*
G01*
X101749999Y-131900000D01*
G75*
G02*
X101500000Y-131650001I0J249999D01*
G01*
G37*
%TD.AperFunction*%
%TO.P,R5,2*%
%TO.N,/E*%
%TA.AperFunction,SMDPad,CuDef*%
G36*
G01*
X103500000Y-131650001D02*
X103500000Y-130749999D01*
G75*
G02*
X103749999Y-130500000I249999J0D01*
G01*
X104450001Y-130500000D01*
G75*
G02*
X104700000Y-130749999I0J-249999D01*
G01*
X104700000Y-131650001D01*
G75*
G02*
X104450001Y-131900000I-249999J0D01*
G01*
X103749999Y-131900000D01*
G75*
G02*
X103500000Y-131650001I0J249999D01*
G01*
G37*
%TD.AperFunction*%
%TD*%
%TO.P,R6,2*%
%TO.N,/F*%
%TA.AperFunction,SMDPad,CuDef*%
G36*
G01*
X103500000Y-133900001D02*
X103500000Y-132999999D01*
G75*
G02*
X103749999Y-132750000I249999J0D01*
G01*
X104450001Y-132750000D01*
G75*
G02*
X104700000Y-132999999I0J-249999D01*
G01*
X104700000Y-133900001D01*
G75*
G02*
X104450001Y-134150000I-249999J0D01*
G01*
X103749999Y-134150000D01*
G75*
G02*
X103500000Y-133900001I0J249999D01*
G01*
G37*
%TD.AperFunction*%
%TO.P,R6,1*%
%TO.N,Net-(R6-Pad1)*%
%TA.AperFunction,SMDPad,CuDef*%
G36*
G01*
X101500000Y-133900001D02*
X101500000Y-132999999D01*
G75*
G02*
X101749999Y-132750000I249999J0D01*
G01*
X102450001Y-132750000D01*
G75*
G02*
X102700000Y-132999999I0J-249999D01*
G01*
X102700000Y-133900001D01*
G75*
G02*
X102450001Y-134150000I-249999J0D01*
G01*
X101749999Y-134150000D01*
G75*
G02*
X101500000Y-133900001I0J249999D01*
G01*
G37*
%TD.AperFunction*%
%TD*%
%TO.P,R7,1*%
%TO.N,Net-(R7-Pad1)*%
%TA.AperFunction,SMDPad,CuDef*%
G36*
G01*
X101500000Y-136150001D02*
X101500000Y-135249999D01*
G75*
G02*
X101749999Y-135000000I249999J0D01*
G01*
X102450001Y-135000000D01*
G75*
G02*
X102700000Y-135249999I0J-249999D01*
G01*
X102700000Y-136150001D01*
G75*
G02*
X102450001Y-136400000I-249999J0D01*
G01*
X101749999Y-136400000D01*
G75*
G02*
X101500000Y-136150001I0J249999D01*
G01*
G37*
%TD.AperFunction*%
%TO.P,R7,2*%
%TO.N,/G*%
%TA.AperFunction,SMDPad,CuDef*%
G36*
G01*
X103500000Y-136150001D02*
X103500000Y-135249999D01*
G75*
G02*
X103749999Y-135000000I249999J0D01*
G01*
X104450001Y-135000000D01*
G75*
G02*
X104700000Y-135249999I0J-249999D01*
G01*
X104700000Y-136150001D01*
G75*
G02*
X104450001Y-136400000I-249999J0D01*
G01*
X103749999Y-136400000D01*
G75*
G02*
X103500000Y-136150001I0J249999D01*
G01*
G37*
%TD.AperFunction*%
%TD*%
%TO.P,R8,1*%
%TO.N,Net-(Q1-Pad1)*%
%TA.AperFunction,SMDPad,CuDef*%
G36*
G01*
X97049999Y-118100000D02*
X97950001Y-118100000D01*
G75*
G02*
X98200000Y-118349999I0J-249999D01*
G01*
X98200000Y-119050001D01*
G75*
G02*
X97950001Y-119300000I-249999J0D01*
G01*
X97049999Y-119300000D01*
G75*
G02*
X96800000Y-119050001I0J249999D01*
G01*
X96800000Y-118349999D01*
G75*
G02*
X97049999Y-118100000I249999J0D01*
G01*
G37*
%TD.AperFunction*%
%TO.P,R8,2*%
%TO.N,Net-(R8-Pad2)*%
%TA.AperFunction,SMDPad,CuDef*%
G36*
G01*
X97049999Y-120100000D02*
X97950001Y-120100000D01*
G75*
G02*
X98200000Y-120349999I0J-249999D01*
G01*
X98200000Y-121050001D01*
G75*
G02*
X97950001Y-121300000I-249999J0D01*
G01*
X97049999Y-121300000D01*
G75*
G02*
X96800000Y-121050001I0J249999D01*
G01*
X96800000Y-120349999D01*
G75*
G02*
X97049999Y-120100000I249999J0D01*
G01*
G37*
%TD.AperFunction*%
%TD*%
%TO.P,R9,2*%
%TO.N,Net-(R9-Pad2)*%
%TA.AperFunction,SMDPad,CuDef*%
G36*
G01*
X93749999Y-120100000D02*
X94650001Y-120100000D01*
G75*
G02*
X94900000Y-120349999I0J-249999D01*
G01*
X94900000Y-121050001D01*
G75*
G02*
X94650001Y-121300000I-249999J0D01*
G01*
X93749999Y-121300000D01*
G75*
G02*
X93500000Y-121050001I0J249999D01*
G01*
X93500000Y-120349999D01*
G75*
G02*
X93749999Y-120100000I249999J0D01*
G01*
G37*
%TD.AperFunction*%
%TO.P,R9,1*%
%TO.N,Net-(Q2-Pad1)*%
%TA.AperFunction,SMDPad,CuDef*%
G36*
G01*
X93749999Y-118100000D02*
X94650001Y-118100000D01*
G75*
G02*
X94900000Y-118349999I0J-249999D01*
G01*
X94900000Y-119050001D01*
G75*
G02*
X94650001Y-119300000I-249999J0D01*
G01*
X93749999Y-119300000D01*
G75*
G02*
X93500000Y-119050001I0J249999D01*
G01*
X93500000Y-118349999D01*
G75*
G02*
X93749999Y-118100000I249999J0D01*
G01*
G37*
%TD.AperFunction*%
%TD*%
%TO.P,R10,1*%
%TO.N,Net-(Q3-Pad1)*%
%TA.AperFunction,SMDPad,CuDef*%
G36*
G01*
X90449999Y-118100000D02*
X91350001Y-118100000D01*
G75*
G02*
X91600000Y-118349999I0J-249999D01*
G01*
X91600000Y-119050001D01*
G75*
G02*
X91350001Y-119300000I-249999J0D01*
G01*
X90449999Y-119300000D01*
G75*
G02*
X90200000Y-119050001I0J249999D01*
G01*
X90200000Y-118349999D01*
G75*
G02*
X90449999Y-118100000I249999J0D01*
G01*
G37*
%TD.AperFunction*%
%TO.P,R10,2*%
%TO.N,Net-(R10-Pad2)*%
%TA.AperFunction,SMDPad,CuDef*%
G36*
G01*
X90449999Y-120100000D02*
X91350001Y-120100000D01*
G75*
G02*
X91600000Y-120349999I0J-249999D01*
G01*
X91600000Y-121050001D01*
G75*
G02*
X91350001Y-121300000I-249999J0D01*
G01*
X90449999Y-121300000D01*
G75*
G02*
X90200000Y-121050001I0J249999D01*
G01*
X90200000Y-120349999D01*
G75*
G02*
X90449999Y-120100000I249999J0D01*
G01*
G37*
%TD.AperFunction*%
%TD*%
%TO.P,R11,2*%
%TO.N,Net-(R11-Pad2)*%
%TA.AperFunction,SMDPad,CuDef*%
G36*
G01*
X87049999Y-120100000D02*
X87950001Y-120100000D01*
G75*
G02*
X88200000Y-120349999I0J-249999D01*
G01*
X88200000Y-121050001D01*
G75*
G02*
X87950001Y-121300000I-249999J0D01*
G01*
X87049999Y-121300000D01*
G75*
G02*
X86800000Y-121050001I0J249999D01*
G01*
X86800000Y-120349999D01*
G75*
G02*
X87049999Y-120100000I249999J0D01*
G01*
G37*
%TD.AperFunction*%
%TO.P,R11,1*%
%TO.N,Net-(Q4-Pad1)*%
%TA.AperFunction,SMDPad,CuDef*%
G36*
G01*
X87049999Y-118100000D02*
X87950001Y-118100000D01*
G75*
G02*
X88200000Y-118349999I0J-249999D01*
G01*
X88200000Y-119050001D01*
G75*
G02*
X87950001Y-119300000I-249999J0D01*
G01*
X87049999Y-119300000D01*
G75*
G02*
X86800000Y-119050001I0J249999D01*
G01*
X86800000Y-118349999D01*
G75*
G02*
X87049999Y-118100000I249999J0D01*
G01*
G37*
%TD.AperFunction*%
%TD*%
%TO.P,U1,1*%
%TO.N,/MOSI*%
%TA.AperFunction,SMDPad,CuDef*%
G36*
G01*
X85300000Y-125737500D02*
X85300000Y-125462500D01*
G75*
G02*
X85437500Y-125325000I137500J0D01*
G01*
X86637500Y-125325000D01*
G75*
G02*
X86775000Y-125462500I0J-137500D01*
G01*
X86775000Y-125737500D01*
G75*
G02*
X86637500Y-125875000I-137500J0D01*
G01*
X85437500Y-125875000D01*
G75*
G02*
X85300000Y-125737500I0J137500D01*
G01*
G37*
%TD.AperFunction*%
%TO.P,U1,2*%
%TO.N,/MISO*%
%TA.AperFunction,SMDPad,CuDef*%
G36*
G01*
X85300000Y-126537500D02*
X85300000Y-126262500D01*
G75*
G02*
X85437500Y-126125000I137500J0D01*
G01*
X86637500Y-126125000D01*
G75*
G02*
X86775000Y-126262500I0J-137500D01*
G01*
X86775000Y-126537500D01*
G75*
G02*
X86637500Y-126675000I-137500J0D01*
G01*
X85437500Y-126675000D01*
G75*
G02*
X85300000Y-126537500I0J137500D01*
G01*
G37*
%TD.AperFunction*%
%TO.P,U1,3*%
%TO.N,/SCK*%
%TA.AperFunction,SMDPad,CuDef*%
G36*
G01*
X85300000Y-127337500D02*
X85300000Y-127062500D01*
G75*
G02*
X85437500Y-126925000I137500J0D01*
G01*
X86637500Y-126925000D01*
G75*
G02*
X86775000Y-127062500I0J-137500D01*
G01*
X86775000Y-127337500D01*
G75*
G02*
X86637500Y-127475000I-137500J0D01*
G01*
X85437500Y-127475000D01*
G75*
G02*
X85300000Y-127337500I0J137500D01*
G01*
G37*
%TD.AperFunction*%
%TO.P,U1,4*%
%TO.N,/~RESET*%
%TA.AperFunction,SMDPad,CuDef*%
G36*
G01*
X85300000Y-128137500D02*
X85300000Y-127862500D01*
G75*
G02*
X85437500Y-127725000I137500J0D01*
G01*
X86637500Y-127725000D01*
G75*
G02*
X86775000Y-127862500I0J-137500D01*
G01*
X86775000Y-128137500D01*
G75*
G02*
X86637500Y-128275000I-137500J0D01*
G01*
X85437500Y-128275000D01*
G75*
G02*
X85300000Y-128137500I0J137500D01*
G01*
G37*
%TD.AperFunction*%
%TO.P,U1,5*%
%TO.N,VCC*%
%TA.AperFunction,SMDPad,CuDef*%
G36*
G01*
X85300000Y-128937500D02*
X85300000Y-128662500D01*
G75*
G02*
X85437500Y-128525000I137500J0D01*
G01*
X86637500Y-128525000D01*
G75*
G02*
X86775000Y-128662500I0J-137500D01*
G01*
X86775000Y-128937500D01*
G75*
G02*
X86637500Y-129075000I-137500J0D01*
G01*
X85437500Y-129075000D01*
G75*
G02*
X85300000Y-128937500I0J137500D01*
G01*
G37*
%TD.AperFunction*%
%TO.P,U1,6*%
%TO.N,GND*%
%TA.AperFunction,SMDPad,CuDef*%
G36*
G01*
X85300000Y-129737500D02*
X85300000Y-129462500D01*
G75*
G02*
X85437500Y-129325000I137500J0D01*
G01*
X86637500Y-129325000D01*
G75*
G02*
X86775000Y-129462500I0J-137500D01*
G01*
X86775000Y-129737500D01*
G75*
G02*
X86637500Y-129875000I-137500J0D01*
G01*
X85437500Y-129875000D01*
G75*
G02*
X85300000Y-129737500I0J137500D01*
G01*
G37*
%TD.AperFunction*%
%TO.P,U1,7*%
%TO.N,Net-(U1-Pad7)*%
%TA.AperFunction,SMDPad,CuDef*%
G36*
G01*
X85300000Y-130537500D02*
X85300000Y-130262500D01*
G75*
G02*
X85437500Y-130125000I137500J0D01*
G01*
X86637500Y-130125000D01*
G75*
G02*
X86775000Y-130262500I0J-137500D01*
G01*
X86775000Y-130537500D01*
G75*
G02*
X86637500Y-130675000I-137500J0D01*
G01*
X85437500Y-130675000D01*
G75*
G02*
X85300000Y-130537500I0J137500D01*
G01*
G37*
%TD.AperFunction*%
%TO.P,U1,8*%
%TO.N,Net-(U1-Pad8)*%
%TA.AperFunction,SMDPad,CuDef*%
G36*
G01*
X85300000Y-131337500D02*
X85300000Y-131062500D01*
G75*
G02*
X85437500Y-130925000I137500J0D01*
G01*
X86637500Y-130925000D01*
G75*
G02*
X86775000Y-131062500I0J-137500D01*
G01*
X86775000Y-131337500D01*
G75*
G02*
X86637500Y-131475000I-137500J0D01*
G01*
X85437500Y-131475000D01*
G75*
G02*
X85300000Y-131337500I0J137500D01*
G01*
G37*
%TD.AperFunction*%
%TO.P,U1,9*%
%TO.N,/D0*%
%TA.AperFunction,SMDPad,CuDef*%
G36*
G01*
X85300000Y-132137500D02*
X85300000Y-131862500D01*
G75*
G02*
X85437500Y-131725000I137500J0D01*
G01*
X86637500Y-131725000D01*
G75*
G02*
X86775000Y-131862500I0J-137500D01*
G01*
X86775000Y-132137500D01*
G75*
G02*
X86637500Y-132275000I-137500J0D01*
G01*
X85437500Y-132275000D01*
G75*
G02*
X85300000Y-132137500I0J137500D01*
G01*
G37*
%TD.AperFunction*%
%TO.P,U1,10*%
%TO.N,/D1*%
%TA.AperFunction,SMDPad,CuDef*%
G36*
G01*
X85300000Y-132937500D02*
X85300000Y-132662500D01*
G75*
G02*
X85437500Y-132525000I137500J0D01*
G01*
X86637500Y-132525000D01*
G75*
G02*
X86775000Y-132662500I0J-137500D01*
G01*
X86775000Y-132937500D01*
G75*
G02*
X86637500Y-133075000I-137500J0D01*
G01*
X85437500Y-133075000D01*
G75*
G02*
X85300000Y-132937500I0J137500D01*
G01*
G37*
%TD.AperFunction*%
%TO.P,U1,11*%
%TO.N,/D2*%
%TA.AperFunction,SMDPad,CuDef*%
G36*
G01*
X85300000Y-133737500D02*
X85300000Y-133462500D01*
G75*
G02*
X85437500Y-133325000I137500J0D01*
G01*
X86637500Y-133325000D01*
G75*
G02*
X86775000Y-133462500I0J-137500D01*
G01*
X86775000Y-133737500D01*
G75*
G02*
X86637500Y-133875000I-137500J0D01*
G01*
X85437500Y-133875000D01*
G75*
G02*
X85300000Y-133737500I0J137500D01*
G01*
G37*
%TD.AperFunction*%
%TO.P,U1,12*%
%TO.N,/D3*%
%TA.AperFunction,SMDPad,CuDef*%
G36*
G01*
X87425000Y-135862500D02*
X87425000Y-134662500D01*
G75*
G02*
X87562500Y-134525000I137500J0D01*
G01*
X87837500Y-134525000D01*
G75*
G02*
X87975000Y-134662500I0J-137500D01*
G01*
X87975000Y-135862500D01*
G75*
G02*
X87837500Y-136000000I-137500J0D01*
G01*
X87562500Y-136000000D01*
G75*
G02*
X87425000Y-135862500I0J137500D01*
G01*
G37*
%TD.AperFunction*%
%TO.P,U1,13*%
%TO.N,/D4*%
%TA.AperFunction,SMDPad,CuDef*%
G36*
G01*
X88225000Y-135862500D02*
X88225000Y-134662500D01*
G75*
G02*
X88362500Y-134525000I137500J0D01*
G01*
X88637500Y-134525000D01*
G75*
G02*
X88775000Y-134662500I0J-137500D01*
G01*
X88775000Y-135862500D01*
G75*
G02*
X88637500Y-136000000I-137500J0D01*
G01*
X88362500Y-136000000D01*
G75*
G02*
X88225000Y-135862500I0J137500D01*
G01*
G37*
%TD.AperFunction*%
%TO.P,U1,14*%
%TO.N,/D5*%
%TA.AperFunction,SMDPad,CuDef*%
G36*
G01*
X89025000Y-135862500D02*
X89025000Y-134662500D01*
G75*
G02*
X89162500Y-134525000I137500J0D01*
G01*
X89437500Y-134525000D01*
G75*
G02*
X89575000Y-134662500I0J-137500D01*
G01*
X89575000Y-135862500D01*
G75*
G02*
X89437500Y-136000000I-137500J0D01*
G01*
X89162500Y-136000000D01*
G75*
G02*
X89025000Y-135862500I0J137500D01*
G01*
G37*
%TD.AperFunction*%
%TO.P,U1,15*%
%TO.N,/D6*%
%TA.AperFunction,SMDPad,CuDef*%
G36*
G01*
X89825000Y-135862500D02*
X89825000Y-134662500D01*
G75*
G02*
X89962500Y-134525000I137500J0D01*
G01*
X90237500Y-134525000D01*
G75*
G02*
X90375000Y-134662500I0J-137500D01*
G01*
X90375000Y-135862500D01*
G75*
G02*
X90237500Y-136000000I-137500J0D01*
G01*
X89962500Y-136000000D01*
G75*
G02*
X89825000Y-135862500I0J137500D01*
G01*
G37*
%TD.AperFunction*%
%TO.P,U1,16*%
%TO.N,/D7*%
%TA.AperFunction,SMDPad,CuDef*%
G36*
G01*
X90625000Y-135862500D02*
X90625000Y-134662500D01*
G75*
G02*
X90762500Y-134525000I137500J0D01*
G01*
X91037500Y-134525000D01*
G75*
G02*
X91175000Y-134662500I0J-137500D01*
G01*
X91175000Y-135862500D01*
G75*
G02*
X91037500Y-136000000I-137500J0D01*
G01*
X90762500Y-136000000D01*
G75*
G02*
X90625000Y-135862500I0J137500D01*
G01*
G37*
%TD.AperFunction*%
%TO.P,U1,17*%
%TO.N,VCC*%
%TA.AperFunction,SMDPad,CuDef*%
G36*
G01*
X91425000Y-135862500D02*
X91425000Y-134662500D01*
G75*
G02*
X91562500Y-134525000I137500J0D01*
G01*
X91837500Y-134525000D01*
G75*
G02*
X91975000Y-134662500I0J-137500D01*
G01*
X91975000Y-135862500D01*
G75*
G02*
X91837500Y-136000000I-137500J0D01*
G01*
X91562500Y-136000000D01*
G75*
G02*
X91425000Y-135862500I0J137500D01*
G01*
G37*
%TD.AperFunction*%
%TO.P,U1,18*%
%TO.N,GND*%
%TA.AperFunction,SMDPad,CuDef*%
G36*
G01*
X92225000Y-135862500D02*
X92225000Y-134662500D01*
G75*
G02*
X92362500Y-134525000I137500J0D01*
G01*
X92637500Y-134525000D01*
G75*
G02*
X92775000Y-134662500I0J-137500D01*
G01*
X92775000Y-135862500D01*
G75*
G02*
X92637500Y-136000000I-137500J0D01*
G01*
X92362500Y-136000000D01*
G75*
G02*
X92225000Y-135862500I0J137500D01*
G01*
G37*
%TD.AperFunction*%
%TO.P,U1,19*%
%TO.N,/D8*%
%TA.AperFunction,SMDPad,CuDef*%
G36*
G01*
X93025000Y-135862500D02*
X93025000Y-134662500D01*
G75*
G02*
X93162500Y-134525000I137500J0D01*
G01*
X93437500Y-134525000D01*
G75*
G02*
X93575000Y-134662500I0J-137500D01*
G01*
X93575000Y-135862500D01*
G75*
G02*
X93437500Y-136000000I-137500J0D01*
G01*
X93162500Y-136000000D01*
G75*
G02*
X93025000Y-135862500I0J137500D01*
G01*
G37*
%TD.AperFunction*%
%TO.P,U1,20*%
%TO.N,/D9*%
%TA.AperFunction,SMDPad,CuDef*%
G36*
G01*
X93825000Y-135862500D02*
X93825000Y-134662500D01*
G75*
G02*
X93962500Y-134525000I137500J0D01*
G01*
X94237500Y-134525000D01*
G75*
G02*
X94375000Y-134662500I0J-137500D01*
G01*
X94375000Y-135862500D01*
G75*
G02*
X94237500Y-136000000I-137500J0D01*
G01*
X93962500Y-136000000D01*
G75*
G02*
X93825000Y-135862500I0J137500D01*
G01*
G37*
%TD.AperFunction*%
%TO.P,U1,21*%
%TO.N,/D10*%
%TA.AperFunction,SMDPad,CuDef*%
G36*
G01*
X94625000Y-135862500D02*
X94625000Y-134662500D01*
G75*
G02*
X94762500Y-134525000I137500J0D01*
G01*
X95037500Y-134525000D01*
G75*
G02*
X95175000Y-134662500I0J-137500D01*
G01*
X95175000Y-135862500D01*
G75*
G02*
X95037500Y-136000000I-137500J0D01*
G01*
X94762500Y-136000000D01*
G75*
G02*
X94625000Y-135862500I0J137500D01*
G01*
G37*
%TD.AperFunction*%
%TO.P,U1,22*%
%TO.N,/D11*%
%TA.AperFunction,SMDPad,CuDef*%
G36*
G01*
X95425000Y-135862500D02*
X95425000Y-134662500D01*
G75*
G02*
X95562500Y-134525000I137500J0D01*
G01*
X95837500Y-134525000D01*
G75*
G02*
X95975000Y-134662500I0J-137500D01*
G01*
X95975000Y-135862500D01*
G75*
G02*
X95837500Y-136000000I-137500J0D01*
G01*
X95562500Y-136000000D01*
G75*
G02*
X95425000Y-135862500I0J137500D01*
G01*
G37*
%TD.AperFunction*%
%TO.P,U1,23*%
%TO.N,/D12*%
%TA.AperFunction,SMDPad,CuDef*%
G36*
G01*
X96625000Y-133737500D02*
X96625000Y-133462500D01*
G75*
G02*
X96762500Y-133325000I137500J0D01*
G01*
X97962500Y-133325000D01*
G75*
G02*
X98100000Y-133462500I0J-137500D01*
G01*
X98100000Y-133737500D01*
G75*
G02*
X97962500Y-133875000I-137500J0D01*
G01*
X96762500Y-133875000D01*
G75*
G02*
X96625000Y-133737500I0J137500D01*
G01*
G37*
%TD.AperFunction*%
%TO.P,U1,24*%
%TO.N,/D13*%
%TA.AperFunction,SMDPad,CuDef*%
G36*
G01*
X96625000Y-132937500D02*
X96625000Y-132662500D01*
G75*
G02*
X96762500Y-132525000I137500J0D01*
G01*
X97962500Y-132525000D01*
G75*
G02*
X98100000Y-132662500I0J-137500D01*
G01*
X98100000Y-132937500D01*
G75*
G02*
X97962500Y-133075000I-137500J0D01*
G01*
X96762500Y-133075000D01*
G75*
G02*
X96625000Y-132937500I0J137500D01*
G01*
G37*
%TD.AperFunction*%
%TO.P,U1,25*%
%TO.N,/D14*%
%TA.AperFunction,SMDPad,CuDef*%
G36*
G01*
X96625000Y-132137500D02*
X96625000Y-131862500D01*
G75*
G02*
X96762500Y-131725000I137500J0D01*
G01*
X97962500Y-131725000D01*
G75*
G02*
X98100000Y-131862500I0J-137500D01*
G01*
X98100000Y-132137500D01*
G75*
G02*
X97962500Y-132275000I-137500J0D01*
G01*
X96762500Y-132275000D01*
G75*
G02*
X96625000Y-132137500I0J137500D01*
G01*
G37*
%TD.AperFunction*%
%TO.P,U1,26*%
%TO.N,/D15*%
%TA.AperFunction,SMDPad,CuDef*%
G36*
G01*
X96625000Y-131337500D02*
X96625000Y-131062500D01*
G75*
G02*
X96762500Y-130925000I137500J0D01*
G01*
X97962500Y-130925000D01*
G75*
G02*
X98100000Y-131062500I0J-137500D01*
G01*
X98100000Y-131337500D01*
G75*
G02*
X97962500Y-131475000I-137500J0D01*
G01*
X96762500Y-131475000D01*
G75*
G02*
X96625000Y-131337500I0J137500D01*
G01*
G37*
%TD.AperFunction*%
%TO.P,U1,27*%
%TO.N,VCC*%
%TA.AperFunction,SMDPad,CuDef*%
G36*
G01*
X96625000Y-130537500D02*
X96625000Y-130262500D01*
G75*
G02*
X96762500Y-130125000I137500J0D01*
G01*
X97962500Y-130125000D01*
G75*
G02*
X98100000Y-130262500I0J-137500D01*
G01*
X98100000Y-130537500D01*
G75*
G02*
X97962500Y-130675000I-137500J0D01*
G01*
X96762500Y-130675000D01*
G75*
G02*
X96625000Y-130537500I0J137500D01*
G01*
G37*
%TD.AperFunction*%
%TO.P,U1,28*%
%TO.N,GND*%
%TA.AperFunction,SMDPad,CuDef*%
G36*
G01*
X96625000Y-129737500D02*
X96625000Y-129462500D01*
G75*
G02*
X96762500Y-129325000I137500J0D01*
G01*
X97962500Y-129325000D01*
G75*
G02*
X98100000Y-129462500I0J-137500D01*
G01*
X98100000Y-129737500D01*
G75*
G02*
X97962500Y-129875000I-137500J0D01*
G01*
X96762500Y-129875000D01*
G75*
G02*
X96625000Y-129737500I0J137500D01*
G01*
G37*
%TD.AperFunction*%
%TO.P,U1,29*%
%TO.N,VCC*%
%TA.AperFunction,SMDPad,CuDef*%
G36*
G01*
X96625000Y-128937500D02*
X96625000Y-128662500D01*
G75*
G02*
X96762500Y-128525000I137500J0D01*
G01*
X97962500Y-128525000D01*
G75*
G02*
X98100000Y-128662500I0J-137500D01*
G01*
X98100000Y-128937500D01*
G75*
G02*
X97962500Y-129075000I-137500J0D01*
G01*
X96762500Y-129075000D01*
G75*
G02*
X96625000Y-128937500I0J137500D01*
G01*
G37*
%TD.AperFunction*%
%TO.P,U1,30*%
%TO.N,Net-(U1-Pad30)*%
%TA.AperFunction,SMDPad,CuDef*%
G36*
G01*
X96625000Y-128137500D02*
X96625000Y-127862500D01*
G75*
G02*
X96762500Y-127725000I137500J0D01*
G01*
X97962500Y-127725000D01*
G75*
G02*
X98100000Y-127862500I0J-137500D01*
G01*
X98100000Y-128137500D01*
G75*
G02*
X97962500Y-128275000I-137500J0D01*
G01*
X96762500Y-128275000D01*
G75*
G02*
X96625000Y-128137500I0J137500D01*
G01*
G37*
%TD.AperFunction*%
%TO.P,U1,31*%
%TO.N,Net-(R7-Pad1)*%
%TA.AperFunction,SMDPad,CuDef*%
G36*
G01*
X96625000Y-127337500D02*
X96625000Y-127062500D01*
G75*
G02*
X96762500Y-126925000I137500J0D01*
G01*
X97962500Y-126925000D01*
G75*
G02*
X98100000Y-127062500I0J-137500D01*
G01*
X98100000Y-127337500D01*
G75*
G02*
X97962500Y-127475000I-137500J0D01*
G01*
X96762500Y-127475000D01*
G75*
G02*
X96625000Y-127337500I0J137500D01*
G01*
G37*
%TD.AperFunction*%
%TO.P,U1,32*%
%TO.N,Net-(R6-Pad1)*%
%TA.AperFunction,SMDPad,CuDef*%
G36*
G01*
X96625000Y-126537500D02*
X96625000Y-126262500D01*
G75*
G02*
X96762500Y-126125000I137500J0D01*
G01*
X97962500Y-126125000D01*
G75*
G02*
X98100000Y-126262500I0J-137500D01*
G01*
X98100000Y-126537500D01*
G75*
G02*
X97962500Y-126675000I-137500J0D01*
G01*
X96762500Y-126675000D01*
G75*
G02*
X96625000Y-126537500I0J137500D01*
G01*
G37*
%TD.AperFunction*%
%TO.P,U1,33*%
%TO.N,Net-(R5-Pad1)*%
%TA.AperFunction,SMDPad,CuDef*%
G36*
G01*
X96625000Y-125737500D02*
X96625000Y-125462500D01*
G75*
G02*
X96762500Y-125325000I137500J0D01*
G01*
X97962500Y-125325000D01*
G75*
G02*
X98100000Y-125462500I0J-137500D01*
G01*
X98100000Y-125737500D01*
G75*
G02*
X97962500Y-125875000I-137500J0D01*
G01*
X96762500Y-125875000D01*
G75*
G02*
X96625000Y-125737500I0J137500D01*
G01*
G37*
%TD.AperFunction*%
%TO.P,U1,34*%
%TO.N,Net-(R4-Pad1)*%
%TA.AperFunction,SMDPad,CuDef*%
G36*
G01*
X95425000Y-124537500D02*
X95425000Y-123337500D01*
G75*
G02*
X95562500Y-123200000I137500J0D01*
G01*
X95837500Y-123200000D01*
G75*
G02*
X95975000Y-123337500I0J-137500D01*
G01*
X95975000Y-124537500D01*
G75*
G02*
X95837500Y-124675000I-137500J0D01*
G01*
X95562500Y-124675000D01*
G75*
G02*
X95425000Y-124537500I0J137500D01*
G01*
G37*
%TD.AperFunction*%
%TO.P,U1,35*%
%TO.N,Net-(R3-Pad1)*%
%TA.AperFunction,SMDPad,CuDef*%
G36*
G01*
X94625000Y-124537500D02*
X94625000Y-123337500D01*
G75*
G02*
X94762500Y-123200000I137500J0D01*
G01*
X95037500Y-123200000D01*
G75*
G02*
X95175000Y-123337500I0J-137500D01*
G01*
X95175000Y-124537500D01*
G75*
G02*
X95037500Y-124675000I-137500J0D01*
G01*
X94762500Y-124675000D01*
G75*
G02*
X94625000Y-124537500I0J137500D01*
G01*
G37*
%TD.AperFunction*%
%TO.P,U1,36*%
%TO.N,Net-(R2-Pad1)*%
%TA.AperFunction,SMDPad,CuDef*%
G36*
G01*
X93825000Y-124537500D02*
X93825000Y-123337500D01*
G75*
G02*
X93962500Y-123200000I137500J0D01*
G01*
X94237500Y-123200000D01*
G75*
G02*
X94375000Y-123337500I0J-137500D01*
G01*
X94375000Y-124537500D01*
G75*
G02*
X94237500Y-124675000I-137500J0D01*
G01*
X93962500Y-124675000D01*
G75*
G02*
X93825000Y-124537500I0J137500D01*
G01*
G37*
%TD.AperFunction*%
%TO.P,U1,37*%
%TO.N,Net-(R1-Pad1)*%
%TA.AperFunction,SMDPad,CuDef*%
G36*
G01*
X93025000Y-124537500D02*
X93025000Y-123337500D01*
G75*
G02*
X93162500Y-123200000I137500J0D01*
G01*
X93437500Y-123200000D01*
G75*
G02*
X93575000Y-123337500I0J-137500D01*
G01*
X93575000Y-124537500D01*
G75*
G02*
X93437500Y-124675000I-137500J0D01*
G01*
X93162500Y-124675000D01*
G75*
G02*
X93025000Y-124537500I0J137500D01*
G01*
G37*
%TD.AperFunction*%
%TO.P,U1,38*%
%TO.N,VCC*%
%TA.AperFunction,SMDPad,CuDef*%
G36*
G01*
X92225000Y-124537500D02*
X92225000Y-123337500D01*
G75*
G02*
X92362500Y-123200000I137500J0D01*
G01*
X92637500Y-123200000D01*
G75*
G02*
X92775000Y-123337500I0J-137500D01*
G01*
X92775000Y-124537500D01*
G75*
G02*
X92637500Y-124675000I-137500J0D01*
G01*
X92362500Y-124675000D01*
G75*
G02*
X92225000Y-124537500I0J137500D01*
G01*
G37*
%TD.AperFunction*%
%TO.P,U1,39*%
%TO.N,GND*%
%TA.AperFunction,SMDPad,CuDef*%
G36*
G01*
X91425000Y-124537500D02*
X91425000Y-123337500D01*
G75*
G02*
X91562500Y-123200000I137500J0D01*
G01*
X91837500Y-123200000D01*
G75*
G02*
X91975000Y-123337500I0J-137500D01*
G01*
X91975000Y-124537500D01*
G75*
G02*
X91837500Y-124675000I-137500J0D01*
G01*
X91562500Y-124675000D01*
G75*
G02*
X91425000Y-124537500I0J137500D01*
G01*
G37*
%TD.AperFunction*%
%TO.P,U1,40*%
%TO.N,Net-(R8-Pad2)*%
%TA.AperFunction,SMDPad,CuDef*%
G36*
G01*
X90625000Y-124537500D02*
X90625000Y-123337500D01*
G75*
G02*
X90762500Y-123200000I137500J0D01*
G01*
X91037500Y-123200000D01*
G75*
G02*
X91175000Y-123337500I0J-137500D01*
G01*
X91175000Y-124537500D01*
G75*
G02*
X91037500Y-124675000I-137500J0D01*
G01*
X90762500Y-124675000D01*
G75*
G02*
X90625000Y-124537500I0J137500D01*
G01*
G37*
%TD.AperFunction*%
%TO.P,U1,41*%
%TO.N,Net-(R9-Pad2)*%
%TA.AperFunction,SMDPad,CuDef*%
G36*
G01*
X89825000Y-124537500D02*
X89825000Y-123337500D01*
G75*
G02*
X89962500Y-123200000I137500J0D01*
G01*
X90237500Y-123200000D01*
G75*
G02*
X90375000Y-123337500I0J-137500D01*
G01*
X90375000Y-124537500D01*
G75*
G02*
X90237500Y-124675000I-137500J0D01*
G01*
X89962500Y-124675000D01*
G75*
G02*
X89825000Y-124537500I0J137500D01*
G01*
G37*
%TD.AperFunction*%
%TO.P,U1,42*%
%TO.N,Net-(R10-Pad2)*%
%TA.AperFunction,SMDPad,CuDef*%
G36*
G01*
X89025000Y-124537500D02*
X89025000Y-123337500D01*
G75*
G02*
X89162500Y-123200000I137500J0D01*
G01*
X89437500Y-123200000D01*
G75*
G02*
X89575000Y-123337500I0J-137500D01*
G01*
X89575000Y-124537500D01*
G75*
G02*
X89437500Y-124675000I-137500J0D01*
G01*
X89162500Y-124675000D01*
G75*
G02*
X89025000Y-124537500I0J137500D01*
G01*
G37*
%TD.AperFunction*%
%TO.P,U1,43*%
%TO.N,Net-(R11-Pad2)*%
%TA.AperFunction,SMDPad,CuDef*%
G36*
G01*
X88225000Y-124537500D02*
X88225000Y-123337500D01*
G75*
G02*
X88362500Y-123200000I137500J0D01*
G01*
X88637500Y-123200000D01*
G75*
G02*
X88775000Y-123337500I0J-137500D01*
G01*
X88775000Y-124537500D01*
G75*
G02*
X88637500Y-124675000I-137500J0D01*
G01*
X88362500Y-124675000D01*
G75*
G02*
X88225000Y-124537500I0J137500D01*
G01*
G37*
%TD.AperFunction*%
%TO.P,U1,44*%
%TO.N,Net-(U1-Pad44)*%
%TA.AperFunction,SMDPad,CuDef*%
G36*
G01*
X87425000Y-124537500D02*
X87425000Y-123337500D01*
G75*
G02*
X87562500Y-123200000I137500J0D01*
G01*
X87837500Y-123200000D01*
G75*
G02*
X87975000Y-123337500I0J-137500D01*
G01*
X87975000Y-124537500D01*
G75*
G02*
X87837500Y-124675000I-137500J0D01*
G01*
X87562500Y-124675000D01*
G75*
G02*
X87425000Y-124537500I0J137500D01*
G01*
G37*
%TD.AperFunction*%
%TD*%
D13*
%TO.N,VCC*%
X83500000Y-129100000D03*
X92500000Y-122700000D03*
X91661797Y-133800000D03*
X91700000Y-130300000D03*
X107476310Y-121776310D03*
X132700000Y-120200000D03*
X124323690Y-121776310D03*
X116576310Y-121776310D03*
%TO.N,GND*%
X92700000Y-129777700D03*
X90221117Y-128098817D03*
X80200000Y-125600000D03*
X92500000Y-133800000D03*
X86300000Y-124200000D03*
X88700000Y-129600000D03*
%TO.N,/F*%
X105200000Y-132700000D03*
%TO.N,/G*%
X105400000Y-134900000D03*
%TO.N,/C*%
X107700000Y-128200000D03*
%TO.N,/B*%
X105400000Y-124500000D03*
%TO.N,/D*%
X107400000Y-130700000D03*
%TO.N,/A*%
X105600000Y-122400000D03*
%TO.N,/D2*%
X83219645Y-135319645D03*
%TO.N,/D3*%
X88200000Y-140670080D03*
%TO.N,/D5*%
X107300000Y-137400000D03*
%TO.N,/D6*%
X104600000Y-137300000D03*
%TO.N,/D7*%
X102200000Y-137300000D03*
%TO.N,/D8*%
X99500000Y-137300000D03*
%TO.N,/D9*%
X97100000Y-136700000D03*
%TO.N,/D10*%
X94900000Y-136500000D03*
%TO.N,/D11*%
X95738203Y-136500000D03*
X95700000Y-139200000D03*
%TO.N,/D12*%
X95594523Y-132208814D03*
%TO.N,/D13*%
X94754910Y-131977898D03*
%TO.N,/D14*%
X94006059Y-131601329D03*
%TO.N,/D15*%
X93400000Y-131022300D03*
%TO.N,/SCK*%
X84800000Y-127200000D03*
%TO.N,/~RESET*%
X84800000Y-128100000D03*
%TO.N,Net-(Q2-Pad1)*%
X95800000Y-118100000D03*
%TO.N,Net-(Q3-Pad1)*%
X92400000Y-118900000D03*
X125400000Y-118300000D03*
%TO.N,Net-(Q4-Pad1)*%
X89200000Y-118900000D03*
X132700000Y-118300000D03*
%TD*%
D14*
%TO.N,VCC*%
X82000000Y-127325000D02*
X83125000Y-127325000D01*
X84600000Y-128800000D02*
X86037500Y-128800000D01*
X83125000Y-127325000D02*
X84600000Y-128800000D01*
X86037500Y-128800000D02*
X90400000Y-128800000D01*
X90400000Y-128800000D02*
X91700000Y-130100000D01*
X91800000Y-130400000D02*
X91700000Y-130300000D01*
X97362500Y-130400000D02*
X91800000Y-130400000D01*
X91700000Y-130100000D02*
X91700000Y-130300000D01*
X97362500Y-130400000D02*
X98400000Y-130400000D01*
X98400000Y-130400000D02*
X98700000Y-130100000D01*
X97362500Y-128800000D02*
X98400000Y-128800000D01*
X98700000Y-129100000D02*
X98400000Y-128800000D01*
X98700000Y-130100000D02*
X98700000Y-129100000D01*
X92500000Y-126700000D02*
X90400000Y-128800000D01*
X92500000Y-123937500D02*
X92500000Y-126700000D01*
X78715000Y-127325000D02*
X78200000Y-127840000D01*
X82000000Y-127325000D02*
X78715000Y-127325000D01*
X83500000Y-128825000D02*
X82000000Y-127325000D01*
X83500000Y-129100000D02*
X83500000Y-128825000D01*
X92500000Y-123937500D02*
X92500000Y-122700000D01*
X91700000Y-133838203D02*
X91661797Y-133800000D01*
X91700000Y-135262500D02*
X91700000Y-133838203D01*
X110500000Y-120150000D02*
X109102620Y-120150000D01*
X109102620Y-120150000D02*
X107476310Y-121776310D01*
X133750000Y-120200000D02*
X133800000Y-120150000D01*
X132700000Y-120200000D02*
X133750000Y-120200000D01*
X125950000Y-120150000D02*
X124323690Y-121776310D01*
X126300000Y-120150000D02*
X125950000Y-120150000D01*
X118202620Y-120150000D02*
X116576310Y-121776310D01*
X118400000Y-120150000D02*
X118202620Y-120150000D01*
%TO.N,GND*%
X79300000Y-124200000D02*
X78200000Y-125300000D01*
X82000000Y-124200000D02*
X79300000Y-124200000D01*
X92877700Y-129600000D02*
X92700000Y-129777700D01*
X97362500Y-129600000D02*
X92877700Y-129600000D01*
X91700000Y-123937500D02*
X91700000Y-126925250D01*
X90526433Y-128098817D02*
X90221117Y-128098817D01*
X91700000Y-126925250D02*
X90526433Y-128098817D01*
X80600000Y-125600000D02*
X82000000Y-124200000D01*
X80200000Y-125600000D02*
X80600000Y-125600000D01*
X92500000Y-133800000D02*
X92500000Y-135262500D01*
X82000000Y-124200000D02*
X86300000Y-124200000D01*
X88700000Y-129600000D02*
X86037500Y-129600000D01*
D15*
X92500000Y-135262500D02*
X92500000Y-135300000D01*
D16*
%TO.N,/CA4*%
X135800000Y-120700000D02*
X132300000Y-124200000D01*
X135800000Y-119200000D02*
X135800000Y-120700000D01*
X132300000Y-124200000D02*
X133000000Y-124200000D01*
X133000000Y-124200000D02*
X135000000Y-126200000D01*
X135000000Y-131980000D02*
X137380000Y-134360000D01*
X135000000Y-126200000D02*
X135000000Y-131980000D01*
D15*
%TO.N,/F*%
X104450000Y-133450000D02*
X105200000Y-132700000D01*
X104100000Y-133450000D02*
X104450000Y-133450000D01*
%TO.N,/G*%
X104600000Y-135700000D02*
X105400000Y-134900000D01*
X104100000Y-135700000D02*
X104600000Y-135700000D01*
%TO.N,/C*%
X106200000Y-126700000D02*
X104100000Y-126700000D01*
X106200000Y-126700000D02*
X107700000Y-128200000D01*
%TO.N,/E*%
X104100000Y-131200000D02*
X106700000Y-131200000D01*
X108900000Y-131820000D02*
X107420000Y-131820000D01*
X106800000Y-131200000D02*
X106700000Y-131200000D01*
X107420000Y-131820000D02*
X106800000Y-131200000D01*
%TO.N,/B*%
X104150000Y-124500000D02*
X104100000Y-124450000D01*
X105400000Y-124500000D02*
X104150000Y-124500000D01*
%TO.N,/D*%
X107400000Y-130700000D02*
X105650000Y-128950000D01*
X104100000Y-128950000D02*
X105650000Y-128950000D01*
%TO.N,/A*%
X104300000Y-122400000D02*
X104100000Y-122200000D01*
X105600000Y-122400000D02*
X104300000Y-122400000D01*
D16*
%TO.N,/CA3*%
X128300000Y-120400000D02*
X124500000Y-124200000D01*
X128300000Y-119200000D02*
X128300000Y-120400000D01*
X124500000Y-124200000D02*
X125000000Y-124200000D01*
X125000000Y-124200000D02*
X127100000Y-126300000D01*
X127100000Y-131880000D02*
X129580000Y-134360000D01*
X127100000Y-126300000D02*
X127100000Y-131880000D01*
%TO.N,/CA2*%
X120400000Y-120500000D02*
X116700000Y-124200000D01*
X120400000Y-119200000D02*
X120400000Y-120500000D01*
X116700000Y-124200000D02*
X117200000Y-124200000D01*
X117200000Y-124200000D02*
X119300000Y-126300000D01*
X119300000Y-131880000D02*
X121780000Y-134360000D01*
X119300000Y-126300000D02*
X119300000Y-131880000D01*
%TO.N,/CA1*%
X112500000Y-120600000D02*
X108900000Y-124200000D01*
X112500000Y-119200000D02*
X112500000Y-120600000D01*
X108900000Y-124200000D02*
X109400000Y-124200000D01*
X109400000Y-124200000D02*
X111500000Y-126300000D01*
X111500000Y-131880000D02*
X113980000Y-134360000D01*
X111500000Y-126300000D02*
X111500000Y-131880000D01*
D15*
%TO.N,/D0*%
X120000000Y-140900000D02*
X120000000Y-140000000D01*
X80146390Y-141546390D02*
X119353610Y-141546390D01*
X79700000Y-141100000D02*
X80146390Y-141546390D01*
X119353610Y-141546390D02*
X120000000Y-140900000D01*
X79700000Y-137600000D02*
X79700000Y-141100000D01*
X85300000Y-132000000D02*
X79700000Y-137600000D01*
X86037500Y-132000000D02*
X85300000Y-132000000D01*
%TO.N,/D1*%
X84931066Y-132800000D02*
X86037500Y-132800000D01*
X80004810Y-137726256D02*
X84931066Y-132800000D01*
X80004810Y-140673744D02*
X80004810Y-137726256D01*
X80572646Y-141241580D02*
X80004810Y-140673744D01*
X116958420Y-141241580D02*
X80572646Y-141241580D01*
X117460000Y-140740000D02*
X116958420Y-141241580D01*
X117460000Y-140000000D02*
X117460000Y-140740000D01*
%TO.N,/D2*%
X86037500Y-133600000D02*
X84600000Y-133600000D01*
X83219645Y-134980355D02*
X83219645Y-135319645D01*
X84600000Y-133600000D02*
X83219645Y-134980355D01*
%TO.N,/D3*%
X88200000Y-139623670D02*
X88200000Y-140670080D01*
X87700000Y-139123670D02*
X88200000Y-139623670D01*
X87700000Y-135262500D02*
X87700000Y-139123670D01*
%TO.N,/D4*%
X109840000Y-137640000D02*
X109840000Y-140000000D01*
X101623142Y-136700000D02*
X108900000Y-136700000D01*
X101523142Y-136600000D02*
X101623142Y-136700000D01*
X98800000Y-136600000D02*
X101523142Y-136600000D01*
X95428499Y-133228499D02*
X98800000Y-136600000D01*
X89271501Y-133228499D02*
X95428499Y-133228499D01*
X88500000Y-134000000D02*
X89271501Y-133228499D01*
X108900000Y-136700000D02*
X109840000Y-137640000D01*
X88500000Y-135262500D02*
X88500000Y-134000000D01*
%TO.N,/D5*%
X90642677Y-136604809D02*
X90818934Y-136781066D01*
X89904809Y-136604809D02*
X90642677Y-136604809D01*
X89300000Y-136000000D02*
X89904809Y-136604809D01*
X89300000Y-135262500D02*
X89300000Y-136000000D01*
X90818934Y-136781066D02*
X90947488Y-136909620D01*
X90947488Y-136909620D02*
X92739534Y-136909620D01*
X92739534Y-136909620D02*
X94144344Y-138314430D01*
X97085570Y-138314430D02*
X97185570Y-138214430D01*
X94144344Y-138314430D02*
X97085570Y-138314430D01*
X97185570Y-138214430D02*
X98600000Y-138214430D01*
X98706476Y-138214430D02*
X98973166Y-138481120D01*
X98600000Y-138214430D02*
X98706476Y-138214430D01*
X98973166Y-138481120D02*
X100026835Y-138481119D01*
X100026835Y-138481119D02*
X100331643Y-138176311D01*
X100331643Y-138176311D02*
X103123689Y-138176311D01*
X104874321Y-137871501D02*
X105400000Y-137345822D01*
X103428499Y-137871501D02*
X104874321Y-137871501D01*
X103123689Y-138176311D02*
X103428499Y-137871501D01*
X107245822Y-137345822D02*
X107300000Y-137400000D01*
X105400000Y-137345822D02*
X107245822Y-137345822D01*
%TO.N,/D6*%
X90100000Y-136000000D02*
X90100000Y-135262500D01*
X90400000Y-136300000D02*
X90100000Y-136000000D01*
X90768934Y-136300000D02*
X90400000Y-136300000D01*
X91073744Y-136604810D02*
X90768934Y-136300000D01*
X103400000Y-137300000D02*
X102828499Y-137871501D01*
X94270600Y-138009620D02*
X92865790Y-136604810D01*
X102828499Y-137871501D02*
X101925679Y-137871501D01*
X99099423Y-138176311D02*
X98832732Y-137909620D01*
X101925679Y-137871501D02*
X101854178Y-137800000D01*
X101854178Y-137800000D02*
X100276888Y-137800000D01*
X100276888Y-137800000D02*
X99900578Y-138176310D01*
X104600000Y-137300000D02*
X103400000Y-137300000D01*
X99900578Y-138176310D02*
X99099423Y-138176311D01*
X92865790Y-136604810D02*
X91073744Y-136604810D01*
X96906690Y-138009620D02*
X94270600Y-138009620D01*
X97006690Y-137909620D02*
X96906690Y-138009620D01*
X98832732Y-137909620D02*
X97006690Y-137909620D01*
%TO.N,/D7*%
X90900000Y-136000000D02*
X91200000Y-136300000D01*
X90900000Y-135262500D02*
X90900000Y-136000000D01*
X92995190Y-136300000D02*
X92995191Y-136303145D01*
X91200000Y-136300000D02*
X92995190Y-136300000D01*
X92995191Y-136303145D02*
X94396856Y-137704810D01*
X94396856Y-137704810D02*
X95600000Y-137704810D01*
X95600000Y-137704810D02*
X96400000Y-137704810D01*
X96400000Y-137704810D02*
X96527922Y-137704810D01*
X99225679Y-137871501D02*
X98958988Y-137604810D01*
X96780434Y-137704810D02*
X96400000Y-137704810D01*
X99774321Y-137871501D02*
X99225679Y-137871501D01*
X100345822Y-137300000D02*
X99774321Y-137871501D01*
X96880434Y-137604810D02*
X96780434Y-137704810D01*
X102200000Y-137300000D02*
X100345822Y-137300000D01*
X98958988Y-137604810D02*
X96880434Y-137604810D01*
%TO.N,/D8*%
X93300000Y-136176888D02*
X93300000Y-135262500D01*
X94523112Y-137400000D02*
X93300000Y-136176888D01*
X96654178Y-137400000D02*
X94523112Y-137400000D01*
X96754178Y-137300000D02*
X96654178Y-137400000D01*
X99500000Y-137300000D02*
X96754178Y-137300000D01*
%TO.N,/D9*%
X94100000Y-135262500D02*
X94100000Y-136545822D01*
X94625679Y-137071501D02*
X96128499Y-137071501D01*
X94100000Y-136545822D02*
X94625679Y-137071501D01*
X96500000Y-136700000D02*
X97100000Y-136700000D01*
X96128499Y-137071501D02*
X96500000Y-136700000D01*
%TO.N,/D10*%
X94900000Y-135262500D02*
X94900000Y-136500000D01*
%TO.N,/D11*%
X95700000Y-136461797D02*
X95738203Y-136500000D01*
X95700000Y-135262500D02*
X95700000Y-136461797D01*
X92060000Y-140000000D02*
X93160000Y-138900000D01*
X93202899Y-138857101D02*
X93160000Y-138900000D01*
X95357101Y-138857101D02*
X93202899Y-138857101D01*
X95700000Y-139200000D02*
X95357101Y-138857101D01*
%TO.N,/D12*%
X97362500Y-133600000D02*
X96907240Y-133600000D01*
X96373743Y-133104809D02*
X96095191Y-132826257D01*
X96412050Y-133104810D02*
X96373743Y-133104809D01*
X96907240Y-133600000D02*
X96412050Y-133104810D01*
X96095191Y-132826257D02*
X96095190Y-132826256D01*
X96095190Y-132709481D02*
X95594523Y-132208814D01*
X96095190Y-132826256D02*
X96095190Y-132709481D01*
%TO.N,/D13*%
X96500000Y-132800000D02*
X97362500Y-132800000D01*
X96400000Y-132700000D02*
X96500000Y-132800000D01*
X95995191Y-131801257D02*
X96400000Y-132206066D01*
X95995190Y-131795190D02*
X95995191Y-131801257D01*
X96400000Y-132206066D02*
X96400000Y-132700000D01*
X95600000Y-131400000D02*
X95995190Y-131795190D01*
X95332808Y-131400000D02*
X95600000Y-131400000D01*
X94754910Y-131977898D02*
X95332808Y-131400000D01*
%TO.N,/D14*%
X96625000Y-132000000D02*
X96300000Y-131675000D01*
X97362500Y-132000000D02*
X96625000Y-132000000D01*
X96300000Y-131675000D02*
X96300000Y-131231066D01*
X96300000Y-131231066D02*
X96129354Y-131060420D01*
X94546968Y-131060420D02*
X94006059Y-131601329D01*
X96129354Y-131060420D02*
X94546968Y-131060420D01*
%TO.N,/D15*%
X97362500Y-131200000D02*
X96700000Y-131200000D01*
X96700000Y-131200000D02*
X96255610Y-130755610D01*
X93666690Y-130755610D02*
X93400000Y-131022300D01*
X96255610Y-130755610D02*
X93666690Y-130755610D01*
%TO.N,/MISO*%
X85300000Y-126400000D02*
X84804810Y-125904810D01*
X86037500Y-126400000D02*
X85300000Y-126400000D01*
X81229164Y-125904810D02*
X80450563Y-126683411D01*
X84804810Y-125904810D02*
X81229164Y-125904810D01*
X80450563Y-126683411D02*
X77147655Y-126683411D01*
X77147655Y-126683411D02*
X76704810Y-127126256D01*
X76704810Y-127126256D02*
X76704810Y-129804810D01*
X77280000Y-130380000D02*
X78200000Y-130380000D01*
X76704810Y-129804810D02*
X77280000Y-130380000D01*
%TO.N,/SCK*%
X86037500Y-127200000D02*
X84800000Y-127200000D01*
%TO.N,/~RESET*%
X84900000Y-128000000D02*
X84800000Y-128100000D01*
X86037500Y-128000000D02*
X84900000Y-128000000D01*
%TO.N,/MOSI*%
X80324307Y-126378601D02*
X81102908Y-125600000D01*
X77021399Y-126378601D02*
X80324307Y-126378601D01*
X76400000Y-127000000D02*
X77021399Y-126378601D01*
X76400000Y-137000000D02*
X76400000Y-127000000D01*
X77400000Y-138000000D02*
X76400000Y-137000000D01*
X81102908Y-125600000D02*
X86037500Y-125600000D01*
X78200000Y-138000000D02*
X77400000Y-138000000D01*
%TO.N,Net-(Q1-Pad1)*%
X110500000Y-118250000D02*
X110500000Y-118000000D01*
X110500000Y-118250000D02*
X110500000Y-118400000D01*
X97500000Y-118700000D02*
X97600000Y-118700000D01*
X97600000Y-118700000D02*
X98495190Y-117804810D01*
X110054810Y-117804810D02*
X110500000Y-118250000D01*
X98495190Y-117804810D02*
X110054810Y-117804810D01*
%TO.N,Net-(Q2-Pad1)*%
X94800000Y-118100000D02*
X94200000Y-118700000D01*
X95800000Y-118100000D02*
X94800000Y-118100000D01*
X118400000Y-118250000D02*
X111750000Y-118250000D01*
X111750000Y-118250000D02*
X111000000Y-117500000D01*
X96400000Y-117500000D02*
X95800000Y-118100000D01*
X111000000Y-117500000D02*
X96400000Y-117500000D01*
%TO.N,Net-(Q3-Pad1)*%
X91100000Y-118900000D02*
X90900000Y-118700000D01*
X92400000Y-118900000D02*
X91100000Y-118900000D01*
X126250000Y-118300000D02*
X126300000Y-118250000D01*
X125400000Y-118300000D02*
X126250000Y-118300000D01*
%TO.N,Net-(Q4-Pad1)*%
X87700000Y-118900000D02*
X87500000Y-118700000D01*
X89200000Y-118900000D02*
X87700000Y-118900000D01*
X133750000Y-118300000D02*
X133800000Y-118250000D01*
X132700000Y-118300000D02*
X133750000Y-118300000D01*
%TO.N,Net-(R1-Pad1)*%
X93300000Y-123937500D02*
X93300000Y-122509620D01*
X93500000Y-122309620D02*
X96321446Y-122309620D01*
X93300000Y-122509620D02*
X93500000Y-122309620D01*
X96431066Y-122200000D02*
X102100000Y-122200000D01*
X96321446Y-122309620D02*
X96431066Y-122200000D01*
%TO.N,Net-(R2-Pad1)*%
X94100000Y-123937500D02*
X94100000Y-122814430D01*
X94100000Y-122814430D02*
X94300000Y-122614430D01*
X96485570Y-122614430D02*
X96595190Y-122504810D01*
X94300000Y-122614430D02*
X96485570Y-122614430D01*
X100154810Y-122504810D02*
X102100000Y-124450000D01*
X96595190Y-122504810D02*
X100154810Y-122504810D01*
%TO.N,Net-(R3-Pad1)*%
X94900000Y-123937500D02*
X94900000Y-123119240D01*
X95100000Y-122919240D02*
X98619240Y-122919240D01*
X94900000Y-123119240D02*
X95100000Y-122919240D01*
X102100000Y-126400000D02*
X102100000Y-126700000D01*
X98619240Y-122919240D02*
X102100000Y-126400000D01*
%TO.N,Net-(R4-Pad1)*%
X95700000Y-123937500D02*
X96413450Y-123224050D01*
X96413450Y-123224050D02*
X98124050Y-123224050D01*
X98124050Y-123224050D02*
X101100000Y-126200000D01*
X101100000Y-127950000D02*
X102100000Y-128950000D01*
X101100000Y-126200000D02*
X101100000Y-127950000D01*
%TO.N,Net-(R5-Pad1)*%
X97362500Y-125600000D02*
X100000000Y-125600000D01*
X100795190Y-129895190D02*
X102100000Y-131200000D01*
X100795190Y-126395190D02*
X100795190Y-129895190D01*
X100000000Y-125600000D02*
X100795190Y-126395190D01*
%TO.N,Net-(R6-Pad1)*%
X97362500Y-126400000D02*
X100190380Y-126400000D01*
X100490380Y-126700000D02*
X100490381Y-130021447D01*
X100190380Y-126400000D02*
X100490380Y-126700000D01*
X100490381Y-130021447D02*
X101271390Y-130802456D01*
X101271390Y-132621390D02*
X102100000Y-133450000D01*
X101271390Y-130802456D02*
X101271390Y-132621390D01*
%TO.N,Net-(R7-Pad1)*%
X101271390Y-134871390D02*
X102100000Y-135700000D01*
X101271390Y-133071390D02*
X101271390Y-134871390D01*
X100966580Y-132766580D02*
X101271390Y-133071390D01*
X100966580Y-130928712D02*
X100966580Y-132766580D01*
X100185572Y-130147704D02*
X100966580Y-130928712D01*
X100185572Y-127500001D02*
X100185572Y-130147704D01*
X99885571Y-127200000D02*
X100185572Y-127500001D01*
X97362500Y-127200000D02*
X99885571Y-127200000D01*
%TO.N,Net-(R8-Pad2)*%
X90900000Y-123937500D02*
X90900000Y-122304810D01*
X90900000Y-122304810D02*
X91200000Y-122004810D01*
X96195190Y-122004810D02*
X97500000Y-120700000D01*
X91200000Y-122004810D02*
X96195190Y-122004810D01*
%TO.N,Net-(R9-Pad2)*%
X90100000Y-123937500D02*
X90100000Y-122200000D01*
X90100000Y-122200000D02*
X90600000Y-121700000D01*
X93200000Y-121700000D02*
X94200000Y-120700000D01*
X90600000Y-121700000D02*
X93200000Y-121700000D01*
X94200000Y-120700000D02*
X94200000Y-120600000D01*
X94200000Y-120600000D02*
X95200000Y-119600000D01*
%TO.N,Net-(R10-Pad2)*%
X89300000Y-122300000D02*
X90900000Y-120700000D01*
X89300000Y-123937500D02*
X89300000Y-122300000D01*
%TO.N,Net-(R11-Pad2)*%
X88500000Y-121700000D02*
X87500000Y-120700000D01*
X88500000Y-123937500D02*
X88500000Y-121700000D01*
%TD*%
D17*
X76758336Y-138364125D02*
X76772068Y-138433158D01*
X76884010Y-138703411D01*
X77046525Y-138946632D01*
X77253368Y-139153475D01*
X77496589Y-139315990D01*
X77766842Y-139427932D01*
X78053740Y-139485000D01*
X78346260Y-139485000D01*
X78633158Y-139427932D01*
X78903411Y-139315990D01*
X78988800Y-139258935D01*
X78988801Y-141065064D01*
X78985360Y-141100000D01*
X78988801Y-141134936D01*
X78989300Y-141140000D01*
X76660000Y-141140000D01*
X76660000Y-138265789D01*
X76758336Y-138364125D01*
%TA.AperFunction,NonConductor*%
D18*
G36*
X76758336Y-138364125D02*
G01*
X76772068Y-138433158D01*
X76884010Y-138703411D01*
X77046525Y-138946632D01*
X77253368Y-139153475D01*
X77496589Y-139315990D01*
X77766842Y-139427932D01*
X78053740Y-139485000D01*
X78346260Y-139485000D01*
X78633158Y-139427932D01*
X78903411Y-139315990D01*
X78988800Y-139258935D01*
X78988801Y-141065064D01*
X78985360Y-141100000D01*
X78988801Y-141134936D01*
X78989300Y-141140000D01*
X76660000Y-141140000D01*
X76660000Y-138265789D01*
X76758336Y-138364125D01*
G37*
%TD.AperFunction*%
D17*
X139040000Y-125467581D02*
X139040000Y-125467582D01*
X139040001Y-141140000D01*
X121415010Y-141140000D01*
X121439502Y-141094180D01*
X121475812Y-140974482D01*
X121488072Y-140850000D01*
X121488072Y-139150000D01*
X121475812Y-139025518D01*
X121439502Y-138905820D01*
X121380537Y-138795506D01*
X121301185Y-138698815D01*
X121204494Y-138619463D01*
X121094180Y-138560498D01*
X120974482Y-138524188D01*
X120850000Y-138511928D01*
X119150000Y-138511928D01*
X119025518Y-138524188D01*
X118905820Y-138560498D01*
X118795506Y-138619463D01*
X118698815Y-138698815D01*
X118619463Y-138795506D01*
X118560498Y-138905820D01*
X118538487Y-138978380D01*
X118406632Y-138846525D01*
X118163411Y-138684010D01*
X117893158Y-138572068D01*
X117606260Y-138515000D01*
X117313740Y-138515000D01*
X117026842Y-138572068D01*
X116756589Y-138684010D01*
X116513368Y-138846525D01*
X116306525Y-139053368D01*
X116190000Y-139227760D01*
X116073475Y-139053368D01*
X115866632Y-138846525D01*
X115623411Y-138684010D01*
X115353158Y-138572068D01*
X115066260Y-138515000D01*
X114773740Y-138515000D01*
X114486842Y-138572068D01*
X114216589Y-138684010D01*
X113973368Y-138846525D01*
X113766525Y-139053368D01*
X113650000Y-139227760D01*
X113533475Y-139053368D01*
X113326632Y-138846525D01*
X113083411Y-138684010D01*
X112813158Y-138572068D01*
X112526260Y-138515000D01*
X112233740Y-138515000D01*
X111946842Y-138572068D01*
X111676589Y-138684010D01*
X111433368Y-138846525D01*
X111226525Y-139053368D01*
X111110000Y-139227760D01*
X110993475Y-139053368D01*
X110786632Y-138846525D01*
X110551200Y-138689214D01*
X110551200Y-137674928D01*
X110554640Y-137640000D01*
X110551200Y-137605071D01*
X110551200Y-137605064D01*
X110540909Y-137500580D01*
X110529106Y-137461671D01*
X110500242Y-137366518D01*
X110434202Y-137242967D01*
X110367598Y-137161809D01*
X110367588Y-137161799D01*
X110345326Y-137134673D01*
X110318200Y-137112411D01*
X109427601Y-136221814D01*
X109405327Y-136194673D01*
X109297033Y-136105798D01*
X109173481Y-136039758D01*
X109039420Y-135999091D01*
X108934936Y-135988800D01*
X108934926Y-135988800D01*
X108900000Y-135985360D01*
X108865074Y-135988800D01*
X105338072Y-135988800D01*
X105338072Y-135967715D01*
X105427887Y-135877900D01*
X105496315Y-135877900D01*
X105685243Y-135840320D01*
X105863210Y-135766604D01*
X106023375Y-135659585D01*
X106159585Y-135523375D01*
X106266604Y-135363210D01*
X106340320Y-135185243D01*
X106377900Y-134996315D01*
X106377900Y-134803685D01*
X106340320Y-134614757D01*
X106266604Y-134436790D01*
X106159585Y-134276625D01*
X106023375Y-134140415D01*
X105863210Y-134033396D01*
X105685243Y-133959680D01*
X105496315Y-133922100D01*
X105335895Y-133922100D01*
X105338072Y-133900001D01*
X105338072Y-133669594D01*
X105485243Y-133640320D01*
X105663210Y-133566604D01*
X105823375Y-133459585D01*
X105959585Y-133323375D01*
X106066604Y-133163210D01*
X106140320Y-132985243D01*
X106177900Y-132796315D01*
X106177900Y-132603685D01*
X106140320Y-132414757D01*
X106066604Y-132236790D01*
X105959585Y-132076625D01*
X105823375Y-131940415D01*
X105779652Y-131911200D01*
X106505412Y-131911200D01*
X106892407Y-132298196D01*
X106914673Y-132325327D01*
X106941804Y-132347593D01*
X106941808Y-132347597D01*
X107009277Y-132402967D01*
X107022967Y-132414202D01*
X107146519Y-132480242D01*
X107280580Y-132520909D01*
X107385064Y-132531200D01*
X107385073Y-132531200D01*
X107419999Y-132534640D01*
X107454925Y-132531200D01*
X107589214Y-132531200D01*
X107746525Y-132766632D01*
X107953368Y-132973475D01*
X108127760Y-133090000D01*
X107953368Y-133206525D01*
X107746525Y-133413368D01*
X107584010Y-133656589D01*
X107472068Y-133926842D01*
X107415000Y-134213740D01*
X107415000Y-134506260D01*
X107472068Y-134793158D01*
X107584010Y-135063411D01*
X107746525Y-135306632D01*
X107953368Y-135513475D01*
X108196589Y-135675990D01*
X108466842Y-135787932D01*
X108753740Y-135845000D01*
X109046260Y-135845000D01*
X109333158Y-135787932D01*
X109603411Y-135675990D01*
X109846632Y-135513475D01*
X110053475Y-135306632D01*
X110215990Y-135063411D01*
X110327932Y-134793158D01*
X110385000Y-134506260D01*
X110385000Y-134213740D01*
X110327932Y-133926842D01*
X110215990Y-133656589D01*
X110053475Y-133413368D01*
X109846632Y-133206525D01*
X109672240Y-133090000D01*
X109846632Y-132973475D01*
X110053475Y-132766632D01*
X110215990Y-132523411D01*
X110327932Y-132253158D01*
X110385000Y-131966260D01*
X110385000Y-131673740D01*
X110327932Y-131386842D01*
X110215990Y-131116589D01*
X110053475Y-130873368D01*
X109846632Y-130666525D01*
X109672240Y-130550000D01*
X109846632Y-130433475D01*
X110053475Y-130226632D01*
X110215990Y-129983411D01*
X110327932Y-129713158D01*
X110385000Y-129426260D01*
X110385000Y-129133740D01*
X110327932Y-128846842D01*
X110215990Y-128576589D01*
X110053475Y-128333368D01*
X109846632Y-128126525D01*
X109672240Y-128010000D01*
X109846632Y-127893475D01*
X110053475Y-127686632D01*
X110215990Y-127443411D01*
X110327932Y-127173158D01*
X110385000Y-126886260D01*
X110385000Y-126593740D01*
X110327932Y-126306842D01*
X110319816Y-126287249D01*
X110674500Y-126641933D01*
X110674501Y-131839440D01*
X110670506Y-131880000D01*
X110686445Y-132041826D01*
X110733647Y-132197433D01*
X110810301Y-132340842D01*
X110862054Y-132403902D01*
X110913460Y-132466541D01*
X110944961Y-132492393D01*
X112523422Y-134070855D01*
X112495000Y-134213740D01*
X112495000Y-134506260D01*
X112552068Y-134793158D01*
X112664010Y-135063411D01*
X112826525Y-135306632D01*
X113033368Y-135513475D01*
X113276589Y-135675990D01*
X113546842Y-135787932D01*
X113833740Y-135845000D01*
X114126260Y-135845000D01*
X114413158Y-135787932D01*
X114683411Y-135675990D01*
X114926632Y-135513475D01*
X115133475Y-135306632D01*
X115295990Y-135063411D01*
X115340000Y-134957161D01*
X115384010Y-135063411D01*
X115546525Y-135306632D01*
X115753368Y-135513475D01*
X115996589Y-135675990D01*
X116266842Y-135787932D01*
X116553740Y-135845000D01*
X116846260Y-135845000D01*
X117133158Y-135787932D01*
X117403411Y-135675990D01*
X117646632Y-135513475D01*
X117853475Y-135306632D01*
X118015990Y-135063411D01*
X118127932Y-134793158D01*
X118185000Y-134506260D01*
X118185000Y-134213740D01*
X118127932Y-133926842D01*
X118015990Y-133656589D01*
X117853475Y-133413368D01*
X117646632Y-133206525D01*
X117472240Y-133090000D01*
X117646632Y-132973475D01*
X117853475Y-132766632D01*
X118015990Y-132523411D01*
X118127932Y-132253158D01*
X118185000Y-131966260D01*
X118185000Y-131673740D01*
X118127932Y-131386842D01*
X118015990Y-131116589D01*
X117853475Y-130873368D01*
X117646632Y-130666525D01*
X117472240Y-130550000D01*
X117646632Y-130433475D01*
X117853475Y-130226632D01*
X118015990Y-129983411D01*
X118127932Y-129713158D01*
X118185000Y-129426260D01*
X118185000Y-129133740D01*
X118127932Y-128846842D01*
X118015990Y-128576589D01*
X117853475Y-128333368D01*
X117646632Y-128126525D01*
X117472240Y-128010000D01*
X117646632Y-127893475D01*
X117853475Y-127686632D01*
X118015990Y-127443411D01*
X118127932Y-127173158D01*
X118185000Y-126886260D01*
X118185000Y-126593740D01*
X118127932Y-126306842D01*
X118119816Y-126287249D01*
X118474500Y-126641933D01*
X118474501Y-131839440D01*
X118470506Y-131880000D01*
X118486445Y-132041826D01*
X118533647Y-132197433D01*
X118610301Y-132340842D01*
X118662054Y-132403902D01*
X118713460Y-132466541D01*
X118744961Y-132492393D01*
X120323422Y-134070855D01*
X120295000Y-134213740D01*
X120295000Y-134506260D01*
X120352068Y-134793158D01*
X120464010Y-135063411D01*
X120626525Y-135306632D01*
X120833368Y-135513475D01*
X121076589Y-135675990D01*
X121346842Y-135787932D01*
X121633740Y-135845000D01*
X121926260Y-135845000D01*
X122213158Y-135787932D01*
X122483411Y-135675990D01*
X122726632Y-135513475D01*
X122933475Y-135306632D01*
X123095990Y-135063411D01*
X123140000Y-134957161D01*
X123184010Y-135063411D01*
X123346525Y-135306632D01*
X123553368Y-135513475D01*
X123796589Y-135675990D01*
X124066842Y-135787932D01*
X124353740Y-135845000D01*
X124646260Y-135845000D01*
X124933158Y-135787932D01*
X125203411Y-135675990D01*
X125446632Y-135513475D01*
X125653475Y-135306632D01*
X125815990Y-135063411D01*
X125927932Y-134793158D01*
X125985000Y-134506260D01*
X125985000Y-134213740D01*
X125927932Y-133926842D01*
X125815990Y-133656589D01*
X125653475Y-133413368D01*
X125446632Y-133206525D01*
X125272240Y-133090000D01*
X125446632Y-132973475D01*
X125653475Y-132766632D01*
X125815990Y-132523411D01*
X125927932Y-132253158D01*
X125985000Y-131966260D01*
X125985000Y-131673740D01*
X125927932Y-131386842D01*
X125815990Y-131116589D01*
X125653475Y-130873368D01*
X125446632Y-130666525D01*
X125272240Y-130550000D01*
X125446632Y-130433475D01*
X125653475Y-130226632D01*
X125815990Y-129983411D01*
X125927932Y-129713158D01*
X125985000Y-129426260D01*
X125985000Y-129133740D01*
X125927932Y-128846842D01*
X125815990Y-128576589D01*
X125653475Y-128333368D01*
X125446632Y-128126525D01*
X125272240Y-128010000D01*
X125446632Y-127893475D01*
X125653475Y-127686632D01*
X125815990Y-127443411D01*
X125927932Y-127173158D01*
X125985000Y-126886260D01*
X125985000Y-126593740D01*
X125927932Y-126306842D01*
X125919816Y-126287249D01*
X126274500Y-126641933D01*
X126274501Y-131839440D01*
X126270506Y-131880000D01*
X126286445Y-132041826D01*
X126333647Y-132197433D01*
X126410301Y-132340842D01*
X126462054Y-132403902D01*
X126513460Y-132466541D01*
X126544961Y-132492393D01*
X128123422Y-134070855D01*
X128095000Y-134213740D01*
X128095000Y-134506260D01*
X128152068Y-134793158D01*
X128264010Y-135063411D01*
X128426525Y-135306632D01*
X128633368Y-135513475D01*
X128876589Y-135675990D01*
X129146842Y-135787932D01*
X129433740Y-135845000D01*
X129726260Y-135845000D01*
X130013158Y-135787932D01*
X130283411Y-135675990D01*
X130526632Y-135513475D01*
X130733475Y-135306632D01*
X130895990Y-135063411D01*
X130940000Y-134957161D01*
X130984010Y-135063411D01*
X131146525Y-135306632D01*
X131353368Y-135513475D01*
X131596589Y-135675990D01*
X131866842Y-135787932D01*
X132153740Y-135845000D01*
X132446260Y-135845000D01*
X132733158Y-135787932D01*
X133003411Y-135675990D01*
X133246632Y-135513475D01*
X133453475Y-135306632D01*
X133615990Y-135063411D01*
X133727932Y-134793158D01*
X133785000Y-134506260D01*
X133785000Y-134213740D01*
X133727932Y-133926842D01*
X133615990Y-133656589D01*
X133453475Y-133413368D01*
X133246632Y-133206525D01*
X133072240Y-133090000D01*
X133246632Y-132973475D01*
X133453475Y-132766632D01*
X133615990Y-132523411D01*
X133727932Y-132253158D01*
X133785000Y-131966260D01*
X133785000Y-131673740D01*
X133727932Y-131386842D01*
X133615990Y-131116589D01*
X133453475Y-130873368D01*
X133246632Y-130666525D01*
X133072240Y-130550000D01*
X133246632Y-130433475D01*
X133453475Y-130226632D01*
X133615990Y-129983411D01*
X133727932Y-129713158D01*
X133785000Y-129426260D01*
X133785000Y-129133740D01*
X133727932Y-128846842D01*
X133615990Y-128576589D01*
X133453475Y-128333368D01*
X133246632Y-128126525D01*
X133072240Y-128010000D01*
X133246632Y-127893475D01*
X133453475Y-127686632D01*
X133615990Y-127443411D01*
X133727932Y-127173158D01*
X133785000Y-126886260D01*
X133785000Y-126593740D01*
X133727932Y-126306842D01*
X133615990Y-126036589D01*
X133508930Y-125876363D01*
X134174500Y-126541933D01*
X134174501Y-131939440D01*
X134170506Y-131980000D01*
X134186445Y-132141826D01*
X134233647Y-132297433D01*
X134310301Y-132440842D01*
X134366919Y-132509830D01*
X134413460Y-132566541D01*
X134444961Y-132592393D01*
X135923422Y-134070855D01*
X135895000Y-134213740D01*
X135895000Y-134506260D01*
X135952068Y-134793158D01*
X136064010Y-135063411D01*
X136226525Y-135306632D01*
X136433368Y-135513475D01*
X136676589Y-135675990D01*
X136946842Y-135787932D01*
X137233740Y-135845000D01*
X137526260Y-135845000D01*
X137813158Y-135787932D01*
X138083411Y-135675990D01*
X138326632Y-135513475D01*
X138533475Y-135306632D01*
X138695990Y-135063411D01*
X138807932Y-134793158D01*
X138865000Y-134506260D01*
X138865000Y-134213740D01*
X138807932Y-133926842D01*
X138695990Y-133656589D01*
X138533475Y-133413368D01*
X138326632Y-133206525D01*
X138152240Y-133090000D01*
X138326632Y-132973475D01*
X138533475Y-132766632D01*
X138695990Y-132523411D01*
X138807932Y-132253158D01*
X138865000Y-131966260D01*
X138865000Y-131673740D01*
X138807932Y-131386842D01*
X138695990Y-131116589D01*
X138533475Y-130873368D01*
X138326632Y-130666525D01*
X138152240Y-130550000D01*
X138326632Y-130433475D01*
X138533475Y-130226632D01*
X138695990Y-129983411D01*
X138807932Y-129713158D01*
X138865000Y-129426260D01*
X138865000Y-129133740D01*
X138807932Y-128846842D01*
X138695990Y-128576589D01*
X138533475Y-128333368D01*
X138326632Y-128126525D01*
X138152240Y-128010000D01*
X138326632Y-127893475D01*
X138533475Y-127686632D01*
X138695990Y-127443411D01*
X138807932Y-127173158D01*
X138865000Y-126886260D01*
X138865000Y-126593740D01*
X138807932Y-126306842D01*
X138695990Y-126036589D01*
X138533475Y-125793368D01*
X138401620Y-125661513D01*
X138474180Y-125639502D01*
X138584494Y-125580537D01*
X138681185Y-125501185D01*
X138760537Y-125404494D01*
X138819502Y-125294180D01*
X138855812Y-125174482D01*
X138868072Y-125050000D01*
X138868072Y-123350000D01*
X138855812Y-123225518D01*
X138819502Y-123105820D01*
X138760537Y-122995506D01*
X138681185Y-122898815D01*
X138584494Y-122819463D01*
X138474180Y-122760498D01*
X138354482Y-122724188D01*
X138230000Y-122711928D01*
X136530000Y-122711928D01*
X136405518Y-122724188D01*
X136285820Y-122760498D01*
X136175506Y-122819463D01*
X136078815Y-122898815D01*
X135999463Y-122995506D01*
X135940498Y-123105820D01*
X135904188Y-123225518D01*
X135891928Y-123350000D01*
X135891928Y-125050000D01*
X135904188Y-125174482D01*
X135940498Y-125294180D01*
X135999463Y-125404494D01*
X136078815Y-125501185D01*
X136175506Y-125580537D01*
X136285820Y-125639502D01*
X136358380Y-125661513D01*
X136226525Y-125793368D01*
X136064010Y-126036589D01*
X135952068Y-126306842D01*
X135895000Y-126593740D01*
X135895000Y-126886260D01*
X135952068Y-127173158D01*
X136064010Y-127443411D01*
X136226525Y-127686632D01*
X136433368Y-127893475D01*
X136607760Y-128010000D01*
X136433368Y-128126525D01*
X136226525Y-128333368D01*
X136064010Y-128576589D01*
X135952068Y-128846842D01*
X135895000Y-129133740D01*
X135895000Y-129426260D01*
X135952068Y-129713158D01*
X136064010Y-129983411D01*
X136226525Y-130226632D01*
X136433368Y-130433475D01*
X136607760Y-130550000D01*
X136433368Y-130666525D01*
X136226525Y-130873368D01*
X136064010Y-131116589D01*
X135952068Y-131386842D01*
X135895000Y-131673740D01*
X135895000Y-131707568D01*
X135825500Y-131638068D01*
X135825500Y-126240550D01*
X135829494Y-126199999D01*
X135825500Y-126159447D01*
X135813556Y-126038174D01*
X135766353Y-125882566D01*
X135718675Y-125793368D01*
X135689699Y-125739157D01*
X135612391Y-125644958D01*
X135586541Y-125613459D01*
X135555041Y-125587608D01*
X133817432Y-123850000D01*
X136355039Y-121312394D01*
X136386541Y-121286541D01*
X136461935Y-121194673D01*
X136489698Y-121160844D01*
X136523806Y-121097033D01*
X136566353Y-121017434D01*
X136613556Y-120861826D01*
X136625500Y-120740553D01*
X136625500Y-120740544D01*
X136629493Y-120700001D01*
X136625500Y-120659458D01*
X136625500Y-120113298D01*
X136701185Y-120051185D01*
X136780537Y-119954494D01*
X136839502Y-119844180D01*
X136875812Y-119724482D01*
X136888072Y-119600000D01*
X136888072Y-118800000D01*
X136875812Y-118675518D01*
X136839502Y-118555820D01*
X136780537Y-118445506D01*
X136701185Y-118348815D01*
X136604494Y-118269463D01*
X136494180Y-118210498D01*
X136374482Y-118174188D01*
X136250000Y-118161928D01*
X135350000Y-118161928D01*
X135225518Y-118174188D01*
X135105820Y-118210498D01*
X134995506Y-118269463D01*
X134898815Y-118348815D01*
X134888072Y-118361905D01*
X134888072Y-117860000D01*
X139040001Y-117860000D01*
X139040000Y-125467581D01*
%TA.AperFunction,NonConductor*%
D18*
G36*
X139040000Y-125467581D02*
G01*
X139040000Y-125467582D01*
X139040001Y-141140000D01*
X121415010Y-141140000D01*
X121439502Y-141094180D01*
X121475812Y-140974482D01*
X121488072Y-140850000D01*
X121488072Y-139150000D01*
X121475812Y-139025518D01*
X121439502Y-138905820D01*
X121380537Y-138795506D01*
X121301185Y-138698815D01*
X121204494Y-138619463D01*
X121094180Y-138560498D01*
X120974482Y-138524188D01*
X120850000Y-138511928D01*
X119150000Y-138511928D01*
X119025518Y-138524188D01*
X118905820Y-138560498D01*
X118795506Y-138619463D01*
X118698815Y-138698815D01*
X118619463Y-138795506D01*
X118560498Y-138905820D01*
X118538487Y-138978380D01*
X118406632Y-138846525D01*
X118163411Y-138684010D01*
X117893158Y-138572068D01*
X117606260Y-138515000D01*
X117313740Y-138515000D01*
X117026842Y-138572068D01*
X116756589Y-138684010D01*
X116513368Y-138846525D01*
X116306525Y-139053368D01*
X116190000Y-139227760D01*
X116073475Y-139053368D01*
X115866632Y-138846525D01*
X115623411Y-138684010D01*
X115353158Y-138572068D01*
X115066260Y-138515000D01*
X114773740Y-138515000D01*
X114486842Y-138572068D01*
X114216589Y-138684010D01*
X113973368Y-138846525D01*
X113766525Y-139053368D01*
X113650000Y-139227760D01*
X113533475Y-139053368D01*
X113326632Y-138846525D01*
X113083411Y-138684010D01*
X112813158Y-138572068D01*
X112526260Y-138515000D01*
X112233740Y-138515000D01*
X111946842Y-138572068D01*
X111676589Y-138684010D01*
X111433368Y-138846525D01*
X111226525Y-139053368D01*
X111110000Y-139227760D01*
X110993475Y-139053368D01*
X110786632Y-138846525D01*
X110551200Y-138689214D01*
X110551200Y-137674928D01*
X110554640Y-137640000D01*
X110551200Y-137605071D01*
X110551200Y-137605064D01*
X110540909Y-137500580D01*
X110529106Y-137461671D01*
X110500242Y-137366518D01*
X110434202Y-137242967D01*
X110367598Y-137161809D01*
X110367588Y-137161799D01*
X110345326Y-137134673D01*
X110318200Y-137112411D01*
X109427601Y-136221814D01*
X109405327Y-136194673D01*
X109297033Y-136105798D01*
X109173481Y-136039758D01*
X109039420Y-135999091D01*
X108934936Y-135988800D01*
X108934926Y-135988800D01*
X108900000Y-135985360D01*
X108865074Y-135988800D01*
X105338072Y-135988800D01*
X105338072Y-135967715D01*
X105427887Y-135877900D01*
X105496315Y-135877900D01*
X105685243Y-135840320D01*
X105863210Y-135766604D01*
X106023375Y-135659585D01*
X106159585Y-135523375D01*
X106266604Y-135363210D01*
X106340320Y-135185243D01*
X106377900Y-134996315D01*
X106377900Y-134803685D01*
X106340320Y-134614757D01*
X106266604Y-134436790D01*
X106159585Y-134276625D01*
X106023375Y-134140415D01*
X105863210Y-134033396D01*
X105685243Y-133959680D01*
X105496315Y-133922100D01*
X105335895Y-133922100D01*
X105338072Y-133900001D01*
X105338072Y-133669594D01*
X105485243Y-133640320D01*
X105663210Y-133566604D01*
X105823375Y-133459585D01*
X105959585Y-133323375D01*
X106066604Y-133163210D01*
X106140320Y-132985243D01*
X106177900Y-132796315D01*
X106177900Y-132603685D01*
X106140320Y-132414757D01*
X106066604Y-132236790D01*
X105959585Y-132076625D01*
X105823375Y-131940415D01*
X105779652Y-131911200D01*
X106505412Y-131911200D01*
X106892407Y-132298196D01*
X106914673Y-132325327D01*
X106941804Y-132347593D01*
X106941808Y-132347597D01*
X107009277Y-132402967D01*
X107022967Y-132414202D01*
X107146519Y-132480242D01*
X107280580Y-132520909D01*
X107385064Y-132531200D01*
X107385073Y-132531200D01*
X107419999Y-132534640D01*
X107454925Y-132531200D01*
X107589214Y-132531200D01*
X107746525Y-132766632D01*
X107953368Y-132973475D01*
X108127760Y-133090000D01*
X107953368Y-133206525D01*
X107746525Y-133413368D01*
X107584010Y-133656589D01*
X107472068Y-133926842D01*
X107415000Y-134213740D01*
X107415000Y-134506260D01*
X107472068Y-134793158D01*
X107584010Y-135063411D01*
X107746525Y-135306632D01*
X107953368Y-135513475D01*
X108196589Y-135675990D01*
X108466842Y-135787932D01*
X108753740Y-135845000D01*
X109046260Y-135845000D01*
X109333158Y-135787932D01*
X109603411Y-135675990D01*
X109846632Y-135513475D01*
X110053475Y-135306632D01*
X110215990Y-135063411D01*
X110327932Y-134793158D01*
X110385000Y-134506260D01*
X110385000Y-134213740D01*
X110327932Y-133926842D01*
X110215990Y-133656589D01*
X110053475Y-133413368D01*
X109846632Y-133206525D01*
X109672240Y-133090000D01*
X109846632Y-132973475D01*
X110053475Y-132766632D01*
X110215990Y-132523411D01*
X110327932Y-132253158D01*
X110385000Y-131966260D01*
X110385000Y-131673740D01*
X110327932Y-131386842D01*
X110215990Y-131116589D01*
X110053475Y-130873368D01*
X109846632Y-130666525D01*
X109672240Y-130550000D01*
X109846632Y-130433475D01*
X110053475Y-130226632D01*
X110215990Y-129983411D01*
X110327932Y-129713158D01*
X110385000Y-129426260D01*
X110385000Y-129133740D01*
X110327932Y-128846842D01*
X110215990Y-128576589D01*
X110053475Y-128333368D01*
X109846632Y-128126525D01*
X109672240Y-128010000D01*
X109846632Y-127893475D01*
X110053475Y-127686632D01*
X110215990Y-127443411D01*
X110327932Y-127173158D01*
X110385000Y-126886260D01*
X110385000Y-126593740D01*
X110327932Y-126306842D01*
X110319816Y-126287249D01*
X110674500Y-126641933D01*
X110674501Y-131839440D01*
X110670506Y-131880000D01*
X110686445Y-132041826D01*
X110733647Y-132197433D01*
X110810301Y-132340842D01*
X110862054Y-132403902D01*
X110913460Y-132466541D01*
X110944961Y-132492393D01*
X112523422Y-134070855D01*
X112495000Y-134213740D01*
X112495000Y-134506260D01*
X112552068Y-134793158D01*
X112664010Y-135063411D01*
X112826525Y-135306632D01*
X113033368Y-135513475D01*
X113276589Y-135675990D01*
X113546842Y-135787932D01*
X113833740Y-135845000D01*
X114126260Y-135845000D01*
X114413158Y-135787932D01*
X114683411Y-135675990D01*
X114926632Y-135513475D01*
X115133475Y-135306632D01*
X115295990Y-135063411D01*
X115340000Y-134957161D01*
X115384010Y-135063411D01*
X115546525Y-135306632D01*
X115753368Y-135513475D01*
X115996589Y-135675990D01*
X116266842Y-135787932D01*
X116553740Y-135845000D01*
X116846260Y-135845000D01*
X117133158Y-135787932D01*
X117403411Y-135675990D01*
X117646632Y-135513475D01*
X117853475Y-135306632D01*
X118015990Y-135063411D01*
X118127932Y-134793158D01*
X118185000Y-134506260D01*
X118185000Y-134213740D01*
X118127932Y-133926842D01*
X118015990Y-133656589D01*
X117853475Y-133413368D01*
X117646632Y-133206525D01*
X117472240Y-133090000D01*
X117646632Y-132973475D01*
X117853475Y-132766632D01*
X118015990Y-132523411D01*
X118127932Y-132253158D01*
X118185000Y-131966260D01*
X118185000Y-131673740D01*
X118127932Y-131386842D01*
X118015990Y-131116589D01*
X117853475Y-130873368D01*
X117646632Y-130666525D01*
X117472240Y-130550000D01*
X117646632Y-130433475D01*
X117853475Y-130226632D01*
X118015990Y-129983411D01*
X118127932Y-129713158D01*
X118185000Y-129426260D01*
X118185000Y-129133740D01*
X118127932Y-128846842D01*
X118015990Y-128576589D01*
X117853475Y-128333368D01*
X117646632Y-128126525D01*
X117472240Y-128010000D01*
X117646632Y-127893475D01*
X117853475Y-127686632D01*
X118015990Y-127443411D01*
X118127932Y-127173158D01*
X118185000Y-126886260D01*
X118185000Y-126593740D01*
X118127932Y-126306842D01*
X118119816Y-126287249D01*
X118474500Y-126641933D01*
X118474501Y-131839440D01*
X118470506Y-131880000D01*
X118486445Y-132041826D01*
X118533647Y-132197433D01*
X118610301Y-132340842D01*
X118662054Y-132403902D01*
X118713460Y-132466541D01*
X118744961Y-132492393D01*
X120323422Y-134070855D01*
X120295000Y-134213740D01*
X120295000Y-134506260D01*
X120352068Y-134793158D01*
X120464010Y-135063411D01*
X120626525Y-135306632D01*
X120833368Y-135513475D01*
X121076589Y-135675990D01*
X121346842Y-135787932D01*
X121633740Y-135845000D01*
X121926260Y-135845000D01*
X122213158Y-135787932D01*
X122483411Y-135675990D01*
X122726632Y-135513475D01*
X122933475Y-135306632D01*
X123095990Y-135063411D01*
X123140000Y-134957161D01*
X123184010Y-135063411D01*
X123346525Y-135306632D01*
X123553368Y-135513475D01*
X123796589Y-135675990D01*
X124066842Y-135787932D01*
X124353740Y-135845000D01*
X124646260Y-135845000D01*
X124933158Y-135787932D01*
X125203411Y-135675990D01*
X125446632Y-135513475D01*
X125653475Y-135306632D01*
X125815990Y-135063411D01*
X125927932Y-134793158D01*
X125985000Y-134506260D01*
X125985000Y-134213740D01*
X125927932Y-133926842D01*
X125815990Y-133656589D01*
X125653475Y-133413368D01*
X125446632Y-133206525D01*
X125272240Y-133090000D01*
X125446632Y-132973475D01*
X125653475Y-132766632D01*
X125815990Y-132523411D01*
X125927932Y-132253158D01*
X125985000Y-131966260D01*
X125985000Y-131673740D01*
X125927932Y-131386842D01*
X125815990Y-131116589D01*
X125653475Y-130873368D01*
X125446632Y-130666525D01*
X125272240Y-130550000D01*
X125446632Y-130433475D01*
X125653475Y-130226632D01*
X125815990Y-129983411D01*
X125927932Y-129713158D01*
X125985000Y-129426260D01*
X125985000Y-129133740D01*
X125927932Y-128846842D01*
X125815990Y-128576589D01*
X125653475Y-128333368D01*
X125446632Y-128126525D01*
X125272240Y-128010000D01*
X125446632Y-127893475D01*
X125653475Y-127686632D01*
X125815990Y-127443411D01*
X125927932Y-127173158D01*
X125985000Y-126886260D01*
X125985000Y-126593740D01*
X125927932Y-126306842D01*
X125919816Y-126287249D01*
X126274500Y-126641933D01*
X126274501Y-131839440D01*
X126270506Y-131880000D01*
X126286445Y-132041826D01*
X126333647Y-132197433D01*
X126410301Y-132340842D01*
X126462054Y-132403902D01*
X126513460Y-132466541D01*
X126544961Y-132492393D01*
X128123422Y-134070855D01*
X128095000Y-134213740D01*
X128095000Y-134506260D01*
X128152068Y-134793158D01*
X128264010Y-135063411D01*
X128426525Y-135306632D01*
X128633368Y-135513475D01*
X128876589Y-135675990D01*
X129146842Y-135787932D01*
X129433740Y-135845000D01*
X129726260Y-135845000D01*
X130013158Y-135787932D01*
X130283411Y-135675990D01*
X130526632Y-135513475D01*
X130733475Y-135306632D01*
X130895990Y-135063411D01*
X130940000Y-134957161D01*
X130984010Y-135063411D01*
X131146525Y-135306632D01*
X131353368Y-135513475D01*
X131596589Y-135675990D01*
X131866842Y-135787932D01*
X132153740Y-135845000D01*
X132446260Y-135845000D01*
X132733158Y-135787932D01*
X133003411Y-135675990D01*
X133246632Y-135513475D01*
X133453475Y-135306632D01*
X133615990Y-135063411D01*
X133727932Y-134793158D01*
X133785000Y-134506260D01*
X133785000Y-134213740D01*
X133727932Y-133926842D01*
X133615990Y-133656589D01*
X133453475Y-133413368D01*
X133246632Y-133206525D01*
X133072240Y-133090000D01*
X133246632Y-132973475D01*
X133453475Y-132766632D01*
X133615990Y-132523411D01*
X133727932Y-132253158D01*
X133785000Y-131966260D01*
X133785000Y-131673740D01*
X133727932Y-131386842D01*
X133615990Y-131116589D01*
X133453475Y-130873368D01*
X133246632Y-130666525D01*
X133072240Y-130550000D01*
X133246632Y-130433475D01*
X133453475Y-130226632D01*
X133615990Y-129983411D01*
X133727932Y-129713158D01*
X133785000Y-129426260D01*
X133785000Y-129133740D01*
X133727932Y-128846842D01*
X133615990Y-128576589D01*
X133453475Y-128333368D01*
X133246632Y-128126525D01*
X133072240Y-128010000D01*
X133246632Y-127893475D01*
X133453475Y-127686632D01*
X133615990Y-127443411D01*
X133727932Y-127173158D01*
X133785000Y-126886260D01*
X133785000Y-126593740D01*
X133727932Y-126306842D01*
X133615990Y-126036589D01*
X133508930Y-125876363D01*
X134174500Y-126541933D01*
X134174501Y-131939440D01*
X134170506Y-131980000D01*
X134186445Y-132141826D01*
X134233647Y-132297433D01*
X134310301Y-132440842D01*
X134366919Y-132509830D01*
X134413460Y-132566541D01*
X134444961Y-132592393D01*
X135923422Y-134070855D01*
X135895000Y-134213740D01*
X135895000Y-134506260D01*
X135952068Y-134793158D01*
X136064010Y-135063411D01*
X136226525Y-135306632D01*
X136433368Y-135513475D01*
X136676589Y-135675990D01*
X136946842Y-135787932D01*
X137233740Y-135845000D01*
X137526260Y-135845000D01*
X137813158Y-135787932D01*
X138083411Y-135675990D01*
X138326632Y-135513475D01*
X138533475Y-135306632D01*
X138695990Y-135063411D01*
X138807932Y-134793158D01*
X138865000Y-134506260D01*
X138865000Y-134213740D01*
X138807932Y-133926842D01*
X138695990Y-133656589D01*
X138533475Y-133413368D01*
X138326632Y-133206525D01*
X138152240Y-133090000D01*
X138326632Y-132973475D01*
X138533475Y-132766632D01*
X138695990Y-132523411D01*
X138807932Y-132253158D01*
X138865000Y-131966260D01*
X138865000Y-131673740D01*
X138807932Y-131386842D01*
X138695990Y-131116589D01*
X138533475Y-130873368D01*
X138326632Y-130666525D01*
X138152240Y-130550000D01*
X138326632Y-130433475D01*
X138533475Y-130226632D01*
X138695990Y-129983411D01*
X138807932Y-129713158D01*
X138865000Y-129426260D01*
X138865000Y-129133740D01*
X138807932Y-128846842D01*
X138695990Y-128576589D01*
X138533475Y-128333368D01*
X138326632Y-128126525D01*
X138152240Y-128010000D01*
X138326632Y-127893475D01*
X138533475Y-127686632D01*
X138695990Y-127443411D01*
X138807932Y-127173158D01*
X138865000Y-126886260D01*
X138865000Y-126593740D01*
X138807932Y-126306842D01*
X138695990Y-126036589D01*
X138533475Y-125793368D01*
X138401620Y-125661513D01*
X138474180Y-125639502D01*
X138584494Y-125580537D01*
X138681185Y-125501185D01*
X138760537Y-125404494D01*
X138819502Y-125294180D01*
X138855812Y-125174482D01*
X138868072Y-125050000D01*
X138868072Y-123350000D01*
X138855812Y-123225518D01*
X138819502Y-123105820D01*
X138760537Y-122995506D01*
X138681185Y-122898815D01*
X138584494Y-122819463D01*
X138474180Y-122760498D01*
X138354482Y-122724188D01*
X138230000Y-122711928D01*
X136530000Y-122711928D01*
X136405518Y-122724188D01*
X136285820Y-122760498D01*
X136175506Y-122819463D01*
X136078815Y-122898815D01*
X135999463Y-122995506D01*
X135940498Y-123105820D01*
X135904188Y-123225518D01*
X135891928Y-123350000D01*
X135891928Y-125050000D01*
X135904188Y-125174482D01*
X135940498Y-125294180D01*
X135999463Y-125404494D01*
X136078815Y-125501185D01*
X136175506Y-125580537D01*
X136285820Y-125639502D01*
X136358380Y-125661513D01*
X136226525Y-125793368D01*
X136064010Y-126036589D01*
X135952068Y-126306842D01*
X135895000Y-126593740D01*
X135895000Y-126886260D01*
X135952068Y-127173158D01*
X136064010Y-127443411D01*
X136226525Y-127686632D01*
X136433368Y-127893475D01*
X136607760Y-128010000D01*
X136433368Y-128126525D01*
X136226525Y-128333368D01*
X136064010Y-128576589D01*
X135952068Y-128846842D01*
X135895000Y-129133740D01*
X135895000Y-129426260D01*
X135952068Y-129713158D01*
X136064010Y-129983411D01*
X136226525Y-130226632D01*
X136433368Y-130433475D01*
X136607760Y-130550000D01*
X136433368Y-130666525D01*
X136226525Y-130873368D01*
X136064010Y-131116589D01*
X135952068Y-131386842D01*
X135895000Y-131673740D01*
X135895000Y-131707568D01*
X135825500Y-131638068D01*
X135825500Y-126240550D01*
X135829494Y-126199999D01*
X135825500Y-126159447D01*
X135813556Y-126038174D01*
X135766353Y-125882566D01*
X135718675Y-125793368D01*
X135689699Y-125739157D01*
X135612391Y-125644958D01*
X135586541Y-125613459D01*
X135555041Y-125587608D01*
X133817432Y-123850000D01*
X136355039Y-121312394D01*
X136386541Y-121286541D01*
X136461935Y-121194673D01*
X136489698Y-121160844D01*
X136523806Y-121097033D01*
X136566353Y-121017434D01*
X136613556Y-120861826D01*
X136625500Y-120740553D01*
X136625500Y-120740544D01*
X136629493Y-120700001D01*
X136625500Y-120659458D01*
X136625500Y-120113298D01*
X136701185Y-120051185D01*
X136780537Y-119954494D01*
X136839502Y-119844180D01*
X136875812Y-119724482D01*
X136888072Y-119600000D01*
X136888072Y-118800000D01*
X136875812Y-118675518D01*
X136839502Y-118555820D01*
X136780537Y-118445506D01*
X136701185Y-118348815D01*
X136604494Y-118269463D01*
X136494180Y-118210498D01*
X136374482Y-118174188D01*
X136250000Y-118161928D01*
X135350000Y-118161928D01*
X135225518Y-118174188D01*
X135105820Y-118210498D01*
X134995506Y-118269463D01*
X134898815Y-118348815D01*
X134888072Y-118361905D01*
X134888072Y-117860000D01*
X139040001Y-117860000D01*
X139040000Y-125467581D01*
G37*
%TD.AperFunction*%
D17*
X109128800Y-137934589D02*
X109128800Y-138689214D01*
X108893368Y-138846525D01*
X108686525Y-139053368D01*
X108570000Y-139227760D01*
X108453475Y-139053368D01*
X108246632Y-138846525D01*
X108003411Y-138684010D01*
X107733158Y-138572068D01*
X107446260Y-138515000D01*
X107153740Y-138515000D01*
X106866842Y-138572068D01*
X106596589Y-138684010D01*
X106353368Y-138846525D01*
X106146525Y-139053368D01*
X106030000Y-139227760D01*
X105913475Y-139053368D01*
X105706632Y-138846525D01*
X105463411Y-138684010D01*
X105193158Y-138572068D01*
X105085478Y-138550649D01*
X105147802Y-138531743D01*
X105271354Y-138465703D01*
X105379648Y-138376828D01*
X105401922Y-138349687D01*
X105694588Y-138057022D01*
X106574062Y-138057022D01*
X106676625Y-138159585D01*
X106836790Y-138266604D01*
X107014757Y-138340320D01*
X107203685Y-138377900D01*
X107396315Y-138377900D01*
X107585243Y-138340320D01*
X107763210Y-138266604D01*
X107923375Y-138159585D01*
X108059585Y-138023375D01*
X108166604Y-137863210D01*
X108240320Y-137685243D01*
X108277900Y-137496315D01*
X108277900Y-137411200D01*
X108605413Y-137411200D01*
X109128800Y-137934589D01*
%TA.AperFunction,NonConductor*%
D18*
G36*
X109128800Y-137934589D02*
G01*
X109128800Y-138689214D01*
X108893368Y-138846525D01*
X108686525Y-139053368D01*
X108570000Y-139227760D01*
X108453475Y-139053368D01*
X108246632Y-138846525D01*
X108003411Y-138684010D01*
X107733158Y-138572068D01*
X107446260Y-138515000D01*
X107153740Y-138515000D01*
X106866842Y-138572068D01*
X106596589Y-138684010D01*
X106353368Y-138846525D01*
X106146525Y-139053368D01*
X106030000Y-139227760D01*
X105913475Y-139053368D01*
X105706632Y-138846525D01*
X105463411Y-138684010D01*
X105193158Y-138572068D01*
X105085478Y-138550649D01*
X105147802Y-138531743D01*
X105271354Y-138465703D01*
X105379648Y-138376828D01*
X105401922Y-138349687D01*
X105694588Y-138057022D01*
X106574062Y-138057022D01*
X106676625Y-138159585D01*
X106836790Y-138266604D01*
X107014757Y-138340320D01*
X107203685Y-138377900D01*
X107396315Y-138377900D01*
X107585243Y-138340320D01*
X107763210Y-138266604D01*
X107923375Y-138159585D01*
X108059585Y-138023375D01*
X108166604Y-137863210D01*
X108240320Y-137685243D01*
X108277900Y-137496315D01*
X108277900Y-137411200D01*
X108605413Y-137411200D01*
X109128800Y-137934589D01*
G37*
%TD.AperFunction*%
D17*
X104056589Y-138684010D02*
X103813368Y-138846525D01*
X103606525Y-139053368D01*
X103490000Y-139227760D01*
X103373475Y-139053368D01*
X103203225Y-138883118D01*
X103263109Y-138877220D01*
X103397170Y-138836553D01*
X103520722Y-138770513D01*
X103629016Y-138681638D01*
X103651290Y-138654497D01*
X103723086Y-138582701D01*
X104301172Y-138582701D01*
X104056589Y-138684010D01*
%TA.AperFunction,NonConductor*%
D18*
G36*
X104056589Y-138684010D02*
G01*
X103813368Y-138846525D01*
X103606525Y-139053368D01*
X103490000Y-139227760D01*
X103373475Y-139053368D01*
X103203225Y-138883118D01*
X103263109Y-138877220D01*
X103397170Y-138836553D01*
X103520722Y-138770513D01*
X103629016Y-138681638D01*
X103651290Y-138654497D01*
X103723086Y-138582701D01*
X104301172Y-138582701D01*
X104056589Y-138684010D01*
G37*
%TD.AperFunction*%
D17*
X101066525Y-139053368D02*
X100950000Y-139227760D01*
X100833475Y-139053368D01*
X100667618Y-138887511D01*
X101232382Y-138887511D01*
X101066525Y-139053368D01*
%TA.AperFunction,NonConductor*%
D18*
G36*
X101066525Y-139053368D02*
G01*
X100950000Y-139227760D01*
X100833475Y-139053368D01*
X100667618Y-138887511D01*
X101232382Y-138887511D01*
X101066525Y-139053368D01*
G37*
%TD.AperFunction*%
D17*
X98445574Y-138959315D02*
X98467840Y-138986447D01*
X98494971Y-139008713D01*
X98494976Y-139008718D01*
X98536828Y-139043065D01*
X98526525Y-139053368D01*
X98410000Y-139227760D01*
X98293475Y-139053368D01*
X98165737Y-138925630D01*
X98411888Y-138925630D01*
X98445574Y-138959315D01*
%TA.AperFunction,NonConductor*%
D18*
G36*
X98445574Y-138959315D02*
G01*
X98467840Y-138986447D01*
X98494971Y-139008713D01*
X98494976Y-139008718D01*
X98536828Y-139043065D01*
X98526525Y-139053368D01*
X98410000Y-139227760D01*
X98293475Y-139053368D01*
X98165737Y-138925630D01*
X98411888Y-138925630D01*
X98445574Y-138959315D01*
G37*
%TD.AperFunction*%
D17*
X85006615Y-134382365D02*
X85140701Y-134454035D01*
X85286193Y-134498170D01*
X85437500Y-134513072D01*
X86637500Y-134513072D01*
X86788807Y-134498170D01*
X86807501Y-134492499D01*
X86801830Y-134511193D01*
X86786928Y-134662500D01*
X86786928Y-135862500D01*
X86801830Y-136013807D01*
X86845965Y-136159299D01*
X86917635Y-136293385D01*
X86988800Y-136380099D01*
X86988801Y-138515000D01*
X86833740Y-138515000D01*
X86546842Y-138572068D01*
X86276589Y-138684010D01*
X86033368Y-138846525D01*
X85826525Y-139053368D01*
X85710000Y-139227760D01*
X85593475Y-139053368D01*
X85386632Y-138846525D01*
X85143411Y-138684010D01*
X84873158Y-138572068D01*
X84586260Y-138515000D01*
X84293740Y-138515000D01*
X84006842Y-138572068D01*
X83736589Y-138684010D01*
X83493368Y-138846525D01*
X83286525Y-139053368D01*
X83170000Y-139227760D01*
X83053475Y-139053368D01*
X82846632Y-138846525D01*
X82603411Y-138684010D01*
X82333158Y-138572068D01*
X82046260Y-138515000D01*
X81753740Y-138515000D01*
X81466842Y-138572068D01*
X81196589Y-138684010D01*
X80953368Y-138846525D01*
X80746525Y-139053368D01*
X80716010Y-139099037D01*
X80716010Y-138020843D01*
X82633049Y-136103805D01*
X82756435Y-136186249D01*
X82934402Y-136259965D01*
X83123330Y-136297545D01*
X83315960Y-136297545D01*
X83504888Y-136259965D01*
X83682855Y-136186249D01*
X83843020Y-136079230D01*
X83979230Y-135943020D01*
X84086249Y-135782855D01*
X84159965Y-135604888D01*
X84197545Y-135415960D01*
X84197545Y-135223330D01*
X84161860Y-135043928D01*
X84894588Y-134311200D01*
X84919901Y-134311200D01*
X85006615Y-134382365D01*
%TA.AperFunction,NonConductor*%
D18*
G36*
X85006615Y-134382365D02*
G01*
X85140701Y-134454035D01*
X85286193Y-134498170D01*
X85437500Y-134513072D01*
X86637500Y-134513072D01*
X86788807Y-134498170D01*
X86807501Y-134492499D01*
X86801830Y-134511193D01*
X86786928Y-134662500D01*
X86786928Y-135862500D01*
X86801830Y-136013807D01*
X86845965Y-136159299D01*
X86917635Y-136293385D01*
X86988800Y-136380099D01*
X86988801Y-138515000D01*
X86833740Y-138515000D01*
X86546842Y-138572068D01*
X86276589Y-138684010D01*
X86033368Y-138846525D01*
X85826525Y-139053368D01*
X85710000Y-139227760D01*
X85593475Y-139053368D01*
X85386632Y-138846525D01*
X85143411Y-138684010D01*
X84873158Y-138572068D01*
X84586260Y-138515000D01*
X84293740Y-138515000D01*
X84006842Y-138572068D01*
X83736589Y-138684010D01*
X83493368Y-138846525D01*
X83286525Y-139053368D01*
X83170000Y-139227760D01*
X83053475Y-139053368D01*
X82846632Y-138846525D01*
X82603411Y-138684010D01*
X82333158Y-138572068D01*
X82046260Y-138515000D01*
X81753740Y-138515000D01*
X81466842Y-138572068D01*
X81196589Y-138684010D01*
X80953368Y-138846525D01*
X80746525Y-139053368D01*
X80716010Y-139099037D01*
X80716010Y-138020843D01*
X82633049Y-136103805D01*
X82756435Y-136186249D01*
X82934402Y-136259965D01*
X83123330Y-136297545D01*
X83315960Y-136297545D01*
X83504888Y-136259965D01*
X83682855Y-136186249D01*
X83843020Y-136079230D01*
X83979230Y-135943020D01*
X84086249Y-135782855D01*
X84159965Y-135604888D01*
X84197545Y-135415960D01*
X84197545Y-135223330D01*
X84161860Y-135043928D01*
X84894588Y-134311200D01*
X84919901Y-134311200D01*
X85006615Y-134382365D01*
G37*
%TD.AperFunction*%
D17*
X89377211Y-137082999D02*
X89399482Y-137110136D01*
X89507776Y-137199011D01*
X89631328Y-137265051D01*
X89765389Y-137305718D01*
X89869873Y-137316009D01*
X89869882Y-137316009D01*
X89904808Y-137319449D01*
X89939734Y-137316009D01*
X90348090Y-137316009D01*
X90419886Y-137387805D01*
X90442161Y-137414947D01*
X90550455Y-137503822D01*
X90674007Y-137569862D01*
X90808068Y-137610529D01*
X90912552Y-137620820D01*
X90912560Y-137620820D01*
X90947488Y-137624260D01*
X90982416Y-137620820D01*
X92444947Y-137620820D01*
X92999673Y-138175547D01*
X92929418Y-138196859D01*
X92805866Y-138262899D01*
X92697572Y-138351774D01*
X92675302Y-138378910D01*
X92483971Y-138570241D01*
X92206260Y-138515000D01*
X91913740Y-138515000D01*
X91626842Y-138572068D01*
X91356589Y-138684010D01*
X91113368Y-138846525D01*
X90906525Y-139053368D01*
X90790000Y-139227760D01*
X90673475Y-139053368D01*
X90466632Y-138846525D01*
X90223411Y-138684010D01*
X89953158Y-138572068D01*
X89666260Y-138515000D01*
X89373740Y-138515000D01*
X89086842Y-138572068D01*
X88816589Y-138684010D01*
X88573368Y-138846525D01*
X88501005Y-138918888D01*
X88411200Y-138829083D01*
X88411200Y-136638072D01*
X88637500Y-136638072D01*
X88788807Y-136623170D01*
X88887457Y-136593244D01*
X89377211Y-137082999D01*
%TA.AperFunction,NonConductor*%
D18*
G36*
X89377211Y-137082999D02*
G01*
X89399482Y-137110136D01*
X89507776Y-137199011D01*
X89631328Y-137265051D01*
X89765389Y-137305718D01*
X89869873Y-137316009D01*
X89869882Y-137316009D01*
X89904808Y-137319449D01*
X89939734Y-137316009D01*
X90348090Y-137316009D01*
X90419886Y-137387805D01*
X90442161Y-137414947D01*
X90550455Y-137503822D01*
X90674007Y-137569862D01*
X90808068Y-137610529D01*
X90912552Y-137620820D01*
X90912560Y-137620820D01*
X90947488Y-137624260D01*
X90982416Y-137620820D01*
X92444947Y-137620820D01*
X92999673Y-138175547D01*
X92929418Y-138196859D01*
X92805866Y-138262899D01*
X92697572Y-138351774D01*
X92675302Y-138378910D01*
X92483971Y-138570241D01*
X92206260Y-138515000D01*
X91913740Y-138515000D01*
X91626842Y-138572068D01*
X91356589Y-138684010D01*
X91113368Y-138846525D01*
X90906525Y-139053368D01*
X90790000Y-139227760D01*
X90673475Y-139053368D01*
X90466632Y-138846525D01*
X90223411Y-138684010D01*
X89953158Y-138572068D01*
X89666260Y-138515000D01*
X89373740Y-138515000D01*
X89086842Y-138572068D01*
X88816589Y-138684010D01*
X88573368Y-138846525D01*
X88501005Y-138918888D01*
X88411200Y-138829083D01*
X88411200Y-136638072D01*
X88637500Y-136638072D01*
X88788807Y-136623170D01*
X88887457Y-136593244D01*
X89377211Y-137082999D01*
G37*
%TD.AperFunction*%
D17*
X80611595Y-128230887D02*
X80722038Y-128365462D01*
X80856613Y-128475905D01*
X81010148Y-128557972D01*
X81176744Y-128608508D01*
X81349998Y-128625572D01*
X82222941Y-128625572D01*
X82489297Y-128891928D01*
X81050000Y-128891928D01*
X80925518Y-128904188D01*
X80805820Y-128940498D01*
X80695506Y-128999463D01*
X80598815Y-129078815D01*
X80519463Y-129175506D01*
X80460498Y-129285820D01*
X80424188Y-129405518D01*
X80411928Y-129530000D01*
X80411928Y-131230000D01*
X80424188Y-131354482D01*
X80460498Y-131474180D01*
X80519463Y-131584494D01*
X80598815Y-131681185D01*
X80695506Y-131760537D01*
X80805820Y-131819502D01*
X80878380Y-131841513D01*
X80746525Y-131973368D01*
X80584010Y-132216589D01*
X80472068Y-132486842D01*
X80415000Y-132773740D01*
X80415000Y-133066260D01*
X80472068Y-133353158D01*
X80584010Y-133623411D01*
X80746525Y-133866632D01*
X80953368Y-134073475D01*
X81196589Y-134235990D01*
X81466842Y-134347932D01*
X81753740Y-134405000D01*
X81889213Y-134405000D01*
X79297160Y-136997053D01*
X79146632Y-136846525D01*
X78972240Y-136730000D01*
X79146632Y-136613475D01*
X79353475Y-136406632D01*
X79515990Y-136163411D01*
X79627932Y-135893158D01*
X79685000Y-135606260D01*
X79685000Y-135313740D01*
X79627932Y-135026842D01*
X79515990Y-134756589D01*
X79353475Y-134513368D01*
X79146632Y-134306525D01*
X78972240Y-134190000D01*
X79146632Y-134073475D01*
X79353475Y-133866632D01*
X79515990Y-133623411D01*
X79627932Y-133353158D01*
X79685000Y-133066260D01*
X79685000Y-132773740D01*
X79627932Y-132486842D01*
X79515990Y-132216589D01*
X79353475Y-131973368D01*
X79146632Y-131766525D01*
X78972240Y-131650000D01*
X79146632Y-131533475D01*
X79353475Y-131326632D01*
X79515990Y-131083411D01*
X79627932Y-130813158D01*
X79685000Y-130526260D01*
X79685000Y-130233740D01*
X79627932Y-129946842D01*
X79515990Y-129676589D01*
X79353475Y-129433368D01*
X79146632Y-129226525D01*
X78972240Y-129110000D01*
X79146632Y-128993475D01*
X79353475Y-128786632D01*
X79515990Y-128543411D01*
X79627932Y-128273158D01*
X79664961Y-128087000D01*
X80534685Y-128087000D01*
X80611595Y-128230887D01*
%TA.AperFunction,NonConductor*%
D18*
G36*
X80611595Y-128230887D02*
G01*
X80722038Y-128365462D01*
X80856613Y-128475905D01*
X81010148Y-128557972D01*
X81176744Y-128608508D01*
X81349998Y-128625572D01*
X82222941Y-128625572D01*
X82489297Y-128891928D01*
X81050000Y-128891928D01*
X80925518Y-128904188D01*
X80805820Y-128940498D01*
X80695506Y-128999463D01*
X80598815Y-129078815D01*
X80519463Y-129175506D01*
X80460498Y-129285820D01*
X80424188Y-129405518D01*
X80411928Y-129530000D01*
X80411928Y-131230000D01*
X80424188Y-131354482D01*
X80460498Y-131474180D01*
X80519463Y-131584494D01*
X80598815Y-131681185D01*
X80695506Y-131760537D01*
X80805820Y-131819502D01*
X80878380Y-131841513D01*
X80746525Y-131973368D01*
X80584010Y-132216589D01*
X80472068Y-132486842D01*
X80415000Y-132773740D01*
X80415000Y-133066260D01*
X80472068Y-133353158D01*
X80584010Y-133623411D01*
X80746525Y-133866632D01*
X80953368Y-134073475D01*
X81196589Y-134235990D01*
X81466842Y-134347932D01*
X81753740Y-134405000D01*
X81889213Y-134405000D01*
X79297160Y-136997053D01*
X79146632Y-136846525D01*
X78972240Y-136730000D01*
X79146632Y-136613475D01*
X79353475Y-136406632D01*
X79515990Y-136163411D01*
X79627932Y-135893158D01*
X79685000Y-135606260D01*
X79685000Y-135313740D01*
X79627932Y-135026842D01*
X79515990Y-134756589D01*
X79353475Y-134513368D01*
X79146632Y-134306525D01*
X78972240Y-134190000D01*
X79146632Y-134073475D01*
X79353475Y-133866632D01*
X79515990Y-133623411D01*
X79627932Y-133353158D01*
X79685000Y-133066260D01*
X79685000Y-132773740D01*
X79627932Y-132486842D01*
X79515990Y-132216589D01*
X79353475Y-131973368D01*
X79146632Y-131766525D01*
X78972240Y-131650000D01*
X79146632Y-131533475D01*
X79353475Y-131326632D01*
X79515990Y-131083411D01*
X79627932Y-130813158D01*
X79685000Y-130526260D01*
X79685000Y-130233740D01*
X79627932Y-129946842D01*
X79515990Y-129676589D01*
X79353475Y-129433368D01*
X79146632Y-129226525D01*
X78972240Y-129110000D01*
X79146632Y-128993475D01*
X79353475Y-128786632D01*
X79515990Y-128543411D01*
X79627932Y-128273158D01*
X79664961Y-128087000D01*
X80534685Y-128087000D01*
X80611595Y-128230887D01*
G37*
%TD.AperFunction*%
D17*
X77253368Y-136613475D02*
X77427760Y-136730000D01*
X77253368Y-136846525D01*
X77252840Y-136847053D01*
X77111200Y-136705413D01*
X77111200Y-136471307D01*
X77253368Y-136613475D01*
%TA.AperFunction,NonConductor*%
D18*
G36*
X77253368Y-136613475D02*
G01*
X77427760Y-136730000D01*
X77253368Y-136846525D01*
X77252840Y-136847053D01*
X77111200Y-136705413D01*
X77111200Y-136471307D01*
X77253368Y-136613475D01*
G37*
%TD.AperFunction*%
D17*
X99474373Y-130112768D02*
X99470932Y-130147704D01*
X99474373Y-130182640D01*
X99484664Y-130287124D01*
X99518605Y-130399012D01*
X99525331Y-130421185D01*
X99591370Y-130544736D01*
X99649566Y-130615648D01*
X99680246Y-130653031D01*
X99707382Y-130675301D01*
X100255380Y-131223300D01*
X100255381Y-132731644D01*
X100251940Y-132766580D01*
X100255381Y-132801516D01*
X100265672Y-132906000D01*
X100289018Y-132982962D01*
X100306339Y-133040061D01*
X100372378Y-133163612D01*
X100438538Y-133244228D01*
X100461254Y-133271907D01*
X100488389Y-133294177D01*
X100560190Y-133365978D01*
X100560191Y-134836454D01*
X100556750Y-134871390D01*
X100560191Y-134906326D01*
X100570482Y-135010810D01*
X100590483Y-135076745D01*
X100611149Y-135144871D01*
X100677188Y-135268422D01*
X100705539Y-135302968D01*
X100766064Y-135376717D01*
X100793200Y-135398987D01*
X100861928Y-135467715D01*
X100861928Y-135888800D01*
X99094589Y-135888800D01*
X97718860Y-134513072D01*
X97962500Y-134513072D01*
X98113807Y-134498170D01*
X98259299Y-134454035D01*
X98393385Y-134382365D01*
X98510912Y-134285912D01*
X98607365Y-134168385D01*
X98679035Y-134034299D01*
X98723170Y-133888807D01*
X98738072Y-133737500D01*
X98738072Y-133462500D01*
X98723170Y-133311193D01*
X98689440Y-133200000D01*
X98723170Y-133088807D01*
X98738072Y-132937500D01*
X98738072Y-132662500D01*
X98723170Y-132511193D01*
X98689440Y-132400000D01*
X98723170Y-132288807D01*
X98738072Y-132137500D01*
X98738072Y-131862500D01*
X98723170Y-131711193D01*
X98689440Y-131600000D01*
X98723170Y-131488807D01*
X98738072Y-131337500D01*
X98738072Y-131083319D01*
X98825392Y-131036645D01*
X98941422Y-130941422D01*
X98965284Y-130912346D01*
X99212347Y-130665283D01*
X99241422Y-130641422D01*
X99336645Y-130525392D01*
X99407402Y-130393015D01*
X99450974Y-130249378D01*
X99462000Y-130137426D01*
X99462000Y-130137424D01*
X99465686Y-130100001D01*
X99462000Y-130062574D01*
X99462000Y-129137422D01*
X99465686Y-129099999D01*
X99462000Y-129062574D01*
X99450974Y-128950622D01*
X99407402Y-128806985D01*
X99336645Y-128674608D01*
X99241422Y-128558578D01*
X99212346Y-128534716D01*
X98965284Y-128287654D01*
X98941422Y-128258578D01*
X98825392Y-128163355D01*
X98738072Y-128116681D01*
X98738072Y-127911200D01*
X99474372Y-127911200D01*
X99474373Y-130112768D01*
%TA.AperFunction,NonConductor*%
D18*
G36*
X99474373Y-130112768D02*
G01*
X99470932Y-130147704D01*
X99474373Y-130182640D01*
X99484664Y-130287124D01*
X99518605Y-130399012D01*
X99525331Y-130421185D01*
X99591370Y-130544736D01*
X99649566Y-130615648D01*
X99680246Y-130653031D01*
X99707382Y-130675301D01*
X100255380Y-131223300D01*
X100255381Y-132731644D01*
X100251940Y-132766580D01*
X100255381Y-132801516D01*
X100265672Y-132906000D01*
X100289018Y-132982962D01*
X100306339Y-133040061D01*
X100372378Y-133163612D01*
X100438538Y-133244228D01*
X100461254Y-133271907D01*
X100488389Y-133294177D01*
X100560190Y-133365978D01*
X100560191Y-134836454D01*
X100556750Y-134871390D01*
X100560191Y-134906326D01*
X100570482Y-135010810D01*
X100590483Y-135076745D01*
X100611149Y-135144871D01*
X100677188Y-135268422D01*
X100705539Y-135302968D01*
X100766064Y-135376717D01*
X100793200Y-135398987D01*
X100861928Y-135467715D01*
X100861928Y-135888800D01*
X99094589Y-135888800D01*
X97718860Y-134513072D01*
X97962500Y-134513072D01*
X98113807Y-134498170D01*
X98259299Y-134454035D01*
X98393385Y-134382365D01*
X98510912Y-134285912D01*
X98607365Y-134168385D01*
X98679035Y-134034299D01*
X98723170Y-133888807D01*
X98738072Y-133737500D01*
X98738072Y-133462500D01*
X98723170Y-133311193D01*
X98689440Y-133200000D01*
X98723170Y-133088807D01*
X98738072Y-132937500D01*
X98738072Y-132662500D01*
X98723170Y-132511193D01*
X98689440Y-132400000D01*
X98723170Y-132288807D01*
X98738072Y-132137500D01*
X98738072Y-131862500D01*
X98723170Y-131711193D01*
X98689440Y-131600000D01*
X98723170Y-131488807D01*
X98738072Y-131337500D01*
X98738072Y-131083319D01*
X98825392Y-131036645D01*
X98941422Y-130941422D01*
X98965284Y-130912346D01*
X99212347Y-130665283D01*
X99241422Y-130641422D01*
X99336645Y-130525392D01*
X99407402Y-130393015D01*
X99450974Y-130249378D01*
X99462000Y-130137426D01*
X99462000Y-130137424D01*
X99465686Y-130100001D01*
X99462000Y-130062574D01*
X99462000Y-129137422D01*
X99465686Y-129099999D01*
X99462000Y-129062574D01*
X99450974Y-128950622D01*
X99407402Y-128806985D01*
X99336645Y-128674608D01*
X99241422Y-128558578D01*
X99212346Y-128534716D01*
X98965284Y-128287654D01*
X98941422Y-128258578D01*
X98825392Y-128163355D01*
X98738072Y-128116681D01*
X98738072Y-127911200D01*
X99474372Y-127911200D01*
X99474373Y-130112768D01*
G37*
%TD.AperFunction*%
D17*
X96930808Y-135736596D02*
X96814757Y-135759680D01*
X96636790Y-135833396D01*
X96613072Y-135849244D01*
X96613072Y-135418860D01*
X96930808Y-135736596D01*
%TA.AperFunction,NonConductor*%
D18*
G36*
X96930808Y-135736596D02*
G01*
X96814757Y-135759680D01*
X96636790Y-135833396D01*
X96613072Y-135849244D01*
X96613072Y-135418860D01*
X96930808Y-135736596D01*
G37*
%TD.AperFunction*%
D17*
X103122038Y-134527962D02*
X103179354Y-134575000D01*
X103122038Y-134622038D01*
X103100000Y-134648891D01*
X103077962Y-134622038D01*
X103020646Y-134575000D01*
X103077962Y-134527962D01*
X103100000Y-134501109D01*
X103122038Y-134527962D01*
%TA.AperFunction,NonConductor*%
D18*
G36*
X103122038Y-134527962D02*
G01*
X103179354Y-134575000D01*
X103122038Y-134622038D01*
X103100000Y-134648891D01*
X103077962Y-134622038D01*
X103020646Y-134575000D01*
X103077962Y-134527962D01*
X103100000Y-134501109D01*
X103122038Y-134527962D01*
G37*
%TD.AperFunction*%
D17*
X77253368Y-134073475D02*
X77427760Y-134190000D01*
X77253368Y-134306525D01*
X77111200Y-134448693D01*
X77111200Y-133931307D01*
X77253368Y-134073475D01*
%TA.AperFunction,NonConductor*%
D18*
G36*
X77253368Y-134073475D02*
G01*
X77427760Y-134190000D01*
X77253368Y-134306525D01*
X77111200Y-134448693D01*
X77111200Y-133931307D01*
X77253368Y-134073475D01*
G37*
%TD.AperFunction*%
D17*
X90722756Y-130200386D02*
X90722100Y-130203685D01*
X90722100Y-130396315D01*
X90759680Y-130585243D01*
X90833396Y-130763210D01*
X90940415Y-130923375D01*
X91076625Y-131059585D01*
X91236790Y-131166604D01*
X91414757Y-131240320D01*
X91603685Y-131277900D01*
X91796315Y-131277900D01*
X91985243Y-131240320D01*
X92163210Y-131166604D01*
X92170100Y-131162000D01*
X92430730Y-131162000D01*
X92459680Y-131307543D01*
X92533396Y-131485510D01*
X92640415Y-131645675D01*
X92776625Y-131781885D01*
X92936790Y-131888904D01*
X93093611Y-131953861D01*
X93139455Y-132064539D01*
X93246474Y-132224704D01*
X93382684Y-132360914D01*
X93542849Y-132467933D01*
X93662030Y-132517299D01*
X89306426Y-132517299D01*
X89271500Y-132513859D01*
X89236574Y-132517299D01*
X89236565Y-132517299D01*
X89132081Y-132527590D01*
X88998020Y-132568257D01*
X88874468Y-132634297D01*
X88766174Y-132723172D01*
X88743903Y-132750309D01*
X88021810Y-133472403D01*
X87994674Y-133494673D01*
X87972404Y-133521809D01*
X87972403Y-133521810D01*
X87905798Y-133602968D01*
X87877137Y-133656589D01*
X87839759Y-133726519D01*
X87803202Y-133847033D01*
X87799092Y-133860581D01*
X87796497Y-133886928D01*
X87562500Y-133886928D01*
X87411193Y-133901830D01*
X87392499Y-133907501D01*
X87398170Y-133888807D01*
X87413072Y-133737500D01*
X87413072Y-133462500D01*
X87398170Y-133311193D01*
X87364440Y-133200000D01*
X87398170Y-133088807D01*
X87413072Y-132937500D01*
X87413072Y-132662500D01*
X87398170Y-132511193D01*
X87364440Y-132400000D01*
X87398170Y-132288807D01*
X87413072Y-132137500D01*
X87413072Y-131862500D01*
X87398170Y-131711193D01*
X87364440Y-131600000D01*
X87398170Y-131488807D01*
X87413072Y-131337500D01*
X87413072Y-131062500D01*
X87398170Y-130911193D01*
X87364440Y-130800000D01*
X87398170Y-130688807D01*
X87413072Y-130537500D01*
X87413072Y-130362000D01*
X88080239Y-130362000D01*
X88236790Y-130466604D01*
X88414757Y-130540320D01*
X88603685Y-130577900D01*
X88796315Y-130577900D01*
X88985243Y-130540320D01*
X89163210Y-130466604D01*
X89323375Y-130359585D01*
X89459585Y-130223375D01*
X89566604Y-130063210D01*
X89640320Y-129885243D01*
X89677900Y-129696315D01*
X89677900Y-129562000D01*
X90084370Y-129562000D01*
X90722756Y-130200386D01*
%TA.AperFunction,NonConductor*%
D18*
G36*
X90722756Y-130200386D02*
G01*
X90722100Y-130203685D01*
X90722100Y-130396315D01*
X90759680Y-130585243D01*
X90833396Y-130763210D01*
X90940415Y-130923375D01*
X91076625Y-131059585D01*
X91236790Y-131166604D01*
X91414757Y-131240320D01*
X91603685Y-131277900D01*
X91796315Y-131277900D01*
X91985243Y-131240320D01*
X92163210Y-131166604D01*
X92170100Y-131162000D01*
X92430730Y-131162000D01*
X92459680Y-131307543D01*
X92533396Y-131485510D01*
X92640415Y-131645675D01*
X92776625Y-131781885D01*
X92936790Y-131888904D01*
X93093611Y-131953861D01*
X93139455Y-132064539D01*
X93246474Y-132224704D01*
X93382684Y-132360914D01*
X93542849Y-132467933D01*
X93662030Y-132517299D01*
X89306426Y-132517299D01*
X89271500Y-132513859D01*
X89236574Y-132517299D01*
X89236565Y-132517299D01*
X89132081Y-132527590D01*
X88998020Y-132568257D01*
X88874468Y-132634297D01*
X88766174Y-132723172D01*
X88743903Y-132750309D01*
X88021810Y-133472403D01*
X87994674Y-133494673D01*
X87972404Y-133521809D01*
X87972403Y-133521810D01*
X87905798Y-133602968D01*
X87877137Y-133656589D01*
X87839759Y-133726519D01*
X87803202Y-133847033D01*
X87799092Y-133860581D01*
X87796497Y-133886928D01*
X87562500Y-133886928D01*
X87411193Y-133901830D01*
X87392499Y-133907501D01*
X87398170Y-133888807D01*
X87413072Y-133737500D01*
X87413072Y-133462500D01*
X87398170Y-133311193D01*
X87364440Y-133200000D01*
X87398170Y-133088807D01*
X87413072Y-132937500D01*
X87413072Y-132662500D01*
X87398170Y-132511193D01*
X87364440Y-132400000D01*
X87398170Y-132288807D01*
X87413072Y-132137500D01*
X87413072Y-131862500D01*
X87398170Y-131711193D01*
X87364440Y-131600000D01*
X87398170Y-131488807D01*
X87413072Y-131337500D01*
X87413072Y-131062500D01*
X87398170Y-130911193D01*
X87364440Y-130800000D01*
X87398170Y-130688807D01*
X87413072Y-130537500D01*
X87413072Y-130362000D01*
X88080239Y-130362000D01*
X88236790Y-130466604D01*
X88414757Y-130540320D01*
X88603685Y-130577900D01*
X88796315Y-130577900D01*
X88985243Y-130540320D01*
X89163210Y-130466604D01*
X89323375Y-130359585D01*
X89459585Y-130223375D01*
X89566604Y-130063210D01*
X89640320Y-129885243D01*
X89677900Y-129696315D01*
X89677900Y-129562000D01*
X90084370Y-129562000D01*
X90722756Y-130200386D01*
G37*
%TD.AperFunction*%
D17*
X115384010Y-132523411D02*
X115546525Y-132766632D01*
X115753368Y-132973475D01*
X115927760Y-133090000D01*
X115753368Y-133206525D01*
X115546525Y-133413368D01*
X115384010Y-133656589D01*
X115340000Y-133762839D01*
X115295990Y-133656589D01*
X115133475Y-133413368D01*
X114926632Y-133206525D01*
X114752240Y-133090000D01*
X114926632Y-132973475D01*
X115133475Y-132766632D01*
X115295990Y-132523411D01*
X115340000Y-132417161D01*
X115384010Y-132523411D01*
%TA.AperFunction,NonConductor*%
D18*
G36*
X115384010Y-132523411D02*
G01*
X115546525Y-132766632D01*
X115753368Y-132973475D01*
X115927760Y-133090000D01*
X115753368Y-133206525D01*
X115546525Y-133413368D01*
X115384010Y-133656589D01*
X115340000Y-133762839D01*
X115295990Y-133656589D01*
X115133475Y-133413368D01*
X114926632Y-133206525D01*
X114752240Y-133090000D01*
X114926632Y-132973475D01*
X115133475Y-132766632D01*
X115295990Y-132523411D01*
X115340000Y-132417161D01*
X115384010Y-132523411D01*
G37*
%TD.AperFunction*%
D17*
X123184010Y-132523411D02*
X123346525Y-132766632D01*
X123553368Y-132973475D01*
X123727760Y-133090000D01*
X123553368Y-133206525D01*
X123346525Y-133413368D01*
X123184010Y-133656589D01*
X123140000Y-133762839D01*
X123095990Y-133656589D01*
X122933475Y-133413368D01*
X122726632Y-133206525D01*
X122552240Y-133090000D01*
X122726632Y-132973475D01*
X122933475Y-132766632D01*
X123095990Y-132523411D01*
X123140000Y-132417161D01*
X123184010Y-132523411D01*
%TA.AperFunction,NonConductor*%
D18*
G36*
X123184010Y-132523411D02*
G01*
X123346525Y-132766632D01*
X123553368Y-132973475D01*
X123727760Y-133090000D01*
X123553368Y-133206525D01*
X123346525Y-133413368D01*
X123184010Y-133656589D01*
X123140000Y-133762839D01*
X123095990Y-133656589D01*
X122933475Y-133413368D01*
X122726632Y-133206525D01*
X122552240Y-133090000D01*
X122726632Y-132973475D01*
X122933475Y-132766632D01*
X123095990Y-132523411D01*
X123140000Y-132417161D01*
X123184010Y-132523411D01*
G37*
%TD.AperFunction*%
D17*
X130984010Y-132523411D02*
X131146525Y-132766632D01*
X131353368Y-132973475D01*
X131527760Y-133090000D01*
X131353368Y-133206525D01*
X131146525Y-133413368D01*
X130984010Y-133656589D01*
X130940000Y-133762839D01*
X130895990Y-133656589D01*
X130733475Y-133413368D01*
X130526632Y-133206525D01*
X130352240Y-133090000D01*
X130526632Y-132973475D01*
X130733475Y-132766632D01*
X130895990Y-132523411D01*
X130940000Y-132417161D01*
X130984010Y-132523411D01*
%TA.AperFunction,NonConductor*%
D18*
G36*
X130984010Y-132523411D02*
G01*
X131146525Y-132766632D01*
X131353368Y-132973475D01*
X131527760Y-133090000D01*
X131353368Y-133206525D01*
X131146525Y-133413368D01*
X130984010Y-133656589D01*
X130940000Y-133762839D01*
X130895990Y-133656589D01*
X130733475Y-133413368D01*
X130526632Y-133206525D01*
X130352240Y-133090000D01*
X130526632Y-132973475D01*
X130733475Y-132766632D01*
X130895990Y-132523411D01*
X130940000Y-132417161D01*
X130984010Y-132523411D01*
G37*
%TD.AperFunction*%
D17*
X84450622Y-129550974D02*
X84562574Y-129562000D01*
X84562576Y-129562000D01*
X84599999Y-129565686D01*
X84637422Y-129562000D01*
X84661928Y-129562000D01*
X84661928Y-129737500D01*
X84676830Y-129888807D01*
X84710560Y-130000000D01*
X84676830Y-130111193D01*
X84661928Y-130262500D01*
X84661928Y-130537500D01*
X84676830Y-130688807D01*
X84710560Y-130800000D01*
X84676830Y-130911193D01*
X84661928Y-131062500D01*
X84661928Y-131337500D01*
X84676830Y-131488807D01*
X84706755Y-131587457D01*
X83385000Y-132909212D01*
X83385000Y-132773740D01*
X83327932Y-132486842D01*
X83215990Y-132216589D01*
X83053475Y-131973368D01*
X82921620Y-131841513D01*
X82994180Y-131819502D01*
X83104494Y-131760537D01*
X83201185Y-131681185D01*
X83280537Y-131584494D01*
X83339502Y-131474180D01*
X83375812Y-131354482D01*
X83388072Y-131230000D01*
X83388072Y-130074794D01*
X83403685Y-130077900D01*
X83596315Y-130077900D01*
X83785243Y-130040320D01*
X83963210Y-129966604D01*
X84123375Y-129859585D01*
X84259585Y-129723375D01*
X84366604Y-129563210D01*
X84380485Y-129529698D01*
X84450622Y-129550974D01*
%TA.AperFunction,NonConductor*%
D18*
G36*
X84450622Y-129550974D02*
G01*
X84562574Y-129562000D01*
X84562576Y-129562000D01*
X84599999Y-129565686D01*
X84637422Y-129562000D01*
X84661928Y-129562000D01*
X84661928Y-129737500D01*
X84676830Y-129888807D01*
X84710560Y-130000000D01*
X84676830Y-130111193D01*
X84661928Y-130262500D01*
X84661928Y-130537500D01*
X84676830Y-130688807D01*
X84710560Y-130800000D01*
X84676830Y-130911193D01*
X84661928Y-131062500D01*
X84661928Y-131337500D01*
X84676830Y-131488807D01*
X84706755Y-131587457D01*
X83385000Y-132909212D01*
X83385000Y-132773740D01*
X83327932Y-132486842D01*
X83215990Y-132216589D01*
X83053475Y-131973368D01*
X82921620Y-131841513D01*
X82994180Y-131819502D01*
X83104494Y-131760537D01*
X83201185Y-131681185D01*
X83280537Y-131584494D01*
X83339502Y-131474180D01*
X83375812Y-131354482D01*
X83388072Y-131230000D01*
X83388072Y-130074794D01*
X83403685Y-130077900D01*
X83596315Y-130077900D01*
X83785243Y-130040320D01*
X83963210Y-129966604D01*
X84123375Y-129859585D01*
X84259585Y-129723375D01*
X84366604Y-129563210D01*
X84380485Y-129529698D01*
X84450622Y-129550974D01*
G37*
%TD.AperFunction*%
D17*
X103122038Y-132277962D02*
X103179354Y-132325000D01*
X103122038Y-132372038D01*
X103100000Y-132398891D01*
X103077962Y-132372038D01*
X103020646Y-132325000D01*
X103077962Y-132277962D01*
X103100000Y-132251109D01*
X103122038Y-132277962D01*
%TA.AperFunction,NonConductor*%
D18*
G36*
X103122038Y-132277962D02*
G01*
X103179354Y-132325000D01*
X103122038Y-132372038D01*
X103100000Y-132398891D01*
X103077962Y-132372038D01*
X103020646Y-132325000D01*
X103077962Y-132277962D01*
X103100000Y-132251109D01*
X103122038Y-132277962D01*
G37*
%TD.AperFunction*%
D17*
X77253368Y-131533475D02*
X77427760Y-131650000D01*
X77253368Y-131766525D01*
X77111200Y-131908693D01*
X77111200Y-131391307D01*
X77253368Y-131533475D01*
%TA.AperFunction,NonConductor*%
D18*
G36*
X77253368Y-131533475D02*
G01*
X77427760Y-131650000D01*
X77253368Y-131766525D01*
X77111200Y-131908693D01*
X77111200Y-131391307D01*
X77253368Y-131533475D01*
G37*
%TD.AperFunction*%
D17*
X124459680Y-118014757D02*
X124422100Y-118203685D01*
X124422100Y-118396315D01*
X124459680Y-118585243D01*
X124533396Y-118763210D01*
X124640415Y-118923375D01*
X124776625Y-119059585D01*
X124936790Y-119166604D01*
X125114757Y-119240320D01*
X125303685Y-119277900D01*
X125424300Y-119277900D01*
X125398815Y-119298815D01*
X125319463Y-119395506D01*
X125260498Y-119505820D01*
X125224188Y-119625518D01*
X125211928Y-119750000D01*
X125211928Y-119810442D01*
X124223112Y-120799258D01*
X124038447Y-120835990D01*
X123860480Y-120909706D01*
X123700315Y-121016725D01*
X123564105Y-121152935D01*
X123457086Y-121313100D01*
X123383370Y-121491067D01*
X123345790Y-121679995D01*
X123345790Y-121872625D01*
X123383370Y-122061553D01*
X123457086Y-122239520D01*
X123564105Y-122399685D01*
X123700315Y-122535895D01*
X123860480Y-122642914D01*
X124027095Y-122711928D01*
X123650000Y-122711928D01*
X123525518Y-122724188D01*
X123405820Y-122760498D01*
X123295506Y-122819463D01*
X123198815Y-122898815D01*
X123140000Y-122970482D01*
X123081185Y-122898815D01*
X122984494Y-122819463D01*
X122874180Y-122760498D01*
X122754482Y-122724188D01*
X122630000Y-122711928D01*
X120930000Y-122711928D01*
X120805518Y-122724188D01*
X120685820Y-122760498D01*
X120575506Y-122819463D01*
X120478815Y-122898815D01*
X120399463Y-122995506D01*
X120340498Y-123105820D01*
X120304188Y-123225518D01*
X120291928Y-123350000D01*
X120291928Y-125050000D01*
X120304188Y-125174482D01*
X120340498Y-125294180D01*
X120399463Y-125404494D01*
X120478815Y-125501185D01*
X120575506Y-125580537D01*
X120685820Y-125639502D01*
X120758380Y-125661513D01*
X120626525Y-125793368D01*
X120464010Y-126036589D01*
X120352068Y-126306842D01*
X120295000Y-126593740D01*
X120295000Y-126886260D01*
X120352068Y-127173158D01*
X120464010Y-127443411D01*
X120626525Y-127686632D01*
X120833368Y-127893475D01*
X121007760Y-128010000D01*
X120833368Y-128126525D01*
X120626525Y-128333368D01*
X120464010Y-128576589D01*
X120352068Y-128846842D01*
X120295000Y-129133740D01*
X120295000Y-129426260D01*
X120352068Y-129713158D01*
X120464010Y-129983411D01*
X120626525Y-130226632D01*
X120833368Y-130433475D01*
X121007760Y-130550000D01*
X120833368Y-130666525D01*
X120626525Y-130873368D01*
X120464010Y-131116589D01*
X120352068Y-131386842D01*
X120295000Y-131673740D01*
X120295000Y-131707568D01*
X120125500Y-131538068D01*
X120125500Y-126340542D01*
X120129493Y-126299999D01*
X120125500Y-126259456D01*
X120125500Y-126259447D01*
X120113556Y-126138174D01*
X120066353Y-125982566D01*
X119989699Y-125839158D01*
X119989698Y-125839156D01*
X119919641Y-125753792D01*
X119886541Y-125713459D01*
X119855041Y-125687608D01*
X118188072Y-124020640D01*
X118188072Y-123879360D01*
X120955039Y-121112393D01*
X120986541Y-121086541D01*
X121066755Y-120988800D01*
X121089699Y-120960843D01*
X121166353Y-120817434D01*
X121189411Y-120741421D01*
X121213556Y-120661826D01*
X121225500Y-120540553D01*
X121225500Y-120540551D01*
X121229494Y-120500001D01*
X121225500Y-120459450D01*
X121225500Y-120113298D01*
X121301185Y-120051185D01*
X121380537Y-119954494D01*
X121439502Y-119844180D01*
X121475812Y-119724482D01*
X121488072Y-119600000D01*
X121488072Y-118800000D01*
X121475812Y-118675518D01*
X121439502Y-118555820D01*
X121380537Y-118445506D01*
X121301185Y-118348815D01*
X121204494Y-118269463D01*
X121094180Y-118210498D01*
X120974482Y-118174188D01*
X120850000Y-118161928D01*
X119950000Y-118161928D01*
X119825518Y-118174188D01*
X119705820Y-118210498D01*
X119595506Y-118269463D01*
X119498815Y-118348815D01*
X119488072Y-118361905D01*
X119488072Y-117860000D01*
X124523782Y-117860000D01*
X124459680Y-118014757D01*
%TA.AperFunction,NonConductor*%
D18*
G36*
X124459680Y-118014757D02*
G01*
X124422100Y-118203685D01*
X124422100Y-118396315D01*
X124459680Y-118585243D01*
X124533396Y-118763210D01*
X124640415Y-118923375D01*
X124776625Y-119059585D01*
X124936790Y-119166604D01*
X125114757Y-119240320D01*
X125303685Y-119277900D01*
X125424300Y-119277900D01*
X125398815Y-119298815D01*
X125319463Y-119395506D01*
X125260498Y-119505820D01*
X125224188Y-119625518D01*
X125211928Y-119750000D01*
X125211928Y-119810442D01*
X124223112Y-120799258D01*
X124038447Y-120835990D01*
X123860480Y-120909706D01*
X123700315Y-121016725D01*
X123564105Y-121152935D01*
X123457086Y-121313100D01*
X123383370Y-121491067D01*
X123345790Y-121679995D01*
X123345790Y-121872625D01*
X123383370Y-122061553D01*
X123457086Y-122239520D01*
X123564105Y-122399685D01*
X123700315Y-122535895D01*
X123860480Y-122642914D01*
X124027095Y-122711928D01*
X123650000Y-122711928D01*
X123525518Y-122724188D01*
X123405820Y-122760498D01*
X123295506Y-122819463D01*
X123198815Y-122898815D01*
X123140000Y-122970482D01*
X123081185Y-122898815D01*
X122984494Y-122819463D01*
X122874180Y-122760498D01*
X122754482Y-122724188D01*
X122630000Y-122711928D01*
X120930000Y-122711928D01*
X120805518Y-122724188D01*
X120685820Y-122760498D01*
X120575506Y-122819463D01*
X120478815Y-122898815D01*
X120399463Y-122995506D01*
X120340498Y-123105820D01*
X120304188Y-123225518D01*
X120291928Y-123350000D01*
X120291928Y-125050000D01*
X120304188Y-125174482D01*
X120340498Y-125294180D01*
X120399463Y-125404494D01*
X120478815Y-125501185D01*
X120575506Y-125580537D01*
X120685820Y-125639502D01*
X120758380Y-125661513D01*
X120626525Y-125793368D01*
X120464010Y-126036589D01*
X120352068Y-126306842D01*
X120295000Y-126593740D01*
X120295000Y-126886260D01*
X120352068Y-127173158D01*
X120464010Y-127443411D01*
X120626525Y-127686632D01*
X120833368Y-127893475D01*
X121007760Y-128010000D01*
X120833368Y-128126525D01*
X120626525Y-128333368D01*
X120464010Y-128576589D01*
X120352068Y-128846842D01*
X120295000Y-129133740D01*
X120295000Y-129426260D01*
X120352068Y-129713158D01*
X120464010Y-129983411D01*
X120626525Y-130226632D01*
X120833368Y-130433475D01*
X121007760Y-130550000D01*
X120833368Y-130666525D01*
X120626525Y-130873368D01*
X120464010Y-131116589D01*
X120352068Y-131386842D01*
X120295000Y-131673740D01*
X120295000Y-131707568D01*
X120125500Y-131538068D01*
X120125500Y-126340542D01*
X120129493Y-126299999D01*
X120125500Y-126259456D01*
X120125500Y-126259447D01*
X120113556Y-126138174D01*
X120066353Y-125982566D01*
X119989699Y-125839158D01*
X119989698Y-125839156D01*
X119919641Y-125753792D01*
X119886541Y-125713459D01*
X119855041Y-125687608D01*
X118188072Y-124020640D01*
X118188072Y-123879360D01*
X120955039Y-121112393D01*
X120986541Y-121086541D01*
X121066755Y-120988800D01*
X121089699Y-120960843D01*
X121166353Y-120817434D01*
X121189411Y-120741421D01*
X121213556Y-120661826D01*
X121225500Y-120540553D01*
X121225500Y-120540551D01*
X121229494Y-120500001D01*
X121225500Y-120459450D01*
X121225500Y-120113298D01*
X121301185Y-120051185D01*
X121380537Y-119954494D01*
X121439502Y-119844180D01*
X121475812Y-119724482D01*
X121488072Y-119600000D01*
X121488072Y-118800000D01*
X121475812Y-118675518D01*
X121439502Y-118555820D01*
X121380537Y-118445506D01*
X121301185Y-118348815D01*
X121204494Y-118269463D01*
X121094180Y-118210498D01*
X120974482Y-118174188D01*
X120850000Y-118161928D01*
X119950000Y-118161928D01*
X119825518Y-118174188D01*
X119705820Y-118210498D01*
X119595506Y-118269463D01*
X119498815Y-118348815D01*
X119488072Y-118361905D01*
X119488072Y-117860000D01*
X124523782Y-117860000D01*
X124459680Y-118014757D01*
G37*
%TD.AperFunction*%
D17*
X131759680Y-118014757D02*
X131722100Y-118203685D01*
X131722100Y-118396315D01*
X131759680Y-118585243D01*
X131833396Y-118763210D01*
X131940415Y-118923375D01*
X132076625Y-119059585D01*
X132236790Y-119166604D01*
X132414757Y-119240320D01*
X132463422Y-119250000D01*
X132414757Y-119259680D01*
X132236790Y-119333396D01*
X132076625Y-119440415D01*
X131940415Y-119576625D01*
X131833396Y-119736790D01*
X131759680Y-119914757D01*
X131722100Y-120103685D01*
X131722100Y-120296315D01*
X131759680Y-120485243D01*
X131833396Y-120663210D01*
X131940415Y-120823375D01*
X132076625Y-120959585D01*
X132236790Y-121066604D01*
X132414757Y-121140320D01*
X132603685Y-121177900D01*
X132796315Y-121177900D01*
X132985243Y-121140320D01*
X133054039Y-121111824D01*
X133105820Y-121139502D01*
X133225518Y-121175812D01*
X133350000Y-121188072D01*
X134144495Y-121188072D01*
X132620640Y-122711928D01*
X131450000Y-122711928D01*
X131325518Y-122724188D01*
X131205820Y-122760498D01*
X131095506Y-122819463D01*
X130998815Y-122898815D01*
X130940000Y-122970482D01*
X130881185Y-122898815D01*
X130784494Y-122819463D01*
X130674180Y-122760498D01*
X130554482Y-122724188D01*
X130430000Y-122711928D01*
X128730000Y-122711928D01*
X128605518Y-122724188D01*
X128485820Y-122760498D01*
X128375506Y-122819463D01*
X128278815Y-122898815D01*
X128199463Y-122995506D01*
X128140498Y-123105820D01*
X128104188Y-123225518D01*
X128091928Y-123350000D01*
X128091928Y-125050000D01*
X128104188Y-125174482D01*
X128140498Y-125294180D01*
X128199463Y-125404494D01*
X128278815Y-125501185D01*
X128375506Y-125580537D01*
X128485820Y-125639502D01*
X128558380Y-125661513D01*
X128426525Y-125793368D01*
X128264010Y-126036589D01*
X128152068Y-126306842D01*
X128095000Y-126593740D01*
X128095000Y-126886260D01*
X128152068Y-127173158D01*
X128264010Y-127443411D01*
X128426525Y-127686632D01*
X128633368Y-127893475D01*
X128807760Y-128010000D01*
X128633368Y-128126525D01*
X128426525Y-128333368D01*
X128264010Y-128576589D01*
X128152068Y-128846842D01*
X128095000Y-129133740D01*
X128095000Y-129426260D01*
X128152068Y-129713158D01*
X128264010Y-129983411D01*
X128426525Y-130226632D01*
X128633368Y-130433475D01*
X128807760Y-130550000D01*
X128633368Y-130666525D01*
X128426525Y-130873368D01*
X128264010Y-131116589D01*
X128152068Y-131386842D01*
X128095000Y-131673740D01*
X128095000Y-131707568D01*
X127925500Y-131538068D01*
X127925500Y-126340542D01*
X127929493Y-126299999D01*
X127925500Y-126259456D01*
X127925500Y-126259447D01*
X127913556Y-126138174D01*
X127866353Y-125982566D01*
X127789699Y-125839158D01*
X127789698Y-125839156D01*
X127719641Y-125753792D01*
X127686541Y-125713459D01*
X127655041Y-125687608D01*
X125988072Y-124020640D01*
X125988072Y-123879360D01*
X128855045Y-121012389D01*
X128886541Y-120986541D01*
X128912389Y-120955045D01*
X128912392Y-120955042D01*
X128989699Y-120860843D01*
X129066353Y-120717434D01*
X129071641Y-120700001D01*
X129113556Y-120561826D01*
X129125500Y-120440553D01*
X129125500Y-120440551D01*
X129129494Y-120400000D01*
X129125500Y-120359450D01*
X129125500Y-120113298D01*
X129201185Y-120051185D01*
X129280537Y-119954494D01*
X129339502Y-119844180D01*
X129375812Y-119724482D01*
X129388072Y-119600000D01*
X129388072Y-118800000D01*
X129375812Y-118675518D01*
X129339502Y-118555820D01*
X129280537Y-118445506D01*
X129201185Y-118348815D01*
X129104494Y-118269463D01*
X128994180Y-118210498D01*
X128874482Y-118174188D01*
X128750000Y-118161928D01*
X127850000Y-118161928D01*
X127725518Y-118174188D01*
X127605820Y-118210498D01*
X127495506Y-118269463D01*
X127398815Y-118348815D01*
X127388072Y-118361905D01*
X127388072Y-117860000D01*
X131823782Y-117860000D01*
X131759680Y-118014757D01*
%TA.AperFunction,NonConductor*%
D18*
G36*
X131759680Y-118014757D02*
G01*
X131722100Y-118203685D01*
X131722100Y-118396315D01*
X131759680Y-118585243D01*
X131833396Y-118763210D01*
X131940415Y-118923375D01*
X132076625Y-119059585D01*
X132236790Y-119166604D01*
X132414757Y-119240320D01*
X132463422Y-119250000D01*
X132414757Y-119259680D01*
X132236790Y-119333396D01*
X132076625Y-119440415D01*
X131940415Y-119576625D01*
X131833396Y-119736790D01*
X131759680Y-119914757D01*
X131722100Y-120103685D01*
X131722100Y-120296315D01*
X131759680Y-120485243D01*
X131833396Y-120663210D01*
X131940415Y-120823375D01*
X132076625Y-120959585D01*
X132236790Y-121066604D01*
X132414757Y-121140320D01*
X132603685Y-121177900D01*
X132796315Y-121177900D01*
X132985243Y-121140320D01*
X133054039Y-121111824D01*
X133105820Y-121139502D01*
X133225518Y-121175812D01*
X133350000Y-121188072D01*
X134144495Y-121188072D01*
X132620640Y-122711928D01*
X131450000Y-122711928D01*
X131325518Y-122724188D01*
X131205820Y-122760498D01*
X131095506Y-122819463D01*
X130998815Y-122898815D01*
X130940000Y-122970482D01*
X130881185Y-122898815D01*
X130784494Y-122819463D01*
X130674180Y-122760498D01*
X130554482Y-122724188D01*
X130430000Y-122711928D01*
X128730000Y-122711928D01*
X128605518Y-122724188D01*
X128485820Y-122760498D01*
X128375506Y-122819463D01*
X128278815Y-122898815D01*
X128199463Y-122995506D01*
X128140498Y-123105820D01*
X128104188Y-123225518D01*
X128091928Y-123350000D01*
X128091928Y-125050000D01*
X128104188Y-125174482D01*
X128140498Y-125294180D01*
X128199463Y-125404494D01*
X128278815Y-125501185D01*
X128375506Y-125580537D01*
X128485820Y-125639502D01*
X128558380Y-125661513D01*
X128426525Y-125793368D01*
X128264010Y-126036589D01*
X128152068Y-126306842D01*
X128095000Y-126593740D01*
X128095000Y-126886260D01*
X128152068Y-127173158D01*
X128264010Y-127443411D01*
X128426525Y-127686632D01*
X128633368Y-127893475D01*
X128807760Y-128010000D01*
X128633368Y-128126525D01*
X128426525Y-128333368D01*
X128264010Y-128576589D01*
X128152068Y-128846842D01*
X128095000Y-129133740D01*
X128095000Y-129426260D01*
X128152068Y-129713158D01*
X128264010Y-129983411D01*
X128426525Y-130226632D01*
X128633368Y-130433475D01*
X128807760Y-130550000D01*
X128633368Y-130666525D01*
X128426525Y-130873368D01*
X128264010Y-131116589D01*
X128152068Y-131386842D01*
X128095000Y-131673740D01*
X128095000Y-131707568D01*
X127925500Y-131538068D01*
X127925500Y-126340542D01*
X127929493Y-126299999D01*
X127925500Y-126259456D01*
X127925500Y-126259447D01*
X127913556Y-126138174D01*
X127866353Y-125982566D01*
X127789699Y-125839158D01*
X127789698Y-125839156D01*
X127719641Y-125753792D01*
X127686541Y-125713459D01*
X127655041Y-125687608D01*
X125988072Y-124020640D01*
X125988072Y-123879360D01*
X128855045Y-121012389D01*
X128886541Y-120986541D01*
X128912389Y-120955045D01*
X128912392Y-120955042D01*
X128989699Y-120860843D01*
X129066353Y-120717434D01*
X129071641Y-120700001D01*
X129113556Y-120561826D01*
X129125500Y-120440553D01*
X129125500Y-120440551D01*
X129129494Y-120400000D01*
X129125500Y-120359450D01*
X129125500Y-120113298D01*
X129201185Y-120051185D01*
X129280537Y-119954494D01*
X129339502Y-119844180D01*
X129375812Y-119724482D01*
X129388072Y-119600000D01*
X129388072Y-118800000D01*
X129375812Y-118675518D01*
X129339502Y-118555820D01*
X129280537Y-118445506D01*
X129201185Y-118348815D01*
X129104494Y-118269463D01*
X128994180Y-118210498D01*
X128874482Y-118174188D01*
X128750000Y-118161928D01*
X127850000Y-118161928D01*
X127725518Y-118174188D01*
X127605820Y-118210498D01*
X127495506Y-118269463D01*
X127398815Y-118348815D01*
X127388072Y-118361905D01*
X127388072Y-117860000D01*
X131823782Y-117860000D01*
X131759680Y-118014757D01*
G37*
%TD.AperFunction*%
D17*
X117419463Y-119004494D02*
X117498815Y-119101185D01*
X117595506Y-119180537D01*
X117631918Y-119200000D01*
X117595506Y-119219463D01*
X117498815Y-119298815D01*
X117419463Y-119395506D01*
X117360498Y-119505820D01*
X117324188Y-119625518D01*
X117311928Y-119750000D01*
X117311928Y-119963062D01*
X116475732Y-120799258D01*
X116291067Y-120835990D01*
X116113100Y-120909706D01*
X115952935Y-121016725D01*
X115816725Y-121152935D01*
X115709706Y-121313100D01*
X115635990Y-121491067D01*
X115598410Y-121679995D01*
X115598410Y-121872625D01*
X115635990Y-122061553D01*
X115709706Y-122239520D01*
X115816725Y-122399685D01*
X115952935Y-122535895D01*
X116113100Y-122642914D01*
X116279715Y-122711928D01*
X115850000Y-122711928D01*
X115725518Y-122724188D01*
X115605820Y-122760498D01*
X115495506Y-122819463D01*
X115398815Y-122898815D01*
X115340000Y-122970482D01*
X115281185Y-122898815D01*
X115184494Y-122819463D01*
X115074180Y-122760498D01*
X114954482Y-122724188D01*
X114830000Y-122711928D01*
X113130000Y-122711928D01*
X113005518Y-122724188D01*
X112885820Y-122760498D01*
X112775506Y-122819463D01*
X112678815Y-122898815D01*
X112599463Y-122995506D01*
X112540498Y-123105820D01*
X112504188Y-123225518D01*
X112491928Y-123350000D01*
X112491928Y-125050000D01*
X112504188Y-125174482D01*
X112540498Y-125294180D01*
X112599463Y-125404494D01*
X112678815Y-125501185D01*
X112775506Y-125580537D01*
X112885820Y-125639502D01*
X112958380Y-125661513D01*
X112826525Y-125793368D01*
X112664010Y-126036589D01*
X112552068Y-126306842D01*
X112495000Y-126593740D01*
X112495000Y-126886260D01*
X112552068Y-127173158D01*
X112664010Y-127443411D01*
X112826525Y-127686632D01*
X113033368Y-127893475D01*
X113207760Y-128010000D01*
X113033368Y-128126525D01*
X112826525Y-128333368D01*
X112664010Y-128576589D01*
X112552068Y-128846842D01*
X112495000Y-129133740D01*
X112495000Y-129426260D01*
X112552068Y-129713158D01*
X112664010Y-129983411D01*
X112826525Y-130226632D01*
X113033368Y-130433475D01*
X113207760Y-130550000D01*
X113033368Y-130666525D01*
X112826525Y-130873368D01*
X112664010Y-131116589D01*
X112552068Y-131386842D01*
X112495000Y-131673740D01*
X112495000Y-131707568D01*
X112325500Y-131538068D01*
X112325500Y-126340542D01*
X112329493Y-126299999D01*
X112325500Y-126259456D01*
X112325500Y-126259447D01*
X112313556Y-126138174D01*
X112266353Y-125982566D01*
X112189699Y-125839158D01*
X112189698Y-125839156D01*
X112119641Y-125753792D01*
X112086541Y-125713459D01*
X112055041Y-125687608D01*
X110388072Y-124020640D01*
X110388072Y-123879361D01*
X113055045Y-121212389D01*
X113086541Y-121186541D01*
X113112389Y-121155045D01*
X113112392Y-121155042D01*
X113189699Y-121060843D01*
X113266353Y-120917434D01*
X113279686Y-120873481D01*
X113313556Y-120761826D01*
X113325500Y-120640553D01*
X113325500Y-120640551D01*
X113329494Y-120600000D01*
X113325500Y-120559450D01*
X113325500Y-120113298D01*
X113401185Y-120051185D01*
X113480537Y-119954494D01*
X113539502Y-119844180D01*
X113575812Y-119724482D01*
X113588072Y-119600000D01*
X113588072Y-118961200D01*
X117396322Y-118961200D01*
X117419463Y-119004494D01*
%TA.AperFunction,NonConductor*%
D18*
G36*
X117419463Y-119004494D02*
G01*
X117498815Y-119101185D01*
X117595506Y-119180537D01*
X117631918Y-119200000D01*
X117595506Y-119219463D01*
X117498815Y-119298815D01*
X117419463Y-119395506D01*
X117360498Y-119505820D01*
X117324188Y-119625518D01*
X117311928Y-119750000D01*
X117311928Y-119963062D01*
X116475732Y-120799258D01*
X116291067Y-120835990D01*
X116113100Y-120909706D01*
X115952935Y-121016725D01*
X115816725Y-121152935D01*
X115709706Y-121313100D01*
X115635990Y-121491067D01*
X115598410Y-121679995D01*
X115598410Y-121872625D01*
X115635990Y-122061553D01*
X115709706Y-122239520D01*
X115816725Y-122399685D01*
X115952935Y-122535895D01*
X116113100Y-122642914D01*
X116279715Y-122711928D01*
X115850000Y-122711928D01*
X115725518Y-122724188D01*
X115605820Y-122760498D01*
X115495506Y-122819463D01*
X115398815Y-122898815D01*
X115340000Y-122970482D01*
X115281185Y-122898815D01*
X115184494Y-122819463D01*
X115074180Y-122760498D01*
X114954482Y-122724188D01*
X114830000Y-122711928D01*
X113130000Y-122711928D01*
X113005518Y-122724188D01*
X112885820Y-122760498D01*
X112775506Y-122819463D01*
X112678815Y-122898815D01*
X112599463Y-122995506D01*
X112540498Y-123105820D01*
X112504188Y-123225518D01*
X112491928Y-123350000D01*
X112491928Y-125050000D01*
X112504188Y-125174482D01*
X112540498Y-125294180D01*
X112599463Y-125404494D01*
X112678815Y-125501185D01*
X112775506Y-125580537D01*
X112885820Y-125639502D01*
X112958380Y-125661513D01*
X112826525Y-125793368D01*
X112664010Y-126036589D01*
X112552068Y-126306842D01*
X112495000Y-126593740D01*
X112495000Y-126886260D01*
X112552068Y-127173158D01*
X112664010Y-127443411D01*
X112826525Y-127686632D01*
X113033368Y-127893475D01*
X113207760Y-128010000D01*
X113033368Y-128126525D01*
X112826525Y-128333368D01*
X112664010Y-128576589D01*
X112552068Y-128846842D01*
X112495000Y-129133740D01*
X112495000Y-129426260D01*
X112552068Y-129713158D01*
X112664010Y-129983411D01*
X112826525Y-130226632D01*
X113033368Y-130433475D01*
X113207760Y-130550000D01*
X113033368Y-130666525D01*
X112826525Y-130873368D01*
X112664010Y-131116589D01*
X112552068Y-131386842D01*
X112495000Y-131673740D01*
X112495000Y-131707568D01*
X112325500Y-131538068D01*
X112325500Y-126340542D01*
X112329493Y-126299999D01*
X112325500Y-126259456D01*
X112325500Y-126259447D01*
X112313556Y-126138174D01*
X112266353Y-125982566D01*
X112189699Y-125839158D01*
X112189698Y-125839156D01*
X112119641Y-125753792D01*
X112086541Y-125713459D01*
X112055041Y-125687608D01*
X110388072Y-124020640D01*
X110388072Y-123879361D01*
X113055045Y-121212389D01*
X113086541Y-121186541D01*
X113112389Y-121155045D01*
X113112392Y-121155042D01*
X113189699Y-121060843D01*
X113266353Y-120917434D01*
X113279686Y-120873481D01*
X113313556Y-120761826D01*
X113325500Y-120640553D01*
X113325500Y-120640551D01*
X113329494Y-120600000D01*
X113325500Y-120559450D01*
X113325500Y-120113298D01*
X113401185Y-120051185D01*
X113480537Y-119954494D01*
X113539502Y-119844180D01*
X113575812Y-119724482D01*
X113588072Y-119600000D01*
X113588072Y-118961200D01*
X117396322Y-118961200D01*
X117419463Y-119004494D01*
G37*
%TD.AperFunction*%
D17*
X115384010Y-129983411D02*
X115546525Y-130226632D01*
X115753368Y-130433475D01*
X115927760Y-130550000D01*
X115753368Y-130666525D01*
X115546525Y-130873368D01*
X115384010Y-131116589D01*
X115340000Y-131222839D01*
X115295990Y-131116589D01*
X115133475Y-130873368D01*
X114926632Y-130666525D01*
X114752240Y-130550000D01*
X114926632Y-130433475D01*
X115133475Y-130226632D01*
X115295990Y-129983411D01*
X115340000Y-129877161D01*
X115384010Y-129983411D01*
%TA.AperFunction,NonConductor*%
D18*
G36*
X115384010Y-129983411D02*
G01*
X115546525Y-130226632D01*
X115753368Y-130433475D01*
X115927760Y-130550000D01*
X115753368Y-130666525D01*
X115546525Y-130873368D01*
X115384010Y-131116589D01*
X115340000Y-131222839D01*
X115295990Y-131116589D01*
X115133475Y-130873368D01*
X114926632Y-130666525D01*
X114752240Y-130550000D01*
X114926632Y-130433475D01*
X115133475Y-130226632D01*
X115295990Y-129983411D01*
X115340000Y-129877161D01*
X115384010Y-129983411D01*
G37*
%TD.AperFunction*%
D17*
X123184010Y-129983411D02*
X123346525Y-130226632D01*
X123553368Y-130433475D01*
X123727760Y-130550000D01*
X123553368Y-130666525D01*
X123346525Y-130873368D01*
X123184010Y-131116589D01*
X123140000Y-131222839D01*
X123095990Y-131116589D01*
X122933475Y-130873368D01*
X122726632Y-130666525D01*
X122552240Y-130550000D01*
X122726632Y-130433475D01*
X122933475Y-130226632D01*
X123095990Y-129983411D01*
X123140000Y-129877161D01*
X123184010Y-129983411D01*
%TA.AperFunction,NonConductor*%
D18*
G36*
X123184010Y-129983411D02*
G01*
X123346525Y-130226632D01*
X123553368Y-130433475D01*
X123727760Y-130550000D01*
X123553368Y-130666525D01*
X123346525Y-130873368D01*
X123184010Y-131116589D01*
X123140000Y-131222839D01*
X123095990Y-131116589D01*
X122933475Y-130873368D01*
X122726632Y-130666525D01*
X122552240Y-130550000D01*
X122726632Y-130433475D01*
X122933475Y-130226632D01*
X123095990Y-129983411D01*
X123140000Y-129877161D01*
X123184010Y-129983411D01*
G37*
%TD.AperFunction*%
D17*
X130984010Y-129983411D02*
X131146525Y-130226632D01*
X131353368Y-130433475D01*
X131527760Y-130550000D01*
X131353368Y-130666525D01*
X131146525Y-130873368D01*
X130984010Y-131116589D01*
X130940000Y-131222839D01*
X130895990Y-131116589D01*
X130733475Y-130873368D01*
X130526632Y-130666525D01*
X130352240Y-130550000D01*
X130526632Y-130433475D01*
X130733475Y-130226632D01*
X130895990Y-129983411D01*
X130940000Y-129877161D01*
X130984010Y-129983411D01*
%TA.AperFunction,NonConductor*%
D18*
G36*
X130984010Y-129983411D02*
G01*
X131146525Y-130226632D01*
X131353368Y-130433475D01*
X131527760Y-130550000D01*
X131353368Y-130666525D01*
X131146525Y-130873368D01*
X130984010Y-131116589D01*
X130940000Y-131222839D01*
X130895990Y-131116589D01*
X130733475Y-130873368D01*
X130526632Y-130666525D01*
X130352240Y-130550000D01*
X130526632Y-130433475D01*
X130733475Y-130226632D01*
X130895990Y-129983411D01*
X130940000Y-129877161D01*
X130984010Y-129983411D01*
G37*
%TD.AperFunction*%
D17*
X106183012Y-130488800D02*
X105294330Y-130488800D01*
X105270472Y-130410149D01*
X105188405Y-130256613D01*
X105077962Y-130122038D01*
X105020646Y-130075000D01*
X105077962Y-130027962D01*
X105188405Y-129893387D01*
X105270472Y-129739851D01*
X105294330Y-129661200D01*
X105355413Y-129661200D01*
X106183012Y-130488800D01*
%TA.AperFunction,NonConductor*%
D18*
G36*
X106183012Y-130488800D02*
G01*
X105294330Y-130488800D01*
X105270472Y-130410149D01*
X105188405Y-130256613D01*
X105077962Y-130122038D01*
X105020646Y-130075000D01*
X105077962Y-130027962D01*
X105188405Y-129893387D01*
X105270472Y-129739851D01*
X105294330Y-129661200D01*
X105355413Y-129661200D01*
X106183012Y-130488800D01*
G37*
%TD.AperFunction*%
D17*
X103122038Y-130027962D02*
X103179354Y-130075000D01*
X103122038Y-130122038D01*
X103100000Y-130148891D01*
X103077962Y-130122038D01*
X103020646Y-130075000D01*
X103077962Y-130027962D01*
X103100000Y-130001109D01*
X103122038Y-130027962D01*
%TA.AperFunction,NonConductor*%
D18*
G36*
X103122038Y-130027962D02*
G01*
X103179354Y-130075000D01*
X103122038Y-130122038D01*
X103100000Y-130148891D01*
X103077962Y-130122038D01*
X103020646Y-130075000D01*
X103077962Y-130027962D01*
X103100000Y-130001109D01*
X103122038Y-130027962D01*
G37*
%TD.AperFunction*%
D17*
X106722100Y-128227888D02*
X106722100Y-128296315D01*
X106759680Y-128485243D01*
X106833396Y-128663210D01*
X106940415Y-128823375D01*
X107076625Y-128959585D01*
X107236790Y-129066604D01*
X107414757Y-129140320D01*
X107415000Y-129140368D01*
X107415000Y-129426260D01*
X107472068Y-129713158D01*
X107475772Y-129722100D01*
X107427888Y-129722100D01*
X106177602Y-128471815D01*
X106155327Y-128444673D01*
X106047033Y-128355798D01*
X105923481Y-128289758D01*
X105789420Y-128249091D01*
X105684936Y-128238800D01*
X105684926Y-128238800D01*
X105650000Y-128235360D01*
X105615074Y-128238800D01*
X105294330Y-128238800D01*
X105270472Y-128160149D01*
X105188405Y-128006613D01*
X105077962Y-127872038D01*
X105020646Y-127825000D01*
X105077962Y-127777962D01*
X105188405Y-127643387D01*
X105270472Y-127489851D01*
X105294330Y-127411200D01*
X105905413Y-127411200D01*
X106722100Y-128227888D01*
%TA.AperFunction,NonConductor*%
D18*
G36*
X106722100Y-128227888D02*
G01*
X106722100Y-128296315D01*
X106759680Y-128485243D01*
X106833396Y-128663210D01*
X106940415Y-128823375D01*
X107076625Y-128959585D01*
X107236790Y-129066604D01*
X107414757Y-129140320D01*
X107415000Y-129140368D01*
X107415000Y-129426260D01*
X107472068Y-129713158D01*
X107475772Y-129722100D01*
X107427888Y-129722100D01*
X106177602Y-128471815D01*
X106155327Y-128444673D01*
X106047033Y-128355798D01*
X105923481Y-128289758D01*
X105789420Y-128249091D01*
X105684936Y-128238800D01*
X105684926Y-128238800D01*
X105650000Y-128235360D01*
X105615074Y-128238800D01*
X105294330Y-128238800D01*
X105270472Y-128160149D01*
X105188405Y-128006613D01*
X105077962Y-127872038D01*
X105020646Y-127825000D01*
X105077962Y-127777962D01*
X105188405Y-127643387D01*
X105270472Y-127489851D01*
X105294330Y-127411200D01*
X105905413Y-127411200D01*
X106722100Y-128227888D01*
G37*
%TD.AperFunction*%
D17*
X95411193Y-125298170D02*
X95562500Y-125313072D01*
X95837500Y-125313072D01*
X95988807Y-125298170D01*
X96007501Y-125292499D01*
X96001830Y-125311193D01*
X95986928Y-125462500D01*
X95986928Y-125737500D01*
X96001830Y-125888807D01*
X96035560Y-126000000D01*
X96001830Y-126111193D01*
X95986928Y-126262500D01*
X95986928Y-126537500D01*
X96001830Y-126688807D01*
X96035560Y-126800000D01*
X96001830Y-126911193D01*
X95986928Y-127062500D01*
X95986928Y-127337500D01*
X96001830Y-127488807D01*
X96035560Y-127600000D01*
X96001830Y-127711193D01*
X95986928Y-127862500D01*
X95986928Y-128137500D01*
X96001830Y-128288807D01*
X96035560Y-128400000D01*
X96001830Y-128511193D01*
X95986928Y-128662500D01*
X95986928Y-128838000D01*
X92986740Y-128838000D01*
X92985243Y-128837380D01*
X92796315Y-128799800D01*
X92603685Y-128799800D01*
X92414757Y-128837380D01*
X92236790Y-128911096D01*
X92076625Y-129018115D01*
X91940415Y-129154325D01*
X91896972Y-129219342D01*
X91477630Y-128800000D01*
X93012352Y-127265279D01*
X93041422Y-127241422D01*
X93136645Y-127125392D01*
X93207402Y-126993015D01*
X93250974Y-126849378D01*
X93262000Y-126737426D01*
X93262000Y-126737417D01*
X93265685Y-126700001D01*
X93262000Y-126662585D01*
X93262000Y-125313072D01*
X93437500Y-125313072D01*
X93588807Y-125298170D01*
X93700000Y-125264440D01*
X93811193Y-125298170D01*
X93962500Y-125313072D01*
X94237500Y-125313072D01*
X94388807Y-125298170D01*
X94500000Y-125264440D01*
X94611193Y-125298170D01*
X94762500Y-125313072D01*
X95037500Y-125313072D01*
X95188807Y-125298170D01*
X95300000Y-125264440D01*
X95411193Y-125298170D01*
%TA.AperFunction,NonConductor*%
D18*
G36*
X95411193Y-125298170D02*
G01*
X95562500Y-125313072D01*
X95837500Y-125313072D01*
X95988807Y-125298170D01*
X96007501Y-125292499D01*
X96001830Y-125311193D01*
X95986928Y-125462500D01*
X95986928Y-125737500D01*
X96001830Y-125888807D01*
X96035560Y-126000000D01*
X96001830Y-126111193D01*
X95986928Y-126262500D01*
X95986928Y-126537500D01*
X96001830Y-126688807D01*
X96035560Y-126800000D01*
X96001830Y-126911193D01*
X95986928Y-127062500D01*
X95986928Y-127337500D01*
X96001830Y-127488807D01*
X96035560Y-127600000D01*
X96001830Y-127711193D01*
X95986928Y-127862500D01*
X95986928Y-128137500D01*
X96001830Y-128288807D01*
X96035560Y-128400000D01*
X96001830Y-128511193D01*
X95986928Y-128662500D01*
X95986928Y-128838000D01*
X92986740Y-128838000D01*
X92985243Y-128837380D01*
X92796315Y-128799800D01*
X92603685Y-128799800D01*
X92414757Y-128837380D01*
X92236790Y-128911096D01*
X92076625Y-129018115D01*
X91940415Y-129154325D01*
X91896972Y-129219342D01*
X91477630Y-128800000D01*
X93012352Y-127265279D01*
X93041422Y-127241422D01*
X93136645Y-127125392D01*
X93207402Y-126993015D01*
X93250974Y-126849378D01*
X93262000Y-126737426D01*
X93262000Y-126737417D01*
X93265685Y-126700001D01*
X93262000Y-126662585D01*
X93262000Y-125313072D01*
X93437500Y-125313072D01*
X93588807Y-125298170D01*
X93700000Y-125264440D01*
X93811193Y-125298170D01*
X93962500Y-125313072D01*
X94237500Y-125313072D01*
X94388807Y-125298170D01*
X94500000Y-125264440D01*
X94611193Y-125298170D01*
X94762500Y-125313072D01*
X95037500Y-125313072D01*
X95188807Y-125298170D01*
X95300000Y-125264440D01*
X95411193Y-125298170D01*
G37*
%TD.AperFunction*%
D17*
X77427760Y-129110000D02*
X77416010Y-129117851D01*
X77416010Y-129102149D01*
X77427760Y-129110000D01*
%TA.AperFunction,NonConductor*%
D18*
G36*
X77427760Y-129110000D02*
G01*
X77416010Y-129117851D01*
X77416010Y-129102149D01*
X77427760Y-129110000D01*
G37*
%TD.AperFunction*%
D17*
X130984010Y-127443411D02*
X131146525Y-127686632D01*
X131353368Y-127893475D01*
X131527760Y-128010000D01*
X131353368Y-128126525D01*
X131146525Y-128333368D01*
X130984010Y-128576589D01*
X130940000Y-128682839D01*
X130895990Y-128576589D01*
X130733475Y-128333368D01*
X130526632Y-128126525D01*
X130352240Y-128010000D01*
X130526632Y-127893475D01*
X130733475Y-127686632D01*
X130895990Y-127443411D01*
X130940000Y-127337161D01*
X130984010Y-127443411D01*
%TA.AperFunction,NonConductor*%
D18*
G36*
X130984010Y-127443411D02*
G01*
X131146525Y-127686632D01*
X131353368Y-127893475D01*
X131527760Y-128010000D01*
X131353368Y-128126525D01*
X131146525Y-128333368D01*
X130984010Y-128576589D01*
X130940000Y-128682839D01*
X130895990Y-128576589D01*
X130733475Y-128333368D01*
X130526632Y-128126525D01*
X130352240Y-128010000D01*
X130526632Y-127893475D01*
X130733475Y-127686632D01*
X130895990Y-127443411D01*
X130940000Y-127337161D01*
X130984010Y-127443411D01*
G37*
%TD.AperFunction*%
D17*
X115384010Y-127443411D02*
X115546525Y-127686632D01*
X115753368Y-127893475D01*
X115927760Y-128010000D01*
X115753368Y-128126525D01*
X115546525Y-128333368D01*
X115384010Y-128576589D01*
X115340000Y-128682839D01*
X115295990Y-128576589D01*
X115133475Y-128333368D01*
X114926632Y-128126525D01*
X114752240Y-128010000D01*
X114926632Y-127893475D01*
X115133475Y-127686632D01*
X115295990Y-127443411D01*
X115340000Y-127337161D01*
X115384010Y-127443411D01*
%TA.AperFunction,NonConductor*%
D18*
G36*
X115384010Y-127443411D02*
G01*
X115546525Y-127686632D01*
X115753368Y-127893475D01*
X115927760Y-128010000D01*
X115753368Y-128126525D01*
X115546525Y-128333368D01*
X115384010Y-128576589D01*
X115340000Y-128682839D01*
X115295990Y-128576589D01*
X115133475Y-128333368D01*
X114926632Y-128126525D01*
X114752240Y-128010000D01*
X114926632Y-127893475D01*
X115133475Y-127686632D01*
X115295990Y-127443411D01*
X115340000Y-127337161D01*
X115384010Y-127443411D01*
G37*
%TD.AperFunction*%
D17*
X123184010Y-127443411D02*
X123346525Y-127686632D01*
X123553368Y-127893475D01*
X123727760Y-128010000D01*
X123553368Y-128126525D01*
X123346525Y-128333368D01*
X123184010Y-128576589D01*
X123140000Y-128682839D01*
X123095990Y-128576589D01*
X122933475Y-128333368D01*
X122726632Y-128126525D01*
X122552240Y-128010000D01*
X122726632Y-127893475D01*
X122933475Y-127686632D01*
X123095990Y-127443411D01*
X123140000Y-127337161D01*
X123184010Y-127443411D01*
%TA.AperFunction,NonConductor*%
D18*
G36*
X123184010Y-127443411D02*
G01*
X123346525Y-127686632D01*
X123553368Y-127893475D01*
X123727760Y-128010000D01*
X123553368Y-128126525D01*
X123346525Y-128333368D01*
X123184010Y-128576589D01*
X123140000Y-128682839D01*
X123095990Y-128576589D01*
X122933475Y-128333368D01*
X122726632Y-128126525D01*
X122552240Y-128010000D01*
X122726632Y-127893475D01*
X122933475Y-127686632D01*
X123095990Y-127443411D01*
X123140000Y-127337161D01*
X123184010Y-127443411D01*
G37*
%TD.AperFunction*%
D17*
X90611193Y-125298170D02*
X90762500Y-125313072D01*
X90938000Y-125313072D01*
X90938001Y-126609618D01*
X90408574Y-127139046D01*
X90317432Y-127120917D01*
X90124802Y-127120917D01*
X89935874Y-127158497D01*
X89757907Y-127232213D01*
X89597742Y-127339232D01*
X89461532Y-127475442D01*
X89354513Y-127635607D01*
X89280797Y-127813574D01*
X89243217Y-128002502D01*
X89243217Y-128038000D01*
X87413072Y-128038000D01*
X87413072Y-127862500D01*
X87398170Y-127711193D01*
X87364440Y-127600000D01*
X87398170Y-127488807D01*
X87413072Y-127337500D01*
X87413072Y-127062500D01*
X87398170Y-126911193D01*
X87364440Y-126800000D01*
X87398170Y-126688807D01*
X87413072Y-126537500D01*
X87413072Y-126262500D01*
X87398170Y-126111193D01*
X87364440Y-126000000D01*
X87398170Y-125888807D01*
X87413072Y-125737500D01*
X87413072Y-125462500D01*
X87398170Y-125311193D01*
X87392499Y-125292499D01*
X87411193Y-125298170D01*
X87562500Y-125313072D01*
X87837500Y-125313072D01*
X87988807Y-125298170D01*
X88100000Y-125264440D01*
X88211193Y-125298170D01*
X88362500Y-125313072D01*
X88637500Y-125313072D01*
X88788807Y-125298170D01*
X88900000Y-125264440D01*
X89011193Y-125298170D01*
X89162500Y-125313072D01*
X89437500Y-125313072D01*
X89588807Y-125298170D01*
X89700000Y-125264440D01*
X89811193Y-125298170D01*
X89962500Y-125313072D01*
X90237500Y-125313072D01*
X90388807Y-125298170D01*
X90500000Y-125264440D01*
X90611193Y-125298170D01*
%TA.AperFunction,NonConductor*%
D18*
G36*
X90611193Y-125298170D02*
G01*
X90762500Y-125313072D01*
X90938000Y-125313072D01*
X90938001Y-126609618D01*
X90408574Y-127139046D01*
X90317432Y-127120917D01*
X90124802Y-127120917D01*
X89935874Y-127158497D01*
X89757907Y-127232213D01*
X89597742Y-127339232D01*
X89461532Y-127475442D01*
X89354513Y-127635607D01*
X89280797Y-127813574D01*
X89243217Y-128002502D01*
X89243217Y-128038000D01*
X87413072Y-128038000D01*
X87413072Y-127862500D01*
X87398170Y-127711193D01*
X87364440Y-127600000D01*
X87398170Y-127488807D01*
X87413072Y-127337500D01*
X87413072Y-127062500D01*
X87398170Y-126911193D01*
X87364440Y-126800000D01*
X87398170Y-126688807D01*
X87413072Y-126537500D01*
X87413072Y-126262500D01*
X87398170Y-126111193D01*
X87364440Y-126000000D01*
X87398170Y-125888807D01*
X87413072Y-125737500D01*
X87413072Y-125462500D01*
X87398170Y-125311193D01*
X87392499Y-125292499D01*
X87411193Y-125298170D01*
X87562500Y-125313072D01*
X87837500Y-125313072D01*
X87988807Y-125298170D01*
X88100000Y-125264440D01*
X88211193Y-125298170D01*
X88362500Y-125313072D01*
X88637500Y-125313072D01*
X88788807Y-125298170D01*
X88900000Y-125264440D01*
X89011193Y-125298170D01*
X89162500Y-125313072D01*
X89437500Y-125313072D01*
X89588807Y-125298170D01*
X89700000Y-125264440D01*
X89811193Y-125298170D01*
X89962500Y-125313072D01*
X90237500Y-125313072D01*
X90388807Y-125298170D01*
X90500000Y-125264440D01*
X90611193Y-125298170D01*
G37*
%TD.AperFunction*%
D17*
X103122038Y-127777962D02*
X103179354Y-127825000D01*
X103122038Y-127872038D01*
X103100000Y-127898891D01*
X103077962Y-127872038D01*
X103020646Y-127825000D01*
X103077962Y-127777962D01*
X103100000Y-127751109D01*
X103122038Y-127777962D01*
%TA.AperFunction,NonConductor*%
D18*
G36*
X103122038Y-127777962D02*
G01*
X103179354Y-127825000D01*
X103122038Y-127872038D01*
X103100000Y-127898891D01*
X103077962Y-127872038D01*
X103020646Y-127825000D01*
X103077962Y-127777962D01*
X103100000Y-127751109D01*
X103122038Y-127777962D01*
G37*
%TD.AperFunction*%
D17*
X83933396Y-126736790D02*
X83859680Y-126914757D01*
X83848515Y-126970885D01*
X83690284Y-126812654D01*
X83666422Y-126783578D01*
X83550392Y-126688355D01*
X83496897Y-126659762D01*
X83483626Y-126616010D01*
X84014099Y-126616010D01*
X83933396Y-126736790D01*
%TA.AperFunction,NonConductor*%
D18*
G36*
X83933396Y-126736790D02*
G01*
X83859680Y-126914757D01*
X83848515Y-126970885D01*
X83690284Y-126812654D01*
X83666422Y-126783578D01*
X83550392Y-126688355D01*
X83496897Y-126659762D01*
X83483626Y-126616010D01*
X84014099Y-126616010D01*
X83933396Y-126736790D01*
G37*
%TD.AperFunction*%
D17*
X109411928Y-118650000D02*
X109424188Y-118774482D01*
X109460498Y-118894180D01*
X109519463Y-119004494D01*
X109598815Y-119101185D01*
X109695506Y-119180537D01*
X109731918Y-119200000D01*
X109695506Y-119219463D01*
X109598815Y-119298815D01*
X109525623Y-119388000D01*
X109140043Y-119388000D01*
X109102620Y-119384314D01*
X109065197Y-119388000D01*
X109065194Y-119388000D01*
X108953242Y-119399026D01*
X108809605Y-119442598D01*
X108773441Y-119461928D01*
X108677227Y-119513355D01*
X108657521Y-119529528D01*
X108561198Y-119608578D01*
X108537336Y-119637654D01*
X107375732Y-120799258D01*
X107191067Y-120835990D01*
X107013100Y-120909706D01*
X106852935Y-121016725D01*
X106716725Y-121152935D01*
X106609706Y-121313100D01*
X106535990Y-121491067D01*
X106498410Y-121679995D01*
X106498410Y-121872625D01*
X106535990Y-122061553D01*
X106609706Y-122239520D01*
X106716725Y-122399685D01*
X106852935Y-122535895D01*
X107013100Y-122642914D01*
X107191067Y-122716630D01*
X107379995Y-122754210D01*
X107572625Y-122754210D01*
X107761553Y-122716630D01*
X107939520Y-122642914D01*
X108099685Y-122535895D01*
X108235895Y-122399685D01*
X108342914Y-122239520D01*
X108416630Y-122061553D01*
X108453362Y-121876888D01*
X109418250Y-120912000D01*
X109525623Y-120912000D01*
X109598815Y-121001185D01*
X109695506Y-121080537D01*
X109805820Y-121139502D01*
X109925518Y-121175812D01*
X110050000Y-121188072D01*
X110744495Y-121188072D01*
X109220639Y-122711928D01*
X108050000Y-122711928D01*
X107925518Y-122724188D01*
X107805820Y-122760498D01*
X107695506Y-122819463D01*
X107598815Y-122898815D01*
X107519463Y-122995506D01*
X107460498Y-123105820D01*
X107424188Y-123225518D01*
X107411928Y-123350000D01*
X107411928Y-125050000D01*
X107424188Y-125174482D01*
X107460498Y-125294180D01*
X107519463Y-125404494D01*
X107598815Y-125501185D01*
X107695506Y-125580537D01*
X107805820Y-125639502D01*
X107878380Y-125661513D01*
X107746525Y-125793368D01*
X107584010Y-126036589D01*
X107472068Y-126306842D01*
X107415000Y-126593740D01*
X107415000Y-126886260D01*
X107420699Y-126914911D01*
X106727602Y-126221814D01*
X106705327Y-126194673D01*
X106597033Y-126105798D01*
X106473481Y-126039758D01*
X106339420Y-125999091D01*
X106234936Y-125988800D01*
X106234926Y-125988800D01*
X106200000Y-125985360D01*
X106165074Y-125988800D01*
X105294330Y-125988800D01*
X105270472Y-125910149D01*
X105188405Y-125756613D01*
X105077962Y-125622038D01*
X105020646Y-125575000D01*
X105077962Y-125527962D01*
X105144958Y-125446327D01*
X105303685Y-125477900D01*
X105496315Y-125477900D01*
X105685243Y-125440320D01*
X105863210Y-125366604D01*
X106023375Y-125259585D01*
X106159585Y-125123375D01*
X106266604Y-124963210D01*
X106340320Y-124785243D01*
X106377900Y-124596315D01*
X106377900Y-124403685D01*
X106340320Y-124214757D01*
X106266604Y-124036790D01*
X106159585Y-123876625D01*
X106023375Y-123740415D01*
X105863210Y-123633396D01*
X105685243Y-123559680D01*
X105496315Y-123522100D01*
X105303685Y-123522100D01*
X105206966Y-123541338D01*
X105188405Y-123506613D01*
X105077962Y-123372038D01*
X105020646Y-123325000D01*
X105077962Y-123277962D01*
X105104816Y-123245240D01*
X105136790Y-123266604D01*
X105314757Y-123340320D01*
X105503685Y-123377900D01*
X105696315Y-123377900D01*
X105885243Y-123340320D01*
X106063210Y-123266604D01*
X106223375Y-123159585D01*
X106359585Y-123023375D01*
X106466604Y-122863210D01*
X106540320Y-122685243D01*
X106577900Y-122496315D01*
X106577900Y-122303685D01*
X106540320Y-122114757D01*
X106466604Y-121936790D01*
X106359585Y-121776625D01*
X106223375Y-121640415D01*
X106063210Y-121533396D01*
X105885243Y-121459680D01*
X105696315Y-121422100D01*
X105503685Y-121422100D01*
X105314757Y-121459680D01*
X105288763Y-121470447D01*
X105270472Y-121410149D01*
X105188405Y-121256613D01*
X105077962Y-121122038D01*
X104943387Y-121011595D01*
X104789851Y-120929528D01*
X104623255Y-120878992D01*
X104450001Y-120861928D01*
X103749999Y-120861928D01*
X103576745Y-120878992D01*
X103410149Y-120929528D01*
X103256613Y-121011595D01*
X103122038Y-121122038D01*
X103100000Y-121148891D01*
X103077962Y-121122038D01*
X102943387Y-121011595D01*
X102789851Y-120929528D01*
X102623255Y-120878992D01*
X102450001Y-120861928D01*
X101749999Y-120861928D01*
X101576745Y-120878992D01*
X101410149Y-120929528D01*
X101256613Y-121011595D01*
X101122038Y-121122038D01*
X101011595Y-121256613D01*
X100929528Y-121410149D01*
X100905670Y-121488800D01*
X98717582Y-121488800D01*
X98770472Y-121389851D01*
X98821008Y-121223255D01*
X98838072Y-121050001D01*
X98838072Y-120349999D01*
X98821008Y-120176745D01*
X98770472Y-120010149D01*
X98688405Y-119856613D01*
X98577962Y-119722038D01*
X98551109Y-119700000D01*
X98577962Y-119677962D01*
X98688405Y-119543387D01*
X98770472Y-119389851D01*
X98821008Y-119223255D01*
X98838072Y-119050001D01*
X98838072Y-118516010D01*
X109411928Y-118516010D01*
X109411928Y-118650000D01*
%TA.AperFunction,NonConductor*%
D18*
G36*
X109411928Y-118650000D02*
G01*
X109424188Y-118774482D01*
X109460498Y-118894180D01*
X109519463Y-119004494D01*
X109598815Y-119101185D01*
X109695506Y-119180537D01*
X109731918Y-119200000D01*
X109695506Y-119219463D01*
X109598815Y-119298815D01*
X109525623Y-119388000D01*
X109140043Y-119388000D01*
X109102620Y-119384314D01*
X109065197Y-119388000D01*
X109065194Y-119388000D01*
X108953242Y-119399026D01*
X108809605Y-119442598D01*
X108773441Y-119461928D01*
X108677227Y-119513355D01*
X108657521Y-119529528D01*
X108561198Y-119608578D01*
X108537336Y-119637654D01*
X107375732Y-120799258D01*
X107191067Y-120835990D01*
X107013100Y-120909706D01*
X106852935Y-121016725D01*
X106716725Y-121152935D01*
X106609706Y-121313100D01*
X106535990Y-121491067D01*
X106498410Y-121679995D01*
X106498410Y-121872625D01*
X106535990Y-122061553D01*
X106609706Y-122239520D01*
X106716725Y-122399685D01*
X106852935Y-122535895D01*
X107013100Y-122642914D01*
X107191067Y-122716630D01*
X107379995Y-122754210D01*
X107572625Y-122754210D01*
X107761553Y-122716630D01*
X107939520Y-122642914D01*
X108099685Y-122535895D01*
X108235895Y-122399685D01*
X108342914Y-122239520D01*
X108416630Y-122061553D01*
X108453362Y-121876888D01*
X109418250Y-120912000D01*
X109525623Y-120912000D01*
X109598815Y-121001185D01*
X109695506Y-121080537D01*
X109805820Y-121139502D01*
X109925518Y-121175812D01*
X110050000Y-121188072D01*
X110744495Y-121188072D01*
X109220639Y-122711928D01*
X108050000Y-122711928D01*
X107925518Y-122724188D01*
X107805820Y-122760498D01*
X107695506Y-122819463D01*
X107598815Y-122898815D01*
X107519463Y-122995506D01*
X107460498Y-123105820D01*
X107424188Y-123225518D01*
X107411928Y-123350000D01*
X107411928Y-125050000D01*
X107424188Y-125174482D01*
X107460498Y-125294180D01*
X107519463Y-125404494D01*
X107598815Y-125501185D01*
X107695506Y-125580537D01*
X107805820Y-125639502D01*
X107878380Y-125661513D01*
X107746525Y-125793368D01*
X107584010Y-126036589D01*
X107472068Y-126306842D01*
X107415000Y-126593740D01*
X107415000Y-126886260D01*
X107420699Y-126914911D01*
X106727602Y-126221814D01*
X106705327Y-126194673D01*
X106597033Y-126105798D01*
X106473481Y-126039758D01*
X106339420Y-125999091D01*
X106234936Y-125988800D01*
X106234926Y-125988800D01*
X106200000Y-125985360D01*
X106165074Y-125988800D01*
X105294330Y-125988800D01*
X105270472Y-125910149D01*
X105188405Y-125756613D01*
X105077962Y-125622038D01*
X105020646Y-125575000D01*
X105077962Y-125527962D01*
X105144958Y-125446327D01*
X105303685Y-125477900D01*
X105496315Y-125477900D01*
X105685243Y-125440320D01*
X105863210Y-125366604D01*
X106023375Y-125259585D01*
X106159585Y-125123375D01*
X106266604Y-124963210D01*
X106340320Y-124785243D01*
X106377900Y-124596315D01*
X106377900Y-124403685D01*
X106340320Y-124214757D01*
X106266604Y-124036790D01*
X106159585Y-123876625D01*
X106023375Y-123740415D01*
X105863210Y-123633396D01*
X105685243Y-123559680D01*
X105496315Y-123522100D01*
X105303685Y-123522100D01*
X105206966Y-123541338D01*
X105188405Y-123506613D01*
X105077962Y-123372038D01*
X105020646Y-123325000D01*
X105077962Y-123277962D01*
X105104816Y-123245240D01*
X105136790Y-123266604D01*
X105314757Y-123340320D01*
X105503685Y-123377900D01*
X105696315Y-123377900D01*
X105885243Y-123340320D01*
X106063210Y-123266604D01*
X106223375Y-123159585D01*
X106359585Y-123023375D01*
X106466604Y-122863210D01*
X106540320Y-122685243D01*
X106577900Y-122496315D01*
X106577900Y-122303685D01*
X106540320Y-122114757D01*
X106466604Y-121936790D01*
X106359585Y-121776625D01*
X106223375Y-121640415D01*
X106063210Y-121533396D01*
X105885243Y-121459680D01*
X105696315Y-121422100D01*
X105503685Y-121422100D01*
X105314757Y-121459680D01*
X105288763Y-121470447D01*
X105270472Y-121410149D01*
X105188405Y-121256613D01*
X105077962Y-121122038D01*
X104943387Y-121011595D01*
X104789851Y-120929528D01*
X104623255Y-120878992D01*
X104450001Y-120861928D01*
X103749999Y-120861928D01*
X103576745Y-120878992D01*
X103410149Y-120929528D01*
X103256613Y-121011595D01*
X103122038Y-121122038D01*
X103100000Y-121148891D01*
X103077962Y-121122038D01*
X102943387Y-121011595D01*
X102789851Y-120929528D01*
X102623255Y-120878992D01*
X102450001Y-120861928D01*
X101749999Y-120861928D01*
X101576745Y-120878992D01*
X101410149Y-120929528D01*
X101256613Y-121011595D01*
X101122038Y-121122038D01*
X101011595Y-121256613D01*
X100929528Y-121410149D01*
X100905670Y-121488800D01*
X98717582Y-121488800D01*
X98770472Y-121389851D01*
X98821008Y-121223255D01*
X98838072Y-121050001D01*
X98838072Y-120349999D01*
X98821008Y-120176745D01*
X98770472Y-120010149D01*
X98688405Y-119856613D01*
X98577962Y-119722038D01*
X98551109Y-119700000D01*
X98577962Y-119677962D01*
X98688405Y-119543387D01*
X98770472Y-119389851D01*
X98821008Y-119223255D01*
X98838072Y-119050001D01*
X98838072Y-118516010D01*
X109411928Y-118516010D01*
X109411928Y-118650000D01*
G37*
%TD.AperFunction*%
D17*
X130998815Y-125501185D02*
X131095506Y-125580537D01*
X131205820Y-125639502D01*
X131278380Y-125661513D01*
X131146525Y-125793368D01*
X130984010Y-126036589D01*
X130940000Y-126142839D01*
X130895990Y-126036589D01*
X130733475Y-125793368D01*
X130601620Y-125661513D01*
X130674180Y-125639502D01*
X130784494Y-125580537D01*
X130881185Y-125501185D01*
X130940000Y-125429518D01*
X130998815Y-125501185D01*
%TA.AperFunction,NonConductor*%
D18*
G36*
X130998815Y-125501185D02*
G01*
X131095506Y-125580537D01*
X131205820Y-125639502D01*
X131278380Y-125661513D01*
X131146525Y-125793368D01*
X130984010Y-126036589D01*
X130940000Y-126142839D01*
X130895990Y-126036589D01*
X130733475Y-125793368D01*
X130601620Y-125661513D01*
X130674180Y-125639502D01*
X130784494Y-125580537D01*
X130881185Y-125501185D01*
X130940000Y-125429518D01*
X130998815Y-125501185D01*
G37*
%TD.AperFunction*%
D17*
X123198815Y-125501185D02*
X123295506Y-125580537D01*
X123405820Y-125639502D01*
X123478380Y-125661513D01*
X123346525Y-125793368D01*
X123184010Y-126036589D01*
X123140000Y-126142839D01*
X123095990Y-126036589D01*
X122933475Y-125793368D01*
X122801620Y-125661513D01*
X122874180Y-125639502D01*
X122984494Y-125580537D01*
X123081185Y-125501185D01*
X123140000Y-125429518D01*
X123198815Y-125501185D01*
%TA.AperFunction,NonConductor*%
D18*
G36*
X123198815Y-125501185D02*
G01*
X123295506Y-125580537D01*
X123405820Y-125639502D01*
X123478380Y-125661513D01*
X123346525Y-125793368D01*
X123184010Y-126036589D01*
X123140000Y-126142839D01*
X123095990Y-126036589D01*
X122933475Y-125793368D01*
X122801620Y-125661513D01*
X122874180Y-125639502D01*
X122984494Y-125580537D01*
X123081185Y-125501185D01*
X123140000Y-125429518D01*
X123198815Y-125501185D01*
G37*
%TD.AperFunction*%
D17*
X115398815Y-125501185D02*
X115495506Y-125580537D01*
X115605820Y-125639502D01*
X115678380Y-125661513D01*
X115546525Y-125793368D01*
X115384010Y-126036589D01*
X115340000Y-126142839D01*
X115295990Y-126036589D01*
X115133475Y-125793368D01*
X115001620Y-125661513D01*
X115074180Y-125639502D01*
X115184494Y-125580537D01*
X115281185Y-125501185D01*
X115340000Y-125429518D01*
X115398815Y-125501185D01*
%TA.AperFunction,NonConductor*%
D18*
G36*
X115398815Y-125501185D02*
G01*
X115495506Y-125580537D01*
X115605820Y-125639502D01*
X115678380Y-125661513D01*
X115546525Y-125793368D01*
X115384010Y-126036589D01*
X115340000Y-126142839D01*
X115295990Y-126036589D01*
X115133475Y-125793368D01*
X115001620Y-125661513D01*
X115074180Y-125639502D01*
X115184494Y-125580537D01*
X115281185Y-125501185D01*
X115340000Y-125429518D01*
X115398815Y-125501185D01*
G37*
%TD.AperFunction*%
D17*
X86229528Y-118010149D02*
X86178992Y-118176745D01*
X86161928Y-118349999D01*
X86161928Y-119050001D01*
X86178992Y-119223255D01*
X86229528Y-119389851D01*
X86311595Y-119543387D01*
X86422038Y-119677962D01*
X86448891Y-119700000D01*
X86422038Y-119722038D01*
X86311595Y-119856613D01*
X86229528Y-120010149D01*
X86178992Y-120176745D01*
X86161928Y-120349999D01*
X86161928Y-121050001D01*
X86178992Y-121223255D01*
X86229528Y-121389851D01*
X86311595Y-121543387D01*
X86422038Y-121677962D01*
X86556613Y-121788405D01*
X86710149Y-121870472D01*
X86876745Y-121921008D01*
X87049999Y-121938072D01*
X87732284Y-121938072D01*
X87788801Y-121994589D01*
X87788801Y-122561928D01*
X87562500Y-122561928D01*
X87411193Y-122576830D01*
X87265701Y-122620965D01*
X87131615Y-122692635D01*
X87014088Y-122789088D01*
X86917635Y-122906615D01*
X86845965Y-123040701D01*
X86801830Y-123186193D01*
X86786928Y-123337500D01*
X86786928Y-123349244D01*
X86763210Y-123333396D01*
X86585243Y-123259680D01*
X86396315Y-123222100D01*
X86203685Y-123222100D01*
X86014757Y-123259680D01*
X85836790Y-123333396D01*
X85680239Y-123438000D01*
X83465315Y-123438000D01*
X83388405Y-123294113D01*
X83277962Y-123159538D01*
X83143387Y-123049095D01*
X82989852Y-122967028D01*
X82823256Y-122916492D01*
X82650002Y-122899428D01*
X81349998Y-122899428D01*
X81176744Y-122916492D01*
X81010148Y-122967028D01*
X80856613Y-123049095D01*
X80722038Y-123159538D01*
X80611595Y-123294113D01*
X80534685Y-123438000D01*
X79337423Y-123438000D01*
X79300000Y-123434314D01*
X79262577Y-123438000D01*
X79262574Y-123438000D01*
X79150622Y-123449026D01*
X79006985Y-123492598D01*
X78962694Y-123516272D01*
X78874607Y-123563355D01*
X78812599Y-123614244D01*
X78758578Y-123658578D01*
X78734721Y-123687648D01*
X78610441Y-123811928D01*
X77350000Y-123811928D01*
X77225518Y-123824188D01*
X77105820Y-123860498D01*
X76995506Y-123919463D01*
X76898815Y-123998815D01*
X76819463Y-124095506D01*
X76760498Y-124205820D01*
X76724188Y-124325518D01*
X76711928Y-124450000D01*
X76711928Y-125737596D01*
X76660000Y-125765352D01*
X76660000Y-117860000D01*
X86309785Y-117860000D01*
X86229528Y-118010149D01*
%TA.AperFunction,NonConductor*%
D18*
G36*
X86229528Y-118010149D02*
G01*
X86178992Y-118176745D01*
X86161928Y-118349999D01*
X86161928Y-119050001D01*
X86178992Y-119223255D01*
X86229528Y-119389851D01*
X86311595Y-119543387D01*
X86422038Y-119677962D01*
X86448891Y-119700000D01*
X86422038Y-119722038D01*
X86311595Y-119856613D01*
X86229528Y-120010149D01*
X86178992Y-120176745D01*
X86161928Y-120349999D01*
X86161928Y-121050001D01*
X86178992Y-121223255D01*
X86229528Y-121389851D01*
X86311595Y-121543387D01*
X86422038Y-121677962D01*
X86556613Y-121788405D01*
X86710149Y-121870472D01*
X86876745Y-121921008D01*
X87049999Y-121938072D01*
X87732284Y-121938072D01*
X87788801Y-121994589D01*
X87788801Y-122561928D01*
X87562500Y-122561928D01*
X87411193Y-122576830D01*
X87265701Y-122620965D01*
X87131615Y-122692635D01*
X87014088Y-122789088D01*
X86917635Y-122906615D01*
X86845965Y-123040701D01*
X86801830Y-123186193D01*
X86786928Y-123337500D01*
X86786928Y-123349244D01*
X86763210Y-123333396D01*
X86585243Y-123259680D01*
X86396315Y-123222100D01*
X86203685Y-123222100D01*
X86014757Y-123259680D01*
X85836790Y-123333396D01*
X85680239Y-123438000D01*
X83465315Y-123438000D01*
X83388405Y-123294113D01*
X83277962Y-123159538D01*
X83143387Y-123049095D01*
X82989852Y-122967028D01*
X82823256Y-122916492D01*
X82650002Y-122899428D01*
X81349998Y-122899428D01*
X81176744Y-122916492D01*
X81010148Y-122967028D01*
X80856613Y-123049095D01*
X80722038Y-123159538D01*
X80611595Y-123294113D01*
X80534685Y-123438000D01*
X79337423Y-123438000D01*
X79300000Y-123434314D01*
X79262577Y-123438000D01*
X79262574Y-123438000D01*
X79150622Y-123449026D01*
X79006985Y-123492598D01*
X78962694Y-123516272D01*
X78874607Y-123563355D01*
X78812599Y-123614244D01*
X78758578Y-123658578D01*
X78734721Y-123687648D01*
X78610441Y-123811928D01*
X77350000Y-123811928D01*
X77225518Y-123824188D01*
X77105820Y-123860498D01*
X76995506Y-123919463D01*
X76898815Y-123998815D01*
X76819463Y-124095506D01*
X76760498Y-124205820D01*
X76724188Y-124325518D01*
X76711928Y-124450000D01*
X76711928Y-125737596D01*
X76660000Y-125765352D01*
X76660000Y-117860000D01*
X86309785Y-117860000D01*
X86229528Y-118010149D01*
G37*
%TD.AperFunction*%
D17*
X103122038Y-125527962D02*
X103179354Y-125575000D01*
X103122038Y-125622038D01*
X103100000Y-125648891D01*
X103077962Y-125622038D01*
X103020646Y-125575000D01*
X103077962Y-125527962D01*
X103100000Y-125501109D01*
X103122038Y-125527962D01*
%TA.AperFunction,NonConductor*%
D18*
G36*
X103122038Y-125527962D02*
G01*
X103179354Y-125575000D01*
X103122038Y-125622038D01*
X103100000Y-125648891D01*
X103077962Y-125622038D01*
X103020646Y-125575000D01*
X103077962Y-125527962D01*
X103100000Y-125501109D01*
X103122038Y-125527962D01*
G37*
%TD.AperFunction*%
D17*
X98783013Y-124888800D02*
X98480099Y-124888800D01*
X98393385Y-124817635D01*
X98259299Y-124745965D01*
X98113807Y-124701830D01*
X97962500Y-124686928D01*
X96762500Y-124686928D01*
X96611193Y-124701830D01*
X96592499Y-124707501D01*
X96598170Y-124688807D01*
X96613072Y-124537500D01*
X96613072Y-124030216D01*
X96708038Y-123935250D01*
X97829463Y-123935250D01*
X98783013Y-124888800D01*
%TA.AperFunction,NonConductor*%
D18*
G36*
X98783013Y-124888800D02*
G01*
X98480099Y-124888800D01*
X98393385Y-124817635D01*
X98259299Y-124745965D01*
X98113807Y-124701830D01*
X97962500Y-124686928D01*
X96762500Y-124686928D01*
X96611193Y-124701830D01*
X96592499Y-124707501D01*
X96598170Y-124688807D01*
X96613072Y-124537500D01*
X96613072Y-124030216D01*
X96708038Y-123935250D01*
X97829463Y-123935250D01*
X98783013Y-124888800D01*
G37*
%TD.AperFunction*%
D17*
X103122038Y-123277962D02*
X103179354Y-123325000D01*
X103122038Y-123372038D01*
X103100000Y-123398891D01*
X103077962Y-123372038D01*
X103020646Y-123325000D01*
X103077962Y-123277962D01*
X103100000Y-123251109D01*
X103122038Y-123277962D01*
%TA.AperFunction,NonConductor*%
D18*
G36*
X103122038Y-123277962D02*
G01*
X103179354Y-123325000D01*
X103122038Y-123372038D01*
X103100000Y-123398891D01*
X103077962Y-123372038D01*
X103020646Y-123325000D01*
X103077962Y-123277962D01*
X103100000Y-123251109D01*
X103122038Y-123277962D01*
G37*
%TD.AperFunction*%
D17*
X117020640Y-122711928D02*
X116872905Y-122711928D01*
X117039520Y-122642914D01*
X117190607Y-122541961D01*
X117020640Y-122711928D01*
%TA.AperFunction,NonConductor*%
D18*
G36*
X117020640Y-122711928D02*
G01*
X116872905Y-122711928D01*
X117039520Y-122642914D01*
X117190607Y-122541961D01*
X117020640Y-122711928D01*
G37*
%TD.AperFunction*%
D17*
X124820640Y-122711928D02*
X124620285Y-122711928D01*
X124786900Y-122642914D01*
X124947065Y-122535895D01*
X125083275Y-122399685D01*
X125190294Y-122239520D01*
X125264010Y-122061553D01*
X125300742Y-121876888D01*
X125989558Y-121188072D01*
X126344495Y-121188072D01*
X124820640Y-122711928D01*
%TA.AperFunction,NonConductor*%
D18*
G36*
X124820640Y-122711928D02*
G01*
X124620285Y-122711928D01*
X124786900Y-122642914D01*
X124947065Y-122535895D01*
X125083275Y-122399685D01*
X125190294Y-122239520D01*
X125264010Y-122061553D01*
X125300742Y-121876888D01*
X125989558Y-121188072D01*
X126344495Y-121188072D01*
X124820640Y-122711928D01*
G37*
%TD.AperFunction*%
D17*
X117341961Y-122390607D02*
X117442914Y-122239520D01*
X117516630Y-122061553D01*
X117553362Y-121876888D01*
X118242178Y-121188072D01*
X118544495Y-121188072D01*
X117341961Y-122390607D01*
%TA.AperFunction,NonConductor*%
D18*
G36*
X117341961Y-122390607D02*
G01*
X117442914Y-122239520D01*
X117516630Y-122061553D01*
X117553362Y-121876888D01*
X118242178Y-121188072D01*
X118544495Y-121188072D01*
X117341961Y-122390607D01*
G37*
%TD.AperFunction*%
D17*
X89822038Y-119677962D02*
X89848891Y-119700000D01*
X89822038Y-119722038D01*
X89711595Y-119856613D01*
X89629528Y-120010149D01*
X89578992Y-120176745D01*
X89561928Y-120349999D01*
X89561928Y-121032284D01*
X89161977Y-121432236D01*
X89160242Y-121426518D01*
X89094202Y-121302967D01*
X89027598Y-121221809D01*
X89027593Y-121221804D01*
X89005327Y-121194673D01*
X88978196Y-121172407D01*
X88838072Y-121032283D01*
X88838072Y-120349999D01*
X88821008Y-120176745D01*
X88770472Y-120010149D01*
X88688405Y-119856613D01*
X88577962Y-119722038D01*
X88551109Y-119700000D01*
X88577962Y-119677962D01*
X88587229Y-119666670D01*
X88736790Y-119766604D01*
X88914757Y-119840320D01*
X89103685Y-119877900D01*
X89296315Y-119877900D01*
X89485243Y-119840320D01*
X89663210Y-119766604D01*
X89812771Y-119666670D01*
X89822038Y-119677962D01*
%TA.AperFunction,NonConductor*%
D18*
G36*
X89822038Y-119677962D02*
G01*
X89848891Y-119700000D01*
X89822038Y-119722038D01*
X89711595Y-119856613D01*
X89629528Y-120010149D01*
X89578992Y-120176745D01*
X89561928Y-120349999D01*
X89561928Y-121032284D01*
X89161977Y-121432236D01*
X89160242Y-121426518D01*
X89094202Y-121302967D01*
X89027598Y-121221809D01*
X89027593Y-121221804D01*
X89005327Y-121194673D01*
X88978196Y-121172407D01*
X88838072Y-121032283D01*
X88838072Y-120349999D01*
X88821008Y-120176745D01*
X88770472Y-120010149D01*
X88688405Y-119856613D01*
X88577962Y-119722038D01*
X88551109Y-119700000D01*
X88577962Y-119677962D01*
X88587229Y-119666670D01*
X88736790Y-119766604D01*
X88914757Y-119840320D01*
X89103685Y-119877900D01*
X89296315Y-119877900D01*
X89485243Y-119840320D01*
X89663210Y-119766604D01*
X89812771Y-119666670D01*
X89822038Y-119677962D01*
G37*
%TD.AperFunction*%
D17*
X96161928Y-119050001D02*
X96178992Y-119223255D01*
X96229528Y-119389851D01*
X96311595Y-119543387D01*
X96422038Y-119677962D01*
X96448891Y-119700000D01*
X96422038Y-119722038D01*
X96311595Y-119856613D01*
X96229528Y-120010149D01*
X96178992Y-120176745D01*
X96161928Y-120349999D01*
X96161928Y-121032285D01*
X95900603Y-121293610D01*
X95499666Y-121293610D01*
X95521008Y-121223255D01*
X95538072Y-121050001D01*
X95538072Y-120349999D01*
X95530695Y-120275094D01*
X95727598Y-120078191D01*
X95794202Y-119997033D01*
X95860242Y-119873482D01*
X95900909Y-119739420D01*
X95914640Y-119600000D01*
X95900909Y-119460581D01*
X95860242Y-119326519D01*
X95794202Y-119202968D01*
X95705327Y-119094673D01*
X95678876Y-119072965D01*
X95703685Y-119077900D01*
X95896315Y-119077900D01*
X96085243Y-119040320D01*
X96161928Y-119008556D01*
X96161928Y-119050001D01*
%TA.AperFunction,NonConductor*%
D18*
G36*
X96161928Y-119050001D02*
G01*
X96178992Y-119223255D01*
X96229528Y-119389851D01*
X96311595Y-119543387D01*
X96422038Y-119677962D01*
X96448891Y-119700000D01*
X96422038Y-119722038D01*
X96311595Y-119856613D01*
X96229528Y-120010149D01*
X96178992Y-120176745D01*
X96161928Y-120349999D01*
X96161928Y-121032285D01*
X95900603Y-121293610D01*
X95499666Y-121293610D01*
X95521008Y-121223255D01*
X95538072Y-121050001D01*
X95538072Y-120349999D01*
X95530695Y-120275094D01*
X95727598Y-120078191D01*
X95794202Y-119997033D01*
X95860242Y-119873482D01*
X95900909Y-119739420D01*
X95914640Y-119600000D01*
X95900909Y-119460581D01*
X95860242Y-119326519D01*
X95794202Y-119202968D01*
X95705327Y-119094673D01*
X95678876Y-119072965D01*
X95703685Y-119077900D01*
X95896315Y-119077900D01*
X96085243Y-119040320D01*
X96161928Y-119008556D01*
X96161928Y-119050001D01*
G37*
%TD.AperFunction*%
D17*
X93122038Y-119677962D02*
X93148891Y-119700000D01*
X93122038Y-119722038D01*
X93011595Y-119856613D01*
X92929528Y-120010149D01*
X92878992Y-120176745D01*
X92861928Y-120349999D01*
X92861928Y-120988800D01*
X92238072Y-120988800D01*
X92238072Y-120349999D01*
X92221008Y-120176745D01*
X92170472Y-120010149D01*
X92088405Y-119856613D01*
X92054576Y-119815392D01*
X92114757Y-119840320D01*
X92303685Y-119877900D01*
X92496315Y-119877900D01*
X92685243Y-119840320D01*
X92863210Y-119766604D01*
X93023375Y-119659585D01*
X93069282Y-119613678D01*
X93122038Y-119677962D01*
%TA.AperFunction,NonConductor*%
D18*
G36*
X93122038Y-119677962D02*
G01*
X93148891Y-119700000D01*
X93122038Y-119722038D01*
X93011595Y-119856613D01*
X92929528Y-120010149D01*
X92878992Y-120176745D01*
X92861928Y-120349999D01*
X92861928Y-120988800D01*
X92238072Y-120988800D01*
X92238072Y-120349999D01*
X92221008Y-120176745D01*
X92170472Y-120010149D01*
X92088405Y-119856613D01*
X92054576Y-119815392D01*
X92114757Y-119840320D01*
X92303685Y-119877900D01*
X92496315Y-119877900D01*
X92685243Y-119840320D01*
X92863210Y-119766604D01*
X93023375Y-119659585D01*
X93069282Y-119613678D01*
X93122038Y-119677962D01*
G37*
%TD.AperFunction*%
D17*
X134898815Y-120051185D02*
X134974501Y-120113298D01*
X134974501Y-120358066D01*
X134888072Y-120444495D01*
X134888072Y-120038095D01*
X134898815Y-120051185D01*
%TA.AperFunction,NonConductor*%
D18*
G36*
X134898815Y-120051185D02*
G01*
X134974501Y-120113298D01*
X134974501Y-120358066D01*
X134888072Y-120444495D01*
X134888072Y-120038095D01*
X134898815Y-120051185D01*
G37*
%TD.AperFunction*%
D17*
X111598815Y-120051185D02*
X111674501Y-120113298D01*
X111674501Y-120258065D01*
X111588072Y-120344494D01*
X111588072Y-120038095D01*
X111598815Y-120051185D01*
%TA.AperFunction,NonConductor*%
D18*
G36*
X111598815Y-120051185D02*
G01*
X111674501Y-120113298D01*
X111674501Y-120258065D01*
X111588072Y-120344494D01*
X111588072Y-120038095D01*
X111598815Y-120051185D01*
G37*
%TD.AperFunction*%
D17*
X119498815Y-120051185D02*
X119574501Y-120113298D01*
X119574501Y-120158066D01*
X119488072Y-120244495D01*
X119488072Y-120038095D01*
X119498815Y-120051185D01*
%TA.AperFunction,NonConductor*%
D18*
G36*
X119498815Y-120051185D02*
G01*
X119574501Y-120113298D01*
X119574501Y-120158066D01*
X119488072Y-120244495D01*
X119488072Y-120038095D01*
X119498815Y-120051185D01*
G37*
%TD.AperFunction*%
D17*
X127398815Y-120051185D02*
X127444164Y-120088402D01*
X127388072Y-120144494D01*
X127388072Y-120038095D01*
X127398815Y-120051185D01*
%TA.AperFunction,NonConductor*%
D18*
G36*
X127398815Y-120051185D02*
G01*
X127444164Y-120088402D01*
X127388072Y-120144494D01*
X127388072Y-120038095D01*
X127398815Y-120051185D01*
G37*
%TD.AperFunction*%
D17*
X127211928Y-119311905D02*
X127201185Y-119298815D01*
X127104494Y-119219463D01*
X127068082Y-119200000D01*
X127104494Y-119180537D01*
X127201185Y-119101185D01*
X127211928Y-119088095D01*
X127211928Y-119311905D01*
%TA.AperFunction,NonConductor*%
D18*
G36*
X127211928Y-119311905D02*
G01*
X127201185Y-119298815D01*
X127104494Y-119219463D01*
X127068082Y-119200000D01*
X127104494Y-119180537D01*
X127201185Y-119101185D01*
X127211928Y-119088095D01*
X127211928Y-119311905D01*
G37*
%TD.AperFunction*%
D17*
X119311928Y-119311905D02*
X119301185Y-119298815D01*
X119204494Y-119219463D01*
X119168082Y-119200000D01*
X119204494Y-119180537D01*
X119301185Y-119101185D01*
X119311928Y-119088095D01*
X119311928Y-119311905D01*
%TA.AperFunction,NonConductor*%
D18*
G36*
X119311928Y-119311905D02*
G01*
X119301185Y-119298815D01*
X119204494Y-119219463D01*
X119168082Y-119200000D01*
X119204494Y-119180537D01*
X119301185Y-119101185D01*
X119311928Y-119088095D01*
X119311928Y-119311905D01*
G37*
%TD.AperFunction*%
D17*
X111411928Y-119311905D02*
X111401185Y-119298815D01*
X111304494Y-119219463D01*
X111268082Y-119200000D01*
X111304494Y-119180537D01*
X111401185Y-119101185D01*
X111411928Y-119088095D01*
X111411928Y-119311905D01*
%TA.AperFunction,NonConductor*%
D18*
G36*
X111411928Y-119311905D02*
G01*
X111401185Y-119298815D01*
X111304494Y-119219463D01*
X111268082Y-119200000D01*
X111304494Y-119180537D01*
X111401185Y-119101185D01*
X111411928Y-119088095D01*
X111411928Y-119311905D01*
G37*
%TD.AperFunction*%
D17*
X134711928Y-119311905D02*
X134701185Y-119298815D01*
X134604494Y-119219463D01*
X134568082Y-119200000D01*
X134604494Y-119180537D01*
X134701185Y-119101185D01*
X134711928Y-119088095D01*
X134711928Y-119311905D01*
%TA.AperFunction,NonConductor*%
D18*
G36*
X134711928Y-119311905D02*
G01*
X134701185Y-119298815D01*
X134604494Y-119219463D01*
X134568082Y-119200000D01*
X134604494Y-119180537D01*
X134701185Y-119101185D01*
X134711928Y-119088095D01*
X134711928Y-119311905D01*
G37*
%TD.AperFunction*%
D17*
X132954059Y-119253477D02*
X132936578Y-119250000D01*
X132965244Y-119244298D01*
X132954059Y-119253477D01*
%TA.AperFunction,NonConductor*%
D18*
G36*
X132954059Y-119253477D02*
G01*
X132936578Y-119250000D01*
X132965244Y-119244298D01*
X132954059Y-119253477D01*
G37*
%TD.AperFunction*%
D17*
X92929528Y-118010149D02*
X92912488Y-118066323D01*
X92863210Y-118033396D01*
X92685243Y-117959680D01*
X92496315Y-117922100D01*
X92303685Y-117922100D01*
X92140734Y-117954513D01*
X92090215Y-117860000D01*
X93009785Y-117860000D01*
X92929528Y-118010149D01*
%TA.AperFunction,NonConductor*%
D18*
G36*
X92929528Y-118010149D02*
G01*
X92912488Y-118066323D01*
X92863210Y-118033396D01*
X92685243Y-117959680D01*
X92496315Y-117922100D01*
X92303685Y-117922100D01*
X92140734Y-117954513D01*
X92090215Y-117860000D01*
X93009785Y-117860000D01*
X92929528Y-118010149D01*
G37*
%TD.AperFunction*%
D17*
X89629528Y-118010149D02*
X89627023Y-118018407D01*
X89485243Y-117959680D01*
X89296315Y-117922100D01*
X89103685Y-117922100D01*
X88914757Y-117959680D01*
X88772977Y-118018407D01*
X88770472Y-118010149D01*
X88690215Y-117860000D01*
X89709785Y-117860000D01*
X89629528Y-118010149D01*
%TA.AperFunction,NonConductor*%
D18*
G36*
X89629528Y-118010149D02*
G01*
X89627023Y-118018407D01*
X89485243Y-117959680D01*
X89296315Y-117922100D01*
X89103685Y-117922100D01*
X88914757Y-117959680D01*
X88772977Y-118018407D01*
X88770472Y-118010149D01*
X88690215Y-117860000D01*
X89709785Y-117860000D01*
X89629528Y-118010149D01*
G37*
%TD.AperFunction*%
M02*
