%TF.GenerationSoftware,KiCad,Pcbnew,5.1.10-88a1d61d58~88~ubuntu20.04.1*%
%TF.CreationDate,2021-05-20T12:52:21-04:00*%
%TF.ProjectId,hexdisplay16,68657864-6973-4706-9c61-7931362e6b69,rev?*%
%TF.SameCoordinates,Original*%
%TF.FileFunction,Paste,Top*%
%TF.FilePolarity,Positive*%
%FSLAX46Y46*%
G04 Gerber Fmt 4.6, Leading zero omitted, Abs format (unit mm)*
G04 Created by KiCad (PCBNEW 5.1.10-88a1d61d58~88~ubuntu20.04.1) date 2021-05-20 12:52:21*
%MOMM*%
%LPD*%
G01*
G04 APERTURE LIST*
%ADD10R,0.900000X0.800000*%
G04 APERTURE END LIST*
%TO.C,C1*%
G36*
G01*
X82650002Y-127987500D02*
X81349998Y-127987500D01*
G75*
G02*
X81100000Y-127737502I0J249998D01*
G01*
X81100000Y-126912498D01*
G75*
G02*
X81349998Y-126662500I249998J0D01*
G01*
X82650002Y-126662500D01*
G75*
G02*
X82900000Y-126912498I0J-249998D01*
G01*
X82900000Y-127737502D01*
G75*
G02*
X82650002Y-127987500I-249998J0D01*
G01*
G37*
G36*
G01*
X82650002Y-124862500D02*
X81349998Y-124862500D01*
G75*
G02*
X81100000Y-124612502I0J249998D01*
G01*
X81100000Y-123787498D01*
G75*
G02*
X81349998Y-123537500I249998J0D01*
G01*
X82650002Y-123537500D01*
G75*
G02*
X82900000Y-123787498I0J-249998D01*
G01*
X82900000Y-124612502D01*
G75*
G02*
X82650002Y-124862500I-249998J0D01*
G01*
G37*
%TD*%
D10*
%TO.C,Q1*%
X112500000Y-119200000D03*
X110500000Y-120150000D03*
X110500000Y-118250000D03*
%TD*%
%TO.C,Q2*%
X118400000Y-118250000D03*
X118400000Y-120150000D03*
X120400000Y-119200000D03*
%TD*%
%TO.C,Q3*%
X126300000Y-118250000D03*
X126300000Y-120150000D03*
X128300000Y-119200000D03*
%TD*%
%TO.C,Q4*%
X135800000Y-119200000D03*
X133800000Y-120150000D03*
X133800000Y-118250000D03*
%TD*%
%TO.C,R1*%
G36*
G01*
X101500000Y-122650001D02*
X101500000Y-121749999D01*
G75*
G02*
X101749999Y-121500000I249999J0D01*
G01*
X102450001Y-121500000D01*
G75*
G02*
X102700000Y-121749999I0J-249999D01*
G01*
X102700000Y-122650001D01*
G75*
G02*
X102450001Y-122900000I-249999J0D01*
G01*
X101749999Y-122900000D01*
G75*
G02*
X101500000Y-122650001I0J249999D01*
G01*
G37*
G36*
G01*
X103500000Y-122650001D02*
X103500000Y-121749999D01*
G75*
G02*
X103749999Y-121500000I249999J0D01*
G01*
X104450001Y-121500000D01*
G75*
G02*
X104700000Y-121749999I0J-249999D01*
G01*
X104700000Y-122650001D01*
G75*
G02*
X104450001Y-122900000I-249999J0D01*
G01*
X103749999Y-122900000D01*
G75*
G02*
X103500000Y-122650001I0J249999D01*
G01*
G37*
%TD*%
%TO.C,R2*%
G36*
G01*
X103500000Y-124900001D02*
X103500000Y-123999999D01*
G75*
G02*
X103749999Y-123750000I249999J0D01*
G01*
X104450001Y-123750000D01*
G75*
G02*
X104700000Y-123999999I0J-249999D01*
G01*
X104700000Y-124900001D01*
G75*
G02*
X104450001Y-125150000I-249999J0D01*
G01*
X103749999Y-125150000D01*
G75*
G02*
X103500000Y-124900001I0J249999D01*
G01*
G37*
G36*
G01*
X101500000Y-124900001D02*
X101500000Y-123999999D01*
G75*
G02*
X101749999Y-123750000I249999J0D01*
G01*
X102450001Y-123750000D01*
G75*
G02*
X102700000Y-123999999I0J-249999D01*
G01*
X102700000Y-124900001D01*
G75*
G02*
X102450001Y-125150000I-249999J0D01*
G01*
X101749999Y-125150000D01*
G75*
G02*
X101500000Y-124900001I0J249999D01*
G01*
G37*
%TD*%
%TO.C,R3*%
G36*
G01*
X101500000Y-127150001D02*
X101500000Y-126249999D01*
G75*
G02*
X101749999Y-126000000I249999J0D01*
G01*
X102450001Y-126000000D01*
G75*
G02*
X102700000Y-126249999I0J-249999D01*
G01*
X102700000Y-127150001D01*
G75*
G02*
X102450001Y-127400000I-249999J0D01*
G01*
X101749999Y-127400000D01*
G75*
G02*
X101500000Y-127150001I0J249999D01*
G01*
G37*
G36*
G01*
X103500000Y-127150001D02*
X103500000Y-126249999D01*
G75*
G02*
X103749999Y-126000000I249999J0D01*
G01*
X104450001Y-126000000D01*
G75*
G02*
X104700000Y-126249999I0J-249999D01*
G01*
X104700000Y-127150001D01*
G75*
G02*
X104450001Y-127400000I-249999J0D01*
G01*
X103749999Y-127400000D01*
G75*
G02*
X103500000Y-127150001I0J249999D01*
G01*
G37*
%TD*%
%TO.C,R4*%
G36*
G01*
X103500000Y-129400001D02*
X103500000Y-128499999D01*
G75*
G02*
X103749999Y-128250000I249999J0D01*
G01*
X104450001Y-128250000D01*
G75*
G02*
X104700000Y-128499999I0J-249999D01*
G01*
X104700000Y-129400001D01*
G75*
G02*
X104450001Y-129650000I-249999J0D01*
G01*
X103749999Y-129650000D01*
G75*
G02*
X103500000Y-129400001I0J249999D01*
G01*
G37*
G36*
G01*
X101500000Y-129400001D02*
X101500000Y-128499999D01*
G75*
G02*
X101749999Y-128250000I249999J0D01*
G01*
X102450001Y-128250000D01*
G75*
G02*
X102700000Y-128499999I0J-249999D01*
G01*
X102700000Y-129400001D01*
G75*
G02*
X102450001Y-129650000I-249999J0D01*
G01*
X101749999Y-129650000D01*
G75*
G02*
X101500000Y-129400001I0J249999D01*
G01*
G37*
%TD*%
%TO.C,R5*%
G36*
G01*
X101500000Y-131650001D02*
X101500000Y-130749999D01*
G75*
G02*
X101749999Y-130500000I249999J0D01*
G01*
X102450001Y-130500000D01*
G75*
G02*
X102700000Y-130749999I0J-249999D01*
G01*
X102700000Y-131650001D01*
G75*
G02*
X102450001Y-131900000I-249999J0D01*
G01*
X101749999Y-131900000D01*
G75*
G02*
X101500000Y-131650001I0J249999D01*
G01*
G37*
G36*
G01*
X103500000Y-131650001D02*
X103500000Y-130749999D01*
G75*
G02*
X103749999Y-130500000I249999J0D01*
G01*
X104450001Y-130500000D01*
G75*
G02*
X104700000Y-130749999I0J-249999D01*
G01*
X104700000Y-131650001D01*
G75*
G02*
X104450001Y-131900000I-249999J0D01*
G01*
X103749999Y-131900000D01*
G75*
G02*
X103500000Y-131650001I0J249999D01*
G01*
G37*
%TD*%
%TO.C,R6*%
G36*
G01*
X103500000Y-133900001D02*
X103500000Y-132999999D01*
G75*
G02*
X103749999Y-132750000I249999J0D01*
G01*
X104450001Y-132750000D01*
G75*
G02*
X104700000Y-132999999I0J-249999D01*
G01*
X104700000Y-133900001D01*
G75*
G02*
X104450001Y-134150000I-249999J0D01*
G01*
X103749999Y-134150000D01*
G75*
G02*
X103500000Y-133900001I0J249999D01*
G01*
G37*
G36*
G01*
X101500000Y-133900001D02*
X101500000Y-132999999D01*
G75*
G02*
X101749999Y-132750000I249999J0D01*
G01*
X102450001Y-132750000D01*
G75*
G02*
X102700000Y-132999999I0J-249999D01*
G01*
X102700000Y-133900001D01*
G75*
G02*
X102450001Y-134150000I-249999J0D01*
G01*
X101749999Y-134150000D01*
G75*
G02*
X101500000Y-133900001I0J249999D01*
G01*
G37*
%TD*%
%TO.C,R7*%
G36*
G01*
X101500000Y-136150001D02*
X101500000Y-135249999D01*
G75*
G02*
X101749999Y-135000000I249999J0D01*
G01*
X102450001Y-135000000D01*
G75*
G02*
X102700000Y-135249999I0J-249999D01*
G01*
X102700000Y-136150001D01*
G75*
G02*
X102450001Y-136400000I-249999J0D01*
G01*
X101749999Y-136400000D01*
G75*
G02*
X101500000Y-136150001I0J249999D01*
G01*
G37*
G36*
G01*
X103500000Y-136150001D02*
X103500000Y-135249999D01*
G75*
G02*
X103749999Y-135000000I249999J0D01*
G01*
X104450001Y-135000000D01*
G75*
G02*
X104700000Y-135249999I0J-249999D01*
G01*
X104700000Y-136150001D01*
G75*
G02*
X104450001Y-136400000I-249999J0D01*
G01*
X103749999Y-136400000D01*
G75*
G02*
X103500000Y-136150001I0J249999D01*
G01*
G37*
%TD*%
%TO.C,R8*%
G36*
G01*
X97049999Y-118100000D02*
X97950001Y-118100000D01*
G75*
G02*
X98200000Y-118349999I0J-249999D01*
G01*
X98200000Y-119050001D01*
G75*
G02*
X97950001Y-119300000I-249999J0D01*
G01*
X97049999Y-119300000D01*
G75*
G02*
X96800000Y-119050001I0J249999D01*
G01*
X96800000Y-118349999D01*
G75*
G02*
X97049999Y-118100000I249999J0D01*
G01*
G37*
G36*
G01*
X97049999Y-120100000D02*
X97950001Y-120100000D01*
G75*
G02*
X98200000Y-120349999I0J-249999D01*
G01*
X98200000Y-121050001D01*
G75*
G02*
X97950001Y-121300000I-249999J0D01*
G01*
X97049999Y-121300000D01*
G75*
G02*
X96800000Y-121050001I0J249999D01*
G01*
X96800000Y-120349999D01*
G75*
G02*
X97049999Y-120100000I249999J0D01*
G01*
G37*
%TD*%
%TO.C,R9*%
G36*
G01*
X93749999Y-120100000D02*
X94650001Y-120100000D01*
G75*
G02*
X94900000Y-120349999I0J-249999D01*
G01*
X94900000Y-121050001D01*
G75*
G02*
X94650001Y-121300000I-249999J0D01*
G01*
X93749999Y-121300000D01*
G75*
G02*
X93500000Y-121050001I0J249999D01*
G01*
X93500000Y-120349999D01*
G75*
G02*
X93749999Y-120100000I249999J0D01*
G01*
G37*
G36*
G01*
X93749999Y-118100000D02*
X94650001Y-118100000D01*
G75*
G02*
X94900000Y-118349999I0J-249999D01*
G01*
X94900000Y-119050001D01*
G75*
G02*
X94650001Y-119300000I-249999J0D01*
G01*
X93749999Y-119300000D01*
G75*
G02*
X93500000Y-119050001I0J249999D01*
G01*
X93500000Y-118349999D01*
G75*
G02*
X93749999Y-118100000I249999J0D01*
G01*
G37*
%TD*%
%TO.C,R10*%
G36*
G01*
X90449999Y-118100000D02*
X91350001Y-118100000D01*
G75*
G02*
X91600000Y-118349999I0J-249999D01*
G01*
X91600000Y-119050001D01*
G75*
G02*
X91350001Y-119300000I-249999J0D01*
G01*
X90449999Y-119300000D01*
G75*
G02*
X90200000Y-119050001I0J249999D01*
G01*
X90200000Y-118349999D01*
G75*
G02*
X90449999Y-118100000I249999J0D01*
G01*
G37*
G36*
G01*
X90449999Y-120100000D02*
X91350001Y-120100000D01*
G75*
G02*
X91600000Y-120349999I0J-249999D01*
G01*
X91600000Y-121050001D01*
G75*
G02*
X91350001Y-121300000I-249999J0D01*
G01*
X90449999Y-121300000D01*
G75*
G02*
X90200000Y-121050001I0J249999D01*
G01*
X90200000Y-120349999D01*
G75*
G02*
X90449999Y-120100000I249999J0D01*
G01*
G37*
%TD*%
%TO.C,R11*%
G36*
G01*
X87049999Y-120100000D02*
X87950001Y-120100000D01*
G75*
G02*
X88200000Y-120349999I0J-249999D01*
G01*
X88200000Y-121050001D01*
G75*
G02*
X87950001Y-121300000I-249999J0D01*
G01*
X87049999Y-121300000D01*
G75*
G02*
X86800000Y-121050001I0J249999D01*
G01*
X86800000Y-120349999D01*
G75*
G02*
X87049999Y-120100000I249999J0D01*
G01*
G37*
G36*
G01*
X87049999Y-118100000D02*
X87950001Y-118100000D01*
G75*
G02*
X88200000Y-118349999I0J-249999D01*
G01*
X88200000Y-119050001D01*
G75*
G02*
X87950001Y-119300000I-249999J0D01*
G01*
X87049999Y-119300000D01*
G75*
G02*
X86800000Y-119050001I0J249999D01*
G01*
X86800000Y-118349999D01*
G75*
G02*
X87049999Y-118100000I249999J0D01*
G01*
G37*
%TD*%
%TO.C,U1*%
G36*
G01*
X85300000Y-125737500D02*
X85300000Y-125462500D01*
G75*
G02*
X85437500Y-125325000I137500J0D01*
G01*
X86637500Y-125325000D01*
G75*
G02*
X86775000Y-125462500I0J-137500D01*
G01*
X86775000Y-125737500D01*
G75*
G02*
X86637500Y-125875000I-137500J0D01*
G01*
X85437500Y-125875000D01*
G75*
G02*
X85300000Y-125737500I0J137500D01*
G01*
G37*
G36*
G01*
X85300000Y-126537500D02*
X85300000Y-126262500D01*
G75*
G02*
X85437500Y-126125000I137500J0D01*
G01*
X86637500Y-126125000D01*
G75*
G02*
X86775000Y-126262500I0J-137500D01*
G01*
X86775000Y-126537500D01*
G75*
G02*
X86637500Y-126675000I-137500J0D01*
G01*
X85437500Y-126675000D01*
G75*
G02*
X85300000Y-126537500I0J137500D01*
G01*
G37*
G36*
G01*
X85300000Y-127337500D02*
X85300000Y-127062500D01*
G75*
G02*
X85437500Y-126925000I137500J0D01*
G01*
X86637500Y-126925000D01*
G75*
G02*
X86775000Y-127062500I0J-137500D01*
G01*
X86775000Y-127337500D01*
G75*
G02*
X86637500Y-127475000I-137500J0D01*
G01*
X85437500Y-127475000D01*
G75*
G02*
X85300000Y-127337500I0J137500D01*
G01*
G37*
G36*
G01*
X85300000Y-128137500D02*
X85300000Y-127862500D01*
G75*
G02*
X85437500Y-127725000I137500J0D01*
G01*
X86637500Y-127725000D01*
G75*
G02*
X86775000Y-127862500I0J-137500D01*
G01*
X86775000Y-128137500D01*
G75*
G02*
X86637500Y-128275000I-137500J0D01*
G01*
X85437500Y-128275000D01*
G75*
G02*
X85300000Y-128137500I0J137500D01*
G01*
G37*
G36*
G01*
X85300000Y-128937500D02*
X85300000Y-128662500D01*
G75*
G02*
X85437500Y-128525000I137500J0D01*
G01*
X86637500Y-128525000D01*
G75*
G02*
X86775000Y-128662500I0J-137500D01*
G01*
X86775000Y-128937500D01*
G75*
G02*
X86637500Y-129075000I-137500J0D01*
G01*
X85437500Y-129075000D01*
G75*
G02*
X85300000Y-128937500I0J137500D01*
G01*
G37*
G36*
G01*
X85300000Y-129737500D02*
X85300000Y-129462500D01*
G75*
G02*
X85437500Y-129325000I137500J0D01*
G01*
X86637500Y-129325000D01*
G75*
G02*
X86775000Y-129462500I0J-137500D01*
G01*
X86775000Y-129737500D01*
G75*
G02*
X86637500Y-129875000I-137500J0D01*
G01*
X85437500Y-129875000D01*
G75*
G02*
X85300000Y-129737500I0J137500D01*
G01*
G37*
G36*
G01*
X85300000Y-130537500D02*
X85300000Y-130262500D01*
G75*
G02*
X85437500Y-130125000I137500J0D01*
G01*
X86637500Y-130125000D01*
G75*
G02*
X86775000Y-130262500I0J-137500D01*
G01*
X86775000Y-130537500D01*
G75*
G02*
X86637500Y-130675000I-137500J0D01*
G01*
X85437500Y-130675000D01*
G75*
G02*
X85300000Y-130537500I0J137500D01*
G01*
G37*
G36*
G01*
X85300000Y-131337500D02*
X85300000Y-131062500D01*
G75*
G02*
X85437500Y-130925000I137500J0D01*
G01*
X86637500Y-130925000D01*
G75*
G02*
X86775000Y-131062500I0J-137500D01*
G01*
X86775000Y-131337500D01*
G75*
G02*
X86637500Y-131475000I-137500J0D01*
G01*
X85437500Y-131475000D01*
G75*
G02*
X85300000Y-131337500I0J137500D01*
G01*
G37*
G36*
G01*
X85300000Y-132137500D02*
X85300000Y-131862500D01*
G75*
G02*
X85437500Y-131725000I137500J0D01*
G01*
X86637500Y-131725000D01*
G75*
G02*
X86775000Y-131862500I0J-137500D01*
G01*
X86775000Y-132137500D01*
G75*
G02*
X86637500Y-132275000I-137500J0D01*
G01*
X85437500Y-132275000D01*
G75*
G02*
X85300000Y-132137500I0J137500D01*
G01*
G37*
G36*
G01*
X85300000Y-132937500D02*
X85300000Y-132662500D01*
G75*
G02*
X85437500Y-132525000I137500J0D01*
G01*
X86637500Y-132525000D01*
G75*
G02*
X86775000Y-132662500I0J-137500D01*
G01*
X86775000Y-132937500D01*
G75*
G02*
X86637500Y-133075000I-137500J0D01*
G01*
X85437500Y-133075000D01*
G75*
G02*
X85300000Y-132937500I0J137500D01*
G01*
G37*
G36*
G01*
X85300000Y-133737500D02*
X85300000Y-133462500D01*
G75*
G02*
X85437500Y-133325000I137500J0D01*
G01*
X86637500Y-133325000D01*
G75*
G02*
X86775000Y-133462500I0J-137500D01*
G01*
X86775000Y-133737500D01*
G75*
G02*
X86637500Y-133875000I-137500J0D01*
G01*
X85437500Y-133875000D01*
G75*
G02*
X85300000Y-133737500I0J137500D01*
G01*
G37*
G36*
G01*
X87425000Y-135862500D02*
X87425000Y-134662500D01*
G75*
G02*
X87562500Y-134525000I137500J0D01*
G01*
X87837500Y-134525000D01*
G75*
G02*
X87975000Y-134662500I0J-137500D01*
G01*
X87975000Y-135862500D01*
G75*
G02*
X87837500Y-136000000I-137500J0D01*
G01*
X87562500Y-136000000D01*
G75*
G02*
X87425000Y-135862500I0J137500D01*
G01*
G37*
G36*
G01*
X88225000Y-135862500D02*
X88225000Y-134662500D01*
G75*
G02*
X88362500Y-134525000I137500J0D01*
G01*
X88637500Y-134525000D01*
G75*
G02*
X88775000Y-134662500I0J-137500D01*
G01*
X88775000Y-135862500D01*
G75*
G02*
X88637500Y-136000000I-137500J0D01*
G01*
X88362500Y-136000000D01*
G75*
G02*
X88225000Y-135862500I0J137500D01*
G01*
G37*
G36*
G01*
X89025000Y-135862500D02*
X89025000Y-134662500D01*
G75*
G02*
X89162500Y-134525000I137500J0D01*
G01*
X89437500Y-134525000D01*
G75*
G02*
X89575000Y-134662500I0J-137500D01*
G01*
X89575000Y-135862500D01*
G75*
G02*
X89437500Y-136000000I-137500J0D01*
G01*
X89162500Y-136000000D01*
G75*
G02*
X89025000Y-135862500I0J137500D01*
G01*
G37*
G36*
G01*
X89825000Y-135862500D02*
X89825000Y-134662500D01*
G75*
G02*
X89962500Y-134525000I137500J0D01*
G01*
X90237500Y-134525000D01*
G75*
G02*
X90375000Y-134662500I0J-137500D01*
G01*
X90375000Y-135862500D01*
G75*
G02*
X90237500Y-136000000I-137500J0D01*
G01*
X89962500Y-136000000D01*
G75*
G02*
X89825000Y-135862500I0J137500D01*
G01*
G37*
G36*
G01*
X90625000Y-135862500D02*
X90625000Y-134662500D01*
G75*
G02*
X90762500Y-134525000I137500J0D01*
G01*
X91037500Y-134525000D01*
G75*
G02*
X91175000Y-134662500I0J-137500D01*
G01*
X91175000Y-135862500D01*
G75*
G02*
X91037500Y-136000000I-137500J0D01*
G01*
X90762500Y-136000000D01*
G75*
G02*
X90625000Y-135862500I0J137500D01*
G01*
G37*
G36*
G01*
X91425000Y-135862500D02*
X91425000Y-134662500D01*
G75*
G02*
X91562500Y-134525000I137500J0D01*
G01*
X91837500Y-134525000D01*
G75*
G02*
X91975000Y-134662500I0J-137500D01*
G01*
X91975000Y-135862500D01*
G75*
G02*
X91837500Y-136000000I-137500J0D01*
G01*
X91562500Y-136000000D01*
G75*
G02*
X91425000Y-135862500I0J137500D01*
G01*
G37*
G36*
G01*
X92225000Y-135862500D02*
X92225000Y-134662500D01*
G75*
G02*
X92362500Y-134525000I137500J0D01*
G01*
X92637500Y-134525000D01*
G75*
G02*
X92775000Y-134662500I0J-137500D01*
G01*
X92775000Y-135862500D01*
G75*
G02*
X92637500Y-136000000I-137500J0D01*
G01*
X92362500Y-136000000D01*
G75*
G02*
X92225000Y-135862500I0J137500D01*
G01*
G37*
G36*
G01*
X93025000Y-135862500D02*
X93025000Y-134662500D01*
G75*
G02*
X93162500Y-134525000I137500J0D01*
G01*
X93437500Y-134525000D01*
G75*
G02*
X93575000Y-134662500I0J-137500D01*
G01*
X93575000Y-135862500D01*
G75*
G02*
X93437500Y-136000000I-137500J0D01*
G01*
X93162500Y-136000000D01*
G75*
G02*
X93025000Y-135862500I0J137500D01*
G01*
G37*
G36*
G01*
X93825000Y-135862500D02*
X93825000Y-134662500D01*
G75*
G02*
X93962500Y-134525000I137500J0D01*
G01*
X94237500Y-134525000D01*
G75*
G02*
X94375000Y-134662500I0J-137500D01*
G01*
X94375000Y-135862500D01*
G75*
G02*
X94237500Y-136000000I-137500J0D01*
G01*
X93962500Y-136000000D01*
G75*
G02*
X93825000Y-135862500I0J137500D01*
G01*
G37*
G36*
G01*
X94625000Y-135862500D02*
X94625000Y-134662500D01*
G75*
G02*
X94762500Y-134525000I137500J0D01*
G01*
X95037500Y-134525000D01*
G75*
G02*
X95175000Y-134662500I0J-137500D01*
G01*
X95175000Y-135862500D01*
G75*
G02*
X95037500Y-136000000I-137500J0D01*
G01*
X94762500Y-136000000D01*
G75*
G02*
X94625000Y-135862500I0J137500D01*
G01*
G37*
G36*
G01*
X95425000Y-135862500D02*
X95425000Y-134662500D01*
G75*
G02*
X95562500Y-134525000I137500J0D01*
G01*
X95837500Y-134525000D01*
G75*
G02*
X95975000Y-134662500I0J-137500D01*
G01*
X95975000Y-135862500D01*
G75*
G02*
X95837500Y-136000000I-137500J0D01*
G01*
X95562500Y-136000000D01*
G75*
G02*
X95425000Y-135862500I0J137500D01*
G01*
G37*
G36*
G01*
X96625000Y-133737500D02*
X96625000Y-133462500D01*
G75*
G02*
X96762500Y-133325000I137500J0D01*
G01*
X97962500Y-133325000D01*
G75*
G02*
X98100000Y-133462500I0J-137500D01*
G01*
X98100000Y-133737500D01*
G75*
G02*
X97962500Y-133875000I-137500J0D01*
G01*
X96762500Y-133875000D01*
G75*
G02*
X96625000Y-133737500I0J137500D01*
G01*
G37*
G36*
G01*
X96625000Y-132937500D02*
X96625000Y-132662500D01*
G75*
G02*
X96762500Y-132525000I137500J0D01*
G01*
X97962500Y-132525000D01*
G75*
G02*
X98100000Y-132662500I0J-137500D01*
G01*
X98100000Y-132937500D01*
G75*
G02*
X97962500Y-133075000I-137500J0D01*
G01*
X96762500Y-133075000D01*
G75*
G02*
X96625000Y-132937500I0J137500D01*
G01*
G37*
G36*
G01*
X96625000Y-132137500D02*
X96625000Y-131862500D01*
G75*
G02*
X96762500Y-131725000I137500J0D01*
G01*
X97962500Y-131725000D01*
G75*
G02*
X98100000Y-131862500I0J-137500D01*
G01*
X98100000Y-132137500D01*
G75*
G02*
X97962500Y-132275000I-137500J0D01*
G01*
X96762500Y-132275000D01*
G75*
G02*
X96625000Y-132137500I0J137500D01*
G01*
G37*
G36*
G01*
X96625000Y-131337500D02*
X96625000Y-131062500D01*
G75*
G02*
X96762500Y-130925000I137500J0D01*
G01*
X97962500Y-130925000D01*
G75*
G02*
X98100000Y-131062500I0J-137500D01*
G01*
X98100000Y-131337500D01*
G75*
G02*
X97962500Y-131475000I-137500J0D01*
G01*
X96762500Y-131475000D01*
G75*
G02*
X96625000Y-131337500I0J137500D01*
G01*
G37*
G36*
G01*
X96625000Y-130537500D02*
X96625000Y-130262500D01*
G75*
G02*
X96762500Y-130125000I137500J0D01*
G01*
X97962500Y-130125000D01*
G75*
G02*
X98100000Y-130262500I0J-137500D01*
G01*
X98100000Y-130537500D01*
G75*
G02*
X97962500Y-130675000I-137500J0D01*
G01*
X96762500Y-130675000D01*
G75*
G02*
X96625000Y-130537500I0J137500D01*
G01*
G37*
G36*
G01*
X96625000Y-129737500D02*
X96625000Y-129462500D01*
G75*
G02*
X96762500Y-129325000I137500J0D01*
G01*
X97962500Y-129325000D01*
G75*
G02*
X98100000Y-129462500I0J-137500D01*
G01*
X98100000Y-129737500D01*
G75*
G02*
X97962500Y-129875000I-137500J0D01*
G01*
X96762500Y-129875000D01*
G75*
G02*
X96625000Y-129737500I0J137500D01*
G01*
G37*
G36*
G01*
X96625000Y-128937500D02*
X96625000Y-128662500D01*
G75*
G02*
X96762500Y-128525000I137500J0D01*
G01*
X97962500Y-128525000D01*
G75*
G02*
X98100000Y-128662500I0J-137500D01*
G01*
X98100000Y-128937500D01*
G75*
G02*
X97962500Y-129075000I-137500J0D01*
G01*
X96762500Y-129075000D01*
G75*
G02*
X96625000Y-128937500I0J137500D01*
G01*
G37*
G36*
G01*
X96625000Y-128137500D02*
X96625000Y-127862500D01*
G75*
G02*
X96762500Y-127725000I137500J0D01*
G01*
X97962500Y-127725000D01*
G75*
G02*
X98100000Y-127862500I0J-137500D01*
G01*
X98100000Y-128137500D01*
G75*
G02*
X97962500Y-128275000I-137500J0D01*
G01*
X96762500Y-128275000D01*
G75*
G02*
X96625000Y-128137500I0J137500D01*
G01*
G37*
G36*
G01*
X96625000Y-127337500D02*
X96625000Y-127062500D01*
G75*
G02*
X96762500Y-126925000I137500J0D01*
G01*
X97962500Y-126925000D01*
G75*
G02*
X98100000Y-127062500I0J-137500D01*
G01*
X98100000Y-127337500D01*
G75*
G02*
X97962500Y-127475000I-137500J0D01*
G01*
X96762500Y-127475000D01*
G75*
G02*
X96625000Y-127337500I0J137500D01*
G01*
G37*
G36*
G01*
X96625000Y-126537500D02*
X96625000Y-126262500D01*
G75*
G02*
X96762500Y-126125000I137500J0D01*
G01*
X97962500Y-126125000D01*
G75*
G02*
X98100000Y-126262500I0J-137500D01*
G01*
X98100000Y-126537500D01*
G75*
G02*
X97962500Y-126675000I-137500J0D01*
G01*
X96762500Y-126675000D01*
G75*
G02*
X96625000Y-126537500I0J137500D01*
G01*
G37*
G36*
G01*
X96625000Y-125737500D02*
X96625000Y-125462500D01*
G75*
G02*
X96762500Y-125325000I137500J0D01*
G01*
X97962500Y-125325000D01*
G75*
G02*
X98100000Y-125462500I0J-137500D01*
G01*
X98100000Y-125737500D01*
G75*
G02*
X97962500Y-125875000I-137500J0D01*
G01*
X96762500Y-125875000D01*
G75*
G02*
X96625000Y-125737500I0J137500D01*
G01*
G37*
G36*
G01*
X95425000Y-124537500D02*
X95425000Y-123337500D01*
G75*
G02*
X95562500Y-123200000I137500J0D01*
G01*
X95837500Y-123200000D01*
G75*
G02*
X95975000Y-123337500I0J-137500D01*
G01*
X95975000Y-124537500D01*
G75*
G02*
X95837500Y-124675000I-137500J0D01*
G01*
X95562500Y-124675000D01*
G75*
G02*
X95425000Y-124537500I0J137500D01*
G01*
G37*
G36*
G01*
X94625000Y-124537500D02*
X94625000Y-123337500D01*
G75*
G02*
X94762500Y-123200000I137500J0D01*
G01*
X95037500Y-123200000D01*
G75*
G02*
X95175000Y-123337500I0J-137500D01*
G01*
X95175000Y-124537500D01*
G75*
G02*
X95037500Y-124675000I-137500J0D01*
G01*
X94762500Y-124675000D01*
G75*
G02*
X94625000Y-124537500I0J137500D01*
G01*
G37*
G36*
G01*
X93825000Y-124537500D02*
X93825000Y-123337500D01*
G75*
G02*
X93962500Y-123200000I137500J0D01*
G01*
X94237500Y-123200000D01*
G75*
G02*
X94375000Y-123337500I0J-137500D01*
G01*
X94375000Y-124537500D01*
G75*
G02*
X94237500Y-124675000I-137500J0D01*
G01*
X93962500Y-124675000D01*
G75*
G02*
X93825000Y-124537500I0J137500D01*
G01*
G37*
G36*
G01*
X93025000Y-124537500D02*
X93025000Y-123337500D01*
G75*
G02*
X93162500Y-123200000I137500J0D01*
G01*
X93437500Y-123200000D01*
G75*
G02*
X93575000Y-123337500I0J-137500D01*
G01*
X93575000Y-124537500D01*
G75*
G02*
X93437500Y-124675000I-137500J0D01*
G01*
X93162500Y-124675000D01*
G75*
G02*
X93025000Y-124537500I0J137500D01*
G01*
G37*
G36*
G01*
X92225000Y-124537500D02*
X92225000Y-123337500D01*
G75*
G02*
X92362500Y-123200000I137500J0D01*
G01*
X92637500Y-123200000D01*
G75*
G02*
X92775000Y-123337500I0J-137500D01*
G01*
X92775000Y-124537500D01*
G75*
G02*
X92637500Y-124675000I-137500J0D01*
G01*
X92362500Y-124675000D01*
G75*
G02*
X92225000Y-124537500I0J137500D01*
G01*
G37*
G36*
G01*
X91425000Y-124537500D02*
X91425000Y-123337500D01*
G75*
G02*
X91562500Y-123200000I137500J0D01*
G01*
X91837500Y-123200000D01*
G75*
G02*
X91975000Y-123337500I0J-137500D01*
G01*
X91975000Y-124537500D01*
G75*
G02*
X91837500Y-124675000I-137500J0D01*
G01*
X91562500Y-124675000D01*
G75*
G02*
X91425000Y-124537500I0J137500D01*
G01*
G37*
G36*
G01*
X90625000Y-124537500D02*
X90625000Y-123337500D01*
G75*
G02*
X90762500Y-123200000I137500J0D01*
G01*
X91037500Y-123200000D01*
G75*
G02*
X91175000Y-123337500I0J-137500D01*
G01*
X91175000Y-124537500D01*
G75*
G02*
X91037500Y-124675000I-137500J0D01*
G01*
X90762500Y-124675000D01*
G75*
G02*
X90625000Y-124537500I0J137500D01*
G01*
G37*
G36*
G01*
X89825000Y-124537500D02*
X89825000Y-123337500D01*
G75*
G02*
X89962500Y-123200000I137500J0D01*
G01*
X90237500Y-123200000D01*
G75*
G02*
X90375000Y-123337500I0J-137500D01*
G01*
X90375000Y-124537500D01*
G75*
G02*
X90237500Y-124675000I-137500J0D01*
G01*
X89962500Y-124675000D01*
G75*
G02*
X89825000Y-124537500I0J137500D01*
G01*
G37*
G36*
G01*
X89025000Y-124537500D02*
X89025000Y-123337500D01*
G75*
G02*
X89162500Y-123200000I137500J0D01*
G01*
X89437500Y-123200000D01*
G75*
G02*
X89575000Y-123337500I0J-137500D01*
G01*
X89575000Y-124537500D01*
G75*
G02*
X89437500Y-124675000I-137500J0D01*
G01*
X89162500Y-124675000D01*
G75*
G02*
X89025000Y-124537500I0J137500D01*
G01*
G37*
G36*
G01*
X88225000Y-124537500D02*
X88225000Y-123337500D01*
G75*
G02*
X88362500Y-123200000I137500J0D01*
G01*
X88637500Y-123200000D01*
G75*
G02*
X88775000Y-123337500I0J-137500D01*
G01*
X88775000Y-124537500D01*
G75*
G02*
X88637500Y-124675000I-137500J0D01*
G01*
X88362500Y-124675000D01*
G75*
G02*
X88225000Y-124537500I0J137500D01*
G01*
G37*
G36*
G01*
X87425000Y-124537500D02*
X87425000Y-123337500D01*
G75*
G02*
X87562500Y-123200000I137500J0D01*
G01*
X87837500Y-123200000D01*
G75*
G02*
X87975000Y-123337500I0J-137500D01*
G01*
X87975000Y-124537500D01*
G75*
G02*
X87837500Y-124675000I-137500J0D01*
G01*
X87562500Y-124675000D01*
G75*
G02*
X87425000Y-124537500I0J137500D01*
G01*
G37*
%TD*%
M02*
