G04 #@! TF.GenerationSoftware,KiCad,Pcbnew,5.1.10-88a1d61d58~88~ubuntu20.04.1*
G04 #@! TF.CreationDate,2021-05-20T13:29:31-04:00*
G04 #@! TF.ProjectId,hexdisplay8,68657864-6973-4706-9c61-79382e6b6963,rev?*
G04 #@! TF.SameCoordinates,Original*
G04 #@! TF.FileFunction,Soldermask,Bot*
G04 #@! TF.FilePolarity,Negative*
%FSLAX46Y46*%
G04 Gerber Fmt 4.6, Leading zero omitted, Abs format (unit mm)*
G04 Created by KiCad (PCBNEW 5.1.10-88a1d61d58~88~ubuntu20.04.1) date 2021-05-20 13:29:31*
%MOMM*%
%LPD*%
G01*
G04 APERTURE LIST*
G04 #@! TA.AperFunction,Profile*
%ADD10C,0.050000*%
G04 #@! TD*
%ADD11R,1.700000X1.700000*%
%ADD12O,1.700000X1.700000*%
G04 APERTURE END LIST*
D10*
X188000000Y-122000000D02*
X136100000Y-122000000D01*
X188000000Y-98200000D02*
X136400000Y-98200000D01*
X188000000Y-122000000D02*
X188000000Y-98200000D01*
X136100000Y-98200000D02*
X136100000Y-122000000D01*
X136400000Y-98200000D02*
X136100000Y-98200000D01*
D11*
G04 #@! TO.C,J3*
X142220000Y-110360000D03*
D12*
X142220000Y-112900000D03*
G04 #@! TD*
D11*
G04 #@! TO.C,J4*
X160000000Y-120000000D03*
D12*
X157460000Y-120000000D03*
X154920000Y-120000000D03*
X152380000Y-120000000D03*
X149840000Y-120000000D03*
X147300000Y-120000000D03*
X144760000Y-120000000D03*
X142220000Y-120000000D03*
G04 #@! TD*
D11*
G04 #@! TO.C,J5*
X138200000Y-105280000D03*
D12*
X138200000Y-107820000D03*
X138200000Y-110360000D03*
X138200000Y-112900000D03*
X138200000Y-115440000D03*
X138200000Y-117980000D03*
G04 #@! TD*
D11*
G04 #@! TO.C,J11*
X172600000Y-107400000D03*
D12*
X172600000Y-109940000D03*
X172600000Y-112480000D03*
X172600000Y-115020000D03*
X172600000Y-117560000D03*
G04 #@! TD*
G04 #@! TO.C,J12*
X177680000Y-117560000D03*
X177680000Y-115020000D03*
X177680000Y-112480000D03*
X177680000Y-109940000D03*
D11*
X177680000Y-107400000D03*
G04 #@! TD*
G04 #@! TO.C,J21*
X180400000Y-107400000D03*
D12*
X180400000Y-109940000D03*
X180400000Y-112480000D03*
X180400000Y-115020000D03*
X180400000Y-117560000D03*
G04 #@! TD*
G04 #@! TO.C,J22*
X185480000Y-117560000D03*
X185480000Y-115020000D03*
X185480000Y-112480000D03*
X185480000Y-109940000D03*
D11*
X185480000Y-107400000D03*
G04 #@! TD*
M02*
