M48
; DRILL file {KiCad 5.1.10-88a1d61d58~88~ubuntu20.04.1} date Thu May 20 13:29:35 2021
; FORMAT={-:-/ absolute / inch / decimal}
; #@! TF.CreationDate,2021-05-20T13:29:35-04:00
; #@! TF.GenerationSoftware,Kicad,Pcbnew,5.1.10-88a1d61d58~88~ubuntu20.04.1
FMAT,2
INCH
T1C0.0130
T2C0.0394
%
G90
G05
T1
X5.626Y-4.5433
X5.6339Y-4.6457
X5.6575Y-4.3465
X5.685Y-4.1457
X5.7403Y-4.3781
X5.811Y-4.1142
X5.9094Y-4.2402
X5.9606Y-4.2402
X5.9606Y-4.3346
X5.9606Y-4.4803
X6.0118Y-4.2402
X6.0315Y-4.4803
X6.0591Y-4.2402
X6.0827Y-4.0748
X6.1102Y-4.2402
X6.1614Y-4.2402
X6.2126Y-4.2402
X6.2638Y-4.2402
X6.3976Y-4.6299
X6.4094Y-4.5827
X6.4685Y-4.0866
X6.6378Y-4.4134
X6.6614Y-4.1969
X6.6654Y-4.4567
X6.6693Y-4.2638
X6.6732Y-4.4134
X6.8031Y-4.0512
X7.1142Y-4.0512
T2
X5.4409Y-4.1449
X5.4409Y-4.2449
X5.4409Y-4.3449
X5.4409Y-4.4449
X5.4409Y-4.5449
X5.4409Y-4.6449
X5.5992Y-4.3449
X5.5992Y-4.4449
X5.5992Y-4.7244
X5.6992Y-4.7244
X5.7992Y-4.7244
X5.8992Y-4.7244
X5.9992Y-4.7244
X6.0992Y-4.7244
X6.1992Y-4.7244
X6.2992Y-4.7244
X6.7953Y-4.2283
X6.7953Y-4.3283
X6.7953Y-4.4283
X6.7953Y-4.5283
X6.7953Y-4.6283
X6.9953Y-4.2283
X6.9953Y-4.3283
X6.9953Y-4.4283
X6.9953Y-4.5283
X6.9953Y-4.6283
X7.1024Y-4.2283
X7.1024Y-4.3283
X7.1024Y-4.4283
X7.1024Y-4.5283
X7.1024Y-4.6283
X7.3024Y-4.2283
X7.3024Y-4.3283
X7.3024Y-4.4283
X7.3024Y-4.5283
X7.3024Y-4.6283
T0
M30
