G04 #@! TF.GenerationSoftware,KiCad,Pcbnew,5.1.10-88a1d61d58~88~ubuntu20.04.1*
G04 #@! TF.CreationDate,2021-05-20T13:29:31-04:00*
G04 #@! TF.ProjectId,hexdisplay8,68657864-6973-4706-9c61-79382e6b6963,rev?*
G04 #@! TF.SameCoordinates,Original*
G04 #@! TF.FileFunction,Soldermask,Top*
G04 #@! TF.FilePolarity,Negative*
%FSLAX46Y46*%
G04 Gerber Fmt 4.6, Leading zero omitted, Abs format (unit mm)*
G04 Created by KiCad (PCBNEW 5.1.10-88a1d61d58~88~ubuntu20.04.1) date 2021-05-20 13:29:31*
%MOMM*%
%LPD*%
G01*
G04 APERTURE LIST*
G04 #@! TA.AperFunction,Profile*
%ADD10C,0.050000*%
G04 #@! TD*
%ADD11R,1.700000X1.700000*%
%ADD12O,1.700000X1.700000*%
%ADD13R,0.900000X0.800000*%
G04 APERTURE END LIST*
D10*
X188000000Y-122000000D02*
X136100000Y-122000000D01*
X188000000Y-98200000D02*
X136400000Y-98200000D01*
X188000000Y-122000000D02*
X188000000Y-98200000D01*
X136100000Y-98200000D02*
X136100000Y-122000000D01*
X136400000Y-98200000D02*
X136100000Y-98200000D01*
G04 #@! TO.C,C1*
G36*
G01*
X143350003Y-106462500D02*
X142049997Y-106462500D01*
G75*
G02*
X141800000Y-106212503I0J249997D01*
G01*
X141800000Y-105387497D01*
G75*
G02*
X142049997Y-105137500I249997J0D01*
G01*
X143350003Y-105137500D01*
G75*
G02*
X143600000Y-105387497I0J-249997D01*
G01*
X143600000Y-106212503D01*
G75*
G02*
X143350003Y-106462500I-249997J0D01*
G01*
G37*
G36*
G01*
X143350003Y-103337500D02*
X142049997Y-103337500D01*
G75*
G02*
X141800000Y-103087503I0J249997D01*
G01*
X141800000Y-102262497D01*
G75*
G02*
X142049997Y-102012500I249997J0D01*
G01*
X143350003Y-102012500D01*
G75*
G02*
X143600000Y-102262497I0J-249997D01*
G01*
X143600000Y-103087503D01*
G75*
G02*
X143350003Y-103337500I-249997J0D01*
G01*
G37*
G04 #@! TD*
D11*
G04 #@! TO.C,J3*
X142220000Y-110360000D03*
D12*
X142220000Y-112900000D03*
G04 #@! TD*
D11*
G04 #@! TO.C,J4*
X160000000Y-120000000D03*
D12*
X157460000Y-120000000D03*
X154920000Y-120000000D03*
X152380000Y-120000000D03*
X149840000Y-120000000D03*
X147300000Y-120000000D03*
X144760000Y-120000000D03*
X142220000Y-120000000D03*
G04 #@! TD*
D11*
G04 #@! TO.C,J5*
X138200000Y-105280000D03*
D12*
X138200000Y-107820000D03*
X138200000Y-110360000D03*
X138200000Y-112900000D03*
X138200000Y-115440000D03*
X138200000Y-117980000D03*
G04 #@! TD*
D13*
G04 #@! TO.C,Q1*
X181800000Y-101050000D03*
X181800000Y-102950000D03*
X183800000Y-102000000D03*
G04 #@! TD*
G04 #@! TO.C,Q2*
X175800000Y-102000000D03*
X173800000Y-102950000D03*
X173800000Y-101050000D03*
G04 #@! TD*
G04 #@! TO.C,R1*
G36*
G01*
X168200000Y-103049999D02*
X168200000Y-103950001D01*
G75*
G02*
X167950001Y-104200000I-249999J0D01*
G01*
X167249999Y-104200000D01*
G75*
G02*
X167000000Y-103950001I0J249999D01*
G01*
X167000000Y-103049999D01*
G75*
G02*
X167249999Y-102800000I249999J0D01*
G01*
X167950001Y-102800000D01*
G75*
G02*
X168200000Y-103049999I0J-249999D01*
G01*
G37*
G36*
G01*
X166200000Y-103049999D02*
X166200000Y-103950001D01*
G75*
G02*
X165950001Y-104200000I-249999J0D01*
G01*
X165249999Y-104200000D01*
G75*
G02*
X165000000Y-103950001I0J249999D01*
G01*
X165000000Y-103049999D01*
G75*
G02*
X165249999Y-102800000I249999J0D01*
G01*
X165950001Y-102800000D01*
G75*
G02*
X166200000Y-103049999I0J-249999D01*
G01*
G37*
G04 #@! TD*
G04 #@! TO.C,R2*
G36*
G01*
X166200000Y-105466665D02*
X166200000Y-106366667D01*
G75*
G02*
X165950001Y-106616666I-249999J0D01*
G01*
X165249999Y-106616666D01*
G75*
G02*
X165000000Y-106366667I0J249999D01*
G01*
X165000000Y-105466665D01*
G75*
G02*
X165249999Y-105216666I249999J0D01*
G01*
X165950001Y-105216666D01*
G75*
G02*
X166200000Y-105466665I0J-249999D01*
G01*
G37*
G36*
G01*
X168200000Y-105466665D02*
X168200000Y-106366667D01*
G75*
G02*
X167950001Y-106616666I-249999J0D01*
G01*
X167249999Y-106616666D01*
G75*
G02*
X167000000Y-106366667I0J249999D01*
G01*
X167000000Y-105466665D01*
G75*
G02*
X167249999Y-105216666I249999J0D01*
G01*
X167950001Y-105216666D01*
G75*
G02*
X168200000Y-105466665I0J-249999D01*
G01*
G37*
G04 #@! TD*
G04 #@! TO.C,R3*
G36*
G01*
X168200000Y-107883331D02*
X168200000Y-108783333D01*
G75*
G02*
X167950001Y-109033332I-249999J0D01*
G01*
X167249999Y-109033332D01*
G75*
G02*
X167000000Y-108783333I0J249999D01*
G01*
X167000000Y-107883331D01*
G75*
G02*
X167249999Y-107633332I249999J0D01*
G01*
X167950001Y-107633332D01*
G75*
G02*
X168200000Y-107883331I0J-249999D01*
G01*
G37*
G36*
G01*
X166200000Y-107883331D02*
X166200000Y-108783333D01*
G75*
G02*
X165950001Y-109033332I-249999J0D01*
G01*
X165249999Y-109033332D01*
G75*
G02*
X165000000Y-108783333I0J249999D01*
G01*
X165000000Y-107883331D01*
G75*
G02*
X165249999Y-107633332I249999J0D01*
G01*
X165950001Y-107633332D01*
G75*
G02*
X166200000Y-107883331I0J-249999D01*
G01*
G37*
G04 #@! TD*
G04 #@! TO.C,R4*
G36*
G01*
X166200000Y-110299997D02*
X166200000Y-111199999D01*
G75*
G02*
X165950001Y-111449998I-249999J0D01*
G01*
X165249999Y-111449998D01*
G75*
G02*
X165000000Y-111199999I0J249999D01*
G01*
X165000000Y-110299997D01*
G75*
G02*
X165249999Y-110049998I249999J0D01*
G01*
X165950001Y-110049998D01*
G75*
G02*
X166200000Y-110299997I0J-249999D01*
G01*
G37*
G36*
G01*
X168200000Y-110299997D02*
X168200000Y-111199999D01*
G75*
G02*
X167950001Y-111449998I-249999J0D01*
G01*
X167249999Y-111449998D01*
G75*
G02*
X167000000Y-111199999I0J249999D01*
G01*
X167000000Y-110299997D01*
G75*
G02*
X167249999Y-110049998I249999J0D01*
G01*
X167950001Y-110049998D01*
G75*
G02*
X168200000Y-110299997I0J-249999D01*
G01*
G37*
G04 #@! TD*
G04 #@! TO.C,R5*
G36*
G01*
X168200000Y-112716663D02*
X168200000Y-113616665D01*
G75*
G02*
X167950001Y-113866664I-249999J0D01*
G01*
X167249999Y-113866664D01*
G75*
G02*
X167000000Y-113616665I0J249999D01*
G01*
X167000000Y-112716663D01*
G75*
G02*
X167249999Y-112466664I249999J0D01*
G01*
X167950001Y-112466664D01*
G75*
G02*
X168200000Y-112716663I0J-249999D01*
G01*
G37*
G36*
G01*
X166200000Y-112716663D02*
X166200000Y-113616665D01*
G75*
G02*
X165950001Y-113866664I-249999J0D01*
G01*
X165249999Y-113866664D01*
G75*
G02*
X165000000Y-113616665I0J249999D01*
G01*
X165000000Y-112716663D01*
G75*
G02*
X165249999Y-112466664I249999J0D01*
G01*
X165950001Y-112466664D01*
G75*
G02*
X166200000Y-112716663I0J-249999D01*
G01*
G37*
G04 #@! TD*
G04 #@! TO.C,R6*
G36*
G01*
X166200000Y-115133329D02*
X166200000Y-116033331D01*
G75*
G02*
X165950001Y-116283330I-249999J0D01*
G01*
X165249999Y-116283330D01*
G75*
G02*
X165000000Y-116033331I0J249999D01*
G01*
X165000000Y-115133329D01*
G75*
G02*
X165249999Y-114883330I249999J0D01*
G01*
X165950001Y-114883330D01*
G75*
G02*
X166200000Y-115133329I0J-249999D01*
G01*
G37*
G36*
G01*
X168200000Y-115133329D02*
X168200000Y-116033331D01*
G75*
G02*
X167950001Y-116283330I-249999J0D01*
G01*
X167249999Y-116283330D01*
G75*
G02*
X167000000Y-116033331I0J249999D01*
G01*
X167000000Y-115133329D01*
G75*
G02*
X167249999Y-114883330I249999J0D01*
G01*
X167950001Y-114883330D01*
G75*
G02*
X168200000Y-115133329I0J-249999D01*
G01*
G37*
G04 #@! TD*
G04 #@! TO.C,R7*
G36*
G01*
X168200000Y-117549999D02*
X168200000Y-118450001D01*
G75*
G02*
X167950001Y-118700000I-249999J0D01*
G01*
X167249999Y-118700000D01*
G75*
G02*
X167000000Y-118450001I0J249999D01*
G01*
X167000000Y-117549999D01*
G75*
G02*
X167249999Y-117300000I249999J0D01*
G01*
X167950001Y-117300000D01*
G75*
G02*
X168200000Y-117549999I0J-249999D01*
G01*
G37*
G36*
G01*
X166200000Y-117549999D02*
X166200000Y-118450001D01*
G75*
G02*
X165950001Y-118700000I-249999J0D01*
G01*
X165249999Y-118700000D01*
G75*
G02*
X165000000Y-118450001I0J249999D01*
G01*
X165000000Y-117549999D01*
G75*
G02*
X165249999Y-117300000I249999J0D01*
G01*
X165950001Y-117300000D01*
G75*
G02*
X166200000Y-117549999I0J-249999D01*
G01*
G37*
G04 #@! TD*
G04 #@! TO.C,R8*
G36*
G01*
X149300000Y-101849999D02*
X149300000Y-102750001D01*
G75*
G02*
X149050001Y-103000000I-249999J0D01*
G01*
X148349999Y-103000000D01*
G75*
G02*
X148100000Y-102750001I0J249999D01*
G01*
X148100000Y-101849999D01*
G75*
G02*
X148349999Y-101600000I249999J0D01*
G01*
X149050001Y-101600000D01*
G75*
G02*
X149300000Y-101849999I0J-249999D01*
G01*
G37*
G36*
G01*
X151300000Y-101849999D02*
X151300000Y-102750001D01*
G75*
G02*
X151050001Y-103000000I-249999J0D01*
G01*
X150349999Y-103000000D01*
G75*
G02*
X150100000Y-102750001I0J249999D01*
G01*
X150100000Y-101849999D01*
G75*
G02*
X150349999Y-101600000I249999J0D01*
G01*
X151050001Y-101600000D01*
G75*
G02*
X151300000Y-101849999I0J-249999D01*
G01*
G37*
G04 #@! TD*
G04 #@! TO.C,R9*
G36*
G01*
X158500000Y-101749999D02*
X158500000Y-102650001D01*
G75*
G02*
X158250001Y-102900000I-249999J0D01*
G01*
X157549999Y-102900000D01*
G75*
G02*
X157300000Y-102650001I0J249999D01*
G01*
X157300000Y-101749999D01*
G75*
G02*
X157549999Y-101500000I249999J0D01*
G01*
X158250001Y-101500000D01*
G75*
G02*
X158500000Y-101749999I0J-249999D01*
G01*
G37*
G36*
G01*
X156500000Y-101749999D02*
X156500000Y-102650001D01*
G75*
G02*
X156250001Y-102900000I-249999J0D01*
G01*
X155549999Y-102900000D01*
G75*
G02*
X155300000Y-102650001I0J249999D01*
G01*
X155300000Y-101749999D01*
G75*
G02*
X155549999Y-101500000I249999J0D01*
G01*
X156250001Y-101500000D01*
G75*
G02*
X156500000Y-101749999I0J-249999D01*
G01*
G37*
G04 #@! TD*
G04 #@! TO.C,U1*
G36*
G01*
X147735000Y-116475000D02*
X147435000Y-116475000D01*
G75*
G02*
X147285000Y-116325000I0J150000D01*
G01*
X147285000Y-114575000D01*
G75*
G02*
X147435000Y-114425000I150000J0D01*
G01*
X147735000Y-114425000D01*
G75*
G02*
X147885000Y-114575000I0J-150000D01*
G01*
X147885000Y-116325000D01*
G75*
G02*
X147735000Y-116475000I-150000J0D01*
G01*
G37*
G36*
G01*
X149005000Y-116475000D02*
X148705000Y-116475000D01*
G75*
G02*
X148555000Y-116325000I0J150000D01*
G01*
X148555000Y-114575000D01*
G75*
G02*
X148705000Y-114425000I150000J0D01*
G01*
X149005000Y-114425000D01*
G75*
G02*
X149155000Y-114575000I0J-150000D01*
G01*
X149155000Y-116325000D01*
G75*
G02*
X149005000Y-116475000I-150000J0D01*
G01*
G37*
G36*
G01*
X150275000Y-116475000D02*
X149975000Y-116475000D01*
G75*
G02*
X149825000Y-116325000I0J150000D01*
G01*
X149825000Y-114575000D01*
G75*
G02*
X149975000Y-114425000I150000J0D01*
G01*
X150275000Y-114425000D01*
G75*
G02*
X150425000Y-114575000I0J-150000D01*
G01*
X150425000Y-116325000D01*
G75*
G02*
X150275000Y-116475000I-150000J0D01*
G01*
G37*
G36*
G01*
X151545000Y-116475000D02*
X151245000Y-116475000D01*
G75*
G02*
X151095000Y-116325000I0J150000D01*
G01*
X151095000Y-114575000D01*
G75*
G02*
X151245000Y-114425000I150000J0D01*
G01*
X151545000Y-114425000D01*
G75*
G02*
X151695000Y-114575000I0J-150000D01*
G01*
X151695000Y-116325000D01*
G75*
G02*
X151545000Y-116475000I-150000J0D01*
G01*
G37*
G36*
G01*
X152815000Y-116475000D02*
X152515000Y-116475000D01*
G75*
G02*
X152365000Y-116325000I0J150000D01*
G01*
X152365000Y-114575000D01*
G75*
G02*
X152515000Y-114425000I150000J0D01*
G01*
X152815000Y-114425000D01*
G75*
G02*
X152965000Y-114575000I0J-150000D01*
G01*
X152965000Y-116325000D01*
G75*
G02*
X152815000Y-116475000I-150000J0D01*
G01*
G37*
G36*
G01*
X154085000Y-116475000D02*
X153785000Y-116475000D01*
G75*
G02*
X153635000Y-116325000I0J150000D01*
G01*
X153635000Y-114575000D01*
G75*
G02*
X153785000Y-114425000I150000J0D01*
G01*
X154085000Y-114425000D01*
G75*
G02*
X154235000Y-114575000I0J-150000D01*
G01*
X154235000Y-116325000D01*
G75*
G02*
X154085000Y-116475000I-150000J0D01*
G01*
G37*
G36*
G01*
X155355000Y-116475000D02*
X155055000Y-116475000D01*
G75*
G02*
X154905000Y-116325000I0J150000D01*
G01*
X154905000Y-114575000D01*
G75*
G02*
X155055000Y-114425000I150000J0D01*
G01*
X155355000Y-114425000D01*
G75*
G02*
X155505000Y-114575000I0J-150000D01*
G01*
X155505000Y-116325000D01*
G75*
G02*
X155355000Y-116475000I-150000J0D01*
G01*
G37*
G36*
G01*
X156625000Y-116475000D02*
X156325000Y-116475000D01*
G75*
G02*
X156175000Y-116325000I0J150000D01*
G01*
X156175000Y-114575000D01*
G75*
G02*
X156325000Y-114425000I150000J0D01*
G01*
X156625000Y-114425000D01*
G75*
G02*
X156775000Y-114575000I0J-150000D01*
G01*
X156775000Y-116325000D01*
G75*
G02*
X156625000Y-116475000I-150000J0D01*
G01*
G37*
G36*
G01*
X157895000Y-116475000D02*
X157595000Y-116475000D01*
G75*
G02*
X157445000Y-116325000I0J150000D01*
G01*
X157445000Y-114575000D01*
G75*
G02*
X157595000Y-114425000I150000J0D01*
G01*
X157895000Y-114425000D01*
G75*
G02*
X158045000Y-114575000I0J-150000D01*
G01*
X158045000Y-116325000D01*
G75*
G02*
X157895000Y-116475000I-150000J0D01*
G01*
G37*
G36*
G01*
X159165000Y-116475000D02*
X158865000Y-116475000D01*
G75*
G02*
X158715000Y-116325000I0J150000D01*
G01*
X158715000Y-114575000D01*
G75*
G02*
X158865000Y-114425000I150000J0D01*
G01*
X159165000Y-114425000D01*
G75*
G02*
X159315000Y-114575000I0J-150000D01*
G01*
X159315000Y-116325000D01*
G75*
G02*
X159165000Y-116475000I-150000J0D01*
G01*
G37*
G36*
G01*
X159165000Y-107175000D02*
X158865000Y-107175000D01*
G75*
G02*
X158715000Y-107025000I0J150000D01*
G01*
X158715000Y-105275000D01*
G75*
G02*
X158865000Y-105125000I150000J0D01*
G01*
X159165000Y-105125000D01*
G75*
G02*
X159315000Y-105275000I0J-150000D01*
G01*
X159315000Y-107025000D01*
G75*
G02*
X159165000Y-107175000I-150000J0D01*
G01*
G37*
G36*
G01*
X157895000Y-107175000D02*
X157595000Y-107175000D01*
G75*
G02*
X157445000Y-107025000I0J150000D01*
G01*
X157445000Y-105275000D01*
G75*
G02*
X157595000Y-105125000I150000J0D01*
G01*
X157895000Y-105125000D01*
G75*
G02*
X158045000Y-105275000I0J-150000D01*
G01*
X158045000Y-107025000D01*
G75*
G02*
X157895000Y-107175000I-150000J0D01*
G01*
G37*
G36*
G01*
X156625000Y-107175000D02*
X156325000Y-107175000D01*
G75*
G02*
X156175000Y-107025000I0J150000D01*
G01*
X156175000Y-105275000D01*
G75*
G02*
X156325000Y-105125000I150000J0D01*
G01*
X156625000Y-105125000D01*
G75*
G02*
X156775000Y-105275000I0J-150000D01*
G01*
X156775000Y-107025000D01*
G75*
G02*
X156625000Y-107175000I-150000J0D01*
G01*
G37*
G36*
G01*
X155355000Y-107175000D02*
X155055000Y-107175000D01*
G75*
G02*
X154905000Y-107025000I0J150000D01*
G01*
X154905000Y-105275000D01*
G75*
G02*
X155055000Y-105125000I150000J0D01*
G01*
X155355000Y-105125000D01*
G75*
G02*
X155505000Y-105275000I0J-150000D01*
G01*
X155505000Y-107025000D01*
G75*
G02*
X155355000Y-107175000I-150000J0D01*
G01*
G37*
G36*
G01*
X154085000Y-107175000D02*
X153785000Y-107175000D01*
G75*
G02*
X153635000Y-107025000I0J150000D01*
G01*
X153635000Y-105275000D01*
G75*
G02*
X153785000Y-105125000I150000J0D01*
G01*
X154085000Y-105125000D01*
G75*
G02*
X154235000Y-105275000I0J-150000D01*
G01*
X154235000Y-107025000D01*
G75*
G02*
X154085000Y-107175000I-150000J0D01*
G01*
G37*
G36*
G01*
X152815000Y-107175000D02*
X152515000Y-107175000D01*
G75*
G02*
X152365000Y-107025000I0J150000D01*
G01*
X152365000Y-105275000D01*
G75*
G02*
X152515000Y-105125000I150000J0D01*
G01*
X152815000Y-105125000D01*
G75*
G02*
X152965000Y-105275000I0J-150000D01*
G01*
X152965000Y-107025000D01*
G75*
G02*
X152815000Y-107175000I-150000J0D01*
G01*
G37*
G36*
G01*
X151545000Y-107175000D02*
X151245000Y-107175000D01*
G75*
G02*
X151095000Y-107025000I0J150000D01*
G01*
X151095000Y-105275000D01*
G75*
G02*
X151245000Y-105125000I150000J0D01*
G01*
X151545000Y-105125000D01*
G75*
G02*
X151695000Y-105275000I0J-150000D01*
G01*
X151695000Y-107025000D01*
G75*
G02*
X151545000Y-107175000I-150000J0D01*
G01*
G37*
G36*
G01*
X150275000Y-107175000D02*
X149975000Y-107175000D01*
G75*
G02*
X149825000Y-107025000I0J150000D01*
G01*
X149825000Y-105275000D01*
G75*
G02*
X149975000Y-105125000I150000J0D01*
G01*
X150275000Y-105125000D01*
G75*
G02*
X150425000Y-105275000I0J-150000D01*
G01*
X150425000Y-107025000D01*
G75*
G02*
X150275000Y-107175000I-150000J0D01*
G01*
G37*
G36*
G01*
X149005000Y-107175000D02*
X148705000Y-107175000D01*
G75*
G02*
X148555000Y-107025000I0J150000D01*
G01*
X148555000Y-105275000D01*
G75*
G02*
X148705000Y-105125000I150000J0D01*
G01*
X149005000Y-105125000D01*
G75*
G02*
X149155000Y-105275000I0J-150000D01*
G01*
X149155000Y-107025000D01*
G75*
G02*
X149005000Y-107175000I-150000J0D01*
G01*
G37*
G36*
G01*
X147735000Y-107175000D02*
X147435000Y-107175000D01*
G75*
G02*
X147285000Y-107025000I0J150000D01*
G01*
X147285000Y-105275000D01*
G75*
G02*
X147435000Y-105125000I150000J0D01*
G01*
X147735000Y-105125000D01*
G75*
G02*
X147885000Y-105275000I0J-150000D01*
G01*
X147885000Y-107025000D01*
G75*
G02*
X147735000Y-107175000I-150000J0D01*
G01*
G37*
G04 #@! TD*
D11*
G04 #@! TO.C,J11*
X172600000Y-107400000D03*
D12*
X172600000Y-109940000D03*
X172600000Y-112480000D03*
X172600000Y-115020000D03*
X172600000Y-117560000D03*
G04 #@! TD*
G04 #@! TO.C,J12*
X177680000Y-117560000D03*
X177680000Y-115020000D03*
X177680000Y-112480000D03*
X177680000Y-109940000D03*
D11*
X177680000Y-107400000D03*
G04 #@! TD*
G04 #@! TO.C,J21*
X180400000Y-107400000D03*
D12*
X180400000Y-109940000D03*
X180400000Y-112480000D03*
X180400000Y-115020000D03*
X180400000Y-117560000D03*
G04 #@! TD*
G04 #@! TO.C,J22*
X185480000Y-117560000D03*
X185480000Y-115020000D03*
X185480000Y-112480000D03*
X185480000Y-109940000D03*
D11*
X185480000Y-107400000D03*
G04 #@! TD*
M02*
