%TF.GenerationSoftware,KiCad,Pcbnew,5.1.10-88a1d61d58~88~ubuntu20.04.1*%
%TF.CreationDate,2021-05-20T12:50:06-04:00*%
%TF.ProjectId,hexdisplay8,68657864-6973-4706-9c61-79382e6b6963,rev?*%
%TF.SameCoordinates,Original*%
%TF.FileFunction,Copper,L2,Bot*%
%TF.FilePolarity,Positive*%
%FSLAX46Y46*%
G04 Gerber Fmt 4.6, Leading zero omitted, Abs format (unit mm)*
G04 Created by KiCad (PCBNEW 5.1.10-88a1d61d58~88~ubuntu20.04.1) date 2021-05-20 12:50:06*
%MOMM*%
%LPD*%
G01*
G04 APERTURE LIST*
%TA.AperFunction,ComponentPad*%
%ADD10R,1.700000X1.700000*%
%TD*%
%TA.AperFunction,ComponentPad*%
%ADD11O,1.700000X1.700000*%
%TD*%
%TA.AperFunction,ViaPad*%
%ADD12C,0.685800*%
%TD*%
%TA.AperFunction,Conductor*%
%ADD13C,0.254000*%
%TD*%
%TA.AperFunction,Conductor*%
%ADD14C,0.152400*%
%TD*%
%TA.AperFunction,NonConductor*%
%ADD15C,0.254000*%
%TD*%
%TA.AperFunction,NonConductor*%
%ADD16C,0.100000*%
%TD*%
G04 APERTURE END LIST*
D10*
%TO.P,J3,1*%
%TO.N,GND*%
X142220000Y-110360000D03*
D11*
%TO.P,J3,2*%
%TO.N,VCC*%
X142220000Y-112900000D03*
%TD*%
D10*
%TO.P,J4,1*%
%TO.N,/D0*%
X160000000Y-120000000D03*
D11*
%TO.P,J4,2*%
%TO.N,/D1*%
X157460000Y-120000000D03*
%TO.P,J4,3*%
%TO.N,/D2*%
X154920000Y-120000000D03*
%TO.P,J4,4*%
%TO.N,/D3*%
X152380000Y-120000000D03*
%TO.P,J4,5*%
%TO.N,/D4*%
X149840000Y-120000000D03*
%TO.P,J4,6*%
%TO.N,/D5*%
X147300000Y-120000000D03*
%TO.P,J4,7*%
%TO.N,/D6*%
X144760000Y-120000000D03*
%TO.P,J4,8*%
%TO.N,/D7*%
X142220000Y-120000000D03*
%TD*%
D10*
%TO.P,J5,1*%
%TO.N,GND*%
X138200000Y-105280000D03*
D11*
%TO.P,J5,2*%
%TO.N,VCC*%
X138200000Y-107820000D03*
%TO.P,J5,3*%
%TO.N,/D6*%
X138200000Y-110360000D03*
%TO.P,J5,4*%
%TO.N,/D7*%
X138200000Y-112900000D03*
%TO.P,J5,5*%
%TO.N,/~RESET*%
X138200000Y-115440000D03*
%TO.P,J5,6*%
%TO.N,/D5*%
X138200000Y-117980000D03*
%TD*%
D10*
%TO.P,J11,1*%
%TO.N,/CA2*%
X172600000Y-107400000D03*
D11*
%TO.P,J11,2*%
%TO.N,/F*%
X172600000Y-109940000D03*
%TO.P,J11,3*%
%TO.N,/G*%
X172600000Y-112480000D03*
%TO.P,J11,4*%
%TO.N,/E*%
X172600000Y-115020000D03*
%TO.P,J11,5*%
%TO.N,/D*%
X172600000Y-117560000D03*
%TD*%
%TO.P,J12,5*%
%TO.N,/CA2*%
X177680000Y-117560000D03*
%TO.P,J12,4*%
%TO.N,Net-(J12-Pad4)*%
X177680000Y-115020000D03*
%TO.P,J12,3*%
%TO.N,/C*%
X177680000Y-112480000D03*
%TO.P,J12,2*%
%TO.N,/B*%
X177680000Y-109940000D03*
D10*
%TO.P,J12,1*%
%TO.N,/A*%
X177680000Y-107400000D03*
%TD*%
%TO.P,J21,1*%
%TO.N,/CA1*%
X180400000Y-107400000D03*
D11*
%TO.P,J21,2*%
%TO.N,/F*%
X180400000Y-109940000D03*
%TO.P,J21,3*%
%TO.N,/G*%
X180400000Y-112480000D03*
%TO.P,J21,4*%
%TO.N,/E*%
X180400000Y-115020000D03*
%TO.P,J21,5*%
%TO.N,/D*%
X180400000Y-117560000D03*
%TD*%
%TO.P,J22,5*%
%TO.N,/CA1*%
X185480000Y-117560000D03*
%TO.P,J22,4*%
%TO.N,Net-(J22-Pad4)*%
X185480000Y-115020000D03*
%TO.P,J22,3*%
%TO.N,/C*%
X185480000Y-112480000D03*
%TO.P,J22,2*%
%TO.N,/B*%
X185480000Y-109940000D03*
D10*
%TO.P,J22,1*%
%TO.N,/A*%
X185480000Y-107400000D03*
%TD*%
D12*
%TO.N,GND*%
X143700000Y-110400000D03*
X144400000Y-105300000D03*
X145804112Y-111204112D03*
%TO.N,/A*%
X169200000Y-106600000D03*
%TO.N,/D*%
X168600000Y-112100000D03*
%TO.N,/B*%
X169400000Y-108300000D03*
%TO.N,/E*%
X169300000Y-113200000D03*
%TO.N,/C*%
X169500000Y-112100000D03*
%TO.N,/D0*%
X157800000Y-107700000D03*
%TO.N,/D1*%
X156500000Y-107700000D03*
%TO.N,/D2*%
X155200000Y-107700000D03*
%TO.N,/D3*%
X153900000Y-107700000D03*
%TO.N,/D4*%
X152700000Y-107700000D03*
%TO.N,/D5*%
X151400000Y-107700000D03*
X143100000Y-118000000D03*
%TO.N,/D6*%
X150100000Y-107700000D03*
%TO.N,/~RESET*%
X142900000Y-115400000D03*
%TO.N,Net-(R1-Pad2)*%
X162500000Y-117600000D03*
X164300000Y-103800000D03*
%TO.N,Net-(R7-Pad2)*%
X162800000Y-116400000D03*
X159100000Y-107700000D03*
%TO.N,Net-(R8-Pad2)*%
X151400000Y-113800000D03*
X151400000Y-110100000D03*
%TO.N,Net-(R9-Pad2)*%
X153200000Y-113800000D03*
X154500000Y-103500000D03*
%TO.N,VCC*%
X147600000Y-104500000D03*
X172800000Y-102900000D03*
X180700000Y-102900000D03*
%TD*%
D13*
%TO.N,GND*%
X143700000Y-110400000D02*
X144400000Y-109700000D01*
X144400000Y-109700000D02*
X144400000Y-105300000D01*
X145804112Y-111204112D02*
X145000000Y-110400000D01*
X145000000Y-110400000D02*
X143700000Y-110400000D01*
D14*
%TO.N,/A*%
X176601399Y-108478601D02*
X177680000Y-107400000D01*
X171078601Y-108478601D02*
X176601399Y-108478601D01*
X169200000Y-106600000D02*
X171078601Y-108478601D01*
X177680000Y-107400000D02*
X177680000Y-107480000D01*
X184401399Y-108478601D02*
X185480000Y-107400000D01*
X178678601Y-108478601D02*
X184401399Y-108478601D01*
X177680000Y-107480000D02*
X178678601Y-108478601D01*
%TO.N,/D*%
X168600000Y-112100000D02*
X168600000Y-115600000D01*
X170560000Y-117560000D02*
X172600000Y-117560000D01*
X168600000Y-115600000D02*
X170560000Y-117560000D01*
X172600000Y-117560000D02*
X172600000Y-118500000D01*
X172600000Y-118500000D02*
X173400000Y-119300000D01*
X173400000Y-119300000D02*
X179700000Y-119300000D01*
X180400000Y-118600000D02*
X180400000Y-117560000D01*
X179700000Y-119300000D02*
X180400000Y-118600000D01*
%TO.N,/B*%
X169961399Y-108861399D02*
X173161399Y-108861399D01*
X169400000Y-108300000D02*
X169961399Y-108861399D01*
X173161399Y-108861399D02*
X173200000Y-108900000D01*
X176640000Y-108900000D02*
X177680000Y-109940000D01*
X173200000Y-108900000D02*
X176640000Y-108900000D01*
X184401399Y-108861399D02*
X185480000Y-109940000D01*
X178758601Y-108861399D02*
X184401399Y-108861399D01*
X177680000Y-109940000D02*
X178758601Y-108861399D01*
%TO.N,/E*%
X169720000Y-115020000D02*
X172600000Y-115020000D01*
X172600000Y-115020000D02*
X173700000Y-116120000D01*
X179300000Y-116120000D02*
X180400000Y-115020000D01*
X173700000Y-116120000D02*
X179300000Y-116120000D01*
X169300000Y-113200000D02*
X169300000Y-114700000D01*
X169620000Y-115020000D02*
X169720000Y-115020000D01*
X169300000Y-114700000D02*
X169620000Y-115020000D01*
%TO.N,/C*%
X177100000Y-113700000D02*
X177680000Y-113120000D01*
X177680000Y-113120000D02*
X177680000Y-112480000D01*
X171100000Y-113700000D02*
X177100000Y-113700000D01*
X169500000Y-112100000D02*
X171100000Y-113700000D01*
X177680000Y-112480000D02*
X177680000Y-113180000D01*
X177680000Y-113180000D02*
X178200000Y-113700000D01*
X184260000Y-113700000D02*
X185480000Y-112480000D01*
X178200000Y-113700000D02*
X184260000Y-113700000D01*
%TO.N,/G*%
X172600000Y-112480000D02*
X175720000Y-112480000D01*
X179321399Y-111401399D02*
X180400000Y-112480000D01*
X176798601Y-111401399D02*
X179321399Y-111401399D01*
X175720000Y-112480000D02*
X176798601Y-111401399D01*
%TO.N,/F*%
X172600000Y-109940000D02*
X173660000Y-111000000D01*
X179321399Y-111018601D02*
X180400000Y-109940000D01*
X177143670Y-111000000D02*
X177162271Y-111018601D01*
X177162271Y-111018601D02*
X179321399Y-111018601D01*
X173660000Y-111000000D02*
X177143670Y-111000000D01*
%TO.N,/D0*%
X157800000Y-117800000D02*
X160000000Y-120000000D01*
X157800000Y-107700000D02*
X157800000Y-117800000D01*
%TO.N,/D1*%
X156500000Y-119040000D02*
X157460000Y-120000000D01*
X156500000Y-107700000D02*
X156500000Y-119040000D01*
%TO.N,/D2*%
X155200000Y-107700000D02*
X155100000Y-107700000D01*
X155100000Y-107700000D02*
X154900000Y-107900000D01*
X154900000Y-119980000D02*
X154920000Y-120000000D01*
X154900000Y-107900000D02*
X154900000Y-119980000D01*
%TO.N,/D3*%
X152380000Y-109220000D02*
X152380000Y-120000000D01*
X153900000Y-107700000D02*
X152380000Y-109220000D01*
%TO.N,/D4*%
X149840000Y-110560000D02*
X149840000Y-120000000D01*
X152700000Y-107700000D02*
X149840000Y-110560000D01*
%TO.N,/D5*%
X151400000Y-107700000D02*
X151400000Y-108000000D01*
X151400000Y-108000000D02*
X147300000Y-112100000D01*
X147300000Y-112100000D02*
X147300000Y-120000000D01*
X138220000Y-118000000D02*
X138200000Y-117980000D01*
X143100000Y-118000000D02*
X138220000Y-118000000D01*
%TO.N,/D6*%
X150100000Y-107700000D02*
X150100000Y-108600000D01*
X150100000Y-108600000D02*
X144760000Y-113940000D01*
X138200000Y-110360000D02*
X138200000Y-110476330D01*
X144720000Y-114200000D02*
X144760000Y-114240000D01*
X144760000Y-114240000D02*
X144760000Y-120000000D01*
X144760000Y-113940000D02*
X144760000Y-114240000D01*
X138200000Y-110360000D02*
X139600000Y-111760000D01*
X139600000Y-111760000D02*
X139600000Y-113200000D01*
X140600000Y-114200000D02*
X142000000Y-114200000D01*
X139600000Y-113200000D02*
X140600000Y-114200000D01*
X142000000Y-114200000D02*
X144720000Y-114200000D01*
X141923670Y-114200000D02*
X142000000Y-114200000D01*
%TO.N,/~RESET*%
X138240000Y-115400000D02*
X138200000Y-115440000D01*
X142900000Y-115400000D02*
X138240000Y-115400000D01*
%TO.N,Net-(R1-Pad2)*%
X162500000Y-117600000D02*
X163100000Y-117600000D01*
X163100000Y-117600000D02*
X164300000Y-116400000D01*
X164300000Y-116400000D02*
X164300000Y-103800000D01*
%TO.N,Net-(R7-Pad2)*%
X162800000Y-116400000D02*
X159100000Y-112700000D01*
X159100000Y-112700000D02*
X159100000Y-107700000D01*
%TO.N,Net-(R8-Pad2)*%
X151400000Y-113800000D02*
X151400000Y-110100000D01*
%TO.N,Net-(R9-Pad2)*%
X154500000Y-112500000D02*
X154500000Y-103500000D01*
X153200000Y-113800000D02*
X154500000Y-112500000D01*
D13*
%TO.N,VCC*%
X147600000Y-104500000D02*
X151300000Y-104500000D01*
X151300000Y-104500000D02*
X152922301Y-102877699D01*
D14*
X172777699Y-102877699D02*
X172800000Y-102900000D01*
D13*
X152922301Y-102877699D02*
X172777699Y-102877699D01*
X172800000Y-102900000D02*
X180700000Y-102900000D01*
%TD*%
D15*
X136772068Y-118413158D02*
X136884010Y-118683411D01*
X137046525Y-118926632D01*
X137253368Y-119133475D01*
X137496589Y-119295990D01*
X137766842Y-119407932D01*
X138053740Y-119465000D01*
X138346260Y-119465000D01*
X138633158Y-119407932D01*
X138903411Y-119295990D01*
X139146632Y-119133475D01*
X139353475Y-118926632D01*
X139497422Y-118711200D01*
X141475896Y-118711200D01*
X141273368Y-118846525D01*
X141066525Y-119053368D01*
X140904010Y-119296589D01*
X140792068Y-119566842D01*
X140735000Y-119853740D01*
X140735000Y-120146260D01*
X140792068Y-120433158D01*
X140904010Y-120703411D01*
X141066525Y-120946632D01*
X141273368Y-121153475D01*
X141516589Y-121315990D01*
X141574555Y-121340000D01*
X136760000Y-121340000D01*
X136760000Y-118352489D01*
X136772068Y-118413158D01*
%TA.AperFunction,NonConductor*%
D16*
G36*
X136772068Y-118413158D02*
G01*
X136884010Y-118683411D01*
X137046525Y-118926632D01*
X137253368Y-119133475D01*
X137496589Y-119295990D01*
X137766842Y-119407932D01*
X138053740Y-119465000D01*
X138346260Y-119465000D01*
X138633158Y-119407932D01*
X138903411Y-119295990D01*
X139146632Y-119133475D01*
X139353475Y-118926632D01*
X139497422Y-118711200D01*
X141475896Y-118711200D01*
X141273368Y-118846525D01*
X141066525Y-119053368D01*
X140904010Y-119296589D01*
X140792068Y-119566842D01*
X140735000Y-119853740D01*
X140735000Y-120146260D01*
X140792068Y-120433158D01*
X140904010Y-120703411D01*
X141066525Y-120946632D01*
X141273368Y-121153475D01*
X141516589Y-121315990D01*
X141574555Y-121340000D01*
X136760000Y-121340000D01*
X136760000Y-118352489D01*
X136772068Y-118413158D01*
G37*
%TD.AperFunction*%
D15*
X143606525Y-120946632D02*
X143813368Y-121153475D01*
X144056589Y-121315990D01*
X144114555Y-121340000D01*
X142865445Y-121340000D01*
X142923411Y-121315990D01*
X143166632Y-121153475D01*
X143373475Y-120946632D01*
X143490000Y-120772240D01*
X143606525Y-120946632D01*
%TA.AperFunction,NonConductor*%
D16*
G36*
X143606525Y-120946632D02*
G01*
X143813368Y-121153475D01*
X144056589Y-121315990D01*
X144114555Y-121340000D01*
X142865445Y-121340000D01*
X142923411Y-121315990D01*
X143166632Y-121153475D01*
X143373475Y-120946632D01*
X143490000Y-120772240D01*
X143606525Y-120946632D01*
G37*
%TD.AperFunction*%
D15*
X146146525Y-120946632D02*
X146353368Y-121153475D01*
X146596589Y-121315990D01*
X146654555Y-121340000D01*
X145405445Y-121340000D01*
X145463411Y-121315990D01*
X145706632Y-121153475D01*
X145913475Y-120946632D01*
X146030000Y-120772240D01*
X146146525Y-120946632D01*
%TA.AperFunction,NonConductor*%
D16*
G36*
X146146525Y-120946632D02*
G01*
X146353368Y-121153475D01*
X146596589Y-121315990D01*
X146654555Y-121340000D01*
X145405445Y-121340000D01*
X145463411Y-121315990D01*
X145706632Y-121153475D01*
X145913475Y-120946632D01*
X146030000Y-120772240D01*
X146146525Y-120946632D01*
G37*
%TD.AperFunction*%
D15*
X148686525Y-120946632D02*
X148893368Y-121153475D01*
X149136589Y-121315990D01*
X149194555Y-121340000D01*
X147945445Y-121340000D01*
X148003411Y-121315990D01*
X148246632Y-121153475D01*
X148453475Y-120946632D01*
X148570000Y-120772240D01*
X148686525Y-120946632D01*
%TA.AperFunction,NonConductor*%
D16*
G36*
X148686525Y-120946632D02*
G01*
X148893368Y-121153475D01*
X149136589Y-121315990D01*
X149194555Y-121340000D01*
X147945445Y-121340000D01*
X148003411Y-121315990D01*
X148246632Y-121153475D01*
X148453475Y-120946632D01*
X148570000Y-120772240D01*
X148686525Y-120946632D01*
G37*
%TD.AperFunction*%
D15*
X153766525Y-120946632D02*
X153973368Y-121153475D01*
X154216589Y-121315990D01*
X154274555Y-121340000D01*
X153025445Y-121340000D01*
X153083411Y-121315990D01*
X153326632Y-121153475D01*
X153533475Y-120946632D01*
X153650000Y-120772240D01*
X153766525Y-120946632D01*
%TA.AperFunction,NonConductor*%
D16*
G36*
X153766525Y-120946632D02*
G01*
X153973368Y-121153475D01*
X154216589Y-121315990D01*
X154274555Y-121340000D01*
X153025445Y-121340000D01*
X153083411Y-121315990D01*
X153326632Y-121153475D01*
X153533475Y-120946632D01*
X153650000Y-120772240D01*
X153766525Y-120946632D01*
G37*
%TD.AperFunction*%
D15*
X158560498Y-121094180D02*
X158619463Y-121204494D01*
X158698815Y-121301185D01*
X158746111Y-121340000D01*
X158105445Y-121340000D01*
X158163411Y-121315990D01*
X158406632Y-121153475D01*
X158538487Y-121021620D01*
X158560498Y-121094180D01*
%TA.AperFunction,NonConductor*%
D16*
G36*
X158560498Y-121094180D02*
G01*
X158619463Y-121204494D01*
X158698815Y-121301185D01*
X158746111Y-121340000D01*
X158105445Y-121340000D01*
X158163411Y-121315990D01*
X158406632Y-121153475D01*
X158538487Y-121021620D01*
X158560498Y-121094180D01*
G37*
%TD.AperFunction*%
D15*
X156306525Y-120946632D02*
X156513368Y-121153475D01*
X156756589Y-121315990D01*
X156814555Y-121340000D01*
X155565445Y-121340000D01*
X155623411Y-121315990D01*
X155866632Y-121153475D01*
X156073475Y-120946632D01*
X156190000Y-120772240D01*
X156306525Y-120946632D01*
%TA.AperFunction,NonConductor*%
D16*
G36*
X156306525Y-120946632D02*
G01*
X156513368Y-121153475D01*
X156756589Y-121315990D01*
X156814555Y-121340000D01*
X155565445Y-121340000D01*
X155623411Y-121315990D01*
X155866632Y-121153475D01*
X156073475Y-120946632D01*
X156190000Y-120772240D01*
X156306525Y-120946632D01*
G37*
%TD.AperFunction*%
D15*
X151226525Y-120946632D02*
X151433368Y-121153475D01*
X151676589Y-121315990D01*
X151734555Y-121340000D01*
X150485445Y-121340000D01*
X150543411Y-121315990D01*
X150786632Y-121153475D01*
X150993475Y-120946632D01*
X151110000Y-120772240D01*
X151226525Y-120946632D01*
%TA.AperFunction,NonConductor*%
D16*
G36*
X151226525Y-120946632D02*
G01*
X151433368Y-121153475D01*
X151676589Y-121315990D01*
X151734555Y-121340000D01*
X150485445Y-121340000D01*
X150543411Y-121315990D01*
X150786632Y-121153475D01*
X150993475Y-120946632D01*
X151110000Y-120772240D01*
X151226525Y-120946632D01*
G37*
%TD.AperFunction*%
D15*
X187340000Y-121340000D02*
X161253889Y-121340000D01*
X161301185Y-121301185D01*
X161380537Y-121204494D01*
X161439502Y-121094180D01*
X161475812Y-120974482D01*
X161488072Y-120850000D01*
X161488072Y-119150000D01*
X161475812Y-119025518D01*
X161439502Y-118905820D01*
X161380537Y-118795506D01*
X161301185Y-118698815D01*
X161204494Y-118619463D01*
X161094180Y-118560498D01*
X160974482Y-118524188D01*
X160850000Y-118511928D01*
X159517716Y-118511928D01*
X158511200Y-117505413D01*
X158511200Y-113103614D01*
X158594673Y-113205326D01*
X158621811Y-113227598D01*
X161822100Y-116427888D01*
X161822100Y-116496315D01*
X161859680Y-116685243D01*
X161913694Y-116815646D01*
X161876625Y-116840415D01*
X161740415Y-116976625D01*
X161633396Y-117136790D01*
X161559680Y-117314757D01*
X161522100Y-117503685D01*
X161522100Y-117696315D01*
X161559680Y-117885243D01*
X161633396Y-118063210D01*
X161740415Y-118223375D01*
X161876625Y-118359585D01*
X162036790Y-118466604D01*
X162214757Y-118540320D01*
X162403685Y-118577900D01*
X162596315Y-118577900D01*
X162785243Y-118540320D01*
X162963210Y-118466604D01*
X163123375Y-118359585D01*
X163175783Y-118307177D01*
X163239420Y-118300909D01*
X163373481Y-118260242D01*
X163497033Y-118194202D01*
X163605327Y-118105327D01*
X163627601Y-118078186D01*
X164778200Y-116927588D01*
X164805326Y-116905327D01*
X164827588Y-116878201D01*
X164827597Y-116878192D01*
X164894202Y-116797033D01*
X164903177Y-116780242D01*
X164960242Y-116673481D01*
X165000909Y-116539420D01*
X165011200Y-116434936D01*
X165011200Y-116434927D01*
X165014640Y-116400001D01*
X165011200Y-116365075D01*
X165011200Y-112003685D01*
X167622100Y-112003685D01*
X167622100Y-112196315D01*
X167659680Y-112385243D01*
X167733396Y-112563210D01*
X167840415Y-112723375D01*
X167888800Y-112771760D01*
X167888801Y-115565064D01*
X167885360Y-115600000D01*
X167888801Y-115634936D01*
X167899092Y-115739420D01*
X167916569Y-115797033D01*
X167939759Y-115873481D01*
X168005798Y-115997032D01*
X168069785Y-116075000D01*
X168094674Y-116105327D01*
X168121810Y-116127597D01*
X170032407Y-118038196D01*
X170054673Y-118065327D01*
X170081804Y-118087593D01*
X170081809Y-118087598D01*
X170162967Y-118154202D01*
X170286518Y-118220242D01*
X170307211Y-118226519D01*
X170420580Y-118260909D01*
X170525064Y-118271200D01*
X170525071Y-118271200D01*
X170560000Y-118274640D01*
X170594928Y-118271200D01*
X171289214Y-118271200D01*
X171446525Y-118506632D01*
X171653368Y-118713475D01*
X171896589Y-118875990D01*
X172035879Y-118933686D01*
X172094674Y-119005327D01*
X172121810Y-119027597D01*
X172872402Y-119778190D01*
X172894673Y-119805327D01*
X173002967Y-119894202D01*
X173126519Y-119960242D01*
X173260580Y-120000909D01*
X173365064Y-120011200D01*
X173365071Y-120011200D01*
X173400000Y-120014640D01*
X173434928Y-120011200D01*
X179665074Y-120011200D01*
X179700000Y-120014640D01*
X179734926Y-120011200D01*
X179734936Y-120011200D01*
X179839420Y-120000909D01*
X179973481Y-119960242D01*
X180097033Y-119894202D01*
X180205327Y-119805327D01*
X180227601Y-119778186D01*
X180878200Y-119127589D01*
X180905326Y-119105327D01*
X180927588Y-119078201D01*
X180927597Y-119078192D01*
X180994201Y-118997034D01*
X180994202Y-118997033D01*
X181046244Y-118899669D01*
X181103411Y-118875990D01*
X181346632Y-118713475D01*
X181553475Y-118506632D01*
X181715990Y-118263411D01*
X181827932Y-117993158D01*
X181885000Y-117706260D01*
X181885000Y-117413740D01*
X181827932Y-117126842D01*
X181715990Y-116856589D01*
X181553475Y-116613368D01*
X181346632Y-116406525D01*
X181172240Y-116290000D01*
X181346632Y-116173475D01*
X181553475Y-115966632D01*
X181715990Y-115723411D01*
X181827932Y-115453158D01*
X181885000Y-115166260D01*
X181885000Y-114873740D01*
X181827932Y-114586842D01*
X181755179Y-114411200D01*
X184124821Y-114411200D01*
X184052068Y-114586842D01*
X183995000Y-114873740D01*
X183995000Y-115166260D01*
X184052068Y-115453158D01*
X184164010Y-115723411D01*
X184326525Y-115966632D01*
X184533368Y-116173475D01*
X184707760Y-116290000D01*
X184533368Y-116406525D01*
X184326525Y-116613368D01*
X184164010Y-116856589D01*
X184052068Y-117126842D01*
X183995000Y-117413740D01*
X183995000Y-117706260D01*
X184052068Y-117993158D01*
X184164010Y-118263411D01*
X184326525Y-118506632D01*
X184533368Y-118713475D01*
X184776589Y-118875990D01*
X185046842Y-118987932D01*
X185333740Y-119045000D01*
X185626260Y-119045000D01*
X185913158Y-118987932D01*
X186183411Y-118875990D01*
X186426632Y-118713475D01*
X186633475Y-118506632D01*
X186795990Y-118263411D01*
X186907932Y-117993158D01*
X186965000Y-117706260D01*
X186965000Y-117413740D01*
X186907932Y-117126842D01*
X186795990Y-116856589D01*
X186633475Y-116613368D01*
X186426632Y-116406525D01*
X186252240Y-116290000D01*
X186426632Y-116173475D01*
X186633475Y-115966632D01*
X186795990Y-115723411D01*
X186907932Y-115453158D01*
X186965000Y-115166260D01*
X186965000Y-114873740D01*
X186907932Y-114586842D01*
X186795990Y-114316589D01*
X186633475Y-114073368D01*
X186426632Y-113866525D01*
X186252240Y-113750000D01*
X186426632Y-113633475D01*
X186633475Y-113426632D01*
X186795990Y-113183411D01*
X186907932Y-112913158D01*
X186965000Y-112626260D01*
X186965000Y-112333740D01*
X186907932Y-112046842D01*
X186795990Y-111776589D01*
X186633475Y-111533368D01*
X186426632Y-111326525D01*
X186252240Y-111210000D01*
X186426632Y-111093475D01*
X186633475Y-110886632D01*
X186795990Y-110643411D01*
X186907932Y-110373158D01*
X186965000Y-110086260D01*
X186965000Y-109793740D01*
X186907932Y-109506842D01*
X186795990Y-109236589D01*
X186633475Y-108993368D01*
X186501620Y-108861513D01*
X186574180Y-108839502D01*
X186684494Y-108780537D01*
X186781185Y-108701185D01*
X186860537Y-108604494D01*
X186919502Y-108494180D01*
X186955812Y-108374482D01*
X186968072Y-108250000D01*
X186968072Y-106550000D01*
X186955812Y-106425518D01*
X186919502Y-106305820D01*
X186860537Y-106195506D01*
X186781185Y-106098815D01*
X186684494Y-106019463D01*
X186574180Y-105960498D01*
X186454482Y-105924188D01*
X186330000Y-105911928D01*
X184630000Y-105911928D01*
X184505518Y-105924188D01*
X184385820Y-105960498D01*
X184275506Y-106019463D01*
X184178815Y-106098815D01*
X184099463Y-106195506D01*
X184040498Y-106305820D01*
X184004188Y-106425518D01*
X183991928Y-106550000D01*
X183991928Y-107767401D01*
X181888072Y-107767401D01*
X181888072Y-106550000D01*
X181875812Y-106425518D01*
X181839502Y-106305820D01*
X181780537Y-106195506D01*
X181701185Y-106098815D01*
X181604494Y-106019463D01*
X181494180Y-105960498D01*
X181374482Y-105924188D01*
X181250000Y-105911928D01*
X179550000Y-105911928D01*
X179425518Y-105924188D01*
X179305820Y-105960498D01*
X179195506Y-106019463D01*
X179098815Y-106098815D01*
X179040000Y-106170482D01*
X178981185Y-106098815D01*
X178884494Y-106019463D01*
X178774180Y-105960498D01*
X178654482Y-105924188D01*
X178530000Y-105911928D01*
X176830000Y-105911928D01*
X176705518Y-105924188D01*
X176585820Y-105960498D01*
X176475506Y-106019463D01*
X176378815Y-106098815D01*
X176299463Y-106195506D01*
X176240498Y-106305820D01*
X176204188Y-106425518D01*
X176191928Y-106550000D01*
X176191928Y-107767401D01*
X174088072Y-107767401D01*
X174088072Y-106550000D01*
X174075812Y-106425518D01*
X174039502Y-106305820D01*
X173980537Y-106195506D01*
X173901185Y-106098815D01*
X173804494Y-106019463D01*
X173694180Y-105960498D01*
X173574482Y-105924188D01*
X173450000Y-105911928D01*
X171750000Y-105911928D01*
X171625518Y-105924188D01*
X171505820Y-105960498D01*
X171395506Y-106019463D01*
X171298815Y-106098815D01*
X171219463Y-106195506D01*
X171160498Y-106305820D01*
X171124188Y-106425518D01*
X171111928Y-106550000D01*
X171111928Y-107506140D01*
X170177900Y-106572113D01*
X170177900Y-106503685D01*
X170140320Y-106314757D01*
X170066604Y-106136790D01*
X169959585Y-105976625D01*
X169823375Y-105840415D01*
X169663210Y-105733396D01*
X169485243Y-105659680D01*
X169296315Y-105622100D01*
X169103685Y-105622100D01*
X168914757Y-105659680D01*
X168736790Y-105733396D01*
X168576625Y-105840415D01*
X168440415Y-105976625D01*
X168333396Y-106136790D01*
X168259680Y-106314757D01*
X168222100Y-106503685D01*
X168222100Y-106696315D01*
X168259680Y-106885243D01*
X168333396Y-107063210D01*
X168440415Y-107223375D01*
X168576625Y-107359585D01*
X168736790Y-107466604D01*
X168829573Y-107505036D01*
X168776625Y-107540415D01*
X168640415Y-107676625D01*
X168533396Y-107836790D01*
X168459680Y-108014757D01*
X168422100Y-108203685D01*
X168422100Y-108396315D01*
X168459680Y-108585243D01*
X168533396Y-108763210D01*
X168640415Y-108923375D01*
X168776625Y-109059585D01*
X168936790Y-109166604D01*
X169114757Y-109240320D01*
X169303685Y-109277900D01*
X169372112Y-109277900D01*
X169433801Y-109339589D01*
X169456072Y-109366726D01*
X169564366Y-109455601D01*
X169687918Y-109521641D01*
X169821979Y-109562308D01*
X169926463Y-109572599D01*
X169926472Y-109572599D01*
X169961398Y-109576039D01*
X169996324Y-109572599D01*
X171158988Y-109572599D01*
X171115000Y-109793740D01*
X171115000Y-110086260D01*
X171172068Y-110373158D01*
X171284010Y-110643411D01*
X171446525Y-110886632D01*
X171653368Y-111093475D01*
X171827760Y-111210000D01*
X171653368Y-111326525D01*
X171446525Y-111533368D01*
X171284010Y-111776589D01*
X171172068Y-112046842D01*
X171115000Y-112333740D01*
X171115000Y-112626260D01*
X171135597Y-112729809D01*
X170477900Y-112072112D01*
X170477900Y-112003685D01*
X170440320Y-111814757D01*
X170366604Y-111636790D01*
X170259585Y-111476625D01*
X170123375Y-111340415D01*
X169963210Y-111233396D01*
X169785243Y-111159680D01*
X169596315Y-111122100D01*
X169403685Y-111122100D01*
X169214757Y-111159680D01*
X169050000Y-111227924D01*
X168885243Y-111159680D01*
X168696315Y-111122100D01*
X168503685Y-111122100D01*
X168314757Y-111159680D01*
X168136790Y-111233396D01*
X167976625Y-111340415D01*
X167840415Y-111476625D01*
X167733396Y-111636790D01*
X167659680Y-111814757D01*
X167622100Y-112003685D01*
X165011200Y-112003685D01*
X165011200Y-104471760D01*
X165059585Y-104423375D01*
X165166604Y-104263210D01*
X165240320Y-104085243D01*
X165277900Y-103896315D01*
X165277900Y-103703685D01*
X165265172Y-103639699D01*
X172156739Y-103639699D01*
X172176625Y-103659585D01*
X172336790Y-103766604D01*
X172514757Y-103840320D01*
X172703685Y-103877900D01*
X172896315Y-103877900D01*
X173085243Y-103840320D01*
X173263210Y-103766604D01*
X173419761Y-103662000D01*
X180080239Y-103662000D01*
X180236790Y-103766604D01*
X180414757Y-103840320D01*
X180603685Y-103877900D01*
X180796315Y-103877900D01*
X180985243Y-103840320D01*
X181163210Y-103766604D01*
X181323375Y-103659585D01*
X181459585Y-103523375D01*
X181566604Y-103363210D01*
X181640320Y-103185243D01*
X181677900Y-102996315D01*
X181677900Y-102803685D01*
X181640320Y-102614757D01*
X181566604Y-102436790D01*
X181459585Y-102276625D01*
X181323375Y-102140415D01*
X181163210Y-102033396D01*
X180985243Y-101959680D01*
X180796315Y-101922100D01*
X180603685Y-101922100D01*
X180414757Y-101959680D01*
X180236790Y-102033396D01*
X180080239Y-102138000D01*
X173419761Y-102138000D01*
X173263210Y-102033396D01*
X173085243Y-101959680D01*
X172896315Y-101922100D01*
X172703685Y-101922100D01*
X172514757Y-101959680D01*
X172336790Y-102033396D01*
X172213615Y-102115699D01*
X152959723Y-102115699D01*
X152922300Y-102112013D01*
X152884877Y-102115699D01*
X152884875Y-102115699D01*
X152772923Y-102126725D01*
X152629286Y-102170297D01*
X152496909Y-102241054D01*
X152380879Y-102336277D01*
X152357022Y-102365347D01*
X150984370Y-103738000D01*
X148219761Y-103738000D01*
X148063210Y-103633396D01*
X147885243Y-103559680D01*
X147696315Y-103522100D01*
X147503685Y-103522100D01*
X147314757Y-103559680D01*
X147136790Y-103633396D01*
X146976625Y-103740415D01*
X146840415Y-103876625D01*
X146733396Y-104036790D01*
X146659680Y-104214757D01*
X146622100Y-104403685D01*
X146622100Y-104596315D01*
X146659680Y-104785243D01*
X146733396Y-104963210D01*
X146840415Y-105123375D01*
X146976625Y-105259585D01*
X147136790Y-105366604D01*
X147314757Y-105440320D01*
X147503685Y-105477900D01*
X147696315Y-105477900D01*
X147885243Y-105440320D01*
X148063210Y-105366604D01*
X148219761Y-105262000D01*
X151262577Y-105262000D01*
X151300000Y-105265686D01*
X151337423Y-105262000D01*
X151337426Y-105262000D01*
X151449378Y-105250974D01*
X151593015Y-105207402D01*
X151725392Y-105136645D01*
X151841422Y-105041422D01*
X151865284Y-105012346D01*
X153237932Y-103639699D01*
X153530730Y-103639699D01*
X153559680Y-103785243D01*
X153633396Y-103963210D01*
X153740415Y-104123375D01*
X153788801Y-104171761D01*
X153788801Y-106725061D01*
X153614757Y-106759680D01*
X153436790Y-106833396D01*
X153300000Y-106924796D01*
X153163210Y-106833396D01*
X152985243Y-106759680D01*
X152796315Y-106722100D01*
X152603685Y-106722100D01*
X152414757Y-106759680D01*
X152236790Y-106833396D01*
X152076625Y-106940415D01*
X152050000Y-106967040D01*
X152023375Y-106940415D01*
X151863210Y-106833396D01*
X151685243Y-106759680D01*
X151496315Y-106722100D01*
X151303685Y-106722100D01*
X151114757Y-106759680D01*
X150936790Y-106833396D01*
X150776625Y-106940415D01*
X150750000Y-106967040D01*
X150723375Y-106940415D01*
X150563210Y-106833396D01*
X150385243Y-106759680D01*
X150196315Y-106722100D01*
X150003685Y-106722100D01*
X149814757Y-106759680D01*
X149636790Y-106833396D01*
X149476625Y-106940415D01*
X149340415Y-107076625D01*
X149233396Y-107236790D01*
X149159680Y-107414757D01*
X149122100Y-107603685D01*
X149122100Y-107796315D01*
X149159680Y-107985243D01*
X149233396Y-108163210D01*
X149340415Y-108323375D01*
X149355626Y-108338586D01*
X146749560Y-110944652D01*
X146744432Y-110918869D01*
X146670716Y-110740902D01*
X146563697Y-110580737D01*
X146427487Y-110444527D01*
X146267322Y-110337508D01*
X146089355Y-110263792D01*
X145904691Y-110227060D01*
X145565284Y-109887653D01*
X145541422Y-109858578D01*
X145425392Y-109763355D01*
X145293015Y-109692598D01*
X145162000Y-109652855D01*
X145162000Y-105919761D01*
X145266604Y-105763210D01*
X145340320Y-105585243D01*
X145377900Y-105396315D01*
X145377900Y-105203685D01*
X145340320Y-105014757D01*
X145266604Y-104836790D01*
X145159585Y-104676625D01*
X145023375Y-104540415D01*
X144863210Y-104433396D01*
X144685243Y-104359680D01*
X144496315Y-104322100D01*
X144303685Y-104322100D01*
X144114757Y-104359680D01*
X143936790Y-104433396D01*
X143776625Y-104540415D01*
X143640415Y-104676625D01*
X143533396Y-104836790D01*
X143459680Y-105014757D01*
X143422100Y-105203685D01*
X143422100Y-105396315D01*
X143459680Y-105585243D01*
X143533396Y-105763210D01*
X143638001Y-105919762D01*
X143638000Y-109225593D01*
X143600537Y-109155506D01*
X143521185Y-109058815D01*
X143424494Y-108979463D01*
X143314180Y-108920498D01*
X143194482Y-108884188D01*
X143070000Y-108871928D01*
X141370000Y-108871928D01*
X141245518Y-108884188D01*
X141125820Y-108920498D01*
X141015506Y-108979463D01*
X140918815Y-109058815D01*
X140839463Y-109155506D01*
X140780498Y-109265820D01*
X140744188Y-109385518D01*
X140731928Y-109510000D01*
X140731928Y-111210000D01*
X140744188Y-111334482D01*
X140780498Y-111454180D01*
X140839463Y-111564494D01*
X140918815Y-111661185D01*
X141015506Y-111740537D01*
X141125820Y-111799502D01*
X141198380Y-111821513D01*
X141066525Y-111953368D01*
X140904010Y-112196589D01*
X140792068Y-112466842D01*
X140735000Y-112753740D01*
X140735000Y-113046260D01*
X140792068Y-113333158D01*
X140829630Y-113423842D01*
X140311200Y-112905413D01*
X140311200Y-111794926D01*
X140314640Y-111760000D01*
X140311200Y-111725074D01*
X140311200Y-111725064D01*
X140300909Y-111620580D01*
X140260242Y-111486519D01*
X140194202Y-111362967D01*
X140170825Y-111334482D01*
X140127597Y-111281809D01*
X140127593Y-111281805D01*
X140105326Y-111254673D01*
X140078195Y-111232407D01*
X139629759Y-110783972D01*
X139685000Y-110506260D01*
X139685000Y-110213740D01*
X139627932Y-109926842D01*
X139515990Y-109656589D01*
X139353475Y-109413368D01*
X139146632Y-109206525D01*
X138972240Y-109090000D01*
X139146632Y-108973475D01*
X139353475Y-108766632D01*
X139515990Y-108523411D01*
X139627932Y-108253158D01*
X139685000Y-107966260D01*
X139685000Y-107673740D01*
X139627932Y-107386842D01*
X139515990Y-107116589D01*
X139353475Y-106873368D01*
X139221620Y-106741513D01*
X139294180Y-106719502D01*
X139404494Y-106660537D01*
X139501185Y-106581185D01*
X139580537Y-106484494D01*
X139639502Y-106374180D01*
X139675812Y-106254482D01*
X139688072Y-106130000D01*
X139688072Y-104430000D01*
X139675812Y-104305518D01*
X139639502Y-104185820D01*
X139580537Y-104075506D01*
X139501185Y-103978815D01*
X139404494Y-103899463D01*
X139294180Y-103840498D01*
X139174482Y-103804188D01*
X139050000Y-103791928D01*
X137350000Y-103791928D01*
X137225518Y-103804188D01*
X137105820Y-103840498D01*
X136995506Y-103899463D01*
X136898815Y-103978815D01*
X136819463Y-104075506D01*
X136760498Y-104185820D01*
X136760000Y-104187462D01*
X136760000Y-98860000D01*
X187340001Y-98860000D01*
X187340000Y-121340000D01*
%TA.AperFunction,NonConductor*%
D16*
G36*
X187340000Y-121340000D02*
G01*
X161253889Y-121340000D01*
X161301185Y-121301185D01*
X161380537Y-121204494D01*
X161439502Y-121094180D01*
X161475812Y-120974482D01*
X161488072Y-120850000D01*
X161488072Y-119150000D01*
X161475812Y-119025518D01*
X161439502Y-118905820D01*
X161380537Y-118795506D01*
X161301185Y-118698815D01*
X161204494Y-118619463D01*
X161094180Y-118560498D01*
X160974482Y-118524188D01*
X160850000Y-118511928D01*
X159517716Y-118511928D01*
X158511200Y-117505413D01*
X158511200Y-113103614D01*
X158594673Y-113205326D01*
X158621811Y-113227598D01*
X161822100Y-116427888D01*
X161822100Y-116496315D01*
X161859680Y-116685243D01*
X161913694Y-116815646D01*
X161876625Y-116840415D01*
X161740415Y-116976625D01*
X161633396Y-117136790D01*
X161559680Y-117314757D01*
X161522100Y-117503685D01*
X161522100Y-117696315D01*
X161559680Y-117885243D01*
X161633396Y-118063210D01*
X161740415Y-118223375D01*
X161876625Y-118359585D01*
X162036790Y-118466604D01*
X162214757Y-118540320D01*
X162403685Y-118577900D01*
X162596315Y-118577900D01*
X162785243Y-118540320D01*
X162963210Y-118466604D01*
X163123375Y-118359585D01*
X163175783Y-118307177D01*
X163239420Y-118300909D01*
X163373481Y-118260242D01*
X163497033Y-118194202D01*
X163605327Y-118105327D01*
X163627601Y-118078186D01*
X164778200Y-116927588D01*
X164805326Y-116905327D01*
X164827588Y-116878201D01*
X164827597Y-116878192D01*
X164894202Y-116797033D01*
X164903177Y-116780242D01*
X164960242Y-116673481D01*
X165000909Y-116539420D01*
X165011200Y-116434936D01*
X165011200Y-116434927D01*
X165014640Y-116400001D01*
X165011200Y-116365075D01*
X165011200Y-112003685D01*
X167622100Y-112003685D01*
X167622100Y-112196315D01*
X167659680Y-112385243D01*
X167733396Y-112563210D01*
X167840415Y-112723375D01*
X167888800Y-112771760D01*
X167888801Y-115565064D01*
X167885360Y-115600000D01*
X167888801Y-115634936D01*
X167899092Y-115739420D01*
X167916569Y-115797033D01*
X167939759Y-115873481D01*
X168005798Y-115997032D01*
X168069785Y-116075000D01*
X168094674Y-116105327D01*
X168121810Y-116127597D01*
X170032407Y-118038196D01*
X170054673Y-118065327D01*
X170081804Y-118087593D01*
X170081809Y-118087598D01*
X170162967Y-118154202D01*
X170286518Y-118220242D01*
X170307211Y-118226519D01*
X170420580Y-118260909D01*
X170525064Y-118271200D01*
X170525071Y-118271200D01*
X170560000Y-118274640D01*
X170594928Y-118271200D01*
X171289214Y-118271200D01*
X171446525Y-118506632D01*
X171653368Y-118713475D01*
X171896589Y-118875990D01*
X172035879Y-118933686D01*
X172094674Y-119005327D01*
X172121810Y-119027597D01*
X172872402Y-119778190D01*
X172894673Y-119805327D01*
X173002967Y-119894202D01*
X173126519Y-119960242D01*
X173260580Y-120000909D01*
X173365064Y-120011200D01*
X173365071Y-120011200D01*
X173400000Y-120014640D01*
X173434928Y-120011200D01*
X179665074Y-120011200D01*
X179700000Y-120014640D01*
X179734926Y-120011200D01*
X179734936Y-120011200D01*
X179839420Y-120000909D01*
X179973481Y-119960242D01*
X180097033Y-119894202D01*
X180205327Y-119805327D01*
X180227601Y-119778186D01*
X180878200Y-119127589D01*
X180905326Y-119105327D01*
X180927588Y-119078201D01*
X180927597Y-119078192D01*
X180994201Y-118997034D01*
X180994202Y-118997033D01*
X181046244Y-118899669D01*
X181103411Y-118875990D01*
X181346632Y-118713475D01*
X181553475Y-118506632D01*
X181715990Y-118263411D01*
X181827932Y-117993158D01*
X181885000Y-117706260D01*
X181885000Y-117413740D01*
X181827932Y-117126842D01*
X181715990Y-116856589D01*
X181553475Y-116613368D01*
X181346632Y-116406525D01*
X181172240Y-116290000D01*
X181346632Y-116173475D01*
X181553475Y-115966632D01*
X181715990Y-115723411D01*
X181827932Y-115453158D01*
X181885000Y-115166260D01*
X181885000Y-114873740D01*
X181827932Y-114586842D01*
X181755179Y-114411200D01*
X184124821Y-114411200D01*
X184052068Y-114586842D01*
X183995000Y-114873740D01*
X183995000Y-115166260D01*
X184052068Y-115453158D01*
X184164010Y-115723411D01*
X184326525Y-115966632D01*
X184533368Y-116173475D01*
X184707760Y-116290000D01*
X184533368Y-116406525D01*
X184326525Y-116613368D01*
X184164010Y-116856589D01*
X184052068Y-117126842D01*
X183995000Y-117413740D01*
X183995000Y-117706260D01*
X184052068Y-117993158D01*
X184164010Y-118263411D01*
X184326525Y-118506632D01*
X184533368Y-118713475D01*
X184776589Y-118875990D01*
X185046842Y-118987932D01*
X185333740Y-119045000D01*
X185626260Y-119045000D01*
X185913158Y-118987932D01*
X186183411Y-118875990D01*
X186426632Y-118713475D01*
X186633475Y-118506632D01*
X186795990Y-118263411D01*
X186907932Y-117993158D01*
X186965000Y-117706260D01*
X186965000Y-117413740D01*
X186907932Y-117126842D01*
X186795990Y-116856589D01*
X186633475Y-116613368D01*
X186426632Y-116406525D01*
X186252240Y-116290000D01*
X186426632Y-116173475D01*
X186633475Y-115966632D01*
X186795990Y-115723411D01*
X186907932Y-115453158D01*
X186965000Y-115166260D01*
X186965000Y-114873740D01*
X186907932Y-114586842D01*
X186795990Y-114316589D01*
X186633475Y-114073368D01*
X186426632Y-113866525D01*
X186252240Y-113750000D01*
X186426632Y-113633475D01*
X186633475Y-113426632D01*
X186795990Y-113183411D01*
X186907932Y-112913158D01*
X186965000Y-112626260D01*
X186965000Y-112333740D01*
X186907932Y-112046842D01*
X186795990Y-111776589D01*
X186633475Y-111533368D01*
X186426632Y-111326525D01*
X186252240Y-111210000D01*
X186426632Y-111093475D01*
X186633475Y-110886632D01*
X186795990Y-110643411D01*
X186907932Y-110373158D01*
X186965000Y-110086260D01*
X186965000Y-109793740D01*
X186907932Y-109506842D01*
X186795990Y-109236589D01*
X186633475Y-108993368D01*
X186501620Y-108861513D01*
X186574180Y-108839502D01*
X186684494Y-108780537D01*
X186781185Y-108701185D01*
X186860537Y-108604494D01*
X186919502Y-108494180D01*
X186955812Y-108374482D01*
X186968072Y-108250000D01*
X186968072Y-106550000D01*
X186955812Y-106425518D01*
X186919502Y-106305820D01*
X186860537Y-106195506D01*
X186781185Y-106098815D01*
X186684494Y-106019463D01*
X186574180Y-105960498D01*
X186454482Y-105924188D01*
X186330000Y-105911928D01*
X184630000Y-105911928D01*
X184505518Y-105924188D01*
X184385820Y-105960498D01*
X184275506Y-106019463D01*
X184178815Y-106098815D01*
X184099463Y-106195506D01*
X184040498Y-106305820D01*
X184004188Y-106425518D01*
X183991928Y-106550000D01*
X183991928Y-107767401D01*
X181888072Y-107767401D01*
X181888072Y-106550000D01*
X181875812Y-106425518D01*
X181839502Y-106305820D01*
X181780537Y-106195506D01*
X181701185Y-106098815D01*
X181604494Y-106019463D01*
X181494180Y-105960498D01*
X181374482Y-105924188D01*
X181250000Y-105911928D01*
X179550000Y-105911928D01*
X179425518Y-105924188D01*
X179305820Y-105960498D01*
X179195506Y-106019463D01*
X179098815Y-106098815D01*
X179040000Y-106170482D01*
X178981185Y-106098815D01*
X178884494Y-106019463D01*
X178774180Y-105960498D01*
X178654482Y-105924188D01*
X178530000Y-105911928D01*
X176830000Y-105911928D01*
X176705518Y-105924188D01*
X176585820Y-105960498D01*
X176475506Y-106019463D01*
X176378815Y-106098815D01*
X176299463Y-106195506D01*
X176240498Y-106305820D01*
X176204188Y-106425518D01*
X176191928Y-106550000D01*
X176191928Y-107767401D01*
X174088072Y-107767401D01*
X174088072Y-106550000D01*
X174075812Y-106425518D01*
X174039502Y-106305820D01*
X173980537Y-106195506D01*
X173901185Y-106098815D01*
X173804494Y-106019463D01*
X173694180Y-105960498D01*
X173574482Y-105924188D01*
X173450000Y-105911928D01*
X171750000Y-105911928D01*
X171625518Y-105924188D01*
X171505820Y-105960498D01*
X171395506Y-106019463D01*
X171298815Y-106098815D01*
X171219463Y-106195506D01*
X171160498Y-106305820D01*
X171124188Y-106425518D01*
X171111928Y-106550000D01*
X171111928Y-107506140D01*
X170177900Y-106572113D01*
X170177900Y-106503685D01*
X170140320Y-106314757D01*
X170066604Y-106136790D01*
X169959585Y-105976625D01*
X169823375Y-105840415D01*
X169663210Y-105733396D01*
X169485243Y-105659680D01*
X169296315Y-105622100D01*
X169103685Y-105622100D01*
X168914757Y-105659680D01*
X168736790Y-105733396D01*
X168576625Y-105840415D01*
X168440415Y-105976625D01*
X168333396Y-106136790D01*
X168259680Y-106314757D01*
X168222100Y-106503685D01*
X168222100Y-106696315D01*
X168259680Y-106885243D01*
X168333396Y-107063210D01*
X168440415Y-107223375D01*
X168576625Y-107359585D01*
X168736790Y-107466604D01*
X168829573Y-107505036D01*
X168776625Y-107540415D01*
X168640415Y-107676625D01*
X168533396Y-107836790D01*
X168459680Y-108014757D01*
X168422100Y-108203685D01*
X168422100Y-108396315D01*
X168459680Y-108585243D01*
X168533396Y-108763210D01*
X168640415Y-108923375D01*
X168776625Y-109059585D01*
X168936790Y-109166604D01*
X169114757Y-109240320D01*
X169303685Y-109277900D01*
X169372112Y-109277900D01*
X169433801Y-109339589D01*
X169456072Y-109366726D01*
X169564366Y-109455601D01*
X169687918Y-109521641D01*
X169821979Y-109562308D01*
X169926463Y-109572599D01*
X169926472Y-109572599D01*
X169961398Y-109576039D01*
X169996324Y-109572599D01*
X171158988Y-109572599D01*
X171115000Y-109793740D01*
X171115000Y-110086260D01*
X171172068Y-110373158D01*
X171284010Y-110643411D01*
X171446525Y-110886632D01*
X171653368Y-111093475D01*
X171827760Y-111210000D01*
X171653368Y-111326525D01*
X171446525Y-111533368D01*
X171284010Y-111776589D01*
X171172068Y-112046842D01*
X171115000Y-112333740D01*
X171115000Y-112626260D01*
X171135597Y-112729809D01*
X170477900Y-112072112D01*
X170477900Y-112003685D01*
X170440320Y-111814757D01*
X170366604Y-111636790D01*
X170259585Y-111476625D01*
X170123375Y-111340415D01*
X169963210Y-111233396D01*
X169785243Y-111159680D01*
X169596315Y-111122100D01*
X169403685Y-111122100D01*
X169214757Y-111159680D01*
X169050000Y-111227924D01*
X168885243Y-111159680D01*
X168696315Y-111122100D01*
X168503685Y-111122100D01*
X168314757Y-111159680D01*
X168136790Y-111233396D01*
X167976625Y-111340415D01*
X167840415Y-111476625D01*
X167733396Y-111636790D01*
X167659680Y-111814757D01*
X167622100Y-112003685D01*
X165011200Y-112003685D01*
X165011200Y-104471760D01*
X165059585Y-104423375D01*
X165166604Y-104263210D01*
X165240320Y-104085243D01*
X165277900Y-103896315D01*
X165277900Y-103703685D01*
X165265172Y-103639699D01*
X172156739Y-103639699D01*
X172176625Y-103659585D01*
X172336790Y-103766604D01*
X172514757Y-103840320D01*
X172703685Y-103877900D01*
X172896315Y-103877900D01*
X173085243Y-103840320D01*
X173263210Y-103766604D01*
X173419761Y-103662000D01*
X180080239Y-103662000D01*
X180236790Y-103766604D01*
X180414757Y-103840320D01*
X180603685Y-103877900D01*
X180796315Y-103877900D01*
X180985243Y-103840320D01*
X181163210Y-103766604D01*
X181323375Y-103659585D01*
X181459585Y-103523375D01*
X181566604Y-103363210D01*
X181640320Y-103185243D01*
X181677900Y-102996315D01*
X181677900Y-102803685D01*
X181640320Y-102614757D01*
X181566604Y-102436790D01*
X181459585Y-102276625D01*
X181323375Y-102140415D01*
X181163210Y-102033396D01*
X180985243Y-101959680D01*
X180796315Y-101922100D01*
X180603685Y-101922100D01*
X180414757Y-101959680D01*
X180236790Y-102033396D01*
X180080239Y-102138000D01*
X173419761Y-102138000D01*
X173263210Y-102033396D01*
X173085243Y-101959680D01*
X172896315Y-101922100D01*
X172703685Y-101922100D01*
X172514757Y-101959680D01*
X172336790Y-102033396D01*
X172213615Y-102115699D01*
X152959723Y-102115699D01*
X152922300Y-102112013D01*
X152884877Y-102115699D01*
X152884875Y-102115699D01*
X152772923Y-102126725D01*
X152629286Y-102170297D01*
X152496909Y-102241054D01*
X152380879Y-102336277D01*
X152357022Y-102365347D01*
X150984370Y-103738000D01*
X148219761Y-103738000D01*
X148063210Y-103633396D01*
X147885243Y-103559680D01*
X147696315Y-103522100D01*
X147503685Y-103522100D01*
X147314757Y-103559680D01*
X147136790Y-103633396D01*
X146976625Y-103740415D01*
X146840415Y-103876625D01*
X146733396Y-104036790D01*
X146659680Y-104214757D01*
X146622100Y-104403685D01*
X146622100Y-104596315D01*
X146659680Y-104785243D01*
X146733396Y-104963210D01*
X146840415Y-105123375D01*
X146976625Y-105259585D01*
X147136790Y-105366604D01*
X147314757Y-105440320D01*
X147503685Y-105477900D01*
X147696315Y-105477900D01*
X147885243Y-105440320D01*
X148063210Y-105366604D01*
X148219761Y-105262000D01*
X151262577Y-105262000D01*
X151300000Y-105265686D01*
X151337423Y-105262000D01*
X151337426Y-105262000D01*
X151449378Y-105250974D01*
X151593015Y-105207402D01*
X151725392Y-105136645D01*
X151841422Y-105041422D01*
X151865284Y-105012346D01*
X153237932Y-103639699D01*
X153530730Y-103639699D01*
X153559680Y-103785243D01*
X153633396Y-103963210D01*
X153740415Y-104123375D01*
X153788801Y-104171761D01*
X153788801Y-106725061D01*
X153614757Y-106759680D01*
X153436790Y-106833396D01*
X153300000Y-106924796D01*
X153163210Y-106833396D01*
X152985243Y-106759680D01*
X152796315Y-106722100D01*
X152603685Y-106722100D01*
X152414757Y-106759680D01*
X152236790Y-106833396D01*
X152076625Y-106940415D01*
X152050000Y-106967040D01*
X152023375Y-106940415D01*
X151863210Y-106833396D01*
X151685243Y-106759680D01*
X151496315Y-106722100D01*
X151303685Y-106722100D01*
X151114757Y-106759680D01*
X150936790Y-106833396D01*
X150776625Y-106940415D01*
X150750000Y-106967040D01*
X150723375Y-106940415D01*
X150563210Y-106833396D01*
X150385243Y-106759680D01*
X150196315Y-106722100D01*
X150003685Y-106722100D01*
X149814757Y-106759680D01*
X149636790Y-106833396D01*
X149476625Y-106940415D01*
X149340415Y-107076625D01*
X149233396Y-107236790D01*
X149159680Y-107414757D01*
X149122100Y-107603685D01*
X149122100Y-107796315D01*
X149159680Y-107985243D01*
X149233396Y-108163210D01*
X149340415Y-108323375D01*
X149355626Y-108338586D01*
X146749560Y-110944652D01*
X146744432Y-110918869D01*
X146670716Y-110740902D01*
X146563697Y-110580737D01*
X146427487Y-110444527D01*
X146267322Y-110337508D01*
X146089355Y-110263792D01*
X145904691Y-110227060D01*
X145565284Y-109887653D01*
X145541422Y-109858578D01*
X145425392Y-109763355D01*
X145293015Y-109692598D01*
X145162000Y-109652855D01*
X145162000Y-105919761D01*
X145266604Y-105763210D01*
X145340320Y-105585243D01*
X145377900Y-105396315D01*
X145377900Y-105203685D01*
X145340320Y-105014757D01*
X145266604Y-104836790D01*
X145159585Y-104676625D01*
X145023375Y-104540415D01*
X144863210Y-104433396D01*
X144685243Y-104359680D01*
X144496315Y-104322100D01*
X144303685Y-104322100D01*
X144114757Y-104359680D01*
X143936790Y-104433396D01*
X143776625Y-104540415D01*
X143640415Y-104676625D01*
X143533396Y-104836790D01*
X143459680Y-105014757D01*
X143422100Y-105203685D01*
X143422100Y-105396315D01*
X143459680Y-105585243D01*
X143533396Y-105763210D01*
X143638001Y-105919762D01*
X143638000Y-109225593D01*
X143600537Y-109155506D01*
X143521185Y-109058815D01*
X143424494Y-108979463D01*
X143314180Y-108920498D01*
X143194482Y-108884188D01*
X143070000Y-108871928D01*
X141370000Y-108871928D01*
X141245518Y-108884188D01*
X141125820Y-108920498D01*
X141015506Y-108979463D01*
X140918815Y-109058815D01*
X140839463Y-109155506D01*
X140780498Y-109265820D01*
X140744188Y-109385518D01*
X140731928Y-109510000D01*
X140731928Y-111210000D01*
X140744188Y-111334482D01*
X140780498Y-111454180D01*
X140839463Y-111564494D01*
X140918815Y-111661185D01*
X141015506Y-111740537D01*
X141125820Y-111799502D01*
X141198380Y-111821513D01*
X141066525Y-111953368D01*
X140904010Y-112196589D01*
X140792068Y-112466842D01*
X140735000Y-112753740D01*
X140735000Y-113046260D01*
X140792068Y-113333158D01*
X140829630Y-113423842D01*
X140311200Y-112905413D01*
X140311200Y-111794926D01*
X140314640Y-111760000D01*
X140311200Y-111725074D01*
X140311200Y-111725064D01*
X140300909Y-111620580D01*
X140260242Y-111486519D01*
X140194202Y-111362967D01*
X140170825Y-111334482D01*
X140127597Y-111281809D01*
X140127593Y-111281805D01*
X140105326Y-111254673D01*
X140078195Y-111232407D01*
X139629759Y-110783972D01*
X139685000Y-110506260D01*
X139685000Y-110213740D01*
X139627932Y-109926842D01*
X139515990Y-109656589D01*
X139353475Y-109413368D01*
X139146632Y-109206525D01*
X138972240Y-109090000D01*
X139146632Y-108973475D01*
X139353475Y-108766632D01*
X139515990Y-108523411D01*
X139627932Y-108253158D01*
X139685000Y-107966260D01*
X139685000Y-107673740D01*
X139627932Y-107386842D01*
X139515990Y-107116589D01*
X139353475Y-106873368D01*
X139221620Y-106741513D01*
X139294180Y-106719502D01*
X139404494Y-106660537D01*
X139501185Y-106581185D01*
X139580537Y-106484494D01*
X139639502Y-106374180D01*
X139675812Y-106254482D01*
X139688072Y-106130000D01*
X139688072Y-104430000D01*
X139675812Y-104305518D01*
X139639502Y-104185820D01*
X139580537Y-104075506D01*
X139501185Y-103978815D01*
X139404494Y-103899463D01*
X139294180Y-103840498D01*
X139174482Y-103804188D01*
X139050000Y-103791928D01*
X137350000Y-103791928D01*
X137225518Y-103804188D01*
X137105820Y-103840498D01*
X136995506Y-103899463D01*
X136898815Y-103978815D01*
X136819463Y-104075506D01*
X136760498Y-104185820D01*
X136760000Y-104187462D01*
X136760000Y-98860000D01*
X187340001Y-98860000D01*
X187340000Y-121340000D01*
G37*
%TD.AperFunction*%
D15*
X176364010Y-116856589D02*
X176252068Y-117126842D01*
X176195000Y-117413740D01*
X176195000Y-117706260D01*
X176252068Y-117993158D01*
X176364010Y-118263411D01*
X176526525Y-118506632D01*
X176608693Y-118588800D01*
X173694588Y-118588800D01*
X173682947Y-118577160D01*
X173753475Y-118506632D01*
X173915990Y-118263411D01*
X174027932Y-117993158D01*
X174085000Y-117706260D01*
X174085000Y-117413740D01*
X174027932Y-117126842D01*
X173915990Y-116856589D01*
X173899026Y-116831200D01*
X176380974Y-116831200D01*
X176364010Y-116856589D01*
%TA.AperFunction,NonConductor*%
D16*
G36*
X176364010Y-116856589D02*
G01*
X176252068Y-117126842D01*
X176195000Y-117413740D01*
X176195000Y-117706260D01*
X176252068Y-117993158D01*
X176364010Y-118263411D01*
X176526525Y-118506632D01*
X176608693Y-118588800D01*
X173694588Y-118588800D01*
X173682947Y-118577160D01*
X173753475Y-118506632D01*
X173915990Y-118263411D01*
X174027932Y-117993158D01*
X174085000Y-117706260D01*
X174085000Y-117413740D01*
X174027932Y-117126842D01*
X173915990Y-116856589D01*
X173899026Y-116831200D01*
X176380974Y-116831200D01*
X176364010Y-116856589D01*
G37*
%TD.AperFunction*%
D15*
X179084010Y-118263411D02*
X179246525Y-118506632D01*
X179328693Y-118588800D01*
X178751307Y-118588800D01*
X178833475Y-118506632D01*
X178995990Y-118263411D01*
X179040000Y-118157161D01*
X179084010Y-118263411D01*
%TA.AperFunction,NonConductor*%
D16*
G36*
X179084010Y-118263411D02*
G01*
X179246525Y-118506632D01*
X179328693Y-118588800D01*
X178751307Y-118588800D01*
X178833475Y-118506632D01*
X178995990Y-118263411D01*
X179040000Y-118157161D01*
X179084010Y-118263411D01*
G37*
%TD.AperFunction*%
D15*
X179084010Y-116856589D02*
X179040000Y-116962839D01*
X178995990Y-116856589D01*
X178979026Y-116831200D01*
X179100974Y-116831200D01*
X179084010Y-116856589D01*
%TA.AperFunction,NonConductor*%
D16*
G36*
X179084010Y-116856589D02*
G01*
X179040000Y-116962839D01*
X178995990Y-116856589D01*
X178979026Y-116831200D01*
X179100974Y-116831200D01*
X179084010Y-116856589D01*
G37*
%TD.AperFunction*%
D15*
X171446525Y-115966632D02*
X171653368Y-116173475D01*
X171827760Y-116290000D01*
X171653368Y-116406525D01*
X171446525Y-116613368D01*
X171289214Y-116848800D01*
X170854589Y-116848800D01*
X169736988Y-115731200D01*
X171289214Y-115731200D01*
X171446525Y-115966632D01*
%TA.AperFunction,NonConductor*%
D16*
G36*
X171446525Y-115966632D02*
G01*
X171653368Y-116173475D01*
X171827760Y-116290000D01*
X171653368Y-116406525D01*
X171446525Y-116613368D01*
X171289214Y-116848800D01*
X170854589Y-116848800D01*
X169736988Y-115731200D01*
X171289214Y-115731200D01*
X171446525Y-115966632D01*
G37*
%TD.AperFunction*%
D15*
X176252068Y-114586842D02*
X176195000Y-114873740D01*
X176195000Y-115166260D01*
X176243245Y-115408800D01*
X174036755Y-115408800D01*
X174085000Y-115166260D01*
X174085000Y-114873740D01*
X174027932Y-114586842D01*
X173955179Y-114411200D01*
X176324821Y-114411200D01*
X176252068Y-114586842D01*
%TA.AperFunction,NonConductor*%
D16*
G36*
X176252068Y-114586842D02*
G01*
X176195000Y-114873740D01*
X176195000Y-115166260D01*
X176243245Y-115408800D01*
X174036755Y-115408800D01*
X174085000Y-115166260D01*
X174085000Y-114873740D01*
X174027932Y-114586842D01*
X173955179Y-114411200D01*
X176324821Y-114411200D01*
X176252068Y-114586842D01*
G37*
%TD.AperFunction*%
D15*
X179040000Y-114422839D02*
X179035179Y-114411200D01*
X179044821Y-114411200D01*
X179040000Y-114422839D01*
%TA.AperFunction,NonConductor*%
D16*
G36*
X179040000Y-114422839D02*
G01*
X179035179Y-114411200D01*
X179044821Y-114411200D01*
X179040000Y-114422839D01*
G37*
%TD.AperFunction*%
D15*
X170572407Y-114178196D02*
X170594673Y-114205327D01*
X170621804Y-114227593D01*
X170621809Y-114227598D01*
X170702967Y-114294202D01*
X170730278Y-114308800D01*
X170011200Y-114308800D01*
X170011200Y-113871760D01*
X170059585Y-113823375D01*
X170122872Y-113728660D01*
X170572407Y-114178196D01*
%TA.AperFunction,NonConductor*%
D16*
G36*
X170572407Y-114178196D02*
G01*
X170594673Y-114205327D01*
X170621804Y-114227593D01*
X170621809Y-114227598D01*
X170702967Y-114294202D01*
X170730278Y-114308800D01*
X170011200Y-114308800D01*
X170011200Y-113871760D01*
X170059585Y-113823375D01*
X170122872Y-113728660D01*
X170572407Y-114178196D01*
G37*
%TD.AperFunction*%
D15*
X176283400Y-112988800D02*
X176221095Y-112988800D01*
X176225327Y-112985327D01*
X176247602Y-112958185D01*
X176263948Y-112941839D01*
X176283400Y-112988800D01*
%TA.AperFunction,NonConductor*%
D16*
G36*
X176283400Y-112988800D02*
G01*
X176221095Y-112988800D01*
X176225327Y-112985327D01*
X176247602Y-112958185D01*
X176263948Y-112941839D01*
X176283400Y-112988800D01*
G37*
%TD.AperFunction*%
D15*
X183995000Y-109793740D02*
X183995000Y-110086260D01*
X184052068Y-110373158D01*
X184164010Y-110643411D01*
X184326525Y-110886632D01*
X184533368Y-111093475D01*
X184707760Y-111210000D01*
X184533368Y-111326525D01*
X184326525Y-111533368D01*
X184164010Y-111776589D01*
X184052068Y-112046842D01*
X183995000Y-112333740D01*
X183995000Y-112626260D01*
X184050241Y-112903972D01*
X183965413Y-112988800D01*
X181796600Y-112988800D01*
X181827932Y-112913158D01*
X181885000Y-112626260D01*
X181885000Y-112333740D01*
X181827932Y-112046842D01*
X181715990Y-111776589D01*
X181553475Y-111533368D01*
X181346632Y-111326525D01*
X181172240Y-111210000D01*
X181346632Y-111093475D01*
X181553475Y-110886632D01*
X181715990Y-110643411D01*
X181827932Y-110373158D01*
X181885000Y-110086260D01*
X181885000Y-109793740D01*
X181841012Y-109572599D01*
X184038988Y-109572599D01*
X183995000Y-109793740D01*
%TA.AperFunction,NonConductor*%
D16*
G36*
X183995000Y-109793740D02*
G01*
X183995000Y-110086260D01*
X184052068Y-110373158D01*
X184164010Y-110643411D01*
X184326525Y-110886632D01*
X184533368Y-111093475D01*
X184707760Y-111210000D01*
X184533368Y-111326525D01*
X184326525Y-111533368D01*
X184164010Y-111776589D01*
X184052068Y-112046842D01*
X183995000Y-112333740D01*
X183995000Y-112626260D01*
X184050241Y-112903972D01*
X183965413Y-112988800D01*
X181796600Y-112988800D01*
X181827932Y-112913158D01*
X181885000Y-112626260D01*
X181885000Y-112333740D01*
X181827932Y-112046842D01*
X181715990Y-111776589D01*
X181553475Y-111533368D01*
X181346632Y-111326525D01*
X181172240Y-111210000D01*
X181346632Y-111093475D01*
X181553475Y-110886632D01*
X181715990Y-110643411D01*
X181827932Y-110373158D01*
X181885000Y-110086260D01*
X181885000Y-109793740D01*
X181841012Y-109572599D01*
X184038988Y-109572599D01*
X183995000Y-109793740D01*
G37*
%TD.AperFunction*%
D15*
X175425413Y-111768800D02*
X173910786Y-111768800D01*
X173872298Y-111711200D01*
X175483013Y-111711200D01*
X175425413Y-111768800D01*
%TA.AperFunction,NonConductor*%
D16*
G36*
X175425413Y-111768800D02*
G01*
X173910786Y-111768800D01*
X173872298Y-111711200D01*
X175483013Y-111711200D01*
X175425413Y-111768800D01*
G37*
%TD.AperFunction*%
D15*
X176195000Y-109793740D02*
X176195000Y-110086260D01*
X176235288Y-110288800D01*
X174044712Y-110288800D01*
X174085000Y-110086260D01*
X174085000Y-109793740D01*
X174048690Y-109611200D01*
X176231310Y-109611200D01*
X176195000Y-109793740D01*
%TA.AperFunction,NonConductor*%
D16*
G36*
X176195000Y-109793740D02*
G01*
X176195000Y-110086260D01*
X176235288Y-110288800D01*
X174044712Y-110288800D01*
X174085000Y-110086260D01*
X174085000Y-109793740D01*
X174048690Y-109611200D01*
X176231310Y-109611200D01*
X176195000Y-109793740D01*
G37*
%TD.AperFunction*%
D15*
X146588801Y-118689214D02*
X146353368Y-118846525D01*
X146146525Y-119053368D01*
X146030000Y-119227760D01*
X145913475Y-119053368D01*
X145706632Y-118846525D01*
X145471200Y-118689214D01*
X145471200Y-114274928D01*
X145474640Y-114240000D01*
X145473846Y-114231941D01*
X146588800Y-113116987D01*
X146588801Y-118689214D01*
%TA.AperFunction,NonConductor*%
D16*
G36*
X146588801Y-118689214D02*
G01*
X146353368Y-118846525D01*
X146146525Y-119053368D01*
X146030000Y-119227760D01*
X145913475Y-119053368D01*
X145706632Y-118846525D01*
X145471200Y-118689214D01*
X145471200Y-114274928D01*
X145474640Y-114240000D01*
X145473846Y-114231941D01*
X146588800Y-113116987D01*
X146588801Y-118689214D01*
G37*
%TD.AperFunction*%
D15*
X154188801Y-118702577D02*
X153973368Y-118846525D01*
X153766525Y-119053368D01*
X153650000Y-119227760D01*
X153533475Y-119053368D01*
X153326632Y-118846525D01*
X153091200Y-118689214D01*
X153091200Y-114775417D01*
X153103685Y-114777900D01*
X153296315Y-114777900D01*
X153485243Y-114740320D01*
X153663210Y-114666604D01*
X153823375Y-114559585D01*
X153959585Y-114423375D01*
X154066604Y-114263210D01*
X154140320Y-114085243D01*
X154177900Y-113896315D01*
X154177900Y-113827888D01*
X154188800Y-113816987D01*
X154188801Y-118702577D01*
%TA.AperFunction,NonConductor*%
D16*
G36*
X154188801Y-118702577D02*
G01*
X153973368Y-118846525D01*
X153766525Y-119053368D01*
X153650000Y-119227760D01*
X153533475Y-119053368D01*
X153326632Y-118846525D01*
X153091200Y-118689214D01*
X153091200Y-114775417D01*
X153103685Y-114777900D01*
X153296315Y-114777900D01*
X153485243Y-114740320D01*
X153663210Y-114666604D01*
X153823375Y-114559585D01*
X153959585Y-114423375D01*
X154066604Y-114263210D01*
X154140320Y-114085243D01*
X154177900Y-113896315D01*
X154177900Y-113827888D01*
X154188800Y-113816987D01*
X154188801Y-118702577D01*
G37*
%TD.AperFunction*%
D15*
X150640415Y-114423375D02*
X150776625Y-114559585D01*
X150936790Y-114666604D01*
X151114757Y-114740320D01*
X151303685Y-114777900D01*
X151496315Y-114777900D01*
X151668801Y-114743591D01*
X151668801Y-118689214D01*
X151433368Y-118846525D01*
X151226525Y-119053368D01*
X151110000Y-119227760D01*
X150993475Y-119053368D01*
X150786632Y-118846525D01*
X150551200Y-118689214D01*
X150551200Y-114289856D01*
X150640415Y-114423375D01*
%TA.AperFunction,NonConductor*%
D16*
G36*
X150640415Y-114423375D02*
G01*
X150776625Y-114559585D01*
X150936790Y-114666604D01*
X151114757Y-114740320D01*
X151303685Y-114777900D01*
X151496315Y-114777900D01*
X151668801Y-114743591D01*
X151668801Y-118689214D01*
X151433368Y-118846525D01*
X151226525Y-119053368D01*
X151110000Y-119227760D01*
X150993475Y-119053368D01*
X150786632Y-118846525D01*
X150551200Y-118689214D01*
X150551200Y-114289856D01*
X150640415Y-114423375D01*
G37*
%TD.AperFunction*%
D15*
X149128801Y-118689214D02*
X148893368Y-118846525D01*
X148686525Y-119053368D01*
X148570000Y-119227760D01*
X148453475Y-119053368D01*
X148246632Y-118846525D01*
X148011200Y-118689214D01*
X148011200Y-112394587D01*
X149128800Y-111276988D01*
X149128801Y-118689214D01*
%TA.AperFunction,NonConductor*%
D16*
G36*
X149128801Y-118689214D02*
G01*
X148893368Y-118846525D01*
X148686525Y-119053368D01*
X148570000Y-119227760D01*
X148453475Y-119053368D01*
X148246632Y-118846525D01*
X148011200Y-118689214D01*
X148011200Y-112394587D01*
X149128800Y-111276988D01*
X149128801Y-118689214D01*
G37*
%TD.AperFunction*%
D15*
X144048801Y-118689214D02*
X143813368Y-118846525D01*
X143606525Y-119053368D01*
X143490000Y-119227760D01*
X143373475Y-119053368D01*
X143281135Y-118961028D01*
X143385243Y-118940320D01*
X143563210Y-118866604D01*
X143723375Y-118759585D01*
X143859585Y-118623375D01*
X143966604Y-118463210D01*
X144040320Y-118285243D01*
X144048801Y-118242608D01*
X144048801Y-118689214D01*
%TA.AperFunction,NonConductor*%
D16*
G36*
X144048801Y-118689214D02*
G01*
X143813368Y-118846525D01*
X143606525Y-119053368D01*
X143490000Y-119227760D01*
X143373475Y-119053368D01*
X143281135Y-118961028D01*
X143385243Y-118940320D01*
X143563210Y-118866604D01*
X143723375Y-118759585D01*
X143859585Y-118623375D01*
X143966604Y-118463210D01*
X144040320Y-118285243D01*
X144048801Y-118242608D01*
X144048801Y-118689214D01*
G37*
%TD.AperFunction*%
D15*
X155788801Y-118794520D02*
X155623411Y-118684010D01*
X155611200Y-118678952D01*
X155611200Y-108588147D01*
X155663210Y-108566604D01*
X155788800Y-108482687D01*
X155788801Y-118794520D01*
%TA.AperFunction,NonConductor*%
D16*
G36*
X155788801Y-118794520D02*
G01*
X155623411Y-118684010D01*
X155611200Y-118678952D01*
X155611200Y-108588147D01*
X155663210Y-108566604D01*
X155788800Y-108482687D01*
X155788801Y-118794520D01*
G37*
%TD.AperFunction*%
D15*
X157269490Y-118274640D02*
X157294674Y-118305327D01*
X157321810Y-118327597D01*
X157509213Y-118515000D01*
X157313740Y-118515000D01*
X157211200Y-118535397D01*
X157211200Y-118203614D01*
X157269490Y-118274640D01*
%TA.AperFunction,NonConductor*%
D16*
G36*
X157269490Y-118274640D02*
G01*
X157294674Y-118305327D01*
X157321810Y-118327597D01*
X157509213Y-118515000D01*
X157313740Y-118515000D01*
X157211200Y-118535397D01*
X157211200Y-118203614D01*
X157269490Y-118274640D01*
G37*
%TD.AperFunction*%
D15*
X144048801Y-117757392D02*
X144040320Y-117714757D01*
X143966604Y-117536790D01*
X143859585Y-117376625D01*
X143723375Y-117240415D01*
X143563210Y-117133396D01*
X143385243Y-117059680D01*
X143196315Y-117022100D01*
X143003685Y-117022100D01*
X142814757Y-117059680D01*
X142636790Y-117133396D01*
X142476625Y-117240415D01*
X142428240Y-117288800D01*
X139521048Y-117288800D01*
X139515990Y-117276589D01*
X139353475Y-117033368D01*
X139146632Y-116826525D01*
X138972240Y-116710000D01*
X139146632Y-116593475D01*
X139353475Y-116386632D01*
X139515990Y-116143411D01*
X139529332Y-116111200D01*
X142228240Y-116111200D01*
X142276625Y-116159585D01*
X142436790Y-116266604D01*
X142614757Y-116340320D01*
X142803685Y-116377900D01*
X142996315Y-116377900D01*
X143185243Y-116340320D01*
X143363210Y-116266604D01*
X143523375Y-116159585D01*
X143659585Y-116023375D01*
X143766604Y-115863210D01*
X143840320Y-115685243D01*
X143877900Y-115496315D01*
X143877900Y-115303685D01*
X143840320Y-115114757D01*
X143766604Y-114936790D01*
X143749505Y-114911200D01*
X144048800Y-114911200D01*
X144048801Y-117757392D01*
%TA.AperFunction,NonConductor*%
D16*
G36*
X144048801Y-117757392D02*
G01*
X144040320Y-117714757D01*
X143966604Y-117536790D01*
X143859585Y-117376625D01*
X143723375Y-117240415D01*
X143563210Y-117133396D01*
X143385243Y-117059680D01*
X143196315Y-117022100D01*
X143003685Y-117022100D01*
X142814757Y-117059680D01*
X142636790Y-117133396D01*
X142476625Y-117240415D01*
X142428240Y-117288800D01*
X139521048Y-117288800D01*
X139515990Y-117276589D01*
X139353475Y-117033368D01*
X139146632Y-116826525D01*
X138972240Y-116710000D01*
X139146632Y-116593475D01*
X139353475Y-116386632D01*
X139515990Y-116143411D01*
X139529332Y-116111200D01*
X142228240Y-116111200D01*
X142276625Y-116159585D01*
X142436790Y-116266604D01*
X142614757Y-116340320D01*
X142803685Y-116377900D01*
X142996315Y-116377900D01*
X143185243Y-116340320D01*
X143363210Y-116266604D01*
X143523375Y-116159585D01*
X143659585Y-116023375D01*
X143766604Y-115863210D01*
X143840320Y-115685243D01*
X143877900Y-115496315D01*
X143877900Y-115303685D01*
X143840320Y-115114757D01*
X143766604Y-114936790D01*
X143749505Y-114911200D01*
X144048800Y-114911200D01*
X144048801Y-117757392D01*
G37*
%TD.AperFunction*%
D15*
X136772068Y-115873158D02*
X136884010Y-116143411D01*
X137046525Y-116386632D01*
X137253368Y-116593475D01*
X137427760Y-116710000D01*
X137253368Y-116826525D01*
X137046525Y-117033368D01*
X136884010Y-117276589D01*
X136772068Y-117546842D01*
X136760000Y-117607511D01*
X136760000Y-115812489D01*
X136772068Y-115873158D01*
%TA.AperFunction,NonConductor*%
D16*
G36*
X136772068Y-115873158D02*
G01*
X136884010Y-116143411D01*
X137046525Y-116386632D01*
X137253368Y-116593475D01*
X137427760Y-116710000D01*
X137253368Y-116826525D01*
X137046525Y-117033368D01*
X136884010Y-117276589D01*
X136772068Y-117546842D01*
X136760000Y-117607511D01*
X136760000Y-115812489D01*
X136772068Y-115873158D01*
G37*
%TD.AperFunction*%
D15*
X163322100Y-103703685D02*
X163322100Y-103896315D01*
X163359680Y-104085243D01*
X163433396Y-104263210D01*
X163540415Y-104423375D01*
X163588801Y-104471761D01*
X163588800Y-115820348D01*
X163559585Y-115776625D01*
X163423375Y-115640415D01*
X163263210Y-115533396D01*
X163085243Y-115459680D01*
X162896315Y-115422100D01*
X162827888Y-115422100D01*
X159811200Y-112405413D01*
X159811200Y-108371760D01*
X159859585Y-108323375D01*
X159966604Y-108163210D01*
X160040320Y-107985243D01*
X160077900Y-107796315D01*
X160077900Y-107603685D01*
X160040320Y-107414757D01*
X159966604Y-107236790D01*
X159859585Y-107076625D01*
X159723375Y-106940415D01*
X159563210Y-106833396D01*
X159385243Y-106759680D01*
X159196315Y-106722100D01*
X159003685Y-106722100D01*
X158814757Y-106759680D01*
X158636790Y-106833396D01*
X158476625Y-106940415D01*
X158450000Y-106967040D01*
X158423375Y-106940415D01*
X158263210Y-106833396D01*
X158085243Y-106759680D01*
X157896315Y-106722100D01*
X157703685Y-106722100D01*
X157514757Y-106759680D01*
X157336790Y-106833396D01*
X157176625Y-106940415D01*
X157150000Y-106967040D01*
X157123375Y-106940415D01*
X156963210Y-106833396D01*
X156785243Y-106759680D01*
X156596315Y-106722100D01*
X156403685Y-106722100D01*
X156214757Y-106759680D01*
X156036790Y-106833396D01*
X155876625Y-106940415D01*
X155850000Y-106967040D01*
X155823375Y-106940415D01*
X155663210Y-106833396D01*
X155485243Y-106759680D01*
X155296315Y-106722100D01*
X155211200Y-106722100D01*
X155211200Y-104171760D01*
X155259585Y-104123375D01*
X155366604Y-103963210D01*
X155440320Y-103785243D01*
X155469270Y-103639699D01*
X163334828Y-103639699D01*
X163322100Y-103703685D01*
%TA.AperFunction,NonConductor*%
D16*
G36*
X163322100Y-103703685D02*
G01*
X163322100Y-103896315D01*
X163359680Y-104085243D01*
X163433396Y-104263210D01*
X163540415Y-104423375D01*
X163588801Y-104471761D01*
X163588800Y-115820348D01*
X163559585Y-115776625D01*
X163423375Y-115640415D01*
X163263210Y-115533396D01*
X163085243Y-115459680D01*
X162896315Y-115422100D01*
X162827888Y-115422100D01*
X159811200Y-112405413D01*
X159811200Y-108371760D01*
X159859585Y-108323375D01*
X159966604Y-108163210D01*
X160040320Y-107985243D01*
X160077900Y-107796315D01*
X160077900Y-107603685D01*
X160040320Y-107414757D01*
X159966604Y-107236790D01*
X159859585Y-107076625D01*
X159723375Y-106940415D01*
X159563210Y-106833396D01*
X159385243Y-106759680D01*
X159196315Y-106722100D01*
X159003685Y-106722100D01*
X158814757Y-106759680D01*
X158636790Y-106833396D01*
X158476625Y-106940415D01*
X158450000Y-106967040D01*
X158423375Y-106940415D01*
X158263210Y-106833396D01*
X158085243Y-106759680D01*
X157896315Y-106722100D01*
X157703685Y-106722100D01*
X157514757Y-106759680D01*
X157336790Y-106833396D01*
X157176625Y-106940415D01*
X157150000Y-106967040D01*
X157123375Y-106940415D01*
X156963210Y-106833396D01*
X156785243Y-106759680D01*
X156596315Y-106722100D01*
X156403685Y-106722100D01*
X156214757Y-106759680D01*
X156036790Y-106833396D01*
X155876625Y-106940415D01*
X155850000Y-106967040D01*
X155823375Y-106940415D01*
X155663210Y-106833396D01*
X155485243Y-106759680D01*
X155296315Y-106722100D01*
X155211200Y-106722100D01*
X155211200Y-104171760D01*
X155259585Y-104123375D01*
X155366604Y-103963210D01*
X155440320Y-103785243D01*
X155469270Y-103639699D01*
X163334828Y-103639699D01*
X163322100Y-103703685D01*
G37*
%TD.AperFunction*%
D15*
X136772068Y-113333158D02*
X136884010Y-113603411D01*
X137046525Y-113846632D01*
X137253368Y-114053475D01*
X137427760Y-114170000D01*
X137253368Y-114286525D01*
X137046525Y-114493368D01*
X136884010Y-114736589D01*
X136772068Y-115006842D01*
X136760000Y-115067511D01*
X136760000Y-113272489D01*
X136772068Y-113333158D01*
%TA.AperFunction,NonConductor*%
D16*
G36*
X136772068Y-113333158D02*
G01*
X136884010Y-113603411D01*
X137046525Y-113846632D01*
X137253368Y-114053475D01*
X137427760Y-114170000D01*
X137253368Y-114286525D01*
X137046525Y-114493368D01*
X136884010Y-114736589D01*
X136772068Y-115006842D01*
X136760000Y-115067511D01*
X136760000Y-113272489D01*
X136772068Y-113333158D01*
G37*
%TD.AperFunction*%
D15*
X140072407Y-114678196D02*
X140081110Y-114688800D01*
X139484058Y-114688800D01*
X139353475Y-114493368D01*
X139146632Y-114286525D01*
X138972240Y-114170000D01*
X139146632Y-114053475D01*
X139297160Y-113902947D01*
X140072407Y-114678196D01*
%TA.AperFunction,NonConductor*%
D16*
G36*
X140072407Y-114678196D02*
G01*
X140081110Y-114688800D01*
X139484058Y-114688800D01*
X139353475Y-114493368D01*
X139146632Y-114286525D01*
X138972240Y-114170000D01*
X139146632Y-114053475D01*
X139297160Y-113902947D01*
X140072407Y-114678196D01*
G37*
%TD.AperFunction*%
D15*
X144827060Y-111304691D02*
X144863792Y-111489355D01*
X144937508Y-111667322D01*
X145044527Y-111827487D01*
X145180737Y-111963697D01*
X145340902Y-112070716D01*
X145518869Y-112144432D01*
X145544652Y-112149561D01*
X144281811Y-113412402D01*
X144254673Y-113434674D01*
X144210253Y-113488800D01*
X143583463Y-113488800D01*
X143647932Y-113333158D01*
X143705000Y-113046260D01*
X143705000Y-112753740D01*
X143647932Y-112466842D01*
X143535990Y-112196589D01*
X143373475Y-111953368D01*
X143241620Y-111821513D01*
X143314180Y-111799502D01*
X143424494Y-111740537D01*
X143521185Y-111661185D01*
X143600537Y-111564494D01*
X143659502Y-111454180D01*
X143682641Y-111377900D01*
X143796315Y-111377900D01*
X143985243Y-111340320D01*
X144163210Y-111266604D01*
X144319761Y-111162000D01*
X144684370Y-111162000D01*
X144827060Y-111304691D01*
%TA.AperFunction,NonConductor*%
D16*
G36*
X144827060Y-111304691D02*
G01*
X144863792Y-111489355D01*
X144937508Y-111667322D01*
X145044527Y-111827487D01*
X145180737Y-111963697D01*
X145340902Y-112070716D01*
X145518869Y-112144432D01*
X145544652Y-112149561D01*
X144281811Y-113412402D01*
X144254673Y-113434674D01*
X144210253Y-113488800D01*
X143583463Y-113488800D01*
X143647932Y-113333158D01*
X143705000Y-113046260D01*
X143705000Y-112753740D01*
X143647932Y-112466842D01*
X143535990Y-112196589D01*
X143373475Y-111953368D01*
X143241620Y-111821513D01*
X143314180Y-111799502D01*
X143424494Y-111740537D01*
X143521185Y-111661185D01*
X143600537Y-111564494D01*
X143659502Y-111454180D01*
X143682641Y-111377900D01*
X143796315Y-111377900D01*
X143985243Y-111340320D01*
X144163210Y-111266604D01*
X144319761Y-111162000D01*
X144684370Y-111162000D01*
X144827060Y-111304691D01*
G37*
%TD.AperFunction*%
D15*
X150688801Y-110771761D02*
X150688800Y-113128240D01*
X150640415Y-113176625D01*
X150551200Y-113310144D01*
X150551200Y-110854587D01*
X150661414Y-110744374D01*
X150688801Y-110771761D01*
%TA.AperFunction,NonConductor*%
D16*
G36*
X150688801Y-110771761D02*
G01*
X150688800Y-113128240D01*
X150640415Y-113176625D01*
X150551200Y-113310144D01*
X150551200Y-110854587D01*
X150661414Y-110744374D01*
X150688801Y-110771761D01*
G37*
%TD.AperFunction*%
D15*
X153788800Y-112205411D02*
X153172112Y-112822100D01*
X153103685Y-112822100D01*
X153091200Y-112824583D01*
X153091200Y-109514587D01*
X153788800Y-108816988D01*
X153788800Y-112205411D01*
%TA.AperFunction,NonConductor*%
D16*
G36*
X153788800Y-112205411D02*
G01*
X153172112Y-112822100D01*
X153103685Y-112822100D01*
X153091200Y-112824583D01*
X153091200Y-109514587D01*
X153788800Y-108816988D01*
X153788800Y-112205411D01*
G37*
%TD.AperFunction*%
D15*
X136772068Y-110793158D02*
X136884010Y-111063411D01*
X137046525Y-111306632D01*
X137253368Y-111513475D01*
X137427760Y-111630000D01*
X137253368Y-111746525D01*
X137046525Y-111953368D01*
X136884010Y-112196589D01*
X136772068Y-112466842D01*
X136760000Y-112527511D01*
X136760000Y-110732489D01*
X136772068Y-110793158D01*
%TA.AperFunction,NonConductor*%
D16*
G36*
X136772068Y-110793158D02*
G01*
X136884010Y-111063411D01*
X137046525Y-111306632D01*
X137253368Y-111513475D01*
X137427760Y-111630000D01*
X137253368Y-111746525D01*
X137046525Y-111953368D01*
X136884010Y-112196589D01*
X136772068Y-112466842D01*
X136760000Y-112527511D01*
X136760000Y-110732489D01*
X136772068Y-110793158D01*
G37*
%TD.AperFunction*%
D15*
X136772068Y-108253158D02*
X136884010Y-108523411D01*
X137046525Y-108766632D01*
X137253368Y-108973475D01*
X137427760Y-109090000D01*
X137253368Y-109206525D01*
X137046525Y-109413368D01*
X136884010Y-109656589D01*
X136772068Y-109926842D01*
X136760000Y-109987511D01*
X136760000Y-108192489D01*
X136772068Y-108253158D01*
%TA.AperFunction,NonConductor*%
D16*
G36*
X136772068Y-108253158D02*
G01*
X136884010Y-108523411D01*
X137046525Y-108766632D01*
X137253368Y-108973475D01*
X137427760Y-109090000D01*
X137253368Y-109206525D01*
X137046525Y-109413368D01*
X136884010Y-109656589D01*
X136772068Y-109926842D01*
X136760000Y-109987511D01*
X136760000Y-108192489D01*
X136772068Y-108253158D01*
G37*
%TD.AperFunction*%
D15*
X136760498Y-106374180D02*
X136819463Y-106484494D01*
X136898815Y-106581185D01*
X136995506Y-106660537D01*
X137105820Y-106719502D01*
X137178380Y-106741513D01*
X137046525Y-106873368D01*
X136884010Y-107116589D01*
X136772068Y-107386842D01*
X136760000Y-107447511D01*
X136760000Y-106372538D01*
X136760498Y-106374180D01*
%TA.AperFunction,NonConductor*%
D16*
G36*
X136760498Y-106374180D02*
G01*
X136819463Y-106484494D01*
X136898815Y-106581185D01*
X136995506Y-106660537D01*
X137105820Y-106719502D01*
X137178380Y-106741513D01*
X137046525Y-106873368D01*
X136884010Y-107116589D01*
X136772068Y-107386842D01*
X136760000Y-107447511D01*
X136760000Y-106372538D01*
X136760498Y-106374180D01*
G37*
%TD.AperFunction*%
M02*
