%TF.GenerationSoftware,KiCad,Pcbnew,5.1.10-88a1d61d58~88~ubuntu20.04.1*%
%TF.CreationDate,2021-05-20T12:50:06-04:00*%
%TF.ProjectId,hexdisplay8,68657864-6973-4706-9c61-79382e6b6963,rev?*%
%TF.SameCoordinates,Original*%
%TF.FileFunction,Copper,L1,Top*%
%TF.FilePolarity,Positive*%
%FSLAX46Y46*%
G04 Gerber Fmt 4.6, Leading zero omitted, Abs format (unit mm)*
G04 Created by KiCad (PCBNEW 5.1.10-88a1d61d58~88~ubuntu20.04.1) date 2021-05-20 12:50:06*
%MOMM*%
%LPD*%
G01*
G04 APERTURE LIST*
%TA.AperFunction,ComponentPad*%
%ADD10R,1.700000X1.700000*%
%TD*%
%TA.AperFunction,ComponentPad*%
%ADD11O,1.700000X1.700000*%
%TD*%
%TA.AperFunction,SMDPad,CuDef*%
%ADD12R,0.900000X0.800000*%
%TD*%
%TA.AperFunction,ViaPad*%
%ADD13C,0.685800*%
%TD*%
%TA.AperFunction,Conductor*%
%ADD14C,0.254000*%
%TD*%
%TA.AperFunction,Conductor*%
%ADD15C,0.152400*%
%TD*%
%TA.AperFunction,NonConductor*%
%ADD16C,0.254000*%
%TD*%
%TA.AperFunction,NonConductor*%
%ADD17C,0.100000*%
%TD*%
G04 APERTURE END LIST*
%TO.P,C1,1*%
%TO.N,VCC*%
%TA.AperFunction,SMDPad,CuDef*%
G36*
G01*
X143350003Y-106462500D02*
X142049997Y-106462500D01*
G75*
G02*
X141800000Y-106212503I0J249997D01*
G01*
X141800000Y-105387497D01*
G75*
G02*
X142049997Y-105137500I249997J0D01*
G01*
X143350003Y-105137500D01*
G75*
G02*
X143600000Y-105387497I0J-249997D01*
G01*
X143600000Y-106212503D01*
G75*
G02*
X143350003Y-106462500I-249997J0D01*
G01*
G37*
%TD.AperFunction*%
%TO.P,C1,2*%
%TO.N,GND*%
%TA.AperFunction,SMDPad,CuDef*%
G36*
G01*
X143350003Y-103337500D02*
X142049997Y-103337500D01*
G75*
G02*
X141800000Y-103087503I0J249997D01*
G01*
X141800000Y-102262497D01*
G75*
G02*
X142049997Y-102012500I249997J0D01*
G01*
X143350003Y-102012500D01*
G75*
G02*
X143600000Y-102262497I0J-249997D01*
G01*
X143600000Y-103087503D01*
G75*
G02*
X143350003Y-103337500I-249997J0D01*
G01*
G37*
%TD.AperFunction*%
%TD*%
D10*
%TO.P,J3,1*%
%TO.N,GND*%
X142220000Y-110360000D03*
D11*
%TO.P,J3,2*%
%TO.N,VCC*%
X142220000Y-112900000D03*
%TD*%
D10*
%TO.P,J4,1*%
%TO.N,/D0*%
X160000000Y-120000000D03*
D11*
%TO.P,J4,2*%
%TO.N,/D1*%
X157460000Y-120000000D03*
%TO.P,J4,3*%
%TO.N,/D2*%
X154920000Y-120000000D03*
%TO.P,J4,4*%
%TO.N,/D3*%
X152380000Y-120000000D03*
%TO.P,J4,5*%
%TO.N,/D4*%
X149840000Y-120000000D03*
%TO.P,J4,6*%
%TO.N,/D5*%
X147300000Y-120000000D03*
%TO.P,J4,7*%
%TO.N,/D6*%
X144760000Y-120000000D03*
%TO.P,J4,8*%
%TO.N,/D7*%
X142220000Y-120000000D03*
%TD*%
D10*
%TO.P,J5,1*%
%TO.N,GND*%
X138200000Y-105280000D03*
D11*
%TO.P,J5,2*%
%TO.N,VCC*%
X138200000Y-107820000D03*
%TO.P,J5,3*%
%TO.N,/D6*%
X138200000Y-110360000D03*
%TO.P,J5,4*%
%TO.N,/D7*%
X138200000Y-112900000D03*
%TO.P,J5,5*%
%TO.N,/~RESET*%
X138200000Y-115440000D03*
%TO.P,J5,6*%
%TO.N,/D5*%
X138200000Y-117980000D03*
%TD*%
D12*
%TO.P,Q1,1*%
%TO.N,Net-(Q1-Pad1)*%
X181800000Y-101050000D03*
%TO.P,Q1,2*%
%TO.N,VCC*%
X181800000Y-102950000D03*
%TO.P,Q1,3*%
%TO.N,/CA1*%
X183800000Y-102000000D03*
%TD*%
%TO.P,Q2,3*%
%TO.N,/CA2*%
X175800000Y-102000000D03*
%TO.P,Q2,2*%
%TO.N,VCC*%
X173800000Y-102950000D03*
%TO.P,Q2,1*%
%TO.N,Net-(Q2-Pad1)*%
X173800000Y-101050000D03*
%TD*%
%TO.P,R1,1*%
%TO.N,/A*%
%TA.AperFunction,SMDPad,CuDef*%
G36*
G01*
X168200000Y-103049999D02*
X168200000Y-103950001D01*
G75*
G02*
X167950001Y-104200000I-249999J0D01*
G01*
X167249999Y-104200000D01*
G75*
G02*
X167000000Y-103950001I0J249999D01*
G01*
X167000000Y-103049999D01*
G75*
G02*
X167249999Y-102800000I249999J0D01*
G01*
X167950001Y-102800000D01*
G75*
G02*
X168200000Y-103049999I0J-249999D01*
G01*
G37*
%TD.AperFunction*%
%TO.P,R1,2*%
%TO.N,Net-(R1-Pad2)*%
%TA.AperFunction,SMDPad,CuDef*%
G36*
G01*
X166200000Y-103049999D02*
X166200000Y-103950001D01*
G75*
G02*
X165950001Y-104200000I-249999J0D01*
G01*
X165249999Y-104200000D01*
G75*
G02*
X165000000Y-103950001I0J249999D01*
G01*
X165000000Y-103049999D01*
G75*
G02*
X165249999Y-102800000I249999J0D01*
G01*
X165950001Y-102800000D01*
G75*
G02*
X166200000Y-103049999I0J-249999D01*
G01*
G37*
%TD.AperFunction*%
%TD*%
%TO.P,R2,2*%
%TO.N,Net-(R2-Pad2)*%
%TA.AperFunction,SMDPad,CuDef*%
G36*
G01*
X166200000Y-105466665D02*
X166200000Y-106366667D01*
G75*
G02*
X165950001Y-106616666I-249999J0D01*
G01*
X165249999Y-106616666D01*
G75*
G02*
X165000000Y-106366667I0J249999D01*
G01*
X165000000Y-105466665D01*
G75*
G02*
X165249999Y-105216666I249999J0D01*
G01*
X165950001Y-105216666D01*
G75*
G02*
X166200000Y-105466665I0J-249999D01*
G01*
G37*
%TD.AperFunction*%
%TO.P,R2,1*%
%TO.N,/B*%
%TA.AperFunction,SMDPad,CuDef*%
G36*
G01*
X168200000Y-105466665D02*
X168200000Y-106366667D01*
G75*
G02*
X167950001Y-106616666I-249999J0D01*
G01*
X167249999Y-106616666D01*
G75*
G02*
X167000000Y-106366667I0J249999D01*
G01*
X167000000Y-105466665D01*
G75*
G02*
X167249999Y-105216666I249999J0D01*
G01*
X167950001Y-105216666D01*
G75*
G02*
X168200000Y-105466665I0J-249999D01*
G01*
G37*
%TD.AperFunction*%
%TD*%
%TO.P,R3,1*%
%TO.N,/C*%
%TA.AperFunction,SMDPad,CuDef*%
G36*
G01*
X168200000Y-107883331D02*
X168200000Y-108783333D01*
G75*
G02*
X167950001Y-109033332I-249999J0D01*
G01*
X167249999Y-109033332D01*
G75*
G02*
X167000000Y-108783333I0J249999D01*
G01*
X167000000Y-107883331D01*
G75*
G02*
X167249999Y-107633332I249999J0D01*
G01*
X167950001Y-107633332D01*
G75*
G02*
X168200000Y-107883331I0J-249999D01*
G01*
G37*
%TD.AperFunction*%
%TO.P,R3,2*%
%TO.N,Net-(R3-Pad2)*%
%TA.AperFunction,SMDPad,CuDef*%
G36*
G01*
X166200000Y-107883331D02*
X166200000Y-108783333D01*
G75*
G02*
X165950001Y-109033332I-249999J0D01*
G01*
X165249999Y-109033332D01*
G75*
G02*
X165000000Y-108783333I0J249999D01*
G01*
X165000000Y-107883331D01*
G75*
G02*
X165249999Y-107633332I249999J0D01*
G01*
X165950001Y-107633332D01*
G75*
G02*
X166200000Y-107883331I0J-249999D01*
G01*
G37*
%TD.AperFunction*%
%TD*%
%TO.P,R4,2*%
%TO.N,Net-(R4-Pad2)*%
%TA.AperFunction,SMDPad,CuDef*%
G36*
G01*
X166200000Y-110299997D02*
X166200000Y-111199999D01*
G75*
G02*
X165950001Y-111449998I-249999J0D01*
G01*
X165249999Y-111449998D01*
G75*
G02*
X165000000Y-111199999I0J249999D01*
G01*
X165000000Y-110299997D01*
G75*
G02*
X165249999Y-110049998I249999J0D01*
G01*
X165950001Y-110049998D01*
G75*
G02*
X166200000Y-110299997I0J-249999D01*
G01*
G37*
%TD.AperFunction*%
%TO.P,R4,1*%
%TO.N,/D*%
%TA.AperFunction,SMDPad,CuDef*%
G36*
G01*
X168200000Y-110299997D02*
X168200000Y-111199999D01*
G75*
G02*
X167950001Y-111449998I-249999J0D01*
G01*
X167249999Y-111449998D01*
G75*
G02*
X167000000Y-111199999I0J249999D01*
G01*
X167000000Y-110299997D01*
G75*
G02*
X167249999Y-110049998I249999J0D01*
G01*
X167950001Y-110049998D01*
G75*
G02*
X168200000Y-110299997I0J-249999D01*
G01*
G37*
%TD.AperFunction*%
%TD*%
%TO.P,R5,1*%
%TO.N,/E*%
%TA.AperFunction,SMDPad,CuDef*%
G36*
G01*
X168200000Y-112716663D02*
X168200000Y-113616665D01*
G75*
G02*
X167950001Y-113866664I-249999J0D01*
G01*
X167249999Y-113866664D01*
G75*
G02*
X167000000Y-113616665I0J249999D01*
G01*
X167000000Y-112716663D01*
G75*
G02*
X167249999Y-112466664I249999J0D01*
G01*
X167950001Y-112466664D01*
G75*
G02*
X168200000Y-112716663I0J-249999D01*
G01*
G37*
%TD.AperFunction*%
%TO.P,R5,2*%
%TO.N,Net-(R5-Pad2)*%
%TA.AperFunction,SMDPad,CuDef*%
G36*
G01*
X166200000Y-112716663D02*
X166200000Y-113616665D01*
G75*
G02*
X165950001Y-113866664I-249999J0D01*
G01*
X165249999Y-113866664D01*
G75*
G02*
X165000000Y-113616665I0J249999D01*
G01*
X165000000Y-112716663D01*
G75*
G02*
X165249999Y-112466664I249999J0D01*
G01*
X165950001Y-112466664D01*
G75*
G02*
X166200000Y-112716663I0J-249999D01*
G01*
G37*
%TD.AperFunction*%
%TD*%
%TO.P,R6,2*%
%TO.N,Net-(R6-Pad2)*%
%TA.AperFunction,SMDPad,CuDef*%
G36*
G01*
X166200000Y-115133329D02*
X166200000Y-116033331D01*
G75*
G02*
X165950001Y-116283330I-249999J0D01*
G01*
X165249999Y-116283330D01*
G75*
G02*
X165000000Y-116033331I0J249999D01*
G01*
X165000000Y-115133329D01*
G75*
G02*
X165249999Y-114883330I249999J0D01*
G01*
X165950001Y-114883330D01*
G75*
G02*
X166200000Y-115133329I0J-249999D01*
G01*
G37*
%TD.AperFunction*%
%TO.P,R6,1*%
%TO.N,/F*%
%TA.AperFunction,SMDPad,CuDef*%
G36*
G01*
X168200000Y-115133329D02*
X168200000Y-116033331D01*
G75*
G02*
X167950001Y-116283330I-249999J0D01*
G01*
X167249999Y-116283330D01*
G75*
G02*
X167000000Y-116033331I0J249999D01*
G01*
X167000000Y-115133329D01*
G75*
G02*
X167249999Y-114883330I249999J0D01*
G01*
X167950001Y-114883330D01*
G75*
G02*
X168200000Y-115133329I0J-249999D01*
G01*
G37*
%TD.AperFunction*%
%TD*%
%TO.P,R7,1*%
%TO.N,/G*%
%TA.AperFunction,SMDPad,CuDef*%
G36*
G01*
X168200000Y-117549999D02*
X168200000Y-118450001D01*
G75*
G02*
X167950001Y-118700000I-249999J0D01*
G01*
X167249999Y-118700000D01*
G75*
G02*
X167000000Y-118450001I0J249999D01*
G01*
X167000000Y-117549999D01*
G75*
G02*
X167249999Y-117300000I249999J0D01*
G01*
X167950001Y-117300000D01*
G75*
G02*
X168200000Y-117549999I0J-249999D01*
G01*
G37*
%TD.AperFunction*%
%TO.P,R7,2*%
%TO.N,Net-(R7-Pad2)*%
%TA.AperFunction,SMDPad,CuDef*%
G36*
G01*
X166200000Y-117549999D02*
X166200000Y-118450001D01*
G75*
G02*
X165950001Y-118700000I-249999J0D01*
G01*
X165249999Y-118700000D01*
G75*
G02*
X165000000Y-118450001I0J249999D01*
G01*
X165000000Y-117549999D01*
G75*
G02*
X165249999Y-117300000I249999J0D01*
G01*
X165950001Y-117300000D01*
G75*
G02*
X166200000Y-117549999I0J-249999D01*
G01*
G37*
%TD.AperFunction*%
%TD*%
%TO.P,R8,2*%
%TO.N,Net-(R8-Pad2)*%
%TA.AperFunction,SMDPad,CuDef*%
G36*
G01*
X149300000Y-101849999D02*
X149300000Y-102750001D01*
G75*
G02*
X149050001Y-103000000I-249999J0D01*
G01*
X148349999Y-103000000D01*
G75*
G02*
X148100000Y-102750001I0J249999D01*
G01*
X148100000Y-101849999D01*
G75*
G02*
X148349999Y-101600000I249999J0D01*
G01*
X149050001Y-101600000D01*
G75*
G02*
X149300000Y-101849999I0J-249999D01*
G01*
G37*
%TD.AperFunction*%
%TO.P,R8,1*%
%TO.N,Net-(Q1-Pad1)*%
%TA.AperFunction,SMDPad,CuDef*%
G36*
G01*
X151300000Y-101849999D02*
X151300000Y-102750001D01*
G75*
G02*
X151050001Y-103000000I-249999J0D01*
G01*
X150349999Y-103000000D01*
G75*
G02*
X150100000Y-102750001I0J249999D01*
G01*
X150100000Y-101849999D01*
G75*
G02*
X150349999Y-101600000I249999J0D01*
G01*
X151050001Y-101600000D01*
G75*
G02*
X151300000Y-101849999I0J-249999D01*
G01*
G37*
%TD.AperFunction*%
%TD*%
%TO.P,R9,1*%
%TO.N,Net-(Q2-Pad1)*%
%TA.AperFunction,SMDPad,CuDef*%
G36*
G01*
X158500000Y-101749999D02*
X158500000Y-102650001D01*
G75*
G02*
X158250001Y-102900000I-249999J0D01*
G01*
X157549999Y-102900000D01*
G75*
G02*
X157300000Y-102650001I0J249999D01*
G01*
X157300000Y-101749999D01*
G75*
G02*
X157549999Y-101500000I249999J0D01*
G01*
X158250001Y-101500000D01*
G75*
G02*
X158500000Y-101749999I0J-249999D01*
G01*
G37*
%TD.AperFunction*%
%TO.P,R9,2*%
%TO.N,Net-(R9-Pad2)*%
%TA.AperFunction,SMDPad,CuDef*%
G36*
G01*
X156500000Y-101749999D02*
X156500000Y-102650001D01*
G75*
G02*
X156250001Y-102900000I-249999J0D01*
G01*
X155549999Y-102900000D01*
G75*
G02*
X155300000Y-102650001I0J249999D01*
G01*
X155300000Y-101749999D01*
G75*
G02*
X155549999Y-101500000I249999J0D01*
G01*
X156250001Y-101500000D01*
G75*
G02*
X156500000Y-101749999I0J-249999D01*
G01*
G37*
%TD.AperFunction*%
%TD*%
%TO.P,U1,1*%
%TO.N,/~RESET*%
%TA.AperFunction,SMDPad,CuDef*%
G36*
G01*
X147735000Y-116475000D02*
X147435000Y-116475000D01*
G75*
G02*
X147285000Y-116325000I0J150000D01*
G01*
X147285000Y-114575000D01*
G75*
G02*
X147435000Y-114425000I150000J0D01*
G01*
X147735000Y-114425000D01*
G75*
G02*
X147885000Y-114575000I0J-150000D01*
G01*
X147885000Y-116325000D01*
G75*
G02*
X147735000Y-116475000I-150000J0D01*
G01*
G37*
%TD.AperFunction*%
%TO.P,U1,2*%
%TO.N,Net-(R1-Pad2)*%
%TA.AperFunction,SMDPad,CuDef*%
G36*
G01*
X149005000Y-116475000D02*
X148705000Y-116475000D01*
G75*
G02*
X148555000Y-116325000I0J150000D01*
G01*
X148555000Y-114575000D01*
G75*
G02*
X148705000Y-114425000I150000J0D01*
G01*
X149005000Y-114425000D01*
G75*
G02*
X149155000Y-114575000I0J-150000D01*
G01*
X149155000Y-116325000D01*
G75*
G02*
X149005000Y-116475000I-150000J0D01*
G01*
G37*
%TD.AperFunction*%
%TO.P,U1,3*%
%TO.N,Net-(R2-Pad2)*%
%TA.AperFunction,SMDPad,CuDef*%
G36*
G01*
X150275000Y-116475000D02*
X149975000Y-116475000D01*
G75*
G02*
X149825000Y-116325000I0J150000D01*
G01*
X149825000Y-114575000D01*
G75*
G02*
X149975000Y-114425000I150000J0D01*
G01*
X150275000Y-114425000D01*
G75*
G02*
X150425000Y-114575000I0J-150000D01*
G01*
X150425000Y-116325000D01*
G75*
G02*
X150275000Y-116475000I-150000J0D01*
G01*
G37*
%TD.AperFunction*%
%TO.P,U1,4*%
%TO.N,Net-(R8-Pad2)*%
%TA.AperFunction,SMDPad,CuDef*%
G36*
G01*
X151545000Y-116475000D02*
X151245000Y-116475000D01*
G75*
G02*
X151095000Y-116325000I0J150000D01*
G01*
X151095000Y-114575000D01*
G75*
G02*
X151245000Y-114425000I150000J0D01*
G01*
X151545000Y-114425000D01*
G75*
G02*
X151695000Y-114575000I0J-150000D01*
G01*
X151695000Y-116325000D01*
G75*
G02*
X151545000Y-116475000I-150000J0D01*
G01*
G37*
%TD.AperFunction*%
%TO.P,U1,5*%
%TO.N,Net-(R9-Pad2)*%
%TA.AperFunction,SMDPad,CuDef*%
G36*
G01*
X152815000Y-116475000D02*
X152515000Y-116475000D01*
G75*
G02*
X152365000Y-116325000I0J150000D01*
G01*
X152365000Y-114575000D01*
G75*
G02*
X152515000Y-114425000I150000J0D01*
G01*
X152815000Y-114425000D01*
G75*
G02*
X152965000Y-114575000I0J-150000D01*
G01*
X152965000Y-116325000D01*
G75*
G02*
X152815000Y-116475000I-150000J0D01*
G01*
G37*
%TD.AperFunction*%
%TO.P,U1,6*%
%TO.N,Net-(R3-Pad2)*%
%TA.AperFunction,SMDPad,CuDef*%
G36*
G01*
X154085000Y-116475000D02*
X153785000Y-116475000D01*
G75*
G02*
X153635000Y-116325000I0J150000D01*
G01*
X153635000Y-114575000D01*
G75*
G02*
X153785000Y-114425000I150000J0D01*
G01*
X154085000Y-114425000D01*
G75*
G02*
X154235000Y-114575000I0J-150000D01*
G01*
X154235000Y-116325000D01*
G75*
G02*
X154085000Y-116475000I-150000J0D01*
G01*
G37*
%TD.AperFunction*%
%TO.P,U1,7*%
%TO.N,Net-(R4-Pad2)*%
%TA.AperFunction,SMDPad,CuDef*%
G36*
G01*
X155355000Y-116475000D02*
X155055000Y-116475000D01*
G75*
G02*
X154905000Y-116325000I0J150000D01*
G01*
X154905000Y-114575000D01*
G75*
G02*
X155055000Y-114425000I150000J0D01*
G01*
X155355000Y-114425000D01*
G75*
G02*
X155505000Y-114575000I0J-150000D01*
G01*
X155505000Y-116325000D01*
G75*
G02*
X155355000Y-116475000I-150000J0D01*
G01*
G37*
%TD.AperFunction*%
%TO.P,U1,8*%
%TO.N,Net-(R5-Pad2)*%
%TA.AperFunction,SMDPad,CuDef*%
G36*
G01*
X156625000Y-116475000D02*
X156325000Y-116475000D01*
G75*
G02*
X156175000Y-116325000I0J150000D01*
G01*
X156175000Y-114575000D01*
G75*
G02*
X156325000Y-114425000I150000J0D01*
G01*
X156625000Y-114425000D01*
G75*
G02*
X156775000Y-114575000I0J-150000D01*
G01*
X156775000Y-116325000D01*
G75*
G02*
X156625000Y-116475000I-150000J0D01*
G01*
G37*
%TD.AperFunction*%
%TO.P,U1,9*%
%TO.N,Net-(R6-Pad2)*%
%TA.AperFunction,SMDPad,CuDef*%
G36*
G01*
X157895000Y-116475000D02*
X157595000Y-116475000D01*
G75*
G02*
X157445000Y-116325000I0J150000D01*
G01*
X157445000Y-114575000D01*
G75*
G02*
X157595000Y-114425000I150000J0D01*
G01*
X157895000Y-114425000D01*
G75*
G02*
X158045000Y-114575000I0J-150000D01*
G01*
X158045000Y-116325000D01*
G75*
G02*
X157895000Y-116475000I-150000J0D01*
G01*
G37*
%TD.AperFunction*%
%TO.P,U1,10*%
%TO.N,GND*%
%TA.AperFunction,SMDPad,CuDef*%
G36*
G01*
X159165000Y-116475000D02*
X158865000Y-116475000D01*
G75*
G02*
X158715000Y-116325000I0J150000D01*
G01*
X158715000Y-114575000D01*
G75*
G02*
X158865000Y-114425000I150000J0D01*
G01*
X159165000Y-114425000D01*
G75*
G02*
X159315000Y-114575000I0J-150000D01*
G01*
X159315000Y-116325000D01*
G75*
G02*
X159165000Y-116475000I-150000J0D01*
G01*
G37*
%TD.AperFunction*%
%TO.P,U1,11*%
%TO.N,Net-(R7-Pad2)*%
%TA.AperFunction,SMDPad,CuDef*%
G36*
G01*
X159165000Y-107175000D02*
X158865000Y-107175000D01*
G75*
G02*
X158715000Y-107025000I0J150000D01*
G01*
X158715000Y-105275000D01*
G75*
G02*
X158865000Y-105125000I150000J0D01*
G01*
X159165000Y-105125000D01*
G75*
G02*
X159315000Y-105275000I0J-150000D01*
G01*
X159315000Y-107025000D01*
G75*
G02*
X159165000Y-107175000I-150000J0D01*
G01*
G37*
%TD.AperFunction*%
%TO.P,U1,12*%
%TO.N,/D0*%
%TA.AperFunction,SMDPad,CuDef*%
G36*
G01*
X157895000Y-107175000D02*
X157595000Y-107175000D01*
G75*
G02*
X157445000Y-107025000I0J150000D01*
G01*
X157445000Y-105275000D01*
G75*
G02*
X157595000Y-105125000I150000J0D01*
G01*
X157895000Y-105125000D01*
G75*
G02*
X158045000Y-105275000I0J-150000D01*
G01*
X158045000Y-107025000D01*
G75*
G02*
X157895000Y-107175000I-150000J0D01*
G01*
G37*
%TD.AperFunction*%
%TO.P,U1,13*%
%TO.N,/D1*%
%TA.AperFunction,SMDPad,CuDef*%
G36*
G01*
X156625000Y-107175000D02*
X156325000Y-107175000D01*
G75*
G02*
X156175000Y-107025000I0J150000D01*
G01*
X156175000Y-105275000D01*
G75*
G02*
X156325000Y-105125000I150000J0D01*
G01*
X156625000Y-105125000D01*
G75*
G02*
X156775000Y-105275000I0J-150000D01*
G01*
X156775000Y-107025000D01*
G75*
G02*
X156625000Y-107175000I-150000J0D01*
G01*
G37*
%TD.AperFunction*%
%TO.P,U1,14*%
%TO.N,/D2*%
%TA.AperFunction,SMDPad,CuDef*%
G36*
G01*
X155355000Y-107175000D02*
X155055000Y-107175000D01*
G75*
G02*
X154905000Y-107025000I0J150000D01*
G01*
X154905000Y-105275000D01*
G75*
G02*
X155055000Y-105125000I150000J0D01*
G01*
X155355000Y-105125000D01*
G75*
G02*
X155505000Y-105275000I0J-150000D01*
G01*
X155505000Y-107025000D01*
G75*
G02*
X155355000Y-107175000I-150000J0D01*
G01*
G37*
%TD.AperFunction*%
%TO.P,U1,15*%
%TO.N,/D3*%
%TA.AperFunction,SMDPad,CuDef*%
G36*
G01*
X154085000Y-107175000D02*
X153785000Y-107175000D01*
G75*
G02*
X153635000Y-107025000I0J150000D01*
G01*
X153635000Y-105275000D01*
G75*
G02*
X153785000Y-105125000I150000J0D01*
G01*
X154085000Y-105125000D01*
G75*
G02*
X154235000Y-105275000I0J-150000D01*
G01*
X154235000Y-107025000D01*
G75*
G02*
X154085000Y-107175000I-150000J0D01*
G01*
G37*
%TD.AperFunction*%
%TO.P,U1,16*%
%TO.N,/D4*%
%TA.AperFunction,SMDPad,CuDef*%
G36*
G01*
X152815000Y-107175000D02*
X152515000Y-107175000D01*
G75*
G02*
X152365000Y-107025000I0J150000D01*
G01*
X152365000Y-105275000D01*
G75*
G02*
X152515000Y-105125000I150000J0D01*
G01*
X152815000Y-105125000D01*
G75*
G02*
X152965000Y-105275000I0J-150000D01*
G01*
X152965000Y-107025000D01*
G75*
G02*
X152815000Y-107175000I-150000J0D01*
G01*
G37*
%TD.AperFunction*%
%TO.P,U1,17*%
%TO.N,/D5*%
%TA.AperFunction,SMDPad,CuDef*%
G36*
G01*
X151545000Y-107175000D02*
X151245000Y-107175000D01*
G75*
G02*
X151095000Y-107025000I0J150000D01*
G01*
X151095000Y-105275000D01*
G75*
G02*
X151245000Y-105125000I150000J0D01*
G01*
X151545000Y-105125000D01*
G75*
G02*
X151695000Y-105275000I0J-150000D01*
G01*
X151695000Y-107025000D01*
G75*
G02*
X151545000Y-107175000I-150000J0D01*
G01*
G37*
%TD.AperFunction*%
%TO.P,U1,18*%
%TO.N,/D6*%
%TA.AperFunction,SMDPad,CuDef*%
G36*
G01*
X150275000Y-107175000D02*
X149975000Y-107175000D01*
G75*
G02*
X149825000Y-107025000I0J150000D01*
G01*
X149825000Y-105275000D01*
G75*
G02*
X149975000Y-105125000I150000J0D01*
G01*
X150275000Y-105125000D01*
G75*
G02*
X150425000Y-105275000I0J-150000D01*
G01*
X150425000Y-107025000D01*
G75*
G02*
X150275000Y-107175000I-150000J0D01*
G01*
G37*
%TD.AperFunction*%
%TO.P,U1,19*%
%TO.N,/D7*%
%TA.AperFunction,SMDPad,CuDef*%
G36*
G01*
X149005000Y-107175000D02*
X148705000Y-107175000D01*
G75*
G02*
X148555000Y-107025000I0J150000D01*
G01*
X148555000Y-105275000D01*
G75*
G02*
X148705000Y-105125000I150000J0D01*
G01*
X149005000Y-105125000D01*
G75*
G02*
X149155000Y-105275000I0J-150000D01*
G01*
X149155000Y-107025000D01*
G75*
G02*
X149005000Y-107175000I-150000J0D01*
G01*
G37*
%TD.AperFunction*%
%TO.P,U1,20*%
%TO.N,VCC*%
%TA.AperFunction,SMDPad,CuDef*%
G36*
G01*
X147735000Y-107175000D02*
X147435000Y-107175000D01*
G75*
G02*
X147285000Y-107025000I0J150000D01*
G01*
X147285000Y-105275000D01*
G75*
G02*
X147435000Y-105125000I150000J0D01*
G01*
X147735000Y-105125000D01*
G75*
G02*
X147885000Y-105275000I0J-150000D01*
G01*
X147885000Y-107025000D01*
G75*
G02*
X147735000Y-107175000I-150000J0D01*
G01*
G37*
%TD.AperFunction*%
%TD*%
D10*
%TO.P,J11,1*%
%TO.N,/CA2*%
X172600000Y-107400000D03*
D11*
%TO.P,J11,2*%
%TO.N,/F*%
X172600000Y-109940000D03*
%TO.P,J11,3*%
%TO.N,/G*%
X172600000Y-112480000D03*
%TO.P,J11,4*%
%TO.N,/E*%
X172600000Y-115020000D03*
%TO.P,J11,5*%
%TO.N,/D*%
X172600000Y-117560000D03*
%TD*%
%TO.P,J12,5*%
%TO.N,/CA2*%
X177680000Y-117560000D03*
%TO.P,J12,4*%
%TO.N,Net-(J12-Pad4)*%
X177680000Y-115020000D03*
%TO.P,J12,3*%
%TO.N,/C*%
X177680000Y-112480000D03*
%TO.P,J12,2*%
%TO.N,/B*%
X177680000Y-109940000D03*
D10*
%TO.P,J12,1*%
%TO.N,/A*%
X177680000Y-107400000D03*
%TD*%
%TO.P,J21,1*%
%TO.N,/CA1*%
X180400000Y-107400000D03*
D11*
%TO.P,J21,2*%
%TO.N,/F*%
X180400000Y-109940000D03*
%TO.P,J21,3*%
%TO.N,/G*%
X180400000Y-112480000D03*
%TO.P,J21,4*%
%TO.N,/E*%
X180400000Y-115020000D03*
%TO.P,J21,5*%
%TO.N,/D*%
X180400000Y-117560000D03*
%TD*%
%TO.P,J22,5*%
%TO.N,/CA1*%
X185480000Y-117560000D03*
%TO.P,J22,4*%
%TO.N,Net-(J22-Pad4)*%
X185480000Y-115020000D03*
%TO.P,J22,3*%
%TO.N,/C*%
X185480000Y-112480000D03*
%TO.P,J22,2*%
%TO.N,/B*%
X185480000Y-109940000D03*
D10*
%TO.P,J22,1*%
%TO.N,/A*%
X185480000Y-107400000D03*
%TD*%
D13*
%TO.N,GND*%
X143700000Y-110400000D03*
X144400000Y-105300000D03*
X145804112Y-111204112D03*
%TO.N,/A*%
X169200000Y-106600000D03*
%TO.N,/D*%
X168600000Y-112100000D03*
%TO.N,/B*%
X169400000Y-108300000D03*
%TO.N,/E*%
X169300000Y-113200000D03*
%TO.N,/C*%
X169500000Y-112100000D03*
%TO.N,/D0*%
X157800000Y-107700000D03*
%TO.N,/D1*%
X156500000Y-107700000D03*
%TO.N,/D2*%
X155200000Y-107700000D03*
%TO.N,/D3*%
X153900000Y-107700000D03*
%TO.N,/D4*%
X152700000Y-107700000D03*
%TO.N,/D5*%
X151400000Y-107700000D03*
X143100000Y-118000000D03*
%TO.N,/D6*%
X150100000Y-107700000D03*
%TO.N,/~RESET*%
X142900000Y-115400000D03*
%TO.N,Net-(R1-Pad2)*%
X162500000Y-117600000D03*
X164300000Y-103800000D03*
%TO.N,Net-(R7-Pad2)*%
X162800000Y-116400000D03*
X159100000Y-107700000D03*
%TO.N,Net-(R8-Pad2)*%
X151400000Y-113800000D03*
X151400000Y-110100000D03*
%TO.N,Net-(R9-Pad2)*%
X153200000Y-113800000D03*
X154500000Y-103500000D03*
%TO.N,VCC*%
X147600000Y-104500000D03*
X172800000Y-102900000D03*
X180700000Y-102900000D03*
%TD*%
D14*
%TO.N,GND*%
X143660000Y-110360000D02*
X143700000Y-110400000D01*
X142220000Y-110360000D02*
X143660000Y-110360000D01*
X144400000Y-105300000D02*
X144400000Y-103000000D01*
X144075000Y-102675000D02*
X142700000Y-102675000D01*
X144400000Y-103000000D02*
X144075000Y-102675000D01*
X142700000Y-102675000D02*
X139425000Y-102675000D01*
X138200000Y-103900000D02*
X138200000Y-105280000D01*
X139425000Y-102675000D02*
X138200000Y-103900000D01*
X159015000Y-115450000D02*
X159015000Y-116885000D01*
X159015000Y-116885000D02*
X158600000Y-117300000D01*
X146241392Y-111204112D02*
X145804112Y-111204112D01*
X149434410Y-114397130D02*
X146241392Y-111204112D01*
X149434410Y-116391690D02*
X149434410Y-114397130D01*
X150342720Y-117300000D02*
X149434410Y-116391690D01*
X158600000Y-117300000D02*
X150342720Y-117300000D01*
D15*
%TO.N,/A*%
X167600000Y-103500000D02*
X169200000Y-105100000D01*
X169200000Y-105100000D02*
X169200000Y-106600000D01*
%TO.N,/D*%
X167600000Y-111100000D02*
X168600000Y-112100000D01*
X167600000Y-110749998D02*
X167600000Y-111100000D01*
%TO.N,/B*%
X167600000Y-106500000D02*
X169400000Y-108300000D01*
X167600000Y-105916666D02*
X167600000Y-106500000D01*
%TO.N,/E*%
X167600000Y-113166664D02*
X168866664Y-113166664D01*
X169266664Y-113166664D02*
X169300000Y-113200000D01*
X168866664Y-113166664D02*
X169266664Y-113166664D01*
%TO.N,/C*%
X167666668Y-108400000D02*
X167600000Y-108333332D01*
X167600000Y-108333332D02*
X167600000Y-108800000D01*
X169500000Y-110700000D02*
X169500000Y-112100000D01*
X167600000Y-108800000D02*
X169500000Y-110700000D01*
%TO.N,/G*%
X167980000Y-118000000D02*
X167600000Y-118000000D01*
X172600000Y-112480000D02*
X170200000Y-114880000D01*
X170200000Y-114880000D02*
X170200000Y-117200000D01*
X169400000Y-118000000D02*
X167600000Y-118000000D01*
X170200000Y-117200000D02*
X169400000Y-118000000D01*
%TO.N,/F*%
X168162492Y-115583330D02*
X167600000Y-115583330D01*
X172600000Y-109940000D02*
X171200000Y-111340000D01*
X171200000Y-111340000D02*
X171200000Y-113100000D01*
X171200000Y-113100000D02*
X169600000Y-114700000D01*
X169600000Y-114700000D02*
X169600000Y-115200000D01*
X169216670Y-115583330D02*
X167600000Y-115583330D01*
X169600000Y-115200000D02*
X169216670Y-115583330D01*
D14*
%TO.N,/CA2*%
X175800000Y-104200000D02*
X172600000Y-107400000D01*
X175800000Y-102000000D02*
X175800000Y-104200000D01*
X177680000Y-117560000D02*
X175200000Y-115080000D01*
X175200000Y-110000000D02*
X172600000Y-107400000D01*
X175200000Y-115080000D02*
X175200000Y-110000000D01*
%TO.N,/CA1*%
X183800000Y-104000000D02*
X180400000Y-107400000D01*
X183800000Y-102000000D02*
X183800000Y-104000000D01*
X185480000Y-117560000D02*
X183100000Y-115180000D01*
X183100000Y-110100000D02*
X180400000Y-107400000D01*
X183100000Y-115180000D02*
X183100000Y-110100000D01*
D15*
%TO.N,/D0*%
X157745000Y-107645000D02*
X157800000Y-107700000D01*
X157745000Y-106150000D02*
X157745000Y-107645000D01*
%TO.N,/D1*%
X156475000Y-107675000D02*
X156500000Y-107700000D01*
X156475000Y-106150000D02*
X156475000Y-107675000D01*
%TO.N,/D2*%
X155205000Y-107695000D02*
X155200000Y-107700000D01*
X155205000Y-106150000D02*
X155205000Y-107695000D01*
%TO.N,/D3*%
X153935000Y-106150000D02*
X153935000Y-107565000D01*
X153900000Y-107600000D02*
X153900000Y-107700000D01*
X153935000Y-107565000D02*
X153900000Y-107600000D01*
%TO.N,/D4*%
X152665000Y-107665000D02*
X152700000Y-107700000D01*
X152665000Y-106150000D02*
X152665000Y-107665000D01*
%TO.N,/D5*%
X151395000Y-107695000D02*
X151400000Y-107700000D01*
X151395000Y-106150000D02*
X151395000Y-107695000D01*
X147300000Y-120000000D02*
X147300000Y-118600000D01*
X146700000Y-118000000D02*
X143100000Y-118000000D01*
X147300000Y-118600000D02*
X146700000Y-118000000D01*
%TO.N,/D6*%
X150125000Y-107675000D02*
X150100000Y-107700000D01*
X150125000Y-106150000D02*
X150125000Y-107675000D01*
%TO.N,/D7*%
X148855000Y-106150000D02*
X148855000Y-107345000D01*
X148855000Y-107345000D02*
X144900000Y-111300000D01*
X139278601Y-113978601D02*
X138200000Y-112900000D01*
X144900000Y-112102908D02*
X143024307Y-113978601D01*
X144900000Y-111300000D02*
X144900000Y-112102908D01*
X142220000Y-113980000D02*
X142221399Y-113978601D01*
X142220000Y-120000000D02*
X142220000Y-113980000D01*
X142221399Y-113978601D02*
X139278601Y-113978601D01*
X143024307Y-113978601D02*
X142221399Y-113978601D01*
%TO.N,/~RESET*%
X142950000Y-115450000D02*
X142900000Y-115400000D01*
X147585000Y-115450000D02*
X142950000Y-115450000D01*
%TO.N,Net-(Q1-Pad1)*%
X150700000Y-101500000D02*
X151778601Y-100421399D01*
X150700000Y-102300000D02*
X150700000Y-101500000D01*
X174432881Y-100421399D02*
X174454280Y-100400000D01*
X151778601Y-100421399D02*
X174432881Y-100421399D01*
X181150000Y-100400000D02*
X181800000Y-101050000D01*
X174454280Y-100400000D02*
X181150000Y-100400000D01*
%TO.N,Net-(Q2-Pad1)*%
X159050000Y-101050000D02*
X157900000Y-102200000D01*
X159050000Y-101050000D02*
X173800000Y-101050000D01*
%TO.N,Net-(R1-Pad2)*%
X150035610Y-117655610D02*
X158747298Y-117655610D01*
X148855000Y-116475000D02*
X150035610Y-117655610D01*
X148855000Y-115450000D02*
X148855000Y-116475000D01*
X162444390Y-117655610D02*
X162500000Y-117600000D01*
X158747298Y-117655610D02*
X162444390Y-117655610D01*
X164300000Y-103800000D02*
X164600000Y-103500000D01*
X164600000Y-103500000D02*
X165600000Y-103500000D01*
%TO.N,Net-(R2-Pad2)*%
X150125000Y-115450000D02*
X150125000Y-116579372D01*
X150125000Y-116579372D02*
X150490018Y-116944390D01*
X156082677Y-108271501D02*
X162728499Y-108271501D01*
X150125000Y-114229178D02*
X156082677Y-108271501D01*
X150125000Y-115450000D02*
X150125000Y-114229178D01*
X165083334Y-105916666D02*
X165600000Y-105916666D01*
X162728499Y-108271501D02*
X165083334Y-105916666D01*
%TO.N,Net-(R3-Pad2)*%
X153935000Y-114425000D02*
X155260000Y-113100000D01*
X153935000Y-115450000D02*
X153935000Y-114425000D01*
X155260000Y-113100000D02*
X162400000Y-113100000D01*
X162400000Y-113100000D02*
X164200000Y-111300000D01*
X164200000Y-109733332D02*
X165600000Y-108333332D01*
X164200000Y-111300000D02*
X164200000Y-109733332D01*
%TO.N,Net-(R4-Pad2)*%
X155205000Y-114425000D02*
X156130000Y-113500000D01*
X155205000Y-115450000D02*
X155205000Y-114425000D01*
X156130000Y-113500000D02*
X163100000Y-113500000D01*
X165600000Y-111000000D02*
X165600000Y-110749998D01*
X163100000Y-113500000D02*
X165600000Y-111000000D01*
%TO.N,Net-(R5-Pad2)*%
X156475000Y-115159564D02*
X156475000Y-115450000D01*
X164391580Y-113891580D02*
X157742984Y-113891580D01*
X157742984Y-113891580D02*
X156475000Y-115159564D01*
X164400000Y-113900000D02*
X164391580Y-113891580D01*
X164866664Y-113900000D02*
X164400000Y-113900000D01*
X165600000Y-113166664D02*
X164866664Y-113900000D01*
%TO.N,Net-(R6-Pad2)*%
X159321826Y-114196390D02*
X160300000Y-115174564D01*
X157973610Y-114196390D02*
X159321826Y-114196390D01*
X157745000Y-114425000D02*
X157973610Y-114196390D01*
X157745000Y-115450000D02*
X157745000Y-114425000D01*
X160300000Y-115174564D02*
X160300000Y-115200000D01*
X160683330Y-115583330D02*
X165600000Y-115583330D01*
X160300000Y-115200000D02*
X160683330Y-115583330D01*
%TO.N,Net-(R7-Pad2)*%
X164400000Y-118000000D02*
X162800000Y-116400000D01*
X165600000Y-118000000D02*
X164400000Y-118000000D01*
X159100000Y-106235000D02*
X159015000Y-106150000D01*
X159100000Y-107700000D02*
X159100000Y-106235000D01*
%TO.N,Net-(R8-Pad2)*%
X151395000Y-113805000D02*
X151400000Y-113800000D01*
X151395000Y-115450000D02*
X151395000Y-113805000D01*
X150828499Y-105293063D02*
X149935436Y-104400000D01*
X150828499Y-109528499D02*
X150828499Y-105293063D01*
X151400000Y-110100000D02*
X150828499Y-109528499D01*
X149935436Y-104400000D02*
X149900000Y-104400000D01*
X148700000Y-103200000D02*
X148700000Y-102300000D01*
X149900000Y-104400000D02*
X148700000Y-103200000D01*
%TO.N,Net-(R9-Pad2)*%
X152665000Y-114335000D02*
X153200000Y-113800000D01*
X152665000Y-115450000D02*
X152665000Y-114335000D01*
X155800000Y-102200000D02*
X155900000Y-102200000D01*
X154500000Y-103500000D02*
X155800000Y-102200000D01*
D14*
%TO.N,VCC*%
X142220000Y-112900000D02*
X143600000Y-112900000D01*
X143600000Y-112900000D02*
X144400000Y-112100000D01*
X144400000Y-112100000D02*
X144400000Y-106500000D01*
X143700000Y-105800000D02*
X142700000Y-105800000D01*
X144400000Y-106500000D02*
X143700000Y-105800000D01*
X142700000Y-105800000D02*
X142700000Y-106100000D01*
X140980000Y-107820000D02*
X138200000Y-107820000D01*
X142700000Y-106100000D02*
X140980000Y-107820000D01*
X147585000Y-106150000D02*
X147585000Y-106315000D01*
X147400000Y-106500000D02*
X144400000Y-106500000D01*
X147585000Y-106315000D02*
X147400000Y-106500000D01*
X147585000Y-104515000D02*
X147600000Y-104500000D01*
X147585000Y-106150000D02*
X147585000Y-104515000D01*
D15*
X173750000Y-102900000D02*
X173800000Y-102950000D01*
D14*
X172800000Y-102900000D02*
X173750000Y-102900000D01*
D15*
X181750000Y-103000000D02*
X181800000Y-102950000D01*
D14*
X181750000Y-102900000D02*
X181800000Y-102950000D01*
X180700000Y-102900000D02*
X181750000Y-102900000D01*
%TD*%
D16*
X146146525Y-120946632D02*
X146353368Y-121153475D01*
X146596589Y-121315990D01*
X146654555Y-121340000D01*
X145405445Y-121340000D01*
X145463411Y-121315990D01*
X145706632Y-121153475D01*
X145913475Y-120946632D01*
X146030000Y-120772240D01*
X146146525Y-120946632D01*
%TA.AperFunction,NonConductor*%
D17*
G36*
X146146525Y-120946632D02*
G01*
X146353368Y-121153475D01*
X146596589Y-121315990D01*
X146654555Y-121340000D01*
X145405445Y-121340000D01*
X145463411Y-121315990D01*
X145706632Y-121153475D01*
X145913475Y-120946632D01*
X146030000Y-120772240D01*
X146146525Y-120946632D01*
G37*
%TD.AperFunction*%
D16*
X187340000Y-121340000D02*
X161253889Y-121340000D01*
X161301185Y-121301185D01*
X161380537Y-121204494D01*
X161439502Y-121094180D01*
X161475812Y-120974482D01*
X161488072Y-120850000D01*
X161488072Y-119150000D01*
X161475812Y-119025518D01*
X161439502Y-118905820D01*
X161380537Y-118795506D01*
X161301185Y-118698815D01*
X161204494Y-118619463D01*
X161094180Y-118560498D01*
X160974482Y-118524188D01*
X160850000Y-118511928D01*
X159150000Y-118511928D01*
X159025518Y-118524188D01*
X158905820Y-118560498D01*
X158795506Y-118619463D01*
X158698815Y-118698815D01*
X158619463Y-118795506D01*
X158560498Y-118905820D01*
X158538487Y-118978380D01*
X158406632Y-118846525D01*
X158163411Y-118684010D01*
X157893158Y-118572068D01*
X157606260Y-118515000D01*
X157313740Y-118515000D01*
X157026842Y-118572068D01*
X156756589Y-118684010D01*
X156513368Y-118846525D01*
X156306525Y-119053368D01*
X156190000Y-119227760D01*
X156073475Y-119053368D01*
X155866632Y-118846525D01*
X155623411Y-118684010D01*
X155353158Y-118572068D01*
X155066260Y-118515000D01*
X154773740Y-118515000D01*
X154486842Y-118572068D01*
X154216589Y-118684010D01*
X153973368Y-118846525D01*
X153766525Y-119053368D01*
X153650000Y-119227760D01*
X153533475Y-119053368D01*
X153326632Y-118846525D01*
X153083411Y-118684010D01*
X152813158Y-118572068D01*
X152526260Y-118515000D01*
X152233740Y-118515000D01*
X151946842Y-118572068D01*
X151676589Y-118684010D01*
X151433368Y-118846525D01*
X151226525Y-119053368D01*
X151110000Y-119227760D01*
X150993475Y-119053368D01*
X150786632Y-118846525D01*
X150543411Y-118684010D01*
X150273158Y-118572068D01*
X149986260Y-118515000D01*
X149693740Y-118515000D01*
X149406842Y-118572068D01*
X149136589Y-118684010D01*
X148893368Y-118846525D01*
X148686525Y-119053368D01*
X148570000Y-119227760D01*
X148453475Y-119053368D01*
X148246632Y-118846525D01*
X148011200Y-118689214D01*
X148011200Y-118634925D01*
X148014640Y-118599999D01*
X148011200Y-118565073D01*
X148011200Y-118565064D01*
X148000909Y-118460580D01*
X147960242Y-118326519D01*
X147894202Y-118202967D01*
X147805327Y-118094673D01*
X147778190Y-118072402D01*
X147227601Y-117521814D01*
X147205327Y-117494673D01*
X147097033Y-117405798D01*
X146973481Y-117339758D01*
X146839420Y-117299091D01*
X146734936Y-117288800D01*
X146734926Y-117288800D01*
X146700000Y-117285360D01*
X146665074Y-117288800D01*
X143771760Y-117288800D01*
X143723375Y-117240415D01*
X143563210Y-117133396D01*
X143385243Y-117059680D01*
X143196315Y-117022100D01*
X143003685Y-117022100D01*
X142931200Y-117036518D01*
X142931200Y-116377900D01*
X142996315Y-116377900D01*
X143185243Y-116340320D01*
X143363210Y-116266604D01*
X143520958Y-116161200D01*
X146646928Y-116161200D01*
X146646928Y-116325000D01*
X146662071Y-116478745D01*
X146706916Y-116626582D01*
X146779742Y-116762829D01*
X146877749Y-116882251D01*
X146997171Y-116980258D01*
X147133418Y-117053084D01*
X147281255Y-117097929D01*
X147435000Y-117113072D01*
X147735000Y-117113072D01*
X147888745Y-117097929D01*
X148036582Y-117053084D01*
X148172829Y-116980258D01*
X148220000Y-116941546D01*
X148267171Y-116980258D01*
X148403418Y-117053084D01*
X148437694Y-117063481D01*
X149508017Y-118133806D01*
X149530283Y-118160937D01*
X149557414Y-118183203D01*
X149557419Y-118183208D01*
X149638577Y-118249812D01*
X149762128Y-118315852D01*
X149797293Y-118326519D01*
X149896190Y-118356519D01*
X150000674Y-118366810D01*
X150000681Y-118366810D01*
X150035610Y-118370250D01*
X150070538Y-118366810D01*
X161887438Y-118366810D01*
X162036790Y-118466604D01*
X162214757Y-118540320D01*
X162403685Y-118577900D01*
X162596315Y-118577900D01*
X162785243Y-118540320D01*
X162963210Y-118466604D01*
X163123375Y-118359585D01*
X163259585Y-118223375D01*
X163366604Y-118063210D01*
X163393204Y-117998992D01*
X163872407Y-118478196D01*
X163894673Y-118505327D01*
X163921804Y-118527593D01*
X163921809Y-118527598D01*
X164002967Y-118594202D01*
X164126518Y-118660242D01*
X164253677Y-118698815D01*
X164260580Y-118700909D01*
X164365064Y-118711200D01*
X164365071Y-118711200D01*
X164400000Y-118714640D01*
X164406518Y-118713998D01*
X164429528Y-118789851D01*
X164511595Y-118943387D01*
X164622038Y-119077962D01*
X164756613Y-119188405D01*
X164910149Y-119270472D01*
X165076745Y-119321008D01*
X165249999Y-119338072D01*
X165950001Y-119338072D01*
X166123255Y-119321008D01*
X166289851Y-119270472D01*
X166443387Y-119188405D01*
X166577962Y-119077962D01*
X166600000Y-119051109D01*
X166622038Y-119077962D01*
X166756613Y-119188405D01*
X166910149Y-119270472D01*
X167076745Y-119321008D01*
X167249999Y-119338072D01*
X167950001Y-119338072D01*
X168123255Y-119321008D01*
X168289851Y-119270472D01*
X168443387Y-119188405D01*
X168577962Y-119077962D01*
X168688405Y-118943387D01*
X168770472Y-118789851D01*
X168794330Y-118711200D01*
X169365074Y-118711200D01*
X169400000Y-118714640D01*
X169434926Y-118711200D01*
X169434936Y-118711200D01*
X169539420Y-118700909D01*
X169673481Y-118660242D01*
X169797033Y-118594202D01*
X169905327Y-118505327D01*
X169927602Y-118478186D01*
X170678190Y-117727598D01*
X170705327Y-117705327D01*
X170794202Y-117597033D01*
X170860242Y-117473481D01*
X170900909Y-117339420D01*
X170911200Y-117234936D01*
X170911200Y-117234929D01*
X170914640Y-117200000D01*
X170911200Y-117165072D01*
X170911200Y-115174587D01*
X171115000Y-114970787D01*
X171115000Y-115166260D01*
X171172068Y-115453158D01*
X171284010Y-115723411D01*
X171446525Y-115966632D01*
X171653368Y-116173475D01*
X171827760Y-116290000D01*
X171653368Y-116406525D01*
X171446525Y-116613368D01*
X171284010Y-116856589D01*
X171172068Y-117126842D01*
X171115000Y-117413740D01*
X171115000Y-117706260D01*
X171172068Y-117993158D01*
X171284010Y-118263411D01*
X171446525Y-118506632D01*
X171653368Y-118713475D01*
X171896589Y-118875990D01*
X172166842Y-118987932D01*
X172453740Y-119045000D01*
X172746260Y-119045000D01*
X173033158Y-118987932D01*
X173303411Y-118875990D01*
X173546632Y-118713475D01*
X173753475Y-118506632D01*
X173915990Y-118263411D01*
X174027932Y-117993158D01*
X174085000Y-117706260D01*
X174085000Y-117413740D01*
X174027932Y-117126842D01*
X173915990Y-116856589D01*
X173753475Y-116613368D01*
X173546632Y-116406525D01*
X173372240Y-116290000D01*
X173546632Y-116173475D01*
X173753475Y-115966632D01*
X173915990Y-115723411D01*
X174027932Y-115453158D01*
X174085000Y-115166260D01*
X174085000Y-114873740D01*
X174027932Y-114586842D01*
X173915990Y-114316589D01*
X173753475Y-114073368D01*
X173546632Y-113866525D01*
X173372240Y-113750000D01*
X173546632Y-113633475D01*
X173753475Y-113426632D01*
X173915990Y-113183411D01*
X174027932Y-112913158D01*
X174085000Y-112626260D01*
X174085000Y-112333740D01*
X174027932Y-112046842D01*
X173915990Y-111776589D01*
X173753475Y-111533368D01*
X173546632Y-111326525D01*
X173372240Y-111210000D01*
X173546632Y-111093475D01*
X173753475Y-110886632D01*
X173915990Y-110643411D01*
X174027932Y-110373158D01*
X174085000Y-110086260D01*
X174085000Y-109962631D01*
X174438001Y-110315632D01*
X174438000Y-115042577D01*
X174434314Y-115080000D01*
X174438000Y-115117423D01*
X174438000Y-115117425D01*
X174449026Y-115229377D01*
X174492598Y-115373014D01*
X174507508Y-115400908D01*
X174563355Y-115505392D01*
X174591955Y-115540241D01*
X174658578Y-115621422D01*
X174687654Y-115645284D01*
X176238321Y-117195951D01*
X176195000Y-117413740D01*
X176195000Y-117706260D01*
X176252068Y-117993158D01*
X176364010Y-118263411D01*
X176526525Y-118506632D01*
X176733368Y-118713475D01*
X176976589Y-118875990D01*
X177246842Y-118987932D01*
X177533740Y-119045000D01*
X177826260Y-119045000D01*
X178113158Y-118987932D01*
X178383411Y-118875990D01*
X178626632Y-118713475D01*
X178833475Y-118506632D01*
X178995990Y-118263411D01*
X179040000Y-118157161D01*
X179084010Y-118263411D01*
X179246525Y-118506632D01*
X179453368Y-118713475D01*
X179696589Y-118875990D01*
X179966842Y-118987932D01*
X180253740Y-119045000D01*
X180546260Y-119045000D01*
X180833158Y-118987932D01*
X181103411Y-118875990D01*
X181346632Y-118713475D01*
X181553475Y-118506632D01*
X181715990Y-118263411D01*
X181827932Y-117993158D01*
X181885000Y-117706260D01*
X181885000Y-117413740D01*
X181827932Y-117126842D01*
X181715990Y-116856589D01*
X181553475Y-116613368D01*
X181346632Y-116406525D01*
X181172240Y-116290000D01*
X181346632Y-116173475D01*
X181553475Y-115966632D01*
X181715990Y-115723411D01*
X181827932Y-115453158D01*
X181885000Y-115166260D01*
X181885000Y-114873740D01*
X181827932Y-114586842D01*
X181715990Y-114316589D01*
X181553475Y-114073368D01*
X181346632Y-113866525D01*
X181172240Y-113750000D01*
X181346632Y-113633475D01*
X181553475Y-113426632D01*
X181715990Y-113183411D01*
X181827932Y-112913158D01*
X181885000Y-112626260D01*
X181885000Y-112333740D01*
X181827932Y-112046842D01*
X181715990Y-111776589D01*
X181553475Y-111533368D01*
X181346632Y-111326525D01*
X181172240Y-111210000D01*
X181346632Y-111093475D01*
X181553475Y-110886632D01*
X181715990Y-110643411D01*
X181827932Y-110373158D01*
X181885000Y-110086260D01*
X181885000Y-109962630D01*
X182338001Y-110415631D01*
X182338000Y-115142577D01*
X182334314Y-115180000D01*
X182338000Y-115217423D01*
X182338000Y-115217425D01*
X182349026Y-115329377D01*
X182392598Y-115473014D01*
X182424873Y-115533396D01*
X182463355Y-115605392D01*
X182476511Y-115621422D01*
X182558578Y-115721422D01*
X182587654Y-115745284D01*
X184038321Y-117195952D01*
X183995000Y-117413740D01*
X183995000Y-117706260D01*
X184052068Y-117993158D01*
X184164010Y-118263411D01*
X184326525Y-118506632D01*
X184533368Y-118713475D01*
X184776589Y-118875990D01*
X185046842Y-118987932D01*
X185333740Y-119045000D01*
X185626260Y-119045000D01*
X185913158Y-118987932D01*
X186183411Y-118875990D01*
X186426632Y-118713475D01*
X186633475Y-118506632D01*
X186795990Y-118263411D01*
X186907932Y-117993158D01*
X186965000Y-117706260D01*
X186965000Y-117413740D01*
X186907932Y-117126842D01*
X186795990Y-116856589D01*
X186633475Y-116613368D01*
X186426632Y-116406525D01*
X186252240Y-116290000D01*
X186426632Y-116173475D01*
X186633475Y-115966632D01*
X186795990Y-115723411D01*
X186907932Y-115453158D01*
X186965000Y-115166260D01*
X186965000Y-114873740D01*
X186907932Y-114586842D01*
X186795990Y-114316589D01*
X186633475Y-114073368D01*
X186426632Y-113866525D01*
X186252240Y-113750000D01*
X186426632Y-113633475D01*
X186633475Y-113426632D01*
X186795990Y-113183411D01*
X186907932Y-112913158D01*
X186965000Y-112626260D01*
X186965000Y-112333740D01*
X186907932Y-112046842D01*
X186795990Y-111776589D01*
X186633475Y-111533368D01*
X186426632Y-111326525D01*
X186252240Y-111210000D01*
X186426632Y-111093475D01*
X186633475Y-110886632D01*
X186795990Y-110643411D01*
X186907932Y-110373158D01*
X186965000Y-110086260D01*
X186965000Y-109793740D01*
X186907932Y-109506842D01*
X186795990Y-109236589D01*
X186633475Y-108993368D01*
X186501620Y-108861513D01*
X186574180Y-108839502D01*
X186684494Y-108780537D01*
X186781185Y-108701185D01*
X186860537Y-108604494D01*
X186919502Y-108494180D01*
X186955812Y-108374482D01*
X186968072Y-108250000D01*
X186968072Y-106550000D01*
X186955812Y-106425518D01*
X186919502Y-106305820D01*
X186860537Y-106195506D01*
X186781185Y-106098815D01*
X186684494Y-106019463D01*
X186574180Y-105960498D01*
X186454482Y-105924188D01*
X186330000Y-105911928D01*
X184630000Y-105911928D01*
X184505518Y-105924188D01*
X184385820Y-105960498D01*
X184275506Y-106019463D01*
X184178815Y-106098815D01*
X184099463Y-106195506D01*
X184040498Y-106305820D01*
X184004188Y-106425518D01*
X183991928Y-106550000D01*
X183991928Y-108250000D01*
X184004188Y-108374482D01*
X184040498Y-108494180D01*
X184099463Y-108604494D01*
X184178815Y-108701185D01*
X184275506Y-108780537D01*
X184385820Y-108839502D01*
X184458380Y-108861513D01*
X184326525Y-108993368D01*
X184164010Y-109236589D01*
X184052068Y-109506842D01*
X183995000Y-109793740D01*
X183995000Y-110086260D01*
X184052068Y-110373158D01*
X184164010Y-110643411D01*
X184326525Y-110886632D01*
X184533368Y-111093475D01*
X184707760Y-111210000D01*
X184533368Y-111326525D01*
X184326525Y-111533368D01*
X184164010Y-111776589D01*
X184052068Y-112046842D01*
X183995000Y-112333740D01*
X183995000Y-112626260D01*
X184052068Y-112913158D01*
X184164010Y-113183411D01*
X184326525Y-113426632D01*
X184533368Y-113633475D01*
X184707760Y-113750000D01*
X184533368Y-113866525D01*
X184326525Y-114073368D01*
X184164010Y-114316589D01*
X184052068Y-114586842D01*
X183995000Y-114873740D01*
X183995000Y-114997370D01*
X183862000Y-114864370D01*
X183862000Y-110137423D01*
X183865686Y-110100000D01*
X183860672Y-110049089D01*
X183850974Y-109950622D01*
X183807402Y-109806985D01*
X183749360Y-109698396D01*
X183736645Y-109674607D01*
X183682823Y-109609026D01*
X183641422Y-109558578D01*
X183612346Y-109534716D01*
X181888072Y-107810442D01*
X181888072Y-106989558D01*
X184312352Y-104565279D01*
X184341422Y-104541422D01*
X184436645Y-104425392D01*
X184507402Y-104293015D01*
X184550974Y-104149378D01*
X184562000Y-104037426D01*
X184562000Y-104037424D01*
X184565686Y-104000001D01*
X184562000Y-103962578D01*
X184562000Y-102953251D01*
X184604494Y-102930537D01*
X184701185Y-102851185D01*
X184780537Y-102754494D01*
X184839502Y-102644180D01*
X184875812Y-102524482D01*
X184888072Y-102400000D01*
X184888072Y-101600000D01*
X184875812Y-101475518D01*
X184839502Y-101355820D01*
X184780537Y-101245506D01*
X184701185Y-101148815D01*
X184604494Y-101069463D01*
X184494180Y-101010498D01*
X184374482Y-100974188D01*
X184250000Y-100961928D01*
X183350000Y-100961928D01*
X183225518Y-100974188D01*
X183105820Y-101010498D01*
X182995506Y-101069463D01*
X182898815Y-101148815D01*
X182888072Y-101161905D01*
X182888072Y-100650000D01*
X182875812Y-100525518D01*
X182839502Y-100405820D01*
X182780537Y-100295506D01*
X182701185Y-100198815D01*
X182604494Y-100119463D01*
X182494180Y-100060498D01*
X182374482Y-100024188D01*
X182250000Y-100011928D01*
X181767715Y-100011928D01*
X181677601Y-99921814D01*
X181655327Y-99894673D01*
X181547033Y-99805798D01*
X181423481Y-99739758D01*
X181289420Y-99699091D01*
X181184936Y-99688800D01*
X181184926Y-99688800D01*
X181150000Y-99685360D01*
X181115074Y-99688800D01*
X174489208Y-99688800D01*
X174454280Y-99685360D01*
X174419352Y-99688800D01*
X174419344Y-99688800D01*
X174314860Y-99699091D01*
X174278242Y-99710199D01*
X151813526Y-99710199D01*
X151778600Y-99706759D01*
X151743674Y-99710199D01*
X151743665Y-99710199D01*
X151639181Y-99720490D01*
X151505120Y-99761157D01*
X151381568Y-99827197D01*
X151273274Y-99916072D01*
X151251004Y-99943208D01*
X150221810Y-100972403D01*
X150218832Y-100974847D01*
X150176745Y-100978992D01*
X150010149Y-101029528D01*
X149856613Y-101111595D01*
X149722038Y-101222038D01*
X149700000Y-101248891D01*
X149677962Y-101222038D01*
X149543387Y-101111595D01*
X149389851Y-101029528D01*
X149223255Y-100978992D01*
X149050001Y-100961928D01*
X148349999Y-100961928D01*
X148176745Y-100978992D01*
X148010149Y-101029528D01*
X147856613Y-101111595D01*
X147722038Y-101222038D01*
X147611595Y-101356613D01*
X147529528Y-101510149D01*
X147478992Y-101676745D01*
X147461928Y-101849999D01*
X147461928Y-102750001D01*
X147478992Y-102923255D01*
X147529528Y-103089851D01*
X147611595Y-103243387D01*
X147722038Y-103377962D01*
X147856613Y-103488405D01*
X148010149Y-103570472D01*
X148108480Y-103600300D01*
X148194673Y-103705326D01*
X148221810Y-103727597D01*
X148981140Y-104486928D01*
X148705000Y-104486928D01*
X148577900Y-104499447D01*
X148577900Y-104403685D01*
X148540320Y-104214757D01*
X148466604Y-104036790D01*
X148359585Y-103876625D01*
X148223375Y-103740415D01*
X148063210Y-103633396D01*
X147885243Y-103559680D01*
X147696315Y-103522100D01*
X147503685Y-103522100D01*
X147314757Y-103559680D01*
X147136790Y-103633396D01*
X146976625Y-103740415D01*
X146840415Y-103876625D01*
X146733396Y-104036790D01*
X146659680Y-104214757D01*
X146622100Y-104403685D01*
X146622100Y-104596315D01*
X146659680Y-104785243D01*
X146724217Y-104941050D01*
X146706916Y-104973418D01*
X146662071Y-105121255D01*
X146646928Y-105275000D01*
X146646928Y-105738000D01*
X145277046Y-105738000D01*
X145340320Y-105585243D01*
X145377900Y-105396315D01*
X145377900Y-105203685D01*
X145340320Y-105014757D01*
X145266604Y-104836790D01*
X145162000Y-104680239D01*
X145162000Y-103037422D01*
X145165686Y-102999999D01*
X145161770Y-102960242D01*
X145150974Y-102850622D01*
X145107402Y-102706985D01*
X145036645Y-102574608D01*
X144941422Y-102458578D01*
X144912346Y-102434716D01*
X144640284Y-102162654D01*
X144616422Y-102133578D01*
X144500392Y-102038355D01*
X144368015Y-101967598D01*
X144224378Y-101924026D01*
X144168254Y-101918498D01*
X144088405Y-101769112D01*
X143977963Y-101634537D01*
X143843388Y-101524095D01*
X143689852Y-101442028D01*
X143523257Y-101391492D01*
X143350003Y-101374428D01*
X142049997Y-101374428D01*
X141876743Y-101391492D01*
X141710148Y-101442028D01*
X141556612Y-101524095D01*
X141422037Y-101634537D01*
X141311595Y-101769112D01*
X141234685Y-101913000D01*
X139462423Y-101913000D01*
X139425000Y-101909314D01*
X139387577Y-101913000D01*
X139387574Y-101913000D01*
X139275622Y-101924026D01*
X139131985Y-101967598D01*
X139107778Y-101980537D01*
X138999607Y-102038355D01*
X138972525Y-102060581D01*
X138883578Y-102133578D01*
X138859716Y-102162654D01*
X137687654Y-103334716D01*
X137658578Y-103358578D01*
X137622149Y-103402968D01*
X137563355Y-103474608D01*
X137535032Y-103527597D01*
X137492598Y-103606986D01*
X137449026Y-103750623D01*
X137444958Y-103791928D01*
X137350000Y-103791928D01*
X137225518Y-103804188D01*
X137105820Y-103840498D01*
X136995506Y-103899463D01*
X136898815Y-103978815D01*
X136819463Y-104075506D01*
X136760498Y-104185820D01*
X136760000Y-104187462D01*
X136760000Y-98860000D01*
X187340001Y-98860000D01*
X187340000Y-121340000D01*
%TA.AperFunction,NonConductor*%
D17*
G36*
X187340000Y-121340000D02*
G01*
X161253889Y-121340000D01*
X161301185Y-121301185D01*
X161380537Y-121204494D01*
X161439502Y-121094180D01*
X161475812Y-120974482D01*
X161488072Y-120850000D01*
X161488072Y-119150000D01*
X161475812Y-119025518D01*
X161439502Y-118905820D01*
X161380537Y-118795506D01*
X161301185Y-118698815D01*
X161204494Y-118619463D01*
X161094180Y-118560498D01*
X160974482Y-118524188D01*
X160850000Y-118511928D01*
X159150000Y-118511928D01*
X159025518Y-118524188D01*
X158905820Y-118560498D01*
X158795506Y-118619463D01*
X158698815Y-118698815D01*
X158619463Y-118795506D01*
X158560498Y-118905820D01*
X158538487Y-118978380D01*
X158406632Y-118846525D01*
X158163411Y-118684010D01*
X157893158Y-118572068D01*
X157606260Y-118515000D01*
X157313740Y-118515000D01*
X157026842Y-118572068D01*
X156756589Y-118684010D01*
X156513368Y-118846525D01*
X156306525Y-119053368D01*
X156190000Y-119227760D01*
X156073475Y-119053368D01*
X155866632Y-118846525D01*
X155623411Y-118684010D01*
X155353158Y-118572068D01*
X155066260Y-118515000D01*
X154773740Y-118515000D01*
X154486842Y-118572068D01*
X154216589Y-118684010D01*
X153973368Y-118846525D01*
X153766525Y-119053368D01*
X153650000Y-119227760D01*
X153533475Y-119053368D01*
X153326632Y-118846525D01*
X153083411Y-118684010D01*
X152813158Y-118572068D01*
X152526260Y-118515000D01*
X152233740Y-118515000D01*
X151946842Y-118572068D01*
X151676589Y-118684010D01*
X151433368Y-118846525D01*
X151226525Y-119053368D01*
X151110000Y-119227760D01*
X150993475Y-119053368D01*
X150786632Y-118846525D01*
X150543411Y-118684010D01*
X150273158Y-118572068D01*
X149986260Y-118515000D01*
X149693740Y-118515000D01*
X149406842Y-118572068D01*
X149136589Y-118684010D01*
X148893368Y-118846525D01*
X148686525Y-119053368D01*
X148570000Y-119227760D01*
X148453475Y-119053368D01*
X148246632Y-118846525D01*
X148011200Y-118689214D01*
X148011200Y-118634925D01*
X148014640Y-118599999D01*
X148011200Y-118565073D01*
X148011200Y-118565064D01*
X148000909Y-118460580D01*
X147960242Y-118326519D01*
X147894202Y-118202967D01*
X147805327Y-118094673D01*
X147778190Y-118072402D01*
X147227601Y-117521814D01*
X147205327Y-117494673D01*
X147097033Y-117405798D01*
X146973481Y-117339758D01*
X146839420Y-117299091D01*
X146734936Y-117288800D01*
X146734926Y-117288800D01*
X146700000Y-117285360D01*
X146665074Y-117288800D01*
X143771760Y-117288800D01*
X143723375Y-117240415D01*
X143563210Y-117133396D01*
X143385243Y-117059680D01*
X143196315Y-117022100D01*
X143003685Y-117022100D01*
X142931200Y-117036518D01*
X142931200Y-116377900D01*
X142996315Y-116377900D01*
X143185243Y-116340320D01*
X143363210Y-116266604D01*
X143520958Y-116161200D01*
X146646928Y-116161200D01*
X146646928Y-116325000D01*
X146662071Y-116478745D01*
X146706916Y-116626582D01*
X146779742Y-116762829D01*
X146877749Y-116882251D01*
X146997171Y-116980258D01*
X147133418Y-117053084D01*
X147281255Y-117097929D01*
X147435000Y-117113072D01*
X147735000Y-117113072D01*
X147888745Y-117097929D01*
X148036582Y-117053084D01*
X148172829Y-116980258D01*
X148220000Y-116941546D01*
X148267171Y-116980258D01*
X148403418Y-117053084D01*
X148437694Y-117063481D01*
X149508017Y-118133806D01*
X149530283Y-118160937D01*
X149557414Y-118183203D01*
X149557419Y-118183208D01*
X149638577Y-118249812D01*
X149762128Y-118315852D01*
X149797293Y-118326519D01*
X149896190Y-118356519D01*
X150000674Y-118366810D01*
X150000681Y-118366810D01*
X150035610Y-118370250D01*
X150070538Y-118366810D01*
X161887438Y-118366810D01*
X162036790Y-118466604D01*
X162214757Y-118540320D01*
X162403685Y-118577900D01*
X162596315Y-118577900D01*
X162785243Y-118540320D01*
X162963210Y-118466604D01*
X163123375Y-118359585D01*
X163259585Y-118223375D01*
X163366604Y-118063210D01*
X163393204Y-117998992D01*
X163872407Y-118478196D01*
X163894673Y-118505327D01*
X163921804Y-118527593D01*
X163921809Y-118527598D01*
X164002967Y-118594202D01*
X164126518Y-118660242D01*
X164253677Y-118698815D01*
X164260580Y-118700909D01*
X164365064Y-118711200D01*
X164365071Y-118711200D01*
X164400000Y-118714640D01*
X164406518Y-118713998D01*
X164429528Y-118789851D01*
X164511595Y-118943387D01*
X164622038Y-119077962D01*
X164756613Y-119188405D01*
X164910149Y-119270472D01*
X165076745Y-119321008D01*
X165249999Y-119338072D01*
X165950001Y-119338072D01*
X166123255Y-119321008D01*
X166289851Y-119270472D01*
X166443387Y-119188405D01*
X166577962Y-119077962D01*
X166600000Y-119051109D01*
X166622038Y-119077962D01*
X166756613Y-119188405D01*
X166910149Y-119270472D01*
X167076745Y-119321008D01*
X167249999Y-119338072D01*
X167950001Y-119338072D01*
X168123255Y-119321008D01*
X168289851Y-119270472D01*
X168443387Y-119188405D01*
X168577962Y-119077962D01*
X168688405Y-118943387D01*
X168770472Y-118789851D01*
X168794330Y-118711200D01*
X169365074Y-118711200D01*
X169400000Y-118714640D01*
X169434926Y-118711200D01*
X169434936Y-118711200D01*
X169539420Y-118700909D01*
X169673481Y-118660242D01*
X169797033Y-118594202D01*
X169905327Y-118505327D01*
X169927602Y-118478186D01*
X170678190Y-117727598D01*
X170705327Y-117705327D01*
X170794202Y-117597033D01*
X170860242Y-117473481D01*
X170900909Y-117339420D01*
X170911200Y-117234936D01*
X170911200Y-117234929D01*
X170914640Y-117200000D01*
X170911200Y-117165072D01*
X170911200Y-115174587D01*
X171115000Y-114970787D01*
X171115000Y-115166260D01*
X171172068Y-115453158D01*
X171284010Y-115723411D01*
X171446525Y-115966632D01*
X171653368Y-116173475D01*
X171827760Y-116290000D01*
X171653368Y-116406525D01*
X171446525Y-116613368D01*
X171284010Y-116856589D01*
X171172068Y-117126842D01*
X171115000Y-117413740D01*
X171115000Y-117706260D01*
X171172068Y-117993158D01*
X171284010Y-118263411D01*
X171446525Y-118506632D01*
X171653368Y-118713475D01*
X171896589Y-118875990D01*
X172166842Y-118987932D01*
X172453740Y-119045000D01*
X172746260Y-119045000D01*
X173033158Y-118987932D01*
X173303411Y-118875990D01*
X173546632Y-118713475D01*
X173753475Y-118506632D01*
X173915990Y-118263411D01*
X174027932Y-117993158D01*
X174085000Y-117706260D01*
X174085000Y-117413740D01*
X174027932Y-117126842D01*
X173915990Y-116856589D01*
X173753475Y-116613368D01*
X173546632Y-116406525D01*
X173372240Y-116290000D01*
X173546632Y-116173475D01*
X173753475Y-115966632D01*
X173915990Y-115723411D01*
X174027932Y-115453158D01*
X174085000Y-115166260D01*
X174085000Y-114873740D01*
X174027932Y-114586842D01*
X173915990Y-114316589D01*
X173753475Y-114073368D01*
X173546632Y-113866525D01*
X173372240Y-113750000D01*
X173546632Y-113633475D01*
X173753475Y-113426632D01*
X173915990Y-113183411D01*
X174027932Y-112913158D01*
X174085000Y-112626260D01*
X174085000Y-112333740D01*
X174027932Y-112046842D01*
X173915990Y-111776589D01*
X173753475Y-111533368D01*
X173546632Y-111326525D01*
X173372240Y-111210000D01*
X173546632Y-111093475D01*
X173753475Y-110886632D01*
X173915990Y-110643411D01*
X174027932Y-110373158D01*
X174085000Y-110086260D01*
X174085000Y-109962631D01*
X174438001Y-110315632D01*
X174438000Y-115042577D01*
X174434314Y-115080000D01*
X174438000Y-115117423D01*
X174438000Y-115117425D01*
X174449026Y-115229377D01*
X174492598Y-115373014D01*
X174507508Y-115400908D01*
X174563355Y-115505392D01*
X174591955Y-115540241D01*
X174658578Y-115621422D01*
X174687654Y-115645284D01*
X176238321Y-117195951D01*
X176195000Y-117413740D01*
X176195000Y-117706260D01*
X176252068Y-117993158D01*
X176364010Y-118263411D01*
X176526525Y-118506632D01*
X176733368Y-118713475D01*
X176976589Y-118875990D01*
X177246842Y-118987932D01*
X177533740Y-119045000D01*
X177826260Y-119045000D01*
X178113158Y-118987932D01*
X178383411Y-118875990D01*
X178626632Y-118713475D01*
X178833475Y-118506632D01*
X178995990Y-118263411D01*
X179040000Y-118157161D01*
X179084010Y-118263411D01*
X179246525Y-118506632D01*
X179453368Y-118713475D01*
X179696589Y-118875990D01*
X179966842Y-118987932D01*
X180253740Y-119045000D01*
X180546260Y-119045000D01*
X180833158Y-118987932D01*
X181103411Y-118875990D01*
X181346632Y-118713475D01*
X181553475Y-118506632D01*
X181715990Y-118263411D01*
X181827932Y-117993158D01*
X181885000Y-117706260D01*
X181885000Y-117413740D01*
X181827932Y-117126842D01*
X181715990Y-116856589D01*
X181553475Y-116613368D01*
X181346632Y-116406525D01*
X181172240Y-116290000D01*
X181346632Y-116173475D01*
X181553475Y-115966632D01*
X181715990Y-115723411D01*
X181827932Y-115453158D01*
X181885000Y-115166260D01*
X181885000Y-114873740D01*
X181827932Y-114586842D01*
X181715990Y-114316589D01*
X181553475Y-114073368D01*
X181346632Y-113866525D01*
X181172240Y-113750000D01*
X181346632Y-113633475D01*
X181553475Y-113426632D01*
X181715990Y-113183411D01*
X181827932Y-112913158D01*
X181885000Y-112626260D01*
X181885000Y-112333740D01*
X181827932Y-112046842D01*
X181715990Y-111776589D01*
X181553475Y-111533368D01*
X181346632Y-111326525D01*
X181172240Y-111210000D01*
X181346632Y-111093475D01*
X181553475Y-110886632D01*
X181715990Y-110643411D01*
X181827932Y-110373158D01*
X181885000Y-110086260D01*
X181885000Y-109962630D01*
X182338001Y-110415631D01*
X182338000Y-115142577D01*
X182334314Y-115180000D01*
X182338000Y-115217423D01*
X182338000Y-115217425D01*
X182349026Y-115329377D01*
X182392598Y-115473014D01*
X182424873Y-115533396D01*
X182463355Y-115605392D01*
X182476511Y-115621422D01*
X182558578Y-115721422D01*
X182587654Y-115745284D01*
X184038321Y-117195952D01*
X183995000Y-117413740D01*
X183995000Y-117706260D01*
X184052068Y-117993158D01*
X184164010Y-118263411D01*
X184326525Y-118506632D01*
X184533368Y-118713475D01*
X184776589Y-118875990D01*
X185046842Y-118987932D01*
X185333740Y-119045000D01*
X185626260Y-119045000D01*
X185913158Y-118987932D01*
X186183411Y-118875990D01*
X186426632Y-118713475D01*
X186633475Y-118506632D01*
X186795990Y-118263411D01*
X186907932Y-117993158D01*
X186965000Y-117706260D01*
X186965000Y-117413740D01*
X186907932Y-117126842D01*
X186795990Y-116856589D01*
X186633475Y-116613368D01*
X186426632Y-116406525D01*
X186252240Y-116290000D01*
X186426632Y-116173475D01*
X186633475Y-115966632D01*
X186795990Y-115723411D01*
X186907932Y-115453158D01*
X186965000Y-115166260D01*
X186965000Y-114873740D01*
X186907932Y-114586842D01*
X186795990Y-114316589D01*
X186633475Y-114073368D01*
X186426632Y-113866525D01*
X186252240Y-113750000D01*
X186426632Y-113633475D01*
X186633475Y-113426632D01*
X186795990Y-113183411D01*
X186907932Y-112913158D01*
X186965000Y-112626260D01*
X186965000Y-112333740D01*
X186907932Y-112046842D01*
X186795990Y-111776589D01*
X186633475Y-111533368D01*
X186426632Y-111326525D01*
X186252240Y-111210000D01*
X186426632Y-111093475D01*
X186633475Y-110886632D01*
X186795990Y-110643411D01*
X186907932Y-110373158D01*
X186965000Y-110086260D01*
X186965000Y-109793740D01*
X186907932Y-109506842D01*
X186795990Y-109236589D01*
X186633475Y-108993368D01*
X186501620Y-108861513D01*
X186574180Y-108839502D01*
X186684494Y-108780537D01*
X186781185Y-108701185D01*
X186860537Y-108604494D01*
X186919502Y-108494180D01*
X186955812Y-108374482D01*
X186968072Y-108250000D01*
X186968072Y-106550000D01*
X186955812Y-106425518D01*
X186919502Y-106305820D01*
X186860537Y-106195506D01*
X186781185Y-106098815D01*
X186684494Y-106019463D01*
X186574180Y-105960498D01*
X186454482Y-105924188D01*
X186330000Y-105911928D01*
X184630000Y-105911928D01*
X184505518Y-105924188D01*
X184385820Y-105960498D01*
X184275506Y-106019463D01*
X184178815Y-106098815D01*
X184099463Y-106195506D01*
X184040498Y-106305820D01*
X184004188Y-106425518D01*
X183991928Y-106550000D01*
X183991928Y-108250000D01*
X184004188Y-108374482D01*
X184040498Y-108494180D01*
X184099463Y-108604494D01*
X184178815Y-108701185D01*
X184275506Y-108780537D01*
X184385820Y-108839502D01*
X184458380Y-108861513D01*
X184326525Y-108993368D01*
X184164010Y-109236589D01*
X184052068Y-109506842D01*
X183995000Y-109793740D01*
X183995000Y-110086260D01*
X184052068Y-110373158D01*
X184164010Y-110643411D01*
X184326525Y-110886632D01*
X184533368Y-111093475D01*
X184707760Y-111210000D01*
X184533368Y-111326525D01*
X184326525Y-111533368D01*
X184164010Y-111776589D01*
X184052068Y-112046842D01*
X183995000Y-112333740D01*
X183995000Y-112626260D01*
X184052068Y-112913158D01*
X184164010Y-113183411D01*
X184326525Y-113426632D01*
X184533368Y-113633475D01*
X184707760Y-113750000D01*
X184533368Y-113866525D01*
X184326525Y-114073368D01*
X184164010Y-114316589D01*
X184052068Y-114586842D01*
X183995000Y-114873740D01*
X183995000Y-114997370D01*
X183862000Y-114864370D01*
X183862000Y-110137423D01*
X183865686Y-110100000D01*
X183860672Y-110049089D01*
X183850974Y-109950622D01*
X183807402Y-109806985D01*
X183749360Y-109698396D01*
X183736645Y-109674607D01*
X183682823Y-109609026D01*
X183641422Y-109558578D01*
X183612346Y-109534716D01*
X181888072Y-107810442D01*
X181888072Y-106989558D01*
X184312352Y-104565279D01*
X184341422Y-104541422D01*
X184436645Y-104425392D01*
X184507402Y-104293015D01*
X184550974Y-104149378D01*
X184562000Y-104037426D01*
X184562000Y-104037424D01*
X184565686Y-104000001D01*
X184562000Y-103962578D01*
X184562000Y-102953251D01*
X184604494Y-102930537D01*
X184701185Y-102851185D01*
X184780537Y-102754494D01*
X184839502Y-102644180D01*
X184875812Y-102524482D01*
X184888072Y-102400000D01*
X184888072Y-101600000D01*
X184875812Y-101475518D01*
X184839502Y-101355820D01*
X184780537Y-101245506D01*
X184701185Y-101148815D01*
X184604494Y-101069463D01*
X184494180Y-101010498D01*
X184374482Y-100974188D01*
X184250000Y-100961928D01*
X183350000Y-100961928D01*
X183225518Y-100974188D01*
X183105820Y-101010498D01*
X182995506Y-101069463D01*
X182898815Y-101148815D01*
X182888072Y-101161905D01*
X182888072Y-100650000D01*
X182875812Y-100525518D01*
X182839502Y-100405820D01*
X182780537Y-100295506D01*
X182701185Y-100198815D01*
X182604494Y-100119463D01*
X182494180Y-100060498D01*
X182374482Y-100024188D01*
X182250000Y-100011928D01*
X181767715Y-100011928D01*
X181677601Y-99921814D01*
X181655327Y-99894673D01*
X181547033Y-99805798D01*
X181423481Y-99739758D01*
X181289420Y-99699091D01*
X181184936Y-99688800D01*
X181184926Y-99688800D01*
X181150000Y-99685360D01*
X181115074Y-99688800D01*
X174489208Y-99688800D01*
X174454280Y-99685360D01*
X174419352Y-99688800D01*
X174419344Y-99688800D01*
X174314860Y-99699091D01*
X174278242Y-99710199D01*
X151813526Y-99710199D01*
X151778600Y-99706759D01*
X151743674Y-99710199D01*
X151743665Y-99710199D01*
X151639181Y-99720490D01*
X151505120Y-99761157D01*
X151381568Y-99827197D01*
X151273274Y-99916072D01*
X151251004Y-99943208D01*
X150221810Y-100972403D01*
X150218832Y-100974847D01*
X150176745Y-100978992D01*
X150010149Y-101029528D01*
X149856613Y-101111595D01*
X149722038Y-101222038D01*
X149700000Y-101248891D01*
X149677962Y-101222038D01*
X149543387Y-101111595D01*
X149389851Y-101029528D01*
X149223255Y-100978992D01*
X149050001Y-100961928D01*
X148349999Y-100961928D01*
X148176745Y-100978992D01*
X148010149Y-101029528D01*
X147856613Y-101111595D01*
X147722038Y-101222038D01*
X147611595Y-101356613D01*
X147529528Y-101510149D01*
X147478992Y-101676745D01*
X147461928Y-101849999D01*
X147461928Y-102750001D01*
X147478992Y-102923255D01*
X147529528Y-103089851D01*
X147611595Y-103243387D01*
X147722038Y-103377962D01*
X147856613Y-103488405D01*
X148010149Y-103570472D01*
X148108480Y-103600300D01*
X148194673Y-103705326D01*
X148221810Y-103727597D01*
X148981140Y-104486928D01*
X148705000Y-104486928D01*
X148577900Y-104499447D01*
X148577900Y-104403685D01*
X148540320Y-104214757D01*
X148466604Y-104036790D01*
X148359585Y-103876625D01*
X148223375Y-103740415D01*
X148063210Y-103633396D01*
X147885243Y-103559680D01*
X147696315Y-103522100D01*
X147503685Y-103522100D01*
X147314757Y-103559680D01*
X147136790Y-103633396D01*
X146976625Y-103740415D01*
X146840415Y-103876625D01*
X146733396Y-104036790D01*
X146659680Y-104214757D01*
X146622100Y-104403685D01*
X146622100Y-104596315D01*
X146659680Y-104785243D01*
X146724217Y-104941050D01*
X146706916Y-104973418D01*
X146662071Y-105121255D01*
X146646928Y-105275000D01*
X146646928Y-105738000D01*
X145277046Y-105738000D01*
X145340320Y-105585243D01*
X145377900Y-105396315D01*
X145377900Y-105203685D01*
X145340320Y-105014757D01*
X145266604Y-104836790D01*
X145162000Y-104680239D01*
X145162000Y-103037422D01*
X145165686Y-102999999D01*
X145161770Y-102960242D01*
X145150974Y-102850622D01*
X145107402Y-102706985D01*
X145036645Y-102574608D01*
X144941422Y-102458578D01*
X144912346Y-102434716D01*
X144640284Y-102162654D01*
X144616422Y-102133578D01*
X144500392Y-102038355D01*
X144368015Y-101967598D01*
X144224378Y-101924026D01*
X144168254Y-101918498D01*
X144088405Y-101769112D01*
X143977963Y-101634537D01*
X143843388Y-101524095D01*
X143689852Y-101442028D01*
X143523257Y-101391492D01*
X143350003Y-101374428D01*
X142049997Y-101374428D01*
X141876743Y-101391492D01*
X141710148Y-101442028D01*
X141556612Y-101524095D01*
X141422037Y-101634537D01*
X141311595Y-101769112D01*
X141234685Y-101913000D01*
X139462423Y-101913000D01*
X139425000Y-101909314D01*
X139387577Y-101913000D01*
X139387574Y-101913000D01*
X139275622Y-101924026D01*
X139131985Y-101967598D01*
X139107778Y-101980537D01*
X138999607Y-102038355D01*
X138972525Y-102060581D01*
X138883578Y-102133578D01*
X138859716Y-102162654D01*
X137687654Y-103334716D01*
X137658578Y-103358578D01*
X137622149Y-103402968D01*
X137563355Y-103474608D01*
X137535032Y-103527597D01*
X137492598Y-103606986D01*
X137449026Y-103750623D01*
X137444958Y-103791928D01*
X137350000Y-103791928D01*
X137225518Y-103804188D01*
X137105820Y-103840498D01*
X136995506Y-103899463D01*
X136898815Y-103978815D01*
X136819463Y-104075506D01*
X136760498Y-104185820D01*
X136760000Y-104187462D01*
X136760000Y-98860000D01*
X187340001Y-98860000D01*
X187340000Y-121340000D01*
G37*
%TD.AperFunction*%
D16*
X153766525Y-120946632D02*
X153973368Y-121153475D01*
X154216589Y-121315990D01*
X154274555Y-121340000D01*
X153025445Y-121340000D01*
X153083411Y-121315990D01*
X153326632Y-121153475D01*
X153533475Y-120946632D01*
X153650000Y-120772240D01*
X153766525Y-120946632D01*
%TA.AperFunction,NonConductor*%
D17*
G36*
X153766525Y-120946632D02*
G01*
X153973368Y-121153475D01*
X154216589Y-121315990D01*
X154274555Y-121340000D01*
X153025445Y-121340000D01*
X153083411Y-121315990D01*
X153326632Y-121153475D01*
X153533475Y-120946632D01*
X153650000Y-120772240D01*
X153766525Y-120946632D01*
G37*
%TD.AperFunction*%
D16*
X156306525Y-120946632D02*
X156513368Y-121153475D01*
X156756589Y-121315990D01*
X156814555Y-121340000D01*
X155565445Y-121340000D01*
X155623411Y-121315990D01*
X155866632Y-121153475D01*
X156073475Y-120946632D01*
X156190000Y-120772240D01*
X156306525Y-120946632D01*
%TA.AperFunction,NonConductor*%
D17*
G36*
X156306525Y-120946632D02*
G01*
X156513368Y-121153475D01*
X156756589Y-121315990D01*
X156814555Y-121340000D01*
X155565445Y-121340000D01*
X155623411Y-121315990D01*
X155866632Y-121153475D01*
X156073475Y-120946632D01*
X156190000Y-120772240D01*
X156306525Y-120946632D01*
G37*
%TD.AperFunction*%
D16*
X158560498Y-121094180D02*
X158619463Y-121204494D01*
X158698815Y-121301185D01*
X158746111Y-121340000D01*
X158105445Y-121340000D01*
X158163411Y-121315990D01*
X158406632Y-121153475D01*
X158538487Y-121021620D01*
X158560498Y-121094180D01*
%TA.AperFunction,NonConductor*%
D17*
G36*
X158560498Y-121094180D02*
G01*
X158619463Y-121204494D01*
X158698815Y-121301185D01*
X158746111Y-121340000D01*
X158105445Y-121340000D01*
X158163411Y-121315990D01*
X158406632Y-121153475D01*
X158538487Y-121021620D01*
X158560498Y-121094180D01*
G37*
%TD.AperFunction*%
D16*
X148686525Y-120946632D02*
X148893368Y-121153475D01*
X149136589Y-121315990D01*
X149194555Y-121340000D01*
X147945445Y-121340000D01*
X148003411Y-121315990D01*
X148246632Y-121153475D01*
X148453475Y-120946632D01*
X148570000Y-120772240D01*
X148686525Y-120946632D01*
%TA.AperFunction,NonConductor*%
D17*
G36*
X148686525Y-120946632D02*
G01*
X148893368Y-121153475D01*
X149136589Y-121315990D01*
X149194555Y-121340000D01*
X147945445Y-121340000D01*
X148003411Y-121315990D01*
X148246632Y-121153475D01*
X148453475Y-120946632D01*
X148570000Y-120772240D01*
X148686525Y-120946632D01*
G37*
%TD.AperFunction*%
D16*
X143606525Y-120946632D02*
X143813368Y-121153475D01*
X144056589Y-121315990D01*
X144114555Y-121340000D01*
X142865445Y-121340000D01*
X142923411Y-121315990D01*
X143166632Y-121153475D01*
X143373475Y-120946632D01*
X143490000Y-120772240D01*
X143606525Y-120946632D01*
%TA.AperFunction,NonConductor*%
D17*
G36*
X143606525Y-120946632D02*
G01*
X143813368Y-121153475D01*
X144056589Y-121315990D01*
X144114555Y-121340000D01*
X142865445Y-121340000D01*
X142923411Y-121315990D01*
X143166632Y-121153475D01*
X143373475Y-120946632D01*
X143490000Y-120772240D01*
X143606525Y-120946632D01*
G37*
%TD.AperFunction*%
D16*
X141508800Y-118689214D02*
X141273368Y-118846525D01*
X141066525Y-119053368D01*
X140904010Y-119296589D01*
X140792068Y-119566842D01*
X140735000Y-119853740D01*
X140735000Y-120146260D01*
X140792068Y-120433158D01*
X140904010Y-120703411D01*
X141066525Y-120946632D01*
X141273368Y-121153475D01*
X141516589Y-121315990D01*
X141574555Y-121340000D01*
X136760000Y-121340000D01*
X136760000Y-118352489D01*
X136772068Y-118413158D01*
X136884010Y-118683411D01*
X137046525Y-118926632D01*
X137253368Y-119133475D01*
X137496589Y-119295990D01*
X137766842Y-119407932D01*
X138053740Y-119465000D01*
X138346260Y-119465000D01*
X138633158Y-119407932D01*
X138903411Y-119295990D01*
X139146632Y-119133475D01*
X139353475Y-118926632D01*
X139515990Y-118683411D01*
X139627932Y-118413158D01*
X139685000Y-118126260D01*
X139685000Y-117833740D01*
X139627932Y-117546842D01*
X139515990Y-117276589D01*
X139353475Y-117033368D01*
X139146632Y-116826525D01*
X138972240Y-116710000D01*
X139146632Y-116593475D01*
X139353475Y-116386632D01*
X139515990Y-116143411D01*
X139627932Y-115873158D01*
X139685000Y-115586260D01*
X139685000Y-115293740D01*
X139627932Y-115006842D01*
X139515990Y-114736589D01*
X139484727Y-114689801D01*
X141508801Y-114689801D01*
X141508800Y-118689214D01*
%TA.AperFunction,NonConductor*%
D17*
G36*
X141508800Y-118689214D02*
G01*
X141273368Y-118846525D01*
X141066525Y-119053368D01*
X140904010Y-119296589D01*
X140792068Y-119566842D01*
X140735000Y-119853740D01*
X140735000Y-120146260D01*
X140792068Y-120433158D01*
X140904010Y-120703411D01*
X141066525Y-120946632D01*
X141273368Y-121153475D01*
X141516589Y-121315990D01*
X141574555Y-121340000D01*
X136760000Y-121340000D01*
X136760000Y-118352489D01*
X136772068Y-118413158D01*
X136884010Y-118683411D01*
X137046525Y-118926632D01*
X137253368Y-119133475D01*
X137496589Y-119295990D01*
X137766842Y-119407932D01*
X138053740Y-119465000D01*
X138346260Y-119465000D01*
X138633158Y-119407932D01*
X138903411Y-119295990D01*
X139146632Y-119133475D01*
X139353475Y-118926632D01*
X139515990Y-118683411D01*
X139627932Y-118413158D01*
X139685000Y-118126260D01*
X139685000Y-117833740D01*
X139627932Y-117546842D01*
X139515990Y-117276589D01*
X139353475Y-117033368D01*
X139146632Y-116826525D01*
X138972240Y-116710000D01*
X139146632Y-116593475D01*
X139353475Y-116386632D01*
X139515990Y-116143411D01*
X139627932Y-115873158D01*
X139685000Y-115586260D01*
X139685000Y-115293740D01*
X139627932Y-115006842D01*
X139515990Y-114736589D01*
X139484727Y-114689801D01*
X141508801Y-114689801D01*
X141508800Y-118689214D01*
G37*
%TD.AperFunction*%
D16*
X151226525Y-120946632D02*
X151433368Y-121153475D01*
X151676589Y-121315990D01*
X151734555Y-121340000D01*
X150485445Y-121340000D01*
X150543411Y-121315990D01*
X150786632Y-121153475D01*
X150993475Y-120946632D01*
X151110000Y-120772240D01*
X151226525Y-120946632D01*
%TA.AperFunction,NonConductor*%
D17*
G36*
X151226525Y-120946632D02*
G01*
X151433368Y-121153475D01*
X151676589Y-121315990D01*
X151734555Y-121340000D01*
X150485445Y-121340000D01*
X150543411Y-121315990D01*
X150786632Y-121153475D01*
X150993475Y-120946632D01*
X151110000Y-120772240D01*
X151226525Y-120946632D01*
G37*
%TD.AperFunction*%
D16*
X146465688Y-118771475D02*
X146353368Y-118846525D01*
X146146525Y-119053368D01*
X146030000Y-119227760D01*
X145913475Y-119053368D01*
X145706632Y-118846525D01*
X145504104Y-118711200D01*
X146405413Y-118711200D01*
X146465688Y-118771475D01*
%TA.AperFunction,NonConductor*%
D17*
G36*
X146465688Y-118771475D02*
G01*
X146353368Y-118846525D01*
X146146525Y-119053368D01*
X146030000Y-119227760D01*
X145913475Y-119053368D01*
X145706632Y-118846525D01*
X145504104Y-118711200D01*
X146405413Y-118711200D01*
X146465688Y-118771475D01*
G37*
%TD.AperFunction*%
D16*
X143813368Y-118846525D02*
X143606525Y-119053368D01*
X143490000Y-119227760D01*
X143373475Y-119053368D01*
X143281135Y-118961028D01*
X143385243Y-118940320D01*
X143563210Y-118866604D01*
X143723375Y-118759585D01*
X143771760Y-118711200D01*
X144015896Y-118711200D01*
X143813368Y-118846525D01*
%TA.AperFunction,NonConductor*%
D17*
G36*
X143813368Y-118846525D02*
G01*
X143606525Y-119053368D01*
X143490000Y-119227760D01*
X143373475Y-119053368D01*
X143281135Y-118961028D01*
X143385243Y-118940320D01*
X143563210Y-118866604D01*
X143723375Y-118759585D01*
X143771760Y-118711200D01*
X144015896Y-118711200D01*
X143813368Y-118846525D01*
G37*
%TD.AperFunction*%
D16*
X136772068Y-115873158D02*
X136884010Y-116143411D01*
X137046525Y-116386632D01*
X137253368Y-116593475D01*
X137427760Y-116710000D01*
X137253368Y-116826525D01*
X137046525Y-117033368D01*
X136884010Y-117276589D01*
X136772068Y-117546842D01*
X136760000Y-117607511D01*
X136760000Y-115812489D01*
X136772068Y-115873158D01*
%TA.AperFunction,NonConductor*%
D17*
G36*
X136772068Y-115873158D02*
G01*
X136884010Y-116143411D01*
X137046525Y-116386632D01*
X137253368Y-116593475D01*
X137427760Y-116710000D01*
X137253368Y-116826525D01*
X137046525Y-117033368D01*
X136884010Y-117276589D01*
X136772068Y-117546842D01*
X136760000Y-117607511D01*
X136760000Y-115812489D01*
X136772068Y-115873158D01*
G37*
%TD.AperFunction*%
D16*
X169488801Y-116905411D02*
X169105413Y-117288800D01*
X168794330Y-117288800D01*
X168770472Y-117210149D01*
X168688405Y-117056613D01*
X168577962Y-116922038D01*
X168443387Y-116811595D01*
X168406101Y-116791665D01*
X168443387Y-116771735D01*
X168577962Y-116661292D01*
X168688405Y-116526717D01*
X168770472Y-116373181D01*
X168794330Y-116294530D01*
X169181744Y-116294530D01*
X169216670Y-116297970D01*
X169251596Y-116294530D01*
X169251606Y-116294530D01*
X169356090Y-116284239D01*
X169488801Y-116243982D01*
X169488801Y-116905411D01*
%TA.AperFunction,NonConductor*%
D17*
G36*
X169488801Y-116905411D02*
G01*
X169105413Y-117288800D01*
X168794330Y-117288800D01*
X168770472Y-117210149D01*
X168688405Y-117056613D01*
X168577962Y-116922038D01*
X168443387Y-116811595D01*
X168406101Y-116791665D01*
X168443387Y-116771735D01*
X168577962Y-116661292D01*
X168688405Y-116526717D01*
X168770472Y-116373181D01*
X168794330Y-116294530D01*
X169181744Y-116294530D01*
X169216670Y-116297970D01*
X169251596Y-116294530D01*
X169251606Y-116294530D01*
X169356090Y-116284239D01*
X169488801Y-116243982D01*
X169488801Y-116905411D01*
G37*
%TD.AperFunction*%
D16*
X164429528Y-116373181D02*
X164511595Y-116526717D01*
X164622038Y-116661292D01*
X164756613Y-116771735D01*
X164793899Y-116791665D01*
X164756613Y-116811595D01*
X164622038Y-116922038D01*
X164511595Y-117056613D01*
X164494460Y-117088671D01*
X163777900Y-116372112D01*
X163777900Y-116303685D01*
X163776079Y-116294530D01*
X164405670Y-116294530D01*
X164429528Y-116373181D01*
%TA.AperFunction,NonConductor*%
D17*
G36*
X164429528Y-116373181D02*
G01*
X164511595Y-116526717D01*
X164622038Y-116661292D01*
X164756613Y-116771735D01*
X164793899Y-116791665D01*
X164756613Y-116811595D01*
X164622038Y-116922038D01*
X164511595Y-117056613D01*
X164494460Y-117088671D01*
X163777900Y-116372112D01*
X163777900Y-116303685D01*
X163776079Y-116294530D01*
X164405670Y-116294530D01*
X164429528Y-116373181D01*
G37*
%TD.AperFunction*%
D16*
X179084010Y-115723411D02*
X179246525Y-115966632D01*
X179453368Y-116173475D01*
X179627760Y-116290000D01*
X179453368Y-116406525D01*
X179246525Y-116613368D01*
X179084010Y-116856589D01*
X179040000Y-116962839D01*
X178995990Y-116856589D01*
X178833475Y-116613368D01*
X178626632Y-116406525D01*
X178452240Y-116290000D01*
X178626632Y-116173475D01*
X178833475Y-115966632D01*
X178995990Y-115723411D01*
X179040000Y-115617161D01*
X179084010Y-115723411D01*
%TA.AperFunction,NonConductor*%
D17*
G36*
X179084010Y-115723411D02*
G01*
X179246525Y-115966632D01*
X179453368Y-116173475D01*
X179627760Y-116290000D01*
X179453368Y-116406525D01*
X179246525Y-116613368D01*
X179084010Y-116856589D01*
X179040000Y-116962839D01*
X178995990Y-116856589D01*
X178833475Y-116613368D01*
X178626632Y-116406525D01*
X178452240Y-116290000D01*
X178626632Y-116173475D01*
X178833475Y-115966632D01*
X178995990Y-115723411D01*
X179040000Y-115617161D01*
X179084010Y-115723411D01*
G37*
%TD.AperFunction*%
D16*
X166622038Y-116661292D02*
X166756613Y-116771735D01*
X166793899Y-116791665D01*
X166756613Y-116811595D01*
X166622038Y-116922038D01*
X166600000Y-116948891D01*
X166577962Y-116922038D01*
X166443387Y-116811595D01*
X166406101Y-116791665D01*
X166443387Y-116771735D01*
X166577962Y-116661292D01*
X166600000Y-116634439D01*
X166622038Y-116661292D01*
%TA.AperFunction,NonConductor*%
D17*
G36*
X166622038Y-116661292D02*
G01*
X166756613Y-116771735D01*
X166793899Y-116791665D01*
X166756613Y-116811595D01*
X166622038Y-116922038D01*
X166600000Y-116948891D01*
X166577962Y-116922038D01*
X166443387Y-116811595D01*
X166406101Y-116791665D01*
X166443387Y-116771735D01*
X166577962Y-116661292D01*
X166600000Y-116634439D01*
X166622038Y-116661292D01*
G37*
%TD.AperFunction*%
D16*
X160155732Y-116061520D02*
X160178003Y-116088657D01*
X160286297Y-116177532D01*
X160409849Y-116243572D01*
X160543910Y-116284239D01*
X160648394Y-116294530D01*
X160648411Y-116294530D01*
X160683329Y-116297969D01*
X160718247Y-116294530D01*
X161823921Y-116294530D01*
X161822100Y-116303685D01*
X161822100Y-116496315D01*
X161859680Y-116685243D01*
X161913694Y-116815646D01*
X161876625Y-116840415D01*
X161772630Y-116944410D01*
X159774835Y-116944410D01*
X159777000Y-116922426D01*
X159777000Y-116922423D01*
X159780686Y-116885000D01*
X159777000Y-116847577D01*
X159777000Y-116815539D01*
X159820258Y-116762829D01*
X159893084Y-116626582D01*
X159937929Y-116478745D01*
X159953072Y-116325000D01*
X159953072Y-115858859D01*
X160155732Y-116061520D01*
%TA.AperFunction,NonConductor*%
D17*
G36*
X160155732Y-116061520D02*
G01*
X160178003Y-116088657D01*
X160286297Y-116177532D01*
X160409849Y-116243572D01*
X160543910Y-116284239D01*
X160648394Y-116294530D01*
X160648411Y-116294530D01*
X160683329Y-116297969D01*
X160718247Y-116294530D01*
X161823921Y-116294530D01*
X161822100Y-116303685D01*
X161822100Y-116496315D01*
X161859680Y-116685243D01*
X161913694Y-116815646D01*
X161876625Y-116840415D01*
X161772630Y-116944410D01*
X159774835Y-116944410D01*
X159777000Y-116922426D01*
X159777000Y-116922423D01*
X159780686Y-116885000D01*
X159777000Y-116847577D01*
X159777000Y-116815539D01*
X159820258Y-116762829D01*
X159893084Y-116626582D01*
X159937929Y-116478745D01*
X159953072Y-116325000D01*
X159953072Y-115858859D01*
X160155732Y-116061520D01*
G37*
%TD.AperFunction*%
D16*
X136772068Y-113333158D02*
X136884010Y-113603411D01*
X137046525Y-113846632D01*
X137253368Y-114053475D01*
X137427760Y-114170000D01*
X137253368Y-114286525D01*
X137046525Y-114493368D01*
X136884010Y-114736589D01*
X136772068Y-115006842D01*
X136760000Y-115067511D01*
X136760000Y-113272489D01*
X136772068Y-113333158D01*
%TA.AperFunction,NonConductor*%
D17*
G36*
X136772068Y-113333158D02*
G01*
X136884010Y-113603411D01*
X137046525Y-113846632D01*
X137253368Y-114053475D01*
X137427760Y-114170000D01*
X137253368Y-114286525D01*
X137046525Y-114493368D01*
X136884010Y-114736589D01*
X136772068Y-115006842D01*
X136760000Y-115067511D01*
X136760000Y-113272489D01*
X136772068Y-113333158D01*
G37*
%TD.AperFunction*%
D16*
X180711928Y-101450000D02*
X180724188Y-101574482D01*
X180760498Y-101694180D01*
X180819463Y-101804494D01*
X180898815Y-101901185D01*
X180965244Y-101955702D01*
X180796315Y-101922100D01*
X180603685Y-101922100D01*
X180414757Y-101959680D01*
X180236790Y-102033396D01*
X180076625Y-102140415D01*
X179940415Y-102276625D01*
X179833396Y-102436790D01*
X179759680Y-102614757D01*
X179722100Y-102803685D01*
X179722100Y-102996315D01*
X179759680Y-103185243D01*
X179833396Y-103363210D01*
X179940415Y-103523375D01*
X180076625Y-103659585D01*
X180236790Y-103766604D01*
X180414757Y-103840320D01*
X180603685Y-103877900D01*
X180796315Y-103877900D01*
X180954059Y-103846523D01*
X180995506Y-103880537D01*
X181105820Y-103939502D01*
X181225518Y-103975812D01*
X181350000Y-103988072D01*
X182250000Y-103988072D01*
X182374482Y-103975812D01*
X182494180Y-103939502D01*
X182604494Y-103880537D01*
X182701185Y-103801185D01*
X182780537Y-103704494D01*
X182839502Y-103594180D01*
X182875812Y-103474482D01*
X182888072Y-103350000D01*
X182888072Y-102838095D01*
X182898815Y-102851185D01*
X182995506Y-102930537D01*
X183038000Y-102953251D01*
X183038001Y-103684368D01*
X180810442Y-105911928D01*
X179550000Y-105911928D01*
X179425518Y-105924188D01*
X179305820Y-105960498D01*
X179195506Y-106019463D01*
X179098815Y-106098815D01*
X179040000Y-106170482D01*
X178981185Y-106098815D01*
X178884494Y-106019463D01*
X178774180Y-105960498D01*
X178654482Y-105924188D01*
X178530000Y-105911928D01*
X176830000Y-105911928D01*
X176705518Y-105924188D01*
X176585820Y-105960498D01*
X176475506Y-106019463D01*
X176378815Y-106098815D01*
X176299463Y-106195506D01*
X176240498Y-106305820D01*
X176204188Y-106425518D01*
X176191928Y-106550000D01*
X176191928Y-108250000D01*
X176204188Y-108374482D01*
X176240498Y-108494180D01*
X176299463Y-108604494D01*
X176378815Y-108701185D01*
X176475506Y-108780537D01*
X176585820Y-108839502D01*
X176658380Y-108861513D01*
X176526525Y-108993368D01*
X176364010Y-109236589D01*
X176252068Y-109506842D01*
X176195000Y-109793740D01*
X176195000Y-110086260D01*
X176252068Y-110373158D01*
X176364010Y-110643411D01*
X176526525Y-110886632D01*
X176733368Y-111093475D01*
X176907760Y-111210000D01*
X176733368Y-111326525D01*
X176526525Y-111533368D01*
X176364010Y-111776589D01*
X176252068Y-112046842D01*
X176195000Y-112333740D01*
X176195000Y-112626260D01*
X176252068Y-112913158D01*
X176364010Y-113183411D01*
X176526525Y-113426632D01*
X176733368Y-113633475D01*
X176907760Y-113750000D01*
X176733368Y-113866525D01*
X176526525Y-114073368D01*
X176364010Y-114316589D01*
X176252068Y-114586842D01*
X176195000Y-114873740D01*
X176195000Y-114997370D01*
X175962000Y-114764370D01*
X175962000Y-110037422D01*
X175965686Y-109999999D01*
X175962000Y-109962574D01*
X175950974Y-109850622D01*
X175907402Y-109706985D01*
X175836645Y-109574608D01*
X175741422Y-109458578D01*
X175712352Y-109434721D01*
X174088072Y-107810442D01*
X174088072Y-106989558D01*
X176312352Y-104765279D01*
X176341422Y-104741422D01*
X176436645Y-104625392D01*
X176507402Y-104493015D01*
X176550974Y-104349378D01*
X176562000Y-104237426D01*
X176562000Y-104237424D01*
X176565686Y-104200001D01*
X176562000Y-104162578D01*
X176562000Y-102953251D01*
X176604494Y-102930537D01*
X176701185Y-102851185D01*
X176780537Y-102754494D01*
X176839502Y-102644180D01*
X176875812Y-102524482D01*
X176888072Y-102400000D01*
X176888072Y-101600000D01*
X176875812Y-101475518D01*
X176839502Y-101355820D01*
X176780537Y-101245506D01*
X176701185Y-101148815D01*
X176655351Y-101111200D01*
X180711928Y-101111200D01*
X180711928Y-101450000D01*
%TA.AperFunction,NonConductor*%
D17*
G36*
X180711928Y-101450000D02*
G01*
X180724188Y-101574482D01*
X180760498Y-101694180D01*
X180819463Y-101804494D01*
X180898815Y-101901185D01*
X180965244Y-101955702D01*
X180796315Y-101922100D01*
X180603685Y-101922100D01*
X180414757Y-101959680D01*
X180236790Y-102033396D01*
X180076625Y-102140415D01*
X179940415Y-102276625D01*
X179833396Y-102436790D01*
X179759680Y-102614757D01*
X179722100Y-102803685D01*
X179722100Y-102996315D01*
X179759680Y-103185243D01*
X179833396Y-103363210D01*
X179940415Y-103523375D01*
X180076625Y-103659585D01*
X180236790Y-103766604D01*
X180414757Y-103840320D01*
X180603685Y-103877900D01*
X180796315Y-103877900D01*
X180954059Y-103846523D01*
X180995506Y-103880537D01*
X181105820Y-103939502D01*
X181225518Y-103975812D01*
X181350000Y-103988072D01*
X182250000Y-103988072D01*
X182374482Y-103975812D01*
X182494180Y-103939502D01*
X182604494Y-103880537D01*
X182701185Y-103801185D01*
X182780537Y-103704494D01*
X182839502Y-103594180D01*
X182875812Y-103474482D01*
X182888072Y-103350000D01*
X182888072Y-102838095D01*
X182898815Y-102851185D01*
X182995506Y-102930537D01*
X183038000Y-102953251D01*
X183038001Y-103684368D01*
X180810442Y-105911928D01*
X179550000Y-105911928D01*
X179425518Y-105924188D01*
X179305820Y-105960498D01*
X179195506Y-106019463D01*
X179098815Y-106098815D01*
X179040000Y-106170482D01*
X178981185Y-106098815D01*
X178884494Y-106019463D01*
X178774180Y-105960498D01*
X178654482Y-105924188D01*
X178530000Y-105911928D01*
X176830000Y-105911928D01*
X176705518Y-105924188D01*
X176585820Y-105960498D01*
X176475506Y-106019463D01*
X176378815Y-106098815D01*
X176299463Y-106195506D01*
X176240498Y-106305820D01*
X176204188Y-106425518D01*
X176191928Y-106550000D01*
X176191928Y-108250000D01*
X176204188Y-108374482D01*
X176240498Y-108494180D01*
X176299463Y-108604494D01*
X176378815Y-108701185D01*
X176475506Y-108780537D01*
X176585820Y-108839502D01*
X176658380Y-108861513D01*
X176526525Y-108993368D01*
X176364010Y-109236589D01*
X176252068Y-109506842D01*
X176195000Y-109793740D01*
X176195000Y-110086260D01*
X176252068Y-110373158D01*
X176364010Y-110643411D01*
X176526525Y-110886632D01*
X176733368Y-111093475D01*
X176907760Y-111210000D01*
X176733368Y-111326525D01*
X176526525Y-111533368D01*
X176364010Y-111776589D01*
X176252068Y-112046842D01*
X176195000Y-112333740D01*
X176195000Y-112626260D01*
X176252068Y-112913158D01*
X176364010Y-113183411D01*
X176526525Y-113426632D01*
X176733368Y-113633475D01*
X176907760Y-113750000D01*
X176733368Y-113866525D01*
X176526525Y-114073368D01*
X176364010Y-114316589D01*
X176252068Y-114586842D01*
X176195000Y-114873740D01*
X176195000Y-114997370D01*
X175962000Y-114764370D01*
X175962000Y-110037422D01*
X175965686Y-109999999D01*
X175962000Y-109962574D01*
X175950974Y-109850622D01*
X175907402Y-109706985D01*
X175836645Y-109574608D01*
X175741422Y-109458578D01*
X175712352Y-109434721D01*
X174088072Y-107810442D01*
X174088072Y-106989558D01*
X176312352Y-104765279D01*
X176341422Y-104741422D01*
X176436645Y-104625392D01*
X176507402Y-104493015D01*
X176550974Y-104349378D01*
X176562000Y-104237426D01*
X176562000Y-104237424D01*
X176565686Y-104200001D01*
X176562000Y-104162578D01*
X176562000Y-102953251D01*
X176604494Y-102930537D01*
X176701185Y-102851185D01*
X176780537Y-102754494D01*
X176839502Y-102644180D01*
X176875812Y-102524482D01*
X176888072Y-102400000D01*
X176888072Y-101600000D01*
X176875812Y-101475518D01*
X176839502Y-101355820D01*
X176780537Y-101245506D01*
X176701185Y-101148815D01*
X176655351Y-101111200D01*
X180711928Y-101111200D01*
X180711928Y-101450000D01*
G37*
%TD.AperFunction*%
D16*
X164365064Y-114611200D02*
X164365072Y-114611200D01*
X164400000Y-114614640D01*
X164434928Y-114611200D01*
X164535184Y-114611200D01*
X164511595Y-114639943D01*
X164429528Y-114793479D01*
X164405670Y-114872130D01*
X160977917Y-114872130D01*
X160906700Y-114800912D01*
X160894202Y-114777531D01*
X160893458Y-114776625D01*
X160827597Y-114696373D01*
X160827593Y-114696369D01*
X160805326Y-114669237D01*
X160778195Y-114646971D01*
X160734004Y-114602780D01*
X164279576Y-114602780D01*
X164365064Y-114611200D01*
%TA.AperFunction,NonConductor*%
D17*
G36*
X164365064Y-114611200D02*
G01*
X164365072Y-114611200D01*
X164400000Y-114614640D01*
X164434928Y-114611200D01*
X164535184Y-114611200D01*
X164511595Y-114639943D01*
X164429528Y-114793479D01*
X164405670Y-114872130D01*
X160977917Y-114872130D01*
X160906700Y-114800912D01*
X160894202Y-114777531D01*
X160893458Y-114776625D01*
X160827597Y-114696373D01*
X160827593Y-114696369D01*
X160805326Y-114669237D01*
X160778195Y-114646971D01*
X160734004Y-114602780D01*
X164279576Y-114602780D01*
X164365064Y-114611200D01*
G37*
%TD.AperFunction*%
D16*
X168836790Y-114066604D02*
X169014757Y-114140320D01*
X169130809Y-114163404D01*
X169121810Y-114172403D01*
X169094673Y-114194674D01*
X169005798Y-114302968D01*
X168939758Y-114426520D01*
X168899091Y-114560581D01*
X168888800Y-114665065D01*
X168888800Y-114665074D01*
X168885360Y-114700000D01*
X168888800Y-114734926D01*
X168888800Y-114872130D01*
X168794330Y-114872130D01*
X168770472Y-114793479D01*
X168688405Y-114639943D01*
X168577962Y-114505368D01*
X168443387Y-114394925D01*
X168406104Y-114374997D01*
X168443387Y-114355069D01*
X168577962Y-114244626D01*
X168688405Y-114110051D01*
X168744566Y-114004982D01*
X168836790Y-114066604D01*
%TA.AperFunction,NonConductor*%
D17*
G36*
X168836790Y-114066604D02*
G01*
X169014757Y-114140320D01*
X169130809Y-114163404D01*
X169121810Y-114172403D01*
X169094673Y-114194674D01*
X169005798Y-114302968D01*
X168939758Y-114426520D01*
X168899091Y-114560581D01*
X168888800Y-114665065D01*
X168888800Y-114665074D01*
X168885360Y-114700000D01*
X168888800Y-114734926D01*
X168888800Y-114872130D01*
X168794330Y-114872130D01*
X168770472Y-114793479D01*
X168688405Y-114639943D01*
X168577962Y-114505368D01*
X168443387Y-114394925D01*
X168406104Y-114374997D01*
X168443387Y-114355069D01*
X168577962Y-114244626D01*
X168688405Y-114110051D01*
X168744566Y-114004982D01*
X168836790Y-114066604D01*
G37*
%TD.AperFunction*%
D16*
X147747842Y-113788193D02*
X147735000Y-113786928D01*
X147435000Y-113786928D01*
X147281255Y-113802071D01*
X147133418Y-113846916D01*
X146997171Y-113919742D01*
X146877749Y-114017749D01*
X146779742Y-114137171D01*
X146706916Y-114273418D01*
X146662071Y-114421255D01*
X146646928Y-114575000D01*
X146646928Y-114738800D01*
X143621760Y-114738800D01*
X143523375Y-114640415D01*
X143421720Y-114572491D01*
X143529634Y-114483928D01*
X143551909Y-114456786D01*
X145378196Y-112630501D01*
X145405327Y-112608235D01*
X145427593Y-112581104D01*
X145427597Y-112581100D01*
X145494201Y-112499942D01*
X145495756Y-112497033D01*
X145560242Y-112376389D01*
X145600909Y-112242328D01*
X145608789Y-112162318D01*
X145707797Y-112182012D01*
X145900427Y-112182012D01*
X146089355Y-112144432D01*
X146099768Y-112140119D01*
X147747842Y-113788193D01*
%TA.AperFunction,NonConductor*%
D17*
G36*
X147747842Y-113788193D02*
G01*
X147735000Y-113786928D01*
X147435000Y-113786928D01*
X147281255Y-113802071D01*
X147133418Y-113846916D01*
X146997171Y-113919742D01*
X146877749Y-114017749D01*
X146779742Y-114137171D01*
X146706916Y-114273418D01*
X146662071Y-114421255D01*
X146646928Y-114575000D01*
X146646928Y-114738800D01*
X143621760Y-114738800D01*
X143523375Y-114640415D01*
X143421720Y-114572491D01*
X143529634Y-114483928D01*
X143551909Y-114456786D01*
X145378196Y-112630501D01*
X145405327Y-112608235D01*
X145427593Y-112581104D01*
X145427597Y-112581100D01*
X145494201Y-112499942D01*
X145495756Y-112497033D01*
X145560242Y-112376389D01*
X145600909Y-112242328D01*
X145608789Y-112162318D01*
X145707797Y-112182012D01*
X145900427Y-112182012D01*
X146089355Y-112144432D01*
X146099768Y-112140119D01*
X147747842Y-113788193D01*
G37*
%TD.AperFunction*%
D16*
X166622038Y-114244626D02*
X166756613Y-114355069D01*
X166793896Y-114374997D01*
X166756613Y-114394925D01*
X166622038Y-114505368D01*
X166600000Y-114532221D01*
X166577962Y-114505368D01*
X166443387Y-114394925D01*
X166406104Y-114374997D01*
X166443387Y-114355069D01*
X166577962Y-114244626D01*
X166600000Y-114217773D01*
X166622038Y-114244626D01*
%TA.AperFunction,NonConductor*%
D17*
G36*
X166622038Y-114244626D02*
G01*
X166756613Y-114355069D01*
X166793896Y-114374997D01*
X166756613Y-114394925D01*
X166622038Y-114505368D01*
X166600000Y-114532221D01*
X166577962Y-114505368D01*
X166443387Y-114394925D01*
X166406104Y-114374997D01*
X166443387Y-114355069D01*
X166577962Y-114244626D01*
X166600000Y-114217773D01*
X166622038Y-114244626D01*
G37*
%TD.AperFunction*%
D16*
X179084010Y-113183411D02*
X179246525Y-113426632D01*
X179453368Y-113633475D01*
X179627760Y-113750000D01*
X179453368Y-113866525D01*
X179246525Y-114073368D01*
X179084010Y-114316589D01*
X179040000Y-114422839D01*
X178995990Y-114316589D01*
X178833475Y-114073368D01*
X178626632Y-113866525D01*
X178452240Y-113750000D01*
X178626632Y-113633475D01*
X178833475Y-113426632D01*
X178995990Y-113183411D01*
X179040000Y-113077161D01*
X179084010Y-113183411D01*
%TA.AperFunction,NonConductor*%
D17*
G36*
X179084010Y-113183411D02*
G01*
X179246525Y-113426632D01*
X179453368Y-113633475D01*
X179627760Y-113750000D01*
X179453368Y-113866525D01*
X179246525Y-114073368D01*
X179084010Y-114316589D01*
X179040000Y-114422839D01*
X178995990Y-114316589D01*
X178833475Y-114073368D01*
X178626632Y-113866525D01*
X178452240Y-113750000D01*
X178626632Y-113633475D01*
X178833475Y-113426632D01*
X178995990Y-113183411D01*
X179040000Y-113077161D01*
X179084010Y-113183411D01*
G37*
%TD.AperFunction*%
D16*
X149233396Y-108163210D02*
X149340415Y-108323375D01*
X149476625Y-108459585D01*
X149636790Y-108566604D01*
X149814757Y-108640320D01*
X150003685Y-108677900D01*
X150117299Y-108677900D01*
X150117299Y-109493573D01*
X150113859Y-109528499D01*
X150117299Y-109563425D01*
X150117299Y-109563434D01*
X150127590Y-109667918D01*
X150168257Y-109801979D01*
X150234297Y-109925531D01*
X150323172Y-110033825D01*
X150350309Y-110056096D01*
X150422100Y-110127887D01*
X150422100Y-110196315D01*
X150459680Y-110385243D01*
X150533396Y-110563210D01*
X150640415Y-110723375D01*
X150776625Y-110859585D01*
X150936790Y-110966604D01*
X151114757Y-111040320D01*
X151303685Y-111077900D01*
X151496315Y-111077900D01*
X151685243Y-111040320D01*
X151863210Y-110966604D01*
X152023375Y-110859585D01*
X152159585Y-110723375D01*
X152266604Y-110563210D01*
X152340320Y-110385243D01*
X152377900Y-110196315D01*
X152377900Y-110003685D01*
X152340320Y-109814757D01*
X152266604Y-109636790D01*
X152159585Y-109476625D01*
X152023375Y-109340415D01*
X151863210Y-109233396D01*
X151685243Y-109159680D01*
X151539699Y-109130730D01*
X151539699Y-108669270D01*
X151685243Y-108640320D01*
X151863210Y-108566604D01*
X152023375Y-108459585D01*
X152050000Y-108432960D01*
X152076625Y-108459585D01*
X152236790Y-108566604D01*
X152414757Y-108640320D01*
X152603685Y-108677900D01*
X152796315Y-108677900D01*
X152985243Y-108640320D01*
X153163210Y-108566604D01*
X153300000Y-108475204D01*
X153436790Y-108566604D01*
X153614757Y-108640320D01*
X153803685Y-108677900D01*
X153996315Y-108677900D01*
X154185243Y-108640320D01*
X154363210Y-108566604D01*
X154523375Y-108459585D01*
X154550000Y-108432960D01*
X154576625Y-108459585D01*
X154736790Y-108566604D01*
X154768607Y-108579783D01*
X149731651Y-113616740D01*
X146806676Y-110691766D01*
X146782814Y-110662690D01*
X146666784Y-110567467D01*
X146648235Y-110557552D01*
X149177507Y-108028282D01*
X149233396Y-108163210D01*
%TA.AperFunction,NonConductor*%
D17*
G36*
X149233396Y-108163210D02*
G01*
X149340415Y-108323375D01*
X149476625Y-108459585D01*
X149636790Y-108566604D01*
X149814757Y-108640320D01*
X150003685Y-108677900D01*
X150117299Y-108677900D01*
X150117299Y-109493573D01*
X150113859Y-109528499D01*
X150117299Y-109563425D01*
X150117299Y-109563434D01*
X150127590Y-109667918D01*
X150168257Y-109801979D01*
X150234297Y-109925531D01*
X150323172Y-110033825D01*
X150350309Y-110056096D01*
X150422100Y-110127887D01*
X150422100Y-110196315D01*
X150459680Y-110385243D01*
X150533396Y-110563210D01*
X150640415Y-110723375D01*
X150776625Y-110859585D01*
X150936790Y-110966604D01*
X151114757Y-111040320D01*
X151303685Y-111077900D01*
X151496315Y-111077900D01*
X151685243Y-111040320D01*
X151863210Y-110966604D01*
X152023375Y-110859585D01*
X152159585Y-110723375D01*
X152266604Y-110563210D01*
X152340320Y-110385243D01*
X152377900Y-110196315D01*
X152377900Y-110003685D01*
X152340320Y-109814757D01*
X152266604Y-109636790D01*
X152159585Y-109476625D01*
X152023375Y-109340415D01*
X151863210Y-109233396D01*
X151685243Y-109159680D01*
X151539699Y-109130730D01*
X151539699Y-108669270D01*
X151685243Y-108640320D01*
X151863210Y-108566604D01*
X152023375Y-108459585D01*
X152050000Y-108432960D01*
X152076625Y-108459585D01*
X152236790Y-108566604D01*
X152414757Y-108640320D01*
X152603685Y-108677900D01*
X152796315Y-108677900D01*
X152985243Y-108640320D01*
X153163210Y-108566604D01*
X153300000Y-108475204D01*
X153436790Y-108566604D01*
X153614757Y-108640320D01*
X153803685Y-108677900D01*
X153996315Y-108677900D01*
X154185243Y-108640320D01*
X154363210Y-108566604D01*
X154523375Y-108459585D01*
X154550000Y-108432960D01*
X154576625Y-108459585D01*
X154736790Y-108566604D01*
X154768607Y-108579783D01*
X149731651Y-113616740D01*
X146806676Y-110691766D01*
X146782814Y-110662690D01*
X146666784Y-110567467D01*
X146648235Y-110557552D01*
X149177507Y-108028282D01*
X149233396Y-108163210D01*
G37*
%TD.AperFunction*%
D16*
X164378992Y-107710077D02*
X164361928Y-107883331D01*
X164361928Y-108565617D01*
X163721810Y-109205735D01*
X163694674Y-109228005D01*
X163672404Y-109255141D01*
X163672403Y-109255142D01*
X163605798Y-109336300D01*
X163553217Y-109434673D01*
X163539759Y-109459851D01*
X163499092Y-109593912D01*
X163498689Y-109598000D01*
X163485360Y-109733332D01*
X163488801Y-109768268D01*
X163488800Y-111005411D01*
X162105413Y-112388800D01*
X155294928Y-112388800D01*
X155260000Y-112385360D01*
X155225071Y-112388800D01*
X155225064Y-112388800D01*
X155120580Y-112399091D01*
X154986519Y-112439758D01*
X154862967Y-112505798D01*
X154754673Y-112594673D01*
X154732403Y-112621809D01*
X154046905Y-113307308D01*
X153959585Y-113176625D01*
X153823375Y-113040415D01*
X153663210Y-112933396D01*
X153485243Y-112859680D01*
X153296315Y-112822100D01*
X153103685Y-112822100D01*
X152914757Y-112859680D01*
X152736790Y-112933396D01*
X152576625Y-113040415D01*
X152440415Y-113176625D01*
X152333396Y-113336790D01*
X152300000Y-113417415D01*
X152266604Y-113336790D01*
X152169100Y-113190865D01*
X156377266Y-108982701D01*
X162693573Y-108982701D01*
X162728499Y-108986141D01*
X162763425Y-108982701D01*
X162763435Y-108982701D01*
X162867919Y-108972410D01*
X163001980Y-108931743D01*
X163125532Y-108865703D01*
X163233826Y-108776828D01*
X163256101Y-108749686D01*
X164415255Y-107590533D01*
X164378992Y-107710077D01*
%TA.AperFunction,NonConductor*%
D17*
G36*
X164378992Y-107710077D02*
G01*
X164361928Y-107883331D01*
X164361928Y-108565617D01*
X163721810Y-109205735D01*
X163694674Y-109228005D01*
X163672404Y-109255141D01*
X163672403Y-109255142D01*
X163605798Y-109336300D01*
X163553217Y-109434673D01*
X163539759Y-109459851D01*
X163499092Y-109593912D01*
X163498689Y-109598000D01*
X163485360Y-109733332D01*
X163488801Y-109768268D01*
X163488800Y-111005411D01*
X162105413Y-112388800D01*
X155294928Y-112388800D01*
X155260000Y-112385360D01*
X155225071Y-112388800D01*
X155225064Y-112388800D01*
X155120580Y-112399091D01*
X154986519Y-112439758D01*
X154862967Y-112505798D01*
X154754673Y-112594673D01*
X154732403Y-112621809D01*
X154046905Y-113307308D01*
X153959585Y-113176625D01*
X153823375Y-113040415D01*
X153663210Y-112933396D01*
X153485243Y-112859680D01*
X153296315Y-112822100D01*
X153103685Y-112822100D01*
X152914757Y-112859680D01*
X152736790Y-112933396D01*
X152576625Y-113040415D01*
X152440415Y-113176625D01*
X152333396Y-113336790D01*
X152300000Y-113417415D01*
X152266604Y-113336790D01*
X152169100Y-113190865D01*
X156377266Y-108982701D01*
X162693573Y-108982701D01*
X162728499Y-108986141D01*
X162763425Y-108982701D01*
X162763435Y-108982701D01*
X162867919Y-108972410D01*
X163001980Y-108931743D01*
X163125532Y-108865703D01*
X163233826Y-108776828D01*
X163256101Y-108749686D01*
X164415255Y-107590533D01*
X164378992Y-107710077D01*
G37*
%TD.AperFunction*%
D16*
X143638001Y-109225594D02*
X143600537Y-109155506D01*
X143521185Y-109058815D01*
X143424494Y-108979463D01*
X143314180Y-108920498D01*
X143194482Y-108884188D01*
X143070000Y-108871928D01*
X141370000Y-108871928D01*
X141245518Y-108884188D01*
X141125820Y-108920498D01*
X141015506Y-108979463D01*
X140918815Y-109058815D01*
X140839463Y-109155506D01*
X140780498Y-109265820D01*
X140744188Y-109385518D01*
X140731928Y-109510000D01*
X140731928Y-111210000D01*
X140744188Y-111334482D01*
X140780498Y-111454180D01*
X140839463Y-111564494D01*
X140918815Y-111661185D01*
X141015506Y-111740537D01*
X141125820Y-111799502D01*
X141198380Y-111821513D01*
X141066525Y-111953368D01*
X140904010Y-112196589D01*
X140792068Y-112466842D01*
X140735000Y-112753740D01*
X140735000Y-113046260D01*
X140778988Y-113267401D01*
X139641012Y-113267401D01*
X139685000Y-113046260D01*
X139685000Y-112753740D01*
X139627932Y-112466842D01*
X139515990Y-112196589D01*
X139353475Y-111953368D01*
X139146632Y-111746525D01*
X138972240Y-111630000D01*
X139146632Y-111513475D01*
X139353475Y-111306632D01*
X139515990Y-111063411D01*
X139627932Y-110793158D01*
X139685000Y-110506260D01*
X139685000Y-110213740D01*
X139627932Y-109926842D01*
X139515990Y-109656589D01*
X139353475Y-109413368D01*
X139146632Y-109206525D01*
X138972240Y-109090000D01*
X139146632Y-108973475D01*
X139353475Y-108766632D01*
X139476842Y-108582000D01*
X140942577Y-108582000D01*
X140980000Y-108585686D01*
X141017423Y-108582000D01*
X141017426Y-108582000D01*
X141129378Y-108570974D01*
X141273015Y-108527402D01*
X141405392Y-108456645D01*
X141521422Y-108361422D01*
X141545284Y-108332346D01*
X142777059Y-107100572D01*
X143350003Y-107100572D01*
X143523257Y-107083508D01*
X143638001Y-107048701D01*
X143638001Y-109225594D01*
%TA.AperFunction,NonConductor*%
D17*
G36*
X143638001Y-109225594D02*
G01*
X143600537Y-109155506D01*
X143521185Y-109058815D01*
X143424494Y-108979463D01*
X143314180Y-108920498D01*
X143194482Y-108884188D01*
X143070000Y-108871928D01*
X141370000Y-108871928D01*
X141245518Y-108884188D01*
X141125820Y-108920498D01*
X141015506Y-108979463D01*
X140918815Y-109058815D01*
X140839463Y-109155506D01*
X140780498Y-109265820D01*
X140744188Y-109385518D01*
X140731928Y-109510000D01*
X140731928Y-111210000D01*
X140744188Y-111334482D01*
X140780498Y-111454180D01*
X140839463Y-111564494D01*
X140918815Y-111661185D01*
X141015506Y-111740537D01*
X141125820Y-111799502D01*
X141198380Y-111821513D01*
X141066525Y-111953368D01*
X140904010Y-112196589D01*
X140792068Y-112466842D01*
X140735000Y-112753740D01*
X140735000Y-113046260D01*
X140778988Y-113267401D01*
X139641012Y-113267401D01*
X139685000Y-113046260D01*
X139685000Y-112753740D01*
X139627932Y-112466842D01*
X139515990Y-112196589D01*
X139353475Y-111953368D01*
X139146632Y-111746525D01*
X138972240Y-111630000D01*
X139146632Y-111513475D01*
X139353475Y-111306632D01*
X139515990Y-111063411D01*
X139627932Y-110793158D01*
X139685000Y-110506260D01*
X139685000Y-110213740D01*
X139627932Y-109926842D01*
X139515990Y-109656589D01*
X139353475Y-109413368D01*
X139146632Y-109206525D01*
X138972240Y-109090000D01*
X139146632Y-108973475D01*
X139353475Y-108766632D01*
X139476842Y-108582000D01*
X140942577Y-108582000D01*
X140980000Y-108585686D01*
X141017423Y-108582000D01*
X141017426Y-108582000D01*
X141129378Y-108570974D01*
X141273015Y-108527402D01*
X141405392Y-108456645D01*
X141521422Y-108361422D01*
X141545284Y-108332346D01*
X142777059Y-107100572D01*
X143350003Y-107100572D01*
X143523257Y-107083508D01*
X143638001Y-107048701D01*
X143638001Y-109225594D01*
G37*
%TD.AperFunction*%
D16*
X154811595Y-101256613D02*
X154729528Y-101410149D01*
X154678992Y-101576745D01*
X154661928Y-101749999D01*
X154661928Y-102332284D01*
X154472112Y-102522100D01*
X154403685Y-102522100D01*
X154214757Y-102559680D01*
X154036790Y-102633396D01*
X153876625Y-102740415D01*
X153740415Y-102876625D01*
X153633396Y-103036790D01*
X153559680Y-103214757D01*
X153522100Y-103403685D01*
X153522100Y-103596315D01*
X153559680Y-103785243D01*
X153633396Y-103963210D01*
X153740415Y-104123375D01*
X153876625Y-104259585D01*
X154036790Y-104366604D01*
X154214757Y-104440320D01*
X154403685Y-104477900D01*
X154596315Y-104477900D01*
X154785243Y-104440320D01*
X154963210Y-104366604D01*
X155123375Y-104259585D01*
X155259585Y-104123375D01*
X155366604Y-103963210D01*
X155440320Y-103785243D01*
X155477900Y-103596315D01*
X155477900Y-103530971D01*
X155549999Y-103538072D01*
X156250001Y-103538072D01*
X156423255Y-103521008D01*
X156589851Y-103470472D01*
X156743387Y-103388405D01*
X156877962Y-103277962D01*
X156900000Y-103251109D01*
X156922038Y-103277962D01*
X157056613Y-103388405D01*
X157210149Y-103470472D01*
X157376745Y-103521008D01*
X157549999Y-103538072D01*
X158250001Y-103538072D01*
X158423255Y-103521008D01*
X158589851Y-103470472D01*
X158743387Y-103388405D01*
X158877962Y-103277962D01*
X158988405Y-103143387D01*
X159070472Y-102989851D01*
X159121008Y-102823255D01*
X159138072Y-102650001D01*
X159138072Y-101967716D01*
X159344589Y-101761200D01*
X172796322Y-101761200D01*
X172819463Y-101804494D01*
X172898815Y-101901185D01*
X172933253Y-101929447D01*
X172896315Y-101922100D01*
X172703685Y-101922100D01*
X172514757Y-101959680D01*
X172336790Y-102033396D01*
X172176625Y-102140415D01*
X172040415Y-102276625D01*
X171933396Y-102436790D01*
X171859680Y-102614757D01*
X171822100Y-102803685D01*
X171822100Y-102996315D01*
X171859680Y-103185243D01*
X171933396Y-103363210D01*
X172040415Y-103523375D01*
X172176625Y-103659585D01*
X172336790Y-103766604D01*
X172514757Y-103840320D01*
X172703685Y-103877900D01*
X172896315Y-103877900D01*
X172973568Y-103862533D01*
X172995506Y-103880537D01*
X173105820Y-103939502D01*
X173225518Y-103975812D01*
X173350000Y-103988072D01*
X174250000Y-103988072D01*
X174374482Y-103975812D01*
X174494180Y-103939502D01*
X174604494Y-103880537D01*
X174701185Y-103801185D01*
X174780537Y-103704494D01*
X174839502Y-103594180D01*
X174875812Y-103474482D01*
X174888072Y-103350000D01*
X174888072Y-102838095D01*
X174898815Y-102851185D01*
X174995506Y-102930537D01*
X175038000Y-102953251D01*
X175038001Y-103884368D01*
X173010442Y-105911928D01*
X171750000Y-105911928D01*
X171625518Y-105924188D01*
X171505820Y-105960498D01*
X171395506Y-106019463D01*
X171298815Y-106098815D01*
X171219463Y-106195506D01*
X171160498Y-106305820D01*
X171124188Y-106425518D01*
X171111928Y-106550000D01*
X171111928Y-108250000D01*
X171124188Y-108374482D01*
X171160498Y-108494180D01*
X171219463Y-108604494D01*
X171298815Y-108701185D01*
X171395506Y-108780537D01*
X171505820Y-108839502D01*
X171578380Y-108861513D01*
X171446525Y-108993368D01*
X171284010Y-109236589D01*
X171172068Y-109506842D01*
X171115000Y-109793740D01*
X171115000Y-110086260D01*
X171170241Y-110363972D01*
X170721810Y-110812403D01*
X170694673Y-110834674D01*
X170605798Y-110942968D01*
X170539758Y-111066520D01*
X170499091Y-111200581D01*
X170488800Y-111305065D01*
X170488800Y-111305074D01*
X170485360Y-111340000D01*
X170488800Y-111374926D01*
X170488801Y-112805410D01*
X170263404Y-113030808D01*
X170240320Y-112914757D01*
X170189908Y-112793052D01*
X170259585Y-112723375D01*
X170366604Y-112563210D01*
X170440320Y-112385243D01*
X170477900Y-112196315D01*
X170477900Y-112003685D01*
X170440320Y-111814757D01*
X170366604Y-111636790D01*
X170259585Y-111476625D01*
X170211200Y-111428240D01*
X170211200Y-110734928D01*
X170214640Y-110700000D01*
X170211200Y-110665071D01*
X170211200Y-110665064D01*
X170200909Y-110560580D01*
X170181534Y-110496710D01*
X170160242Y-110426518D01*
X170094202Y-110302967D01*
X170027597Y-110221809D01*
X170027593Y-110221805D01*
X170005326Y-110194673D01*
X169978195Y-110172407D01*
X168997565Y-109191778D01*
X169114757Y-109240320D01*
X169303685Y-109277900D01*
X169496315Y-109277900D01*
X169685243Y-109240320D01*
X169863210Y-109166604D01*
X170023375Y-109059585D01*
X170159585Y-108923375D01*
X170266604Y-108763210D01*
X170340320Y-108585243D01*
X170377900Y-108396315D01*
X170377900Y-108203685D01*
X170340320Y-108014757D01*
X170266604Y-107836790D01*
X170159585Y-107676625D01*
X170023375Y-107540415D01*
X169863210Y-107433396D01*
X169770427Y-107394964D01*
X169823375Y-107359585D01*
X169959585Y-107223375D01*
X170066604Y-107063210D01*
X170140320Y-106885243D01*
X170177900Y-106696315D01*
X170177900Y-106503685D01*
X170140320Y-106314757D01*
X170066604Y-106136790D01*
X169959585Y-105976625D01*
X169911200Y-105928240D01*
X169911200Y-105134928D01*
X169914640Y-105100000D01*
X169911200Y-105065071D01*
X169911200Y-105065064D01*
X169900909Y-104960580D01*
X169875916Y-104878190D01*
X169860242Y-104826518D01*
X169794202Y-104702967D01*
X169727598Y-104621809D01*
X169727588Y-104621799D01*
X169705326Y-104594673D01*
X169678201Y-104572412D01*
X168838072Y-103732284D01*
X168838072Y-103049999D01*
X168821008Y-102876745D01*
X168770472Y-102710149D01*
X168688405Y-102556613D01*
X168577962Y-102422038D01*
X168443387Y-102311595D01*
X168289851Y-102229528D01*
X168123255Y-102178992D01*
X167950001Y-102161928D01*
X167249999Y-102161928D01*
X167076745Y-102178992D01*
X166910149Y-102229528D01*
X166756613Y-102311595D01*
X166622038Y-102422038D01*
X166600000Y-102448891D01*
X166577962Y-102422038D01*
X166443387Y-102311595D01*
X166289851Y-102229528D01*
X166123255Y-102178992D01*
X165950001Y-102161928D01*
X165249999Y-102161928D01*
X165076745Y-102178992D01*
X164910149Y-102229528D01*
X164756613Y-102311595D01*
X164622038Y-102422038D01*
X164511595Y-102556613D01*
X164429528Y-102710149D01*
X164396667Y-102818479D01*
X164384730Y-102822100D01*
X164203685Y-102822100D01*
X164014757Y-102859680D01*
X163836790Y-102933396D01*
X163676625Y-103040415D01*
X163540415Y-103176625D01*
X163433396Y-103336790D01*
X163359680Y-103514757D01*
X163322100Y-103703685D01*
X163322100Y-103896315D01*
X163359680Y-104085243D01*
X163433396Y-104263210D01*
X163540415Y-104423375D01*
X163676625Y-104559585D01*
X163836790Y-104666604D01*
X164014757Y-104740320D01*
X164203685Y-104777900D01*
X164396315Y-104777900D01*
X164585243Y-104740320D01*
X164741172Y-104675733D01*
X164756613Y-104688405D01*
X164793896Y-104708333D01*
X164756613Y-104728261D01*
X164622038Y-104838704D01*
X164511595Y-104973279D01*
X164429528Y-105126815D01*
X164378992Y-105293411D01*
X164361928Y-105466665D01*
X164361928Y-105632283D01*
X162433912Y-107560301D01*
X160069270Y-107560301D01*
X160040320Y-107414757D01*
X159966604Y-107236790D01*
X159934772Y-107189151D01*
X159937929Y-107178745D01*
X159953072Y-107025000D01*
X159953072Y-105275000D01*
X159937929Y-105121255D01*
X159893084Y-104973418D01*
X159820258Y-104837171D01*
X159722251Y-104717749D01*
X159602829Y-104619742D01*
X159466582Y-104546916D01*
X159318745Y-104502071D01*
X159165000Y-104486928D01*
X158865000Y-104486928D01*
X158711255Y-104502071D01*
X158563418Y-104546916D01*
X158427171Y-104619742D01*
X158380000Y-104658454D01*
X158332829Y-104619742D01*
X158196582Y-104546916D01*
X158048745Y-104502071D01*
X157895000Y-104486928D01*
X157595000Y-104486928D01*
X157441255Y-104502071D01*
X157293418Y-104546916D01*
X157157171Y-104619742D01*
X157110000Y-104658454D01*
X157062829Y-104619742D01*
X156926582Y-104546916D01*
X156778745Y-104502071D01*
X156625000Y-104486928D01*
X156325000Y-104486928D01*
X156171255Y-104502071D01*
X156023418Y-104546916D01*
X155887171Y-104619742D01*
X155840000Y-104658454D01*
X155792829Y-104619742D01*
X155656582Y-104546916D01*
X155508745Y-104502071D01*
X155355000Y-104486928D01*
X155055000Y-104486928D01*
X154901255Y-104502071D01*
X154753418Y-104546916D01*
X154617171Y-104619742D01*
X154570000Y-104658454D01*
X154522829Y-104619742D01*
X154386582Y-104546916D01*
X154238745Y-104502071D01*
X154085000Y-104486928D01*
X153785000Y-104486928D01*
X153631255Y-104502071D01*
X153483418Y-104546916D01*
X153347171Y-104619742D01*
X153300000Y-104658454D01*
X153252829Y-104619742D01*
X153116582Y-104546916D01*
X152968745Y-104502071D01*
X152815000Y-104486928D01*
X152515000Y-104486928D01*
X152361255Y-104502071D01*
X152213418Y-104546916D01*
X152077171Y-104619742D01*
X152030000Y-104658454D01*
X151982829Y-104619742D01*
X151846582Y-104546916D01*
X151698745Y-104502071D01*
X151545000Y-104486928D01*
X151245000Y-104486928D01*
X151091255Y-104502071D01*
X151054457Y-104513233D01*
X150463038Y-103921815D01*
X150440763Y-103894673D01*
X150332469Y-103805798D01*
X150287608Y-103781819D01*
X150105047Y-103599259D01*
X150176745Y-103621008D01*
X150349999Y-103638072D01*
X151050001Y-103638072D01*
X151223255Y-103621008D01*
X151389851Y-103570472D01*
X151543387Y-103488405D01*
X151677962Y-103377962D01*
X151788405Y-103243387D01*
X151870472Y-103089851D01*
X151921008Y-102923255D01*
X151938072Y-102750001D01*
X151938072Y-101849999D01*
X151921008Y-101676745D01*
X151870472Y-101510149D01*
X151809573Y-101396215D01*
X152073189Y-101132599D01*
X154913371Y-101132599D01*
X154811595Y-101256613D01*
%TA.AperFunction,NonConductor*%
D17*
G36*
X154811595Y-101256613D02*
G01*
X154729528Y-101410149D01*
X154678992Y-101576745D01*
X154661928Y-101749999D01*
X154661928Y-102332284D01*
X154472112Y-102522100D01*
X154403685Y-102522100D01*
X154214757Y-102559680D01*
X154036790Y-102633396D01*
X153876625Y-102740415D01*
X153740415Y-102876625D01*
X153633396Y-103036790D01*
X153559680Y-103214757D01*
X153522100Y-103403685D01*
X153522100Y-103596315D01*
X153559680Y-103785243D01*
X153633396Y-103963210D01*
X153740415Y-104123375D01*
X153876625Y-104259585D01*
X154036790Y-104366604D01*
X154214757Y-104440320D01*
X154403685Y-104477900D01*
X154596315Y-104477900D01*
X154785243Y-104440320D01*
X154963210Y-104366604D01*
X155123375Y-104259585D01*
X155259585Y-104123375D01*
X155366604Y-103963210D01*
X155440320Y-103785243D01*
X155477900Y-103596315D01*
X155477900Y-103530971D01*
X155549999Y-103538072D01*
X156250001Y-103538072D01*
X156423255Y-103521008D01*
X156589851Y-103470472D01*
X156743387Y-103388405D01*
X156877962Y-103277962D01*
X156900000Y-103251109D01*
X156922038Y-103277962D01*
X157056613Y-103388405D01*
X157210149Y-103470472D01*
X157376745Y-103521008D01*
X157549999Y-103538072D01*
X158250001Y-103538072D01*
X158423255Y-103521008D01*
X158589851Y-103470472D01*
X158743387Y-103388405D01*
X158877962Y-103277962D01*
X158988405Y-103143387D01*
X159070472Y-102989851D01*
X159121008Y-102823255D01*
X159138072Y-102650001D01*
X159138072Y-101967716D01*
X159344589Y-101761200D01*
X172796322Y-101761200D01*
X172819463Y-101804494D01*
X172898815Y-101901185D01*
X172933253Y-101929447D01*
X172896315Y-101922100D01*
X172703685Y-101922100D01*
X172514757Y-101959680D01*
X172336790Y-102033396D01*
X172176625Y-102140415D01*
X172040415Y-102276625D01*
X171933396Y-102436790D01*
X171859680Y-102614757D01*
X171822100Y-102803685D01*
X171822100Y-102996315D01*
X171859680Y-103185243D01*
X171933396Y-103363210D01*
X172040415Y-103523375D01*
X172176625Y-103659585D01*
X172336790Y-103766604D01*
X172514757Y-103840320D01*
X172703685Y-103877900D01*
X172896315Y-103877900D01*
X172973568Y-103862533D01*
X172995506Y-103880537D01*
X173105820Y-103939502D01*
X173225518Y-103975812D01*
X173350000Y-103988072D01*
X174250000Y-103988072D01*
X174374482Y-103975812D01*
X174494180Y-103939502D01*
X174604494Y-103880537D01*
X174701185Y-103801185D01*
X174780537Y-103704494D01*
X174839502Y-103594180D01*
X174875812Y-103474482D01*
X174888072Y-103350000D01*
X174888072Y-102838095D01*
X174898815Y-102851185D01*
X174995506Y-102930537D01*
X175038000Y-102953251D01*
X175038001Y-103884368D01*
X173010442Y-105911928D01*
X171750000Y-105911928D01*
X171625518Y-105924188D01*
X171505820Y-105960498D01*
X171395506Y-106019463D01*
X171298815Y-106098815D01*
X171219463Y-106195506D01*
X171160498Y-106305820D01*
X171124188Y-106425518D01*
X171111928Y-106550000D01*
X171111928Y-108250000D01*
X171124188Y-108374482D01*
X171160498Y-108494180D01*
X171219463Y-108604494D01*
X171298815Y-108701185D01*
X171395506Y-108780537D01*
X171505820Y-108839502D01*
X171578380Y-108861513D01*
X171446525Y-108993368D01*
X171284010Y-109236589D01*
X171172068Y-109506842D01*
X171115000Y-109793740D01*
X171115000Y-110086260D01*
X171170241Y-110363972D01*
X170721810Y-110812403D01*
X170694673Y-110834674D01*
X170605798Y-110942968D01*
X170539758Y-111066520D01*
X170499091Y-111200581D01*
X170488800Y-111305065D01*
X170488800Y-111305074D01*
X170485360Y-111340000D01*
X170488800Y-111374926D01*
X170488801Y-112805410D01*
X170263404Y-113030808D01*
X170240320Y-112914757D01*
X170189908Y-112793052D01*
X170259585Y-112723375D01*
X170366604Y-112563210D01*
X170440320Y-112385243D01*
X170477900Y-112196315D01*
X170477900Y-112003685D01*
X170440320Y-111814757D01*
X170366604Y-111636790D01*
X170259585Y-111476625D01*
X170211200Y-111428240D01*
X170211200Y-110734928D01*
X170214640Y-110700000D01*
X170211200Y-110665071D01*
X170211200Y-110665064D01*
X170200909Y-110560580D01*
X170181534Y-110496710D01*
X170160242Y-110426518D01*
X170094202Y-110302967D01*
X170027597Y-110221809D01*
X170027593Y-110221805D01*
X170005326Y-110194673D01*
X169978195Y-110172407D01*
X168997565Y-109191778D01*
X169114757Y-109240320D01*
X169303685Y-109277900D01*
X169496315Y-109277900D01*
X169685243Y-109240320D01*
X169863210Y-109166604D01*
X170023375Y-109059585D01*
X170159585Y-108923375D01*
X170266604Y-108763210D01*
X170340320Y-108585243D01*
X170377900Y-108396315D01*
X170377900Y-108203685D01*
X170340320Y-108014757D01*
X170266604Y-107836790D01*
X170159585Y-107676625D01*
X170023375Y-107540415D01*
X169863210Y-107433396D01*
X169770427Y-107394964D01*
X169823375Y-107359585D01*
X169959585Y-107223375D01*
X170066604Y-107063210D01*
X170140320Y-106885243D01*
X170177900Y-106696315D01*
X170177900Y-106503685D01*
X170140320Y-106314757D01*
X170066604Y-106136790D01*
X169959585Y-105976625D01*
X169911200Y-105928240D01*
X169911200Y-105134928D01*
X169914640Y-105100000D01*
X169911200Y-105065071D01*
X169911200Y-105065064D01*
X169900909Y-104960580D01*
X169875916Y-104878190D01*
X169860242Y-104826518D01*
X169794202Y-104702967D01*
X169727598Y-104621809D01*
X169727588Y-104621799D01*
X169705326Y-104594673D01*
X169678201Y-104572412D01*
X168838072Y-103732284D01*
X168838072Y-103049999D01*
X168821008Y-102876745D01*
X168770472Y-102710149D01*
X168688405Y-102556613D01*
X168577962Y-102422038D01*
X168443387Y-102311595D01*
X168289851Y-102229528D01*
X168123255Y-102178992D01*
X167950001Y-102161928D01*
X167249999Y-102161928D01*
X167076745Y-102178992D01*
X166910149Y-102229528D01*
X166756613Y-102311595D01*
X166622038Y-102422038D01*
X166600000Y-102448891D01*
X166577962Y-102422038D01*
X166443387Y-102311595D01*
X166289851Y-102229528D01*
X166123255Y-102178992D01*
X165950001Y-102161928D01*
X165249999Y-102161928D01*
X165076745Y-102178992D01*
X164910149Y-102229528D01*
X164756613Y-102311595D01*
X164622038Y-102422038D01*
X164511595Y-102556613D01*
X164429528Y-102710149D01*
X164396667Y-102818479D01*
X164384730Y-102822100D01*
X164203685Y-102822100D01*
X164014757Y-102859680D01*
X163836790Y-102933396D01*
X163676625Y-103040415D01*
X163540415Y-103176625D01*
X163433396Y-103336790D01*
X163359680Y-103514757D01*
X163322100Y-103703685D01*
X163322100Y-103896315D01*
X163359680Y-104085243D01*
X163433396Y-104263210D01*
X163540415Y-104423375D01*
X163676625Y-104559585D01*
X163836790Y-104666604D01*
X164014757Y-104740320D01*
X164203685Y-104777900D01*
X164396315Y-104777900D01*
X164585243Y-104740320D01*
X164741172Y-104675733D01*
X164756613Y-104688405D01*
X164793896Y-104708333D01*
X164756613Y-104728261D01*
X164622038Y-104838704D01*
X164511595Y-104973279D01*
X164429528Y-105126815D01*
X164378992Y-105293411D01*
X164361928Y-105466665D01*
X164361928Y-105632283D01*
X162433912Y-107560301D01*
X160069270Y-107560301D01*
X160040320Y-107414757D01*
X159966604Y-107236790D01*
X159934772Y-107189151D01*
X159937929Y-107178745D01*
X159953072Y-107025000D01*
X159953072Y-105275000D01*
X159937929Y-105121255D01*
X159893084Y-104973418D01*
X159820258Y-104837171D01*
X159722251Y-104717749D01*
X159602829Y-104619742D01*
X159466582Y-104546916D01*
X159318745Y-104502071D01*
X159165000Y-104486928D01*
X158865000Y-104486928D01*
X158711255Y-104502071D01*
X158563418Y-104546916D01*
X158427171Y-104619742D01*
X158380000Y-104658454D01*
X158332829Y-104619742D01*
X158196582Y-104546916D01*
X158048745Y-104502071D01*
X157895000Y-104486928D01*
X157595000Y-104486928D01*
X157441255Y-104502071D01*
X157293418Y-104546916D01*
X157157171Y-104619742D01*
X157110000Y-104658454D01*
X157062829Y-104619742D01*
X156926582Y-104546916D01*
X156778745Y-104502071D01*
X156625000Y-104486928D01*
X156325000Y-104486928D01*
X156171255Y-104502071D01*
X156023418Y-104546916D01*
X155887171Y-104619742D01*
X155840000Y-104658454D01*
X155792829Y-104619742D01*
X155656582Y-104546916D01*
X155508745Y-104502071D01*
X155355000Y-104486928D01*
X155055000Y-104486928D01*
X154901255Y-104502071D01*
X154753418Y-104546916D01*
X154617171Y-104619742D01*
X154570000Y-104658454D01*
X154522829Y-104619742D01*
X154386582Y-104546916D01*
X154238745Y-104502071D01*
X154085000Y-104486928D01*
X153785000Y-104486928D01*
X153631255Y-104502071D01*
X153483418Y-104546916D01*
X153347171Y-104619742D01*
X153300000Y-104658454D01*
X153252829Y-104619742D01*
X153116582Y-104546916D01*
X152968745Y-104502071D01*
X152815000Y-104486928D01*
X152515000Y-104486928D01*
X152361255Y-104502071D01*
X152213418Y-104546916D01*
X152077171Y-104619742D01*
X152030000Y-104658454D01*
X151982829Y-104619742D01*
X151846582Y-104546916D01*
X151698745Y-104502071D01*
X151545000Y-104486928D01*
X151245000Y-104486928D01*
X151091255Y-104502071D01*
X151054457Y-104513233D01*
X150463038Y-103921815D01*
X150440763Y-103894673D01*
X150332469Y-103805798D01*
X150287608Y-103781819D01*
X150105047Y-103599259D01*
X150176745Y-103621008D01*
X150349999Y-103638072D01*
X151050001Y-103638072D01*
X151223255Y-103621008D01*
X151389851Y-103570472D01*
X151543387Y-103488405D01*
X151677962Y-103377962D01*
X151788405Y-103243387D01*
X151870472Y-103089851D01*
X151921008Y-102923255D01*
X151938072Y-102750001D01*
X151938072Y-101849999D01*
X151921008Y-101676745D01*
X151870472Y-101510149D01*
X151809573Y-101396215D01*
X152073189Y-101132599D01*
X154913371Y-101132599D01*
X154811595Y-101256613D01*
G37*
%TD.AperFunction*%
D16*
X136772068Y-110793158D02*
X136884010Y-111063411D01*
X137046525Y-111306632D01*
X137253368Y-111513475D01*
X137427760Y-111630000D01*
X137253368Y-111746525D01*
X137046525Y-111953368D01*
X136884010Y-112196589D01*
X136772068Y-112466842D01*
X136760000Y-112527511D01*
X136760000Y-110732489D01*
X136772068Y-110793158D01*
%TA.AperFunction,NonConductor*%
D17*
G36*
X136772068Y-110793158D02*
G01*
X136884010Y-111063411D01*
X137046525Y-111306632D01*
X137253368Y-111513475D01*
X137427760Y-111630000D01*
X137253368Y-111746525D01*
X137046525Y-111953368D01*
X136884010Y-112196589D01*
X136772068Y-112466842D01*
X136760000Y-112527511D01*
X136760000Y-110732489D01*
X136772068Y-110793158D01*
G37*
%TD.AperFunction*%
D16*
X166622038Y-111827960D02*
X166756613Y-111938403D01*
X166793896Y-111958331D01*
X166756613Y-111978259D01*
X166622038Y-112088702D01*
X166600000Y-112115555D01*
X166577962Y-112088702D01*
X166443387Y-111978259D01*
X166406104Y-111958331D01*
X166443387Y-111938403D01*
X166577962Y-111827960D01*
X166600000Y-111801107D01*
X166622038Y-111827960D01*
%TA.AperFunction,NonConductor*%
D17*
G36*
X166622038Y-111827960D02*
G01*
X166756613Y-111938403D01*
X166793896Y-111958331D01*
X166756613Y-111978259D01*
X166622038Y-112088702D01*
X166600000Y-112115555D01*
X166577962Y-112088702D01*
X166443387Y-111978259D01*
X166406104Y-111958331D01*
X166443387Y-111938403D01*
X166577962Y-111827960D01*
X166600000Y-111801107D01*
X166622038Y-111827960D01*
G37*
%TD.AperFunction*%
D16*
X143638000Y-111784369D02*
X143411738Y-112010632D01*
X143373475Y-111953368D01*
X143241620Y-111821513D01*
X143314180Y-111799502D01*
X143424494Y-111740537D01*
X143521185Y-111661185D01*
X143600537Y-111564494D01*
X143638000Y-111494407D01*
X143638000Y-111784369D01*
%TA.AperFunction,NonConductor*%
D17*
G36*
X143638000Y-111784369D02*
G01*
X143411738Y-112010632D01*
X143373475Y-111953368D01*
X143241620Y-111821513D01*
X143314180Y-111799502D01*
X143424494Y-111740537D01*
X143521185Y-111661185D01*
X143600537Y-111564494D01*
X143638000Y-111494407D01*
X143638000Y-111784369D01*
G37*
%TD.AperFunction*%
D16*
X179084010Y-110643411D02*
X179246525Y-110886632D01*
X179453368Y-111093475D01*
X179627760Y-111210000D01*
X179453368Y-111326525D01*
X179246525Y-111533368D01*
X179084010Y-111776589D01*
X179040000Y-111882839D01*
X178995990Y-111776589D01*
X178833475Y-111533368D01*
X178626632Y-111326525D01*
X178452240Y-111210000D01*
X178626632Y-111093475D01*
X178833475Y-110886632D01*
X178995990Y-110643411D01*
X179040000Y-110537161D01*
X179084010Y-110643411D01*
%TA.AperFunction,NonConductor*%
D17*
G36*
X179084010Y-110643411D02*
G01*
X179246525Y-110886632D01*
X179453368Y-111093475D01*
X179627760Y-111210000D01*
X179453368Y-111326525D01*
X179246525Y-111533368D01*
X179084010Y-111776589D01*
X179040000Y-111882839D01*
X178995990Y-111776589D01*
X178833475Y-111533368D01*
X178626632Y-111326525D01*
X178452240Y-111210000D01*
X178626632Y-111093475D01*
X178833475Y-110886632D01*
X178995990Y-110643411D01*
X179040000Y-110537161D01*
X179084010Y-110643411D01*
G37*
%TD.AperFunction*%
D16*
X146706916Y-107326582D02*
X146779742Y-107462829D01*
X146877749Y-107582251D01*
X146997171Y-107680258D01*
X147133418Y-107753084D01*
X147281255Y-107797929D01*
X147385969Y-107808243D01*
X145162000Y-110032213D01*
X145162000Y-107262000D01*
X146687326Y-107262000D01*
X146706916Y-107326582D01*
%TA.AperFunction,NonConductor*%
D17*
G36*
X146706916Y-107326582D02*
G01*
X146779742Y-107462829D01*
X146877749Y-107582251D01*
X146997171Y-107680258D01*
X147133418Y-107753084D01*
X147281255Y-107797929D01*
X147385969Y-107808243D01*
X145162000Y-110032213D01*
X145162000Y-107262000D01*
X146687326Y-107262000D01*
X146706916Y-107326582D01*
G37*
%TD.AperFunction*%
D16*
X136772068Y-108253158D02*
X136884010Y-108523411D01*
X137046525Y-108766632D01*
X137253368Y-108973475D01*
X137427760Y-109090000D01*
X137253368Y-109206525D01*
X137046525Y-109413368D01*
X136884010Y-109656589D01*
X136772068Y-109926842D01*
X136760000Y-109987511D01*
X136760000Y-108192489D01*
X136772068Y-108253158D01*
%TA.AperFunction,NonConductor*%
D17*
G36*
X136772068Y-108253158D02*
G01*
X136884010Y-108523411D01*
X137046525Y-108766632D01*
X137253368Y-108973475D01*
X137427760Y-109090000D01*
X137253368Y-109206525D01*
X137046525Y-109413368D01*
X136884010Y-109656589D01*
X136772068Y-109926842D01*
X136760000Y-109987511D01*
X136760000Y-108192489D01*
X136772068Y-108253158D01*
G37*
%TD.AperFunction*%
D16*
X166622038Y-109411294D02*
X166756613Y-109521737D01*
X166793896Y-109541665D01*
X166756613Y-109561593D01*
X166622038Y-109672036D01*
X166600000Y-109698889D01*
X166577962Y-109672036D01*
X166443387Y-109561593D01*
X166406104Y-109541665D01*
X166443387Y-109521737D01*
X166577962Y-109411294D01*
X166600000Y-109384441D01*
X166622038Y-109411294D01*
%TA.AperFunction,NonConductor*%
D17*
G36*
X166622038Y-109411294D02*
G01*
X166756613Y-109521737D01*
X166793896Y-109541665D01*
X166756613Y-109561593D01*
X166622038Y-109672036D01*
X166600000Y-109698889D01*
X166577962Y-109672036D01*
X166443387Y-109561593D01*
X166406104Y-109541665D01*
X166443387Y-109521737D01*
X166577962Y-109411294D01*
X166600000Y-109384441D01*
X166622038Y-109411294D01*
G37*
%TD.AperFunction*%
D16*
X179098815Y-108701185D02*
X179195506Y-108780537D01*
X179305820Y-108839502D01*
X179378380Y-108861513D01*
X179246525Y-108993368D01*
X179084010Y-109236589D01*
X179040000Y-109342839D01*
X178995990Y-109236589D01*
X178833475Y-108993368D01*
X178701620Y-108861513D01*
X178774180Y-108839502D01*
X178884494Y-108780537D01*
X178981185Y-108701185D01*
X179040000Y-108629518D01*
X179098815Y-108701185D01*
%TA.AperFunction,NonConductor*%
D17*
G36*
X179098815Y-108701185D02*
G01*
X179195506Y-108780537D01*
X179305820Y-108839502D01*
X179378380Y-108861513D01*
X179246525Y-108993368D01*
X179084010Y-109236589D01*
X179040000Y-109342839D01*
X178995990Y-109236589D01*
X178833475Y-108993368D01*
X178701620Y-108861513D01*
X178774180Y-108839502D01*
X178884494Y-108780537D01*
X178981185Y-108701185D01*
X179040000Y-108629518D01*
X179098815Y-108701185D01*
G37*
%TD.AperFunction*%
D16*
X136760498Y-106374180D02*
X136819463Y-106484494D01*
X136898815Y-106581185D01*
X136995506Y-106660537D01*
X137105820Y-106719502D01*
X137178380Y-106741513D01*
X137046525Y-106873368D01*
X136884010Y-107116589D01*
X136772068Y-107386842D01*
X136760000Y-107447511D01*
X136760000Y-106372538D01*
X136760498Y-106374180D01*
%TA.AperFunction,NonConductor*%
D17*
G36*
X136760498Y-106374180D02*
G01*
X136819463Y-106484494D01*
X136898815Y-106581185D01*
X136995506Y-106660537D01*
X137105820Y-106719502D01*
X137178380Y-106741513D01*
X137046525Y-106873368D01*
X136884010Y-107116589D01*
X136772068Y-107386842D01*
X136760000Y-107447511D01*
X136760000Y-106372538D01*
X136760498Y-106374180D01*
G37*
%TD.AperFunction*%
D16*
X166622038Y-106994628D02*
X166756613Y-107105071D01*
X166793896Y-107124999D01*
X166756613Y-107144927D01*
X166622038Y-107255370D01*
X166600000Y-107282223D01*
X166577962Y-107255370D01*
X166443387Y-107144927D01*
X166406104Y-107124999D01*
X166443387Y-107105071D01*
X166577962Y-106994628D01*
X166600000Y-106967775D01*
X166622038Y-106994628D01*
%TA.AperFunction,NonConductor*%
D17*
G36*
X166622038Y-106994628D02*
G01*
X166756613Y-107105071D01*
X166793896Y-107124999D01*
X166756613Y-107144927D01*
X166622038Y-107255370D01*
X166600000Y-107282223D01*
X166577962Y-107255370D01*
X166443387Y-107144927D01*
X166406104Y-107124999D01*
X166443387Y-107105071D01*
X166577962Y-106994628D01*
X166600000Y-106967775D01*
X166622038Y-106994628D01*
G37*
%TD.AperFunction*%
D16*
X141311595Y-103580888D02*
X141422037Y-103715463D01*
X141556612Y-103825905D01*
X141710148Y-103907972D01*
X141876743Y-103958508D01*
X142049997Y-103975572D01*
X143350003Y-103975572D01*
X143523257Y-103958508D01*
X143638001Y-103923701D01*
X143638000Y-104551299D01*
X143523257Y-104516492D01*
X143350003Y-104499428D01*
X142049997Y-104499428D01*
X141876743Y-104516492D01*
X141710148Y-104567028D01*
X141556612Y-104649095D01*
X141422037Y-104759537D01*
X141311595Y-104894112D01*
X141229528Y-105047648D01*
X141178992Y-105214243D01*
X141161928Y-105387497D01*
X141161928Y-106212503D01*
X141178992Y-106385757D01*
X141215677Y-106506692D01*
X140664370Y-107058000D01*
X139476842Y-107058000D01*
X139353475Y-106873368D01*
X139221620Y-106741513D01*
X139294180Y-106719502D01*
X139404494Y-106660537D01*
X139501185Y-106581185D01*
X139580537Y-106484494D01*
X139639502Y-106374180D01*
X139675812Y-106254482D01*
X139688072Y-106130000D01*
X139688072Y-104430000D01*
X139675812Y-104305518D01*
X139639502Y-104185820D01*
X139580537Y-104075506D01*
X139501185Y-103978815D01*
X139404494Y-103899463D01*
X139322171Y-103855459D01*
X139740630Y-103437000D01*
X141234685Y-103437000D01*
X141311595Y-103580888D01*
%TA.AperFunction,NonConductor*%
D17*
G36*
X141311595Y-103580888D02*
G01*
X141422037Y-103715463D01*
X141556612Y-103825905D01*
X141710148Y-103907972D01*
X141876743Y-103958508D01*
X142049997Y-103975572D01*
X143350003Y-103975572D01*
X143523257Y-103958508D01*
X143638001Y-103923701D01*
X143638000Y-104551299D01*
X143523257Y-104516492D01*
X143350003Y-104499428D01*
X142049997Y-104499428D01*
X141876743Y-104516492D01*
X141710148Y-104567028D01*
X141556612Y-104649095D01*
X141422037Y-104759537D01*
X141311595Y-104894112D01*
X141229528Y-105047648D01*
X141178992Y-105214243D01*
X141161928Y-105387497D01*
X141161928Y-106212503D01*
X141178992Y-106385757D01*
X141215677Y-106506692D01*
X140664370Y-107058000D01*
X139476842Y-107058000D01*
X139353475Y-106873368D01*
X139221620Y-106741513D01*
X139294180Y-106719502D01*
X139404494Y-106660537D01*
X139501185Y-106581185D01*
X139580537Y-106484494D01*
X139639502Y-106374180D01*
X139675812Y-106254482D01*
X139688072Y-106130000D01*
X139688072Y-104430000D01*
X139675812Y-104305518D01*
X139639502Y-104185820D01*
X139580537Y-104075506D01*
X139501185Y-103978815D01*
X139404494Y-103899463D01*
X139322171Y-103855459D01*
X139740630Y-103437000D01*
X141234685Y-103437000D01*
X141311595Y-103580888D01*
G37*
%TD.AperFunction*%
D16*
X166622038Y-104577962D02*
X166756613Y-104688405D01*
X166793896Y-104708333D01*
X166756613Y-104728261D01*
X166622038Y-104838704D01*
X166600000Y-104865557D01*
X166577962Y-104838704D01*
X166443387Y-104728261D01*
X166406104Y-104708333D01*
X166443387Y-104688405D01*
X166577962Y-104577962D01*
X166600000Y-104551109D01*
X166622038Y-104577962D01*
%TA.AperFunction,NonConductor*%
D17*
G36*
X166622038Y-104577962D02*
G01*
X166756613Y-104688405D01*
X166793896Y-104708333D01*
X166756613Y-104728261D01*
X166622038Y-104838704D01*
X166600000Y-104865557D01*
X166577962Y-104838704D01*
X166443387Y-104728261D01*
X166406104Y-104708333D01*
X166443387Y-104688405D01*
X166577962Y-104577962D01*
X166600000Y-104551109D01*
X166622038Y-104577962D01*
G37*
%TD.AperFunction*%
D16*
X174711928Y-102111905D02*
X174701185Y-102098815D01*
X174604494Y-102019463D01*
X174568082Y-102000000D01*
X174604494Y-101980537D01*
X174701185Y-101901185D01*
X174711928Y-101888095D01*
X174711928Y-102111905D01*
%TA.AperFunction,NonConductor*%
D17*
G36*
X174711928Y-102111905D02*
G01*
X174701185Y-102098815D01*
X174604494Y-102019463D01*
X174568082Y-102000000D01*
X174604494Y-101980537D01*
X174701185Y-101901185D01*
X174711928Y-101888095D01*
X174711928Y-102111905D01*
G37*
%TD.AperFunction*%
D16*
X182711928Y-102111905D02*
X182701185Y-102098815D01*
X182604494Y-102019463D01*
X182568082Y-102000000D01*
X182604494Y-101980537D01*
X182701185Y-101901185D01*
X182711928Y-101888095D01*
X182711928Y-102111905D01*
%TA.AperFunction,NonConductor*%
D17*
G36*
X182711928Y-102111905D02*
G01*
X182701185Y-102098815D01*
X182604494Y-102019463D01*
X182568082Y-102000000D01*
X182604494Y-101980537D01*
X182701185Y-101901185D01*
X182711928Y-101888095D01*
X182711928Y-102111905D01*
G37*
%TD.AperFunction*%
D16*
X174898815Y-101148815D02*
X174888072Y-101161905D01*
X174888072Y-101111200D01*
X174944649Y-101111200D01*
X174898815Y-101148815D01*
%TA.AperFunction,NonConductor*%
D17*
G36*
X174898815Y-101148815D02*
G01*
X174888072Y-101161905D01*
X174888072Y-101111200D01*
X174944649Y-101111200D01*
X174898815Y-101148815D01*
G37*
%TD.AperFunction*%
D16*
X156900000Y-101148891D02*
X156886629Y-101132599D01*
X156913371Y-101132599D01*
X156900000Y-101148891D01*
%TA.AperFunction,NonConductor*%
D17*
G36*
X156900000Y-101148891D02*
G01*
X156886629Y-101132599D01*
X156913371Y-101132599D01*
X156900000Y-101148891D01*
G37*
%TD.AperFunction*%
M02*
