G04 #@! TF.GenerationSoftware,KiCad,Pcbnew,5.1.10-88a1d61d58~88~ubuntu20.04.1*
G04 #@! TF.CreationDate,2021-05-20T13:29:31-04:00*
G04 #@! TF.ProjectId,hexdisplay8,68657864-6973-4706-9c61-79382e6b6963,rev?*
G04 #@! TF.SameCoordinates,Original*
G04 #@! TF.FileFunction,Copper,L2,Bot*
G04 #@! TF.FilePolarity,Positive*
%FSLAX46Y46*%
G04 Gerber Fmt 4.6, Leading zero omitted, Abs format (unit mm)*
G04 Created by KiCad (PCBNEW 5.1.10-88a1d61d58~88~ubuntu20.04.1) date 2021-05-20 13:29:31*
%MOMM*%
%LPD*%
G01*
G04 APERTURE LIST*
G04 #@! TA.AperFunction,Profile*
%ADD10C,0.050000*%
G04 #@! TD*
G04 #@! TA.AperFunction,ComponentPad*
%ADD11R,1.700000X1.700000*%
G04 #@! TD*
G04 #@! TA.AperFunction,ComponentPad*
%ADD12O,1.700000X1.700000*%
G04 #@! TD*
G04 #@! TA.AperFunction,ViaPad*
%ADD13C,0.685800*%
G04 #@! TD*
G04 #@! TA.AperFunction,Conductor*
%ADD14C,0.254000*%
G04 #@! TD*
G04 #@! TA.AperFunction,Conductor*
%ADD15C,0.152400*%
G04 #@! TD*
G04 #@! TA.AperFunction,Conductor*
%ADD16C,0.100000*%
G04 #@! TD*
G04 APERTURE END LIST*
D10*
X188000000Y-122000000D02*
X136100000Y-122000000D01*
X188000000Y-98200000D02*
X136400000Y-98200000D01*
X188000000Y-122000000D02*
X188000000Y-98200000D01*
X136100000Y-98200000D02*
X136100000Y-122000000D01*
X136400000Y-98200000D02*
X136100000Y-98200000D01*
D11*
G04 #@! TO.P,J3,1*
G04 #@! TO.N,GND*
X142220000Y-110360000D03*
D12*
G04 #@! TO.P,J3,2*
G04 #@! TO.N,VCC*
X142220000Y-112900000D03*
G04 #@! TD*
D11*
G04 #@! TO.P,J4,1*
G04 #@! TO.N,/D0*
X160000000Y-120000000D03*
D12*
G04 #@! TO.P,J4,2*
G04 #@! TO.N,/D1*
X157460000Y-120000000D03*
G04 #@! TO.P,J4,3*
G04 #@! TO.N,/D2*
X154920000Y-120000000D03*
G04 #@! TO.P,J4,4*
G04 #@! TO.N,/D3*
X152380000Y-120000000D03*
G04 #@! TO.P,J4,5*
G04 #@! TO.N,/D4*
X149840000Y-120000000D03*
G04 #@! TO.P,J4,6*
G04 #@! TO.N,/D5*
X147300000Y-120000000D03*
G04 #@! TO.P,J4,7*
G04 #@! TO.N,/D6*
X144760000Y-120000000D03*
G04 #@! TO.P,J4,8*
G04 #@! TO.N,/D7*
X142220000Y-120000000D03*
G04 #@! TD*
D11*
G04 #@! TO.P,J5,1*
G04 #@! TO.N,GND*
X138200000Y-105280000D03*
D12*
G04 #@! TO.P,J5,2*
G04 #@! TO.N,VCC*
X138200000Y-107820000D03*
G04 #@! TO.P,J5,3*
G04 #@! TO.N,/D6*
X138200000Y-110360000D03*
G04 #@! TO.P,J5,4*
G04 #@! TO.N,/D7*
X138200000Y-112900000D03*
G04 #@! TO.P,J5,5*
G04 #@! TO.N,/~RESET*
X138200000Y-115440000D03*
G04 #@! TO.P,J5,6*
G04 #@! TO.N,/D5*
X138200000Y-117980000D03*
G04 #@! TD*
D11*
G04 #@! TO.P,J11,1*
G04 #@! TO.N,/CA2*
X172600000Y-107400000D03*
D12*
G04 #@! TO.P,J11,2*
G04 #@! TO.N,/F*
X172600000Y-109940000D03*
G04 #@! TO.P,J11,3*
G04 #@! TO.N,/G*
X172600000Y-112480000D03*
G04 #@! TO.P,J11,4*
G04 #@! TO.N,/E*
X172600000Y-115020000D03*
G04 #@! TO.P,J11,5*
G04 #@! TO.N,/D*
X172600000Y-117560000D03*
G04 #@! TD*
G04 #@! TO.P,J12,5*
G04 #@! TO.N,/CA2*
X177680000Y-117560000D03*
G04 #@! TO.P,J12,4*
G04 #@! TO.N,Net-(J12-Pad4)*
X177680000Y-115020000D03*
G04 #@! TO.P,J12,3*
G04 #@! TO.N,/C*
X177680000Y-112480000D03*
G04 #@! TO.P,J12,2*
G04 #@! TO.N,/B*
X177680000Y-109940000D03*
D11*
G04 #@! TO.P,J12,1*
G04 #@! TO.N,/A*
X177680000Y-107400000D03*
G04 #@! TD*
G04 #@! TO.P,J21,1*
G04 #@! TO.N,/CA1*
X180400000Y-107400000D03*
D12*
G04 #@! TO.P,J21,2*
G04 #@! TO.N,/F*
X180400000Y-109940000D03*
G04 #@! TO.P,J21,3*
G04 #@! TO.N,/G*
X180400000Y-112480000D03*
G04 #@! TO.P,J21,4*
G04 #@! TO.N,/E*
X180400000Y-115020000D03*
G04 #@! TO.P,J21,5*
G04 #@! TO.N,/D*
X180400000Y-117560000D03*
G04 #@! TD*
G04 #@! TO.P,J22,5*
G04 #@! TO.N,/CA1*
X185480000Y-117560000D03*
G04 #@! TO.P,J22,4*
G04 #@! TO.N,Net-(J22-Pad4)*
X185480000Y-115020000D03*
G04 #@! TO.P,J22,3*
G04 #@! TO.N,/C*
X185480000Y-112480000D03*
G04 #@! TO.P,J22,2*
G04 #@! TO.N,/B*
X185480000Y-109940000D03*
D11*
G04 #@! TO.P,J22,1*
G04 #@! TO.N,/A*
X185480000Y-107400000D03*
G04 #@! TD*
D13*
G04 #@! TO.N,GND*
X143700000Y-110400000D03*
X144400000Y-105300000D03*
X145804112Y-111204112D03*
G04 #@! TO.N,/A*
X169200000Y-106600000D03*
G04 #@! TO.N,/D*
X168600000Y-112100000D03*
G04 #@! TO.N,/B*
X169400000Y-108300000D03*
G04 #@! TO.N,/E*
X169300000Y-113200000D03*
G04 #@! TO.N,/C*
X169500000Y-112100000D03*
G04 #@! TO.N,/D0*
X157800000Y-107700000D03*
G04 #@! TO.N,/D1*
X156500000Y-107700000D03*
G04 #@! TO.N,/D2*
X155200000Y-107700000D03*
G04 #@! TO.N,/D3*
X153900000Y-107700000D03*
G04 #@! TO.N,/D4*
X152700000Y-107700000D03*
G04 #@! TO.N,/D5*
X151400000Y-107700000D03*
X143100000Y-118000000D03*
G04 #@! TO.N,/D6*
X150100000Y-107700000D03*
G04 #@! TO.N,/~RESET*
X142900000Y-115400000D03*
G04 #@! TO.N,Net-(R1-Pad2)*
X162500000Y-117600000D03*
X164300000Y-103800000D03*
G04 #@! TO.N,Net-(R7-Pad2)*
X162800000Y-116400000D03*
X159100000Y-107700000D03*
G04 #@! TO.N,Net-(R8-Pad2)*
X151400000Y-113800000D03*
X151400000Y-110100000D03*
G04 #@! TO.N,Net-(R9-Pad2)*
X153200000Y-113800000D03*
X154500000Y-103500000D03*
G04 #@! TO.N,VCC*
X147600000Y-104500000D03*
X172800000Y-102900000D03*
X180700000Y-102900000D03*
G04 #@! TD*
D14*
G04 #@! TO.N,GND*
X143700000Y-110400000D02*
X144400000Y-109700000D01*
X144400000Y-109700000D02*
X144400000Y-105300000D01*
X145804112Y-111204112D02*
X145000000Y-110400000D01*
X145000000Y-110400000D02*
X143700000Y-110400000D01*
D15*
G04 #@! TO.N,/A*
X176601399Y-108478601D02*
X177680000Y-107400000D01*
X171078601Y-108478601D02*
X176601399Y-108478601D01*
X169200000Y-106600000D02*
X171078601Y-108478601D01*
X177680000Y-107400000D02*
X177680000Y-107480000D01*
X184401399Y-108478601D02*
X185480000Y-107400000D01*
X178678601Y-108478601D02*
X184401399Y-108478601D01*
X177680000Y-107480000D02*
X178678601Y-108478601D01*
G04 #@! TO.N,/D*
X168600000Y-112100000D02*
X168600000Y-115600000D01*
X170560000Y-117560000D02*
X172600000Y-117560000D01*
X168600000Y-115600000D02*
X170560000Y-117560000D01*
X172600000Y-117560000D02*
X172600000Y-118500000D01*
X172600000Y-118500000D02*
X173400000Y-119300000D01*
X173400000Y-119300000D02*
X179700000Y-119300000D01*
X180400000Y-118600000D02*
X180400000Y-117560000D01*
X179700000Y-119300000D02*
X180400000Y-118600000D01*
G04 #@! TO.N,/B*
X169961399Y-108861399D02*
X173161399Y-108861399D01*
X169400000Y-108300000D02*
X169961399Y-108861399D01*
X173161399Y-108861399D02*
X173200000Y-108900000D01*
X176640000Y-108900000D02*
X177680000Y-109940000D01*
X173200000Y-108900000D02*
X176640000Y-108900000D01*
X184401399Y-108861399D02*
X185480000Y-109940000D01*
X178758601Y-108861399D02*
X184401399Y-108861399D01*
X177680000Y-109940000D02*
X178758601Y-108861399D01*
G04 #@! TO.N,/E*
X169720000Y-115020000D02*
X172600000Y-115020000D01*
X172600000Y-115020000D02*
X173700000Y-116120000D01*
X179300000Y-116120000D02*
X180400000Y-115020000D01*
X173700000Y-116120000D02*
X179300000Y-116120000D01*
X169300000Y-113200000D02*
X169300000Y-114700000D01*
X169620000Y-115020000D02*
X169720000Y-115020000D01*
X169300000Y-114700000D02*
X169620000Y-115020000D01*
G04 #@! TO.N,/C*
X177100000Y-113700000D02*
X177680000Y-113120000D01*
X177680000Y-113120000D02*
X177680000Y-112480000D01*
X171100000Y-113700000D02*
X177100000Y-113700000D01*
X169500000Y-112100000D02*
X171100000Y-113700000D01*
X177680000Y-112480000D02*
X177680000Y-113180000D01*
X177680000Y-113180000D02*
X178200000Y-113700000D01*
X184260000Y-113700000D02*
X185480000Y-112480000D01*
X178200000Y-113700000D02*
X184260000Y-113700000D01*
G04 #@! TO.N,/G*
X172600000Y-112480000D02*
X175720000Y-112480000D01*
X179321399Y-111401399D02*
X180400000Y-112480000D01*
X176798601Y-111401399D02*
X179321399Y-111401399D01*
X175720000Y-112480000D02*
X176798601Y-111401399D01*
G04 #@! TO.N,/F*
X172600000Y-109940000D02*
X173660000Y-111000000D01*
X179321399Y-111018601D02*
X180400000Y-109940000D01*
X177143670Y-111000000D02*
X177162271Y-111018601D01*
X177162271Y-111018601D02*
X179321399Y-111018601D01*
X173660000Y-111000000D02*
X177143670Y-111000000D01*
G04 #@! TO.N,/D0*
X157800000Y-117800000D02*
X160000000Y-120000000D01*
X157800000Y-107700000D02*
X157800000Y-117800000D01*
G04 #@! TO.N,/D1*
X156500000Y-119040000D02*
X157460000Y-120000000D01*
X156500000Y-107700000D02*
X156500000Y-119040000D01*
G04 #@! TO.N,/D2*
X155200000Y-107700000D02*
X155100000Y-107700000D01*
X155100000Y-107700000D02*
X154900000Y-107900000D01*
X154900000Y-119980000D02*
X154920000Y-120000000D01*
X154900000Y-107900000D02*
X154900000Y-119980000D01*
G04 #@! TO.N,/D3*
X152380000Y-109220000D02*
X152380000Y-120000000D01*
X153900000Y-107700000D02*
X152380000Y-109220000D01*
G04 #@! TO.N,/D4*
X149840000Y-110560000D02*
X149840000Y-120000000D01*
X152700000Y-107700000D02*
X149840000Y-110560000D01*
G04 #@! TO.N,/D5*
X151400000Y-107700000D02*
X151400000Y-108000000D01*
X151400000Y-108000000D02*
X147300000Y-112100000D01*
X147300000Y-112100000D02*
X147300000Y-120000000D01*
X138220000Y-118000000D02*
X138200000Y-117980000D01*
X143100000Y-118000000D02*
X138220000Y-118000000D01*
G04 #@! TO.N,/D6*
X150100000Y-107700000D02*
X150100000Y-108600000D01*
X150100000Y-108600000D02*
X144760000Y-113940000D01*
X138200000Y-110360000D02*
X138200000Y-110476330D01*
X144720000Y-114200000D02*
X144760000Y-114240000D01*
X144760000Y-114240000D02*
X144760000Y-120000000D01*
X144760000Y-113940000D02*
X144760000Y-114240000D01*
X138200000Y-110360000D02*
X139600000Y-111760000D01*
X139600000Y-111760000D02*
X139600000Y-113200000D01*
X140600000Y-114200000D02*
X142000000Y-114200000D01*
X139600000Y-113200000D02*
X140600000Y-114200000D01*
X142000000Y-114200000D02*
X144720000Y-114200000D01*
X141923670Y-114200000D02*
X142000000Y-114200000D01*
G04 #@! TO.N,/~RESET*
X138240000Y-115400000D02*
X138200000Y-115440000D01*
X142900000Y-115400000D02*
X138240000Y-115400000D01*
G04 #@! TO.N,Net-(R1-Pad2)*
X162500000Y-117600000D02*
X163100000Y-117600000D01*
X163100000Y-117600000D02*
X164300000Y-116400000D01*
X164300000Y-116400000D02*
X164300000Y-103800000D01*
G04 #@! TO.N,Net-(R7-Pad2)*
X162800000Y-116400000D02*
X159100000Y-112700000D01*
X159100000Y-112700000D02*
X159100000Y-107700000D01*
G04 #@! TO.N,Net-(R8-Pad2)*
X151400000Y-113800000D02*
X151400000Y-110100000D01*
G04 #@! TO.N,Net-(R9-Pad2)*
X154500000Y-112500000D02*
X154500000Y-103500000D01*
X153200000Y-113800000D02*
X154500000Y-112500000D01*
D14*
G04 #@! TO.N,VCC*
X147600000Y-104500000D02*
X151300000Y-104500000D01*
X151300000Y-104500000D02*
X152922301Y-102877699D01*
D15*
X172777699Y-102877699D02*
X172800000Y-102900000D01*
D14*
X152922301Y-102877699D02*
X172777699Y-102877699D01*
X172800000Y-102900000D02*
X180700000Y-102900000D01*
G04 #@! TD*
G04 #@! TO.N,GND*
X187340000Y-121340000D02*
X161253889Y-121340000D01*
X161301185Y-121301185D01*
X161380537Y-121204494D01*
X161439502Y-121094180D01*
X161475812Y-120974482D01*
X161488072Y-120850000D01*
X161488072Y-119150000D01*
X161475812Y-119025518D01*
X161439502Y-118905820D01*
X161380537Y-118795506D01*
X161301185Y-118698815D01*
X161204494Y-118619463D01*
X161094180Y-118560498D01*
X160974482Y-118524188D01*
X160850000Y-118511928D01*
X159517716Y-118511928D01*
X158511200Y-117505413D01*
X158511200Y-113103614D01*
X158594673Y-113205326D01*
X158621811Y-113227598D01*
X161822100Y-116427888D01*
X161822100Y-116496315D01*
X161859680Y-116685243D01*
X161913694Y-116815646D01*
X161876625Y-116840415D01*
X161740415Y-116976625D01*
X161633396Y-117136790D01*
X161559680Y-117314757D01*
X161522100Y-117503685D01*
X161522100Y-117696315D01*
X161559680Y-117885243D01*
X161633396Y-118063210D01*
X161740415Y-118223375D01*
X161876625Y-118359585D01*
X162036790Y-118466604D01*
X162214757Y-118540320D01*
X162403685Y-118577900D01*
X162596315Y-118577900D01*
X162785243Y-118540320D01*
X162963210Y-118466604D01*
X163123375Y-118359585D01*
X163175783Y-118307177D01*
X163239420Y-118300909D01*
X163373481Y-118260242D01*
X163497033Y-118194202D01*
X163605327Y-118105327D01*
X163627601Y-118078186D01*
X164778200Y-116927588D01*
X164805326Y-116905327D01*
X164827588Y-116878201D01*
X164827597Y-116878192D01*
X164894202Y-116797033D01*
X164903177Y-116780242D01*
X164960242Y-116673481D01*
X165000909Y-116539420D01*
X165011200Y-116434936D01*
X165011200Y-116434927D01*
X165014640Y-116400001D01*
X165011200Y-116365075D01*
X165011200Y-112003685D01*
X167622100Y-112003685D01*
X167622100Y-112196315D01*
X167659680Y-112385243D01*
X167733396Y-112563210D01*
X167840415Y-112723375D01*
X167888800Y-112771760D01*
X167888801Y-115565064D01*
X167885360Y-115600000D01*
X167888801Y-115634936D01*
X167899092Y-115739420D01*
X167916569Y-115797033D01*
X167939759Y-115873481D01*
X168005798Y-115997032D01*
X168069785Y-116075000D01*
X168094674Y-116105327D01*
X168121810Y-116127597D01*
X170032407Y-118038196D01*
X170054673Y-118065327D01*
X170081804Y-118087593D01*
X170081809Y-118087598D01*
X170162967Y-118154202D01*
X170286518Y-118220242D01*
X170307211Y-118226519D01*
X170420580Y-118260909D01*
X170525064Y-118271200D01*
X170525071Y-118271200D01*
X170560000Y-118274640D01*
X170594928Y-118271200D01*
X171289214Y-118271200D01*
X171446525Y-118506632D01*
X171653368Y-118713475D01*
X171896589Y-118875990D01*
X172035879Y-118933686D01*
X172094674Y-119005327D01*
X172121810Y-119027597D01*
X172872402Y-119778190D01*
X172894673Y-119805327D01*
X173002967Y-119894202D01*
X173126519Y-119960242D01*
X173260580Y-120000909D01*
X173365064Y-120011200D01*
X173365071Y-120011200D01*
X173400000Y-120014640D01*
X173434928Y-120011200D01*
X179665074Y-120011200D01*
X179700000Y-120014640D01*
X179734926Y-120011200D01*
X179734936Y-120011200D01*
X179839420Y-120000909D01*
X179973481Y-119960242D01*
X180097033Y-119894202D01*
X180205327Y-119805327D01*
X180227601Y-119778186D01*
X180878200Y-119127589D01*
X180905326Y-119105327D01*
X180927588Y-119078201D01*
X180927597Y-119078192D01*
X180994201Y-118997034D01*
X180994202Y-118997033D01*
X181046244Y-118899669D01*
X181103411Y-118875990D01*
X181346632Y-118713475D01*
X181553475Y-118506632D01*
X181715990Y-118263411D01*
X181827932Y-117993158D01*
X181885000Y-117706260D01*
X181885000Y-117413740D01*
X181827932Y-117126842D01*
X181715990Y-116856589D01*
X181553475Y-116613368D01*
X181346632Y-116406525D01*
X181172240Y-116290000D01*
X181346632Y-116173475D01*
X181553475Y-115966632D01*
X181715990Y-115723411D01*
X181827932Y-115453158D01*
X181885000Y-115166260D01*
X181885000Y-114873740D01*
X181827932Y-114586842D01*
X181755179Y-114411200D01*
X184124821Y-114411200D01*
X184052068Y-114586842D01*
X183995000Y-114873740D01*
X183995000Y-115166260D01*
X184052068Y-115453158D01*
X184164010Y-115723411D01*
X184326525Y-115966632D01*
X184533368Y-116173475D01*
X184707760Y-116290000D01*
X184533368Y-116406525D01*
X184326525Y-116613368D01*
X184164010Y-116856589D01*
X184052068Y-117126842D01*
X183995000Y-117413740D01*
X183995000Y-117706260D01*
X184052068Y-117993158D01*
X184164010Y-118263411D01*
X184326525Y-118506632D01*
X184533368Y-118713475D01*
X184776589Y-118875990D01*
X185046842Y-118987932D01*
X185333740Y-119045000D01*
X185626260Y-119045000D01*
X185913158Y-118987932D01*
X186183411Y-118875990D01*
X186426632Y-118713475D01*
X186633475Y-118506632D01*
X186795990Y-118263411D01*
X186907932Y-117993158D01*
X186965000Y-117706260D01*
X186965000Y-117413740D01*
X186907932Y-117126842D01*
X186795990Y-116856589D01*
X186633475Y-116613368D01*
X186426632Y-116406525D01*
X186252240Y-116290000D01*
X186426632Y-116173475D01*
X186633475Y-115966632D01*
X186795990Y-115723411D01*
X186907932Y-115453158D01*
X186965000Y-115166260D01*
X186965000Y-114873740D01*
X186907932Y-114586842D01*
X186795990Y-114316589D01*
X186633475Y-114073368D01*
X186426632Y-113866525D01*
X186252240Y-113750000D01*
X186426632Y-113633475D01*
X186633475Y-113426632D01*
X186795990Y-113183411D01*
X186907932Y-112913158D01*
X186965000Y-112626260D01*
X186965000Y-112333740D01*
X186907932Y-112046842D01*
X186795990Y-111776589D01*
X186633475Y-111533368D01*
X186426632Y-111326525D01*
X186252240Y-111210000D01*
X186426632Y-111093475D01*
X186633475Y-110886632D01*
X186795990Y-110643411D01*
X186907932Y-110373158D01*
X186965000Y-110086260D01*
X186965000Y-109793740D01*
X186907932Y-109506842D01*
X186795990Y-109236589D01*
X186633475Y-108993368D01*
X186501620Y-108861513D01*
X186574180Y-108839502D01*
X186684494Y-108780537D01*
X186781185Y-108701185D01*
X186860537Y-108604494D01*
X186919502Y-108494180D01*
X186955812Y-108374482D01*
X186968072Y-108250000D01*
X186968072Y-106550000D01*
X186955812Y-106425518D01*
X186919502Y-106305820D01*
X186860537Y-106195506D01*
X186781185Y-106098815D01*
X186684494Y-106019463D01*
X186574180Y-105960498D01*
X186454482Y-105924188D01*
X186330000Y-105911928D01*
X184630000Y-105911928D01*
X184505518Y-105924188D01*
X184385820Y-105960498D01*
X184275506Y-106019463D01*
X184178815Y-106098815D01*
X184099463Y-106195506D01*
X184040498Y-106305820D01*
X184004188Y-106425518D01*
X183991928Y-106550000D01*
X183991928Y-107767401D01*
X181888072Y-107767401D01*
X181888072Y-106550000D01*
X181875812Y-106425518D01*
X181839502Y-106305820D01*
X181780537Y-106195506D01*
X181701185Y-106098815D01*
X181604494Y-106019463D01*
X181494180Y-105960498D01*
X181374482Y-105924188D01*
X181250000Y-105911928D01*
X179550000Y-105911928D01*
X179425518Y-105924188D01*
X179305820Y-105960498D01*
X179195506Y-106019463D01*
X179098815Y-106098815D01*
X179040000Y-106170482D01*
X178981185Y-106098815D01*
X178884494Y-106019463D01*
X178774180Y-105960498D01*
X178654482Y-105924188D01*
X178530000Y-105911928D01*
X176830000Y-105911928D01*
X176705518Y-105924188D01*
X176585820Y-105960498D01*
X176475506Y-106019463D01*
X176378815Y-106098815D01*
X176299463Y-106195506D01*
X176240498Y-106305820D01*
X176204188Y-106425518D01*
X176191928Y-106550000D01*
X176191928Y-107767401D01*
X174088072Y-107767401D01*
X174088072Y-106550000D01*
X174075812Y-106425518D01*
X174039502Y-106305820D01*
X173980537Y-106195506D01*
X173901185Y-106098815D01*
X173804494Y-106019463D01*
X173694180Y-105960498D01*
X173574482Y-105924188D01*
X173450000Y-105911928D01*
X171750000Y-105911928D01*
X171625518Y-105924188D01*
X171505820Y-105960498D01*
X171395506Y-106019463D01*
X171298815Y-106098815D01*
X171219463Y-106195506D01*
X171160498Y-106305820D01*
X171124188Y-106425518D01*
X171111928Y-106550000D01*
X171111928Y-107506140D01*
X170177900Y-106572113D01*
X170177900Y-106503685D01*
X170140320Y-106314757D01*
X170066604Y-106136790D01*
X169959585Y-105976625D01*
X169823375Y-105840415D01*
X169663210Y-105733396D01*
X169485243Y-105659680D01*
X169296315Y-105622100D01*
X169103685Y-105622100D01*
X168914757Y-105659680D01*
X168736790Y-105733396D01*
X168576625Y-105840415D01*
X168440415Y-105976625D01*
X168333396Y-106136790D01*
X168259680Y-106314757D01*
X168222100Y-106503685D01*
X168222100Y-106696315D01*
X168259680Y-106885243D01*
X168333396Y-107063210D01*
X168440415Y-107223375D01*
X168576625Y-107359585D01*
X168736790Y-107466604D01*
X168829573Y-107505036D01*
X168776625Y-107540415D01*
X168640415Y-107676625D01*
X168533396Y-107836790D01*
X168459680Y-108014757D01*
X168422100Y-108203685D01*
X168422100Y-108396315D01*
X168459680Y-108585243D01*
X168533396Y-108763210D01*
X168640415Y-108923375D01*
X168776625Y-109059585D01*
X168936790Y-109166604D01*
X169114757Y-109240320D01*
X169303685Y-109277900D01*
X169372112Y-109277900D01*
X169433801Y-109339589D01*
X169456072Y-109366726D01*
X169564366Y-109455601D01*
X169687918Y-109521641D01*
X169821979Y-109562308D01*
X169926463Y-109572599D01*
X169926472Y-109572599D01*
X169961398Y-109576039D01*
X169996324Y-109572599D01*
X171158988Y-109572599D01*
X171115000Y-109793740D01*
X171115000Y-110086260D01*
X171172068Y-110373158D01*
X171284010Y-110643411D01*
X171446525Y-110886632D01*
X171653368Y-111093475D01*
X171827760Y-111210000D01*
X171653368Y-111326525D01*
X171446525Y-111533368D01*
X171284010Y-111776589D01*
X171172068Y-112046842D01*
X171115000Y-112333740D01*
X171115000Y-112626260D01*
X171135597Y-112729809D01*
X170477900Y-112072112D01*
X170477900Y-112003685D01*
X170440320Y-111814757D01*
X170366604Y-111636790D01*
X170259585Y-111476625D01*
X170123375Y-111340415D01*
X169963210Y-111233396D01*
X169785243Y-111159680D01*
X169596315Y-111122100D01*
X169403685Y-111122100D01*
X169214757Y-111159680D01*
X169050000Y-111227924D01*
X168885243Y-111159680D01*
X168696315Y-111122100D01*
X168503685Y-111122100D01*
X168314757Y-111159680D01*
X168136790Y-111233396D01*
X167976625Y-111340415D01*
X167840415Y-111476625D01*
X167733396Y-111636790D01*
X167659680Y-111814757D01*
X167622100Y-112003685D01*
X165011200Y-112003685D01*
X165011200Y-104471760D01*
X165059585Y-104423375D01*
X165166604Y-104263210D01*
X165240320Y-104085243D01*
X165277900Y-103896315D01*
X165277900Y-103703685D01*
X165265172Y-103639699D01*
X172156739Y-103639699D01*
X172176625Y-103659585D01*
X172336790Y-103766604D01*
X172514757Y-103840320D01*
X172703685Y-103877900D01*
X172896315Y-103877900D01*
X173085243Y-103840320D01*
X173263210Y-103766604D01*
X173419761Y-103662000D01*
X180080239Y-103662000D01*
X180236790Y-103766604D01*
X180414757Y-103840320D01*
X180603685Y-103877900D01*
X180796315Y-103877900D01*
X180985243Y-103840320D01*
X181163210Y-103766604D01*
X181323375Y-103659585D01*
X181459585Y-103523375D01*
X181566604Y-103363210D01*
X181640320Y-103185243D01*
X181677900Y-102996315D01*
X181677900Y-102803685D01*
X181640320Y-102614757D01*
X181566604Y-102436790D01*
X181459585Y-102276625D01*
X181323375Y-102140415D01*
X181163210Y-102033396D01*
X180985243Y-101959680D01*
X180796315Y-101922100D01*
X180603685Y-101922100D01*
X180414757Y-101959680D01*
X180236790Y-102033396D01*
X180080239Y-102138000D01*
X173419761Y-102138000D01*
X173263210Y-102033396D01*
X173085243Y-101959680D01*
X172896315Y-101922100D01*
X172703685Y-101922100D01*
X172514757Y-101959680D01*
X172336790Y-102033396D01*
X172213615Y-102115699D01*
X152959723Y-102115699D01*
X152922300Y-102112013D01*
X152884877Y-102115699D01*
X152884875Y-102115699D01*
X152772923Y-102126725D01*
X152629286Y-102170297D01*
X152496909Y-102241054D01*
X152380879Y-102336277D01*
X152357022Y-102365347D01*
X150984370Y-103738000D01*
X148219761Y-103738000D01*
X148063210Y-103633396D01*
X147885243Y-103559680D01*
X147696315Y-103522100D01*
X147503685Y-103522100D01*
X147314757Y-103559680D01*
X147136790Y-103633396D01*
X146976625Y-103740415D01*
X146840415Y-103876625D01*
X146733396Y-104036790D01*
X146659680Y-104214757D01*
X146622100Y-104403685D01*
X146622100Y-104596315D01*
X146659680Y-104785243D01*
X146733396Y-104963210D01*
X146840415Y-105123375D01*
X146976625Y-105259585D01*
X147136790Y-105366604D01*
X147314757Y-105440320D01*
X147503685Y-105477900D01*
X147696315Y-105477900D01*
X147885243Y-105440320D01*
X148063210Y-105366604D01*
X148219761Y-105262000D01*
X151262577Y-105262000D01*
X151300000Y-105265686D01*
X151337423Y-105262000D01*
X151337426Y-105262000D01*
X151449378Y-105250974D01*
X151593015Y-105207402D01*
X151725392Y-105136645D01*
X151841422Y-105041422D01*
X151865284Y-105012346D01*
X153237932Y-103639699D01*
X153530730Y-103639699D01*
X153559680Y-103785243D01*
X153633396Y-103963210D01*
X153740415Y-104123375D01*
X153788801Y-104171761D01*
X153788801Y-106725061D01*
X153614757Y-106759680D01*
X153436790Y-106833396D01*
X153300000Y-106924796D01*
X153163210Y-106833396D01*
X152985243Y-106759680D01*
X152796315Y-106722100D01*
X152603685Y-106722100D01*
X152414757Y-106759680D01*
X152236790Y-106833396D01*
X152076625Y-106940415D01*
X152050000Y-106967040D01*
X152023375Y-106940415D01*
X151863210Y-106833396D01*
X151685243Y-106759680D01*
X151496315Y-106722100D01*
X151303685Y-106722100D01*
X151114757Y-106759680D01*
X150936790Y-106833396D01*
X150776625Y-106940415D01*
X150750000Y-106967040D01*
X150723375Y-106940415D01*
X150563210Y-106833396D01*
X150385243Y-106759680D01*
X150196315Y-106722100D01*
X150003685Y-106722100D01*
X149814757Y-106759680D01*
X149636790Y-106833396D01*
X149476625Y-106940415D01*
X149340415Y-107076625D01*
X149233396Y-107236790D01*
X149159680Y-107414757D01*
X149122100Y-107603685D01*
X149122100Y-107796315D01*
X149159680Y-107985243D01*
X149233396Y-108163210D01*
X149340415Y-108323375D01*
X149355626Y-108338586D01*
X144281811Y-113412402D01*
X144254673Y-113434674D01*
X144210253Y-113488800D01*
X143583463Y-113488800D01*
X143647932Y-113333158D01*
X143705000Y-113046260D01*
X143705000Y-112753740D01*
X143647932Y-112466842D01*
X143535990Y-112196589D01*
X143373475Y-111953368D01*
X143241620Y-111821513D01*
X143314180Y-111799502D01*
X143424494Y-111740537D01*
X143521185Y-111661185D01*
X143600537Y-111564494D01*
X143659502Y-111454180D01*
X143695812Y-111334482D01*
X143708072Y-111210000D01*
X143705000Y-110645750D01*
X143546250Y-110487000D01*
X142347000Y-110487000D01*
X142347000Y-110507000D01*
X142093000Y-110507000D01*
X142093000Y-110487000D01*
X140893750Y-110487000D01*
X140735000Y-110645750D01*
X140731928Y-111210000D01*
X140744188Y-111334482D01*
X140780498Y-111454180D01*
X140839463Y-111564494D01*
X140918815Y-111661185D01*
X141015506Y-111740537D01*
X141125820Y-111799502D01*
X141198380Y-111821513D01*
X141066525Y-111953368D01*
X140904010Y-112196589D01*
X140792068Y-112466842D01*
X140735000Y-112753740D01*
X140735000Y-113046260D01*
X140792068Y-113333158D01*
X140829630Y-113423842D01*
X140311200Y-112905413D01*
X140311200Y-111794926D01*
X140314640Y-111760000D01*
X140311200Y-111725074D01*
X140311200Y-111725064D01*
X140300909Y-111620580D01*
X140260242Y-111486519D01*
X140194202Y-111362967D01*
X140170825Y-111334482D01*
X140127597Y-111281809D01*
X140127593Y-111281805D01*
X140105326Y-111254673D01*
X140078195Y-111232407D01*
X139629759Y-110783972D01*
X139685000Y-110506260D01*
X139685000Y-110213740D01*
X139627932Y-109926842D01*
X139515990Y-109656589D01*
X139418043Y-109510000D01*
X140731928Y-109510000D01*
X140735000Y-110074250D01*
X140893750Y-110233000D01*
X142093000Y-110233000D01*
X142093000Y-109033750D01*
X142347000Y-109033750D01*
X142347000Y-110233000D01*
X143546250Y-110233000D01*
X143705000Y-110074250D01*
X143708072Y-109510000D01*
X143695812Y-109385518D01*
X143659502Y-109265820D01*
X143600537Y-109155506D01*
X143521185Y-109058815D01*
X143424494Y-108979463D01*
X143314180Y-108920498D01*
X143194482Y-108884188D01*
X143070000Y-108871928D01*
X142505750Y-108875000D01*
X142347000Y-109033750D01*
X142093000Y-109033750D01*
X141934250Y-108875000D01*
X141370000Y-108871928D01*
X141245518Y-108884188D01*
X141125820Y-108920498D01*
X141015506Y-108979463D01*
X140918815Y-109058815D01*
X140839463Y-109155506D01*
X140780498Y-109265820D01*
X140744188Y-109385518D01*
X140731928Y-109510000D01*
X139418043Y-109510000D01*
X139353475Y-109413368D01*
X139146632Y-109206525D01*
X138972240Y-109090000D01*
X139146632Y-108973475D01*
X139353475Y-108766632D01*
X139515990Y-108523411D01*
X139627932Y-108253158D01*
X139685000Y-107966260D01*
X139685000Y-107673740D01*
X139627932Y-107386842D01*
X139515990Y-107116589D01*
X139353475Y-106873368D01*
X139221620Y-106741513D01*
X139294180Y-106719502D01*
X139404494Y-106660537D01*
X139501185Y-106581185D01*
X139580537Y-106484494D01*
X139639502Y-106374180D01*
X139675812Y-106254482D01*
X139688072Y-106130000D01*
X139685000Y-105565750D01*
X139526250Y-105407000D01*
X138327000Y-105407000D01*
X138327000Y-105427000D01*
X138073000Y-105427000D01*
X138073000Y-105407000D01*
X138053000Y-105407000D01*
X138053000Y-105153000D01*
X138073000Y-105153000D01*
X138073000Y-103953750D01*
X138327000Y-103953750D01*
X138327000Y-105153000D01*
X139526250Y-105153000D01*
X139685000Y-104994250D01*
X139688072Y-104430000D01*
X139675812Y-104305518D01*
X139639502Y-104185820D01*
X139580537Y-104075506D01*
X139501185Y-103978815D01*
X139404494Y-103899463D01*
X139294180Y-103840498D01*
X139174482Y-103804188D01*
X139050000Y-103791928D01*
X138485750Y-103795000D01*
X138327000Y-103953750D01*
X138073000Y-103953750D01*
X137914250Y-103795000D01*
X137350000Y-103791928D01*
X137225518Y-103804188D01*
X137105820Y-103840498D01*
X136995506Y-103899463D01*
X136898815Y-103978815D01*
X136819463Y-104075506D01*
X136760498Y-104185820D01*
X136760000Y-104187462D01*
X136760000Y-98860000D01*
X187340001Y-98860000D01*
X187340000Y-121340000D01*
G04 #@! TA.AperFunction,Conductor*
D16*
G36*
X187340000Y-121340000D02*
G01*
X161253889Y-121340000D01*
X161301185Y-121301185D01*
X161380537Y-121204494D01*
X161439502Y-121094180D01*
X161475812Y-120974482D01*
X161488072Y-120850000D01*
X161488072Y-119150000D01*
X161475812Y-119025518D01*
X161439502Y-118905820D01*
X161380537Y-118795506D01*
X161301185Y-118698815D01*
X161204494Y-118619463D01*
X161094180Y-118560498D01*
X160974482Y-118524188D01*
X160850000Y-118511928D01*
X159517716Y-118511928D01*
X158511200Y-117505413D01*
X158511200Y-113103614D01*
X158594673Y-113205326D01*
X158621811Y-113227598D01*
X161822100Y-116427888D01*
X161822100Y-116496315D01*
X161859680Y-116685243D01*
X161913694Y-116815646D01*
X161876625Y-116840415D01*
X161740415Y-116976625D01*
X161633396Y-117136790D01*
X161559680Y-117314757D01*
X161522100Y-117503685D01*
X161522100Y-117696315D01*
X161559680Y-117885243D01*
X161633396Y-118063210D01*
X161740415Y-118223375D01*
X161876625Y-118359585D01*
X162036790Y-118466604D01*
X162214757Y-118540320D01*
X162403685Y-118577900D01*
X162596315Y-118577900D01*
X162785243Y-118540320D01*
X162963210Y-118466604D01*
X163123375Y-118359585D01*
X163175783Y-118307177D01*
X163239420Y-118300909D01*
X163373481Y-118260242D01*
X163497033Y-118194202D01*
X163605327Y-118105327D01*
X163627601Y-118078186D01*
X164778200Y-116927588D01*
X164805326Y-116905327D01*
X164827588Y-116878201D01*
X164827597Y-116878192D01*
X164894202Y-116797033D01*
X164903177Y-116780242D01*
X164960242Y-116673481D01*
X165000909Y-116539420D01*
X165011200Y-116434936D01*
X165011200Y-116434927D01*
X165014640Y-116400001D01*
X165011200Y-116365075D01*
X165011200Y-112003685D01*
X167622100Y-112003685D01*
X167622100Y-112196315D01*
X167659680Y-112385243D01*
X167733396Y-112563210D01*
X167840415Y-112723375D01*
X167888800Y-112771760D01*
X167888801Y-115565064D01*
X167885360Y-115600000D01*
X167888801Y-115634936D01*
X167899092Y-115739420D01*
X167916569Y-115797033D01*
X167939759Y-115873481D01*
X168005798Y-115997032D01*
X168069785Y-116075000D01*
X168094674Y-116105327D01*
X168121810Y-116127597D01*
X170032407Y-118038196D01*
X170054673Y-118065327D01*
X170081804Y-118087593D01*
X170081809Y-118087598D01*
X170162967Y-118154202D01*
X170286518Y-118220242D01*
X170307211Y-118226519D01*
X170420580Y-118260909D01*
X170525064Y-118271200D01*
X170525071Y-118271200D01*
X170560000Y-118274640D01*
X170594928Y-118271200D01*
X171289214Y-118271200D01*
X171446525Y-118506632D01*
X171653368Y-118713475D01*
X171896589Y-118875990D01*
X172035879Y-118933686D01*
X172094674Y-119005327D01*
X172121810Y-119027597D01*
X172872402Y-119778190D01*
X172894673Y-119805327D01*
X173002967Y-119894202D01*
X173126519Y-119960242D01*
X173260580Y-120000909D01*
X173365064Y-120011200D01*
X173365071Y-120011200D01*
X173400000Y-120014640D01*
X173434928Y-120011200D01*
X179665074Y-120011200D01*
X179700000Y-120014640D01*
X179734926Y-120011200D01*
X179734936Y-120011200D01*
X179839420Y-120000909D01*
X179973481Y-119960242D01*
X180097033Y-119894202D01*
X180205327Y-119805327D01*
X180227601Y-119778186D01*
X180878200Y-119127589D01*
X180905326Y-119105327D01*
X180927588Y-119078201D01*
X180927597Y-119078192D01*
X180994201Y-118997034D01*
X180994202Y-118997033D01*
X181046244Y-118899669D01*
X181103411Y-118875990D01*
X181346632Y-118713475D01*
X181553475Y-118506632D01*
X181715990Y-118263411D01*
X181827932Y-117993158D01*
X181885000Y-117706260D01*
X181885000Y-117413740D01*
X181827932Y-117126842D01*
X181715990Y-116856589D01*
X181553475Y-116613368D01*
X181346632Y-116406525D01*
X181172240Y-116290000D01*
X181346632Y-116173475D01*
X181553475Y-115966632D01*
X181715990Y-115723411D01*
X181827932Y-115453158D01*
X181885000Y-115166260D01*
X181885000Y-114873740D01*
X181827932Y-114586842D01*
X181755179Y-114411200D01*
X184124821Y-114411200D01*
X184052068Y-114586842D01*
X183995000Y-114873740D01*
X183995000Y-115166260D01*
X184052068Y-115453158D01*
X184164010Y-115723411D01*
X184326525Y-115966632D01*
X184533368Y-116173475D01*
X184707760Y-116290000D01*
X184533368Y-116406525D01*
X184326525Y-116613368D01*
X184164010Y-116856589D01*
X184052068Y-117126842D01*
X183995000Y-117413740D01*
X183995000Y-117706260D01*
X184052068Y-117993158D01*
X184164010Y-118263411D01*
X184326525Y-118506632D01*
X184533368Y-118713475D01*
X184776589Y-118875990D01*
X185046842Y-118987932D01*
X185333740Y-119045000D01*
X185626260Y-119045000D01*
X185913158Y-118987932D01*
X186183411Y-118875990D01*
X186426632Y-118713475D01*
X186633475Y-118506632D01*
X186795990Y-118263411D01*
X186907932Y-117993158D01*
X186965000Y-117706260D01*
X186965000Y-117413740D01*
X186907932Y-117126842D01*
X186795990Y-116856589D01*
X186633475Y-116613368D01*
X186426632Y-116406525D01*
X186252240Y-116290000D01*
X186426632Y-116173475D01*
X186633475Y-115966632D01*
X186795990Y-115723411D01*
X186907932Y-115453158D01*
X186965000Y-115166260D01*
X186965000Y-114873740D01*
X186907932Y-114586842D01*
X186795990Y-114316589D01*
X186633475Y-114073368D01*
X186426632Y-113866525D01*
X186252240Y-113750000D01*
X186426632Y-113633475D01*
X186633475Y-113426632D01*
X186795990Y-113183411D01*
X186907932Y-112913158D01*
X186965000Y-112626260D01*
X186965000Y-112333740D01*
X186907932Y-112046842D01*
X186795990Y-111776589D01*
X186633475Y-111533368D01*
X186426632Y-111326525D01*
X186252240Y-111210000D01*
X186426632Y-111093475D01*
X186633475Y-110886632D01*
X186795990Y-110643411D01*
X186907932Y-110373158D01*
X186965000Y-110086260D01*
X186965000Y-109793740D01*
X186907932Y-109506842D01*
X186795990Y-109236589D01*
X186633475Y-108993368D01*
X186501620Y-108861513D01*
X186574180Y-108839502D01*
X186684494Y-108780537D01*
X186781185Y-108701185D01*
X186860537Y-108604494D01*
X186919502Y-108494180D01*
X186955812Y-108374482D01*
X186968072Y-108250000D01*
X186968072Y-106550000D01*
X186955812Y-106425518D01*
X186919502Y-106305820D01*
X186860537Y-106195506D01*
X186781185Y-106098815D01*
X186684494Y-106019463D01*
X186574180Y-105960498D01*
X186454482Y-105924188D01*
X186330000Y-105911928D01*
X184630000Y-105911928D01*
X184505518Y-105924188D01*
X184385820Y-105960498D01*
X184275506Y-106019463D01*
X184178815Y-106098815D01*
X184099463Y-106195506D01*
X184040498Y-106305820D01*
X184004188Y-106425518D01*
X183991928Y-106550000D01*
X183991928Y-107767401D01*
X181888072Y-107767401D01*
X181888072Y-106550000D01*
X181875812Y-106425518D01*
X181839502Y-106305820D01*
X181780537Y-106195506D01*
X181701185Y-106098815D01*
X181604494Y-106019463D01*
X181494180Y-105960498D01*
X181374482Y-105924188D01*
X181250000Y-105911928D01*
X179550000Y-105911928D01*
X179425518Y-105924188D01*
X179305820Y-105960498D01*
X179195506Y-106019463D01*
X179098815Y-106098815D01*
X179040000Y-106170482D01*
X178981185Y-106098815D01*
X178884494Y-106019463D01*
X178774180Y-105960498D01*
X178654482Y-105924188D01*
X178530000Y-105911928D01*
X176830000Y-105911928D01*
X176705518Y-105924188D01*
X176585820Y-105960498D01*
X176475506Y-106019463D01*
X176378815Y-106098815D01*
X176299463Y-106195506D01*
X176240498Y-106305820D01*
X176204188Y-106425518D01*
X176191928Y-106550000D01*
X176191928Y-107767401D01*
X174088072Y-107767401D01*
X174088072Y-106550000D01*
X174075812Y-106425518D01*
X174039502Y-106305820D01*
X173980537Y-106195506D01*
X173901185Y-106098815D01*
X173804494Y-106019463D01*
X173694180Y-105960498D01*
X173574482Y-105924188D01*
X173450000Y-105911928D01*
X171750000Y-105911928D01*
X171625518Y-105924188D01*
X171505820Y-105960498D01*
X171395506Y-106019463D01*
X171298815Y-106098815D01*
X171219463Y-106195506D01*
X171160498Y-106305820D01*
X171124188Y-106425518D01*
X171111928Y-106550000D01*
X171111928Y-107506140D01*
X170177900Y-106572113D01*
X170177900Y-106503685D01*
X170140320Y-106314757D01*
X170066604Y-106136790D01*
X169959585Y-105976625D01*
X169823375Y-105840415D01*
X169663210Y-105733396D01*
X169485243Y-105659680D01*
X169296315Y-105622100D01*
X169103685Y-105622100D01*
X168914757Y-105659680D01*
X168736790Y-105733396D01*
X168576625Y-105840415D01*
X168440415Y-105976625D01*
X168333396Y-106136790D01*
X168259680Y-106314757D01*
X168222100Y-106503685D01*
X168222100Y-106696315D01*
X168259680Y-106885243D01*
X168333396Y-107063210D01*
X168440415Y-107223375D01*
X168576625Y-107359585D01*
X168736790Y-107466604D01*
X168829573Y-107505036D01*
X168776625Y-107540415D01*
X168640415Y-107676625D01*
X168533396Y-107836790D01*
X168459680Y-108014757D01*
X168422100Y-108203685D01*
X168422100Y-108396315D01*
X168459680Y-108585243D01*
X168533396Y-108763210D01*
X168640415Y-108923375D01*
X168776625Y-109059585D01*
X168936790Y-109166604D01*
X169114757Y-109240320D01*
X169303685Y-109277900D01*
X169372112Y-109277900D01*
X169433801Y-109339589D01*
X169456072Y-109366726D01*
X169564366Y-109455601D01*
X169687918Y-109521641D01*
X169821979Y-109562308D01*
X169926463Y-109572599D01*
X169926472Y-109572599D01*
X169961398Y-109576039D01*
X169996324Y-109572599D01*
X171158988Y-109572599D01*
X171115000Y-109793740D01*
X171115000Y-110086260D01*
X171172068Y-110373158D01*
X171284010Y-110643411D01*
X171446525Y-110886632D01*
X171653368Y-111093475D01*
X171827760Y-111210000D01*
X171653368Y-111326525D01*
X171446525Y-111533368D01*
X171284010Y-111776589D01*
X171172068Y-112046842D01*
X171115000Y-112333740D01*
X171115000Y-112626260D01*
X171135597Y-112729809D01*
X170477900Y-112072112D01*
X170477900Y-112003685D01*
X170440320Y-111814757D01*
X170366604Y-111636790D01*
X170259585Y-111476625D01*
X170123375Y-111340415D01*
X169963210Y-111233396D01*
X169785243Y-111159680D01*
X169596315Y-111122100D01*
X169403685Y-111122100D01*
X169214757Y-111159680D01*
X169050000Y-111227924D01*
X168885243Y-111159680D01*
X168696315Y-111122100D01*
X168503685Y-111122100D01*
X168314757Y-111159680D01*
X168136790Y-111233396D01*
X167976625Y-111340415D01*
X167840415Y-111476625D01*
X167733396Y-111636790D01*
X167659680Y-111814757D01*
X167622100Y-112003685D01*
X165011200Y-112003685D01*
X165011200Y-104471760D01*
X165059585Y-104423375D01*
X165166604Y-104263210D01*
X165240320Y-104085243D01*
X165277900Y-103896315D01*
X165277900Y-103703685D01*
X165265172Y-103639699D01*
X172156739Y-103639699D01*
X172176625Y-103659585D01*
X172336790Y-103766604D01*
X172514757Y-103840320D01*
X172703685Y-103877900D01*
X172896315Y-103877900D01*
X173085243Y-103840320D01*
X173263210Y-103766604D01*
X173419761Y-103662000D01*
X180080239Y-103662000D01*
X180236790Y-103766604D01*
X180414757Y-103840320D01*
X180603685Y-103877900D01*
X180796315Y-103877900D01*
X180985243Y-103840320D01*
X181163210Y-103766604D01*
X181323375Y-103659585D01*
X181459585Y-103523375D01*
X181566604Y-103363210D01*
X181640320Y-103185243D01*
X181677900Y-102996315D01*
X181677900Y-102803685D01*
X181640320Y-102614757D01*
X181566604Y-102436790D01*
X181459585Y-102276625D01*
X181323375Y-102140415D01*
X181163210Y-102033396D01*
X180985243Y-101959680D01*
X180796315Y-101922100D01*
X180603685Y-101922100D01*
X180414757Y-101959680D01*
X180236790Y-102033396D01*
X180080239Y-102138000D01*
X173419761Y-102138000D01*
X173263210Y-102033396D01*
X173085243Y-101959680D01*
X172896315Y-101922100D01*
X172703685Y-101922100D01*
X172514757Y-101959680D01*
X172336790Y-102033396D01*
X172213615Y-102115699D01*
X152959723Y-102115699D01*
X152922300Y-102112013D01*
X152884877Y-102115699D01*
X152884875Y-102115699D01*
X152772923Y-102126725D01*
X152629286Y-102170297D01*
X152496909Y-102241054D01*
X152380879Y-102336277D01*
X152357022Y-102365347D01*
X150984370Y-103738000D01*
X148219761Y-103738000D01*
X148063210Y-103633396D01*
X147885243Y-103559680D01*
X147696315Y-103522100D01*
X147503685Y-103522100D01*
X147314757Y-103559680D01*
X147136790Y-103633396D01*
X146976625Y-103740415D01*
X146840415Y-103876625D01*
X146733396Y-104036790D01*
X146659680Y-104214757D01*
X146622100Y-104403685D01*
X146622100Y-104596315D01*
X146659680Y-104785243D01*
X146733396Y-104963210D01*
X146840415Y-105123375D01*
X146976625Y-105259585D01*
X147136790Y-105366604D01*
X147314757Y-105440320D01*
X147503685Y-105477900D01*
X147696315Y-105477900D01*
X147885243Y-105440320D01*
X148063210Y-105366604D01*
X148219761Y-105262000D01*
X151262577Y-105262000D01*
X151300000Y-105265686D01*
X151337423Y-105262000D01*
X151337426Y-105262000D01*
X151449378Y-105250974D01*
X151593015Y-105207402D01*
X151725392Y-105136645D01*
X151841422Y-105041422D01*
X151865284Y-105012346D01*
X153237932Y-103639699D01*
X153530730Y-103639699D01*
X153559680Y-103785243D01*
X153633396Y-103963210D01*
X153740415Y-104123375D01*
X153788801Y-104171761D01*
X153788801Y-106725061D01*
X153614757Y-106759680D01*
X153436790Y-106833396D01*
X153300000Y-106924796D01*
X153163210Y-106833396D01*
X152985243Y-106759680D01*
X152796315Y-106722100D01*
X152603685Y-106722100D01*
X152414757Y-106759680D01*
X152236790Y-106833396D01*
X152076625Y-106940415D01*
X152050000Y-106967040D01*
X152023375Y-106940415D01*
X151863210Y-106833396D01*
X151685243Y-106759680D01*
X151496315Y-106722100D01*
X151303685Y-106722100D01*
X151114757Y-106759680D01*
X150936790Y-106833396D01*
X150776625Y-106940415D01*
X150750000Y-106967040D01*
X150723375Y-106940415D01*
X150563210Y-106833396D01*
X150385243Y-106759680D01*
X150196315Y-106722100D01*
X150003685Y-106722100D01*
X149814757Y-106759680D01*
X149636790Y-106833396D01*
X149476625Y-106940415D01*
X149340415Y-107076625D01*
X149233396Y-107236790D01*
X149159680Y-107414757D01*
X149122100Y-107603685D01*
X149122100Y-107796315D01*
X149159680Y-107985243D01*
X149233396Y-108163210D01*
X149340415Y-108323375D01*
X149355626Y-108338586D01*
X144281811Y-113412402D01*
X144254673Y-113434674D01*
X144210253Y-113488800D01*
X143583463Y-113488800D01*
X143647932Y-113333158D01*
X143705000Y-113046260D01*
X143705000Y-112753740D01*
X143647932Y-112466842D01*
X143535990Y-112196589D01*
X143373475Y-111953368D01*
X143241620Y-111821513D01*
X143314180Y-111799502D01*
X143424494Y-111740537D01*
X143521185Y-111661185D01*
X143600537Y-111564494D01*
X143659502Y-111454180D01*
X143695812Y-111334482D01*
X143708072Y-111210000D01*
X143705000Y-110645750D01*
X143546250Y-110487000D01*
X142347000Y-110487000D01*
X142347000Y-110507000D01*
X142093000Y-110507000D01*
X142093000Y-110487000D01*
X140893750Y-110487000D01*
X140735000Y-110645750D01*
X140731928Y-111210000D01*
X140744188Y-111334482D01*
X140780498Y-111454180D01*
X140839463Y-111564494D01*
X140918815Y-111661185D01*
X141015506Y-111740537D01*
X141125820Y-111799502D01*
X141198380Y-111821513D01*
X141066525Y-111953368D01*
X140904010Y-112196589D01*
X140792068Y-112466842D01*
X140735000Y-112753740D01*
X140735000Y-113046260D01*
X140792068Y-113333158D01*
X140829630Y-113423842D01*
X140311200Y-112905413D01*
X140311200Y-111794926D01*
X140314640Y-111760000D01*
X140311200Y-111725074D01*
X140311200Y-111725064D01*
X140300909Y-111620580D01*
X140260242Y-111486519D01*
X140194202Y-111362967D01*
X140170825Y-111334482D01*
X140127597Y-111281809D01*
X140127593Y-111281805D01*
X140105326Y-111254673D01*
X140078195Y-111232407D01*
X139629759Y-110783972D01*
X139685000Y-110506260D01*
X139685000Y-110213740D01*
X139627932Y-109926842D01*
X139515990Y-109656589D01*
X139418043Y-109510000D01*
X140731928Y-109510000D01*
X140735000Y-110074250D01*
X140893750Y-110233000D01*
X142093000Y-110233000D01*
X142093000Y-109033750D01*
X142347000Y-109033750D01*
X142347000Y-110233000D01*
X143546250Y-110233000D01*
X143705000Y-110074250D01*
X143708072Y-109510000D01*
X143695812Y-109385518D01*
X143659502Y-109265820D01*
X143600537Y-109155506D01*
X143521185Y-109058815D01*
X143424494Y-108979463D01*
X143314180Y-108920498D01*
X143194482Y-108884188D01*
X143070000Y-108871928D01*
X142505750Y-108875000D01*
X142347000Y-109033750D01*
X142093000Y-109033750D01*
X141934250Y-108875000D01*
X141370000Y-108871928D01*
X141245518Y-108884188D01*
X141125820Y-108920498D01*
X141015506Y-108979463D01*
X140918815Y-109058815D01*
X140839463Y-109155506D01*
X140780498Y-109265820D01*
X140744188Y-109385518D01*
X140731928Y-109510000D01*
X139418043Y-109510000D01*
X139353475Y-109413368D01*
X139146632Y-109206525D01*
X138972240Y-109090000D01*
X139146632Y-108973475D01*
X139353475Y-108766632D01*
X139515990Y-108523411D01*
X139627932Y-108253158D01*
X139685000Y-107966260D01*
X139685000Y-107673740D01*
X139627932Y-107386842D01*
X139515990Y-107116589D01*
X139353475Y-106873368D01*
X139221620Y-106741513D01*
X139294180Y-106719502D01*
X139404494Y-106660537D01*
X139501185Y-106581185D01*
X139580537Y-106484494D01*
X139639502Y-106374180D01*
X139675812Y-106254482D01*
X139688072Y-106130000D01*
X139685000Y-105565750D01*
X139526250Y-105407000D01*
X138327000Y-105407000D01*
X138327000Y-105427000D01*
X138073000Y-105427000D01*
X138073000Y-105407000D01*
X138053000Y-105407000D01*
X138053000Y-105153000D01*
X138073000Y-105153000D01*
X138073000Y-103953750D01*
X138327000Y-103953750D01*
X138327000Y-105153000D01*
X139526250Y-105153000D01*
X139685000Y-104994250D01*
X139688072Y-104430000D01*
X139675812Y-104305518D01*
X139639502Y-104185820D01*
X139580537Y-104075506D01*
X139501185Y-103978815D01*
X139404494Y-103899463D01*
X139294180Y-103840498D01*
X139174482Y-103804188D01*
X139050000Y-103791928D01*
X138485750Y-103795000D01*
X138327000Y-103953750D01*
X138073000Y-103953750D01*
X137914250Y-103795000D01*
X137350000Y-103791928D01*
X137225518Y-103804188D01*
X137105820Y-103840498D01*
X136995506Y-103899463D01*
X136898815Y-103978815D01*
X136819463Y-104075506D01*
X136760498Y-104185820D01*
X136760000Y-104187462D01*
X136760000Y-98860000D01*
X187340001Y-98860000D01*
X187340000Y-121340000D01*
G37*
G04 #@! TD.AperFunction*
G04 #@! TD*
M02*
