%TF.GenerationSoftware,KiCad,Pcbnew,5.1.9-73d0e3b20d~88~ubuntu20.04.1*%
%TF.CreationDate,2021-03-07T16:38:01-05:00*%
%TF.ProjectId,hexdisplay8,68657864-6973-4706-9c61-79382e6b6963,rev?*%
%TF.SameCoordinates,Original*%
%TF.FileFunction,Legend,Top*%
%TF.FilePolarity,Positive*%
%FSLAX46Y46*%
G04 Gerber Fmt 4.6, Leading zero omitted, Abs format (unit mm)*
G04 Created by KiCad (PCBNEW 5.1.9-73d0e3b20d~88~ubuntu20.04.1) date 2021-03-07 16:38:01*
%MOMM*%
%LPD*%
G01*
G04 APERTURE LIST*
%ADD10C,0.150000*%
%ADD11C,0.120000*%
G04 APERTURE END LIST*
D10*
X140371428Y-118942857D02*
X139771428Y-118942857D01*
X140200000Y-118742857D01*
X139771428Y-118542857D01*
X140371428Y-118542857D01*
X139771428Y-118142857D02*
X139771428Y-118028571D01*
X139800000Y-117971428D01*
X139857142Y-117914285D01*
X139971428Y-117885714D01*
X140171428Y-117885714D01*
X140285714Y-117914285D01*
X140342857Y-117971428D01*
X140371428Y-118028571D01*
X140371428Y-118142857D01*
X140342857Y-118200000D01*
X140285714Y-118257142D01*
X140171428Y-118285714D01*
X139971428Y-118285714D01*
X139857142Y-118257142D01*
X139800000Y-118200000D01*
X139771428Y-118142857D01*
X140342857Y-117657142D02*
X140371428Y-117571428D01*
X140371428Y-117428571D01*
X140342857Y-117371428D01*
X140314285Y-117342857D01*
X140257142Y-117314285D01*
X140200000Y-117314285D01*
X140142857Y-117342857D01*
X140114285Y-117371428D01*
X140085714Y-117428571D01*
X140057142Y-117542857D01*
X140028571Y-117600000D01*
X140000000Y-117628571D01*
X139942857Y-117657142D01*
X139885714Y-117657142D01*
X139828571Y-117628571D01*
X139800000Y-117600000D01*
X139771428Y-117542857D01*
X139771428Y-117400000D01*
X139800000Y-117314285D01*
X140371428Y-117057142D02*
X139771428Y-117057142D01*
X140371428Y-115728571D02*
X140085714Y-115928571D01*
X140371428Y-116071428D02*
X139771428Y-116071428D01*
X139771428Y-115842857D01*
X139800000Y-115785714D01*
X139828571Y-115757142D01*
X139885714Y-115728571D01*
X139971428Y-115728571D01*
X140028571Y-115757142D01*
X140057142Y-115785714D01*
X140085714Y-115842857D01*
X140085714Y-116071428D01*
X140342857Y-115500000D02*
X140371428Y-115414285D01*
X140371428Y-115271428D01*
X140342857Y-115214285D01*
X140314285Y-115185714D01*
X140257142Y-115157142D01*
X140200000Y-115157142D01*
X140142857Y-115185714D01*
X140114285Y-115214285D01*
X140085714Y-115271428D01*
X140057142Y-115385714D01*
X140028571Y-115442857D01*
X140000000Y-115471428D01*
X139942857Y-115500000D01*
X139885714Y-115500000D01*
X139828571Y-115471428D01*
X139800000Y-115442857D01*
X139771428Y-115385714D01*
X139771428Y-115242857D01*
X139800000Y-115157142D01*
X139771428Y-114985714D02*
X139771428Y-114642857D01*
X140371428Y-114814285D02*
X139771428Y-114814285D01*
X140342857Y-113771428D02*
X140371428Y-113685714D01*
X140371428Y-113542857D01*
X140342857Y-113485714D01*
X140314285Y-113457142D01*
X140257142Y-113428571D01*
X140200000Y-113428571D01*
X140142857Y-113457142D01*
X140114285Y-113485714D01*
X140085714Y-113542857D01*
X140057142Y-113657142D01*
X140028571Y-113714285D01*
X140000000Y-113742857D01*
X139942857Y-113771428D01*
X139885714Y-113771428D01*
X139828571Y-113742857D01*
X139800000Y-113714285D01*
X139771428Y-113657142D01*
X139771428Y-113514285D01*
X139800000Y-113428571D01*
X140314285Y-112828571D02*
X140342857Y-112857142D01*
X140371428Y-112942857D01*
X140371428Y-113000000D01*
X140342857Y-113085714D01*
X140285714Y-113142857D01*
X140228571Y-113171428D01*
X140114285Y-113200000D01*
X140028571Y-113200000D01*
X139914285Y-113171428D01*
X139857142Y-113142857D01*
X139800000Y-113085714D01*
X139771428Y-113000000D01*
X139771428Y-112942857D01*
X139800000Y-112857142D01*
X139828571Y-112828571D01*
X140371428Y-112571428D02*
X139771428Y-112571428D01*
X140371428Y-112228571D02*
X140028571Y-112485714D01*
X139771428Y-112228571D02*
X140114285Y-112571428D01*
X140371428Y-111342857D02*
X139771428Y-111342857D01*
X140200000Y-111142857D01*
X139771428Y-110942857D01*
X140371428Y-110942857D01*
X140371428Y-110657142D02*
X139771428Y-110657142D01*
X140342857Y-110400000D02*
X140371428Y-110314285D01*
X140371428Y-110171428D01*
X140342857Y-110114285D01*
X140314285Y-110085714D01*
X140257142Y-110057142D01*
X140200000Y-110057142D01*
X140142857Y-110085714D01*
X140114285Y-110114285D01*
X140085714Y-110171428D01*
X140057142Y-110285714D01*
X140028571Y-110342857D01*
X140000000Y-110371428D01*
X139942857Y-110400000D01*
X139885714Y-110400000D01*
X139828571Y-110371428D01*
X139800000Y-110342857D01*
X139771428Y-110285714D01*
X139771428Y-110142857D01*
X139800000Y-110057142D01*
X139771428Y-109685714D02*
X139771428Y-109571428D01*
X139800000Y-109514285D01*
X139857142Y-109457142D01*
X139971428Y-109428571D01*
X140171428Y-109428571D01*
X140285714Y-109457142D01*
X140342857Y-109514285D01*
X140371428Y-109571428D01*
X140371428Y-109685714D01*
X140342857Y-109742857D01*
X140285714Y-109800000D01*
X140171428Y-109828571D01*
X139971428Y-109828571D01*
X139857142Y-109800000D01*
X139800000Y-109742857D01*
X139771428Y-109685714D01*
X139771428Y-108500000D02*
X140371428Y-108300000D01*
X139771428Y-108100000D01*
X140314285Y-107557142D02*
X140342857Y-107585714D01*
X140371428Y-107671428D01*
X140371428Y-107728571D01*
X140342857Y-107814285D01*
X140285714Y-107871428D01*
X140228571Y-107900000D01*
X140114285Y-107928571D01*
X140028571Y-107928571D01*
X139914285Y-107900000D01*
X139857142Y-107871428D01*
X139800000Y-107814285D01*
X139771428Y-107728571D01*
X139771428Y-107671428D01*
X139800000Y-107585714D01*
X139828571Y-107557142D01*
X140314285Y-106957142D02*
X140342857Y-106985714D01*
X140371428Y-107071428D01*
X140371428Y-107128571D01*
X140342857Y-107214285D01*
X140285714Y-107271428D01*
X140228571Y-107300000D01*
X140114285Y-107328571D01*
X140028571Y-107328571D01*
X139914285Y-107300000D01*
X139857142Y-107271428D01*
X139800000Y-107214285D01*
X139771428Y-107128571D01*
X139771428Y-107071428D01*
X139800000Y-106985714D01*
X139828571Y-106957142D01*
X139800000Y-105757142D02*
X139771428Y-105814285D01*
X139771428Y-105900000D01*
X139800000Y-105985714D01*
X139857142Y-106042857D01*
X139914285Y-106071428D01*
X140028571Y-106100000D01*
X140114285Y-106100000D01*
X140228571Y-106071428D01*
X140285714Y-106042857D01*
X140342857Y-105985714D01*
X140371428Y-105900000D01*
X140371428Y-105842857D01*
X140342857Y-105757142D01*
X140314285Y-105728571D01*
X140114285Y-105728571D01*
X140114285Y-105842857D01*
X140371428Y-105471428D02*
X139771428Y-105471428D01*
X140371428Y-105128571D01*
X139771428Y-105128571D01*
X140371428Y-104842857D02*
X139771428Y-104842857D01*
X139771428Y-104700000D01*
X139800000Y-104614285D01*
X139857142Y-104557142D01*
X139914285Y-104528571D01*
X140028571Y-104500000D01*
X140114285Y-104500000D01*
X140228571Y-104528571D01*
X140285714Y-104557142D01*
X140342857Y-104614285D01*
X140371428Y-104700000D01*
X140371428Y-104842857D01*
X159546428Y-118439285D02*
X159546428Y-117689285D01*
X159725000Y-117689285D01*
X159832142Y-117725000D01*
X159903571Y-117796428D01*
X159939285Y-117867857D01*
X159975000Y-118010714D01*
X159975000Y-118117857D01*
X159939285Y-118260714D01*
X159903571Y-118332142D01*
X159832142Y-118403571D01*
X159725000Y-118439285D01*
X159546428Y-118439285D01*
X160439285Y-117689285D02*
X160510714Y-117689285D01*
X160582142Y-117725000D01*
X160617857Y-117760714D01*
X160653571Y-117832142D01*
X160689285Y-117975000D01*
X160689285Y-118153571D01*
X160653571Y-118296428D01*
X160617857Y-118367857D01*
X160582142Y-118403571D01*
X160510714Y-118439285D01*
X160439285Y-118439285D01*
X160367857Y-118403571D01*
X160332142Y-118367857D01*
X160296428Y-118296428D01*
X160260714Y-118153571D01*
X160260714Y-117975000D01*
X160296428Y-117832142D01*
X160332142Y-117760714D01*
X160367857Y-117725000D01*
X160439285Y-117689285D01*
X141746428Y-118439285D02*
X141746428Y-117689285D01*
X141925000Y-117689285D01*
X142032142Y-117725000D01*
X142103571Y-117796428D01*
X142139285Y-117867857D01*
X142175000Y-118010714D01*
X142175000Y-118117857D01*
X142139285Y-118260714D01*
X142103571Y-118332142D01*
X142032142Y-118403571D01*
X141925000Y-118439285D01*
X141746428Y-118439285D01*
X142425000Y-117689285D02*
X142925000Y-117689285D01*
X142603571Y-118439285D01*
X137276071Y-99601785D02*
X137276071Y-98851785D01*
X137597500Y-99601785D02*
X137597500Y-99208928D01*
X137561785Y-99137500D01*
X137490357Y-99101785D01*
X137383214Y-99101785D01*
X137311785Y-99137500D01*
X137276071Y-99173214D01*
X137847500Y-99101785D02*
X138133214Y-99101785D01*
X137954642Y-98851785D02*
X137954642Y-99494642D01*
X137990357Y-99566071D01*
X138061785Y-99601785D01*
X138133214Y-99601785D01*
X138276071Y-99101785D02*
X138561785Y-99101785D01*
X138383214Y-98851785D02*
X138383214Y-99494642D01*
X138418928Y-99566071D01*
X138490357Y-99601785D01*
X138561785Y-99601785D01*
X138811785Y-99101785D02*
X138811785Y-99851785D01*
X138811785Y-99137500D02*
X138883214Y-99101785D01*
X139026071Y-99101785D01*
X139097500Y-99137500D01*
X139133214Y-99173214D01*
X139168928Y-99244642D01*
X139168928Y-99458928D01*
X139133214Y-99530357D01*
X139097500Y-99566071D01*
X139026071Y-99601785D01*
X138883214Y-99601785D01*
X138811785Y-99566071D01*
X139454642Y-99566071D02*
X139526071Y-99601785D01*
X139668928Y-99601785D01*
X139740357Y-99566071D01*
X139776071Y-99494642D01*
X139776071Y-99458928D01*
X139740357Y-99387500D01*
X139668928Y-99351785D01*
X139561785Y-99351785D01*
X139490357Y-99316071D01*
X139454642Y-99244642D01*
X139454642Y-99208928D01*
X139490357Y-99137500D01*
X139561785Y-99101785D01*
X139668928Y-99101785D01*
X139740357Y-99137500D01*
X140097500Y-99530357D02*
X140133214Y-99566071D01*
X140097500Y-99601785D01*
X140061785Y-99566071D01*
X140097500Y-99530357D01*
X140097500Y-99601785D01*
X140097500Y-99137500D02*
X140133214Y-99173214D01*
X140097500Y-99208928D01*
X140061785Y-99173214D01*
X140097500Y-99137500D01*
X140097500Y-99208928D01*
X140990357Y-98816071D02*
X140347500Y-99780357D01*
X141776071Y-98816071D02*
X141133214Y-99780357D01*
X142347500Y-99101785D02*
X142347500Y-99708928D01*
X142311785Y-99780357D01*
X142276071Y-99816071D01*
X142204642Y-99851785D01*
X142097500Y-99851785D01*
X142026071Y-99816071D01*
X142347500Y-99566071D02*
X142276071Y-99601785D01*
X142133214Y-99601785D01*
X142061785Y-99566071D01*
X142026071Y-99530357D01*
X141990357Y-99458928D01*
X141990357Y-99244642D01*
X142026071Y-99173214D01*
X142061785Y-99137500D01*
X142133214Y-99101785D01*
X142276071Y-99101785D01*
X142347500Y-99137500D01*
X142704642Y-99601785D02*
X142704642Y-99101785D01*
X142704642Y-98851785D02*
X142668928Y-98887500D01*
X142704642Y-98923214D01*
X142740357Y-98887500D01*
X142704642Y-98851785D01*
X142704642Y-98923214D01*
X142954642Y-99101785D02*
X143240357Y-99101785D01*
X143061785Y-98851785D02*
X143061785Y-99494642D01*
X143097500Y-99566071D01*
X143168928Y-99601785D01*
X143240357Y-99601785D01*
X143490357Y-99601785D02*
X143490357Y-98851785D01*
X143811785Y-99601785D02*
X143811785Y-99208928D01*
X143776071Y-99137500D01*
X143704642Y-99101785D01*
X143597500Y-99101785D01*
X143526071Y-99137500D01*
X143490357Y-99173214D01*
X144490357Y-99101785D02*
X144490357Y-99601785D01*
X144168928Y-99101785D02*
X144168928Y-99494642D01*
X144204642Y-99566071D01*
X144276071Y-99601785D01*
X144383214Y-99601785D01*
X144454642Y-99566071D01*
X144490357Y-99530357D01*
X144847500Y-99601785D02*
X144847500Y-98851785D01*
X144847500Y-99137500D02*
X144918928Y-99101785D01*
X145061785Y-99101785D01*
X145133214Y-99137500D01*
X145168928Y-99173214D01*
X145204642Y-99244642D01*
X145204642Y-99458928D01*
X145168928Y-99530357D01*
X145133214Y-99566071D01*
X145061785Y-99601785D01*
X144918928Y-99601785D01*
X144847500Y-99566071D01*
X145526071Y-99530357D02*
X145561785Y-99566071D01*
X145526071Y-99601785D01*
X145490357Y-99566071D01*
X145526071Y-99530357D01*
X145526071Y-99601785D01*
X146204642Y-99566071D02*
X146133214Y-99601785D01*
X145990357Y-99601785D01*
X145918928Y-99566071D01*
X145883214Y-99530357D01*
X145847500Y-99458928D01*
X145847500Y-99244642D01*
X145883214Y-99173214D01*
X145918928Y-99137500D01*
X145990357Y-99101785D01*
X146133214Y-99101785D01*
X146204642Y-99137500D01*
X146633214Y-99601785D02*
X146561785Y-99566071D01*
X146526071Y-99530357D01*
X146490357Y-99458928D01*
X146490357Y-99244642D01*
X146526071Y-99173214D01*
X146561785Y-99137500D01*
X146633214Y-99101785D01*
X146740357Y-99101785D01*
X146811785Y-99137500D01*
X146847500Y-99173214D01*
X146883214Y-99244642D01*
X146883214Y-99458928D01*
X146847500Y-99530357D01*
X146811785Y-99566071D01*
X146740357Y-99601785D01*
X146633214Y-99601785D01*
X147204642Y-99601785D02*
X147204642Y-99101785D01*
X147204642Y-99173214D02*
X147240357Y-99137500D01*
X147311785Y-99101785D01*
X147418928Y-99101785D01*
X147490357Y-99137500D01*
X147526071Y-99208928D01*
X147526071Y-99601785D01*
X147526071Y-99208928D02*
X147561785Y-99137500D01*
X147633214Y-99101785D01*
X147740357Y-99101785D01*
X147811785Y-99137500D01*
X147847500Y-99208928D01*
X147847500Y-99601785D01*
X148740357Y-98816071D02*
X148097500Y-99780357D01*
X149311785Y-99601785D02*
X149311785Y-98851785D01*
X149311785Y-99566071D02*
X149240357Y-99601785D01*
X149097500Y-99601785D01*
X149026071Y-99566071D01*
X148990357Y-99530357D01*
X148954642Y-99458928D01*
X148954642Y-99244642D01*
X148990357Y-99173214D01*
X149026071Y-99137500D01*
X149097500Y-99101785D01*
X149240357Y-99101785D01*
X149311785Y-99137500D01*
X149990357Y-99601785D02*
X149990357Y-99208928D01*
X149954642Y-99137500D01*
X149883214Y-99101785D01*
X149740357Y-99101785D01*
X149668928Y-99137500D01*
X149990357Y-99566071D02*
X149918928Y-99601785D01*
X149740357Y-99601785D01*
X149668928Y-99566071D01*
X149633214Y-99494642D01*
X149633214Y-99423214D01*
X149668928Y-99351785D01*
X149740357Y-99316071D01*
X149918928Y-99316071D01*
X149990357Y-99280357D01*
X150276071Y-99101785D02*
X150454642Y-99601785D01*
X150633214Y-99101785D01*
X151204642Y-99566071D02*
X151133214Y-99601785D01*
X150990357Y-99601785D01*
X150918928Y-99566071D01*
X150883214Y-99494642D01*
X150883214Y-99208928D01*
X150918928Y-99137500D01*
X150990357Y-99101785D01*
X151133214Y-99101785D01*
X151204642Y-99137500D01*
X151240357Y-99208928D01*
X151240357Y-99280357D01*
X150883214Y-99351785D01*
X151561785Y-99601785D02*
X151561785Y-98851785D01*
X151883214Y-99601785D02*
X151883214Y-99208928D01*
X151847500Y-99137500D01*
X151776071Y-99101785D01*
X151668928Y-99101785D01*
X151597500Y-99137500D01*
X151561785Y-99173214D01*
X152347500Y-99601785D02*
X152276071Y-99566071D01*
X152240357Y-99530357D01*
X152204642Y-99458928D01*
X152204642Y-99244642D01*
X152240357Y-99173214D01*
X152276071Y-99137500D01*
X152347500Y-99101785D01*
X152454642Y-99101785D01*
X152526071Y-99137500D01*
X152561785Y-99173214D01*
X152597500Y-99244642D01*
X152597500Y-99458928D01*
X152561785Y-99530357D01*
X152526071Y-99566071D01*
X152454642Y-99601785D01*
X152347500Y-99601785D01*
X153454642Y-98816071D02*
X152811785Y-99780357D01*
X154133214Y-99601785D02*
X153883214Y-99244642D01*
X153704642Y-99601785D02*
X153704642Y-98851785D01*
X153990357Y-98851785D01*
X154061785Y-98887500D01*
X154097500Y-98923214D01*
X154133214Y-98994642D01*
X154133214Y-99101785D01*
X154097500Y-99173214D01*
X154061785Y-99208928D01*
X153990357Y-99244642D01*
X153704642Y-99244642D01*
X154776071Y-99601785D02*
X154776071Y-99208928D01*
X154740357Y-99137500D01*
X154668928Y-99101785D01*
X154526071Y-99101785D01*
X154454642Y-99137500D01*
X154776071Y-99566071D02*
X154704642Y-99601785D01*
X154526071Y-99601785D01*
X154454642Y-99566071D01*
X154418928Y-99494642D01*
X154418928Y-99423214D01*
X154454642Y-99351785D01*
X154526071Y-99316071D01*
X154704642Y-99316071D01*
X154776071Y-99280357D01*
X155133214Y-99101785D02*
X155133214Y-99601785D01*
X155133214Y-99173214D02*
X155168928Y-99137500D01*
X155240357Y-99101785D01*
X155347500Y-99101785D01*
X155418928Y-99137500D01*
X155454642Y-99208928D01*
X155454642Y-99601785D01*
X156133214Y-99601785D02*
X156133214Y-98851785D01*
X156133214Y-99566071D02*
X156061785Y-99601785D01*
X155918928Y-99601785D01*
X155847500Y-99566071D01*
X155811785Y-99530357D01*
X155776071Y-99458928D01*
X155776071Y-99244642D01*
X155811785Y-99173214D01*
X155847500Y-99137500D01*
X155918928Y-99101785D01*
X156061785Y-99101785D01*
X156133214Y-99137500D01*
X156597500Y-99601785D02*
X156526071Y-99566071D01*
X156490357Y-99530357D01*
X156454642Y-99458928D01*
X156454642Y-99244642D01*
X156490357Y-99173214D01*
X156526071Y-99137500D01*
X156597500Y-99101785D01*
X156704642Y-99101785D01*
X156776071Y-99137500D01*
X156811785Y-99173214D01*
X156847500Y-99244642D01*
X156847500Y-99458928D01*
X156811785Y-99530357D01*
X156776071Y-99566071D01*
X156704642Y-99601785D01*
X156597500Y-99601785D01*
X157168928Y-99601785D02*
X157168928Y-99101785D01*
X157168928Y-99173214D02*
X157204642Y-99137500D01*
X157276071Y-99101785D01*
X157383214Y-99101785D01*
X157454642Y-99137500D01*
X157490357Y-99208928D01*
X157490357Y-99601785D01*
X157490357Y-99208928D02*
X157526071Y-99137500D01*
X157597500Y-99101785D01*
X157704642Y-99101785D01*
X157776071Y-99137500D01*
X157811785Y-99208928D01*
X157811785Y-99601785D01*
X158133214Y-99566071D02*
X158240357Y-99601785D01*
X158418928Y-99601785D01*
X158490357Y-99566071D01*
X158526071Y-99530357D01*
X158561785Y-99458928D01*
X158561785Y-99387500D01*
X158526071Y-99316071D01*
X158490357Y-99280357D01*
X158418928Y-99244642D01*
X158276071Y-99208928D01*
X158204642Y-99173214D01*
X158168928Y-99137500D01*
X158133214Y-99066071D01*
X158133214Y-98994642D01*
X158168928Y-98923214D01*
X158204642Y-98887500D01*
X158276071Y-98851785D01*
X158454642Y-98851785D01*
X158561785Y-98887500D01*
X158776071Y-99101785D02*
X159061785Y-99101785D01*
X158883214Y-98851785D02*
X158883214Y-99494642D01*
X158918928Y-99566071D01*
X158990357Y-99601785D01*
X159061785Y-99601785D01*
X159633214Y-99101785D02*
X159633214Y-99601785D01*
X159311785Y-99101785D02*
X159311785Y-99494642D01*
X159347500Y-99566071D01*
X159418928Y-99601785D01*
X159526071Y-99601785D01*
X159597500Y-99566071D01*
X159633214Y-99530357D01*
X159883214Y-99101785D02*
X160168928Y-99101785D01*
X159990357Y-99601785D02*
X159990357Y-98958928D01*
X160026071Y-98887500D01*
X160097500Y-98851785D01*
X160168928Y-98851785D01*
X160311785Y-99101785D02*
X160597500Y-99101785D01*
X160418928Y-99601785D02*
X160418928Y-98958928D01*
X160454642Y-98887500D01*
X160526071Y-98851785D01*
X160597500Y-98851785D01*
X161383214Y-98816071D02*
X160740357Y-99780357D01*
X161526071Y-99101785D02*
X161811785Y-99101785D01*
X161633214Y-98851785D02*
X161633214Y-99494642D01*
X161668928Y-99566071D01*
X161740357Y-99601785D01*
X161811785Y-99601785D01*
X162061785Y-99601785D02*
X162061785Y-99101785D01*
X162061785Y-99244642D02*
X162097500Y-99173214D01*
X162133214Y-99137500D01*
X162204642Y-99101785D01*
X162276071Y-99101785D01*
X162811785Y-99566071D02*
X162740357Y-99601785D01*
X162597500Y-99601785D01*
X162526071Y-99566071D01*
X162490357Y-99494642D01*
X162490357Y-99208928D01*
X162526071Y-99137500D01*
X162597500Y-99101785D01*
X162740357Y-99101785D01*
X162811785Y-99137500D01*
X162847500Y-99208928D01*
X162847500Y-99280357D01*
X162490357Y-99351785D01*
X163454642Y-99566071D02*
X163383214Y-99601785D01*
X163240357Y-99601785D01*
X163168928Y-99566071D01*
X163133214Y-99494642D01*
X163133214Y-99208928D01*
X163168928Y-99137500D01*
X163240357Y-99101785D01*
X163383214Y-99101785D01*
X163454642Y-99137500D01*
X163490357Y-99208928D01*
X163490357Y-99280357D01*
X163133214Y-99351785D01*
X164347500Y-98816071D02*
X163704642Y-99780357D01*
X164597500Y-99601785D02*
X164597500Y-99101785D01*
X164597500Y-99173214D02*
X164633214Y-99137500D01*
X164704642Y-99101785D01*
X164811785Y-99101785D01*
X164883214Y-99137500D01*
X164918928Y-99208928D01*
X164918928Y-99601785D01*
X164918928Y-99208928D02*
X164954642Y-99137500D01*
X165026071Y-99101785D01*
X165133214Y-99101785D01*
X165204642Y-99137500D01*
X165240357Y-99208928D01*
X165240357Y-99601785D01*
X165918928Y-99601785D02*
X165918928Y-99208928D01*
X165883214Y-99137500D01*
X165811785Y-99101785D01*
X165668928Y-99101785D01*
X165597500Y-99137500D01*
X165918928Y-99566071D02*
X165847500Y-99601785D01*
X165668928Y-99601785D01*
X165597500Y-99566071D01*
X165561785Y-99494642D01*
X165561785Y-99423214D01*
X165597500Y-99351785D01*
X165668928Y-99316071D01*
X165847500Y-99316071D01*
X165918928Y-99280357D01*
X166240357Y-99566071D02*
X166311785Y-99601785D01*
X166454642Y-99601785D01*
X166526071Y-99566071D01*
X166561785Y-99494642D01*
X166561785Y-99458928D01*
X166526071Y-99387500D01*
X166454642Y-99351785D01*
X166347500Y-99351785D01*
X166276071Y-99316071D01*
X166240357Y-99244642D01*
X166240357Y-99208928D01*
X166276071Y-99137500D01*
X166347500Y-99101785D01*
X166454642Y-99101785D01*
X166526071Y-99137500D01*
X166776071Y-99101785D02*
X167061785Y-99101785D01*
X166883214Y-98851785D02*
X166883214Y-99494642D01*
X166918928Y-99566071D01*
X166990357Y-99601785D01*
X167061785Y-99601785D01*
X167597500Y-99566071D02*
X167526071Y-99601785D01*
X167383214Y-99601785D01*
X167311785Y-99566071D01*
X167276071Y-99494642D01*
X167276071Y-99208928D01*
X167311785Y-99137500D01*
X167383214Y-99101785D01*
X167526071Y-99101785D01*
X167597500Y-99137500D01*
X167633214Y-99208928D01*
X167633214Y-99280357D01*
X167276071Y-99351785D01*
X167954642Y-99601785D02*
X167954642Y-99101785D01*
X167954642Y-99244642D02*
X167990357Y-99173214D01*
X168026071Y-99137500D01*
X168097500Y-99101785D01*
X168168928Y-99101785D01*
X168954642Y-98816071D02*
X168311785Y-99780357D01*
X138418928Y-100483928D02*
X138668928Y-100483928D01*
X138776071Y-100876785D02*
X138418928Y-100876785D01*
X138418928Y-100126785D01*
X138776071Y-100126785D01*
X139097500Y-100376785D02*
X139097500Y-101126785D01*
X139097500Y-100412500D02*
X139168928Y-100376785D01*
X139311785Y-100376785D01*
X139383214Y-100412500D01*
X139418928Y-100448214D01*
X139454642Y-100519642D01*
X139454642Y-100733928D01*
X139418928Y-100805357D01*
X139383214Y-100841071D01*
X139311785Y-100876785D01*
X139168928Y-100876785D01*
X139097500Y-100841071D01*
X139776071Y-100876785D02*
X139776071Y-100376785D01*
X139776071Y-100126785D02*
X139740357Y-100162500D01*
X139776071Y-100198214D01*
X139811785Y-100162500D01*
X139776071Y-100126785D01*
X139776071Y-100198214D01*
X140097500Y-100841071D02*
X140168928Y-100876785D01*
X140311785Y-100876785D01*
X140383214Y-100841071D01*
X140418928Y-100769642D01*
X140418928Y-100733928D01*
X140383214Y-100662500D01*
X140311785Y-100626785D01*
X140204642Y-100626785D01*
X140133214Y-100591071D01*
X140097500Y-100519642D01*
X140097500Y-100483928D01*
X140133214Y-100412500D01*
X140204642Y-100376785D01*
X140311785Y-100376785D01*
X140383214Y-100412500D01*
X140847500Y-100876785D02*
X140776071Y-100841071D01*
X140740357Y-100805357D01*
X140704642Y-100733928D01*
X140704642Y-100519642D01*
X140740357Y-100448214D01*
X140776071Y-100412500D01*
X140847500Y-100376785D01*
X140954642Y-100376785D01*
X141026071Y-100412500D01*
X141061785Y-100448214D01*
X141097500Y-100519642D01*
X141097500Y-100733928D01*
X141061785Y-100805357D01*
X141026071Y-100841071D01*
X140954642Y-100876785D01*
X140847500Y-100876785D01*
X141740357Y-100876785D02*
X141740357Y-100126785D01*
X141740357Y-100841071D02*
X141668928Y-100876785D01*
X141526071Y-100876785D01*
X141454642Y-100841071D01*
X141418928Y-100805357D01*
X141383214Y-100733928D01*
X141383214Y-100519642D01*
X141418928Y-100448214D01*
X141454642Y-100412500D01*
X141526071Y-100376785D01*
X141668928Y-100376785D01*
X141740357Y-100412500D01*
X142383214Y-100841071D02*
X142311785Y-100876785D01*
X142168928Y-100876785D01*
X142097500Y-100841071D01*
X142061785Y-100769642D01*
X142061785Y-100483928D01*
X142097500Y-100412500D01*
X142168928Y-100376785D01*
X142311785Y-100376785D01*
X142383214Y-100412500D01*
X142418928Y-100483928D01*
X142418928Y-100555357D01*
X142061785Y-100626785D01*
X142883214Y-100126785D02*
X142954642Y-100126785D01*
X143026071Y-100162500D01*
X143061785Y-100198214D01*
X143097500Y-100269642D01*
X143133214Y-100412500D01*
X143133214Y-100591071D01*
X143097500Y-100733928D01*
X143061785Y-100805357D01*
X143026071Y-100841071D01*
X142954642Y-100876785D01*
X142883214Y-100876785D01*
X142811785Y-100841071D01*
X142776071Y-100805357D01*
X142740357Y-100733928D01*
X142704642Y-100591071D01*
X142704642Y-100412500D01*
X142740357Y-100269642D01*
X142776071Y-100198214D01*
X142811785Y-100162500D01*
X142883214Y-100126785D01*
X143776071Y-100126785D02*
X143633214Y-100126785D01*
X143561785Y-100162500D01*
X143526071Y-100198214D01*
X143454642Y-100305357D01*
X143418928Y-100448214D01*
X143418928Y-100733928D01*
X143454642Y-100805357D01*
X143490357Y-100841071D01*
X143561785Y-100876785D01*
X143704642Y-100876785D01*
X143776071Y-100841071D01*
X143811785Y-100805357D01*
X143847500Y-100733928D01*
X143847500Y-100555357D01*
X143811785Y-100483928D01*
X143776071Y-100448214D01*
X143704642Y-100412500D01*
X143561785Y-100412500D01*
X143490357Y-100448214D01*
X143454642Y-100483928D01*
X143418928Y-100555357D01*
X144704642Y-100091071D02*
X144061785Y-101055357D01*
X144954642Y-100876785D02*
X144954642Y-100126785D01*
X145276071Y-100876785D02*
X145276071Y-100483928D01*
X145240357Y-100412500D01*
X145168928Y-100376785D01*
X145061785Y-100376785D01*
X144990357Y-100412500D01*
X144954642Y-100448214D01*
X145918928Y-100841071D02*
X145847500Y-100876785D01*
X145704642Y-100876785D01*
X145633214Y-100841071D01*
X145597500Y-100769642D01*
X145597500Y-100483928D01*
X145633214Y-100412500D01*
X145704642Y-100376785D01*
X145847500Y-100376785D01*
X145918928Y-100412500D01*
X145954642Y-100483928D01*
X145954642Y-100555357D01*
X145597500Y-100626785D01*
X146204642Y-100876785D02*
X146597500Y-100376785D01*
X146204642Y-100376785D02*
X146597500Y-100876785D01*
X147204642Y-100876785D02*
X147204642Y-100126785D01*
X147204642Y-100841071D02*
X147133214Y-100876785D01*
X146990357Y-100876785D01*
X146918928Y-100841071D01*
X146883214Y-100805357D01*
X146847500Y-100733928D01*
X146847500Y-100519642D01*
X146883214Y-100448214D01*
X146918928Y-100412500D01*
X146990357Y-100376785D01*
X147133214Y-100376785D01*
X147204642Y-100412500D01*
X147561785Y-100876785D02*
X147561785Y-100376785D01*
X147561785Y-100126785D02*
X147526071Y-100162500D01*
X147561785Y-100198214D01*
X147597500Y-100162500D01*
X147561785Y-100126785D01*
X147561785Y-100198214D01*
X147883214Y-100841071D02*
X147954642Y-100876785D01*
X148097500Y-100876785D01*
X148168928Y-100841071D01*
X148204642Y-100769642D01*
X148204642Y-100733928D01*
X148168928Y-100662500D01*
X148097500Y-100626785D01*
X147990357Y-100626785D01*
X147918928Y-100591071D01*
X147883214Y-100519642D01*
X147883214Y-100483928D01*
X147918928Y-100412500D01*
X147990357Y-100376785D01*
X148097500Y-100376785D01*
X148168928Y-100412500D01*
X148526071Y-100376785D02*
X148526071Y-101126785D01*
X148526071Y-100412500D02*
X148597500Y-100376785D01*
X148740357Y-100376785D01*
X148811785Y-100412500D01*
X148847500Y-100448214D01*
X148883214Y-100519642D01*
X148883214Y-100733928D01*
X148847500Y-100805357D01*
X148811785Y-100841071D01*
X148740357Y-100876785D01*
X148597500Y-100876785D01*
X148526071Y-100841071D01*
X149311785Y-100876785D02*
X149240357Y-100841071D01*
X149204642Y-100769642D01*
X149204642Y-100126785D01*
X149918928Y-100876785D02*
X149918928Y-100483928D01*
X149883214Y-100412500D01*
X149811785Y-100376785D01*
X149668928Y-100376785D01*
X149597500Y-100412500D01*
X149918928Y-100841071D02*
X149847500Y-100876785D01*
X149668928Y-100876785D01*
X149597500Y-100841071D01*
X149561785Y-100769642D01*
X149561785Y-100698214D01*
X149597500Y-100626785D01*
X149668928Y-100591071D01*
X149847500Y-100591071D01*
X149918928Y-100555357D01*
X150204642Y-100376785D02*
X150383214Y-100876785D01*
X150561785Y-100376785D02*
X150383214Y-100876785D01*
X150311785Y-101055357D01*
X150276071Y-101091071D01*
X150204642Y-101126785D01*
X150954642Y-100448214D02*
X150883214Y-100412500D01*
X150847500Y-100376785D01*
X150811785Y-100305357D01*
X150811785Y-100269642D01*
X150847500Y-100198214D01*
X150883214Y-100162500D01*
X150954642Y-100126785D01*
X151097500Y-100126785D01*
X151168928Y-100162500D01*
X151204642Y-100198214D01*
X151240357Y-100269642D01*
X151240357Y-100305357D01*
X151204642Y-100376785D01*
X151168928Y-100412500D01*
X151097500Y-100448214D01*
X150954642Y-100448214D01*
X150883214Y-100483928D01*
X150847500Y-100519642D01*
X150811785Y-100591071D01*
X150811785Y-100733928D01*
X150847500Y-100805357D01*
X150883214Y-100841071D01*
X150954642Y-100876785D01*
X151097500Y-100876785D01*
X151168928Y-100841071D01*
X151204642Y-100805357D01*
X151240357Y-100733928D01*
X151240357Y-100591071D01*
X151204642Y-100519642D01*
X151168928Y-100483928D01*
X151097500Y-100448214D01*
X165719047Y-121433333D02*
X165671428Y-121385714D01*
X165576190Y-121242857D01*
X165528571Y-121147619D01*
X165480952Y-121004761D01*
X165433333Y-120766666D01*
X165433333Y-120576190D01*
X165480952Y-120338095D01*
X165528571Y-120195238D01*
X165576190Y-120100000D01*
X165671428Y-119957142D01*
X165719047Y-119909523D01*
X166528571Y-121004761D02*
X166433333Y-121052380D01*
X166242857Y-121052380D01*
X166147619Y-121004761D01*
X166100000Y-120957142D01*
X166052380Y-120861904D01*
X166052380Y-120576190D01*
X166100000Y-120480952D01*
X166147619Y-120433333D01*
X166242857Y-120385714D01*
X166433333Y-120385714D01*
X166528571Y-120433333D01*
X166861904Y-121433333D02*
X166909523Y-121385714D01*
X167004761Y-121242857D01*
X167052380Y-121147619D01*
X167100000Y-121004761D01*
X167147619Y-120766666D01*
X167147619Y-120576190D01*
X167100000Y-120338095D01*
X167052380Y-120195238D01*
X167004761Y-120100000D01*
X166909523Y-119957142D01*
X166861904Y-119909523D01*
X168338095Y-120147619D02*
X168385714Y-120100000D01*
X168480952Y-120052380D01*
X168719047Y-120052380D01*
X168814285Y-120100000D01*
X168861904Y-120147619D01*
X168909523Y-120242857D01*
X168909523Y-120338095D01*
X168861904Y-120480952D01*
X168290476Y-121052380D01*
X168909523Y-121052380D01*
X169528571Y-120052380D02*
X169623809Y-120052380D01*
X169719047Y-120100000D01*
X169766666Y-120147619D01*
X169814285Y-120242857D01*
X169861904Y-120433333D01*
X169861904Y-120671428D01*
X169814285Y-120861904D01*
X169766666Y-120957142D01*
X169719047Y-121004761D01*
X169623809Y-121052380D01*
X169528571Y-121052380D01*
X169433333Y-121004761D01*
X169385714Y-120957142D01*
X169338095Y-120861904D01*
X169290476Y-120671428D01*
X169290476Y-120433333D01*
X169338095Y-120242857D01*
X169385714Y-120147619D01*
X169433333Y-120100000D01*
X169528571Y-120052380D01*
X170242857Y-120147619D02*
X170290476Y-120100000D01*
X170385714Y-120052380D01*
X170623809Y-120052380D01*
X170719047Y-120100000D01*
X170766666Y-120147619D01*
X170814285Y-120242857D01*
X170814285Y-120338095D01*
X170766666Y-120480952D01*
X170195238Y-121052380D01*
X170814285Y-121052380D01*
X171766666Y-121052380D02*
X171195238Y-121052380D01*
X171480952Y-121052380D02*
X171480952Y-120052380D01*
X171385714Y-120195238D01*
X171290476Y-120290476D01*
X171195238Y-120338095D01*
X173385714Y-121052380D02*
X173385714Y-120052380D01*
X173385714Y-121004761D02*
X173290476Y-121052380D01*
X173100000Y-121052380D01*
X173004761Y-121004761D01*
X172957142Y-120957142D01*
X172909523Y-120861904D01*
X172909523Y-120576190D01*
X172957142Y-120480952D01*
X173004761Y-120433333D01*
X173100000Y-120385714D01*
X173290476Y-120385714D01*
X173385714Y-120433333D01*
X174290476Y-121052380D02*
X174290476Y-120528571D01*
X174242857Y-120433333D01*
X174147619Y-120385714D01*
X173957142Y-120385714D01*
X173861904Y-120433333D01*
X174290476Y-121004761D02*
X174195238Y-121052380D01*
X173957142Y-121052380D01*
X173861904Y-121004761D01*
X173814285Y-120909523D01*
X173814285Y-120814285D01*
X173861904Y-120719047D01*
X173957142Y-120671428D01*
X174195238Y-120671428D01*
X174290476Y-120623809D01*
X174671428Y-120385714D02*
X174909523Y-121052380D01*
X175147619Y-120385714D01*
X175909523Y-121004761D02*
X175814285Y-121052380D01*
X175623809Y-121052380D01*
X175528571Y-121004761D01*
X175480952Y-120909523D01*
X175480952Y-120528571D01*
X175528571Y-120433333D01*
X175623809Y-120385714D01*
X175814285Y-120385714D01*
X175909523Y-120433333D01*
X175957142Y-120528571D01*
X175957142Y-120623809D01*
X175480952Y-120719047D01*
X176385714Y-121052380D02*
X176385714Y-120052380D01*
X176814285Y-121052380D02*
X176814285Y-120528571D01*
X176766666Y-120433333D01*
X176671428Y-120385714D01*
X176528571Y-120385714D01*
X176433333Y-120433333D01*
X176385714Y-120480952D01*
X177433333Y-121052380D02*
X177338095Y-121004761D01*
X177290476Y-120957142D01*
X177242857Y-120861904D01*
X177242857Y-120576190D01*
X177290476Y-120480952D01*
X177338095Y-120433333D01*
X177433333Y-120385714D01*
X177576190Y-120385714D01*
X177671428Y-120433333D01*
X177719047Y-120480952D01*
X177766666Y-120576190D01*
X177766666Y-120861904D01*
X177719047Y-120957142D01*
X177671428Y-121004761D01*
X177576190Y-121052380D01*
X177433333Y-121052380D01*
X178957142Y-121052380D02*
X178957142Y-120052380D01*
X179385714Y-121052380D02*
X179385714Y-120528571D01*
X179338095Y-120433333D01*
X179242857Y-120385714D01*
X179100000Y-120385714D01*
X179004761Y-120433333D01*
X178957142Y-120480952D01*
X180290476Y-121052380D02*
X180290476Y-120528571D01*
X180242857Y-120433333D01*
X180147619Y-120385714D01*
X179957142Y-120385714D01*
X179861904Y-120433333D01*
X180290476Y-121004761D02*
X180195238Y-121052380D01*
X179957142Y-121052380D01*
X179861904Y-121004761D01*
X179814285Y-120909523D01*
X179814285Y-120814285D01*
X179861904Y-120719047D01*
X179957142Y-120671428D01*
X180195238Y-120671428D01*
X180290476Y-120623809D01*
X181195238Y-121004761D02*
X181100000Y-121052380D01*
X180909523Y-121052380D01*
X180814285Y-121004761D01*
X180766666Y-120957142D01*
X180719047Y-120861904D01*
X180719047Y-120576190D01*
X180766666Y-120480952D01*
X180814285Y-120433333D01*
X180909523Y-120385714D01*
X181100000Y-120385714D01*
X181195238Y-120433333D01*
X181623809Y-121052380D02*
X181623809Y-120052380D01*
X181719047Y-120671428D02*
X182004761Y-121052380D01*
X182004761Y-120385714D02*
X181623809Y-120766666D01*
X182385714Y-121004761D02*
X182480952Y-121052380D01*
X182671428Y-121052380D01*
X182766666Y-121004761D01*
X182814285Y-120909523D01*
X182814285Y-120861904D01*
X182766666Y-120766666D01*
X182671428Y-120719047D01*
X182528571Y-120719047D01*
X182433333Y-120671428D01*
X182385714Y-120576190D01*
X182385714Y-120528571D01*
X182433333Y-120433333D01*
X182528571Y-120385714D01*
X182671428Y-120385714D01*
X182766666Y-120433333D01*
D11*
%TO.C,C1*%
X143610000Y-104948752D02*
X143610000Y-103526248D01*
X141790000Y-104948752D02*
X141790000Y-103526248D01*
%TO.C,J1*%
X176010000Y-106370000D02*
X174360000Y-106370000D01*
X174360000Y-106370000D02*
X174360000Y-119190000D01*
X174360000Y-119190000D02*
X179660000Y-119190000D01*
X179660000Y-119190000D02*
X179660000Y-106370000D01*
X179660000Y-106370000D02*
X178010000Y-106370000D01*
X178010000Y-106370000D02*
G75*
G02*
X176010000Y-106370000I-1000000J0D01*
G01*
%TO.C,J2*%
X189820000Y-106370000D02*
X188170000Y-106370000D01*
X189820000Y-119190000D02*
X189820000Y-106370000D01*
X184520000Y-119190000D02*
X189820000Y-119190000D01*
X184520000Y-106370000D02*
X184520000Y-119190000D01*
X186170000Y-106370000D02*
X184520000Y-106370000D01*
X188170000Y-106370000D02*
G75*
G02*
X186170000Y-106370000I-1000000J0D01*
G01*
%TO.C,J3*%
X140890000Y-109030000D02*
X142220000Y-109030000D01*
X140890000Y-110360000D02*
X140890000Y-109030000D01*
X140890000Y-111630000D02*
X143550000Y-111630000D01*
X143550000Y-111630000D02*
X143550000Y-114230000D01*
X140890000Y-111630000D02*
X140890000Y-114230000D01*
X140890000Y-114230000D02*
X143550000Y-114230000D01*
%TO.C,J4*%
X161330000Y-118670000D02*
X161330000Y-120000000D01*
X160000000Y-118670000D02*
X161330000Y-118670000D01*
X158730000Y-118670000D02*
X158730000Y-121330000D01*
X158730000Y-121330000D02*
X140890000Y-121330000D01*
X158730000Y-118670000D02*
X140890000Y-118670000D01*
X140890000Y-118670000D02*
X140890000Y-121330000D01*
%TO.C,J5*%
X136870000Y-103950000D02*
X138200000Y-103950000D01*
X136870000Y-105280000D02*
X136870000Y-103950000D01*
X136870000Y-106550000D02*
X139530000Y-106550000D01*
X139530000Y-106550000D02*
X139530000Y-119310000D01*
X136870000Y-106550000D02*
X136870000Y-119310000D01*
X136870000Y-119310000D02*
X139530000Y-119310000D01*
%TO.C,Q1*%
X188160000Y-103480000D02*
X186700000Y-103480000D01*
X188160000Y-100320000D02*
X186000000Y-100320000D01*
X188160000Y-100320000D02*
X188160000Y-101250000D01*
X188160000Y-103480000D02*
X188160000Y-102550000D01*
%TO.C,Q2*%
X177860000Y-103580000D02*
X177860000Y-102650000D01*
X177860000Y-100420000D02*
X177860000Y-101350000D01*
X177860000Y-100420000D02*
X175700000Y-100420000D01*
X177860000Y-103580000D02*
X176400000Y-103580000D01*
%TO.C,R1*%
X166827064Y-102765000D02*
X166372936Y-102765000D01*
X166827064Y-104235000D02*
X166372936Y-104235000D01*
%TO.C,R2*%
X166827064Y-106651666D02*
X166372936Y-106651666D01*
X166827064Y-105181666D02*
X166372936Y-105181666D01*
%TO.C,R3*%
X166827064Y-107598332D02*
X166372936Y-107598332D01*
X166827064Y-109068332D02*
X166372936Y-109068332D01*
%TO.C,R4*%
X166827064Y-111484998D02*
X166372936Y-111484998D01*
X166827064Y-110014998D02*
X166372936Y-110014998D01*
%TO.C,R5*%
X166827064Y-112431664D02*
X166372936Y-112431664D01*
X166827064Y-113901664D02*
X166372936Y-113901664D01*
%TO.C,R6*%
X166827064Y-116318330D02*
X166372936Y-116318330D01*
X166827064Y-114848330D02*
X166372936Y-114848330D01*
%TO.C,R7*%
X166827064Y-117265000D02*
X166372936Y-117265000D01*
X166827064Y-118735000D02*
X166372936Y-118735000D01*
%TO.C,R8*%
X149927064Y-103035000D02*
X149472936Y-103035000D01*
X149927064Y-101565000D02*
X149472936Y-101565000D01*
%TO.C,R9*%
X157127064Y-101465000D02*
X156672936Y-101465000D01*
X157127064Y-102935000D02*
X156672936Y-102935000D01*
%TO.C,U1*%
X147025000Y-114660000D02*
X147025000Y-116475000D01*
X146790000Y-114660000D02*
X147025000Y-114660000D01*
X146790000Y-110800000D02*
X146790000Y-114660000D01*
X146790000Y-106940000D02*
X147025000Y-106940000D01*
X146790000Y-110800000D02*
X146790000Y-106940000D01*
X159810000Y-114660000D02*
X159575000Y-114660000D01*
X159810000Y-110800000D02*
X159810000Y-114660000D01*
X159810000Y-106940000D02*
X159575000Y-106940000D01*
X159810000Y-110800000D02*
X159810000Y-106940000D01*
%TO.C,C1*%
D10*
X140633333Y-103057142D02*
X140585714Y-103104761D01*
X140442857Y-103152380D01*
X140347619Y-103152380D01*
X140204761Y-103104761D01*
X140109523Y-103009523D01*
X140061904Y-102914285D01*
X140014285Y-102723809D01*
X140014285Y-102580952D01*
X140061904Y-102390476D01*
X140109523Y-102295238D01*
X140204761Y-102200000D01*
X140347619Y-102152380D01*
X140442857Y-102152380D01*
X140585714Y-102200000D01*
X140633333Y-102247619D01*
X141585714Y-103152380D02*
X141014285Y-103152380D01*
X141300000Y-103152380D02*
X141300000Y-102152380D01*
X141204761Y-102295238D01*
X141109523Y-102390476D01*
X141014285Y-102438095D01*
%TO.C,J1*%
X176676666Y-104822380D02*
X176676666Y-105536666D01*
X176629047Y-105679523D01*
X176533809Y-105774761D01*
X176390952Y-105822380D01*
X176295714Y-105822380D01*
X177676666Y-105822380D02*
X177105238Y-105822380D01*
X177390952Y-105822380D02*
X177390952Y-104822380D01*
X177295714Y-104965238D01*
X177200476Y-105060476D01*
X177105238Y-105108095D01*
%TO.C,J2*%
X186836666Y-104822380D02*
X186836666Y-105536666D01*
X186789047Y-105679523D01*
X186693809Y-105774761D01*
X186550952Y-105822380D01*
X186455714Y-105822380D01*
X187265238Y-104917619D02*
X187312857Y-104870000D01*
X187408095Y-104822380D01*
X187646190Y-104822380D01*
X187741428Y-104870000D01*
X187789047Y-104917619D01*
X187836666Y-105012857D01*
X187836666Y-105108095D01*
X187789047Y-105250952D01*
X187217619Y-105822380D01*
X187836666Y-105822380D01*
%TO.C,J3*%
X141886666Y-107482380D02*
X141886666Y-108196666D01*
X141839047Y-108339523D01*
X141743809Y-108434761D01*
X141600952Y-108482380D01*
X141505714Y-108482380D01*
X142267619Y-107482380D02*
X142886666Y-107482380D01*
X142553333Y-107863333D01*
X142696190Y-107863333D01*
X142791428Y-107910952D01*
X142839047Y-107958571D01*
X142886666Y-108053809D01*
X142886666Y-108291904D01*
X142839047Y-108387142D01*
X142791428Y-108434761D01*
X142696190Y-108482380D01*
X142410476Y-108482380D01*
X142315238Y-108434761D01*
X142267619Y-108387142D01*
%TO.C,J4*%
X161782380Y-120333333D02*
X162496666Y-120333333D01*
X162639523Y-120380952D01*
X162734761Y-120476190D01*
X162782380Y-120619047D01*
X162782380Y-120714285D01*
X162115714Y-119428571D02*
X162782380Y-119428571D01*
X161734761Y-119666666D02*
X162449047Y-119904761D01*
X162449047Y-119285714D01*
%TO.C,J5*%
X137866666Y-102402380D02*
X137866666Y-103116666D01*
X137819047Y-103259523D01*
X137723809Y-103354761D01*
X137580952Y-103402380D01*
X137485714Y-103402380D01*
X138819047Y-102402380D02*
X138342857Y-102402380D01*
X138295238Y-102878571D01*
X138342857Y-102830952D01*
X138438095Y-102783333D01*
X138676190Y-102783333D01*
X138771428Y-102830952D01*
X138819047Y-102878571D01*
X138866666Y-102973809D01*
X138866666Y-103211904D01*
X138819047Y-103307142D01*
X138771428Y-103354761D01*
X138676190Y-103402380D01*
X138438095Y-103402380D01*
X138342857Y-103354761D01*
X138295238Y-103307142D01*
%TO.C,Q1*%
X187304761Y-99947619D02*
X187209523Y-99900000D01*
X187114285Y-99804761D01*
X186971428Y-99661904D01*
X186876190Y-99614285D01*
X186780952Y-99614285D01*
X186828571Y-99852380D02*
X186733333Y-99804761D01*
X186638095Y-99709523D01*
X186590476Y-99519047D01*
X186590476Y-99185714D01*
X186638095Y-98995238D01*
X186733333Y-98900000D01*
X186828571Y-98852380D01*
X187019047Y-98852380D01*
X187114285Y-98900000D01*
X187209523Y-98995238D01*
X187257142Y-99185714D01*
X187257142Y-99519047D01*
X187209523Y-99709523D01*
X187114285Y-99804761D01*
X187019047Y-99852380D01*
X186828571Y-99852380D01*
X188209523Y-99852380D02*
X187638095Y-99852380D01*
X187923809Y-99852380D02*
X187923809Y-98852380D01*
X187828571Y-98995238D01*
X187733333Y-99090476D01*
X187638095Y-99138095D01*
%TO.C,Q2*%
X177004761Y-100047619D02*
X176909523Y-100000000D01*
X176814285Y-99904761D01*
X176671428Y-99761904D01*
X176576190Y-99714285D01*
X176480952Y-99714285D01*
X176528571Y-99952380D02*
X176433333Y-99904761D01*
X176338095Y-99809523D01*
X176290476Y-99619047D01*
X176290476Y-99285714D01*
X176338095Y-99095238D01*
X176433333Y-99000000D01*
X176528571Y-98952380D01*
X176719047Y-98952380D01*
X176814285Y-99000000D01*
X176909523Y-99095238D01*
X176957142Y-99285714D01*
X176957142Y-99619047D01*
X176909523Y-99809523D01*
X176814285Y-99904761D01*
X176719047Y-99952380D01*
X176528571Y-99952380D01*
X177338095Y-99047619D02*
X177385714Y-99000000D01*
X177480952Y-98952380D01*
X177719047Y-98952380D01*
X177814285Y-99000000D01*
X177861904Y-99047619D01*
X177909523Y-99142857D01*
X177909523Y-99238095D01*
X177861904Y-99380952D01*
X177290476Y-99952380D01*
X177909523Y-99952380D01*
%TO.C,R1*%
X163633333Y-103952380D02*
X163300000Y-103476190D01*
X163061904Y-103952380D02*
X163061904Y-102952380D01*
X163442857Y-102952380D01*
X163538095Y-103000000D01*
X163585714Y-103047619D01*
X163633333Y-103142857D01*
X163633333Y-103285714D01*
X163585714Y-103380952D01*
X163538095Y-103428571D01*
X163442857Y-103476190D01*
X163061904Y-103476190D01*
X164585714Y-103952380D02*
X164014285Y-103952380D01*
X164300000Y-103952380D02*
X164300000Y-102952380D01*
X164204761Y-103095238D01*
X164109523Y-103190476D01*
X164014285Y-103238095D01*
%TO.C,R2*%
X163533333Y-106369046D02*
X163200000Y-105892856D01*
X162961904Y-106369046D02*
X162961904Y-105369046D01*
X163342857Y-105369046D01*
X163438095Y-105416666D01*
X163485714Y-105464285D01*
X163533333Y-105559523D01*
X163533333Y-105702380D01*
X163485714Y-105797618D01*
X163438095Y-105845237D01*
X163342857Y-105892856D01*
X162961904Y-105892856D01*
X163914285Y-105464285D02*
X163961904Y-105416666D01*
X164057142Y-105369046D01*
X164295238Y-105369046D01*
X164390476Y-105416666D01*
X164438095Y-105464285D01*
X164485714Y-105559523D01*
X164485714Y-105654761D01*
X164438095Y-105797618D01*
X163866666Y-106369046D01*
X164485714Y-106369046D01*
%TO.C,R3*%
X163533333Y-108785712D02*
X163200000Y-108309522D01*
X162961904Y-108785712D02*
X162961904Y-107785712D01*
X163342857Y-107785712D01*
X163438095Y-107833332D01*
X163485714Y-107880951D01*
X163533333Y-107976189D01*
X163533333Y-108119046D01*
X163485714Y-108214284D01*
X163438095Y-108261903D01*
X163342857Y-108309522D01*
X162961904Y-108309522D01*
X163866666Y-107785712D02*
X164485714Y-107785712D01*
X164152380Y-108166665D01*
X164295238Y-108166665D01*
X164390476Y-108214284D01*
X164438095Y-108261903D01*
X164485714Y-108357141D01*
X164485714Y-108595236D01*
X164438095Y-108690474D01*
X164390476Y-108738093D01*
X164295238Y-108785712D01*
X164009523Y-108785712D01*
X163914285Y-108738093D01*
X163866666Y-108690474D01*
%TO.C,R4*%
X163533333Y-111202378D02*
X163200000Y-110726188D01*
X162961904Y-111202378D02*
X162961904Y-110202378D01*
X163342857Y-110202378D01*
X163438095Y-110249998D01*
X163485714Y-110297617D01*
X163533333Y-110392855D01*
X163533333Y-110535712D01*
X163485714Y-110630950D01*
X163438095Y-110678569D01*
X163342857Y-110726188D01*
X162961904Y-110726188D01*
X164390476Y-110535712D02*
X164390476Y-111202378D01*
X164152380Y-110154759D02*
X163914285Y-110869045D01*
X164533333Y-110869045D01*
%TO.C,R5*%
X163533333Y-113719044D02*
X163200000Y-113242854D01*
X162961904Y-113719044D02*
X162961904Y-112719044D01*
X163342857Y-112719044D01*
X163438095Y-112766664D01*
X163485714Y-112814283D01*
X163533333Y-112909521D01*
X163533333Y-113052378D01*
X163485714Y-113147616D01*
X163438095Y-113195235D01*
X163342857Y-113242854D01*
X162961904Y-113242854D01*
X164438095Y-112719044D02*
X163961904Y-112719044D01*
X163914285Y-113195235D01*
X163961904Y-113147616D01*
X164057142Y-113099997D01*
X164295238Y-113099997D01*
X164390476Y-113147616D01*
X164438095Y-113195235D01*
X164485714Y-113290473D01*
X164485714Y-113528568D01*
X164438095Y-113623806D01*
X164390476Y-113671425D01*
X164295238Y-113719044D01*
X164057142Y-113719044D01*
X163961904Y-113671425D01*
X163914285Y-113623806D01*
%TO.C,R6*%
X163633333Y-116035710D02*
X163300000Y-115559520D01*
X163061904Y-116035710D02*
X163061904Y-115035710D01*
X163442857Y-115035710D01*
X163538095Y-115083330D01*
X163585714Y-115130949D01*
X163633333Y-115226187D01*
X163633333Y-115369044D01*
X163585714Y-115464282D01*
X163538095Y-115511901D01*
X163442857Y-115559520D01*
X163061904Y-115559520D01*
X164490476Y-115035710D02*
X164300000Y-115035710D01*
X164204761Y-115083330D01*
X164157142Y-115130949D01*
X164061904Y-115273806D01*
X164014285Y-115464282D01*
X164014285Y-115845234D01*
X164061904Y-115940472D01*
X164109523Y-115988091D01*
X164204761Y-116035710D01*
X164395238Y-116035710D01*
X164490476Y-115988091D01*
X164538095Y-115940472D01*
X164585714Y-115845234D01*
X164585714Y-115607139D01*
X164538095Y-115511901D01*
X164490476Y-115464282D01*
X164395238Y-115416663D01*
X164204761Y-115416663D01*
X164109523Y-115464282D01*
X164061904Y-115511901D01*
X164014285Y-115607139D01*
%TO.C,R7*%
X163533333Y-118552380D02*
X163200000Y-118076190D01*
X162961904Y-118552380D02*
X162961904Y-117552380D01*
X163342857Y-117552380D01*
X163438095Y-117600000D01*
X163485714Y-117647619D01*
X163533333Y-117742857D01*
X163533333Y-117885714D01*
X163485714Y-117980952D01*
X163438095Y-118028571D01*
X163342857Y-118076190D01*
X162961904Y-118076190D01*
X163866666Y-117552380D02*
X164533333Y-117552380D01*
X164104761Y-118552380D01*
%TO.C,R8*%
X149533333Y-104402380D02*
X149200000Y-103926190D01*
X148961904Y-104402380D02*
X148961904Y-103402380D01*
X149342857Y-103402380D01*
X149438095Y-103450000D01*
X149485714Y-103497619D01*
X149533333Y-103592857D01*
X149533333Y-103735714D01*
X149485714Y-103830952D01*
X149438095Y-103878571D01*
X149342857Y-103926190D01*
X148961904Y-103926190D01*
X150104761Y-103830952D02*
X150009523Y-103783333D01*
X149961904Y-103735714D01*
X149914285Y-103640476D01*
X149914285Y-103592857D01*
X149961904Y-103497619D01*
X150009523Y-103450000D01*
X150104761Y-103402380D01*
X150295238Y-103402380D01*
X150390476Y-103450000D01*
X150438095Y-103497619D01*
X150485714Y-103592857D01*
X150485714Y-103640476D01*
X150438095Y-103735714D01*
X150390476Y-103783333D01*
X150295238Y-103830952D01*
X150104761Y-103830952D01*
X150009523Y-103878571D01*
X149961904Y-103926190D01*
X149914285Y-104021428D01*
X149914285Y-104211904D01*
X149961904Y-104307142D01*
X150009523Y-104354761D01*
X150104761Y-104402380D01*
X150295238Y-104402380D01*
X150390476Y-104354761D01*
X150438095Y-104307142D01*
X150485714Y-104211904D01*
X150485714Y-104021428D01*
X150438095Y-103926190D01*
X150390476Y-103878571D01*
X150295238Y-103830952D01*
%TO.C,R9*%
X156733333Y-104302380D02*
X156400000Y-103826190D01*
X156161904Y-104302380D02*
X156161904Y-103302380D01*
X156542857Y-103302380D01*
X156638095Y-103350000D01*
X156685714Y-103397619D01*
X156733333Y-103492857D01*
X156733333Y-103635714D01*
X156685714Y-103730952D01*
X156638095Y-103778571D01*
X156542857Y-103826190D01*
X156161904Y-103826190D01*
X157209523Y-104302380D02*
X157400000Y-104302380D01*
X157495238Y-104254761D01*
X157542857Y-104207142D01*
X157638095Y-104064285D01*
X157685714Y-103873809D01*
X157685714Y-103492857D01*
X157638095Y-103397619D01*
X157590476Y-103350000D01*
X157495238Y-103302380D01*
X157304761Y-103302380D01*
X157209523Y-103350000D01*
X157161904Y-103397619D01*
X157114285Y-103492857D01*
X157114285Y-103730952D01*
X157161904Y-103826190D01*
X157209523Y-103873809D01*
X157304761Y-103921428D01*
X157495238Y-103921428D01*
X157590476Y-103873809D01*
X157638095Y-103826190D01*
X157685714Y-103730952D01*
%TO.C,U1*%
X145402380Y-111561904D02*
X146211904Y-111561904D01*
X146307142Y-111514285D01*
X146354761Y-111466666D01*
X146402380Y-111371428D01*
X146402380Y-111180952D01*
X146354761Y-111085714D01*
X146307142Y-111038095D01*
X146211904Y-110990476D01*
X145402380Y-110990476D01*
X146402380Y-109990476D02*
X146402380Y-110561904D01*
X146402380Y-110276190D02*
X145402380Y-110276190D01*
X145545238Y-110371428D01*
X145640476Y-110466666D01*
X145688095Y-110561904D01*
%TD*%
M02*
