M48
INCH,TZ
T1C0.0130
T2C0.0315
T3C0.0394
%
G90
G05
T1
X31575Y-49449
X32764Y-53275
X32874Y-50827
X33386Y-50079
X33386Y-50433
X33976Y-48898
X34724Y-55382
X34921Y-51024
X35118Y-46811
X35520Y-50433
X36087Y-52677
X36102Y-51299
X36378Y-46811
X36417Y-48307
X36417Y-52677
X36496Y-51094
X36772Y-51584
X37010Y-51812
X37305Y-51960
X37362Y-53740
X37636Y-52051
X37677Y-54803
X37692Y-53740
X37717Y-46496
X38228Y-53819
X39173Y-54055
X40236Y-54055
X41181Y-54055
X41417Y-52244
X41496Y-49016
X41496Y-53110
X41575Y-48189
X42036Y-51654
X42244Y-54094
X43110Y-50354
X43534Y-47943
X44921Y-51142
X47441Y-46496
X47568Y-47943
X47638Y-50000
X48898Y-51232
X51496Y-46535
X51575Y-50000
X51575Y-51142
X51624Y-47943
X55433Y-46575
X55551Y-47717
X55591Y-50000
X55669Y-51063
T2
X42874Y-48858
X42874Y-49858
X42874Y-50858
X42874Y-51858
X42874Y-52858
X45874Y-48858
X45874Y-49858
X45874Y-50858
X45874Y-51858
X45874Y-52858
X46874Y-48858
X46874Y-49858
X46874Y-50858
X46874Y-51858
X46874Y-52858
X49874Y-48858
X49874Y-49858
X49874Y-50858
X49874Y-51858
X49874Y-52858
X50874Y-48858
X50874Y-49858
X50874Y-50858
X50874Y-51858
X50874Y-52858
X53874Y-48858
X53874Y-49858
X53874Y-50858
X53874Y-51858
X53874Y-52858
X54874Y-48858
X54874Y-49858
X54874Y-50858
X54874Y-51858
X54874Y-52858
X57874Y-48858
X57874Y-49858
X57874Y-50858
X57874Y-51858
X57874Y-52858
T3
X30787Y-49331
X30787Y-50331
X30787Y-51331
X30787Y-52331
X30787Y-53331
X30787Y-54331
X32244Y-51331
X32244Y-52331
X32244Y-55118
X33244Y-55118
X34244Y-55118
X35244Y-55118
X36244Y-55118
X37244Y-55118
X38244Y-55118
X39244Y-55118
X40244Y-55118
X41244Y-55118
X42244Y-55118
X43244Y-55118
X44244Y-55118
X45244Y-55118
X46244Y-55118
X47244Y-55118
T0
M30
