%TF.GenerationSoftware,KiCad,Pcbnew,5.1.9-73d0e3b20d~88~ubuntu20.04.1*%
%TF.CreationDate,2021-03-07T16:47:50-05:00*%
%TF.ProjectId,hexdisplay16,68657864-6973-4706-9c61-7931362e6b69,rev?*%
%TF.SameCoordinates,Original*%
%TF.FileFunction,Copper,L1,Top*%
%TF.FilePolarity,Positive*%
%FSLAX46Y46*%
G04 Gerber Fmt 4.6, Leading zero omitted, Abs format (unit mm)*
G04 Created by KiCad (PCBNEW 5.1.9-73d0e3b20d~88~ubuntu20.04.1) date 2021-03-07 16:47:50*
%MOMM*%
%LPD*%
G01*
G04 APERTURE LIST*
%TA.AperFunction,ComponentPad*%
%ADD10O,1.600000X1.600000*%
%TD*%
%TA.AperFunction,ComponentPad*%
%ADD11R,1.600000X1.600000*%
%TD*%
%TA.AperFunction,ComponentPad*%
%ADD12R,1.700000X1.700000*%
%TD*%
%TA.AperFunction,ComponentPad*%
%ADD13O,1.700000X1.700000*%
%TD*%
%TA.AperFunction,SMDPad,CuDef*%
%ADD14R,0.900000X0.800000*%
%TD*%
%TA.AperFunction,ViaPad*%
%ADD15C,0.685800*%
%TD*%
%TA.AperFunction,Conductor*%
%ADD16C,0.254000*%
%TD*%
%TA.AperFunction,Conductor*%
%ADD17C,0.152400*%
%TD*%
%TA.AperFunction,Conductor*%
%ADD18C,0.100000*%
%TD*%
G04 APERTURE END LIST*
D10*
%TO.P,J2,10*%
%TO.N,/A*%
X136840000Y-124100000D03*
%TO.P,J2,5*%
%TO.N,/D*%
X129220000Y-134260000D03*
%TO.P,J2,9*%
%TO.N,/B*%
X136840000Y-126640000D03*
%TO.P,J2,4*%
%TO.N,/E*%
X129220000Y-131720000D03*
%TO.P,J2,8*%
%TO.N,/C*%
X136840000Y-129180000D03*
%TO.P,J2,3*%
%TO.N,/G*%
X129220000Y-129180000D03*
%TO.P,J2,7*%
%TO.N,Net-(J2-Pad7)*%
X136840000Y-131720000D03*
%TO.P,J2,2*%
%TO.N,/F*%
X129220000Y-126640000D03*
%TO.P,J2,6*%
%TO.N,/CA3*%
X136840000Y-134260000D03*
D11*
%TO.P,J2,1*%
X129220000Y-124100000D03*
%TD*%
D12*
%TO.P,J6,1*%
%TO.N,/D0*%
X120000000Y-140000000D03*
D13*
%TO.P,J6,2*%
%TO.N,/D1*%
X117460000Y-140000000D03*
%TO.P,J6,3*%
%TO.N,/D2*%
X114920000Y-140000000D03*
%TO.P,J6,4*%
%TO.N,/D3*%
X112380000Y-140000000D03*
%TO.P,J6,5*%
%TO.N,/D4*%
X109840000Y-140000000D03*
%TO.P,J6,6*%
%TO.N,/D5*%
X107300000Y-140000000D03*
%TO.P,J6,7*%
%TO.N,/D6*%
X104760000Y-140000000D03*
%TO.P,J6,8*%
%TO.N,/D7*%
X102220000Y-140000000D03*
%TO.P,J6,9*%
%TO.N,/D8*%
X99680000Y-140000000D03*
%TO.P,J6,10*%
%TO.N,/D9*%
X97140000Y-140000000D03*
%TO.P,J6,11*%
%TO.N,/D10*%
X94600000Y-140000000D03*
%TO.P,J6,12*%
%TO.N,/D11*%
X92060000Y-140000000D03*
%TO.P,J6,13*%
%TO.N,/D12*%
X89520000Y-140000000D03*
%TO.P,J6,14*%
%TO.N,/D13*%
X86980000Y-140000000D03*
%TO.P,J6,15*%
%TO.N,/D14*%
X84440000Y-140000000D03*
%TO.P,J6,16*%
%TO.N,/D15*%
X81900000Y-140000000D03*
%TD*%
%TO.P,C1,1*%
%TO.N,VCC*%
%TA.AperFunction,SMDPad,CuDef*%
G36*
G01*
X82650001Y-127987500D02*
X81349999Y-127987500D01*
G75*
G02*
X81100000Y-127737501I0J249999D01*
G01*
X81100000Y-126912499D01*
G75*
G02*
X81349999Y-126662500I249999J0D01*
G01*
X82650001Y-126662500D01*
G75*
G02*
X82900000Y-126912499I0J-249999D01*
G01*
X82900000Y-127737501D01*
G75*
G02*
X82650001Y-127987500I-249999J0D01*
G01*
G37*
%TD.AperFunction*%
%TO.P,C1,2*%
%TO.N,GND*%
%TA.AperFunction,SMDPad,CuDef*%
G36*
G01*
X82650001Y-124862500D02*
X81349999Y-124862500D01*
G75*
G02*
X81100000Y-124612501I0J249999D01*
G01*
X81100000Y-123787499D01*
G75*
G02*
X81349999Y-123537500I249999J0D01*
G01*
X82650001Y-123537500D01*
G75*
G02*
X82900000Y-123787499I0J-249999D01*
G01*
X82900000Y-124612501D01*
G75*
G02*
X82650001Y-124862500I-249999J0D01*
G01*
G37*
%TD.AperFunction*%
%TD*%
D11*
%TO.P,J1,1*%
%TO.N,/CA4*%
X139380000Y-124100000D03*
D10*
%TO.P,J1,6*%
X147000000Y-134260000D03*
%TO.P,J1,2*%
%TO.N,/F*%
X139380000Y-126640000D03*
%TO.P,J1,7*%
%TO.N,Net-(J1-Pad7)*%
X147000000Y-131720000D03*
%TO.P,J1,3*%
%TO.N,/G*%
X139380000Y-129180000D03*
%TO.P,J1,8*%
%TO.N,/C*%
X147000000Y-129180000D03*
%TO.P,J1,4*%
%TO.N,/E*%
X139380000Y-131720000D03*
%TO.P,J1,9*%
%TO.N,/B*%
X147000000Y-126640000D03*
%TO.P,J1,5*%
%TO.N,/D*%
X139380000Y-134260000D03*
%TO.P,J1,10*%
%TO.N,/A*%
X147000000Y-124100000D03*
%TD*%
D11*
%TO.P,J3,1*%
%TO.N,/CA2*%
X119060000Y-124100000D03*
D10*
%TO.P,J3,6*%
X126680000Y-134260000D03*
%TO.P,J3,2*%
%TO.N,/F*%
X119060000Y-126640000D03*
%TO.P,J3,7*%
%TO.N,Net-(J3-Pad7)*%
X126680000Y-131720000D03*
%TO.P,J3,3*%
%TO.N,/G*%
X119060000Y-129180000D03*
%TO.P,J3,8*%
%TO.N,/C*%
X126680000Y-129180000D03*
%TO.P,J3,4*%
%TO.N,/E*%
X119060000Y-131720000D03*
%TO.P,J3,9*%
%TO.N,/B*%
X126680000Y-126640000D03*
%TO.P,J3,5*%
%TO.N,/D*%
X119060000Y-134260000D03*
%TO.P,J3,10*%
%TO.N,/A*%
X126680000Y-124100000D03*
%TD*%
%TO.P,J4,10*%
%TO.N,/A*%
X116520000Y-124100000D03*
%TO.P,J4,5*%
%TO.N,/D*%
X108900000Y-134260000D03*
%TO.P,J4,9*%
%TO.N,/B*%
X116520000Y-126640000D03*
%TO.P,J4,4*%
%TO.N,/E*%
X108900000Y-131720000D03*
%TO.P,J4,8*%
%TO.N,/C*%
X116520000Y-129180000D03*
%TO.P,J4,3*%
%TO.N,/G*%
X108900000Y-129180000D03*
%TO.P,J4,7*%
%TO.N,Net-(J4-Pad7)*%
X116520000Y-131720000D03*
%TO.P,J4,2*%
%TO.N,/F*%
X108900000Y-126640000D03*
%TO.P,J4,6*%
%TO.N,/CA1*%
X116520000Y-134260000D03*
D11*
%TO.P,J4,1*%
X108900000Y-124100000D03*
%TD*%
D12*
%TO.P,J5,1*%
%TO.N,GND*%
X81900000Y-130380000D03*
D13*
%TO.P,J5,2*%
%TO.N,VCC*%
X81900000Y-132920000D03*
%TD*%
D12*
%TO.P,J7,1*%
%TO.N,GND*%
X78200000Y-125300000D03*
D13*
%TO.P,J7,2*%
%TO.N,VCC*%
X78200000Y-127840000D03*
%TO.P,J7,3*%
%TO.N,/MISO*%
X78200000Y-130380000D03*
%TO.P,J7,4*%
%TO.N,/SCK*%
X78200000Y-132920000D03*
%TO.P,J7,5*%
%TO.N,/~RESET*%
X78200000Y-135460000D03*
%TO.P,J7,6*%
%TO.N,/MOSI*%
X78200000Y-138000000D03*
%TD*%
D14*
%TO.P,Q1,3*%
%TO.N,/CA1*%
X113700000Y-119200000D03*
%TO.P,Q1,2*%
%TO.N,VCC*%
X111700000Y-120150000D03*
%TO.P,Q1,1*%
%TO.N,Net-(Q1-Pad1)*%
X111700000Y-118250000D03*
%TD*%
%TO.P,Q2,1*%
%TO.N,Net-(Q2-Pad1)*%
X122000000Y-118150000D03*
%TO.P,Q2,2*%
%TO.N,VCC*%
X122000000Y-120050000D03*
%TO.P,Q2,3*%
%TO.N,/CA2*%
X124000000Y-119100000D03*
%TD*%
%TO.P,Q3,1*%
%TO.N,Net-(Q3-Pad1)*%
X132100000Y-118250000D03*
%TO.P,Q3,2*%
%TO.N,VCC*%
X132100000Y-120150000D03*
%TO.P,Q3,3*%
%TO.N,/CA3*%
X134100000Y-119200000D03*
%TD*%
%TO.P,Q4,3*%
%TO.N,/CA4*%
X144300000Y-119200000D03*
%TO.P,Q4,2*%
%TO.N,VCC*%
X142300000Y-120150000D03*
%TO.P,Q4,1*%
%TO.N,Net-(Q4-Pad1)*%
X142300000Y-118250000D03*
%TD*%
%TO.P,R1,1*%
%TO.N,Net-(R1-Pad1)*%
%TA.AperFunction,SMDPad,CuDef*%
G36*
G01*
X101500000Y-122650001D02*
X101500000Y-121749999D01*
G75*
G02*
X101749999Y-121500000I249999J0D01*
G01*
X102450001Y-121500000D01*
G75*
G02*
X102700000Y-121749999I0J-249999D01*
G01*
X102700000Y-122650001D01*
G75*
G02*
X102450001Y-122900000I-249999J0D01*
G01*
X101749999Y-122900000D01*
G75*
G02*
X101500000Y-122650001I0J249999D01*
G01*
G37*
%TD.AperFunction*%
%TO.P,R1,2*%
%TO.N,/A*%
%TA.AperFunction,SMDPad,CuDef*%
G36*
G01*
X103500000Y-122650001D02*
X103500000Y-121749999D01*
G75*
G02*
X103749999Y-121500000I249999J0D01*
G01*
X104450001Y-121500000D01*
G75*
G02*
X104700000Y-121749999I0J-249999D01*
G01*
X104700000Y-122650001D01*
G75*
G02*
X104450001Y-122900000I-249999J0D01*
G01*
X103749999Y-122900000D01*
G75*
G02*
X103500000Y-122650001I0J249999D01*
G01*
G37*
%TD.AperFunction*%
%TD*%
%TO.P,R2,2*%
%TO.N,/B*%
%TA.AperFunction,SMDPad,CuDef*%
G36*
G01*
X103500000Y-124900001D02*
X103500000Y-123999999D01*
G75*
G02*
X103749999Y-123750000I249999J0D01*
G01*
X104450001Y-123750000D01*
G75*
G02*
X104700000Y-123999999I0J-249999D01*
G01*
X104700000Y-124900001D01*
G75*
G02*
X104450001Y-125150000I-249999J0D01*
G01*
X103749999Y-125150000D01*
G75*
G02*
X103500000Y-124900001I0J249999D01*
G01*
G37*
%TD.AperFunction*%
%TO.P,R2,1*%
%TO.N,Net-(R2-Pad1)*%
%TA.AperFunction,SMDPad,CuDef*%
G36*
G01*
X101500000Y-124900001D02*
X101500000Y-123999999D01*
G75*
G02*
X101749999Y-123750000I249999J0D01*
G01*
X102450001Y-123750000D01*
G75*
G02*
X102700000Y-123999999I0J-249999D01*
G01*
X102700000Y-124900001D01*
G75*
G02*
X102450001Y-125150000I-249999J0D01*
G01*
X101749999Y-125150000D01*
G75*
G02*
X101500000Y-124900001I0J249999D01*
G01*
G37*
%TD.AperFunction*%
%TD*%
%TO.P,R3,1*%
%TO.N,Net-(R3-Pad1)*%
%TA.AperFunction,SMDPad,CuDef*%
G36*
G01*
X101500000Y-127150001D02*
X101500000Y-126249999D01*
G75*
G02*
X101749999Y-126000000I249999J0D01*
G01*
X102450001Y-126000000D01*
G75*
G02*
X102700000Y-126249999I0J-249999D01*
G01*
X102700000Y-127150001D01*
G75*
G02*
X102450001Y-127400000I-249999J0D01*
G01*
X101749999Y-127400000D01*
G75*
G02*
X101500000Y-127150001I0J249999D01*
G01*
G37*
%TD.AperFunction*%
%TO.P,R3,2*%
%TO.N,/C*%
%TA.AperFunction,SMDPad,CuDef*%
G36*
G01*
X103500000Y-127150001D02*
X103500000Y-126249999D01*
G75*
G02*
X103749999Y-126000000I249999J0D01*
G01*
X104450001Y-126000000D01*
G75*
G02*
X104700000Y-126249999I0J-249999D01*
G01*
X104700000Y-127150001D01*
G75*
G02*
X104450001Y-127400000I-249999J0D01*
G01*
X103749999Y-127400000D01*
G75*
G02*
X103500000Y-127150001I0J249999D01*
G01*
G37*
%TD.AperFunction*%
%TD*%
%TO.P,R4,2*%
%TO.N,/D*%
%TA.AperFunction,SMDPad,CuDef*%
G36*
G01*
X103500000Y-129400001D02*
X103500000Y-128499999D01*
G75*
G02*
X103749999Y-128250000I249999J0D01*
G01*
X104450001Y-128250000D01*
G75*
G02*
X104700000Y-128499999I0J-249999D01*
G01*
X104700000Y-129400001D01*
G75*
G02*
X104450001Y-129650000I-249999J0D01*
G01*
X103749999Y-129650000D01*
G75*
G02*
X103500000Y-129400001I0J249999D01*
G01*
G37*
%TD.AperFunction*%
%TO.P,R4,1*%
%TO.N,Net-(R4-Pad1)*%
%TA.AperFunction,SMDPad,CuDef*%
G36*
G01*
X101500000Y-129400001D02*
X101500000Y-128499999D01*
G75*
G02*
X101749999Y-128250000I249999J0D01*
G01*
X102450001Y-128250000D01*
G75*
G02*
X102700000Y-128499999I0J-249999D01*
G01*
X102700000Y-129400001D01*
G75*
G02*
X102450001Y-129650000I-249999J0D01*
G01*
X101749999Y-129650000D01*
G75*
G02*
X101500000Y-129400001I0J249999D01*
G01*
G37*
%TD.AperFunction*%
%TD*%
%TO.P,R5,1*%
%TO.N,Net-(R5-Pad1)*%
%TA.AperFunction,SMDPad,CuDef*%
G36*
G01*
X101500000Y-131650001D02*
X101500000Y-130749999D01*
G75*
G02*
X101749999Y-130500000I249999J0D01*
G01*
X102450001Y-130500000D01*
G75*
G02*
X102700000Y-130749999I0J-249999D01*
G01*
X102700000Y-131650001D01*
G75*
G02*
X102450001Y-131900000I-249999J0D01*
G01*
X101749999Y-131900000D01*
G75*
G02*
X101500000Y-131650001I0J249999D01*
G01*
G37*
%TD.AperFunction*%
%TO.P,R5,2*%
%TO.N,/E*%
%TA.AperFunction,SMDPad,CuDef*%
G36*
G01*
X103500000Y-131650001D02*
X103500000Y-130749999D01*
G75*
G02*
X103749999Y-130500000I249999J0D01*
G01*
X104450001Y-130500000D01*
G75*
G02*
X104700000Y-130749999I0J-249999D01*
G01*
X104700000Y-131650001D01*
G75*
G02*
X104450001Y-131900000I-249999J0D01*
G01*
X103749999Y-131900000D01*
G75*
G02*
X103500000Y-131650001I0J249999D01*
G01*
G37*
%TD.AperFunction*%
%TD*%
%TO.P,R6,2*%
%TO.N,/F*%
%TA.AperFunction,SMDPad,CuDef*%
G36*
G01*
X103500000Y-133900001D02*
X103500000Y-132999999D01*
G75*
G02*
X103749999Y-132750000I249999J0D01*
G01*
X104450001Y-132750000D01*
G75*
G02*
X104700000Y-132999999I0J-249999D01*
G01*
X104700000Y-133900001D01*
G75*
G02*
X104450001Y-134150000I-249999J0D01*
G01*
X103749999Y-134150000D01*
G75*
G02*
X103500000Y-133900001I0J249999D01*
G01*
G37*
%TD.AperFunction*%
%TO.P,R6,1*%
%TO.N,Net-(R6-Pad1)*%
%TA.AperFunction,SMDPad,CuDef*%
G36*
G01*
X101500000Y-133900001D02*
X101500000Y-132999999D01*
G75*
G02*
X101749999Y-132750000I249999J0D01*
G01*
X102450001Y-132750000D01*
G75*
G02*
X102700000Y-132999999I0J-249999D01*
G01*
X102700000Y-133900001D01*
G75*
G02*
X102450001Y-134150000I-249999J0D01*
G01*
X101749999Y-134150000D01*
G75*
G02*
X101500000Y-133900001I0J249999D01*
G01*
G37*
%TD.AperFunction*%
%TD*%
%TO.P,R7,1*%
%TO.N,Net-(R7-Pad1)*%
%TA.AperFunction,SMDPad,CuDef*%
G36*
G01*
X101500000Y-136150001D02*
X101500000Y-135249999D01*
G75*
G02*
X101749999Y-135000000I249999J0D01*
G01*
X102450001Y-135000000D01*
G75*
G02*
X102700000Y-135249999I0J-249999D01*
G01*
X102700000Y-136150001D01*
G75*
G02*
X102450001Y-136400000I-249999J0D01*
G01*
X101749999Y-136400000D01*
G75*
G02*
X101500000Y-136150001I0J249999D01*
G01*
G37*
%TD.AperFunction*%
%TO.P,R7,2*%
%TO.N,/G*%
%TA.AperFunction,SMDPad,CuDef*%
G36*
G01*
X103500000Y-136150001D02*
X103500000Y-135249999D01*
G75*
G02*
X103749999Y-135000000I249999J0D01*
G01*
X104450001Y-135000000D01*
G75*
G02*
X104700000Y-135249999I0J-249999D01*
G01*
X104700000Y-136150001D01*
G75*
G02*
X104450001Y-136400000I-249999J0D01*
G01*
X103749999Y-136400000D01*
G75*
G02*
X103500000Y-136150001I0J249999D01*
G01*
G37*
%TD.AperFunction*%
%TD*%
%TO.P,R8,1*%
%TO.N,Net-(Q1-Pad1)*%
%TA.AperFunction,SMDPad,CuDef*%
G36*
G01*
X97049999Y-118100000D02*
X97950001Y-118100000D01*
G75*
G02*
X98200000Y-118349999I0J-249999D01*
G01*
X98200000Y-119050001D01*
G75*
G02*
X97950001Y-119300000I-249999J0D01*
G01*
X97049999Y-119300000D01*
G75*
G02*
X96800000Y-119050001I0J249999D01*
G01*
X96800000Y-118349999D01*
G75*
G02*
X97049999Y-118100000I249999J0D01*
G01*
G37*
%TD.AperFunction*%
%TO.P,R8,2*%
%TO.N,Net-(R8-Pad2)*%
%TA.AperFunction,SMDPad,CuDef*%
G36*
G01*
X97049999Y-120100000D02*
X97950001Y-120100000D01*
G75*
G02*
X98200000Y-120349999I0J-249999D01*
G01*
X98200000Y-121050001D01*
G75*
G02*
X97950001Y-121300000I-249999J0D01*
G01*
X97049999Y-121300000D01*
G75*
G02*
X96800000Y-121050001I0J249999D01*
G01*
X96800000Y-120349999D01*
G75*
G02*
X97049999Y-120100000I249999J0D01*
G01*
G37*
%TD.AperFunction*%
%TD*%
%TO.P,R9,2*%
%TO.N,Net-(R9-Pad2)*%
%TA.AperFunction,SMDPad,CuDef*%
G36*
G01*
X93749999Y-120100000D02*
X94650001Y-120100000D01*
G75*
G02*
X94900000Y-120349999I0J-249999D01*
G01*
X94900000Y-121050001D01*
G75*
G02*
X94650001Y-121300000I-249999J0D01*
G01*
X93749999Y-121300000D01*
G75*
G02*
X93500000Y-121050001I0J249999D01*
G01*
X93500000Y-120349999D01*
G75*
G02*
X93749999Y-120100000I249999J0D01*
G01*
G37*
%TD.AperFunction*%
%TO.P,R9,1*%
%TO.N,Net-(Q2-Pad1)*%
%TA.AperFunction,SMDPad,CuDef*%
G36*
G01*
X93749999Y-118100000D02*
X94650001Y-118100000D01*
G75*
G02*
X94900000Y-118349999I0J-249999D01*
G01*
X94900000Y-119050001D01*
G75*
G02*
X94650001Y-119300000I-249999J0D01*
G01*
X93749999Y-119300000D01*
G75*
G02*
X93500000Y-119050001I0J249999D01*
G01*
X93500000Y-118349999D01*
G75*
G02*
X93749999Y-118100000I249999J0D01*
G01*
G37*
%TD.AperFunction*%
%TD*%
%TO.P,R10,1*%
%TO.N,Net-(Q3-Pad1)*%
%TA.AperFunction,SMDPad,CuDef*%
G36*
G01*
X90449999Y-118100000D02*
X91350001Y-118100000D01*
G75*
G02*
X91600000Y-118349999I0J-249999D01*
G01*
X91600000Y-119050001D01*
G75*
G02*
X91350001Y-119300000I-249999J0D01*
G01*
X90449999Y-119300000D01*
G75*
G02*
X90200000Y-119050001I0J249999D01*
G01*
X90200000Y-118349999D01*
G75*
G02*
X90449999Y-118100000I249999J0D01*
G01*
G37*
%TD.AperFunction*%
%TO.P,R10,2*%
%TO.N,Net-(R10-Pad2)*%
%TA.AperFunction,SMDPad,CuDef*%
G36*
G01*
X90449999Y-120100000D02*
X91350001Y-120100000D01*
G75*
G02*
X91600000Y-120349999I0J-249999D01*
G01*
X91600000Y-121050001D01*
G75*
G02*
X91350001Y-121300000I-249999J0D01*
G01*
X90449999Y-121300000D01*
G75*
G02*
X90200000Y-121050001I0J249999D01*
G01*
X90200000Y-120349999D01*
G75*
G02*
X90449999Y-120100000I249999J0D01*
G01*
G37*
%TD.AperFunction*%
%TD*%
%TO.P,R11,2*%
%TO.N,Net-(R11-Pad2)*%
%TA.AperFunction,SMDPad,CuDef*%
G36*
G01*
X87049999Y-120100000D02*
X87950001Y-120100000D01*
G75*
G02*
X88200000Y-120349999I0J-249999D01*
G01*
X88200000Y-121050001D01*
G75*
G02*
X87950001Y-121300000I-249999J0D01*
G01*
X87049999Y-121300000D01*
G75*
G02*
X86800000Y-121050001I0J249999D01*
G01*
X86800000Y-120349999D01*
G75*
G02*
X87049999Y-120100000I249999J0D01*
G01*
G37*
%TD.AperFunction*%
%TO.P,R11,1*%
%TO.N,Net-(Q4-Pad1)*%
%TA.AperFunction,SMDPad,CuDef*%
G36*
G01*
X87049999Y-118100000D02*
X87950001Y-118100000D01*
G75*
G02*
X88200000Y-118349999I0J-249999D01*
G01*
X88200000Y-119050001D01*
G75*
G02*
X87950001Y-119300000I-249999J0D01*
G01*
X87049999Y-119300000D01*
G75*
G02*
X86800000Y-119050001I0J249999D01*
G01*
X86800000Y-118349999D01*
G75*
G02*
X87049999Y-118100000I249999J0D01*
G01*
G37*
%TD.AperFunction*%
%TD*%
%TO.P,U1,1*%
%TO.N,/MOSI*%
%TA.AperFunction,SMDPad,CuDef*%
G36*
G01*
X85300000Y-125737500D02*
X85300000Y-125462500D01*
G75*
G02*
X85437500Y-125325000I137500J0D01*
G01*
X86637500Y-125325000D01*
G75*
G02*
X86775000Y-125462500I0J-137500D01*
G01*
X86775000Y-125737500D01*
G75*
G02*
X86637500Y-125875000I-137500J0D01*
G01*
X85437500Y-125875000D01*
G75*
G02*
X85300000Y-125737500I0J137500D01*
G01*
G37*
%TD.AperFunction*%
%TO.P,U1,2*%
%TO.N,/MISO*%
%TA.AperFunction,SMDPad,CuDef*%
G36*
G01*
X85300000Y-126537500D02*
X85300000Y-126262500D01*
G75*
G02*
X85437500Y-126125000I137500J0D01*
G01*
X86637500Y-126125000D01*
G75*
G02*
X86775000Y-126262500I0J-137500D01*
G01*
X86775000Y-126537500D01*
G75*
G02*
X86637500Y-126675000I-137500J0D01*
G01*
X85437500Y-126675000D01*
G75*
G02*
X85300000Y-126537500I0J137500D01*
G01*
G37*
%TD.AperFunction*%
%TO.P,U1,3*%
%TO.N,/SCK*%
%TA.AperFunction,SMDPad,CuDef*%
G36*
G01*
X85300000Y-127337500D02*
X85300000Y-127062500D01*
G75*
G02*
X85437500Y-126925000I137500J0D01*
G01*
X86637500Y-126925000D01*
G75*
G02*
X86775000Y-127062500I0J-137500D01*
G01*
X86775000Y-127337500D01*
G75*
G02*
X86637500Y-127475000I-137500J0D01*
G01*
X85437500Y-127475000D01*
G75*
G02*
X85300000Y-127337500I0J137500D01*
G01*
G37*
%TD.AperFunction*%
%TO.P,U1,4*%
%TO.N,/~RESET*%
%TA.AperFunction,SMDPad,CuDef*%
G36*
G01*
X85300000Y-128137500D02*
X85300000Y-127862500D01*
G75*
G02*
X85437500Y-127725000I137500J0D01*
G01*
X86637500Y-127725000D01*
G75*
G02*
X86775000Y-127862500I0J-137500D01*
G01*
X86775000Y-128137500D01*
G75*
G02*
X86637500Y-128275000I-137500J0D01*
G01*
X85437500Y-128275000D01*
G75*
G02*
X85300000Y-128137500I0J137500D01*
G01*
G37*
%TD.AperFunction*%
%TO.P,U1,5*%
%TO.N,VCC*%
%TA.AperFunction,SMDPad,CuDef*%
G36*
G01*
X85300000Y-128937500D02*
X85300000Y-128662500D01*
G75*
G02*
X85437500Y-128525000I137500J0D01*
G01*
X86637500Y-128525000D01*
G75*
G02*
X86775000Y-128662500I0J-137500D01*
G01*
X86775000Y-128937500D01*
G75*
G02*
X86637500Y-129075000I-137500J0D01*
G01*
X85437500Y-129075000D01*
G75*
G02*
X85300000Y-128937500I0J137500D01*
G01*
G37*
%TD.AperFunction*%
%TO.P,U1,6*%
%TO.N,GND*%
%TA.AperFunction,SMDPad,CuDef*%
G36*
G01*
X85300000Y-129737500D02*
X85300000Y-129462500D01*
G75*
G02*
X85437500Y-129325000I137500J0D01*
G01*
X86637500Y-129325000D01*
G75*
G02*
X86775000Y-129462500I0J-137500D01*
G01*
X86775000Y-129737500D01*
G75*
G02*
X86637500Y-129875000I-137500J0D01*
G01*
X85437500Y-129875000D01*
G75*
G02*
X85300000Y-129737500I0J137500D01*
G01*
G37*
%TD.AperFunction*%
%TO.P,U1,7*%
%TO.N,Net-(U1-Pad7)*%
%TA.AperFunction,SMDPad,CuDef*%
G36*
G01*
X85300000Y-130537500D02*
X85300000Y-130262500D01*
G75*
G02*
X85437500Y-130125000I137500J0D01*
G01*
X86637500Y-130125000D01*
G75*
G02*
X86775000Y-130262500I0J-137500D01*
G01*
X86775000Y-130537500D01*
G75*
G02*
X86637500Y-130675000I-137500J0D01*
G01*
X85437500Y-130675000D01*
G75*
G02*
X85300000Y-130537500I0J137500D01*
G01*
G37*
%TD.AperFunction*%
%TO.P,U1,8*%
%TO.N,Net-(U1-Pad8)*%
%TA.AperFunction,SMDPad,CuDef*%
G36*
G01*
X85300000Y-131337500D02*
X85300000Y-131062500D01*
G75*
G02*
X85437500Y-130925000I137500J0D01*
G01*
X86637500Y-130925000D01*
G75*
G02*
X86775000Y-131062500I0J-137500D01*
G01*
X86775000Y-131337500D01*
G75*
G02*
X86637500Y-131475000I-137500J0D01*
G01*
X85437500Y-131475000D01*
G75*
G02*
X85300000Y-131337500I0J137500D01*
G01*
G37*
%TD.AperFunction*%
%TO.P,U1,9*%
%TO.N,/D0*%
%TA.AperFunction,SMDPad,CuDef*%
G36*
G01*
X85300000Y-132137500D02*
X85300000Y-131862500D01*
G75*
G02*
X85437500Y-131725000I137500J0D01*
G01*
X86637500Y-131725000D01*
G75*
G02*
X86775000Y-131862500I0J-137500D01*
G01*
X86775000Y-132137500D01*
G75*
G02*
X86637500Y-132275000I-137500J0D01*
G01*
X85437500Y-132275000D01*
G75*
G02*
X85300000Y-132137500I0J137500D01*
G01*
G37*
%TD.AperFunction*%
%TO.P,U1,10*%
%TO.N,/D1*%
%TA.AperFunction,SMDPad,CuDef*%
G36*
G01*
X85300000Y-132937500D02*
X85300000Y-132662500D01*
G75*
G02*
X85437500Y-132525000I137500J0D01*
G01*
X86637500Y-132525000D01*
G75*
G02*
X86775000Y-132662500I0J-137500D01*
G01*
X86775000Y-132937500D01*
G75*
G02*
X86637500Y-133075000I-137500J0D01*
G01*
X85437500Y-133075000D01*
G75*
G02*
X85300000Y-132937500I0J137500D01*
G01*
G37*
%TD.AperFunction*%
%TO.P,U1,11*%
%TO.N,/D2*%
%TA.AperFunction,SMDPad,CuDef*%
G36*
G01*
X85300000Y-133737500D02*
X85300000Y-133462500D01*
G75*
G02*
X85437500Y-133325000I137500J0D01*
G01*
X86637500Y-133325000D01*
G75*
G02*
X86775000Y-133462500I0J-137500D01*
G01*
X86775000Y-133737500D01*
G75*
G02*
X86637500Y-133875000I-137500J0D01*
G01*
X85437500Y-133875000D01*
G75*
G02*
X85300000Y-133737500I0J137500D01*
G01*
G37*
%TD.AperFunction*%
%TO.P,U1,12*%
%TO.N,/D3*%
%TA.AperFunction,SMDPad,CuDef*%
G36*
G01*
X87425000Y-135862500D02*
X87425000Y-134662500D01*
G75*
G02*
X87562500Y-134525000I137500J0D01*
G01*
X87837500Y-134525000D01*
G75*
G02*
X87975000Y-134662500I0J-137500D01*
G01*
X87975000Y-135862500D01*
G75*
G02*
X87837500Y-136000000I-137500J0D01*
G01*
X87562500Y-136000000D01*
G75*
G02*
X87425000Y-135862500I0J137500D01*
G01*
G37*
%TD.AperFunction*%
%TO.P,U1,13*%
%TO.N,/D4*%
%TA.AperFunction,SMDPad,CuDef*%
G36*
G01*
X88225000Y-135862500D02*
X88225000Y-134662500D01*
G75*
G02*
X88362500Y-134525000I137500J0D01*
G01*
X88637500Y-134525000D01*
G75*
G02*
X88775000Y-134662500I0J-137500D01*
G01*
X88775000Y-135862500D01*
G75*
G02*
X88637500Y-136000000I-137500J0D01*
G01*
X88362500Y-136000000D01*
G75*
G02*
X88225000Y-135862500I0J137500D01*
G01*
G37*
%TD.AperFunction*%
%TO.P,U1,14*%
%TO.N,/D5*%
%TA.AperFunction,SMDPad,CuDef*%
G36*
G01*
X89025000Y-135862500D02*
X89025000Y-134662500D01*
G75*
G02*
X89162500Y-134525000I137500J0D01*
G01*
X89437500Y-134525000D01*
G75*
G02*
X89575000Y-134662500I0J-137500D01*
G01*
X89575000Y-135862500D01*
G75*
G02*
X89437500Y-136000000I-137500J0D01*
G01*
X89162500Y-136000000D01*
G75*
G02*
X89025000Y-135862500I0J137500D01*
G01*
G37*
%TD.AperFunction*%
%TO.P,U1,15*%
%TO.N,/D6*%
%TA.AperFunction,SMDPad,CuDef*%
G36*
G01*
X89825000Y-135862500D02*
X89825000Y-134662500D01*
G75*
G02*
X89962500Y-134525000I137500J0D01*
G01*
X90237500Y-134525000D01*
G75*
G02*
X90375000Y-134662500I0J-137500D01*
G01*
X90375000Y-135862500D01*
G75*
G02*
X90237500Y-136000000I-137500J0D01*
G01*
X89962500Y-136000000D01*
G75*
G02*
X89825000Y-135862500I0J137500D01*
G01*
G37*
%TD.AperFunction*%
%TO.P,U1,16*%
%TO.N,/D7*%
%TA.AperFunction,SMDPad,CuDef*%
G36*
G01*
X90625000Y-135862500D02*
X90625000Y-134662500D01*
G75*
G02*
X90762500Y-134525000I137500J0D01*
G01*
X91037500Y-134525000D01*
G75*
G02*
X91175000Y-134662500I0J-137500D01*
G01*
X91175000Y-135862500D01*
G75*
G02*
X91037500Y-136000000I-137500J0D01*
G01*
X90762500Y-136000000D01*
G75*
G02*
X90625000Y-135862500I0J137500D01*
G01*
G37*
%TD.AperFunction*%
%TO.P,U1,17*%
%TO.N,VCC*%
%TA.AperFunction,SMDPad,CuDef*%
G36*
G01*
X91425000Y-135862500D02*
X91425000Y-134662500D01*
G75*
G02*
X91562500Y-134525000I137500J0D01*
G01*
X91837500Y-134525000D01*
G75*
G02*
X91975000Y-134662500I0J-137500D01*
G01*
X91975000Y-135862500D01*
G75*
G02*
X91837500Y-136000000I-137500J0D01*
G01*
X91562500Y-136000000D01*
G75*
G02*
X91425000Y-135862500I0J137500D01*
G01*
G37*
%TD.AperFunction*%
%TO.P,U1,18*%
%TO.N,GND*%
%TA.AperFunction,SMDPad,CuDef*%
G36*
G01*
X92225000Y-135862500D02*
X92225000Y-134662500D01*
G75*
G02*
X92362500Y-134525000I137500J0D01*
G01*
X92637500Y-134525000D01*
G75*
G02*
X92775000Y-134662500I0J-137500D01*
G01*
X92775000Y-135862500D01*
G75*
G02*
X92637500Y-136000000I-137500J0D01*
G01*
X92362500Y-136000000D01*
G75*
G02*
X92225000Y-135862500I0J137500D01*
G01*
G37*
%TD.AperFunction*%
%TO.P,U1,19*%
%TO.N,/D8*%
%TA.AperFunction,SMDPad,CuDef*%
G36*
G01*
X93025000Y-135862500D02*
X93025000Y-134662500D01*
G75*
G02*
X93162500Y-134525000I137500J0D01*
G01*
X93437500Y-134525000D01*
G75*
G02*
X93575000Y-134662500I0J-137500D01*
G01*
X93575000Y-135862500D01*
G75*
G02*
X93437500Y-136000000I-137500J0D01*
G01*
X93162500Y-136000000D01*
G75*
G02*
X93025000Y-135862500I0J137500D01*
G01*
G37*
%TD.AperFunction*%
%TO.P,U1,20*%
%TO.N,/D9*%
%TA.AperFunction,SMDPad,CuDef*%
G36*
G01*
X93825000Y-135862500D02*
X93825000Y-134662500D01*
G75*
G02*
X93962500Y-134525000I137500J0D01*
G01*
X94237500Y-134525000D01*
G75*
G02*
X94375000Y-134662500I0J-137500D01*
G01*
X94375000Y-135862500D01*
G75*
G02*
X94237500Y-136000000I-137500J0D01*
G01*
X93962500Y-136000000D01*
G75*
G02*
X93825000Y-135862500I0J137500D01*
G01*
G37*
%TD.AperFunction*%
%TO.P,U1,21*%
%TO.N,/D10*%
%TA.AperFunction,SMDPad,CuDef*%
G36*
G01*
X94625000Y-135862500D02*
X94625000Y-134662500D01*
G75*
G02*
X94762500Y-134525000I137500J0D01*
G01*
X95037500Y-134525000D01*
G75*
G02*
X95175000Y-134662500I0J-137500D01*
G01*
X95175000Y-135862500D01*
G75*
G02*
X95037500Y-136000000I-137500J0D01*
G01*
X94762500Y-136000000D01*
G75*
G02*
X94625000Y-135862500I0J137500D01*
G01*
G37*
%TD.AperFunction*%
%TO.P,U1,22*%
%TO.N,/D11*%
%TA.AperFunction,SMDPad,CuDef*%
G36*
G01*
X95425000Y-135862500D02*
X95425000Y-134662500D01*
G75*
G02*
X95562500Y-134525000I137500J0D01*
G01*
X95837500Y-134525000D01*
G75*
G02*
X95975000Y-134662500I0J-137500D01*
G01*
X95975000Y-135862500D01*
G75*
G02*
X95837500Y-136000000I-137500J0D01*
G01*
X95562500Y-136000000D01*
G75*
G02*
X95425000Y-135862500I0J137500D01*
G01*
G37*
%TD.AperFunction*%
%TO.P,U1,23*%
%TO.N,/D12*%
%TA.AperFunction,SMDPad,CuDef*%
G36*
G01*
X96625000Y-133737500D02*
X96625000Y-133462500D01*
G75*
G02*
X96762500Y-133325000I137500J0D01*
G01*
X97962500Y-133325000D01*
G75*
G02*
X98100000Y-133462500I0J-137500D01*
G01*
X98100000Y-133737500D01*
G75*
G02*
X97962500Y-133875000I-137500J0D01*
G01*
X96762500Y-133875000D01*
G75*
G02*
X96625000Y-133737500I0J137500D01*
G01*
G37*
%TD.AperFunction*%
%TO.P,U1,24*%
%TO.N,/D13*%
%TA.AperFunction,SMDPad,CuDef*%
G36*
G01*
X96625000Y-132937500D02*
X96625000Y-132662500D01*
G75*
G02*
X96762500Y-132525000I137500J0D01*
G01*
X97962500Y-132525000D01*
G75*
G02*
X98100000Y-132662500I0J-137500D01*
G01*
X98100000Y-132937500D01*
G75*
G02*
X97962500Y-133075000I-137500J0D01*
G01*
X96762500Y-133075000D01*
G75*
G02*
X96625000Y-132937500I0J137500D01*
G01*
G37*
%TD.AperFunction*%
%TO.P,U1,25*%
%TO.N,/D14*%
%TA.AperFunction,SMDPad,CuDef*%
G36*
G01*
X96625000Y-132137500D02*
X96625000Y-131862500D01*
G75*
G02*
X96762500Y-131725000I137500J0D01*
G01*
X97962500Y-131725000D01*
G75*
G02*
X98100000Y-131862500I0J-137500D01*
G01*
X98100000Y-132137500D01*
G75*
G02*
X97962500Y-132275000I-137500J0D01*
G01*
X96762500Y-132275000D01*
G75*
G02*
X96625000Y-132137500I0J137500D01*
G01*
G37*
%TD.AperFunction*%
%TO.P,U1,26*%
%TO.N,/D15*%
%TA.AperFunction,SMDPad,CuDef*%
G36*
G01*
X96625000Y-131337500D02*
X96625000Y-131062500D01*
G75*
G02*
X96762500Y-130925000I137500J0D01*
G01*
X97962500Y-130925000D01*
G75*
G02*
X98100000Y-131062500I0J-137500D01*
G01*
X98100000Y-131337500D01*
G75*
G02*
X97962500Y-131475000I-137500J0D01*
G01*
X96762500Y-131475000D01*
G75*
G02*
X96625000Y-131337500I0J137500D01*
G01*
G37*
%TD.AperFunction*%
%TO.P,U1,27*%
%TO.N,VCC*%
%TA.AperFunction,SMDPad,CuDef*%
G36*
G01*
X96625000Y-130537500D02*
X96625000Y-130262500D01*
G75*
G02*
X96762500Y-130125000I137500J0D01*
G01*
X97962500Y-130125000D01*
G75*
G02*
X98100000Y-130262500I0J-137500D01*
G01*
X98100000Y-130537500D01*
G75*
G02*
X97962500Y-130675000I-137500J0D01*
G01*
X96762500Y-130675000D01*
G75*
G02*
X96625000Y-130537500I0J137500D01*
G01*
G37*
%TD.AperFunction*%
%TO.P,U1,28*%
%TO.N,GND*%
%TA.AperFunction,SMDPad,CuDef*%
G36*
G01*
X96625000Y-129737500D02*
X96625000Y-129462500D01*
G75*
G02*
X96762500Y-129325000I137500J0D01*
G01*
X97962500Y-129325000D01*
G75*
G02*
X98100000Y-129462500I0J-137500D01*
G01*
X98100000Y-129737500D01*
G75*
G02*
X97962500Y-129875000I-137500J0D01*
G01*
X96762500Y-129875000D01*
G75*
G02*
X96625000Y-129737500I0J137500D01*
G01*
G37*
%TD.AperFunction*%
%TO.P,U1,29*%
%TO.N,VCC*%
%TA.AperFunction,SMDPad,CuDef*%
G36*
G01*
X96625000Y-128937500D02*
X96625000Y-128662500D01*
G75*
G02*
X96762500Y-128525000I137500J0D01*
G01*
X97962500Y-128525000D01*
G75*
G02*
X98100000Y-128662500I0J-137500D01*
G01*
X98100000Y-128937500D01*
G75*
G02*
X97962500Y-129075000I-137500J0D01*
G01*
X96762500Y-129075000D01*
G75*
G02*
X96625000Y-128937500I0J137500D01*
G01*
G37*
%TD.AperFunction*%
%TO.P,U1,30*%
%TO.N,Net-(U1-Pad30)*%
%TA.AperFunction,SMDPad,CuDef*%
G36*
G01*
X96625000Y-128137500D02*
X96625000Y-127862500D01*
G75*
G02*
X96762500Y-127725000I137500J0D01*
G01*
X97962500Y-127725000D01*
G75*
G02*
X98100000Y-127862500I0J-137500D01*
G01*
X98100000Y-128137500D01*
G75*
G02*
X97962500Y-128275000I-137500J0D01*
G01*
X96762500Y-128275000D01*
G75*
G02*
X96625000Y-128137500I0J137500D01*
G01*
G37*
%TD.AperFunction*%
%TO.P,U1,31*%
%TO.N,Net-(R7-Pad1)*%
%TA.AperFunction,SMDPad,CuDef*%
G36*
G01*
X96625000Y-127337500D02*
X96625000Y-127062500D01*
G75*
G02*
X96762500Y-126925000I137500J0D01*
G01*
X97962500Y-126925000D01*
G75*
G02*
X98100000Y-127062500I0J-137500D01*
G01*
X98100000Y-127337500D01*
G75*
G02*
X97962500Y-127475000I-137500J0D01*
G01*
X96762500Y-127475000D01*
G75*
G02*
X96625000Y-127337500I0J137500D01*
G01*
G37*
%TD.AperFunction*%
%TO.P,U1,32*%
%TO.N,Net-(R6-Pad1)*%
%TA.AperFunction,SMDPad,CuDef*%
G36*
G01*
X96625000Y-126537500D02*
X96625000Y-126262500D01*
G75*
G02*
X96762500Y-126125000I137500J0D01*
G01*
X97962500Y-126125000D01*
G75*
G02*
X98100000Y-126262500I0J-137500D01*
G01*
X98100000Y-126537500D01*
G75*
G02*
X97962500Y-126675000I-137500J0D01*
G01*
X96762500Y-126675000D01*
G75*
G02*
X96625000Y-126537500I0J137500D01*
G01*
G37*
%TD.AperFunction*%
%TO.P,U1,33*%
%TO.N,Net-(R5-Pad1)*%
%TA.AperFunction,SMDPad,CuDef*%
G36*
G01*
X96625000Y-125737500D02*
X96625000Y-125462500D01*
G75*
G02*
X96762500Y-125325000I137500J0D01*
G01*
X97962500Y-125325000D01*
G75*
G02*
X98100000Y-125462500I0J-137500D01*
G01*
X98100000Y-125737500D01*
G75*
G02*
X97962500Y-125875000I-137500J0D01*
G01*
X96762500Y-125875000D01*
G75*
G02*
X96625000Y-125737500I0J137500D01*
G01*
G37*
%TD.AperFunction*%
%TO.P,U1,34*%
%TO.N,Net-(R4-Pad1)*%
%TA.AperFunction,SMDPad,CuDef*%
G36*
G01*
X95425000Y-124537500D02*
X95425000Y-123337500D01*
G75*
G02*
X95562500Y-123200000I137500J0D01*
G01*
X95837500Y-123200000D01*
G75*
G02*
X95975000Y-123337500I0J-137500D01*
G01*
X95975000Y-124537500D01*
G75*
G02*
X95837500Y-124675000I-137500J0D01*
G01*
X95562500Y-124675000D01*
G75*
G02*
X95425000Y-124537500I0J137500D01*
G01*
G37*
%TD.AperFunction*%
%TO.P,U1,35*%
%TO.N,Net-(R3-Pad1)*%
%TA.AperFunction,SMDPad,CuDef*%
G36*
G01*
X94625000Y-124537500D02*
X94625000Y-123337500D01*
G75*
G02*
X94762500Y-123200000I137500J0D01*
G01*
X95037500Y-123200000D01*
G75*
G02*
X95175000Y-123337500I0J-137500D01*
G01*
X95175000Y-124537500D01*
G75*
G02*
X95037500Y-124675000I-137500J0D01*
G01*
X94762500Y-124675000D01*
G75*
G02*
X94625000Y-124537500I0J137500D01*
G01*
G37*
%TD.AperFunction*%
%TO.P,U1,36*%
%TO.N,Net-(R2-Pad1)*%
%TA.AperFunction,SMDPad,CuDef*%
G36*
G01*
X93825000Y-124537500D02*
X93825000Y-123337500D01*
G75*
G02*
X93962500Y-123200000I137500J0D01*
G01*
X94237500Y-123200000D01*
G75*
G02*
X94375000Y-123337500I0J-137500D01*
G01*
X94375000Y-124537500D01*
G75*
G02*
X94237500Y-124675000I-137500J0D01*
G01*
X93962500Y-124675000D01*
G75*
G02*
X93825000Y-124537500I0J137500D01*
G01*
G37*
%TD.AperFunction*%
%TO.P,U1,37*%
%TO.N,Net-(R1-Pad1)*%
%TA.AperFunction,SMDPad,CuDef*%
G36*
G01*
X93025000Y-124537500D02*
X93025000Y-123337500D01*
G75*
G02*
X93162500Y-123200000I137500J0D01*
G01*
X93437500Y-123200000D01*
G75*
G02*
X93575000Y-123337500I0J-137500D01*
G01*
X93575000Y-124537500D01*
G75*
G02*
X93437500Y-124675000I-137500J0D01*
G01*
X93162500Y-124675000D01*
G75*
G02*
X93025000Y-124537500I0J137500D01*
G01*
G37*
%TD.AperFunction*%
%TO.P,U1,38*%
%TO.N,VCC*%
%TA.AperFunction,SMDPad,CuDef*%
G36*
G01*
X92225000Y-124537500D02*
X92225000Y-123337500D01*
G75*
G02*
X92362500Y-123200000I137500J0D01*
G01*
X92637500Y-123200000D01*
G75*
G02*
X92775000Y-123337500I0J-137500D01*
G01*
X92775000Y-124537500D01*
G75*
G02*
X92637500Y-124675000I-137500J0D01*
G01*
X92362500Y-124675000D01*
G75*
G02*
X92225000Y-124537500I0J137500D01*
G01*
G37*
%TD.AperFunction*%
%TO.P,U1,39*%
%TO.N,GND*%
%TA.AperFunction,SMDPad,CuDef*%
G36*
G01*
X91425000Y-124537500D02*
X91425000Y-123337500D01*
G75*
G02*
X91562500Y-123200000I137500J0D01*
G01*
X91837500Y-123200000D01*
G75*
G02*
X91975000Y-123337500I0J-137500D01*
G01*
X91975000Y-124537500D01*
G75*
G02*
X91837500Y-124675000I-137500J0D01*
G01*
X91562500Y-124675000D01*
G75*
G02*
X91425000Y-124537500I0J137500D01*
G01*
G37*
%TD.AperFunction*%
%TO.P,U1,40*%
%TO.N,Net-(R8-Pad2)*%
%TA.AperFunction,SMDPad,CuDef*%
G36*
G01*
X90625000Y-124537500D02*
X90625000Y-123337500D01*
G75*
G02*
X90762500Y-123200000I137500J0D01*
G01*
X91037500Y-123200000D01*
G75*
G02*
X91175000Y-123337500I0J-137500D01*
G01*
X91175000Y-124537500D01*
G75*
G02*
X91037500Y-124675000I-137500J0D01*
G01*
X90762500Y-124675000D01*
G75*
G02*
X90625000Y-124537500I0J137500D01*
G01*
G37*
%TD.AperFunction*%
%TO.P,U1,41*%
%TO.N,Net-(R9-Pad2)*%
%TA.AperFunction,SMDPad,CuDef*%
G36*
G01*
X89825000Y-124537500D02*
X89825000Y-123337500D01*
G75*
G02*
X89962500Y-123200000I137500J0D01*
G01*
X90237500Y-123200000D01*
G75*
G02*
X90375000Y-123337500I0J-137500D01*
G01*
X90375000Y-124537500D01*
G75*
G02*
X90237500Y-124675000I-137500J0D01*
G01*
X89962500Y-124675000D01*
G75*
G02*
X89825000Y-124537500I0J137500D01*
G01*
G37*
%TD.AperFunction*%
%TO.P,U1,42*%
%TO.N,Net-(R10-Pad2)*%
%TA.AperFunction,SMDPad,CuDef*%
G36*
G01*
X89025000Y-124537500D02*
X89025000Y-123337500D01*
G75*
G02*
X89162500Y-123200000I137500J0D01*
G01*
X89437500Y-123200000D01*
G75*
G02*
X89575000Y-123337500I0J-137500D01*
G01*
X89575000Y-124537500D01*
G75*
G02*
X89437500Y-124675000I-137500J0D01*
G01*
X89162500Y-124675000D01*
G75*
G02*
X89025000Y-124537500I0J137500D01*
G01*
G37*
%TD.AperFunction*%
%TO.P,U1,43*%
%TO.N,Net-(R11-Pad2)*%
%TA.AperFunction,SMDPad,CuDef*%
G36*
G01*
X88225000Y-124537500D02*
X88225000Y-123337500D01*
G75*
G02*
X88362500Y-123200000I137500J0D01*
G01*
X88637500Y-123200000D01*
G75*
G02*
X88775000Y-123337500I0J-137500D01*
G01*
X88775000Y-124537500D01*
G75*
G02*
X88637500Y-124675000I-137500J0D01*
G01*
X88362500Y-124675000D01*
G75*
G02*
X88225000Y-124537500I0J137500D01*
G01*
G37*
%TD.AperFunction*%
%TO.P,U1,44*%
%TO.N,Net-(U1-Pad44)*%
%TA.AperFunction,SMDPad,CuDef*%
G36*
G01*
X87425000Y-124537500D02*
X87425000Y-123337500D01*
G75*
G02*
X87562500Y-123200000I137500J0D01*
G01*
X87837500Y-123200000D01*
G75*
G02*
X87975000Y-123337500I0J-137500D01*
G01*
X87975000Y-124537500D01*
G75*
G02*
X87837500Y-124675000I-137500J0D01*
G01*
X87562500Y-124675000D01*
G75*
G02*
X87425000Y-124537500I0J137500D01*
G01*
G37*
%TD.AperFunction*%
%TD*%
D15*
%TO.N,VCC*%
X83500000Y-129100000D03*
X92500000Y-122700000D03*
X141100000Y-121200000D03*
X120823690Y-121776310D03*
X131123690Y-121776310D03*
X110576310Y-121776310D03*
X91661797Y-133800000D03*
X91700000Y-130300000D03*
%TO.N,GND*%
X92700000Y-129777700D03*
X90221117Y-128098817D03*
X80200000Y-125600000D03*
X92500000Y-133800000D03*
X86300000Y-124200000D03*
X88700000Y-129600000D03*
%TO.N,/F*%
X105200000Y-132700000D03*
%TO.N,/G*%
X105400000Y-134900000D03*
%TO.N,/C*%
X109500000Y-127900000D03*
X124200000Y-130128500D03*
X131000000Y-129900000D03*
X141400000Y-129700000D03*
X114100000Y-129900000D03*
%TO.N,/E*%
X106771500Y-131200000D03*
%TO.N,/B*%
X105400000Y-124500000D03*
X121000000Y-127000000D03*
X131000000Y-127000000D03*
X141200000Y-127000000D03*
%TO.N,/A*%
X105600000Y-122400000D03*
%TO.N,/D2*%
X83219645Y-135319645D03*
%TO.N,/D3*%
X88200000Y-140670080D03*
%TO.N,/D5*%
X107300000Y-137400000D03*
%TO.N,/D6*%
X104600000Y-137300000D03*
%TO.N,/D7*%
X102200000Y-137300000D03*
%TO.N,/D8*%
X99500000Y-137300000D03*
%TO.N,/D9*%
X97100000Y-136700000D03*
%TO.N,/D10*%
X94900000Y-136500000D03*
%TO.N,/D11*%
X95738203Y-136500000D03*
X95700000Y-139200000D03*
%TO.N,/D12*%
X95594523Y-132208814D03*
%TO.N,/D13*%
X94754910Y-131977898D03*
%TO.N,/D14*%
X94006059Y-131601329D03*
%TO.N,/D15*%
X93400000Y-131022300D03*
%TO.N,/SCK*%
X84800000Y-127200000D03*
%TO.N,/~RESET*%
X84800000Y-128100000D03*
%TO.N,Net-(Q2-Pad1)*%
X120500000Y-118100000D03*
X95800000Y-118100000D03*
%TO.N,Net-(Q3-Pad1)*%
X130800000Y-118200000D03*
X92400000Y-118900000D03*
%TO.N,Net-(Q4-Pad1)*%
X89200000Y-118900000D03*
X140800000Y-118300000D03*
%TD*%
D16*
%TO.N,VCC*%
X82000000Y-127325000D02*
X83125000Y-127325000D01*
X84600000Y-128800000D02*
X86037500Y-128800000D01*
X83125000Y-127325000D02*
X84600000Y-128800000D01*
X86037500Y-128800000D02*
X90400000Y-128800000D01*
X90400000Y-128800000D02*
X91700000Y-130100000D01*
X91800000Y-130400000D02*
X91700000Y-130300000D01*
X97362500Y-130400000D02*
X91800000Y-130400000D01*
X91700000Y-130100000D02*
X91700000Y-130300000D01*
X97362500Y-130400000D02*
X98400000Y-130400000D01*
X98400000Y-130400000D02*
X98700000Y-130100000D01*
X97362500Y-128800000D02*
X98400000Y-128800000D01*
X98700000Y-129100000D02*
X98400000Y-128800000D01*
X98700000Y-130100000D02*
X98700000Y-129100000D01*
X92500000Y-126700000D02*
X90400000Y-128800000D01*
X92500000Y-123937500D02*
X92500000Y-126700000D01*
X78715000Y-127325000D02*
X78200000Y-127840000D01*
X82000000Y-127325000D02*
X78715000Y-127325000D01*
X83500000Y-128825000D02*
X82000000Y-127325000D01*
X83500000Y-129100000D02*
X83500000Y-128825000D01*
X121900000Y-120150000D02*
X122000000Y-120050000D01*
X132000000Y-120050000D02*
X132100000Y-120150000D01*
X92500000Y-123937500D02*
X92500000Y-122700000D01*
X141250000Y-121200000D02*
X142300000Y-120150000D01*
X141100000Y-121200000D02*
X141250000Y-121200000D01*
X122000000Y-120600000D02*
X120823690Y-121776310D01*
X122000000Y-120050000D02*
X122000000Y-120600000D01*
X132100000Y-120800000D02*
X131123690Y-121776310D01*
X132100000Y-120150000D02*
X132100000Y-120800000D01*
X111700000Y-120652620D02*
X110576310Y-121776310D01*
X111700000Y-120150000D02*
X111700000Y-120652620D01*
X91700000Y-133838203D02*
X91661797Y-133800000D01*
X91700000Y-135262500D02*
X91700000Y-133838203D01*
%TO.N,GND*%
X79300000Y-124200000D02*
X78200000Y-125300000D01*
X82000000Y-124200000D02*
X79300000Y-124200000D01*
X92877700Y-129600000D02*
X92700000Y-129777700D01*
X97362500Y-129600000D02*
X92877700Y-129600000D01*
X91700000Y-123937500D02*
X91700000Y-126925250D01*
X90526433Y-128098817D02*
X90221117Y-128098817D01*
X91700000Y-126925250D02*
X90526433Y-128098817D01*
X80600000Y-125600000D02*
X82000000Y-124200000D01*
X80200000Y-125600000D02*
X80600000Y-125600000D01*
X92500000Y-133800000D02*
X92500000Y-135262500D01*
X82000000Y-124200000D02*
X86300000Y-124200000D01*
X88700000Y-129600000D02*
X86037500Y-129600000D01*
D17*
X92500000Y-135262500D02*
X92500000Y-135300000D01*
D16*
%TO.N,/CA4*%
X139380000Y-124100000D02*
X142000000Y-124100000D01*
X144300000Y-121800000D02*
X144300000Y-119200000D01*
X142000000Y-124100000D02*
X144300000Y-121800000D01*
X147000000Y-134260000D02*
X145860000Y-134260000D01*
X145860000Y-134260000D02*
X145600000Y-134000000D01*
X145600000Y-123100000D02*
X144300000Y-121800000D01*
X145600000Y-134000000D02*
X145600000Y-123100000D01*
D17*
%TO.N,/F*%
X104450000Y-133450000D02*
X105200000Y-132700000D01*
X104100000Y-133450000D02*
X104450000Y-133450000D01*
%TO.N,/G*%
X104600000Y-135700000D02*
X105400000Y-134900000D01*
X104100000Y-135700000D02*
X104600000Y-135700000D01*
%TO.N,/C*%
X116520000Y-129180000D02*
X116520000Y-128620000D01*
X109500000Y-127900000D02*
X107400000Y-127900000D01*
X106200000Y-126700000D02*
X104100000Y-126700000D01*
X107400000Y-127900000D02*
X106200000Y-126700000D01*
X117548601Y-130208601D02*
X117548601Y-130248601D01*
X116520000Y-129180000D02*
X117548601Y-130208601D01*
X124119899Y-130208601D02*
X124200000Y-130128500D01*
X117548601Y-130208601D02*
X124119899Y-130208601D01*
X126680000Y-129180000D02*
X126680000Y-129480000D01*
X126680000Y-129180000D02*
X126680000Y-129780000D01*
X126680000Y-129780000D02*
X127400000Y-130500000D01*
X127400000Y-130500000D02*
X129422330Y-130500000D01*
X130400000Y-130500000D02*
X131000000Y-129900000D01*
X129422330Y-130500000D02*
X130400000Y-130500000D01*
X136840000Y-129180000D02*
X138060000Y-130400000D01*
X140700000Y-130400000D02*
X141400000Y-129700000D01*
X138060000Y-130400000D02*
X140700000Y-130400000D01*
X114100000Y-129900000D02*
X111200000Y-129900000D01*
X111200000Y-129900000D02*
X111200000Y-129800000D01*
X109500000Y-128100000D02*
X109500000Y-127900000D01*
X111200000Y-129800000D02*
X109500000Y-128100000D01*
%TO.N,/E*%
X108900000Y-131720000D02*
X108820000Y-131720000D01*
X108820000Y-131720000D02*
X108300000Y-131200000D01*
X104100000Y-131200000D02*
X106700000Y-131200000D01*
X106700000Y-131200000D02*
X106771500Y-131200000D01*
%TO.N,/B*%
X104150000Y-124500000D02*
X104100000Y-124450000D01*
X105400000Y-124500000D02*
X104150000Y-124500000D01*
X116520000Y-126640000D02*
X117880000Y-128000000D01*
X117880000Y-128000000D02*
X119222330Y-128000000D01*
X120000000Y-128000000D02*
X121000000Y-127000000D01*
X119222330Y-128000000D02*
X120000000Y-128000000D01*
X126680000Y-126640000D02*
X128040000Y-128000000D01*
X130000000Y-128000000D02*
X131000000Y-127000000D01*
X128040000Y-128000000D02*
X130000000Y-128000000D01*
X136840000Y-126640000D02*
X138200000Y-128000000D01*
X140200000Y-128000000D02*
X141200000Y-127000000D01*
X138200000Y-128000000D02*
X140200000Y-128000000D01*
%TO.N,/D*%
X108160000Y-134260000D02*
X108900000Y-134260000D01*
X107343001Y-133443001D02*
X108160000Y-134260000D01*
X107343001Y-129943001D02*
X107343001Y-133443001D01*
X106350000Y-128950000D02*
X107343001Y-129943001D01*
X104100000Y-128950000D02*
X106350000Y-128950000D01*
%TO.N,/A*%
X104300000Y-122400000D02*
X104100000Y-122200000D01*
X105600000Y-122400000D02*
X104300000Y-122400000D01*
D16*
%TO.N,/CA3*%
X129220000Y-124100000D02*
X131900000Y-124100000D01*
X134100000Y-121900000D02*
X134100000Y-119200000D01*
X131900000Y-124100000D02*
X134100000Y-121900000D01*
X136840000Y-134260000D02*
X135760000Y-134260000D01*
X135760000Y-134260000D02*
X135300000Y-133800000D01*
X135300000Y-123100000D02*
X134100000Y-121900000D01*
X135300000Y-133800000D02*
X135300000Y-123100000D01*
%TO.N,/CA2*%
X119060000Y-124100000D02*
X121600000Y-124100000D01*
X124000000Y-121700000D02*
X124000000Y-119100000D01*
X121600000Y-124100000D02*
X124000000Y-121700000D01*
X126680000Y-134260000D02*
X125460000Y-134260000D01*
X125460000Y-134260000D02*
X125000000Y-133800000D01*
X125000000Y-122700000D02*
X124000000Y-121700000D01*
X125000000Y-133800000D02*
X125000000Y-122700000D01*
%TO.N,/CA1*%
X108900000Y-124100000D02*
X111500000Y-124100000D01*
X111500000Y-124100000D02*
X113700000Y-121900000D01*
X116520000Y-134260000D02*
X115060000Y-134260000D01*
X115060000Y-134260000D02*
X114800000Y-134000000D01*
X114800000Y-122900000D02*
X113700000Y-121800000D01*
X114800000Y-134000000D02*
X114800000Y-122900000D01*
X113700000Y-121800000D02*
X113700000Y-119200000D01*
X113700000Y-121900000D02*
X113700000Y-121800000D01*
D17*
%TO.N,/D0*%
X120000000Y-140900000D02*
X120000000Y-140000000D01*
X80146390Y-141546390D02*
X119353610Y-141546390D01*
X79700000Y-141100000D02*
X80146390Y-141546390D01*
X119353610Y-141546390D02*
X120000000Y-140900000D01*
X79700000Y-137600000D02*
X79700000Y-141100000D01*
X85300000Y-132000000D02*
X79700000Y-137600000D01*
X86037500Y-132000000D02*
X85300000Y-132000000D01*
%TO.N,/D1*%
X84931066Y-132800000D02*
X86037500Y-132800000D01*
X80004810Y-137726256D02*
X84931066Y-132800000D01*
X80004810Y-140673744D02*
X80004810Y-137726256D01*
X80572646Y-141241580D02*
X80004810Y-140673744D01*
X116958420Y-141241580D02*
X80572646Y-141241580D01*
X117460000Y-140740000D02*
X116958420Y-141241580D01*
X117460000Y-140000000D02*
X117460000Y-140740000D01*
%TO.N,/D2*%
X86037500Y-133600000D02*
X84600000Y-133600000D01*
X83219645Y-134980355D02*
X83219645Y-135319645D01*
X84600000Y-133600000D02*
X83219645Y-134980355D01*
%TO.N,/D3*%
X88200000Y-139623670D02*
X88200000Y-140670080D01*
X87700000Y-139123670D02*
X88200000Y-139623670D01*
X87700000Y-135262500D02*
X87700000Y-139123670D01*
%TO.N,/D4*%
X109840000Y-137640000D02*
X109840000Y-140000000D01*
X101623142Y-136700000D02*
X108900000Y-136700000D01*
X101523142Y-136600000D02*
X101623142Y-136700000D01*
X98800000Y-136600000D02*
X101523142Y-136600000D01*
X95428499Y-133228499D02*
X98800000Y-136600000D01*
X89271501Y-133228499D02*
X95428499Y-133228499D01*
X88500000Y-134000000D02*
X89271501Y-133228499D01*
X108900000Y-136700000D02*
X109840000Y-137640000D01*
X88500000Y-135262500D02*
X88500000Y-134000000D01*
%TO.N,/D5*%
X90642677Y-136604809D02*
X90818934Y-136781066D01*
X89904809Y-136604809D02*
X90642677Y-136604809D01*
X89300000Y-136000000D02*
X89904809Y-136604809D01*
X89300000Y-135262500D02*
X89300000Y-136000000D01*
X90818934Y-136781066D02*
X90947488Y-136909620D01*
X90947488Y-136909620D02*
X92739534Y-136909620D01*
X92739534Y-136909620D02*
X94144344Y-138314430D01*
X97085570Y-138314430D02*
X97185570Y-138214430D01*
X94144344Y-138314430D02*
X97085570Y-138314430D01*
X97185570Y-138214430D02*
X98600000Y-138214430D01*
X98706476Y-138214430D02*
X98973166Y-138481120D01*
X98600000Y-138214430D02*
X98706476Y-138214430D01*
X98973166Y-138481120D02*
X100026835Y-138481119D01*
X100026835Y-138481119D02*
X100331643Y-138176311D01*
X100331643Y-138176311D02*
X103123689Y-138176311D01*
X104874321Y-137871501D02*
X105400000Y-137345822D01*
X103428499Y-137871501D02*
X104874321Y-137871501D01*
X103123689Y-138176311D02*
X103428499Y-137871501D01*
X107245822Y-137345822D02*
X107300000Y-137400000D01*
X105400000Y-137345822D02*
X107245822Y-137345822D01*
%TO.N,/D6*%
X90100000Y-136000000D02*
X90100000Y-135262500D01*
X90400000Y-136300000D02*
X90100000Y-136000000D01*
X90768934Y-136300000D02*
X90400000Y-136300000D01*
X91073744Y-136604810D02*
X90768934Y-136300000D01*
X103400000Y-137300000D02*
X102828499Y-137871501D01*
X94270600Y-138009620D02*
X92865790Y-136604810D01*
X102828499Y-137871501D02*
X101925679Y-137871501D01*
X99099423Y-138176311D02*
X98832732Y-137909620D01*
X101925679Y-137871501D02*
X101854178Y-137800000D01*
X101854178Y-137800000D02*
X100276888Y-137800000D01*
X100276888Y-137800000D02*
X99900578Y-138176310D01*
X104600000Y-137300000D02*
X103400000Y-137300000D01*
X99900578Y-138176310D02*
X99099423Y-138176311D01*
X92865790Y-136604810D02*
X91073744Y-136604810D01*
X96906690Y-138009620D02*
X94270600Y-138009620D01*
X97006690Y-137909620D02*
X96906690Y-138009620D01*
X98832732Y-137909620D02*
X97006690Y-137909620D01*
%TO.N,/D7*%
X90900000Y-136000000D02*
X91200000Y-136300000D01*
X90900000Y-135262500D02*
X90900000Y-136000000D01*
X92995190Y-136300000D02*
X92995191Y-136303145D01*
X91200000Y-136300000D02*
X92995190Y-136300000D01*
X92995191Y-136303145D02*
X94396856Y-137704810D01*
X94396856Y-137704810D02*
X95600000Y-137704810D01*
X95600000Y-137704810D02*
X96400000Y-137704810D01*
X96400000Y-137704810D02*
X96527922Y-137704810D01*
X99225679Y-137871501D02*
X98958988Y-137604810D01*
X96780434Y-137704810D02*
X96400000Y-137704810D01*
X99774321Y-137871501D02*
X99225679Y-137871501D01*
X100345822Y-137300000D02*
X99774321Y-137871501D01*
X96880434Y-137604810D02*
X96780434Y-137704810D01*
X102200000Y-137300000D02*
X100345822Y-137300000D01*
X98958988Y-137604810D02*
X96880434Y-137604810D01*
%TO.N,/D8*%
X93300000Y-136176888D02*
X93300000Y-135262500D01*
X94523112Y-137400000D02*
X93300000Y-136176888D01*
X96654178Y-137400000D02*
X94523112Y-137400000D01*
X96754178Y-137300000D02*
X96654178Y-137400000D01*
X99500000Y-137300000D02*
X96754178Y-137300000D01*
%TO.N,/D9*%
X94100000Y-135262500D02*
X94100000Y-136545822D01*
X94625679Y-137071501D02*
X96128499Y-137071501D01*
X94100000Y-136545822D02*
X94625679Y-137071501D01*
X96500000Y-136700000D02*
X97100000Y-136700000D01*
X96128499Y-137071501D02*
X96500000Y-136700000D01*
%TO.N,/D10*%
X94900000Y-135262500D02*
X94900000Y-136500000D01*
%TO.N,/D11*%
X95700000Y-136461797D02*
X95738203Y-136500000D01*
X95700000Y-135262500D02*
X95700000Y-136461797D01*
X92060000Y-140000000D02*
X93160000Y-138900000D01*
X93202899Y-138857101D02*
X93160000Y-138900000D01*
X95357101Y-138857101D02*
X93202899Y-138857101D01*
X95700000Y-139200000D02*
X95357101Y-138857101D01*
%TO.N,/D12*%
X97362500Y-133600000D02*
X96907240Y-133600000D01*
X96373743Y-133104809D02*
X96095191Y-132826257D01*
X96412050Y-133104810D02*
X96373743Y-133104809D01*
X96907240Y-133600000D02*
X96412050Y-133104810D01*
X96095191Y-132826257D02*
X96095190Y-132826256D01*
X96095190Y-132709481D02*
X95594523Y-132208814D01*
X96095190Y-132826256D02*
X96095190Y-132709481D01*
%TO.N,/D13*%
X96500000Y-132800000D02*
X97362500Y-132800000D01*
X96400000Y-132700000D02*
X96500000Y-132800000D01*
X95995191Y-131801257D02*
X96400000Y-132206066D01*
X95995190Y-131795190D02*
X95995191Y-131801257D01*
X96400000Y-132206066D02*
X96400000Y-132700000D01*
X95600000Y-131400000D02*
X95995190Y-131795190D01*
X95332808Y-131400000D02*
X95600000Y-131400000D01*
X94754910Y-131977898D02*
X95332808Y-131400000D01*
%TO.N,/D14*%
X96625000Y-132000000D02*
X96300000Y-131675000D01*
X97362500Y-132000000D02*
X96625000Y-132000000D01*
X96300000Y-131675000D02*
X96300000Y-131231066D01*
X96300000Y-131231066D02*
X96129354Y-131060420D01*
X94546968Y-131060420D02*
X94006059Y-131601329D01*
X96129354Y-131060420D02*
X94546968Y-131060420D01*
%TO.N,/D15*%
X97362500Y-131200000D02*
X96700000Y-131200000D01*
X96700000Y-131200000D02*
X96255610Y-130755610D01*
X93666690Y-130755610D02*
X93400000Y-131022300D01*
X96255610Y-130755610D02*
X93666690Y-130755610D01*
%TO.N,/MISO*%
X85300000Y-126400000D02*
X84804810Y-125904810D01*
X86037500Y-126400000D02*
X85300000Y-126400000D01*
X81229164Y-125904810D02*
X80450563Y-126683411D01*
X84804810Y-125904810D02*
X81229164Y-125904810D01*
X80450563Y-126683411D02*
X77147655Y-126683411D01*
X77147655Y-126683411D02*
X76704810Y-127126256D01*
X76704810Y-127126256D02*
X76704810Y-129804810D01*
X77280000Y-130380000D02*
X78200000Y-130380000D01*
X76704810Y-129804810D02*
X77280000Y-130380000D01*
%TO.N,/SCK*%
X86037500Y-127200000D02*
X84800000Y-127200000D01*
%TO.N,/~RESET*%
X84900000Y-128000000D02*
X84800000Y-128100000D01*
X86037500Y-128000000D02*
X84900000Y-128000000D01*
%TO.N,/MOSI*%
X80324307Y-126378601D02*
X81102908Y-125600000D01*
X77021399Y-126378601D02*
X80324307Y-126378601D01*
X76400000Y-127000000D02*
X77021399Y-126378601D01*
X76400000Y-137000000D02*
X76400000Y-127000000D01*
X77400000Y-138000000D02*
X76400000Y-137000000D01*
X81102908Y-125600000D02*
X86037500Y-125600000D01*
X78200000Y-138000000D02*
X77400000Y-138000000D01*
%TO.N,Net-(Q1-Pad1)*%
X111700000Y-118250000D02*
X111700000Y-118000000D01*
X111700000Y-118250000D02*
X111700000Y-118400000D01*
X111400000Y-118700000D02*
X97500000Y-118700000D01*
X111700000Y-118400000D02*
X111400000Y-118700000D01*
%TO.N,Net-(Q2-Pad1)*%
X122000000Y-118150000D02*
X122000000Y-118100000D01*
X120550000Y-118150000D02*
X120500000Y-118100000D01*
X122000000Y-118150000D02*
X120550000Y-118150000D01*
X94800000Y-118100000D02*
X94200000Y-118700000D01*
X95800000Y-118100000D02*
X94800000Y-118100000D01*
%TO.N,Net-(Q3-Pad1)*%
X130850000Y-118250000D02*
X130800000Y-118200000D01*
X132100000Y-118250000D02*
X130850000Y-118250000D01*
X91100000Y-118900000D02*
X90900000Y-118700000D01*
X92400000Y-118900000D02*
X91100000Y-118900000D01*
%TO.N,Net-(Q4-Pad1)*%
X142300000Y-118250000D02*
X140850000Y-118250000D01*
X140850000Y-118250000D02*
X140800000Y-118300000D01*
X87700000Y-118900000D02*
X87500000Y-118700000D01*
X89200000Y-118900000D02*
X87700000Y-118900000D01*
%TO.N,Net-(R1-Pad1)*%
X93300000Y-123937500D02*
X93300000Y-122509620D01*
X93500000Y-122309620D02*
X96321446Y-122309620D01*
X93300000Y-122509620D02*
X93500000Y-122309620D01*
X96431066Y-122200000D02*
X102100000Y-122200000D01*
X96321446Y-122309620D02*
X96431066Y-122200000D01*
%TO.N,Net-(R2-Pad1)*%
X94100000Y-123937500D02*
X94100000Y-122814430D01*
X94100000Y-122814430D02*
X94300000Y-122614430D01*
X96485570Y-122614430D02*
X96595190Y-122504810D01*
X94300000Y-122614430D02*
X96485570Y-122614430D01*
X100154810Y-122504810D02*
X102100000Y-124450000D01*
X96595190Y-122504810D02*
X100154810Y-122504810D01*
%TO.N,Net-(R3-Pad1)*%
X94900000Y-123937500D02*
X94900000Y-123119240D01*
X95100000Y-122919240D02*
X98619240Y-122919240D01*
X94900000Y-123119240D02*
X95100000Y-122919240D01*
X102100000Y-126400000D02*
X102100000Y-126700000D01*
X98619240Y-122919240D02*
X102100000Y-126400000D01*
%TO.N,Net-(R4-Pad1)*%
X95700000Y-123937500D02*
X96413450Y-123224050D01*
X96413450Y-123224050D02*
X98124050Y-123224050D01*
X98124050Y-123224050D02*
X101100000Y-126200000D01*
X101100000Y-127950000D02*
X102100000Y-128950000D01*
X101100000Y-126200000D02*
X101100000Y-127950000D01*
%TO.N,Net-(R5-Pad1)*%
X97362500Y-125600000D02*
X100000000Y-125600000D01*
X100795190Y-129895190D02*
X102100000Y-131200000D01*
X100795190Y-126395190D02*
X100795190Y-129895190D01*
X100000000Y-125600000D02*
X100795190Y-126395190D01*
%TO.N,Net-(R6-Pad1)*%
X97362500Y-126400000D02*
X100190380Y-126400000D01*
X100490380Y-126700000D02*
X100490381Y-130021447D01*
X100190380Y-126400000D02*
X100490380Y-126700000D01*
X100490381Y-130021447D02*
X101271390Y-130802456D01*
X101271390Y-132621390D02*
X102100000Y-133450000D01*
X101271390Y-130802456D02*
X101271390Y-132621390D01*
%TO.N,Net-(R7-Pad1)*%
X101271390Y-134871390D02*
X102100000Y-135700000D01*
X101271390Y-133071390D02*
X101271390Y-134871390D01*
X100966580Y-132766580D02*
X101271390Y-133071390D01*
X100966580Y-130928712D02*
X100966580Y-132766580D01*
X100185572Y-130147704D02*
X100966580Y-130928712D01*
X100185572Y-127500001D02*
X100185572Y-130147704D01*
X99885571Y-127200000D02*
X100185572Y-127500001D01*
X97362500Y-127200000D02*
X99885571Y-127200000D01*
%TO.N,Net-(R8-Pad2)*%
X90900000Y-123937500D02*
X90900000Y-122304810D01*
X90900000Y-122304810D02*
X91200000Y-122004810D01*
X96195190Y-122004810D02*
X97500000Y-120700000D01*
X91200000Y-122004810D02*
X96195190Y-122004810D01*
%TO.N,Net-(R9-Pad2)*%
X90100000Y-123937500D02*
X90100000Y-122200000D01*
X90100000Y-122200000D02*
X90600000Y-121700000D01*
X93200000Y-121700000D02*
X94200000Y-120700000D01*
X90600000Y-121700000D02*
X93200000Y-121700000D01*
%TO.N,Net-(R10-Pad2)*%
X89300000Y-122300000D02*
X90900000Y-120700000D01*
X89300000Y-123937500D02*
X89300000Y-122300000D01*
%TO.N,Net-(R11-Pad2)*%
X88500000Y-121700000D02*
X87500000Y-120700000D01*
X88500000Y-123937500D02*
X88500000Y-121700000D01*
%TD*%
D16*
%TO.N,GND*%
X80611595Y-128230887D02*
X80722038Y-128365462D01*
X80856613Y-128475905D01*
X81010149Y-128557972D01*
X81176745Y-128608508D01*
X81349999Y-128625572D01*
X82222941Y-128625572D01*
X82490709Y-128893340D01*
X82185750Y-128895000D01*
X82027000Y-129053750D01*
X82027000Y-130253000D01*
X83226250Y-130253000D01*
X83385000Y-130094250D01*
X83385109Y-130074205D01*
X83403685Y-130077900D01*
X83596315Y-130077900D01*
X83785243Y-130040320D01*
X83963210Y-129966604D01*
X84123375Y-129859585D01*
X84259585Y-129723375D01*
X84366604Y-129563210D01*
X84380485Y-129529698D01*
X84450622Y-129550974D01*
X84562574Y-129562000D01*
X84562576Y-129562000D01*
X84599999Y-129565686D01*
X84637422Y-129562000D01*
X84981800Y-129562000D01*
X85006615Y-129582365D01*
X85039608Y-129600000D01*
X85006615Y-129617635D01*
X84889088Y-129714088D01*
X84878491Y-129727000D01*
X84823750Y-129727000D01*
X84665000Y-129885750D01*
X84674831Y-130002668D01*
X84692450Y-130059702D01*
X84676830Y-130111193D01*
X84661928Y-130262500D01*
X84661928Y-130537500D01*
X84676830Y-130688807D01*
X84710560Y-130800000D01*
X84676830Y-130911193D01*
X84661928Y-131062500D01*
X84661928Y-131337500D01*
X84676830Y-131488807D01*
X84706755Y-131587457D01*
X83385000Y-132909212D01*
X83385000Y-132773740D01*
X83327932Y-132486842D01*
X83215990Y-132216589D01*
X83053475Y-131973368D01*
X82921620Y-131841513D01*
X82994180Y-131819502D01*
X83104494Y-131760537D01*
X83201185Y-131681185D01*
X83280537Y-131584494D01*
X83339502Y-131474180D01*
X83375812Y-131354482D01*
X83388072Y-131230000D01*
X83385000Y-130665750D01*
X83226250Y-130507000D01*
X82027000Y-130507000D01*
X82027000Y-130527000D01*
X81773000Y-130527000D01*
X81773000Y-130507000D01*
X80573750Y-130507000D01*
X80415000Y-130665750D01*
X80411928Y-131230000D01*
X80424188Y-131354482D01*
X80460498Y-131474180D01*
X80519463Y-131584494D01*
X80598815Y-131681185D01*
X80695506Y-131760537D01*
X80805820Y-131819502D01*
X80878380Y-131841513D01*
X80746525Y-131973368D01*
X80584010Y-132216589D01*
X80472068Y-132486842D01*
X80415000Y-132773740D01*
X80415000Y-133066260D01*
X80472068Y-133353158D01*
X80584010Y-133623411D01*
X80746525Y-133866632D01*
X80953368Y-134073475D01*
X81196589Y-134235990D01*
X81466842Y-134347932D01*
X81753740Y-134405000D01*
X81889213Y-134405000D01*
X79297160Y-136997053D01*
X79146632Y-136846525D01*
X78972240Y-136730000D01*
X79146632Y-136613475D01*
X79353475Y-136406632D01*
X79515990Y-136163411D01*
X79627932Y-135893158D01*
X79685000Y-135606260D01*
X79685000Y-135313740D01*
X79627932Y-135026842D01*
X79515990Y-134756589D01*
X79353475Y-134513368D01*
X79146632Y-134306525D01*
X78972240Y-134190000D01*
X79146632Y-134073475D01*
X79353475Y-133866632D01*
X79515990Y-133623411D01*
X79627932Y-133353158D01*
X79685000Y-133066260D01*
X79685000Y-132773740D01*
X79627932Y-132486842D01*
X79515990Y-132216589D01*
X79353475Y-131973368D01*
X79146632Y-131766525D01*
X78972240Y-131650000D01*
X79146632Y-131533475D01*
X79353475Y-131326632D01*
X79515990Y-131083411D01*
X79627932Y-130813158D01*
X79685000Y-130526260D01*
X79685000Y-130233740D01*
X79627932Y-129946842D01*
X79515990Y-129676589D01*
X79418043Y-129530000D01*
X80411928Y-129530000D01*
X80415000Y-130094250D01*
X80573750Y-130253000D01*
X81773000Y-130253000D01*
X81773000Y-129053750D01*
X81614250Y-128895000D01*
X81050000Y-128891928D01*
X80925518Y-128904188D01*
X80805820Y-128940498D01*
X80695506Y-128999463D01*
X80598815Y-129078815D01*
X80519463Y-129175506D01*
X80460498Y-129285820D01*
X80424188Y-129405518D01*
X80411928Y-129530000D01*
X79418043Y-129530000D01*
X79353475Y-129433368D01*
X79146632Y-129226525D01*
X78972240Y-129110000D01*
X79146632Y-128993475D01*
X79353475Y-128786632D01*
X79515990Y-128543411D01*
X79627932Y-128273158D01*
X79664961Y-128087000D01*
X80534686Y-128087000D01*
X80611595Y-128230887D01*
%TA.AperFunction,Conductor*%
D18*
G36*
X80611595Y-128230887D02*
G01*
X80722038Y-128365462D01*
X80856613Y-128475905D01*
X81010149Y-128557972D01*
X81176745Y-128608508D01*
X81349999Y-128625572D01*
X82222941Y-128625572D01*
X82490709Y-128893340D01*
X82185750Y-128895000D01*
X82027000Y-129053750D01*
X82027000Y-130253000D01*
X83226250Y-130253000D01*
X83385000Y-130094250D01*
X83385109Y-130074205D01*
X83403685Y-130077900D01*
X83596315Y-130077900D01*
X83785243Y-130040320D01*
X83963210Y-129966604D01*
X84123375Y-129859585D01*
X84259585Y-129723375D01*
X84366604Y-129563210D01*
X84380485Y-129529698D01*
X84450622Y-129550974D01*
X84562574Y-129562000D01*
X84562576Y-129562000D01*
X84599999Y-129565686D01*
X84637422Y-129562000D01*
X84981800Y-129562000D01*
X85006615Y-129582365D01*
X85039608Y-129600000D01*
X85006615Y-129617635D01*
X84889088Y-129714088D01*
X84878491Y-129727000D01*
X84823750Y-129727000D01*
X84665000Y-129885750D01*
X84674831Y-130002668D01*
X84692450Y-130059702D01*
X84676830Y-130111193D01*
X84661928Y-130262500D01*
X84661928Y-130537500D01*
X84676830Y-130688807D01*
X84710560Y-130800000D01*
X84676830Y-130911193D01*
X84661928Y-131062500D01*
X84661928Y-131337500D01*
X84676830Y-131488807D01*
X84706755Y-131587457D01*
X83385000Y-132909212D01*
X83385000Y-132773740D01*
X83327932Y-132486842D01*
X83215990Y-132216589D01*
X83053475Y-131973368D01*
X82921620Y-131841513D01*
X82994180Y-131819502D01*
X83104494Y-131760537D01*
X83201185Y-131681185D01*
X83280537Y-131584494D01*
X83339502Y-131474180D01*
X83375812Y-131354482D01*
X83388072Y-131230000D01*
X83385000Y-130665750D01*
X83226250Y-130507000D01*
X82027000Y-130507000D01*
X82027000Y-130527000D01*
X81773000Y-130527000D01*
X81773000Y-130507000D01*
X80573750Y-130507000D01*
X80415000Y-130665750D01*
X80411928Y-131230000D01*
X80424188Y-131354482D01*
X80460498Y-131474180D01*
X80519463Y-131584494D01*
X80598815Y-131681185D01*
X80695506Y-131760537D01*
X80805820Y-131819502D01*
X80878380Y-131841513D01*
X80746525Y-131973368D01*
X80584010Y-132216589D01*
X80472068Y-132486842D01*
X80415000Y-132773740D01*
X80415000Y-133066260D01*
X80472068Y-133353158D01*
X80584010Y-133623411D01*
X80746525Y-133866632D01*
X80953368Y-134073475D01*
X81196589Y-134235990D01*
X81466842Y-134347932D01*
X81753740Y-134405000D01*
X81889213Y-134405000D01*
X79297160Y-136997053D01*
X79146632Y-136846525D01*
X78972240Y-136730000D01*
X79146632Y-136613475D01*
X79353475Y-136406632D01*
X79515990Y-136163411D01*
X79627932Y-135893158D01*
X79685000Y-135606260D01*
X79685000Y-135313740D01*
X79627932Y-135026842D01*
X79515990Y-134756589D01*
X79353475Y-134513368D01*
X79146632Y-134306525D01*
X78972240Y-134190000D01*
X79146632Y-134073475D01*
X79353475Y-133866632D01*
X79515990Y-133623411D01*
X79627932Y-133353158D01*
X79685000Y-133066260D01*
X79685000Y-132773740D01*
X79627932Y-132486842D01*
X79515990Y-132216589D01*
X79353475Y-131973368D01*
X79146632Y-131766525D01*
X78972240Y-131650000D01*
X79146632Y-131533475D01*
X79353475Y-131326632D01*
X79515990Y-131083411D01*
X79627932Y-130813158D01*
X79685000Y-130526260D01*
X79685000Y-130233740D01*
X79627932Y-129946842D01*
X79515990Y-129676589D01*
X79418043Y-129530000D01*
X80411928Y-129530000D01*
X80415000Y-130094250D01*
X80573750Y-130253000D01*
X81773000Y-130253000D01*
X81773000Y-129053750D01*
X81614250Y-128895000D01*
X81050000Y-128891928D01*
X80925518Y-128904188D01*
X80805820Y-128940498D01*
X80695506Y-128999463D01*
X80598815Y-129078815D01*
X80519463Y-129175506D01*
X80460498Y-129285820D01*
X80424188Y-129405518D01*
X80411928Y-129530000D01*
X79418043Y-129530000D01*
X79353475Y-129433368D01*
X79146632Y-129226525D01*
X78972240Y-129110000D01*
X79146632Y-128993475D01*
X79353475Y-128786632D01*
X79515990Y-128543411D01*
X79627932Y-128273158D01*
X79664961Y-128087000D01*
X80534686Y-128087000D01*
X80611595Y-128230887D01*
G37*
%TD.AperFunction*%
D16*
X90722756Y-130200386D02*
X90722100Y-130203685D01*
X90722100Y-130396315D01*
X90759680Y-130585243D01*
X90833396Y-130763210D01*
X90940415Y-130923375D01*
X91076625Y-131059585D01*
X91236790Y-131166604D01*
X91414757Y-131240320D01*
X91603685Y-131277900D01*
X91796315Y-131277900D01*
X91985243Y-131240320D01*
X92163210Y-131166604D01*
X92170100Y-131162000D01*
X92430730Y-131162000D01*
X92459680Y-131307543D01*
X92533396Y-131485510D01*
X92640415Y-131645675D01*
X92776625Y-131781885D01*
X92936790Y-131888904D01*
X93093611Y-131953861D01*
X93139455Y-132064539D01*
X93246474Y-132224704D01*
X93382684Y-132360914D01*
X93542849Y-132467933D01*
X93662030Y-132517299D01*
X89306426Y-132517299D01*
X89271500Y-132513859D01*
X89236574Y-132517299D01*
X89236565Y-132517299D01*
X89132081Y-132527590D01*
X88998020Y-132568257D01*
X88874468Y-132634297D01*
X88766174Y-132723172D01*
X88743903Y-132750309D01*
X88021810Y-133472403D01*
X87994674Y-133494673D01*
X87972404Y-133521809D01*
X87972403Y-133521810D01*
X87905798Y-133602968D01*
X87872325Y-133665592D01*
X87839759Y-133726519D01*
X87803202Y-133847033D01*
X87799092Y-133860581D01*
X87796497Y-133886928D01*
X87562500Y-133886928D01*
X87411193Y-133901830D01*
X87392499Y-133907501D01*
X87398170Y-133888807D01*
X87413072Y-133737500D01*
X87413072Y-133462500D01*
X87398170Y-133311193D01*
X87364440Y-133200000D01*
X87398170Y-133088807D01*
X87413072Y-132937500D01*
X87413072Y-132662500D01*
X87398170Y-132511193D01*
X87364440Y-132400000D01*
X87398170Y-132288807D01*
X87413072Y-132137500D01*
X87413072Y-131862500D01*
X87398170Y-131711193D01*
X87364440Y-131600000D01*
X87398170Y-131488807D01*
X87413072Y-131337500D01*
X87413072Y-131062500D01*
X87398170Y-130911193D01*
X87364440Y-130800000D01*
X87398170Y-130688807D01*
X87413072Y-130537500D01*
X87413072Y-130262500D01*
X87398170Y-130111193D01*
X87382550Y-130059702D01*
X87400169Y-130002668D01*
X87410000Y-129885750D01*
X87251250Y-129727000D01*
X87196509Y-129727000D01*
X87185912Y-129714088D01*
X87068385Y-129617635D01*
X87035392Y-129600000D01*
X87068385Y-129582365D01*
X87093200Y-129562000D01*
X90084370Y-129562000D01*
X90722756Y-130200386D01*
%TA.AperFunction,Conductor*%
D18*
G36*
X90722756Y-130200386D02*
G01*
X90722100Y-130203685D01*
X90722100Y-130396315D01*
X90759680Y-130585243D01*
X90833396Y-130763210D01*
X90940415Y-130923375D01*
X91076625Y-131059585D01*
X91236790Y-131166604D01*
X91414757Y-131240320D01*
X91603685Y-131277900D01*
X91796315Y-131277900D01*
X91985243Y-131240320D01*
X92163210Y-131166604D01*
X92170100Y-131162000D01*
X92430730Y-131162000D01*
X92459680Y-131307543D01*
X92533396Y-131485510D01*
X92640415Y-131645675D01*
X92776625Y-131781885D01*
X92936790Y-131888904D01*
X93093611Y-131953861D01*
X93139455Y-132064539D01*
X93246474Y-132224704D01*
X93382684Y-132360914D01*
X93542849Y-132467933D01*
X93662030Y-132517299D01*
X89306426Y-132517299D01*
X89271500Y-132513859D01*
X89236574Y-132517299D01*
X89236565Y-132517299D01*
X89132081Y-132527590D01*
X88998020Y-132568257D01*
X88874468Y-132634297D01*
X88766174Y-132723172D01*
X88743903Y-132750309D01*
X88021810Y-133472403D01*
X87994674Y-133494673D01*
X87972404Y-133521809D01*
X87972403Y-133521810D01*
X87905798Y-133602968D01*
X87872325Y-133665592D01*
X87839759Y-133726519D01*
X87803202Y-133847033D01*
X87799092Y-133860581D01*
X87796497Y-133886928D01*
X87562500Y-133886928D01*
X87411193Y-133901830D01*
X87392499Y-133907501D01*
X87398170Y-133888807D01*
X87413072Y-133737500D01*
X87413072Y-133462500D01*
X87398170Y-133311193D01*
X87364440Y-133200000D01*
X87398170Y-133088807D01*
X87413072Y-132937500D01*
X87413072Y-132662500D01*
X87398170Y-132511193D01*
X87364440Y-132400000D01*
X87398170Y-132288807D01*
X87413072Y-132137500D01*
X87413072Y-131862500D01*
X87398170Y-131711193D01*
X87364440Y-131600000D01*
X87398170Y-131488807D01*
X87413072Y-131337500D01*
X87413072Y-131062500D01*
X87398170Y-130911193D01*
X87364440Y-130800000D01*
X87398170Y-130688807D01*
X87413072Y-130537500D01*
X87413072Y-130262500D01*
X87398170Y-130111193D01*
X87382550Y-130059702D01*
X87400169Y-130002668D01*
X87410000Y-129885750D01*
X87251250Y-129727000D01*
X87196509Y-129727000D01*
X87185912Y-129714088D01*
X87068385Y-129617635D01*
X87035392Y-129600000D01*
X87068385Y-129582365D01*
X87093200Y-129562000D01*
X90084370Y-129562000D01*
X90722756Y-130200386D01*
G37*
%TD.AperFunction*%
D16*
X95411193Y-125298170D02*
X95562500Y-125313072D01*
X95837500Y-125313072D01*
X95988807Y-125298170D01*
X96007501Y-125292499D01*
X96001830Y-125311193D01*
X95986928Y-125462500D01*
X95986928Y-125737500D01*
X96001830Y-125888807D01*
X96035560Y-126000000D01*
X96001830Y-126111193D01*
X95986928Y-126262500D01*
X95986928Y-126537500D01*
X96001830Y-126688807D01*
X96035560Y-126800000D01*
X96001830Y-126911193D01*
X95986928Y-127062500D01*
X95986928Y-127337500D01*
X96001830Y-127488807D01*
X96035560Y-127600000D01*
X96001830Y-127711193D01*
X95986928Y-127862500D01*
X95986928Y-128137500D01*
X96001830Y-128288807D01*
X96035560Y-128400000D01*
X96001830Y-128511193D01*
X95986928Y-128662500D01*
X95986928Y-128937500D01*
X96001830Y-129088807D01*
X96017450Y-129140298D01*
X95999831Y-129197332D01*
X95990000Y-129314250D01*
X96148750Y-129473000D01*
X96203491Y-129473000D01*
X96214088Y-129485912D01*
X96331615Y-129582365D01*
X96364608Y-129600000D01*
X96331615Y-129617635D01*
X96306800Y-129638000D01*
X92420960Y-129638000D01*
X92323375Y-129540415D01*
X92163210Y-129433396D01*
X92074127Y-129396497D01*
X91477630Y-128800000D01*
X93012352Y-127265279D01*
X93041422Y-127241422D01*
X93136645Y-127125392D01*
X93207402Y-126993015D01*
X93250974Y-126849378D01*
X93262000Y-126737426D01*
X93262000Y-126737417D01*
X93265685Y-126700001D01*
X93262000Y-126662585D01*
X93262000Y-125313072D01*
X93437500Y-125313072D01*
X93588807Y-125298170D01*
X93700000Y-125264440D01*
X93811193Y-125298170D01*
X93962500Y-125313072D01*
X94237500Y-125313072D01*
X94388807Y-125298170D01*
X94500000Y-125264440D01*
X94611193Y-125298170D01*
X94762500Y-125313072D01*
X95037500Y-125313072D01*
X95188807Y-125298170D01*
X95300000Y-125264440D01*
X95411193Y-125298170D01*
%TA.AperFunction,Conductor*%
D18*
G36*
X95411193Y-125298170D02*
G01*
X95562500Y-125313072D01*
X95837500Y-125313072D01*
X95988807Y-125298170D01*
X96007501Y-125292499D01*
X96001830Y-125311193D01*
X95986928Y-125462500D01*
X95986928Y-125737500D01*
X96001830Y-125888807D01*
X96035560Y-126000000D01*
X96001830Y-126111193D01*
X95986928Y-126262500D01*
X95986928Y-126537500D01*
X96001830Y-126688807D01*
X96035560Y-126800000D01*
X96001830Y-126911193D01*
X95986928Y-127062500D01*
X95986928Y-127337500D01*
X96001830Y-127488807D01*
X96035560Y-127600000D01*
X96001830Y-127711193D01*
X95986928Y-127862500D01*
X95986928Y-128137500D01*
X96001830Y-128288807D01*
X96035560Y-128400000D01*
X96001830Y-128511193D01*
X95986928Y-128662500D01*
X95986928Y-128937500D01*
X96001830Y-129088807D01*
X96017450Y-129140298D01*
X95999831Y-129197332D01*
X95990000Y-129314250D01*
X96148750Y-129473000D01*
X96203491Y-129473000D01*
X96214088Y-129485912D01*
X96331615Y-129582365D01*
X96364608Y-129600000D01*
X96331615Y-129617635D01*
X96306800Y-129638000D01*
X92420960Y-129638000D01*
X92323375Y-129540415D01*
X92163210Y-129433396D01*
X92074127Y-129396497D01*
X91477630Y-128800000D01*
X93012352Y-127265279D01*
X93041422Y-127241422D01*
X93136645Y-127125392D01*
X93207402Y-126993015D01*
X93250974Y-126849378D01*
X93262000Y-126737426D01*
X93262000Y-126737417D01*
X93265685Y-126700001D01*
X93262000Y-126662585D01*
X93262000Y-125313072D01*
X93437500Y-125313072D01*
X93588807Y-125298170D01*
X93700000Y-125264440D01*
X93811193Y-125298170D01*
X93962500Y-125313072D01*
X94237500Y-125313072D01*
X94388807Y-125298170D01*
X94500000Y-125264440D01*
X94611193Y-125298170D01*
X94762500Y-125313072D01*
X95037500Y-125313072D01*
X95188807Y-125298170D01*
X95300000Y-125264440D01*
X95411193Y-125298170D01*
G37*
%TD.AperFunction*%
D16*
X86229528Y-118010149D02*
X86178992Y-118176745D01*
X86161928Y-118349999D01*
X86161928Y-119050001D01*
X86178992Y-119223255D01*
X86229528Y-119389851D01*
X86311595Y-119543387D01*
X86422038Y-119677962D01*
X86448891Y-119700000D01*
X86422038Y-119722038D01*
X86311595Y-119856613D01*
X86229528Y-120010149D01*
X86178992Y-120176745D01*
X86161928Y-120349999D01*
X86161928Y-121050001D01*
X86178992Y-121223255D01*
X86229528Y-121389851D01*
X86311595Y-121543387D01*
X86422038Y-121677962D01*
X86556613Y-121788405D01*
X86710149Y-121870472D01*
X86876745Y-121921008D01*
X87049999Y-121938072D01*
X87732284Y-121938072D01*
X87788801Y-121994589D01*
X87788801Y-122561928D01*
X87562500Y-122561928D01*
X87411193Y-122576830D01*
X87265701Y-122620965D01*
X87131615Y-122692635D01*
X87014088Y-122789088D01*
X86917635Y-122906615D01*
X86845965Y-123040701D01*
X86801830Y-123186193D01*
X86786928Y-123337500D01*
X86786928Y-124537500D01*
X86801830Y-124688807D01*
X86807501Y-124707501D01*
X86788807Y-124701830D01*
X86637500Y-124686928D01*
X85437500Y-124686928D01*
X85286193Y-124701830D01*
X85140701Y-124745965D01*
X85006615Y-124817635D01*
X84919901Y-124888800D01*
X83535482Y-124888800D01*
X83538072Y-124862500D01*
X83535000Y-124485750D01*
X83376250Y-124327000D01*
X82127000Y-124327000D01*
X82127000Y-124347000D01*
X81873000Y-124347000D01*
X81873000Y-124327000D01*
X80623750Y-124327000D01*
X80465000Y-124485750D01*
X80461928Y-124862500D01*
X80474188Y-124986982D01*
X80510498Y-125106680D01*
X80538344Y-125158776D01*
X80029720Y-125667401D01*
X79685445Y-125667401D01*
X79685000Y-125585750D01*
X79526250Y-125427000D01*
X78327000Y-125427000D01*
X78327000Y-125447000D01*
X78073000Y-125447000D01*
X78073000Y-125427000D01*
X76873750Y-125427000D01*
X76715000Y-125585750D01*
X76714180Y-125736392D01*
X76660000Y-125765352D01*
X76660000Y-124450000D01*
X76711928Y-124450000D01*
X76715000Y-125014250D01*
X76873750Y-125173000D01*
X78073000Y-125173000D01*
X78073000Y-123973750D01*
X78327000Y-123973750D01*
X78327000Y-125173000D01*
X79526250Y-125173000D01*
X79685000Y-125014250D01*
X79688072Y-124450000D01*
X79675812Y-124325518D01*
X79639502Y-124205820D01*
X79580537Y-124095506D01*
X79501185Y-123998815D01*
X79404494Y-123919463D01*
X79294180Y-123860498D01*
X79174482Y-123824188D01*
X79050000Y-123811928D01*
X78485750Y-123815000D01*
X78327000Y-123973750D01*
X78073000Y-123973750D01*
X77914250Y-123815000D01*
X77350000Y-123811928D01*
X77225518Y-123824188D01*
X77105820Y-123860498D01*
X76995506Y-123919463D01*
X76898815Y-123998815D01*
X76819463Y-124095506D01*
X76760498Y-124205820D01*
X76724188Y-124325518D01*
X76711928Y-124450000D01*
X76660000Y-124450000D01*
X76660000Y-123537500D01*
X80461928Y-123537500D01*
X80465000Y-123914250D01*
X80623750Y-124073000D01*
X81873000Y-124073000D01*
X81873000Y-123061250D01*
X82127000Y-123061250D01*
X82127000Y-124073000D01*
X83376250Y-124073000D01*
X83535000Y-123914250D01*
X83538072Y-123537500D01*
X83525812Y-123413018D01*
X83489502Y-123293320D01*
X83430537Y-123183006D01*
X83351185Y-123086315D01*
X83254494Y-123006963D01*
X83144180Y-122947998D01*
X83024482Y-122911688D01*
X82900000Y-122899428D01*
X82285750Y-122902500D01*
X82127000Y-123061250D01*
X81873000Y-123061250D01*
X81714250Y-122902500D01*
X81100000Y-122899428D01*
X80975518Y-122911688D01*
X80855820Y-122947998D01*
X80745506Y-123006963D01*
X80648815Y-123086315D01*
X80569463Y-123183006D01*
X80510498Y-123293320D01*
X80474188Y-123413018D01*
X80461928Y-123537500D01*
X76660000Y-123537500D01*
X76660000Y-117860000D01*
X86309785Y-117860000D01*
X86229528Y-118010149D01*
%TA.AperFunction,Conductor*%
D18*
G36*
X86229528Y-118010149D02*
G01*
X86178992Y-118176745D01*
X86161928Y-118349999D01*
X86161928Y-119050001D01*
X86178992Y-119223255D01*
X86229528Y-119389851D01*
X86311595Y-119543387D01*
X86422038Y-119677962D01*
X86448891Y-119700000D01*
X86422038Y-119722038D01*
X86311595Y-119856613D01*
X86229528Y-120010149D01*
X86178992Y-120176745D01*
X86161928Y-120349999D01*
X86161928Y-121050001D01*
X86178992Y-121223255D01*
X86229528Y-121389851D01*
X86311595Y-121543387D01*
X86422038Y-121677962D01*
X86556613Y-121788405D01*
X86710149Y-121870472D01*
X86876745Y-121921008D01*
X87049999Y-121938072D01*
X87732284Y-121938072D01*
X87788801Y-121994589D01*
X87788801Y-122561928D01*
X87562500Y-122561928D01*
X87411193Y-122576830D01*
X87265701Y-122620965D01*
X87131615Y-122692635D01*
X87014088Y-122789088D01*
X86917635Y-122906615D01*
X86845965Y-123040701D01*
X86801830Y-123186193D01*
X86786928Y-123337500D01*
X86786928Y-124537500D01*
X86801830Y-124688807D01*
X86807501Y-124707501D01*
X86788807Y-124701830D01*
X86637500Y-124686928D01*
X85437500Y-124686928D01*
X85286193Y-124701830D01*
X85140701Y-124745965D01*
X85006615Y-124817635D01*
X84919901Y-124888800D01*
X83535482Y-124888800D01*
X83538072Y-124862500D01*
X83535000Y-124485750D01*
X83376250Y-124327000D01*
X82127000Y-124327000D01*
X82127000Y-124347000D01*
X81873000Y-124347000D01*
X81873000Y-124327000D01*
X80623750Y-124327000D01*
X80465000Y-124485750D01*
X80461928Y-124862500D01*
X80474188Y-124986982D01*
X80510498Y-125106680D01*
X80538344Y-125158776D01*
X80029720Y-125667401D01*
X79685445Y-125667401D01*
X79685000Y-125585750D01*
X79526250Y-125427000D01*
X78327000Y-125427000D01*
X78327000Y-125447000D01*
X78073000Y-125447000D01*
X78073000Y-125427000D01*
X76873750Y-125427000D01*
X76715000Y-125585750D01*
X76714180Y-125736392D01*
X76660000Y-125765352D01*
X76660000Y-124450000D01*
X76711928Y-124450000D01*
X76715000Y-125014250D01*
X76873750Y-125173000D01*
X78073000Y-125173000D01*
X78073000Y-123973750D01*
X78327000Y-123973750D01*
X78327000Y-125173000D01*
X79526250Y-125173000D01*
X79685000Y-125014250D01*
X79688072Y-124450000D01*
X79675812Y-124325518D01*
X79639502Y-124205820D01*
X79580537Y-124095506D01*
X79501185Y-123998815D01*
X79404494Y-123919463D01*
X79294180Y-123860498D01*
X79174482Y-123824188D01*
X79050000Y-123811928D01*
X78485750Y-123815000D01*
X78327000Y-123973750D01*
X78073000Y-123973750D01*
X77914250Y-123815000D01*
X77350000Y-123811928D01*
X77225518Y-123824188D01*
X77105820Y-123860498D01*
X76995506Y-123919463D01*
X76898815Y-123998815D01*
X76819463Y-124095506D01*
X76760498Y-124205820D01*
X76724188Y-124325518D01*
X76711928Y-124450000D01*
X76660000Y-124450000D01*
X76660000Y-123537500D01*
X80461928Y-123537500D01*
X80465000Y-123914250D01*
X80623750Y-124073000D01*
X81873000Y-124073000D01*
X81873000Y-123061250D01*
X82127000Y-123061250D01*
X82127000Y-124073000D01*
X83376250Y-124073000D01*
X83535000Y-123914250D01*
X83538072Y-123537500D01*
X83525812Y-123413018D01*
X83489502Y-123293320D01*
X83430537Y-123183006D01*
X83351185Y-123086315D01*
X83254494Y-123006963D01*
X83144180Y-122947998D01*
X83024482Y-122911688D01*
X82900000Y-122899428D01*
X82285750Y-122902500D01*
X82127000Y-123061250D01*
X81873000Y-123061250D01*
X81714250Y-122902500D01*
X81100000Y-122899428D01*
X80975518Y-122911688D01*
X80855820Y-122947998D01*
X80745506Y-123006963D01*
X80648815Y-123086315D01*
X80569463Y-123183006D01*
X80510498Y-123293320D01*
X80474188Y-123413018D01*
X80461928Y-123537500D01*
X76660000Y-123537500D01*
X76660000Y-117860000D01*
X86309785Y-117860000D01*
X86229528Y-118010149D01*
G37*
%TD.AperFunction*%
%TD*%
M02*
