%TF.GenerationSoftware,KiCad,Pcbnew,5.1.9-73d0e3b20d~88~ubuntu20.04.1*%
%TF.CreationDate,2021-03-07T16:47:50-05:00*%
%TF.ProjectId,hexdisplay16,68657864-6973-4706-9c61-7931362e6b69,rev?*%
%TF.SameCoordinates,Original*%
%TF.FileFunction,Soldermask,Top*%
%TF.FilePolarity,Negative*%
%FSLAX46Y46*%
G04 Gerber Fmt 4.6, Leading zero omitted, Abs format (unit mm)*
G04 Created by KiCad (PCBNEW 5.1.9-73d0e3b20d~88~ubuntu20.04.1) date 2021-03-07 16:47:50*
%MOMM*%
%LPD*%
G01*
G04 APERTURE LIST*
%ADD10O,1.701600X1.701600*%
%ADD11O,1.801600X1.801600*%
G04 APERTURE END LIST*
D10*
%TO.C,J2*%
X136840000Y-124100000D03*
X129220000Y-134260000D03*
X136840000Y-126640000D03*
X129220000Y-131720000D03*
X136840000Y-129180000D03*
X129220000Y-129180000D03*
X136840000Y-131720000D03*
X129220000Y-126640000D03*
X136840000Y-134260000D03*
G36*
G01*
X128369200Y-124900000D02*
X128369200Y-123300000D01*
G75*
G02*
X128420000Y-123249200I50800J0D01*
G01*
X130020000Y-123249200D01*
G75*
G02*
X130070800Y-123300000I0J-50800D01*
G01*
X130070800Y-124900000D01*
G75*
G02*
X130020000Y-124950800I-50800J0D01*
G01*
X128420000Y-124950800D01*
G75*
G02*
X128369200Y-124900000I0J50800D01*
G01*
G37*
%TD*%
%TO.C,J6*%
G36*
G01*
X119150000Y-139099200D02*
X120850000Y-139099200D01*
G75*
G02*
X120900800Y-139150000I0J-50800D01*
G01*
X120900800Y-140850000D01*
G75*
G02*
X120850000Y-140900800I-50800J0D01*
G01*
X119150000Y-140900800D01*
G75*
G02*
X119099200Y-140850000I0J50800D01*
G01*
X119099200Y-139150000D01*
G75*
G02*
X119150000Y-139099200I50800J0D01*
G01*
G37*
D11*
X117460000Y-140000000D03*
X114920000Y-140000000D03*
X112380000Y-140000000D03*
X109840000Y-140000000D03*
X107300000Y-140000000D03*
X104760000Y-140000000D03*
X102220000Y-140000000D03*
X99680000Y-140000000D03*
X97140000Y-140000000D03*
X94600000Y-140000000D03*
X92060000Y-140000000D03*
X89520000Y-140000000D03*
X86980000Y-140000000D03*
X84440000Y-140000000D03*
X81900000Y-140000000D03*
%TD*%
%TO.C,C1*%
G36*
G01*
X82681632Y-128038300D02*
X81318368Y-128038300D01*
G75*
G02*
X81049200Y-127769132I0J269168D01*
G01*
X81049200Y-126880868D01*
G75*
G02*
X81318368Y-126611700I269168J0D01*
G01*
X82681632Y-126611700D01*
G75*
G02*
X82950800Y-126880868I0J-269168D01*
G01*
X82950800Y-127769132D01*
G75*
G02*
X82681632Y-128038300I-269168J0D01*
G01*
G37*
G36*
G01*
X82681632Y-124913300D02*
X81318368Y-124913300D01*
G75*
G02*
X81049200Y-124644132I0J269168D01*
G01*
X81049200Y-123755868D01*
G75*
G02*
X81318368Y-123486700I269168J0D01*
G01*
X82681632Y-123486700D01*
G75*
G02*
X82950800Y-123755868I0J-269168D01*
G01*
X82950800Y-124644132D01*
G75*
G02*
X82681632Y-124913300I-269168J0D01*
G01*
G37*
%TD*%
%TO.C,J1*%
G36*
G01*
X138529200Y-124900000D02*
X138529200Y-123300000D01*
G75*
G02*
X138580000Y-123249200I50800J0D01*
G01*
X140180000Y-123249200D01*
G75*
G02*
X140230800Y-123300000I0J-50800D01*
G01*
X140230800Y-124900000D01*
G75*
G02*
X140180000Y-124950800I-50800J0D01*
G01*
X138580000Y-124950800D01*
G75*
G02*
X138529200Y-124900000I0J50800D01*
G01*
G37*
D10*
X147000000Y-134260000D03*
X139380000Y-126640000D03*
X147000000Y-131720000D03*
X139380000Y-129180000D03*
X147000000Y-129180000D03*
X139380000Y-131720000D03*
X147000000Y-126640000D03*
X139380000Y-134260000D03*
X147000000Y-124100000D03*
%TD*%
%TO.C,J3*%
G36*
G01*
X118209200Y-124900000D02*
X118209200Y-123300000D01*
G75*
G02*
X118260000Y-123249200I50800J0D01*
G01*
X119860000Y-123249200D01*
G75*
G02*
X119910800Y-123300000I0J-50800D01*
G01*
X119910800Y-124900000D01*
G75*
G02*
X119860000Y-124950800I-50800J0D01*
G01*
X118260000Y-124950800D01*
G75*
G02*
X118209200Y-124900000I0J50800D01*
G01*
G37*
X126680000Y-134260000D03*
X119060000Y-126640000D03*
X126680000Y-131720000D03*
X119060000Y-129180000D03*
X126680000Y-129180000D03*
X119060000Y-131720000D03*
X126680000Y-126640000D03*
X119060000Y-134260000D03*
X126680000Y-124100000D03*
%TD*%
%TO.C,J4*%
X116520000Y-124100000D03*
X108900000Y-134260000D03*
X116520000Y-126640000D03*
X108900000Y-131720000D03*
X116520000Y-129180000D03*
X108900000Y-129180000D03*
X116520000Y-131720000D03*
X108900000Y-126640000D03*
X116520000Y-134260000D03*
G36*
G01*
X108049200Y-124900000D02*
X108049200Y-123300000D01*
G75*
G02*
X108100000Y-123249200I50800J0D01*
G01*
X109700000Y-123249200D01*
G75*
G02*
X109750800Y-123300000I0J-50800D01*
G01*
X109750800Y-124900000D01*
G75*
G02*
X109700000Y-124950800I-50800J0D01*
G01*
X108100000Y-124950800D01*
G75*
G02*
X108049200Y-124900000I0J50800D01*
G01*
G37*
%TD*%
%TO.C,J5*%
G36*
G01*
X80999200Y-131230000D02*
X80999200Y-129530000D01*
G75*
G02*
X81050000Y-129479200I50800J0D01*
G01*
X82750000Y-129479200D01*
G75*
G02*
X82800800Y-129530000I0J-50800D01*
G01*
X82800800Y-131230000D01*
G75*
G02*
X82750000Y-131280800I-50800J0D01*
G01*
X81050000Y-131280800D01*
G75*
G02*
X80999200Y-131230000I0J50800D01*
G01*
G37*
D11*
X81900000Y-132920000D03*
%TD*%
%TO.C,J7*%
G36*
G01*
X77299200Y-126150000D02*
X77299200Y-124450000D01*
G75*
G02*
X77350000Y-124399200I50800J0D01*
G01*
X79050000Y-124399200D01*
G75*
G02*
X79100800Y-124450000I0J-50800D01*
G01*
X79100800Y-126150000D01*
G75*
G02*
X79050000Y-126200800I-50800J0D01*
G01*
X77350000Y-126200800D01*
G75*
G02*
X77299200Y-126150000I0J50800D01*
G01*
G37*
X78200000Y-127840000D03*
X78200000Y-130380000D03*
X78200000Y-132920000D03*
X78200000Y-135460000D03*
X78200000Y-138000000D03*
%TD*%
%TO.C,Q1*%
G36*
G01*
X113199200Y-119600000D02*
X113199200Y-118800000D01*
G75*
G02*
X113250000Y-118749200I50800J0D01*
G01*
X114150000Y-118749200D01*
G75*
G02*
X114200800Y-118800000I0J-50800D01*
G01*
X114200800Y-119600000D01*
G75*
G02*
X114150000Y-119650800I-50800J0D01*
G01*
X113250000Y-119650800D01*
G75*
G02*
X113199200Y-119600000I0J50800D01*
G01*
G37*
G36*
G01*
X111199200Y-120550000D02*
X111199200Y-119750000D01*
G75*
G02*
X111250000Y-119699200I50800J0D01*
G01*
X112150000Y-119699200D01*
G75*
G02*
X112200800Y-119750000I0J-50800D01*
G01*
X112200800Y-120550000D01*
G75*
G02*
X112150000Y-120600800I-50800J0D01*
G01*
X111250000Y-120600800D01*
G75*
G02*
X111199200Y-120550000I0J50800D01*
G01*
G37*
G36*
G01*
X111199200Y-118650000D02*
X111199200Y-117850000D01*
G75*
G02*
X111250000Y-117799200I50800J0D01*
G01*
X112150000Y-117799200D01*
G75*
G02*
X112200800Y-117850000I0J-50800D01*
G01*
X112200800Y-118650000D01*
G75*
G02*
X112150000Y-118700800I-50800J0D01*
G01*
X111250000Y-118700800D01*
G75*
G02*
X111199200Y-118650000I0J50800D01*
G01*
G37*
%TD*%
%TO.C,Q2*%
G36*
G01*
X121499200Y-118550000D02*
X121499200Y-117750000D01*
G75*
G02*
X121550000Y-117699200I50800J0D01*
G01*
X122450000Y-117699200D01*
G75*
G02*
X122500800Y-117750000I0J-50800D01*
G01*
X122500800Y-118550000D01*
G75*
G02*
X122450000Y-118600800I-50800J0D01*
G01*
X121550000Y-118600800D01*
G75*
G02*
X121499200Y-118550000I0J50800D01*
G01*
G37*
G36*
G01*
X121499200Y-120450000D02*
X121499200Y-119650000D01*
G75*
G02*
X121550000Y-119599200I50800J0D01*
G01*
X122450000Y-119599200D01*
G75*
G02*
X122500800Y-119650000I0J-50800D01*
G01*
X122500800Y-120450000D01*
G75*
G02*
X122450000Y-120500800I-50800J0D01*
G01*
X121550000Y-120500800D01*
G75*
G02*
X121499200Y-120450000I0J50800D01*
G01*
G37*
G36*
G01*
X123499200Y-119500000D02*
X123499200Y-118700000D01*
G75*
G02*
X123550000Y-118649200I50800J0D01*
G01*
X124450000Y-118649200D01*
G75*
G02*
X124500800Y-118700000I0J-50800D01*
G01*
X124500800Y-119500000D01*
G75*
G02*
X124450000Y-119550800I-50800J0D01*
G01*
X123550000Y-119550800D01*
G75*
G02*
X123499200Y-119500000I0J50800D01*
G01*
G37*
%TD*%
%TO.C,Q3*%
G36*
G01*
X131599200Y-118650000D02*
X131599200Y-117850000D01*
G75*
G02*
X131650000Y-117799200I50800J0D01*
G01*
X132550000Y-117799200D01*
G75*
G02*
X132600800Y-117850000I0J-50800D01*
G01*
X132600800Y-118650000D01*
G75*
G02*
X132550000Y-118700800I-50800J0D01*
G01*
X131650000Y-118700800D01*
G75*
G02*
X131599200Y-118650000I0J50800D01*
G01*
G37*
G36*
G01*
X131599200Y-120550000D02*
X131599200Y-119750000D01*
G75*
G02*
X131650000Y-119699200I50800J0D01*
G01*
X132550000Y-119699200D01*
G75*
G02*
X132600800Y-119750000I0J-50800D01*
G01*
X132600800Y-120550000D01*
G75*
G02*
X132550000Y-120600800I-50800J0D01*
G01*
X131650000Y-120600800D01*
G75*
G02*
X131599200Y-120550000I0J50800D01*
G01*
G37*
G36*
G01*
X133599200Y-119600000D02*
X133599200Y-118800000D01*
G75*
G02*
X133650000Y-118749200I50800J0D01*
G01*
X134550000Y-118749200D01*
G75*
G02*
X134600800Y-118800000I0J-50800D01*
G01*
X134600800Y-119600000D01*
G75*
G02*
X134550000Y-119650800I-50800J0D01*
G01*
X133650000Y-119650800D01*
G75*
G02*
X133599200Y-119600000I0J50800D01*
G01*
G37*
%TD*%
%TO.C,Q4*%
G36*
G01*
X143799200Y-119600000D02*
X143799200Y-118800000D01*
G75*
G02*
X143850000Y-118749200I50800J0D01*
G01*
X144750000Y-118749200D01*
G75*
G02*
X144800800Y-118800000I0J-50800D01*
G01*
X144800800Y-119600000D01*
G75*
G02*
X144750000Y-119650800I-50800J0D01*
G01*
X143850000Y-119650800D01*
G75*
G02*
X143799200Y-119600000I0J50800D01*
G01*
G37*
G36*
G01*
X141799200Y-120550000D02*
X141799200Y-119750000D01*
G75*
G02*
X141850000Y-119699200I50800J0D01*
G01*
X142750000Y-119699200D01*
G75*
G02*
X142800800Y-119750000I0J-50800D01*
G01*
X142800800Y-120550000D01*
G75*
G02*
X142750000Y-120600800I-50800J0D01*
G01*
X141850000Y-120600800D01*
G75*
G02*
X141799200Y-120550000I0J50800D01*
G01*
G37*
G36*
G01*
X141799200Y-118650000D02*
X141799200Y-117850000D01*
G75*
G02*
X141850000Y-117799200I50800J0D01*
G01*
X142750000Y-117799200D01*
G75*
G02*
X142800800Y-117850000I0J-50800D01*
G01*
X142800800Y-118650000D01*
G75*
G02*
X142750000Y-118700800I-50800J0D01*
G01*
X141850000Y-118700800D01*
G75*
G02*
X141799200Y-118650000I0J50800D01*
G01*
G37*
%TD*%
%TO.C,R1*%
G36*
G01*
X101449200Y-122679635D02*
X101449200Y-121720365D01*
G75*
G02*
X101720365Y-121449200I271165J0D01*
G01*
X102479635Y-121449200D01*
G75*
G02*
X102750800Y-121720365I0J-271165D01*
G01*
X102750800Y-122679635D01*
G75*
G02*
X102479635Y-122950800I-271165J0D01*
G01*
X101720365Y-122950800D01*
G75*
G02*
X101449200Y-122679635I0J271165D01*
G01*
G37*
G36*
G01*
X103449200Y-122679635D02*
X103449200Y-121720365D01*
G75*
G02*
X103720365Y-121449200I271165J0D01*
G01*
X104479635Y-121449200D01*
G75*
G02*
X104750800Y-121720365I0J-271165D01*
G01*
X104750800Y-122679635D01*
G75*
G02*
X104479635Y-122950800I-271165J0D01*
G01*
X103720365Y-122950800D01*
G75*
G02*
X103449200Y-122679635I0J271165D01*
G01*
G37*
%TD*%
%TO.C,R2*%
G36*
G01*
X103449200Y-124929635D02*
X103449200Y-123970365D01*
G75*
G02*
X103720365Y-123699200I271165J0D01*
G01*
X104479635Y-123699200D01*
G75*
G02*
X104750800Y-123970365I0J-271165D01*
G01*
X104750800Y-124929635D01*
G75*
G02*
X104479635Y-125200800I-271165J0D01*
G01*
X103720365Y-125200800D01*
G75*
G02*
X103449200Y-124929635I0J271165D01*
G01*
G37*
G36*
G01*
X101449200Y-124929635D02*
X101449200Y-123970365D01*
G75*
G02*
X101720365Y-123699200I271165J0D01*
G01*
X102479635Y-123699200D01*
G75*
G02*
X102750800Y-123970365I0J-271165D01*
G01*
X102750800Y-124929635D01*
G75*
G02*
X102479635Y-125200800I-271165J0D01*
G01*
X101720365Y-125200800D01*
G75*
G02*
X101449200Y-124929635I0J271165D01*
G01*
G37*
%TD*%
%TO.C,R3*%
G36*
G01*
X101449200Y-127179635D02*
X101449200Y-126220365D01*
G75*
G02*
X101720365Y-125949200I271165J0D01*
G01*
X102479635Y-125949200D01*
G75*
G02*
X102750800Y-126220365I0J-271165D01*
G01*
X102750800Y-127179635D01*
G75*
G02*
X102479635Y-127450800I-271165J0D01*
G01*
X101720365Y-127450800D01*
G75*
G02*
X101449200Y-127179635I0J271165D01*
G01*
G37*
G36*
G01*
X103449200Y-127179635D02*
X103449200Y-126220365D01*
G75*
G02*
X103720365Y-125949200I271165J0D01*
G01*
X104479635Y-125949200D01*
G75*
G02*
X104750800Y-126220365I0J-271165D01*
G01*
X104750800Y-127179635D01*
G75*
G02*
X104479635Y-127450800I-271165J0D01*
G01*
X103720365Y-127450800D01*
G75*
G02*
X103449200Y-127179635I0J271165D01*
G01*
G37*
%TD*%
%TO.C,R4*%
G36*
G01*
X103449200Y-129429635D02*
X103449200Y-128470365D01*
G75*
G02*
X103720365Y-128199200I271165J0D01*
G01*
X104479635Y-128199200D01*
G75*
G02*
X104750800Y-128470365I0J-271165D01*
G01*
X104750800Y-129429635D01*
G75*
G02*
X104479635Y-129700800I-271165J0D01*
G01*
X103720365Y-129700800D01*
G75*
G02*
X103449200Y-129429635I0J271165D01*
G01*
G37*
G36*
G01*
X101449200Y-129429635D02*
X101449200Y-128470365D01*
G75*
G02*
X101720365Y-128199200I271165J0D01*
G01*
X102479635Y-128199200D01*
G75*
G02*
X102750800Y-128470365I0J-271165D01*
G01*
X102750800Y-129429635D01*
G75*
G02*
X102479635Y-129700800I-271165J0D01*
G01*
X101720365Y-129700800D01*
G75*
G02*
X101449200Y-129429635I0J271165D01*
G01*
G37*
%TD*%
%TO.C,R5*%
G36*
G01*
X101449200Y-131679635D02*
X101449200Y-130720365D01*
G75*
G02*
X101720365Y-130449200I271165J0D01*
G01*
X102479635Y-130449200D01*
G75*
G02*
X102750800Y-130720365I0J-271165D01*
G01*
X102750800Y-131679635D01*
G75*
G02*
X102479635Y-131950800I-271165J0D01*
G01*
X101720365Y-131950800D01*
G75*
G02*
X101449200Y-131679635I0J271165D01*
G01*
G37*
G36*
G01*
X103449200Y-131679635D02*
X103449200Y-130720365D01*
G75*
G02*
X103720365Y-130449200I271165J0D01*
G01*
X104479635Y-130449200D01*
G75*
G02*
X104750800Y-130720365I0J-271165D01*
G01*
X104750800Y-131679635D01*
G75*
G02*
X104479635Y-131950800I-271165J0D01*
G01*
X103720365Y-131950800D01*
G75*
G02*
X103449200Y-131679635I0J271165D01*
G01*
G37*
%TD*%
%TO.C,R6*%
G36*
G01*
X103449200Y-133929635D02*
X103449200Y-132970365D01*
G75*
G02*
X103720365Y-132699200I271165J0D01*
G01*
X104479635Y-132699200D01*
G75*
G02*
X104750800Y-132970365I0J-271165D01*
G01*
X104750800Y-133929635D01*
G75*
G02*
X104479635Y-134200800I-271165J0D01*
G01*
X103720365Y-134200800D01*
G75*
G02*
X103449200Y-133929635I0J271165D01*
G01*
G37*
G36*
G01*
X101449200Y-133929635D02*
X101449200Y-132970365D01*
G75*
G02*
X101720365Y-132699200I271165J0D01*
G01*
X102479635Y-132699200D01*
G75*
G02*
X102750800Y-132970365I0J-271165D01*
G01*
X102750800Y-133929635D01*
G75*
G02*
X102479635Y-134200800I-271165J0D01*
G01*
X101720365Y-134200800D01*
G75*
G02*
X101449200Y-133929635I0J271165D01*
G01*
G37*
%TD*%
%TO.C,R7*%
G36*
G01*
X101449200Y-136179635D02*
X101449200Y-135220365D01*
G75*
G02*
X101720365Y-134949200I271165J0D01*
G01*
X102479635Y-134949200D01*
G75*
G02*
X102750800Y-135220365I0J-271165D01*
G01*
X102750800Y-136179635D01*
G75*
G02*
X102479635Y-136450800I-271165J0D01*
G01*
X101720365Y-136450800D01*
G75*
G02*
X101449200Y-136179635I0J271165D01*
G01*
G37*
G36*
G01*
X103449200Y-136179635D02*
X103449200Y-135220365D01*
G75*
G02*
X103720365Y-134949200I271165J0D01*
G01*
X104479635Y-134949200D01*
G75*
G02*
X104750800Y-135220365I0J-271165D01*
G01*
X104750800Y-136179635D01*
G75*
G02*
X104479635Y-136450800I-271165J0D01*
G01*
X103720365Y-136450800D01*
G75*
G02*
X103449200Y-136179635I0J271165D01*
G01*
G37*
%TD*%
%TO.C,R8*%
G36*
G01*
X97020365Y-118049200D02*
X97979635Y-118049200D01*
G75*
G02*
X98250800Y-118320365I0J-271165D01*
G01*
X98250800Y-119079635D01*
G75*
G02*
X97979635Y-119350800I-271165J0D01*
G01*
X97020365Y-119350800D01*
G75*
G02*
X96749200Y-119079635I0J271165D01*
G01*
X96749200Y-118320365D01*
G75*
G02*
X97020365Y-118049200I271165J0D01*
G01*
G37*
G36*
G01*
X97020365Y-120049200D02*
X97979635Y-120049200D01*
G75*
G02*
X98250800Y-120320365I0J-271165D01*
G01*
X98250800Y-121079635D01*
G75*
G02*
X97979635Y-121350800I-271165J0D01*
G01*
X97020365Y-121350800D01*
G75*
G02*
X96749200Y-121079635I0J271165D01*
G01*
X96749200Y-120320365D01*
G75*
G02*
X97020365Y-120049200I271165J0D01*
G01*
G37*
%TD*%
%TO.C,R9*%
G36*
G01*
X93720365Y-120049200D02*
X94679635Y-120049200D01*
G75*
G02*
X94950800Y-120320365I0J-271165D01*
G01*
X94950800Y-121079635D01*
G75*
G02*
X94679635Y-121350800I-271165J0D01*
G01*
X93720365Y-121350800D01*
G75*
G02*
X93449200Y-121079635I0J271165D01*
G01*
X93449200Y-120320365D01*
G75*
G02*
X93720365Y-120049200I271165J0D01*
G01*
G37*
G36*
G01*
X93720365Y-118049200D02*
X94679635Y-118049200D01*
G75*
G02*
X94950800Y-118320365I0J-271165D01*
G01*
X94950800Y-119079635D01*
G75*
G02*
X94679635Y-119350800I-271165J0D01*
G01*
X93720365Y-119350800D01*
G75*
G02*
X93449200Y-119079635I0J271165D01*
G01*
X93449200Y-118320365D01*
G75*
G02*
X93720365Y-118049200I271165J0D01*
G01*
G37*
%TD*%
%TO.C,R10*%
G36*
G01*
X90420365Y-118049200D02*
X91379635Y-118049200D01*
G75*
G02*
X91650800Y-118320365I0J-271165D01*
G01*
X91650800Y-119079635D01*
G75*
G02*
X91379635Y-119350800I-271165J0D01*
G01*
X90420365Y-119350800D01*
G75*
G02*
X90149200Y-119079635I0J271165D01*
G01*
X90149200Y-118320365D01*
G75*
G02*
X90420365Y-118049200I271165J0D01*
G01*
G37*
G36*
G01*
X90420365Y-120049200D02*
X91379635Y-120049200D01*
G75*
G02*
X91650800Y-120320365I0J-271165D01*
G01*
X91650800Y-121079635D01*
G75*
G02*
X91379635Y-121350800I-271165J0D01*
G01*
X90420365Y-121350800D01*
G75*
G02*
X90149200Y-121079635I0J271165D01*
G01*
X90149200Y-120320365D01*
G75*
G02*
X90420365Y-120049200I271165J0D01*
G01*
G37*
%TD*%
%TO.C,R11*%
G36*
G01*
X87020365Y-120049200D02*
X87979635Y-120049200D01*
G75*
G02*
X88250800Y-120320365I0J-271165D01*
G01*
X88250800Y-121079635D01*
G75*
G02*
X87979635Y-121350800I-271165J0D01*
G01*
X87020365Y-121350800D01*
G75*
G02*
X86749200Y-121079635I0J271165D01*
G01*
X86749200Y-120320365D01*
G75*
G02*
X87020365Y-120049200I271165J0D01*
G01*
G37*
G36*
G01*
X87020365Y-118049200D02*
X87979635Y-118049200D01*
G75*
G02*
X88250800Y-118320365I0J-271165D01*
G01*
X88250800Y-119079635D01*
G75*
G02*
X87979635Y-119350800I-271165J0D01*
G01*
X87020365Y-119350800D01*
G75*
G02*
X86749200Y-119079635I0J271165D01*
G01*
X86749200Y-118320365D01*
G75*
G02*
X87020365Y-118049200I271165J0D01*
G01*
G37*
%TD*%
%TO.C,U1*%
G36*
G01*
X85249200Y-125762900D02*
X85249200Y-125437100D01*
G75*
G02*
X85412100Y-125274200I162900J0D01*
G01*
X86662900Y-125274200D01*
G75*
G02*
X86825800Y-125437100I0J-162900D01*
G01*
X86825800Y-125762900D01*
G75*
G02*
X86662900Y-125925800I-162900J0D01*
G01*
X85412100Y-125925800D01*
G75*
G02*
X85249200Y-125762900I0J162900D01*
G01*
G37*
G36*
G01*
X85249200Y-126562900D02*
X85249200Y-126237100D01*
G75*
G02*
X85412100Y-126074200I162900J0D01*
G01*
X86662900Y-126074200D01*
G75*
G02*
X86825800Y-126237100I0J-162900D01*
G01*
X86825800Y-126562900D01*
G75*
G02*
X86662900Y-126725800I-162900J0D01*
G01*
X85412100Y-126725800D01*
G75*
G02*
X85249200Y-126562900I0J162900D01*
G01*
G37*
G36*
G01*
X85249200Y-127362900D02*
X85249200Y-127037100D01*
G75*
G02*
X85412100Y-126874200I162900J0D01*
G01*
X86662900Y-126874200D01*
G75*
G02*
X86825800Y-127037100I0J-162900D01*
G01*
X86825800Y-127362900D01*
G75*
G02*
X86662900Y-127525800I-162900J0D01*
G01*
X85412100Y-127525800D01*
G75*
G02*
X85249200Y-127362900I0J162900D01*
G01*
G37*
G36*
G01*
X85249200Y-128162900D02*
X85249200Y-127837100D01*
G75*
G02*
X85412100Y-127674200I162900J0D01*
G01*
X86662900Y-127674200D01*
G75*
G02*
X86825800Y-127837100I0J-162900D01*
G01*
X86825800Y-128162900D01*
G75*
G02*
X86662900Y-128325800I-162900J0D01*
G01*
X85412100Y-128325800D01*
G75*
G02*
X85249200Y-128162900I0J162900D01*
G01*
G37*
G36*
G01*
X85249200Y-128962900D02*
X85249200Y-128637100D01*
G75*
G02*
X85412100Y-128474200I162900J0D01*
G01*
X86662900Y-128474200D01*
G75*
G02*
X86825800Y-128637100I0J-162900D01*
G01*
X86825800Y-128962900D01*
G75*
G02*
X86662900Y-129125800I-162900J0D01*
G01*
X85412100Y-129125800D01*
G75*
G02*
X85249200Y-128962900I0J162900D01*
G01*
G37*
G36*
G01*
X85249200Y-129762900D02*
X85249200Y-129437100D01*
G75*
G02*
X85412100Y-129274200I162900J0D01*
G01*
X86662900Y-129274200D01*
G75*
G02*
X86825800Y-129437100I0J-162900D01*
G01*
X86825800Y-129762900D01*
G75*
G02*
X86662900Y-129925800I-162900J0D01*
G01*
X85412100Y-129925800D01*
G75*
G02*
X85249200Y-129762900I0J162900D01*
G01*
G37*
G36*
G01*
X85249200Y-130562900D02*
X85249200Y-130237100D01*
G75*
G02*
X85412100Y-130074200I162900J0D01*
G01*
X86662900Y-130074200D01*
G75*
G02*
X86825800Y-130237100I0J-162900D01*
G01*
X86825800Y-130562900D01*
G75*
G02*
X86662900Y-130725800I-162900J0D01*
G01*
X85412100Y-130725800D01*
G75*
G02*
X85249200Y-130562900I0J162900D01*
G01*
G37*
G36*
G01*
X85249200Y-131362900D02*
X85249200Y-131037100D01*
G75*
G02*
X85412100Y-130874200I162900J0D01*
G01*
X86662900Y-130874200D01*
G75*
G02*
X86825800Y-131037100I0J-162900D01*
G01*
X86825800Y-131362900D01*
G75*
G02*
X86662900Y-131525800I-162900J0D01*
G01*
X85412100Y-131525800D01*
G75*
G02*
X85249200Y-131362900I0J162900D01*
G01*
G37*
G36*
G01*
X85249200Y-132162900D02*
X85249200Y-131837100D01*
G75*
G02*
X85412100Y-131674200I162900J0D01*
G01*
X86662900Y-131674200D01*
G75*
G02*
X86825800Y-131837100I0J-162900D01*
G01*
X86825800Y-132162900D01*
G75*
G02*
X86662900Y-132325800I-162900J0D01*
G01*
X85412100Y-132325800D01*
G75*
G02*
X85249200Y-132162900I0J162900D01*
G01*
G37*
G36*
G01*
X85249200Y-132962900D02*
X85249200Y-132637100D01*
G75*
G02*
X85412100Y-132474200I162900J0D01*
G01*
X86662900Y-132474200D01*
G75*
G02*
X86825800Y-132637100I0J-162900D01*
G01*
X86825800Y-132962900D01*
G75*
G02*
X86662900Y-133125800I-162900J0D01*
G01*
X85412100Y-133125800D01*
G75*
G02*
X85249200Y-132962900I0J162900D01*
G01*
G37*
G36*
G01*
X85249200Y-133762900D02*
X85249200Y-133437100D01*
G75*
G02*
X85412100Y-133274200I162900J0D01*
G01*
X86662900Y-133274200D01*
G75*
G02*
X86825800Y-133437100I0J-162900D01*
G01*
X86825800Y-133762900D01*
G75*
G02*
X86662900Y-133925800I-162900J0D01*
G01*
X85412100Y-133925800D01*
G75*
G02*
X85249200Y-133762900I0J162900D01*
G01*
G37*
G36*
G01*
X87374200Y-135887900D02*
X87374200Y-134637100D01*
G75*
G02*
X87537100Y-134474200I162900J0D01*
G01*
X87862900Y-134474200D01*
G75*
G02*
X88025800Y-134637100I0J-162900D01*
G01*
X88025800Y-135887900D01*
G75*
G02*
X87862900Y-136050800I-162900J0D01*
G01*
X87537100Y-136050800D01*
G75*
G02*
X87374200Y-135887900I0J162900D01*
G01*
G37*
G36*
G01*
X88174200Y-135887900D02*
X88174200Y-134637100D01*
G75*
G02*
X88337100Y-134474200I162900J0D01*
G01*
X88662900Y-134474200D01*
G75*
G02*
X88825800Y-134637100I0J-162900D01*
G01*
X88825800Y-135887900D01*
G75*
G02*
X88662900Y-136050800I-162900J0D01*
G01*
X88337100Y-136050800D01*
G75*
G02*
X88174200Y-135887900I0J162900D01*
G01*
G37*
G36*
G01*
X88974200Y-135887900D02*
X88974200Y-134637100D01*
G75*
G02*
X89137100Y-134474200I162900J0D01*
G01*
X89462900Y-134474200D01*
G75*
G02*
X89625800Y-134637100I0J-162900D01*
G01*
X89625800Y-135887900D01*
G75*
G02*
X89462900Y-136050800I-162900J0D01*
G01*
X89137100Y-136050800D01*
G75*
G02*
X88974200Y-135887900I0J162900D01*
G01*
G37*
G36*
G01*
X89774200Y-135887900D02*
X89774200Y-134637100D01*
G75*
G02*
X89937100Y-134474200I162900J0D01*
G01*
X90262900Y-134474200D01*
G75*
G02*
X90425800Y-134637100I0J-162900D01*
G01*
X90425800Y-135887900D01*
G75*
G02*
X90262900Y-136050800I-162900J0D01*
G01*
X89937100Y-136050800D01*
G75*
G02*
X89774200Y-135887900I0J162900D01*
G01*
G37*
G36*
G01*
X90574200Y-135887900D02*
X90574200Y-134637100D01*
G75*
G02*
X90737100Y-134474200I162900J0D01*
G01*
X91062900Y-134474200D01*
G75*
G02*
X91225800Y-134637100I0J-162900D01*
G01*
X91225800Y-135887900D01*
G75*
G02*
X91062900Y-136050800I-162900J0D01*
G01*
X90737100Y-136050800D01*
G75*
G02*
X90574200Y-135887900I0J162900D01*
G01*
G37*
G36*
G01*
X91374200Y-135887900D02*
X91374200Y-134637100D01*
G75*
G02*
X91537100Y-134474200I162900J0D01*
G01*
X91862900Y-134474200D01*
G75*
G02*
X92025800Y-134637100I0J-162900D01*
G01*
X92025800Y-135887900D01*
G75*
G02*
X91862900Y-136050800I-162900J0D01*
G01*
X91537100Y-136050800D01*
G75*
G02*
X91374200Y-135887900I0J162900D01*
G01*
G37*
G36*
G01*
X92174200Y-135887900D02*
X92174200Y-134637100D01*
G75*
G02*
X92337100Y-134474200I162900J0D01*
G01*
X92662900Y-134474200D01*
G75*
G02*
X92825800Y-134637100I0J-162900D01*
G01*
X92825800Y-135887900D01*
G75*
G02*
X92662900Y-136050800I-162900J0D01*
G01*
X92337100Y-136050800D01*
G75*
G02*
X92174200Y-135887900I0J162900D01*
G01*
G37*
G36*
G01*
X92974200Y-135887900D02*
X92974200Y-134637100D01*
G75*
G02*
X93137100Y-134474200I162900J0D01*
G01*
X93462900Y-134474200D01*
G75*
G02*
X93625800Y-134637100I0J-162900D01*
G01*
X93625800Y-135887900D01*
G75*
G02*
X93462900Y-136050800I-162900J0D01*
G01*
X93137100Y-136050800D01*
G75*
G02*
X92974200Y-135887900I0J162900D01*
G01*
G37*
G36*
G01*
X93774200Y-135887900D02*
X93774200Y-134637100D01*
G75*
G02*
X93937100Y-134474200I162900J0D01*
G01*
X94262900Y-134474200D01*
G75*
G02*
X94425800Y-134637100I0J-162900D01*
G01*
X94425800Y-135887900D01*
G75*
G02*
X94262900Y-136050800I-162900J0D01*
G01*
X93937100Y-136050800D01*
G75*
G02*
X93774200Y-135887900I0J162900D01*
G01*
G37*
G36*
G01*
X94574200Y-135887900D02*
X94574200Y-134637100D01*
G75*
G02*
X94737100Y-134474200I162900J0D01*
G01*
X95062900Y-134474200D01*
G75*
G02*
X95225800Y-134637100I0J-162900D01*
G01*
X95225800Y-135887900D01*
G75*
G02*
X95062900Y-136050800I-162900J0D01*
G01*
X94737100Y-136050800D01*
G75*
G02*
X94574200Y-135887900I0J162900D01*
G01*
G37*
G36*
G01*
X95374200Y-135887900D02*
X95374200Y-134637100D01*
G75*
G02*
X95537100Y-134474200I162900J0D01*
G01*
X95862900Y-134474200D01*
G75*
G02*
X96025800Y-134637100I0J-162900D01*
G01*
X96025800Y-135887900D01*
G75*
G02*
X95862900Y-136050800I-162900J0D01*
G01*
X95537100Y-136050800D01*
G75*
G02*
X95374200Y-135887900I0J162900D01*
G01*
G37*
G36*
G01*
X96574200Y-133762900D02*
X96574200Y-133437100D01*
G75*
G02*
X96737100Y-133274200I162900J0D01*
G01*
X97987900Y-133274200D01*
G75*
G02*
X98150800Y-133437100I0J-162900D01*
G01*
X98150800Y-133762900D01*
G75*
G02*
X97987900Y-133925800I-162900J0D01*
G01*
X96737100Y-133925800D01*
G75*
G02*
X96574200Y-133762900I0J162900D01*
G01*
G37*
G36*
G01*
X96574200Y-132962900D02*
X96574200Y-132637100D01*
G75*
G02*
X96737100Y-132474200I162900J0D01*
G01*
X97987900Y-132474200D01*
G75*
G02*
X98150800Y-132637100I0J-162900D01*
G01*
X98150800Y-132962900D01*
G75*
G02*
X97987900Y-133125800I-162900J0D01*
G01*
X96737100Y-133125800D01*
G75*
G02*
X96574200Y-132962900I0J162900D01*
G01*
G37*
G36*
G01*
X96574200Y-132162900D02*
X96574200Y-131837100D01*
G75*
G02*
X96737100Y-131674200I162900J0D01*
G01*
X97987900Y-131674200D01*
G75*
G02*
X98150800Y-131837100I0J-162900D01*
G01*
X98150800Y-132162900D01*
G75*
G02*
X97987900Y-132325800I-162900J0D01*
G01*
X96737100Y-132325800D01*
G75*
G02*
X96574200Y-132162900I0J162900D01*
G01*
G37*
G36*
G01*
X96574200Y-131362900D02*
X96574200Y-131037100D01*
G75*
G02*
X96737100Y-130874200I162900J0D01*
G01*
X97987900Y-130874200D01*
G75*
G02*
X98150800Y-131037100I0J-162900D01*
G01*
X98150800Y-131362900D01*
G75*
G02*
X97987900Y-131525800I-162900J0D01*
G01*
X96737100Y-131525800D01*
G75*
G02*
X96574200Y-131362900I0J162900D01*
G01*
G37*
G36*
G01*
X96574200Y-130562900D02*
X96574200Y-130237100D01*
G75*
G02*
X96737100Y-130074200I162900J0D01*
G01*
X97987900Y-130074200D01*
G75*
G02*
X98150800Y-130237100I0J-162900D01*
G01*
X98150800Y-130562900D01*
G75*
G02*
X97987900Y-130725800I-162900J0D01*
G01*
X96737100Y-130725800D01*
G75*
G02*
X96574200Y-130562900I0J162900D01*
G01*
G37*
G36*
G01*
X96574200Y-129762900D02*
X96574200Y-129437100D01*
G75*
G02*
X96737100Y-129274200I162900J0D01*
G01*
X97987900Y-129274200D01*
G75*
G02*
X98150800Y-129437100I0J-162900D01*
G01*
X98150800Y-129762900D01*
G75*
G02*
X97987900Y-129925800I-162900J0D01*
G01*
X96737100Y-129925800D01*
G75*
G02*
X96574200Y-129762900I0J162900D01*
G01*
G37*
G36*
G01*
X96574200Y-128962900D02*
X96574200Y-128637100D01*
G75*
G02*
X96737100Y-128474200I162900J0D01*
G01*
X97987900Y-128474200D01*
G75*
G02*
X98150800Y-128637100I0J-162900D01*
G01*
X98150800Y-128962900D01*
G75*
G02*
X97987900Y-129125800I-162900J0D01*
G01*
X96737100Y-129125800D01*
G75*
G02*
X96574200Y-128962900I0J162900D01*
G01*
G37*
G36*
G01*
X96574200Y-128162900D02*
X96574200Y-127837100D01*
G75*
G02*
X96737100Y-127674200I162900J0D01*
G01*
X97987900Y-127674200D01*
G75*
G02*
X98150800Y-127837100I0J-162900D01*
G01*
X98150800Y-128162900D01*
G75*
G02*
X97987900Y-128325800I-162900J0D01*
G01*
X96737100Y-128325800D01*
G75*
G02*
X96574200Y-128162900I0J162900D01*
G01*
G37*
G36*
G01*
X96574200Y-127362900D02*
X96574200Y-127037100D01*
G75*
G02*
X96737100Y-126874200I162900J0D01*
G01*
X97987900Y-126874200D01*
G75*
G02*
X98150800Y-127037100I0J-162900D01*
G01*
X98150800Y-127362900D01*
G75*
G02*
X97987900Y-127525800I-162900J0D01*
G01*
X96737100Y-127525800D01*
G75*
G02*
X96574200Y-127362900I0J162900D01*
G01*
G37*
G36*
G01*
X96574200Y-126562900D02*
X96574200Y-126237100D01*
G75*
G02*
X96737100Y-126074200I162900J0D01*
G01*
X97987900Y-126074200D01*
G75*
G02*
X98150800Y-126237100I0J-162900D01*
G01*
X98150800Y-126562900D01*
G75*
G02*
X97987900Y-126725800I-162900J0D01*
G01*
X96737100Y-126725800D01*
G75*
G02*
X96574200Y-126562900I0J162900D01*
G01*
G37*
G36*
G01*
X96574200Y-125762900D02*
X96574200Y-125437100D01*
G75*
G02*
X96737100Y-125274200I162900J0D01*
G01*
X97987900Y-125274200D01*
G75*
G02*
X98150800Y-125437100I0J-162900D01*
G01*
X98150800Y-125762900D01*
G75*
G02*
X97987900Y-125925800I-162900J0D01*
G01*
X96737100Y-125925800D01*
G75*
G02*
X96574200Y-125762900I0J162900D01*
G01*
G37*
G36*
G01*
X95374200Y-124562900D02*
X95374200Y-123312100D01*
G75*
G02*
X95537100Y-123149200I162900J0D01*
G01*
X95862900Y-123149200D01*
G75*
G02*
X96025800Y-123312100I0J-162900D01*
G01*
X96025800Y-124562900D01*
G75*
G02*
X95862900Y-124725800I-162900J0D01*
G01*
X95537100Y-124725800D01*
G75*
G02*
X95374200Y-124562900I0J162900D01*
G01*
G37*
G36*
G01*
X94574200Y-124562900D02*
X94574200Y-123312100D01*
G75*
G02*
X94737100Y-123149200I162900J0D01*
G01*
X95062900Y-123149200D01*
G75*
G02*
X95225800Y-123312100I0J-162900D01*
G01*
X95225800Y-124562900D01*
G75*
G02*
X95062900Y-124725800I-162900J0D01*
G01*
X94737100Y-124725800D01*
G75*
G02*
X94574200Y-124562900I0J162900D01*
G01*
G37*
G36*
G01*
X93774200Y-124562900D02*
X93774200Y-123312100D01*
G75*
G02*
X93937100Y-123149200I162900J0D01*
G01*
X94262900Y-123149200D01*
G75*
G02*
X94425800Y-123312100I0J-162900D01*
G01*
X94425800Y-124562900D01*
G75*
G02*
X94262900Y-124725800I-162900J0D01*
G01*
X93937100Y-124725800D01*
G75*
G02*
X93774200Y-124562900I0J162900D01*
G01*
G37*
G36*
G01*
X92974200Y-124562900D02*
X92974200Y-123312100D01*
G75*
G02*
X93137100Y-123149200I162900J0D01*
G01*
X93462900Y-123149200D01*
G75*
G02*
X93625800Y-123312100I0J-162900D01*
G01*
X93625800Y-124562900D01*
G75*
G02*
X93462900Y-124725800I-162900J0D01*
G01*
X93137100Y-124725800D01*
G75*
G02*
X92974200Y-124562900I0J162900D01*
G01*
G37*
G36*
G01*
X92174200Y-124562900D02*
X92174200Y-123312100D01*
G75*
G02*
X92337100Y-123149200I162900J0D01*
G01*
X92662900Y-123149200D01*
G75*
G02*
X92825800Y-123312100I0J-162900D01*
G01*
X92825800Y-124562900D01*
G75*
G02*
X92662900Y-124725800I-162900J0D01*
G01*
X92337100Y-124725800D01*
G75*
G02*
X92174200Y-124562900I0J162900D01*
G01*
G37*
G36*
G01*
X91374200Y-124562900D02*
X91374200Y-123312100D01*
G75*
G02*
X91537100Y-123149200I162900J0D01*
G01*
X91862900Y-123149200D01*
G75*
G02*
X92025800Y-123312100I0J-162900D01*
G01*
X92025800Y-124562900D01*
G75*
G02*
X91862900Y-124725800I-162900J0D01*
G01*
X91537100Y-124725800D01*
G75*
G02*
X91374200Y-124562900I0J162900D01*
G01*
G37*
G36*
G01*
X90574200Y-124562900D02*
X90574200Y-123312100D01*
G75*
G02*
X90737100Y-123149200I162900J0D01*
G01*
X91062900Y-123149200D01*
G75*
G02*
X91225800Y-123312100I0J-162900D01*
G01*
X91225800Y-124562900D01*
G75*
G02*
X91062900Y-124725800I-162900J0D01*
G01*
X90737100Y-124725800D01*
G75*
G02*
X90574200Y-124562900I0J162900D01*
G01*
G37*
G36*
G01*
X89774200Y-124562900D02*
X89774200Y-123312100D01*
G75*
G02*
X89937100Y-123149200I162900J0D01*
G01*
X90262900Y-123149200D01*
G75*
G02*
X90425800Y-123312100I0J-162900D01*
G01*
X90425800Y-124562900D01*
G75*
G02*
X90262900Y-124725800I-162900J0D01*
G01*
X89937100Y-124725800D01*
G75*
G02*
X89774200Y-124562900I0J162900D01*
G01*
G37*
G36*
G01*
X88974200Y-124562900D02*
X88974200Y-123312100D01*
G75*
G02*
X89137100Y-123149200I162900J0D01*
G01*
X89462900Y-123149200D01*
G75*
G02*
X89625800Y-123312100I0J-162900D01*
G01*
X89625800Y-124562900D01*
G75*
G02*
X89462900Y-124725800I-162900J0D01*
G01*
X89137100Y-124725800D01*
G75*
G02*
X88974200Y-124562900I0J162900D01*
G01*
G37*
G36*
G01*
X88174200Y-124562900D02*
X88174200Y-123312100D01*
G75*
G02*
X88337100Y-123149200I162900J0D01*
G01*
X88662900Y-123149200D01*
G75*
G02*
X88825800Y-123312100I0J-162900D01*
G01*
X88825800Y-124562900D01*
G75*
G02*
X88662900Y-124725800I-162900J0D01*
G01*
X88337100Y-124725800D01*
G75*
G02*
X88174200Y-124562900I0J162900D01*
G01*
G37*
G36*
G01*
X87374200Y-124562900D02*
X87374200Y-123312100D01*
G75*
G02*
X87537100Y-123149200I162900J0D01*
G01*
X87862900Y-123149200D01*
G75*
G02*
X88025800Y-123312100I0J-162900D01*
G01*
X88025800Y-124562900D01*
G75*
G02*
X87862900Y-124725800I-162900J0D01*
G01*
X87537100Y-124725800D01*
G75*
G02*
X87374200Y-124562900I0J162900D01*
G01*
G37*
%TD*%
M02*
