%TF.GenerationSoftware,KiCad,Pcbnew,5.1.9-73d0e3b20d~88~ubuntu20.04.1*%
%TF.CreationDate,2021-03-07T16:47:50-05:00*%
%TF.ProjectId,hexdisplay16,68657864-6973-4706-9c61-7931362e6b69,rev?*%
%TF.SameCoordinates,Original*%
%TF.FileFunction,Copper,L2,Bot*%
%TF.FilePolarity,Positive*%
%FSLAX46Y46*%
G04 Gerber Fmt 4.6, Leading zero omitted, Abs format (unit mm)*
G04 Created by KiCad (PCBNEW 5.1.9-73d0e3b20d~88~ubuntu20.04.1) date 2021-03-07 16:47:50*
%MOMM*%
%LPD*%
G01*
G04 APERTURE LIST*
%TA.AperFunction,ComponentPad*%
%ADD10O,1.600000X1.600000*%
%TD*%
%TA.AperFunction,ComponentPad*%
%ADD11R,1.600000X1.600000*%
%TD*%
%TA.AperFunction,ComponentPad*%
%ADD12R,1.700000X1.700000*%
%TD*%
%TA.AperFunction,ComponentPad*%
%ADD13O,1.700000X1.700000*%
%TD*%
%TA.AperFunction,ViaPad*%
%ADD14C,0.685800*%
%TD*%
%TA.AperFunction,Conductor*%
%ADD15C,0.254000*%
%TD*%
%TA.AperFunction,Conductor*%
%ADD16C,0.152400*%
%TD*%
%TA.AperFunction,Conductor*%
%ADD17C,0.100000*%
%TD*%
G04 APERTURE END LIST*
D10*
%TO.P,J2,10*%
%TO.N,/A*%
X136840000Y-124100000D03*
%TO.P,J2,5*%
%TO.N,/D*%
X129220000Y-134260000D03*
%TO.P,J2,9*%
%TO.N,/B*%
X136840000Y-126640000D03*
%TO.P,J2,4*%
%TO.N,/E*%
X129220000Y-131720000D03*
%TO.P,J2,8*%
%TO.N,/C*%
X136840000Y-129180000D03*
%TO.P,J2,3*%
%TO.N,/G*%
X129220000Y-129180000D03*
%TO.P,J2,7*%
%TO.N,Net-(J2-Pad7)*%
X136840000Y-131720000D03*
%TO.P,J2,2*%
%TO.N,/F*%
X129220000Y-126640000D03*
%TO.P,J2,6*%
%TO.N,/CA3*%
X136840000Y-134260000D03*
D11*
%TO.P,J2,1*%
X129220000Y-124100000D03*
%TD*%
D12*
%TO.P,J6,1*%
%TO.N,/D0*%
X120000000Y-140000000D03*
D13*
%TO.P,J6,2*%
%TO.N,/D1*%
X117460000Y-140000000D03*
%TO.P,J6,3*%
%TO.N,/D2*%
X114920000Y-140000000D03*
%TO.P,J6,4*%
%TO.N,/D3*%
X112380000Y-140000000D03*
%TO.P,J6,5*%
%TO.N,/D4*%
X109840000Y-140000000D03*
%TO.P,J6,6*%
%TO.N,/D5*%
X107300000Y-140000000D03*
%TO.P,J6,7*%
%TO.N,/D6*%
X104760000Y-140000000D03*
%TO.P,J6,8*%
%TO.N,/D7*%
X102220000Y-140000000D03*
%TO.P,J6,9*%
%TO.N,/D8*%
X99680000Y-140000000D03*
%TO.P,J6,10*%
%TO.N,/D9*%
X97140000Y-140000000D03*
%TO.P,J6,11*%
%TO.N,/D10*%
X94600000Y-140000000D03*
%TO.P,J6,12*%
%TO.N,/D11*%
X92060000Y-140000000D03*
%TO.P,J6,13*%
%TO.N,/D12*%
X89520000Y-140000000D03*
%TO.P,J6,14*%
%TO.N,/D13*%
X86980000Y-140000000D03*
%TO.P,J6,15*%
%TO.N,/D14*%
X84440000Y-140000000D03*
%TO.P,J6,16*%
%TO.N,/D15*%
X81900000Y-140000000D03*
%TD*%
D11*
%TO.P,J1,1*%
%TO.N,/CA4*%
X139380000Y-124100000D03*
D10*
%TO.P,J1,6*%
X147000000Y-134260000D03*
%TO.P,J1,2*%
%TO.N,/F*%
X139380000Y-126640000D03*
%TO.P,J1,7*%
%TO.N,Net-(J1-Pad7)*%
X147000000Y-131720000D03*
%TO.P,J1,3*%
%TO.N,/G*%
X139380000Y-129180000D03*
%TO.P,J1,8*%
%TO.N,/C*%
X147000000Y-129180000D03*
%TO.P,J1,4*%
%TO.N,/E*%
X139380000Y-131720000D03*
%TO.P,J1,9*%
%TO.N,/B*%
X147000000Y-126640000D03*
%TO.P,J1,5*%
%TO.N,/D*%
X139380000Y-134260000D03*
%TO.P,J1,10*%
%TO.N,/A*%
X147000000Y-124100000D03*
%TD*%
D11*
%TO.P,J3,1*%
%TO.N,/CA2*%
X119060000Y-124100000D03*
D10*
%TO.P,J3,6*%
X126680000Y-134260000D03*
%TO.P,J3,2*%
%TO.N,/F*%
X119060000Y-126640000D03*
%TO.P,J3,7*%
%TO.N,Net-(J3-Pad7)*%
X126680000Y-131720000D03*
%TO.P,J3,3*%
%TO.N,/G*%
X119060000Y-129180000D03*
%TO.P,J3,8*%
%TO.N,/C*%
X126680000Y-129180000D03*
%TO.P,J3,4*%
%TO.N,/E*%
X119060000Y-131720000D03*
%TO.P,J3,9*%
%TO.N,/B*%
X126680000Y-126640000D03*
%TO.P,J3,5*%
%TO.N,/D*%
X119060000Y-134260000D03*
%TO.P,J3,10*%
%TO.N,/A*%
X126680000Y-124100000D03*
%TD*%
%TO.P,J4,10*%
%TO.N,/A*%
X116520000Y-124100000D03*
%TO.P,J4,5*%
%TO.N,/D*%
X108900000Y-134260000D03*
%TO.P,J4,9*%
%TO.N,/B*%
X116520000Y-126640000D03*
%TO.P,J4,4*%
%TO.N,/E*%
X108900000Y-131720000D03*
%TO.P,J4,8*%
%TO.N,/C*%
X116520000Y-129180000D03*
%TO.P,J4,3*%
%TO.N,/G*%
X108900000Y-129180000D03*
%TO.P,J4,7*%
%TO.N,Net-(J4-Pad7)*%
X116520000Y-131720000D03*
%TO.P,J4,2*%
%TO.N,/F*%
X108900000Y-126640000D03*
%TO.P,J4,6*%
%TO.N,/CA1*%
X116520000Y-134260000D03*
D11*
%TO.P,J4,1*%
X108900000Y-124100000D03*
%TD*%
D12*
%TO.P,J5,1*%
%TO.N,GND*%
X81900000Y-130380000D03*
D13*
%TO.P,J5,2*%
%TO.N,VCC*%
X81900000Y-132920000D03*
%TD*%
D12*
%TO.P,J7,1*%
%TO.N,GND*%
X78200000Y-125300000D03*
D13*
%TO.P,J7,2*%
%TO.N,VCC*%
X78200000Y-127840000D03*
%TO.P,J7,3*%
%TO.N,/MISO*%
X78200000Y-130380000D03*
%TO.P,J7,4*%
%TO.N,/SCK*%
X78200000Y-132920000D03*
%TO.P,J7,5*%
%TO.N,/~RESET*%
X78200000Y-135460000D03*
%TO.P,J7,6*%
%TO.N,/MOSI*%
X78200000Y-138000000D03*
%TD*%
D14*
%TO.N,VCC*%
X83500000Y-129100000D03*
X92500000Y-122700000D03*
X141100000Y-121200000D03*
X120823690Y-121776310D03*
X131123690Y-121776310D03*
X110576310Y-121776310D03*
X91661797Y-133800000D03*
X91700000Y-130300000D03*
%TO.N,GND*%
X92700000Y-129777700D03*
X90221117Y-128098817D03*
X80200000Y-125600000D03*
X92500000Y-133800000D03*
X86300000Y-124200000D03*
X88700000Y-129600000D03*
%TO.N,/F*%
X105200000Y-132700000D03*
%TO.N,/G*%
X105400000Y-134900000D03*
%TO.N,/C*%
X109500000Y-127900000D03*
X124200000Y-130128500D03*
X131000000Y-129900000D03*
X141400000Y-129700000D03*
X114100000Y-129900000D03*
%TO.N,/E*%
X106771500Y-131200000D03*
%TO.N,/B*%
X105400000Y-124500000D03*
X121000000Y-127000000D03*
X131000000Y-127000000D03*
X141200000Y-127000000D03*
%TO.N,/A*%
X105600000Y-122400000D03*
%TO.N,/D2*%
X83219645Y-135319645D03*
%TO.N,/D3*%
X88200000Y-140670080D03*
%TO.N,/D5*%
X107300000Y-137400000D03*
%TO.N,/D6*%
X104600000Y-137300000D03*
%TO.N,/D7*%
X102200000Y-137300000D03*
%TO.N,/D8*%
X99500000Y-137300000D03*
%TO.N,/D9*%
X97100000Y-136700000D03*
%TO.N,/D10*%
X94900000Y-136500000D03*
%TO.N,/D11*%
X95738203Y-136500000D03*
X95700000Y-139200000D03*
%TO.N,/D12*%
X95594523Y-132208814D03*
%TO.N,/D13*%
X94754910Y-131977898D03*
%TO.N,/D14*%
X94006059Y-131601329D03*
%TO.N,/D15*%
X93400000Y-131022300D03*
%TO.N,/SCK*%
X84800000Y-127200000D03*
%TO.N,/~RESET*%
X84800000Y-128100000D03*
%TO.N,Net-(Q2-Pad1)*%
X120500000Y-118100000D03*
X95800000Y-118100000D03*
%TO.N,Net-(Q3-Pad1)*%
X130800000Y-118200000D03*
X92400000Y-118900000D03*
%TO.N,Net-(Q4-Pad1)*%
X89200000Y-118900000D03*
X140800000Y-118300000D03*
%TD*%
D15*
%TO.N,VCC*%
X81900000Y-132920000D02*
X82980000Y-132920000D01*
X83500000Y-132400000D02*
X83500000Y-129100000D01*
X82980000Y-132920000D02*
X83500000Y-132400000D01*
X92500000Y-122700000D02*
X92500000Y-122000000D01*
X92723690Y-121776310D02*
X109700000Y-121776310D01*
X92500000Y-122000000D02*
X92723690Y-121776310D01*
X141100000Y-121252620D02*
X141100000Y-121200000D01*
X140576310Y-121776310D02*
X141100000Y-121252620D01*
X131123690Y-121776310D02*
X140576310Y-121776310D01*
X120823690Y-121776310D02*
X131123690Y-121776310D01*
X110576310Y-121776310D02*
X120823690Y-121776310D01*
X109700000Y-121776310D02*
X110576310Y-121776310D01*
X91661797Y-130338203D02*
X91700000Y-130300000D01*
X91661797Y-133800000D02*
X91661797Y-130338203D01*
%TO.N,GND*%
X80200000Y-129800000D02*
X80200000Y-125600000D01*
X81900000Y-130380000D02*
X80780000Y-130380000D01*
X80780000Y-130380000D02*
X80200000Y-129800000D01*
X92700000Y-129777700D02*
X92700000Y-129800000D01*
X92500000Y-130000000D02*
X92500000Y-133800000D01*
X92700000Y-129800000D02*
X92500000Y-130000000D01*
X90198817Y-128098817D02*
X90221117Y-128098817D01*
X86300000Y-124200000D02*
X90198817Y-128098817D01*
X90201183Y-128098817D02*
X88700000Y-129600000D01*
X90221117Y-128098817D02*
X90201183Y-128098817D01*
X90221117Y-128098817D02*
X90698817Y-128098817D01*
X90698817Y-128098817D02*
X90700000Y-128100000D01*
X91022300Y-128100000D02*
X92700000Y-129777700D01*
X90700000Y-128100000D02*
X91022300Y-128100000D01*
D16*
%TO.N,/F*%
X105871501Y-129668499D02*
X108900000Y-126640000D01*
X105871501Y-132028499D02*
X105871501Y-129668499D01*
X105200000Y-132700000D02*
X105871501Y-132028499D01*
X119060000Y-127440000D02*
X119060000Y-126640000D01*
X118400000Y-128100000D02*
X119060000Y-127440000D01*
X110700000Y-128100000D02*
X118400000Y-128100000D01*
X109240000Y-126640000D02*
X110700000Y-128100000D01*
X108900000Y-126640000D02*
X109240000Y-126640000D01*
X119060000Y-126640000D02*
X119060000Y-127660000D01*
X119060000Y-127660000D02*
X119500000Y-128100000D01*
X119500000Y-128100000D02*
X128600000Y-128100000D01*
X129220000Y-127480000D02*
X129220000Y-126640000D01*
X128600000Y-128100000D02*
X129220000Y-127480000D01*
X139380000Y-127720000D02*
X139380000Y-126640000D01*
X129900000Y-128100000D02*
X139000000Y-128100000D01*
X129220000Y-127420000D02*
X129900000Y-128100000D01*
X139000000Y-128100000D02*
X139380000Y-127720000D01*
X129220000Y-126640000D02*
X129220000Y-127420000D01*
%TO.N,/G*%
X106920000Y-129180000D02*
X108900000Y-129180000D01*
X106200000Y-129900000D02*
X106920000Y-129180000D01*
X106200000Y-134100000D02*
X106200000Y-129900000D01*
X105400000Y-134900000D02*
X106200000Y-134100000D01*
X108900000Y-129180000D02*
X110220000Y-130500000D01*
X110220000Y-130500000D02*
X110220000Y-130520000D01*
X110220000Y-130520000D02*
X110391399Y-130691399D01*
X110391399Y-130691399D02*
X118491399Y-130691399D01*
X119060000Y-130122798D02*
X119060000Y-129180000D01*
X118491399Y-130691399D02*
X119060000Y-130122798D01*
X119060000Y-129180000D02*
X119060000Y-130260000D01*
X119060000Y-130260000D02*
X119500000Y-130700000D01*
X126186271Y-130691399D02*
X128591399Y-130691399D01*
X126177670Y-130700000D02*
X126186271Y-130691399D01*
X119500000Y-130700000D02*
X126177670Y-130700000D01*
X129220000Y-130062798D02*
X129220000Y-129180000D01*
X128591399Y-130691399D02*
X129220000Y-130062798D01*
X129220000Y-129180000D02*
X129220000Y-130120000D01*
X129791399Y-130691399D02*
X138008601Y-130691399D01*
X129220000Y-130120000D02*
X129791399Y-130691399D01*
X138008601Y-130691399D02*
X138017202Y-130700000D01*
X138017202Y-130700000D02*
X138600000Y-130700000D01*
X139380000Y-129920000D02*
X139380000Y-129180000D01*
X138600000Y-130700000D02*
X139380000Y-129920000D01*
%TO.N,/C*%
X109600000Y-128000000D02*
X109500000Y-127900000D01*
X125731500Y-130128500D02*
X126680000Y-129180000D01*
X124200000Y-130128500D02*
X125731500Y-130128500D01*
X136120000Y-129900000D02*
X136840000Y-129180000D01*
X131000000Y-129900000D02*
X136120000Y-129900000D01*
X146480000Y-129700000D02*
X147000000Y-129180000D01*
X141400000Y-129700000D02*
X146480000Y-129700000D01*
X114820000Y-129180000D02*
X114100000Y-129900000D01*
X116520000Y-129180000D02*
X114820000Y-129180000D01*
%TO.N,/E*%
X108900000Y-131720000D02*
X108720000Y-131720000D01*
X108200000Y-131200000D02*
X106771500Y-131200000D01*
X108720000Y-131720000D02*
X108200000Y-131200000D01*
X119060000Y-131720000D02*
X119060000Y-132340000D01*
X119060000Y-132340000D02*
X118400000Y-133000000D01*
X110180000Y-133000000D02*
X108900000Y-131720000D01*
X118400000Y-133000000D02*
X110180000Y-133000000D01*
X129220000Y-132280000D02*
X129220000Y-131720000D01*
X128500000Y-133000000D02*
X129220000Y-132280000D01*
X120340000Y-133000000D02*
X128500000Y-133000000D01*
X119060000Y-131720000D02*
X120340000Y-133000000D01*
X129220000Y-131720000D02*
X129220000Y-132320000D01*
X129220000Y-132320000D02*
X129900000Y-133000000D01*
X129900000Y-133000000D02*
X138600000Y-133000000D01*
X139380000Y-132220000D02*
X139380000Y-131720000D01*
X138600000Y-133000000D02*
X139380000Y-132220000D01*
X139380000Y-131720000D02*
X139380000Y-132380000D01*
%TO.N,/B*%
X116520000Y-126640000D02*
X115380000Y-125500000D01*
X115380000Y-125500000D02*
X115380000Y-125480000D01*
X115380000Y-125480000D02*
X115300000Y-125400000D01*
X106300000Y-125400000D02*
X105400000Y-124500000D01*
X115300000Y-125400000D02*
X106300000Y-125400000D01*
X126320000Y-127000000D02*
X126680000Y-126640000D01*
X121000000Y-127000000D02*
X126320000Y-127000000D01*
X136480000Y-127000000D02*
X136840000Y-126640000D01*
X131000000Y-127000000D02*
X136480000Y-127000000D01*
X146640000Y-127000000D02*
X147000000Y-126640000D01*
X141200000Y-127000000D02*
X146640000Y-127000000D01*
%TO.N,/D*%
X118600000Y-135400000D02*
X119060000Y-134940000D01*
X119060000Y-134940000D02*
X119060000Y-134260000D01*
X115700000Y-135400000D02*
X118600000Y-135400000D01*
X114560000Y-134260000D02*
X115700000Y-135400000D01*
X108900000Y-134260000D02*
X114560000Y-134260000D01*
X119060000Y-134260000D02*
X119060000Y-134660000D01*
X128191399Y-135288601D02*
X129220000Y-134260000D01*
X119688601Y-135288601D02*
X128191399Y-135288601D01*
X119060000Y-134660000D02*
X119688601Y-135288601D01*
X130248601Y-135288601D02*
X129220000Y-134260000D01*
X130260000Y-135300000D02*
X130248601Y-135288601D01*
X138340000Y-135300000D02*
X130260000Y-135300000D01*
X139380000Y-134260000D02*
X138340000Y-135300000D01*
%TO.N,/A*%
X116520000Y-124100000D02*
X114820000Y-122400000D01*
X114820000Y-122400000D02*
X105600000Y-122400000D01*
X116520000Y-124100000D02*
X117820000Y-125400000D01*
X125380000Y-125400000D02*
X126680000Y-124100000D01*
X117820000Y-125400000D02*
X125380000Y-125400000D01*
X126680000Y-124100000D02*
X127980000Y-125400000D01*
X135540000Y-125400000D02*
X136840000Y-124100000D01*
X127980000Y-125400000D02*
X135540000Y-125400000D01*
X138000000Y-125300000D02*
X145800000Y-125300000D01*
X137868601Y-125168601D02*
X138000000Y-125300000D01*
X145800000Y-125300000D02*
X147000000Y-124100000D01*
X137868601Y-125128601D02*
X137868601Y-125168601D01*
X136840000Y-124100000D02*
X137868601Y-125128601D01*
%TO.N,/D2*%
X114920000Y-140880000D02*
X114920000Y-140000000D01*
X114253610Y-141546390D02*
X114920000Y-140880000D01*
X83400000Y-141546390D02*
X114253610Y-141546390D01*
X83219645Y-141366035D02*
X83400000Y-141546390D01*
X83219645Y-135319645D02*
X83219645Y-141366035D01*
%TO.N,/D3*%
X112380000Y-140420000D02*
X112380000Y-140000000D01*
X111600000Y-141200000D02*
X112380000Y-140420000D01*
X88729920Y-141200000D02*
X111600000Y-141200000D01*
X88200000Y-140670080D02*
X88729920Y-141200000D01*
%TO.N,/D5*%
X107300000Y-137400000D02*
X107300000Y-140000000D01*
%TO.N,/D6*%
X104600000Y-139840000D02*
X104760000Y-140000000D01*
X104600000Y-137300000D02*
X104600000Y-139840000D01*
%TO.N,/D7*%
X102200000Y-139980000D02*
X102220000Y-140000000D01*
X102200000Y-137300000D02*
X102200000Y-139980000D01*
%TO.N,/D8*%
X99500000Y-139820000D02*
X99680000Y-140000000D01*
X99500000Y-137300000D02*
X99500000Y-139820000D01*
%TO.N,/D9*%
X97100000Y-139960000D02*
X97140000Y-140000000D01*
X97100000Y-137000000D02*
X97100000Y-139960000D01*
%TO.N,/D10*%
X94900000Y-136500000D02*
X94900000Y-137800000D01*
X94600000Y-138100000D02*
X94600000Y-140000000D01*
X94900000Y-137800000D02*
X94600000Y-138100000D01*
%TO.N,/D11*%
X95738203Y-136500000D02*
X95738203Y-138461797D01*
X95738203Y-139161797D02*
X95700000Y-139200000D01*
X95738203Y-138461797D02*
X95738203Y-139161797D01*
%TO.N,/D12*%
X86100000Y-138100000D02*
X86600000Y-138600000D01*
X86100000Y-136100000D02*
X86100000Y-138100000D01*
X87900000Y-138600000D02*
X89300000Y-140000000D01*
X86885570Y-135314430D02*
X86100000Y-136100000D01*
X86600000Y-138600000D02*
X87900000Y-138600000D01*
X93124590Y-135314430D02*
X86885570Y-135314430D01*
X95059719Y-133379301D02*
X93124590Y-135314430D01*
X89300000Y-140000000D02*
X89520000Y-140000000D01*
X95059720Y-132640280D02*
X95059719Y-133379301D01*
X95491186Y-132208814D02*
X95059720Y-132640280D01*
X95594523Y-132208814D02*
X95491186Y-132208814D01*
%TO.N,/D13*%
X86600000Y-140000000D02*
X86980000Y-140000000D01*
X85500000Y-138900000D02*
X86600000Y-140000000D01*
X85500000Y-136200000D02*
X85500000Y-138900000D01*
X86690380Y-135009620D02*
X85500000Y-136200000D01*
X92998334Y-135009620D02*
X86690380Y-135009620D01*
X94754910Y-133253044D02*
X92998334Y-135009620D01*
X94754910Y-131977898D02*
X94754910Y-133253044D01*
%TO.N,/D14*%
X94006059Y-133570829D02*
X92872078Y-134704810D01*
X94006059Y-131601329D02*
X94006059Y-133570829D01*
X92872078Y-134704810D02*
X85595190Y-134704810D01*
X84440000Y-135860000D02*
X84440000Y-140000000D01*
X85595190Y-134704810D02*
X84440000Y-135860000D01*
%TO.N,/D15*%
X93400000Y-133745822D02*
X92745822Y-134400000D01*
X93400000Y-131022300D02*
X93400000Y-133745822D01*
X92745822Y-134400000D02*
X83300000Y-134400000D01*
X81900000Y-135800000D02*
X81900000Y-140000000D01*
X83300000Y-134400000D02*
X81900000Y-135800000D01*
%TO.N,/SCK*%
X84100000Y-127900000D02*
X84800000Y-127200000D01*
X82100000Y-134500000D02*
X84100000Y-132500000D01*
X79700000Y-134500000D02*
X82100000Y-134500000D01*
X78200000Y-133000000D02*
X79700000Y-134500000D01*
X78200000Y-132920000D02*
X78200000Y-133000000D01*
X84100000Y-132500000D02*
X84100000Y-127900000D01*
%TO.N,/~RESET*%
X84800000Y-128100000D02*
X84404810Y-128495190D01*
X84404810Y-128495190D02*
X84404809Y-132626257D01*
X81571066Y-135460000D02*
X78200000Y-135460000D01*
X84404809Y-132626257D02*
X81571066Y-135460000D01*
%TO.N,Net-(Q2-Pad1)*%
X120500000Y-118100000D02*
X95800000Y-118100000D01*
%TO.N,Net-(Q3-Pad1)*%
X130800000Y-118200000D02*
X128100000Y-120900000D01*
X94400000Y-120900000D02*
X92400000Y-118900000D01*
X128100000Y-120900000D02*
X94400000Y-120900000D01*
%TO.N,Net-(Q4-Pad1)*%
X137895190Y-121204810D02*
X140800000Y-118300000D01*
X94004810Y-121204810D02*
X137895190Y-121204810D01*
X91500000Y-121200000D02*
X94000000Y-121200000D01*
X94000000Y-121200000D02*
X94004810Y-121204810D01*
X89200000Y-118900000D02*
X91500000Y-121200000D01*
%TD*%
D15*
%TO.N,GND*%
X94822100Y-118003685D02*
X94822100Y-118196315D01*
X94859680Y-118385243D01*
X94933396Y-118563210D01*
X95040415Y-118723375D01*
X95176625Y-118859585D01*
X95336790Y-118966604D01*
X95514757Y-119040320D01*
X95703685Y-119077900D01*
X95896315Y-119077900D01*
X96085243Y-119040320D01*
X96263210Y-118966604D01*
X96423375Y-118859585D01*
X96471760Y-118811200D01*
X119828240Y-118811200D01*
X119876625Y-118859585D01*
X120036790Y-118966604D01*
X120214757Y-119040320D01*
X120403685Y-119077900D01*
X120596315Y-119077900D01*
X120785243Y-119040320D01*
X120963210Y-118966604D01*
X121123375Y-118859585D01*
X121259585Y-118723375D01*
X121366604Y-118563210D01*
X121440320Y-118385243D01*
X121477900Y-118196315D01*
X121477900Y-118003685D01*
X121449319Y-117860000D01*
X129882361Y-117860000D01*
X129859680Y-117914757D01*
X129822100Y-118103685D01*
X129822100Y-118172111D01*
X127805413Y-120188800D01*
X94694588Y-120188800D01*
X93377900Y-118872113D01*
X93377900Y-118803685D01*
X93340320Y-118614757D01*
X93266604Y-118436790D01*
X93159585Y-118276625D01*
X93023375Y-118140415D01*
X92863210Y-118033396D01*
X92685243Y-117959680D01*
X92496315Y-117922100D01*
X92303685Y-117922100D01*
X92114757Y-117959680D01*
X91936790Y-118033396D01*
X91776625Y-118140415D01*
X91640415Y-118276625D01*
X91533396Y-118436790D01*
X91459680Y-118614757D01*
X91422100Y-118803685D01*
X91422100Y-118996315D01*
X91459680Y-119185243D01*
X91533396Y-119363210D01*
X91640415Y-119523375D01*
X91776625Y-119659585D01*
X91936790Y-119766604D01*
X92114757Y-119840320D01*
X92303685Y-119877900D01*
X92372113Y-119877900D01*
X92983012Y-120488800D01*
X91794588Y-120488800D01*
X90177900Y-118872113D01*
X90177900Y-118803685D01*
X90140320Y-118614757D01*
X90066604Y-118436790D01*
X89959585Y-118276625D01*
X89823375Y-118140415D01*
X89663210Y-118033396D01*
X89485243Y-117959680D01*
X89296315Y-117922100D01*
X89103685Y-117922100D01*
X88914757Y-117959680D01*
X88736790Y-118033396D01*
X88576625Y-118140415D01*
X88440415Y-118276625D01*
X88333396Y-118436790D01*
X88259680Y-118614757D01*
X88222100Y-118803685D01*
X88222100Y-118996315D01*
X88259680Y-119185243D01*
X88333396Y-119363210D01*
X88440415Y-119523375D01*
X88576625Y-119659585D01*
X88736790Y-119766604D01*
X88914757Y-119840320D01*
X89103685Y-119877900D01*
X89172113Y-119877900D01*
X90972402Y-121678190D01*
X90994673Y-121705327D01*
X91102967Y-121794202D01*
X91226519Y-121860242D01*
X91360580Y-121900909D01*
X91465064Y-121911200D01*
X91465073Y-121911200D01*
X91499999Y-121914640D01*
X91534925Y-121911200D01*
X91743060Y-121911200D01*
X91738000Y-121962574D01*
X91734314Y-122000000D01*
X91738000Y-122037423D01*
X91738000Y-122080239D01*
X91633396Y-122236790D01*
X91559680Y-122414757D01*
X91522100Y-122603685D01*
X91522100Y-122796315D01*
X91559680Y-122985243D01*
X91633396Y-123163210D01*
X91740415Y-123323375D01*
X91876625Y-123459585D01*
X92036790Y-123566604D01*
X92214757Y-123640320D01*
X92403685Y-123677900D01*
X92596315Y-123677900D01*
X92785243Y-123640320D01*
X92963210Y-123566604D01*
X93123375Y-123459585D01*
X93259585Y-123323375D01*
X93366604Y-123163210D01*
X93440320Y-122985243D01*
X93477900Y-122796315D01*
X93477900Y-122603685D01*
X93464896Y-122538310D01*
X104630453Y-122538310D01*
X104659680Y-122685243D01*
X104733396Y-122863210D01*
X104840415Y-123023375D01*
X104976625Y-123159585D01*
X105136790Y-123266604D01*
X105314757Y-123340320D01*
X105503685Y-123377900D01*
X105696315Y-123377900D01*
X105885243Y-123340320D01*
X106063210Y-123266604D01*
X106223375Y-123159585D01*
X106271760Y-123111200D01*
X107493699Y-123111200D01*
X107474188Y-123175518D01*
X107461928Y-123300000D01*
X107461928Y-124688800D01*
X106594589Y-124688800D01*
X106377900Y-124472112D01*
X106377900Y-124403685D01*
X106340320Y-124214757D01*
X106266604Y-124036790D01*
X106159585Y-123876625D01*
X106023375Y-123740415D01*
X105863210Y-123633396D01*
X105685243Y-123559680D01*
X105496315Y-123522100D01*
X105303685Y-123522100D01*
X105114757Y-123559680D01*
X104936790Y-123633396D01*
X104776625Y-123740415D01*
X104640415Y-123876625D01*
X104533396Y-124036790D01*
X104459680Y-124214757D01*
X104422100Y-124403685D01*
X104422100Y-124596315D01*
X104459680Y-124785243D01*
X104533396Y-124963210D01*
X104640415Y-125123375D01*
X104776625Y-125259585D01*
X104936790Y-125366604D01*
X105114757Y-125440320D01*
X105303685Y-125477900D01*
X105372112Y-125477900D01*
X105772407Y-125878196D01*
X105794673Y-125905327D01*
X105821804Y-125927593D01*
X105821808Y-125927597D01*
X105883456Y-125978190D01*
X105902967Y-125994202D01*
X106026519Y-126060242D01*
X106160580Y-126100909D01*
X106265064Y-126111200D01*
X106265073Y-126111200D01*
X106299999Y-126114640D01*
X106334925Y-126111200D01*
X107565804Y-126111200D01*
X107520147Y-126221426D01*
X107465000Y-126498665D01*
X107465000Y-126781335D01*
X107512762Y-127021449D01*
X105393311Y-129140902D01*
X105366175Y-129163172D01*
X105343905Y-129190308D01*
X105343904Y-129190309D01*
X105277299Y-129271467D01*
X105228967Y-129361890D01*
X105211260Y-129395018D01*
X105170593Y-129529079D01*
X105163245Y-129603685D01*
X105156861Y-129668499D01*
X105160302Y-129703435D01*
X105160301Y-131722100D01*
X105103685Y-131722100D01*
X104914757Y-131759680D01*
X104736790Y-131833396D01*
X104576625Y-131940415D01*
X104440415Y-132076625D01*
X104333396Y-132236790D01*
X104259680Y-132414757D01*
X104222100Y-132603685D01*
X104222100Y-132796315D01*
X104259680Y-132985243D01*
X104333396Y-133163210D01*
X104440415Y-133323375D01*
X104576625Y-133459585D01*
X104736790Y-133566604D01*
X104914757Y-133640320D01*
X105103685Y-133677900D01*
X105296315Y-133677900D01*
X105485243Y-133640320D01*
X105488800Y-133638847D01*
X105488800Y-133805412D01*
X105372112Y-133922100D01*
X105303685Y-133922100D01*
X105114757Y-133959680D01*
X104936790Y-134033396D01*
X104776625Y-134140415D01*
X104640415Y-134276625D01*
X104533396Y-134436790D01*
X104459680Y-134614757D01*
X104422100Y-134803685D01*
X104422100Y-134996315D01*
X104459680Y-135185243D01*
X104533396Y-135363210D01*
X104640415Y-135523375D01*
X104776625Y-135659585D01*
X104936790Y-135766604D01*
X105114757Y-135840320D01*
X105303685Y-135877900D01*
X105496315Y-135877900D01*
X105685243Y-135840320D01*
X105863210Y-135766604D01*
X106023375Y-135659585D01*
X106159585Y-135523375D01*
X106266604Y-135363210D01*
X106340320Y-135185243D01*
X106377900Y-134996315D01*
X106377900Y-134927888D01*
X106678195Y-134627593D01*
X106705326Y-134605327D01*
X106727593Y-134578195D01*
X106727597Y-134578191D01*
X106794202Y-134497033D01*
X106794203Y-134497032D01*
X106860242Y-134373481D01*
X106900909Y-134239420D01*
X106911200Y-134134936D01*
X106911200Y-134134929D01*
X106914640Y-134100000D01*
X106911200Y-134065072D01*
X106911200Y-132169270D01*
X107056743Y-132140320D01*
X107234710Y-132066604D01*
X107394875Y-131959585D01*
X107443260Y-131911200D01*
X107474919Y-131911200D01*
X107520147Y-132138574D01*
X107628320Y-132399727D01*
X107785363Y-132634759D01*
X107985241Y-132834637D01*
X108217759Y-132990000D01*
X107985241Y-133145363D01*
X107785363Y-133345241D01*
X107628320Y-133580273D01*
X107520147Y-133841426D01*
X107465000Y-134118665D01*
X107465000Y-134401335D01*
X107520147Y-134678574D01*
X107628320Y-134939727D01*
X107785363Y-135174759D01*
X107985241Y-135374637D01*
X108220273Y-135531680D01*
X108481426Y-135639853D01*
X108758665Y-135695000D01*
X109041335Y-135695000D01*
X109318574Y-135639853D01*
X109579727Y-135531680D01*
X109814759Y-135374637D01*
X110014637Y-135174759D01*
X110150650Y-134971200D01*
X114265413Y-134971200D01*
X115172407Y-135878196D01*
X115194673Y-135905327D01*
X115221804Y-135927593D01*
X115221808Y-135927597D01*
X115302966Y-135994202D01*
X115368200Y-136029070D01*
X115426519Y-136060242D01*
X115560580Y-136100909D01*
X115665064Y-136111200D01*
X115665081Y-136111200D01*
X115699999Y-136114639D01*
X115734917Y-136111200D01*
X118565074Y-136111200D01*
X118600000Y-136114640D01*
X118634926Y-136111200D01*
X118634936Y-136111200D01*
X118739420Y-136100909D01*
X118873481Y-136060242D01*
X118997033Y-135994202D01*
X119105327Y-135905327D01*
X119127601Y-135878186D01*
X119198974Y-135806813D01*
X119291568Y-135882803D01*
X119415120Y-135948843D01*
X119549181Y-135989510D01*
X119653665Y-135999801D01*
X119653674Y-135999801D01*
X119688600Y-136003241D01*
X119723526Y-135999801D01*
X128156473Y-135999801D01*
X128191399Y-136003241D01*
X128226325Y-135999801D01*
X128226335Y-135999801D01*
X128330819Y-135989510D01*
X128464880Y-135948843D01*
X128588432Y-135882803D01*
X128696726Y-135793928D01*
X128719000Y-135766787D01*
X128838550Y-135647237D01*
X129078665Y-135695000D01*
X129361335Y-135695000D01*
X129601449Y-135647238D01*
X129732407Y-135778196D01*
X129754673Y-135805327D01*
X129862967Y-135894202D01*
X129986519Y-135960242D01*
X130120580Y-136000909D01*
X130225064Y-136011200D01*
X130225072Y-136011200D01*
X130260000Y-136014640D01*
X130294928Y-136011200D01*
X138305074Y-136011200D01*
X138340000Y-136014640D01*
X138374926Y-136011200D01*
X138374936Y-136011200D01*
X138479420Y-136000909D01*
X138613481Y-135960242D01*
X138737033Y-135894202D01*
X138845327Y-135805327D01*
X138867602Y-135778185D01*
X138998550Y-135647237D01*
X139238665Y-135695000D01*
X139521335Y-135695000D01*
X139798574Y-135639853D01*
X140059727Y-135531680D01*
X140294759Y-135374637D01*
X140494637Y-135174759D01*
X140651680Y-134939727D01*
X140759853Y-134678574D01*
X140815000Y-134401335D01*
X140815000Y-134118665D01*
X140759853Y-133841426D01*
X140651680Y-133580273D01*
X140494637Y-133345241D01*
X140294759Y-133145363D01*
X140062241Y-132990000D01*
X140294759Y-132834637D01*
X140494637Y-132634759D01*
X140651680Y-132399727D01*
X140759853Y-132138574D01*
X140815000Y-131861335D01*
X140815000Y-131578665D01*
X140759853Y-131301426D01*
X140651680Y-131040273D01*
X140494637Y-130805241D01*
X140294759Y-130605363D01*
X140062241Y-130450000D01*
X140294759Y-130294637D01*
X140494637Y-130094759D01*
X140501061Y-130085145D01*
X140533396Y-130163210D01*
X140640415Y-130323375D01*
X140776625Y-130459585D01*
X140936790Y-130566604D01*
X141114757Y-130640320D01*
X141303685Y-130677900D01*
X141496315Y-130677900D01*
X141685243Y-130640320D01*
X141863210Y-130566604D01*
X142023375Y-130459585D01*
X142071760Y-130411200D01*
X146259690Y-130411200D01*
X146317759Y-130450000D01*
X146085241Y-130605363D01*
X145885363Y-130805241D01*
X145728320Y-131040273D01*
X145620147Y-131301426D01*
X145565000Y-131578665D01*
X145565000Y-131861335D01*
X145620147Y-132138574D01*
X145728320Y-132399727D01*
X145885363Y-132634759D01*
X146085241Y-132834637D01*
X146317759Y-132990000D01*
X146085241Y-133145363D01*
X145885363Y-133345241D01*
X145728320Y-133580273D01*
X145620147Y-133841426D01*
X145565000Y-134118665D01*
X145565000Y-134401335D01*
X145620147Y-134678574D01*
X145728320Y-134939727D01*
X145885363Y-135174759D01*
X146085241Y-135374637D01*
X146320273Y-135531680D01*
X146581426Y-135639853D01*
X146858665Y-135695000D01*
X147141335Y-135695000D01*
X147418574Y-135639853D01*
X147679727Y-135531680D01*
X147840000Y-135424589D01*
X147840000Y-141140000D01*
X121415010Y-141140000D01*
X121439502Y-141094180D01*
X121475812Y-140974482D01*
X121488072Y-140850000D01*
X121488072Y-139150000D01*
X121475812Y-139025518D01*
X121439502Y-138905820D01*
X121380537Y-138795506D01*
X121301185Y-138698815D01*
X121204494Y-138619463D01*
X121094180Y-138560498D01*
X120974482Y-138524188D01*
X120850000Y-138511928D01*
X119150000Y-138511928D01*
X119025518Y-138524188D01*
X118905820Y-138560498D01*
X118795506Y-138619463D01*
X118698815Y-138698815D01*
X118619463Y-138795506D01*
X118560498Y-138905820D01*
X118538487Y-138978380D01*
X118406632Y-138846525D01*
X118163411Y-138684010D01*
X117893158Y-138572068D01*
X117606260Y-138515000D01*
X117313740Y-138515000D01*
X117026842Y-138572068D01*
X116756589Y-138684010D01*
X116513368Y-138846525D01*
X116306525Y-139053368D01*
X116190000Y-139227760D01*
X116073475Y-139053368D01*
X115866632Y-138846525D01*
X115623411Y-138684010D01*
X115353158Y-138572068D01*
X115066260Y-138515000D01*
X114773740Y-138515000D01*
X114486842Y-138572068D01*
X114216589Y-138684010D01*
X113973368Y-138846525D01*
X113766525Y-139053368D01*
X113650000Y-139227760D01*
X113533475Y-139053368D01*
X113326632Y-138846525D01*
X113083411Y-138684010D01*
X112813158Y-138572068D01*
X112526260Y-138515000D01*
X112233740Y-138515000D01*
X111946842Y-138572068D01*
X111676589Y-138684010D01*
X111433368Y-138846525D01*
X111226525Y-139053368D01*
X111110000Y-139227760D01*
X110993475Y-139053368D01*
X110786632Y-138846525D01*
X110543411Y-138684010D01*
X110273158Y-138572068D01*
X109986260Y-138515000D01*
X109693740Y-138515000D01*
X109406842Y-138572068D01*
X109136589Y-138684010D01*
X108893368Y-138846525D01*
X108686525Y-139053368D01*
X108570000Y-139227760D01*
X108453475Y-139053368D01*
X108246632Y-138846525D01*
X108011200Y-138689214D01*
X108011200Y-138071760D01*
X108059585Y-138023375D01*
X108166604Y-137863210D01*
X108240320Y-137685243D01*
X108277900Y-137496315D01*
X108277900Y-137303685D01*
X108240320Y-137114757D01*
X108166604Y-136936790D01*
X108059585Y-136776625D01*
X107923375Y-136640415D01*
X107763210Y-136533396D01*
X107585243Y-136459680D01*
X107396315Y-136422100D01*
X107203685Y-136422100D01*
X107014757Y-136459680D01*
X106836790Y-136533396D01*
X106676625Y-136640415D01*
X106540415Y-136776625D01*
X106433396Y-136936790D01*
X106359680Y-137114757D01*
X106322100Y-137303685D01*
X106322100Y-137496315D01*
X106359680Y-137685243D01*
X106433396Y-137863210D01*
X106540415Y-138023375D01*
X106588800Y-138071760D01*
X106588800Y-138689214D01*
X106353368Y-138846525D01*
X106146525Y-139053368D01*
X106030000Y-139227760D01*
X105913475Y-139053368D01*
X105706632Y-138846525D01*
X105463411Y-138684010D01*
X105311200Y-138620962D01*
X105311200Y-137971760D01*
X105359585Y-137923375D01*
X105466604Y-137763210D01*
X105540320Y-137585243D01*
X105577900Y-137396315D01*
X105577900Y-137203685D01*
X105540320Y-137014757D01*
X105466604Y-136836790D01*
X105359585Y-136676625D01*
X105223375Y-136540415D01*
X105063210Y-136433396D01*
X104885243Y-136359680D01*
X104696315Y-136322100D01*
X104503685Y-136322100D01*
X104314757Y-136359680D01*
X104136790Y-136433396D01*
X103976625Y-136540415D01*
X103840415Y-136676625D01*
X103733396Y-136836790D01*
X103659680Y-137014757D01*
X103622100Y-137203685D01*
X103622100Y-137396315D01*
X103659680Y-137585243D01*
X103733396Y-137763210D01*
X103840415Y-137923375D01*
X103888800Y-137971760D01*
X103888801Y-138796123D01*
X103813368Y-138846525D01*
X103606525Y-139053368D01*
X103490000Y-139227760D01*
X103373475Y-139053368D01*
X103166632Y-138846525D01*
X102923411Y-138684010D01*
X102911200Y-138678952D01*
X102911200Y-137971760D01*
X102959585Y-137923375D01*
X103066604Y-137763210D01*
X103140320Y-137585243D01*
X103177900Y-137396315D01*
X103177900Y-137203685D01*
X103140320Y-137014757D01*
X103066604Y-136836790D01*
X102959585Y-136676625D01*
X102823375Y-136540415D01*
X102663210Y-136433396D01*
X102485243Y-136359680D01*
X102296315Y-136322100D01*
X102103685Y-136322100D01*
X101914757Y-136359680D01*
X101736790Y-136433396D01*
X101576625Y-136540415D01*
X101440415Y-136676625D01*
X101333396Y-136836790D01*
X101259680Y-137014757D01*
X101222100Y-137203685D01*
X101222100Y-137396315D01*
X101259680Y-137585243D01*
X101333396Y-137763210D01*
X101440415Y-137923375D01*
X101488800Y-137971760D01*
X101488801Y-138702578D01*
X101273368Y-138846525D01*
X101066525Y-139053368D01*
X100950000Y-139227760D01*
X100833475Y-139053368D01*
X100626632Y-138846525D01*
X100383411Y-138684010D01*
X100211200Y-138612678D01*
X100211200Y-137971760D01*
X100259585Y-137923375D01*
X100366604Y-137763210D01*
X100440320Y-137585243D01*
X100477900Y-137396315D01*
X100477900Y-137203685D01*
X100440320Y-137014757D01*
X100366604Y-136836790D01*
X100259585Y-136676625D01*
X100123375Y-136540415D01*
X99963210Y-136433396D01*
X99785243Y-136359680D01*
X99596315Y-136322100D01*
X99403685Y-136322100D01*
X99214757Y-136359680D01*
X99036790Y-136433396D01*
X98876625Y-136540415D01*
X98740415Y-136676625D01*
X98633396Y-136836790D01*
X98559680Y-137014757D01*
X98522100Y-137203685D01*
X98522100Y-137396315D01*
X98559680Y-137585243D01*
X98633396Y-137763210D01*
X98740415Y-137923375D01*
X98788800Y-137971760D01*
X98788801Y-138809486D01*
X98733368Y-138846525D01*
X98526525Y-139053368D01*
X98410000Y-139227760D01*
X98293475Y-139053368D01*
X98086632Y-138846525D01*
X97843411Y-138684010D01*
X97811200Y-138670668D01*
X97811200Y-137371760D01*
X97859585Y-137323375D01*
X97966604Y-137163210D01*
X98040320Y-136985243D01*
X98077900Y-136796315D01*
X98077900Y-136603685D01*
X98040320Y-136414757D01*
X97966604Y-136236790D01*
X97859585Y-136076625D01*
X97723375Y-135940415D01*
X97563210Y-135833396D01*
X97385243Y-135759680D01*
X97196315Y-135722100D01*
X97003685Y-135722100D01*
X96814757Y-135759680D01*
X96636790Y-135833396D01*
X96520723Y-135910950D01*
X96497788Y-135876625D01*
X96361578Y-135740415D01*
X96201413Y-135633396D01*
X96023446Y-135559680D01*
X95834518Y-135522100D01*
X95641888Y-135522100D01*
X95452960Y-135559680D01*
X95319102Y-135615126D01*
X95185243Y-135559680D01*
X94996315Y-135522100D01*
X94803685Y-135522100D01*
X94614757Y-135559680D01*
X94436790Y-135633396D01*
X94276625Y-135740415D01*
X94140415Y-135876625D01*
X94033396Y-136036790D01*
X93959680Y-136214757D01*
X93922100Y-136403685D01*
X93922100Y-136596315D01*
X93959680Y-136785243D01*
X94033396Y-136963210D01*
X94140415Y-137123375D01*
X94188801Y-137171761D01*
X94188801Y-137505412D01*
X94121811Y-137572402D01*
X94094673Y-137594674D01*
X94005798Y-137702968D01*
X93939758Y-137826520D01*
X93899091Y-137960581D01*
X93888800Y-138065065D01*
X93888800Y-138065074D01*
X93885360Y-138100000D01*
X93888800Y-138134926D01*
X93888800Y-138689214D01*
X93653368Y-138846525D01*
X93446525Y-139053368D01*
X93330000Y-139227760D01*
X93213475Y-139053368D01*
X93006632Y-138846525D01*
X92763411Y-138684010D01*
X92493158Y-138572068D01*
X92206260Y-138515000D01*
X91913740Y-138515000D01*
X91626842Y-138572068D01*
X91356589Y-138684010D01*
X91113368Y-138846525D01*
X90906525Y-139053368D01*
X90790000Y-139227760D01*
X90673475Y-139053368D01*
X90466632Y-138846525D01*
X90223411Y-138684010D01*
X89953158Y-138572068D01*
X89666260Y-138515000D01*
X89373740Y-138515000D01*
X89086842Y-138572068D01*
X88939066Y-138633279D01*
X88427602Y-138121815D01*
X88405327Y-138094673D01*
X88297033Y-138005798D01*
X88173481Y-137939758D01*
X88039420Y-137899091D01*
X87934936Y-137888800D01*
X87934926Y-137888800D01*
X87900000Y-137885360D01*
X87865074Y-137888800D01*
X86894588Y-137888800D01*
X86811200Y-137805413D01*
X86811200Y-136394588D01*
X87180158Y-136025630D01*
X93089664Y-136025630D01*
X93124590Y-136029070D01*
X93159516Y-136025630D01*
X93159526Y-136025630D01*
X93264010Y-136015339D01*
X93398071Y-135974672D01*
X93521623Y-135908632D01*
X93629917Y-135819757D01*
X93652192Y-135792615D01*
X95537920Y-133906889D01*
X95565045Y-133884628D01*
X95587306Y-133857503D01*
X95587317Y-133857492D01*
X95653921Y-133776334D01*
X95719961Y-133652783D01*
X95760628Y-133518721D01*
X95774359Y-133379301D01*
X95770918Y-133344364D01*
X95770919Y-133170785D01*
X95879766Y-133149134D01*
X96057733Y-133075418D01*
X96217898Y-132968399D01*
X96354108Y-132832189D01*
X96461127Y-132672024D01*
X96534843Y-132494057D01*
X96572423Y-132305129D01*
X96572423Y-132112499D01*
X96534843Y-131923571D01*
X96461127Y-131745604D01*
X96354108Y-131585439D01*
X96217898Y-131449229D01*
X96057733Y-131342210D01*
X95879766Y-131268494D01*
X95690838Y-131230914D01*
X95498208Y-131230914D01*
X95408692Y-131248720D01*
X95378285Y-131218313D01*
X95218120Y-131111294D01*
X95040153Y-131037578D01*
X94851225Y-130999998D01*
X94780373Y-130999998D01*
X94765644Y-130977954D01*
X94629434Y-130841744D01*
X94469269Y-130734725D01*
X94312448Y-130669768D01*
X94266604Y-130559090D01*
X94159585Y-130398925D01*
X94023375Y-130262715D01*
X93863210Y-130155696D01*
X93685243Y-130081980D01*
X93496315Y-130044400D01*
X93303685Y-130044400D01*
X93114757Y-130081980D01*
X92936790Y-130155696D01*
X92776625Y-130262715D01*
X92677900Y-130361440D01*
X92677900Y-130203685D01*
X92640320Y-130014757D01*
X92566604Y-129836790D01*
X92459585Y-129676625D01*
X92323375Y-129540415D01*
X92163210Y-129433396D01*
X91985243Y-129359680D01*
X91796315Y-129322100D01*
X91603685Y-129322100D01*
X91414757Y-129359680D01*
X91236790Y-129433396D01*
X91076625Y-129540415D01*
X90940415Y-129676625D01*
X90833396Y-129836790D01*
X90759680Y-130014757D01*
X90722100Y-130203685D01*
X90722100Y-130396315D01*
X90759680Y-130585243D01*
X90833396Y-130763210D01*
X90899798Y-130862587D01*
X90899797Y-133180239D01*
X90795193Y-133336790D01*
X90721477Y-133514757D01*
X90686858Y-133688800D01*
X84348054Y-133688800D01*
X84883004Y-133153850D01*
X84910135Y-133131584D01*
X84932401Y-133104453D01*
X84932406Y-133104448D01*
X84999011Y-133023290D01*
X85065051Y-132899739D01*
X85105718Y-132765677D01*
X85119449Y-132626257D01*
X85116008Y-132591319D01*
X85116010Y-129027576D01*
X85263210Y-128966604D01*
X85423375Y-128859585D01*
X85559585Y-128723375D01*
X85666604Y-128563210D01*
X85740320Y-128385243D01*
X85777900Y-128196315D01*
X85777900Y-128003685D01*
X85740320Y-127814757D01*
X85672076Y-127650000D01*
X85740320Y-127485243D01*
X85777900Y-127296315D01*
X85777900Y-127103685D01*
X85740320Y-126914757D01*
X85666604Y-126736790D01*
X85559585Y-126576625D01*
X85423375Y-126440415D01*
X85263210Y-126333396D01*
X85085243Y-126259680D01*
X84896315Y-126222100D01*
X84703685Y-126222100D01*
X84514757Y-126259680D01*
X84336790Y-126333396D01*
X84176625Y-126440415D01*
X84040415Y-126576625D01*
X83933396Y-126736790D01*
X83859680Y-126914757D01*
X83822100Y-127103685D01*
X83822100Y-127172112D01*
X83621810Y-127372403D01*
X83594674Y-127394673D01*
X83572404Y-127421809D01*
X83572403Y-127421810D01*
X83505798Y-127502968D01*
X83439759Y-127626519D01*
X83400805Y-127754935D01*
X83399092Y-127760581D01*
X83385360Y-127900000D01*
X83388801Y-127934936D01*
X83388801Y-128125061D01*
X83214757Y-128159680D01*
X83036790Y-128233396D01*
X82876625Y-128340415D01*
X82740415Y-128476625D01*
X82633396Y-128636790D01*
X82559680Y-128814757D01*
X82544107Y-128893049D01*
X82185750Y-128895000D01*
X82027000Y-129053750D01*
X82027000Y-130253000D01*
X82047000Y-130253000D01*
X82047000Y-130507000D01*
X82027000Y-130507000D01*
X82027000Y-130527000D01*
X81773000Y-130527000D01*
X81773000Y-130507000D01*
X80573750Y-130507000D01*
X80415000Y-130665750D01*
X80411928Y-131230000D01*
X80424188Y-131354482D01*
X80460498Y-131474180D01*
X80519463Y-131584494D01*
X80598815Y-131681185D01*
X80695506Y-131760537D01*
X80805820Y-131819502D01*
X80878380Y-131841513D01*
X80746525Y-131973368D01*
X80584010Y-132216589D01*
X80472068Y-132486842D01*
X80415000Y-132773740D01*
X80415000Y-133066260D01*
X80472068Y-133353158D01*
X80584010Y-133623411D01*
X80694519Y-133788800D01*
X79994589Y-133788800D01*
X79607727Y-133401938D01*
X79627932Y-133353158D01*
X79685000Y-133066260D01*
X79685000Y-132773740D01*
X79627932Y-132486842D01*
X79515990Y-132216589D01*
X79353475Y-131973368D01*
X79146632Y-131766525D01*
X78972240Y-131650000D01*
X79146632Y-131533475D01*
X79353475Y-131326632D01*
X79515990Y-131083411D01*
X79627932Y-130813158D01*
X79685000Y-130526260D01*
X79685000Y-130233740D01*
X79627932Y-129946842D01*
X79515990Y-129676589D01*
X79418043Y-129530000D01*
X80411928Y-129530000D01*
X80415000Y-130094250D01*
X80573750Y-130253000D01*
X81773000Y-130253000D01*
X81773000Y-129053750D01*
X81614250Y-128895000D01*
X81050000Y-128891928D01*
X80925518Y-128904188D01*
X80805820Y-128940498D01*
X80695506Y-128999463D01*
X80598815Y-129078815D01*
X80519463Y-129175506D01*
X80460498Y-129285820D01*
X80424188Y-129405518D01*
X80411928Y-129530000D01*
X79418043Y-129530000D01*
X79353475Y-129433368D01*
X79146632Y-129226525D01*
X78972240Y-129110000D01*
X79146632Y-128993475D01*
X79353475Y-128786632D01*
X79515990Y-128543411D01*
X79627932Y-128273158D01*
X79685000Y-127986260D01*
X79685000Y-127693740D01*
X79627932Y-127406842D01*
X79515990Y-127136589D01*
X79353475Y-126893368D01*
X79221620Y-126761513D01*
X79294180Y-126739502D01*
X79404494Y-126680537D01*
X79501185Y-126601185D01*
X79580537Y-126504494D01*
X79639502Y-126394180D01*
X79675812Y-126274482D01*
X79688072Y-126150000D01*
X79685000Y-125585750D01*
X79526250Y-125427000D01*
X78327000Y-125427000D01*
X78327000Y-125447000D01*
X78073000Y-125447000D01*
X78073000Y-125427000D01*
X76873750Y-125427000D01*
X76715000Y-125585750D01*
X76711928Y-126150000D01*
X76724188Y-126274482D01*
X76760498Y-126394180D01*
X76819463Y-126504494D01*
X76898815Y-126601185D01*
X76995506Y-126680537D01*
X77105820Y-126739502D01*
X77178380Y-126761513D01*
X77046525Y-126893368D01*
X76884010Y-127136589D01*
X76772068Y-127406842D01*
X76715000Y-127693740D01*
X76715000Y-127986260D01*
X76772068Y-128273158D01*
X76884010Y-128543411D01*
X77046525Y-128786632D01*
X77253368Y-128993475D01*
X77427760Y-129110000D01*
X77253368Y-129226525D01*
X77046525Y-129433368D01*
X76884010Y-129676589D01*
X76772068Y-129946842D01*
X76715000Y-130233740D01*
X76715000Y-130526260D01*
X76772068Y-130813158D01*
X76884010Y-131083411D01*
X77046525Y-131326632D01*
X77253368Y-131533475D01*
X77427760Y-131650000D01*
X77253368Y-131766525D01*
X77046525Y-131973368D01*
X76884010Y-132216589D01*
X76772068Y-132486842D01*
X76715000Y-132773740D01*
X76715000Y-133066260D01*
X76772068Y-133353158D01*
X76884010Y-133623411D01*
X77046525Y-133866632D01*
X77253368Y-134073475D01*
X77427760Y-134190000D01*
X77253368Y-134306525D01*
X77046525Y-134513368D01*
X76884010Y-134756589D01*
X76772068Y-135026842D01*
X76715000Y-135313740D01*
X76715000Y-135606260D01*
X76772068Y-135893158D01*
X76884010Y-136163411D01*
X77046525Y-136406632D01*
X77253368Y-136613475D01*
X77427760Y-136730000D01*
X77253368Y-136846525D01*
X77046525Y-137053368D01*
X76884010Y-137296589D01*
X76772068Y-137566842D01*
X76715000Y-137853740D01*
X76715000Y-138146260D01*
X76772068Y-138433158D01*
X76884010Y-138703411D01*
X77046525Y-138946632D01*
X77253368Y-139153475D01*
X77496589Y-139315990D01*
X77766842Y-139427932D01*
X78053740Y-139485000D01*
X78346260Y-139485000D01*
X78633158Y-139427932D01*
X78903411Y-139315990D01*
X79146632Y-139153475D01*
X79353475Y-138946632D01*
X79515990Y-138703411D01*
X79627932Y-138433158D01*
X79685000Y-138146260D01*
X79685000Y-137853740D01*
X79627932Y-137566842D01*
X79515990Y-137296589D01*
X79353475Y-137053368D01*
X79146632Y-136846525D01*
X78972240Y-136730000D01*
X79146632Y-136613475D01*
X79353475Y-136406632D01*
X79510786Y-136171200D01*
X81188800Y-136171200D01*
X81188801Y-138689214D01*
X80953368Y-138846525D01*
X80746525Y-139053368D01*
X80584010Y-139296589D01*
X80472068Y-139566842D01*
X80415000Y-139853740D01*
X80415000Y-140146260D01*
X80472068Y-140433158D01*
X80584010Y-140703411D01*
X80746525Y-140946632D01*
X80939893Y-141140000D01*
X76660000Y-141140000D01*
X76660000Y-124450000D01*
X76711928Y-124450000D01*
X76715000Y-125014250D01*
X76873750Y-125173000D01*
X78073000Y-125173000D01*
X78073000Y-123973750D01*
X78327000Y-123973750D01*
X78327000Y-125173000D01*
X79526250Y-125173000D01*
X79685000Y-125014250D01*
X79688072Y-124450000D01*
X79675812Y-124325518D01*
X79639502Y-124205820D01*
X79580537Y-124095506D01*
X79501185Y-123998815D01*
X79404494Y-123919463D01*
X79294180Y-123860498D01*
X79174482Y-123824188D01*
X79050000Y-123811928D01*
X78485750Y-123815000D01*
X78327000Y-123973750D01*
X78073000Y-123973750D01*
X77914250Y-123815000D01*
X77350000Y-123811928D01*
X77225518Y-123824188D01*
X77105820Y-123860498D01*
X76995506Y-123919463D01*
X76898815Y-123998815D01*
X76819463Y-124095506D01*
X76760498Y-124205820D01*
X76724188Y-124325518D01*
X76711928Y-124450000D01*
X76660000Y-124450000D01*
X76660000Y-117860000D01*
X94850681Y-117860000D01*
X94822100Y-118003685D01*
%TA.AperFunction,Conductor*%
D17*
G36*
X94822100Y-118003685D02*
G01*
X94822100Y-118196315D01*
X94859680Y-118385243D01*
X94933396Y-118563210D01*
X95040415Y-118723375D01*
X95176625Y-118859585D01*
X95336790Y-118966604D01*
X95514757Y-119040320D01*
X95703685Y-119077900D01*
X95896315Y-119077900D01*
X96085243Y-119040320D01*
X96263210Y-118966604D01*
X96423375Y-118859585D01*
X96471760Y-118811200D01*
X119828240Y-118811200D01*
X119876625Y-118859585D01*
X120036790Y-118966604D01*
X120214757Y-119040320D01*
X120403685Y-119077900D01*
X120596315Y-119077900D01*
X120785243Y-119040320D01*
X120963210Y-118966604D01*
X121123375Y-118859585D01*
X121259585Y-118723375D01*
X121366604Y-118563210D01*
X121440320Y-118385243D01*
X121477900Y-118196315D01*
X121477900Y-118003685D01*
X121449319Y-117860000D01*
X129882361Y-117860000D01*
X129859680Y-117914757D01*
X129822100Y-118103685D01*
X129822100Y-118172111D01*
X127805413Y-120188800D01*
X94694588Y-120188800D01*
X93377900Y-118872113D01*
X93377900Y-118803685D01*
X93340320Y-118614757D01*
X93266604Y-118436790D01*
X93159585Y-118276625D01*
X93023375Y-118140415D01*
X92863210Y-118033396D01*
X92685243Y-117959680D01*
X92496315Y-117922100D01*
X92303685Y-117922100D01*
X92114757Y-117959680D01*
X91936790Y-118033396D01*
X91776625Y-118140415D01*
X91640415Y-118276625D01*
X91533396Y-118436790D01*
X91459680Y-118614757D01*
X91422100Y-118803685D01*
X91422100Y-118996315D01*
X91459680Y-119185243D01*
X91533396Y-119363210D01*
X91640415Y-119523375D01*
X91776625Y-119659585D01*
X91936790Y-119766604D01*
X92114757Y-119840320D01*
X92303685Y-119877900D01*
X92372113Y-119877900D01*
X92983012Y-120488800D01*
X91794588Y-120488800D01*
X90177900Y-118872113D01*
X90177900Y-118803685D01*
X90140320Y-118614757D01*
X90066604Y-118436790D01*
X89959585Y-118276625D01*
X89823375Y-118140415D01*
X89663210Y-118033396D01*
X89485243Y-117959680D01*
X89296315Y-117922100D01*
X89103685Y-117922100D01*
X88914757Y-117959680D01*
X88736790Y-118033396D01*
X88576625Y-118140415D01*
X88440415Y-118276625D01*
X88333396Y-118436790D01*
X88259680Y-118614757D01*
X88222100Y-118803685D01*
X88222100Y-118996315D01*
X88259680Y-119185243D01*
X88333396Y-119363210D01*
X88440415Y-119523375D01*
X88576625Y-119659585D01*
X88736790Y-119766604D01*
X88914757Y-119840320D01*
X89103685Y-119877900D01*
X89172113Y-119877900D01*
X90972402Y-121678190D01*
X90994673Y-121705327D01*
X91102967Y-121794202D01*
X91226519Y-121860242D01*
X91360580Y-121900909D01*
X91465064Y-121911200D01*
X91465073Y-121911200D01*
X91499999Y-121914640D01*
X91534925Y-121911200D01*
X91743060Y-121911200D01*
X91738000Y-121962574D01*
X91734314Y-122000000D01*
X91738000Y-122037423D01*
X91738000Y-122080239D01*
X91633396Y-122236790D01*
X91559680Y-122414757D01*
X91522100Y-122603685D01*
X91522100Y-122796315D01*
X91559680Y-122985243D01*
X91633396Y-123163210D01*
X91740415Y-123323375D01*
X91876625Y-123459585D01*
X92036790Y-123566604D01*
X92214757Y-123640320D01*
X92403685Y-123677900D01*
X92596315Y-123677900D01*
X92785243Y-123640320D01*
X92963210Y-123566604D01*
X93123375Y-123459585D01*
X93259585Y-123323375D01*
X93366604Y-123163210D01*
X93440320Y-122985243D01*
X93477900Y-122796315D01*
X93477900Y-122603685D01*
X93464896Y-122538310D01*
X104630453Y-122538310D01*
X104659680Y-122685243D01*
X104733396Y-122863210D01*
X104840415Y-123023375D01*
X104976625Y-123159585D01*
X105136790Y-123266604D01*
X105314757Y-123340320D01*
X105503685Y-123377900D01*
X105696315Y-123377900D01*
X105885243Y-123340320D01*
X106063210Y-123266604D01*
X106223375Y-123159585D01*
X106271760Y-123111200D01*
X107493699Y-123111200D01*
X107474188Y-123175518D01*
X107461928Y-123300000D01*
X107461928Y-124688800D01*
X106594589Y-124688800D01*
X106377900Y-124472112D01*
X106377900Y-124403685D01*
X106340320Y-124214757D01*
X106266604Y-124036790D01*
X106159585Y-123876625D01*
X106023375Y-123740415D01*
X105863210Y-123633396D01*
X105685243Y-123559680D01*
X105496315Y-123522100D01*
X105303685Y-123522100D01*
X105114757Y-123559680D01*
X104936790Y-123633396D01*
X104776625Y-123740415D01*
X104640415Y-123876625D01*
X104533396Y-124036790D01*
X104459680Y-124214757D01*
X104422100Y-124403685D01*
X104422100Y-124596315D01*
X104459680Y-124785243D01*
X104533396Y-124963210D01*
X104640415Y-125123375D01*
X104776625Y-125259585D01*
X104936790Y-125366604D01*
X105114757Y-125440320D01*
X105303685Y-125477900D01*
X105372112Y-125477900D01*
X105772407Y-125878196D01*
X105794673Y-125905327D01*
X105821804Y-125927593D01*
X105821808Y-125927597D01*
X105883456Y-125978190D01*
X105902967Y-125994202D01*
X106026519Y-126060242D01*
X106160580Y-126100909D01*
X106265064Y-126111200D01*
X106265073Y-126111200D01*
X106299999Y-126114640D01*
X106334925Y-126111200D01*
X107565804Y-126111200D01*
X107520147Y-126221426D01*
X107465000Y-126498665D01*
X107465000Y-126781335D01*
X107512762Y-127021449D01*
X105393311Y-129140902D01*
X105366175Y-129163172D01*
X105343905Y-129190308D01*
X105343904Y-129190309D01*
X105277299Y-129271467D01*
X105228967Y-129361890D01*
X105211260Y-129395018D01*
X105170593Y-129529079D01*
X105163245Y-129603685D01*
X105156861Y-129668499D01*
X105160302Y-129703435D01*
X105160301Y-131722100D01*
X105103685Y-131722100D01*
X104914757Y-131759680D01*
X104736790Y-131833396D01*
X104576625Y-131940415D01*
X104440415Y-132076625D01*
X104333396Y-132236790D01*
X104259680Y-132414757D01*
X104222100Y-132603685D01*
X104222100Y-132796315D01*
X104259680Y-132985243D01*
X104333396Y-133163210D01*
X104440415Y-133323375D01*
X104576625Y-133459585D01*
X104736790Y-133566604D01*
X104914757Y-133640320D01*
X105103685Y-133677900D01*
X105296315Y-133677900D01*
X105485243Y-133640320D01*
X105488800Y-133638847D01*
X105488800Y-133805412D01*
X105372112Y-133922100D01*
X105303685Y-133922100D01*
X105114757Y-133959680D01*
X104936790Y-134033396D01*
X104776625Y-134140415D01*
X104640415Y-134276625D01*
X104533396Y-134436790D01*
X104459680Y-134614757D01*
X104422100Y-134803685D01*
X104422100Y-134996315D01*
X104459680Y-135185243D01*
X104533396Y-135363210D01*
X104640415Y-135523375D01*
X104776625Y-135659585D01*
X104936790Y-135766604D01*
X105114757Y-135840320D01*
X105303685Y-135877900D01*
X105496315Y-135877900D01*
X105685243Y-135840320D01*
X105863210Y-135766604D01*
X106023375Y-135659585D01*
X106159585Y-135523375D01*
X106266604Y-135363210D01*
X106340320Y-135185243D01*
X106377900Y-134996315D01*
X106377900Y-134927888D01*
X106678195Y-134627593D01*
X106705326Y-134605327D01*
X106727593Y-134578195D01*
X106727597Y-134578191D01*
X106794202Y-134497033D01*
X106794203Y-134497032D01*
X106860242Y-134373481D01*
X106900909Y-134239420D01*
X106911200Y-134134936D01*
X106911200Y-134134929D01*
X106914640Y-134100000D01*
X106911200Y-134065072D01*
X106911200Y-132169270D01*
X107056743Y-132140320D01*
X107234710Y-132066604D01*
X107394875Y-131959585D01*
X107443260Y-131911200D01*
X107474919Y-131911200D01*
X107520147Y-132138574D01*
X107628320Y-132399727D01*
X107785363Y-132634759D01*
X107985241Y-132834637D01*
X108217759Y-132990000D01*
X107985241Y-133145363D01*
X107785363Y-133345241D01*
X107628320Y-133580273D01*
X107520147Y-133841426D01*
X107465000Y-134118665D01*
X107465000Y-134401335D01*
X107520147Y-134678574D01*
X107628320Y-134939727D01*
X107785363Y-135174759D01*
X107985241Y-135374637D01*
X108220273Y-135531680D01*
X108481426Y-135639853D01*
X108758665Y-135695000D01*
X109041335Y-135695000D01*
X109318574Y-135639853D01*
X109579727Y-135531680D01*
X109814759Y-135374637D01*
X110014637Y-135174759D01*
X110150650Y-134971200D01*
X114265413Y-134971200D01*
X115172407Y-135878196D01*
X115194673Y-135905327D01*
X115221804Y-135927593D01*
X115221808Y-135927597D01*
X115302966Y-135994202D01*
X115368200Y-136029070D01*
X115426519Y-136060242D01*
X115560580Y-136100909D01*
X115665064Y-136111200D01*
X115665081Y-136111200D01*
X115699999Y-136114639D01*
X115734917Y-136111200D01*
X118565074Y-136111200D01*
X118600000Y-136114640D01*
X118634926Y-136111200D01*
X118634936Y-136111200D01*
X118739420Y-136100909D01*
X118873481Y-136060242D01*
X118997033Y-135994202D01*
X119105327Y-135905327D01*
X119127601Y-135878186D01*
X119198974Y-135806813D01*
X119291568Y-135882803D01*
X119415120Y-135948843D01*
X119549181Y-135989510D01*
X119653665Y-135999801D01*
X119653674Y-135999801D01*
X119688600Y-136003241D01*
X119723526Y-135999801D01*
X128156473Y-135999801D01*
X128191399Y-136003241D01*
X128226325Y-135999801D01*
X128226335Y-135999801D01*
X128330819Y-135989510D01*
X128464880Y-135948843D01*
X128588432Y-135882803D01*
X128696726Y-135793928D01*
X128719000Y-135766787D01*
X128838550Y-135647237D01*
X129078665Y-135695000D01*
X129361335Y-135695000D01*
X129601449Y-135647238D01*
X129732407Y-135778196D01*
X129754673Y-135805327D01*
X129862967Y-135894202D01*
X129986519Y-135960242D01*
X130120580Y-136000909D01*
X130225064Y-136011200D01*
X130225072Y-136011200D01*
X130260000Y-136014640D01*
X130294928Y-136011200D01*
X138305074Y-136011200D01*
X138340000Y-136014640D01*
X138374926Y-136011200D01*
X138374936Y-136011200D01*
X138479420Y-136000909D01*
X138613481Y-135960242D01*
X138737033Y-135894202D01*
X138845327Y-135805327D01*
X138867602Y-135778185D01*
X138998550Y-135647237D01*
X139238665Y-135695000D01*
X139521335Y-135695000D01*
X139798574Y-135639853D01*
X140059727Y-135531680D01*
X140294759Y-135374637D01*
X140494637Y-135174759D01*
X140651680Y-134939727D01*
X140759853Y-134678574D01*
X140815000Y-134401335D01*
X140815000Y-134118665D01*
X140759853Y-133841426D01*
X140651680Y-133580273D01*
X140494637Y-133345241D01*
X140294759Y-133145363D01*
X140062241Y-132990000D01*
X140294759Y-132834637D01*
X140494637Y-132634759D01*
X140651680Y-132399727D01*
X140759853Y-132138574D01*
X140815000Y-131861335D01*
X140815000Y-131578665D01*
X140759853Y-131301426D01*
X140651680Y-131040273D01*
X140494637Y-130805241D01*
X140294759Y-130605363D01*
X140062241Y-130450000D01*
X140294759Y-130294637D01*
X140494637Y-130094759D01*
X140501061Y-130085145D01*
X140533396Y-130163210D01*
X140640415Y-130323375D01*
X140776625Y-130459585D01*
X140936790Y-130566604D01*
X141114757Y-130640320D01*
X141303685Y-130677900D01*
X141496315Y-130677900D01*
X141685243Y-130640320D01*
X141863210Y-130566604D01*
X142023375Y-130459585D01*
X142071760Y-130411200D01*
X146259690Y-130411200D01*
X146317759Y-130450000D01*
X146085241Y-130605363D01*
X145885363Y-130805241D01*
X145728320Y-131040273D01*
X145620147Y-131301426D01*
X145565000Y-131578665D01*
X145565000Y-131861335D01*
X145620147Y-132138574D01*
X145728320Y-132399727D01*
X145885363Y-132634759D01*
X146085241Y-132834637D01*
X146317759Y-132990000D01*
X146085241Y-133145363D01*
X145885363Y-133345241D01*
X145728320Y-133580273D01*
X145620147Y-133841426D01*
X145565000Y-134118665D01*
X145565000Y-134401335D01*
X145620147Y-134678574D01*
X145728320Y-134939727D01*
X145885363Y-135174759D01*
X146085241Y-135374637D01*
X146320273Y-135531680D01*
X146581426Y-135639853D01*
X146858665Y-135695000D01*
X147141335Y-135695000D01*
X147418574Y-135639853D01*
X147679727Y-135531680D01*
X147840000Y-135424589D01*
X147840000Y-141140000D01*
X121415010Y-141140000D01*
X121439502Y-141094180D01*
X121475812Y-140974482D01*
X121488072Y-140850000D01*
X121488072Y-139150000D01*
X121475812Y-139025518D01*
X121439502Y-138905820D01*
X121380537Y-138795506D01*
X121301185Y-138698815D01*
X121204494Y-138619463D01*
X121094180Y-138560498D01*
X120974482Y-138524188D01*
X120850000Y-138511928D01*
X119150000Y-138511928D01*
X119025518Y-138524188D01*
X118905820Y-138560498D01*
X118795506Y-138619463D01*
X118698815Y-138698815D01*
X118619463Y-138795506D01*
X118560498Y-138905820D01*
X118538487Y-138978380D01*
X118406632Y-138846525D01*
X118163411Y-138684010D01*
X117893158Y-138572068D01*
X117606260Y-138515000D01*
X117313740Y-138515000D01*
X117026842Y-138572068D01*
X116756589Y-138684010D01*
X116513368Y-138846525D01*
X116306525Y-139053368D01*
X116190000Y-139227760D01*
X116073475Y-139053368D01*
X115866632Y-138846525D01*
X115623411Y-138684010D01*
X115353158Y-138572068D01*
X115066260Y-138515000D01*
X114773740Y-138515000D01*
X114486842Y-138572068D01*
X114216589Y-138684010D01*
X113973368Y-138846525D01*
X113766525Y-139053368D01*
X113650000Y-139227760D01*
X113533475Y-139053368D01*
X113326632Y-138846525D01*
X113083411Y-138684010D01*
X112813158Y-138572068D01*
X112526260Y-138515000D01*
X112233740Y-138515000D01*
X111946842Y-138572068D01*
X111676589Y-138684010D01*
X111433368Y-138846525D01*
X111226525Y-139053368D01*
X111110000Y-139227760D01*
X110993475Y-139053368D01*
X110786632Y-138846525D01*
X110543411Y-138684010D01*
X110273158Y-138572068D01*
X109986260Y-138515000D01*
X109693740Y-138515000D01*
X109406842Y-138572068D01*
X109136589Y-138684010D01*
X108893368Y-138846525D01*
X108686525Y-139053368D01*
X108570000Y-139227760D01*
X108453475Y-139053368D01*
X108246632Y-138846525D01*
X108011200Y-138689214D01*
X108011200Y-138071760D01*
X108059585Y-138023375D01*
X108166604Y-137863210D01*
X108240320Y-137685243D01*
X108277900Y-137496315D01*
X108277900Y-137303685D01*
X108240320Y-137114757D01*
X108166604Y-136936790D01*
X108059585Y-136776625D01*
X107923375Y-136640415D01*
X107763210Y-136533396D01*
X107585243Y-136459680D01*
X107396315Y-136422100D01*
X107203685Y-136422100D01*
X107014757Y-136459680D01*
X106836790Y-136533396D01*
X106676625Y-136640415D01*
X106540415Y-136776625D01*
X106433396Y-136936790D01*
X106359680Y-137114757D01*
X106322100Y-137303685D01*
X106322100Y-137496315D01*
X106359680Y-137685243D01*
X106433396Y-137863210D01*
X106540415Y-138023375D01*
X106588800Y-138071760D01*
X106588800Y-138689214D01*
X106353368Y-138846525D01*
X106146525Y-139053368D01*
X106030000Y-139227760D01*
X105913475Y-139053368D01*
X105706632Y-138846525D01*
X105463411Y-138684010D01*
X105311200Y-138620962D01*
X105311200Y-137971760D01*
X105359585Y-137923375D01*
X105466604Y-137763210D01*
X105540320Y-137585243D01*
X105577900Y-137396315D01*
X105577900Y-137203685D01*
X105540320Y-137014757D01*
X105466604Y-136836790D01*
X105359585Y-136676625D01*
X105223375Y-136540415D01*
X105063210Y-136433396D01*
X104885243Y-136359680D01*
X104696315Y-136322100D01*
X104503685Y-136322100D01*
X104314757Y-136359680D01*
X104136790Y-136433396D01*
X103976625Y-136540415D01*
X103840415Y-136676625D01*
X103733396Y-136836790D01*
X103659680Y-137014757D01*
X103622100Y-137203685D01*
X103622100Y-137396315D01*
X103659680Y-137585243D01*
X103733396Y-137763210D01*
X103840415Y-137923375D01*
X103888800Y-137971760D01*
X103888801Y-138796123D01*
X103813368Y-138846525D01*
X103606525Y-139053368D01*
X103490000Y-139227760D01*
X103373475Y-139053368D01*
X103166632Y-138846525D01*
X102923411Y-138684010D01*
X102911200Y-138678952D01*
X102911200Y-137971760D01*
X102959585Y-137923375D01*
X103066604Y-137763210D01*
X103140320Y-137585243D01*
X103177900Y-137396315D01*
X103177900Y-137203685D01*
X103140320Y-137014757D01*
X103066604Y-136836790D01*
X102959585Y-136676625D01*
X102823375Y-136540415D01*
X102663210Y-136433396D01*
X102485243Y-136359680D01*
X102296315Y-136322100D01*
X102103685Y-136322100D01*
X101914757Y-136359680D01*
X101736790Y-136433396D01*
X101576625Y-136540415D01*
X101440415Y-136676625D01*
X101333396Y-136836790D01*
X101259680Y-137014757D01*
X101222100Y-137203685D01*
X101222100Y-137396315D01*
X101259680Y-137585243D01*
X101333396Y-137763210D01*
X101440415Y-137923375D01*
X101488800Y-137971760D01*
X101488801Y-138702578D01*
X101273368Y-138846525D01*
X101066525Y-139053368D01*
X100950000Y-139227760D01*
X100833475Y-139053368D01*
X100626632Y-138846525D01*
X100383411Y-138684010D01*
X100211200Y-138612678D01*
X100211200Y-137971760D01*
X100259585Y-137923375D01*
X100366604Y-137763210D01*
X100440320Y-137585243D01*
X100477900Y-137396315D01*
X100477900Y-137203685D01*
X100440320Y-137014757D01*
X100366604Y-136836790D01*
X100259585Y-136676625D01*
X100123375Y-136540415D01*
X99963210Y-136433396D01*
X99785243Y-136359680D01*
X99596315Y-136322100D01*
X99403685Y-136322100D01*
X99214757Y-136359680D01*
X99036790Y-136433396D01*
X98876625Y-136540415D01*
X98740415Y-136676625D01*
X98633396Y-136836790D01*
X98559680Y-137014757D01*
X98522100Y-137203685D01*
X98522100Y-137396315D01*
X98559680Y-137585243D01*
X98633396Y-137763210D01*
X98740415Y-137923375D01*
X98788800Y-137971760D01*
X98788801Y-138809486D01*
X98733368Y-138846525D01*
X98526525Y-139053368D01*
X98410000Y-139227760D01*
X98293475Y-139053368D01*
X98086632Y-138846525D01*
X97843411Y-138684010D01*
X97811200Y-138670668D01*
X97811200Y-137371760D01*
X97859585Y-137323375D01*
X97966604Y-137163210D01*
X98040320Y-136985243D01*
X98077900Y-136796315D01*
X98077900Y-136603685D01*
X98040320Y-136414757D01*
X97966604Y-136236790D01*
X97859585Y-136076625D01*
X97723375Y-135940415D01*
X97563210Y-135833396D01*
X97385243Y-135759680D01*
X97196315Y-135722100D01*
X97003685Y-135722100D01*
X96814757Y-135759680D01*
X96636790Y-135833396D01*
X96520723Y-135910950D01*
X96497788Y-135876625D01*
X96361578Y-135740415D01*
X96201413Y-135633396D01*
X96023446Y-135559680D01*
X95834518Y-135522100D01*
X95641888Y-135522100D01*
X95452960Y-135559680D01*
X95319102Y-135615126D01*
X95185243Y-135559680D01*
X94996315Y-135522100D01*
X94803685Y-135522100D01*
X94614757Y-135559680D01*
X94436790Y-135633396D01*
X94276625Y-135740415D01*
X94140415Y-135876625D01*
X94033396Y-136036790D01*
X93959680Y-136214757D01*
X93922100Y-136403685D01*
X93922100Y-136596315D01*
X93959680Y-136785243D01*
X94033396Y-136963210D01*
X94140415Y-137123375D01*
X94188801Y-137171761D01*
X94188801Y-137505412D01*
X94121811Y-137572402D01*
X94094673Y-137594674D01*
X94005798Y-137702968D01*
X93939758Y-137826520D01*
X93899091Y-137960581D01*
X93888800Y-138065065D01*
X93888800Y-138065074D01*
X93885360Y-138100000D01*
X93888800Y-138134926D01*
X93888800Y-138689214D01*
X93653368Y-138846525D01*
X93446525Y-139053368D01*
X93330000Y-139227760D01*
X93213475Y-139053368D01*
X93006632Y-138846525D01*
X92763411Y-138684010D01*
X92493158Y-138572068D01*
X92206260Y-138515000D01*
X91913740Y-138515000D01*
X91626842Y-138572068D01*
X91356589Y-138684010D01*
X91113368Y-138846525D01*
X90906525Y-139053368D01*
X90790000Y-139227760D01*
X90673475Y-139053368D01*
X90466632Y-138846525D01*
X90223411Y-138684010D01*
X89953158Y-138572068D01*
X89666260Y-138515000D01*
X89373740Y-138515000D01*
X89086842Y-138572068D01*
X88939066Y-138633279D01*
X88427602Y-138121815D01*
X88405327Y-138094673D01*
X88297033Y-138005798D01*
X88173481Y-137939758D01*
X88039420Y-137899091D01*
X87934936Y-137888800D01*
X87934926Y-137888800D01*
X87900000Y-137885360D01*
X87865074Y-137888800D01*
X86894588Y-137888800D01*
X86811200Y-137805413D01*
X86811200Y-136394588D01*
X87180158Y-136025630D01*
X93089664Y-136025630D01*
X93124590Y-136029070D01*
X93159516Y-136025630D01*
X93159526Y-136025630D01*
X93264010Y-136015339D01*
X93398071Y-135974672D01*
X93521623Y-135908632D01*
X93629917Y-135819757D01*
X93652192Y-135792615D01*
X95537920Y-133906889D01*
X95565045Y-133884628D01*
X95587306Y-133857503D01*
X95587317Y-133857492D01*
X95653921Y-133776334D01*
X95719961Y-133652783D01*
X95760628Y-133518721D01*
X95774359Y-133379301D01*
X95770918Y-133344364D01*
X95770919Y-133170785D01*
X95879766Y-133149134D01*
X96057733Y-133075418D01*
X96217898Y-132968399D01*
X96354108Y-132832189D01*
X96461127Y-132672024D01*
X96534843Y-132494057D01*
X96572423Y-132305129D01*
X96572423Y-132112499D01*
X96534843Y-131923571D01*
X96461127Y-131745604D01*
X96354108Y-131585439D01*
X96217898Y-131449229D01*
X96057733Y-131342210D01*
X95879766Y-131268494D01*
X95690838Y-131230914D01*
X95498208Y-131230914D01*
X95408692Y-131248720D01*
X95378285Y-131218313D01*
X95218120Y-131111294D01*
X95040153Y-131037578D01*
X94851225Y-130999998D01*
X94780373Y-130999998D01*
X94765644Y-130977954D01*
X94629434Y-130841744D01*
X94469269Y-130734725D01*
X94312448Y-130669768D01*
X94266604Y-130559090D01*
X94159585Y-130398925D01*
X94023375Y-130262715D01*
X93863210Y-130155696D01*
X93685243Y-130081980D01*
X93496315Y-130044400D01*
X93303685Y-130044400D01*
X93114757Y-130081980D01*
X92936790Y-130155696D01*
X92776625Y-130262715D01*
X92677900Y-130361440D01*
X92677900Y-130203685D01*
X92640320Y-130014757D01*
X92566604Y-129836790D01*
X92459585Y-129676625D01*
X92323375Y-129540415D01*
X92163210Y-129433396D01*
X91985243Y-129359680D01*
X91796315Y-129322100D01*
X91603685Y-129322100D01*
X91414757Y-129359680D01*
X91236790Y-129433396D01*
X91076625Y-129540415D01*
X90940415Y-129676625D01*
X90833396Y-129836790D01*
X90759680Y-130014757D01*
X90722100Y-130203685D01*
X90722100Y-130396315D01*
X90759680Y-130585243D01*
X90833396Y-130763210D01*
X90899798Y-130862587D01*
X90899797Y-133180239D01*
X90795193Y-133336790D01*
X90721477Y-133514757D01*
X90686858Y-133688800D01*
X84348054Y-133688800D01*
X84883004Y-133153850D01*
X84910135Y-133131584D01*
X84932401Y-133104453D01*
X84932406Y-133104448D01*
X84999011Y-133023290D01*
X85065051Y-132899739D01*
X85105718Y-132765677D01*
X85119449Y-132626257D01*
X85116008Y-132591319D01*
X85116010Y-129027576D01*
X85263210Y-128966604D01*
X85423375Y-128859585D01*
X85559585Y-128723375D01*
X85666604Y-128563210D01*
X85740320Y-128385243D01*
X85777900Y-128196315D01*
X85777900Y-128003685D01*
X85740320Y-127814757D01*
X85672076Y-127650000D01*
X85740320Y-127485243D01*
X85777900Y-127296315D01*
X85777900Y-127103685D01*
X85740320Y-126914757D01*
X85666604Y-126736790D01*
X85559585Y-126576625D01*
X85423375Y-126440415D01*
X85263210Y-126333396D01*
X85085243Y-126259680D01*
X84896315Y-126222100D01*
X84703685Y-126222100D01*
X84514757Y-126259680D01*
X84336790Y-126333396D01*
X84176625Y-126440415D01*
X84040415Y-126576625D01*
X83933396Y-126736790D01*
X83859680Y-126914757D01*
X83822100Y-127103685D01*
X83822100Y-127172112D01*
X83621810Y-127372403D01*
X83594674Y-127394673D01*
X83572404Y-127421809D01*
X83572403Y-127421810D01*
X83505798Y-127502968D01*
X83439759Y-127626519D01*
X83400805Y-127754935D01*
X83399092Y-127760581D01*
X83385360Y-127900000D01*
X83388801Y-127934936D01*
X83388801Y-128125061D01*
X83214757Y-128159680D01*
X83036790Y-128233396D01*
X82876625Y-128340415D01*
X82740415Y-128476625D01*
X82633396Y-128636790D01*
X82559680Y-128814757D01*
X82544107Y-128893049D01*
X82185750Y-128895000D01*
X82027000Y-129053750D01*
X82027000Y-130253000D01*
X82047000Y-130253000D01*
X82047000Y-130507000D01*
X82027000Y-130507000D01*
X82027000Y-130527000D01*
X81773000Y-130527000D01*
X81773000Y-130507000D01*
X80573750Y-130507000D01*
X80415000Y-130665750D01*
X80411928Y-131230000D01*
X80424188Y-131354482D01*
X80460498Y-131474180D01*
X80519463Y-131584494D01*
X80598815Y-131681185D01*
X80695506Y-131760537D01*
X80805820Y-131819502D01*
X80878380Y-131841513D01*
X80746525Y-131973368D01*
X80584010Y-132216589D01*
X80472068Y-132486842D01*
X80415000Y-132773740D01*
X80415000Y-133066260D01*
X80472068Y-133353158D01*
X80584010Y-133623411D01*
X80694519Y-133788800D01*
X79994589Y-133788800D01*
X79607727Y-133401938D01*
X79627932Y-133353158D01*
X79685000Y-133066260D01*
X79685000Y-132773740D01*
X79627932Y-132486842D01*
X79515990Y-132216589D01*
X79353475Y-131973368D01*
X79146632Y-131766525D01*
X78972240Y-131650000D01*
X79146632Y-131533475D01*
X79353475Y-131326632D01*
X79515990Y-131083411D01*
X79627932Y-130813158D01*
X79685000Y-130526260D01*
X79685000Y-130233740D01*
X79627932Y-129946842D01*
X79515990Y-129676589D01*
X79418043Y-129530000D01*
X80411928Y-129530000D01*
X80415000Y-130094250D01*
X80573750Y-130253000D01*
X81773000Y-130253000D01*
X81773000Y-129053750D01*
X81614250Y-128895000D01*
X81050000Y-128891928D01*
X80925518Y-128904188D01*
X80805820Y-128940498D01*
X80695506Y-128999463D01*
X80598815Y-129078815D01*
X80519463Y-129175506D01*
X80460498Y-129285820D01*
X80424188Y-129405518D01*
X80411928Y-129530000D01*
X79418043Y-129530000D01*
X79353475Y-129433368D01*
X79146632Y-129226525D01*
X78972240Y-129110000D01*
X79146632Y-128993475D01*
X79353475Y-128786632D01*
X79515990Y-128543411D01*
X79627932Y-128273158D01*
X79685000Y-127986260D01*
X79685000Y-127693740D01*
X79627932Y-127406842D01*
X79515990Y-127136589D01*
X79353475Y-126893368D01*
X79221620Y-126761513D01*
X79294180Y-126739502D01*
X79404494Y-126680537D01*
X79501185Y-126601185D01*
X79580537Y-126504494D01*
X79639502Y-126394180D01*
X79675812Y-126274482D01*
X79688072Y-126150000D01*
X79685000Y-125585750D01*
X79526250Y-125427000D01*
X78327000Y-125427000D01*
X78327000Y-125447000D01*
X78073000Y-125447000D01*
X78073000Y-125427000D01*
X76873750Y-125427000D01*
X76715000Y-125585750D01*
X76711928Y-126150000D01*
X76724188Y-126274482D01*
X76760498Y-126394180D01*
X76819463Y-126504494D01*
X76898815Y-126601185D01*
X76995506Y-126680537D01*
X77105820Y-126739502D01*
X77178380Y-126761513D01*
X77046525Y-126893368D01*
X76884010Y-127136589D01*
X76772068Y-127406842D01*
X76715000Y-127693740D01*
X76715000Y-127986260D01*
X76772068Y-128273158D01*
X76884010Y-128543411D01*
X77046525Y-128786632D01*
X77253368Y-128993475D01*
X77427760Y-129110000D01*
X77253368Y-129226525D01*
X77046525Y-129433368D01*
X76884010Y-129676589D01*
X76772068Y-129946842D01*
X76715000Y-130233740D01*
X76715000Y-130526260D01*
X76772068Y-130813158D01*
X76884010Y-131083411D01*
X77046525Y-131326632D01*
X77253368Y-131533475D01*
X77427760Y-131650000D01*
X77253368Y-131766525D01*
X77046525Y-131973368D01*
X76884010Y-132216589D01*
X76772068Y-132486842D01*
X76715000Y-132773740D01*
X76715000Y-133066260D01*
X76772068Y-133353158D01*
X76884010Y-133623411D01*
X77046525Y-133866632D01*
X77253368Y-134073475D01*
X77427760Y-134190000D01*
X77253368Y-134306525D01*
X77046525Y-134513368D01*
X76884010Y-134756589D01*
X76772068Y-135026842D01*
X76715000Y-135313740D01*
X76715000Y-135606260D01*
X76772068Y-135893158D01*
X76884010Y-136163411D01*
X77046525Y-136406632D01*
X77253368Y-136613475D01*
X77427760Y-136730000D01*
X77253368Y-136846525D01*
X77046525Y-137053368D01*
X76884010Y-137296589D01*
X76772068Y-137566842D01*
X76715000Y-137853740D01*
X76715000Y-138146260D01*
X76772068Y-138433158D01*
X76884010Y-138703411D01*
X77046525Y-138946632D01*
X77253368Y-139153475D01*
X77496589Y-139315990D01*
X77766842Y-139427932D01*
X78053740Y-139485000D01*
X78346260Y-139485000D01*
X78633158Y-139427932D01*
X78903411Y-139315990D01*
X79146632Y-139153475D01*
X79353475Y-138946632D01*
X79515990Y-138703411D01*
X79627932Y-138433158D01*
X79685000Y-138146260D01*
X79685000Y-137853740D01*
X79627932Y-137566842D01*
X79515990Y-137296589D01*
X79353475Y-137053368D01*
X79146632Y-136846525D01*
X78972240Y-136730000D01*
X79146632Y-136613475D01*
X79353475Y-136406632D01*
X79510786Y-136171200D01*
X81188800Y-136171200D01*
X81188801Y-138689214D01*
X80953368Y-138846525D01*
X80746525Y-139053368D01*
X80584010Y-139296589D01*
X80472068Y-139566842D01*
X80415000Y-139853740D01*
X80415000Y-140146260D01*
X80472068Y-140433158D01*
X80584010Y-140703411D01*
X80746525Y-140946632D01*
X80939893Y-141140000D01*
X76660000Y-141140000D01*
X76660000Y-124450000D01*
X76711928Y-124450000D01*
X76715000Y-125014250D01*
X76873750Y-125173000D01*
X78073000Y-125173000D01*
X78073000Y-123973750D01*
X78327000Y-123973750D01*
X78327000Y-125173000D01*
X79526250Y-125173000D01*
X79685000Y-125014250D01*
X79688072Y-124450000D01*
X79675812Y-124325518D01*
X79639502Y-124205820D01*
X79580537Y-124095506D01*
X79501185Y-123998815D01*
X79404494Y-123919463D01*
X79294180Y-123860498D01*
X79174482Y-123824188D01*
X79050000Y-123811928D01*
X78485750Y-123815000D01*
X78327000Y-123973750D01*
X78073000Y-123973750D01*
X77914250Y-123815000D01*
X77350000Y-123811928D01*
X77225518Y-123824188D01*
X77105820Y-123860498D01*
X76995506Y-123919463D01*
X76898815Y-123998815D01*
X76819463Y-124095506D01*
X76760498Y-124205820D01*
X76724188Y-124325518D01*
X76711928Y-124450000D01*
X76660000Y-124450000D01*
X76660000Y-117860000D01*
X94850681Y-117860000D01*
X94822100Y-118003685D01*
G37*
%TD.AperFunction*%
%TD*%
M02*
