%TF.GenerationSoftware,KiCad,Pcbnew,5.1.9-73d0e3b20d~88~ubuntu20.04.1*%
%TF.CreationDate,2021-03-07T16:47:50-05:00*%
%TF.ProjectId,hexdisplay16,68657864-6973-4706-9c61-7931362e6b69,rev?*%
%TF.SameCoordinates,Original*%
%TF.FileFunction,Legend,Top*%
%TF.FilePolarity,Positive*%
%FSLAX46Y46*%
G04 Gerber Fmt 4.6, Leading zero omitted, Abs format (unit mm)*
G04 Created by KiCad (PCBNEW 5.1.9-73d0e3b20d~88~ubuntu20.04.1) date 2021-03-07 16:47:50*
%MOMM*%
%LPD*%
G01*
G04 APERTURE LIST*
%ADD10C,0.150000*%
%ADD11C,0.120000*%
G04 APERTURE END LIST*
D10*
X83571428Y-133700000D02*
X84171428Y-133500000D01*
X83571428Y-133300000D01*
X84114285Y-132757142D02*
X84142857Y-132785714D01*
X84171428Y-132871428D01*
X84171428Y-132928571D01*
X84142857Y-133014285D01*
X84085714Y-133071428D01*
X84028571Y-133100000D01*
X83914285Y-133128571D01*
X83828571Y-133128571D01*
X83714285Y-133100000D01*
X83657142Y-133071428D01*
X83600000Y-133014285D01*
X83571428Y-132928571D01*
X83571428Y-132871428D01*
X83600000Y-132785714D01*
X83628571Y-132757142D01*
X84114285Y-132157142D02*
X84142857Y-132185714D01*
X84171428Y-132271428D01*
X84171428Y-132328571D01*
X84142857Y-132414285D01*
X84085714Y-132471428D01*
X84028571Y-132500000D01*
X83914285Y-132528571D01*
X83828571Y-132528571D01*
X83714285Y-132500000D01*
X83657142Y-132471428D01*
X83600000Y-132414285D01*
X83571428Y-132328571D01*
X83571428Y-132271428D01*
X83600000Y-132185714D01*
X83628571Y-132157142D01*
X83600000Y-131057142D02*
X83571428Y-131114285D01*
X83571428Y-131200000D01*
X83600000Y-131285714D01*
X83657142Y-131342857D01*
X83714285Y-131371428D01*
X83828571Y-131400000D01*
X83914285Y-131400000D01*
X84028571Y-131371428D01*
X84085714Y-131342857D01*
X84142857Y-131285714D01*
X84171428Y-131200000D01*
X84171428Y-131142857D01*
X84142857Y-131057142D01*
X84114285Y-131028571D01*
X83914285Y-131028571D01*
X83914285Y-131142857D01*
X84171428Y-130771428D02*
X83571428Y-130771428D01*
X84171428Y-130428571D01*
X83571428Y-130428571D01*
X84171428Y-130142857D02*
X83571428Y-130142857D01*
X83571428Y-130000000D01*
X83600000Y-129914285D01*
X83657142Y-129857142D01*
X83714285Y-129828571D01*
X83828571Y-129800000D01*
X83914285Y-129800000D01*
X84028571Y-129828571D01*
X84085714Y-129857142D01*
X84142857Y-129914285D01*
X84171428Y-130000000D01*
X84171428Y-130142857D01*
X80371428Y-138942857D02*
X79771428Y-138942857D01*
X80200000Y-138742857D01*
X79771428Y-138542857D01*
X80371428Y-138542857D01*
X79771428Y-138142857D02*
X79771428Y-138028571D01*
X79800000Y-137971428D01*
X79857142Y-137914285D01*
X79971428Y-137885714D01*
X80171428Y-137885714D01*
X80285714Y-137914285D01*
X80342857Y-137971428D01*
X80371428Y-138028571D01*
X80371428Y-138142857D01*
X80342857Y-138200000D01*
X80285714Y-138257142D01*
X80171428Y-138285714D01*
X79971428Y-138285714D01*
X79857142Y-138257142D01*
X79800000Y-138200000D01*
X79771428Y-138142857D01*
X80342857Y-137657142D02*
X80371428Y-137571428D01*
X80371428Y-137428571D01*
X80342857Y-137371428D01*
X80314285Y-137342857D01*
X80257142Y-137314285D01*
X80200000Y-137314285D01*
X80142857Y-137342857D01*
X80114285Y-137371428D01*
X80085714Y-137428571D01*
X80057142Y-137542857D01*
X80028571Y-137600000D01*
X80000000Y-137628571D01*
X79942857Y-137657142D01*
X79885714Y-137657142D01*
X79828571Y-137628571D01*
X79800000Y-137600000D01*
X79771428Y-137542857D01*
X79771428Y-137400000D01*
X79800000Y-137314285D01*
X80371428Y-137057142D02*
X79771428Y-137057142D01*
X80371428Y-135828571D02*
X80085714Y-136028571D01*
X80371428Y-136171428D02*
X79771428Y-136171428D01*
X79771428Y-135942857D01*
X79800000Y-135885714D01*
X79828571Y-135857142D01*
X79885714Y-135828571D01*
X79971428Y-135828571D01*
X80028571Y-135857142D01*
X80057142Y-135885714D01*
X80085714Y-135942857D01*
X80085714Y-136171428D01*
X80342857Y-135600000D02*
X80371428Y-135514285D01*
X80371428Y-135371428D01*
X80342857Y-135314285D01*
X80314285Y-135285714D01*
X80257142Y-135257142D01*
X80200000Y-135257142D01*
X80142857Y-135285714D01*
X80114285Y-135314285D01*
X80085714Y-135371428D01*
X80057142Y-135485714D01*
X80028571Y-135542857D01*
X80000000Y-135571428D01*
X79942857Y-135600000D01*
X79885714Y-135600000D01*
X79828571Y-135571428D01*
X79800000Y-135542857D01*
X79771428Y-135485714D01*
X79771428Y-135342857D01*
X79800000Y-135257142D01*
X79771428Y-135085714D02*
X79771428Y-134742857D01*
X80371428Y-134914285D02*
X79771428Y-134914285D01*
X80342857Y-133771428D02*
X80371428Y-133685714D01*
X80371428Y-133542857D01*
X80342857Y-133485714D01*
X80314285Y-133457142D01*
X80257142Y-133428571D01*
X80200000Y-133428571D01*
X80142857Y-133457142D01*
X80114285Y-133485714D01*
X80085714Y-133542857D01*
X80057142Y-133657142D01*
X80028571Y-133714285D01*
X80000000Y-133742857D01*
X79942857Y-133771428D01*
X79885714Y-133771428D01*
X79828571Y-133742857D01*
X79800000Y-133714285D01*
X79771428Y-133657142D01*
X79771428Y-133514285D01*
X79800000Y-133428571D01*
X80314285Y-132828571D02*
X80342857Y-132857142D01*
X80371428Y-132942857D01*
X80371428Y-133000000D01*
X80342857Y-133085714D01*
X80285714Y-133142857D01*
X80228571Y-133171428D01*
X80114285Y-133200000D01*
X80028571Y-133200000D01*
X79914285Y-133171428D01*
X79857142Y-133142857D01*
X79800000Y-133085714D01*
X79771428Y-133000000D01*
X79771428Y-132942857D01*
X79800000Y-132857142D01*
X79828571Y-132828571D01*
X80371428Y-132571428D02*
X79771428Y-132571428D01*
X80371428Y-132228571D02*
X80028571Y-132485714D01*
X79771428Y-132228571D02*
X80114285Y-132571428D01*
X80371428Y-131342857D02*
X79771428Y-131342857D01*
X80200000Y-131142857D01*
X79771428Y-130942857D01*
X80371428Y-130942857D01*
X80371428Y-130657142D02*
X79771428Y-130657142D01*
X80342857Y-130400000D02*
X80371428Y-130314285D01*
X80371428Y-130171428D01*
X80342857Y-130114285D01*
X80314285Y-130085714D01*
X80257142Y-130057142D01*
X80200000Y-130057142D01*
X80142857Y-130085714D01*
X80114285Y-130114285D01*
X80085714Y-130171428D01*
X80057142Y-130285714D01*
X80028571Y-130342857D01*
X80000000Y-130371428D01*
X79942857Y-130400000D01*
X79885714Y-130400000D01*
X79828571Y-130371428D01*
X79800000Y-130342857D01*
X79771428Y-130285714D01*
X79771428Y-130142857D01*
X79800000Y-130057142D01*
X79771428Y-129685714D02*
X79771428Y-129571428D01*
X79800000Y-129514285D01*
X79857142Y-129457142D01*
X79971428Y-129428571D01*
X80171428Y-129428571D01*
X80285714Y-129457142D01*
X80342857Y-129514285D01*
X80371428Y-129571428D01*
X80371428Y-129685714D01*
X80342857Y-129742857D01*
X80285714Y-129800000D01*
X80171428Y-129828571D01*
X79971428Y-129828571D01*
X79857142Y-129800000D01*
X79800000Y-129742857D01*
X79771428Y-129685714D01*
X79771428Y-128600000D02*
X80371428Y-128400000D01*
X79771428Y-128200000D01*
X80314285Y-127657142D02*
X80342857Y-127685714D01*
X80371428Y-127771428D01*
X80371428Y-127828571D01*
X80342857Y-127914285D01*
X80285714Y-127971428D01*
X80228571Y-128000000D01*
X80114285Y-128028571D01*
X80028571Y-128028571D01*
X79914285Y-128000000D01*
X79857142Y-127971428D01*
X79800000Y-127914285D01*
X79771428Y-127828571D01*
X79771428Y-127771428D01*
X79800000Y-127685714D01*
X79828571Y-127657142D01*
X80314285Y-127057142D02*
X80342857Y-127085714D01*
X80371428Y-127171428D01*
X80371428Y-127228571D01*
X80342857Y-127314285D01*
X80285714Y-127371428D01*
X80228571Y-127400000D01*
X80114285Y-127428571D01*
X80028571Y-127428571D01*
X79914285Y-127400000D01*
X79857142Y-127371428D01*
X79800000Y-127314285D01*
X79771428Y-127228571D01*
X79771428Y-127171428D01*
X79800000Y-127085714D01*
X79828571Y-127057142D01*
X79800000Y-125757142D02*
X79771428Y-125814285D01*
X79771428Y-125900000D01*
X79800000Y-125985714D01*
X79857142Y-126042857D01*
X79914285Y-126071428D01*
X80028571Y-126100000D01*
X80114285Y-126100000D01*
X80228571Y-126071428D01*
X80285714Y-126042857D01*
X80342857Y-125985714D01*
X80371428Y-125900000D01*
X80371428Y-125842857D01*
X80342857Y-125757142D01*
X80314285Y-125728571D01*
X80114285Y-125728571D01*
X80114285Y-125842857D01*
X80371428Y-125471428D02*
X79771428Y-125471428D01*
X80371428Y-125128571D01*
X79771428Y-125128571D01*
X80371428Y-124842857D02*
X79771428Y-124842857D01*
X79771428Y-124700000D01*
X79800000Y-124614285D01*
X79857142Y-124557142D01*
X79914285Y-124528571D01*
X80028571Y-124500000D01*
X80114285Y-124500000D01*
X80228571Y-124528571D01*
X80285714Y-124557142D01*
X80342857Y-124614285D01*
X80371428Y-124700000D01*
X80371428Y-124842857D01*
X78728571Y-119700000D02*
X78685714Y-119657142D01*
X78600000Y-119528571D01*
X78557142Y-119442857D01*
X78514285Y-119314285D01*
X78471428Y-119100000D01*
X78471428Y-118928571D01*
X78514285Y-118714285D01*
X78557142Y-118585714D01*
X78600000Y-118500000D01*
X78685714Y-118371428D01*
X78728571Y-118328571D01*
X79457142Y-119314285D02*
X79371428Y-119357142D01*
X79200000Y-119357142D01*
X79114285Y-119314285D01*
X79071428Y-119271428D01*
X79028571Y-119185714D01*
X79028571Y-118928571D01*
X79071428Y-118842857D01*
X79114285Y-118800000D01*
X79200000Y-118757142D01*
X79371428Y-118757142D01*
X79457142Y-118800000D01*
X79757142Y-119700000D02*
X79800000Y-119657142D01*
X79885714Y-119528571D01*
X79928571Y-119442857D01*
X79971428Y-119314285D01*
X80014285Y-119100000D01*
X80014285Y-118928571D01*
X79971428Y-118714285D01*
X79928571Y-118585714D01*
X79885714Y-118500000D01*
X79800000Y-118371428D01*
X79757142Y-118328571D01*
X81085714Y-118542857D02*
X81128571Y-118500000D01*
X81214285Y-118457142D01*
X81428571Y-118457142D01*
X81514285Y-118500000D01*
X81557142Y-118542857D01*
X81600000Y-118628571D01*
X81600000Y-118714285D01*
X81557142Y-118842857D01*
X81042857Y-119357142D01*
X81600000Y-119357142D01*
X82157142Y-118457142D02*
X82242857Y-118457142D01*
X82328571Y-118500000D01*
X82371428Y-118542857D01*
X82414285Y-118628571D01*
X82457142Y-118800000D01*
X82457142Y-119014285D01*
X82414285Y-119185714D01*
X82371428Y-119271428D01*
X82328571Y-119314285D01*
X82242857Y-119357142D01*
X82157142Y-119357142D01*
X82071428Y-119314285D01*
X82028571Y-119271428D01*
X81985714Y-119185714D01*
X81942857Y-119014285D01*
X81942857Y-118800000D01*
X81985714Y-118628571D01*
X82028571Y-118542857D01*
X82071428Y-118500000D01*
X82157142Y-118457142D01*
X82800000Y-118542857D02*
X82842857Y-118500000D01*
X82928571Y-118457142D01*
X83142857Y-118457142D01*
X83228571Y-118500000D01*
X83271428Y-118542857D01*
X83314285Y-118628571D01*
X83314285Y-118714285D01*
X83271428Y-118842857D01*
X82757142Y-119357142D01*
X83314285Y-119357142D01*
X84171428Y-119357142D02*
X83657142Y-119357142D01*
X83914285Y-119357142D02*
X83914285Y-118457142D01*
X83828571Y-118585714D01*
X83742857Y-118671428D01*
X83657142Y-118714285D01*
X77271428Y-120857142D02*
X77271428Y-119957142D01*
X77271428Y-120814285D02*
X77185714Y-120857142D01*
X77014285Y-120857142D01*
X76928571Y-120814285D01*
X76885714Y-120771428D01*
X76842857Y-120685714D01*
X76842857Y-120428571D01*
X76885714Y-120342857D01*
X76928571Y-120300000D01*
X77014285Y-120257142D01*
X77185714Y-120257142D01*
X77271428Y-120300000D01*
X78085714Y-120857142D02*
X78085714Y-120385714D01*
X78042857Y-120300000D01*
X77957142Y-120257142D01*
X77785714Y-120257142D01*
X77700000Y-120300000D01*
X78085714Y-120814285D02*
X78000000Y-120857142D01*
X77785714Y-120857142D01*
X77700000Y-120814285D01*
X77657142Y-120728571D01*
X77657142Y-120642857D01*
X77700000Y-120557142D01*
X77785714Y-120514285D01*
X78000000Y-120514285D01*
X78085714Y-120471428D01*
X78428571Y-120257142D02*
X78642857Y-120857142D01*
X78857142Y-120257142D01*
X79542857Y-120814285D02*
X79457142Y-120857142D01*
X79285714Y-120857142D01*
X79200000Y-120814285D01*
X79157142Y-120728571D01*
X79157142Y-120385714D01*
X79200000Y-120300000D01*
X79285714Y-120257142D01*
X79457142Y-120257142D01*
X79542857Y-120300000D01*
X79585714Y-120385714D01*
X79585714Y-120471428D01*
X79157142Y-120557142D01*
X79971428Y-120857142D02*
X79971428Y-119957142D01*
X80357142Y-120857142D02*
X80357142Y-120385714D01*
X80314285Y-120300000D01*
X80228571Y-120257142D01*
X80100000Y-120257142D01*
X80014285Y-120300000D01*
X79971428Y-120342857D01*
X80914285Y-120857142D02*
X80828571Y-120814285D01*
X80785714Y-120771428D01*
X80742857Y-120685714D01*
X80742857Y-120428571D01*
X80785714Y-120342857D01*
X80828571Y-120300000D01*
X80914285Y-120257142D01*
X81042857Y-120257142D01*
X81128571Y-120300000D01*
X81171428Y-120342857D01*
X81214285Y-120428571D01*
X81214285Y-120685714D01*
X81171428Y-120771428D01*
X81128571Y-120814285D01*
X81042857Y-120857142D01*
X80914285Y-120857142D01*
X82285714Y-120857142D02*
X82285714Y-119957142D01*
X82671428Y-120857142D02*
X82671428Y-120385714D01*
X82628571Y-120300000D01*
X82542857Y-120257142D01*
X82414285Y-120257142D01*
X82328571Y-120300000D01*
X82285714Y-120342857D01*
X83485714Y-120857142D02*
X83485714Y-120385714D01*
X83442857Y-120300000D01*
X83357142Y-120257142D01*
X83185714Y-120257142D01*
X83100000Y-120300000D01*
X83485714Y-120814285D02*
X83400000Y-120857142D01*
X83185714Y-120857142D01*
X83100000Y-120814285D01*
X83057142Y-120728571D01*
X83057142Y-120642857D01*
X83100000Y-120557142D01*
X83185714Y-120514285D01*
X83400000Y-120514285D01*
X83485714Y-120471428D01*
X84300000Y-120814285D02*
X84214285Y-120857142D01*
X84042857Y-120857142D01*
X83957142Y-120814285D01*
X83914285Y-120771428D01*
X83871428Y-120685714D01*
X83871428Y-120428571D01*
X83914285Y-120342857D01*
X83957142Y-120300000D01*
X84042857Y-120257142D01*
X84214285Y-120257142D01*
X84300000Y-120300000D01*
X84685714Y-120857142D02*
X84685714Y-119957142D01*
X84771428Y-120514285D02*
X85028571Y-120857142D01*
X85028571Y-120257142D02*
X84685714Y-120600000D01*
X85371428Y-120814285D02*
X85457142Y-120857142D01*
X85628571Y-120857142D01*
X85714285Y-120814285D01*
X85757142Y-120728571D01*
X85757142Y-120685714D01*
X85714285Y-120600000D01*
X85628571Y-120557142D01*
X85500000Y-120557142D01*
X85414285Y-120514285D01*
X85371428Y-120428571D01*
X85371428Y-120385714D01*
X85414285Y-120300000D01*
X85500000Y-120257142D01*
X85628571Y-120257142D01*
X85714285Y-120300000D01*
X123500000Y-139401785D02*
X123500000Y-138651785D01*
X123821428Y-139401785D02*
X123821428Y-139008928D01*
X123785714Y-138937500D01*
X123714285Y-138901785D01*
X123607142Y-138901785D01*
X123535714Y-138937500D01*
X123500000Y-138973214D01*
X124071428Y-138901785D02*
X124357142Y-138901785D01*
X124178571Y-138651785D02*
X124178571Y-139294642D01*
X124214285Y-139366071D01*
X124285714Y-139401785D01*
X124357142Y-139401785D01*
X124500000Y-138901785D02*
X124785714Y-138901785D01*
X124607142Y-138651785D02*
X124607142Y-139294642D01*
X124642857Y-139366071D01*
X124714285Y-139401785D01*
X124785714Y-139401785D01*
X125035714Y-138901785D02*
X125035714Y-139651785D01*
X125035714Y-138937500D02*
X125107142Y-138901785D01*
X125250000Y-138901785D01*
X125321428Y-138937500D01*
X125357142Y-138973214D01*
X125392857Y-139044642D01*
X125392857Y-139258928D01*
X125357142Y-139330357D01*
X125321428Y-139366071D01*
X125250000Y-139401785D01*
X125107142Y-139401785D01*
X125035714Y-139366071D01*
X125678571Y-139366071D02*
X125750000Y-139401785D01*
X125892857Y-139401785D01*
X125964285Y-139366071D01*
X126000000Y-139294642D01*
X126000000Y-139258928D01*
X125964285Y-139187500D01*
X125892857Y-139151785D01*
X125785714Y-139151785D01*
X125714285Y-139116071D01*
X125678571Y-139044642D01*
X125678571Y-139008928D01*
X125714285Y-138937500D01*
X125785714Y-138901785D01*
X125892857Y-138901785D01*
X125964285Y-138937500D01*
X126321428Y-139330357D02*
X126357142Y-139366071D01*
X126321428Y-139401785D01*
X126285714Y-139366071D01*
X126321428Y-139330357D01*
X126321428Y-139401785D01*
X126321428Y-138937500D02*
X126357142Y-138973214D01*
X126321428Y-139008928D01*
X126285714Y-138973214D01*
X126321428Y-138937500D01*
X126321428Y-139008928D01*
X127214285Y-138616071D02*
X126571428Y-139580357D01*
X128000000Y-138616071D02*
X127357142Y-139580357D01*
X128571428Y-138901785D02*
X128571428Y-139508928D01*
X128535714Y-139580357D01*
X128500000Y-139616071D01*
X128428571Y-139651785D01*
X128321428Y-139651785D01*
X128250000Y-139616071D01*
X128571428Y-139366071D02*
X128500000Y-139401785D01*
X128357142Y-139401785D01*
X128285714Y-139366071D01*
X128250000Y-139330357D01*
X128214285Y-139258928D01*
X128214285Y-139044642D01*
X128250000Y-138973214D01*
X128285714Y-138937500D01*
X128357142Y-138901785D01*
X128500000Y-138901785D01*
X128571428Y-138937500D01*
X128928571Y-139401785D02*
X128928571Y-138901785D01*
X128928571Y-138651785D02*
X128892857Y-138687500D01*
X128928571Y-138723214D01*
X128964285Y-138687500D01*
X128928571Y-138651785D01*
X128928571Y-138723214D01*
X129178571Y-138901785D02*
X129464285Y-138901785D01*
X129285714Y-138651785D02*
X129285714Y-139294642D01*
X129321428Y-139366071D01*
X129392857Y-139401785D01*
X129464285Y-139401785D01*
X129714285Y-139401785D02*
X129714285Y-138651785D01*
X130035714Y-139401785D02*
X130035714Y-139008928D01*
X130000000Y-138937500D01*
X129928571Y-138901785D01*
X129821428Y-138901785D01*
X129750000Y-138937500D01*
X129714285Y-138973214D01*
X130714285Y-138901785D02*
X130714285Y-139401785D01*
X130392857Y-138901785D02*
X130392857Y-139294642D01*
X130428571Y-139366071D01*
X130500000Y-139401785D01*
X130607142Y-139401785D01*
X130678571Y-139366071D01*
X130714285Y-139330357D01*
X131071428Y-139401785D02*
X131071428Y-138651785D01*
X131071428Y-138937500D02*
X131142857Y-138901785D01*
X131285714Y-138901785D01*
X131357142Y-138937500D01*
X131392857Y-138973214D01*
X131428571Y-139044642D01*
X131428571Y-139258928D01*
X131392857Y-139330357D01*
X131357142Y-139366071D01*
X131285714Y-139401785D01*
X131142857Y-139401785D01*
X131071428Y-139366071D01*
X131750000Y-139330357D02*
X131785714Y-139366071D01*
X131750000Y-139401785D01*
X131714285Y-139366071D01*
X131750000Y-139330357D01*
X131750000Y-139401785D01*
X132428571Y-139366071D02*
X132357142Y-139401785D01*
X132214285Y-139401785D01*
X132142857Y-139366071D01*
X132107142Y-139330357D01*
X132071428Y-139258928D01*
X132071428Y-139044642D01*
X132107142Y-138973214D01*
X132142857Y-138937500D01*
X132214285Y-138901785D01*
X132357142Y-138901785D01*
X132428571Y-138937500D01*
X132857142Y-139401785D02*
X132785714Y-139366071D01*
X132750000Y-139330357D01*
X132714285Y-139258928D01*
X132714285Y-139044642D01*
X132750000Y-138973214D01*
X132785714Y-138937500D01*
X132857142Y-138901785D01*
X132964285Y-138901785D01*
X133035714Y-138937500D01*
X133071428Y-138973214D01*
X133107142Y-139044642D01*
X133107142Y-139258928D01*
X133071428Y-139330357D01*
X133035714Y-139366071D01*
X132964285Y-139401785D01*
X132857142Y-139401785D01*
X133428571Y-139401785D02*
X133428571Y-138901785D01*
X133428571Y-138973214D02*
X133464285Y-138937500D01*
X133535714Y-138901785D01*
X133642857Y-138901785D01*
X133714285Y-138937500D01*
X133750000Y-139008928D01*
X133750000Y-139401785D01*
X133750000Y-139008928D02*
X133785714Y-138937500D01*
X133857142Y-138901785D01*
X133964285Y-138901785D01*
X134035714Y-138937500D01*
X134071428Y-139008928D01*
X134071428Y-139401785D01*
X134964285Y-138616071D02*
X134321428Y-139580357D01*
X135535714Y-139401785D02*
X135535714Y-138651785D01*
X135535714Y-139366071D02*
X135464285Y-139401785D01*
X135321428Y-139401785D01*
X135250000Y-139366071D01*
X135214285Y-139330357D01*
X135178571Y-139258928D01*
X135178571Y-139044642D01*
X135214285Y-138973214D01*
X135250000Y-138937500D01*
X135321428Y-138901785D01*
X135464285Y-138901785D01*
X135535714Y-138937500D01*
X136214285Y-139401785D02*
X136214285Y-139008928D01*
X136178571Y-138937500D01*
X136107142Y-138901785D01*
X135964285Y-138901785D01*
X135892857Y-138937500D01*
X136214285Y-139366071D02*
X136142857Y-139401785D01*
X135964285Y-139401785D01*
X135892857Y-139366071D01*
X135857142Y-139294642D01*
X135857142Y-139223214D01*
X135892857Y-139151785D01*
X135964285Y-139116071D01*
X136142857Y-139116071D01*
X136214285Y-139080357D01*
X136500000Y-138901785D02*
X136678571Y-139401785D01*
X136857142Y-138901785D01*
X137428571Y-139366071D02*
X137357142Y-139401785D01*
X137214285Y-139401785D01*
X137142857Y-139366071D01*
X137107142Y-139294642D01*
X137107142Y-139008928D01*
X137142857Y-138937500D01*
X137214285Y-138901785D01*
X137357142Y-138901785D01*
X137428571Y-138937500D01*
X137464285Y-139008928D01*
X137464285Y-139080357D01*
X137107142Y-139151785D01*
X137785714Y-139401785D02*
X137785714Y-138651785D01*
X138107142Y-139401785D02*
X138107142Y-139008928D01*
X138071428Y-138937500D01*
X138000000Y-138901785D01*
X137892857Y-138901785D01*
X137821428Y-138937500D01*
X137785714Y-138973214D01*
X138571428Y-139401785D02*
X138500000Y-139366071D01*
X138464285Y-139330357D01*
X138428571Y-139258928D01*
X138428571Y-139044642D01*
X138464285Y-138973214D01*
X138500000Y-138937500D01*
X138571428Y-138901785D01*
X138678571Y-138901785D01*
X138750000Y-138937500D01*
X138785714Y-138973214D01*
X138821428Y-139044642D01*
X138821428Y-139258928D01*
X138785714Y-139330357D01*
X138750000Y-139366071D01*
X138678571Y-139401785D01*
X138571428Y-139401785D01*
X139678571Y-138616071D02*
X139035714Y-139580357D01*
X140357142Y-139401785D02*
X140107142Y-139044642D01*
X139928571Y-139401785D02*
X139928571Y-138651785D01*
X140214285Y-138651785D01*
X140285714Y-138687500D01*
X140321428Y-138723214D01*
X140357142Y-138794642D01*
X140357142Y-138901785D01*
X140321428Y-138973214D01*
X140285714Y-139008928D01*
X140214285Y-139044642D01*
X139928571Y-139044642D01*
X141000000Y-139401785D02*
X141000000Y-139008928D01*
X140964285Y-138937500D01*
X140892857Y-138901785D01*
X140750000Y-138901785D01*
X140678571Y-138937500D01*
X141000000Y-139366071D02*
X140928571Y-139401785D01*
X140750000Y-139401785D01*
X140678571Y-139366071D01*
X140642857Y-139294642D01*
X140642857Y-139223214D01*
X140678571Y-139151785D01*
X140750000Y-139116071D01*
X140928571Y-139116071D01*
X141000000Y-139080357D01*
X141357142Y-138901785D02*
X141357142Y-139401785D01*
X141357142Y-138973214D02*
X141392857Y-138937500D01*
X141464285Y-138901785D01*
X141571428Y-138901785D01*
X141642857Y-138937500D01*
X141678571Y-139008928D01*
X141678571Y-139401785D01*
X142357142Y-139401785D02*
X142357142Y-138651785D01*
X142357142Y-139366071D02*
X142285714Y-139401785D01*
X142142857Y-139401785D01*
X142071428Y-139366071D01*
X142035714Y-139330357D01*
X142000000Y-139258928D01*
X142000000Y-139044642D01*
X142035714Y-138973214D01*
X142071428Y-138937500D01*
X142142857Y-138901785D01*
X142285714Y-138901785D01*
X142357142Y-138937500D01*
X142821428Y-139401785D02*
X142750000Y-139366071D01*
X142714285Y-139330357D01*
X142678571Y-139258928D01*
X142678571Y-139044642D01*
X142714285Y-138973214D01*
X142750000Y-138937500D01*
X142821428Y-138901785D01*
X142928571Y-138901785D01*
X143000000Y-138937500D01*
X143035714Y-138973214D01*
X143071428Y-139044642D01*
X143071428Y-139258928D01*
X143035714Y-139330357D01*
X143000000Y-139366071D01*
X142928571Y-139401785D01*
X142821428Y-139401785D01*
X143392857Y-139401785D02*
X143392857Y-138901785D01*
X143392857Y-138973214D02*
X143428571Y-138937500D01*
X143500000Y-138901785D01*
X143607142Y-138901785D01*
X143678571Y-138937500D01*
X143714285Y-139008928D01*
X143714285Y-139401785D01*
X143714285Y-139008928D02*
X143750000Y-138937500D01*
X143821428Y-138901785D01*
X143928571Y-138901785D01*
X144000000Y-138937500D01*
X144035714Y-139008928D01*
X144035714Y-139401785D01*
X144357142Y-139366071D02*
X144464285Y-139401785D01*
X144642857Y-139401785D01*
X144714285Y-139366071D01*
X144750000Y-139330357D01*
X144785714Y-139258928D01*
X144785714Y-139187500D01*
X144750000Y-139116071D01*
X144714285Y-139080357D01*
X144642857Y-139044642D01*
X144500000Y-139008928D01*
X144428571Y-138973214D01*
X144392857Y-138937500D01*
X144357142Y-138866071D01*
X144357142Y-138794642D01*
X144392857Y-138723214D01*
X144428571Y-138687500D01*
X144500000Y-138651785D01*
X144678571Y-138651785D01*
X144785714Y-138687500D01*
X145000000Y-138901785D02*
X145285714Y-138901785D01*
X145107142Y-138651785D02*
X145107142Y-139294642D01*
X145142857Y-139366071D01*
X145214285Y-139401785D01*
X145285714Y-139401785D01*
X145857142Y-138901785D02*
X145857142Y-139401785D01*
X145535714Y-138901785D02*
X145535714Y-139294642D01*
X145571428Y-139366071D01*
X145642857Y-139401785D01*
X145750000Y-139401785D01*
X145821428Y-139366071D01*
X145857142Y-139330357D01*
X146107142Y-138901785D02*
X146392857Y-138901785D01*
X146214285Y-139401785D02*
X146214285Y-138758928D01*
X146250000Y-138687500D01*
X146321428Y-138651785D01*
X146392857Y-138651785D01*
X146535714Y-138901785D02*
X146821428Y-138901785D01*
X146642857Y-139401785D02*
X146642857Y-138758928D01*
X146678571Y-138687500D01*
X146750000Y-138651785D01*
X146821428Y-138651785D01*
X147607142Y-138616071D02*
X146964285Y-139580357D01*
X125428571Y-140176785D02*
X125714285Y-140176785D01*
X125535714Y-139926785D02*
X125535714Y-140569642D01*
X125571428Y-140641071D01*
X125642857Y-140676785D01*
X125714285Y-140676785D01*
X125964285Y-140676785D02*
X125964285Y-140176785D01*
X125964285Y-140319642D02*
X126000000Y-140248214D01*
X126035714Y-140212500D01*
X126107142Y-140176785D01*
X126178571Y-140176785D01*
X126714285Y-140641071D02*
X126642857Y-140676785D01*
X126500000Y-140676785D01*
X126428571Y-140641071D01*
X126392857Y-140569642D01*
X126392857Y-140283928D01*
X126428571Y-140212500D01*
X126500000Y-140176785D01*
X126642857Y-140176785D01*
X126714285Y-140212500D01*
X126750000Y-140283928D01*
X126750000Y-140355357D01*
X126392857Y-140426785D01*
X127357142Y-140641071D02*
X127285714Y-140676785D01*
X127142857Y-140676785D01*
X127071428Y-140641071D01*
X127035714Y-140569642D01*
X127035714Y-140283928D01*
X127071428Y-140212500D01*
X127142857Y-140176785D01*
X127285714Y-140176785D01*
X127357142Y-140212500D01*
X127392857Y-140283928D01*
X127392857Y-140355357D01*
X127035714Y-140426785D01*
X128250000Y-139891071D02*
X127607142Y-140855357D01*
X128500000Y-140676785D02*
X128500000Y-140176785D01*
X128500000Y-140248214D02*
X128535714Y-140212500D01*
X128607142Y-140176785D01*
X128714285Y-140176785D01*
X128785714Y-140212500D01*
X128821428Y-140283928D01*
X128821428Y-140676785D01*
X128821428Y-140283928D02*
X128857142Y-140212500D01*
X128928571Y-140176785D01*
X129035714Y-140176785D01*
X129107142Y-140212500D01*
X129142857Y-140283928D01*
X129142857Y-140676785D01*
X129821428Y-140676785D02*
X129821428Y-140283928D01*
X129785714Y-140212500D01*
X129714285Y-140176785D01*
X129571428Y-140176785D01*
X129500000Y-140212500D01*
X129821428Y-140641071D02*
X129750000Y-140676785D01*
X129571428Y-140676785D01*
X129500000Y-140641071D01*
X129464285Y-140569642D01*
X129464285Y-140498214D01*
X129500000Y-140426785D01*
X129571428Y-140391071D01*
X129750000Y-140391071D01*
X129821428Y-140355357D01*
X130142857Y-140641071D02*
X130214285Y-140676785D01*
X130357142Y-140676785D01*
X130428571Y-140641071D01*
X130464285Y-140569642D01*
X130464285Y-140533928D01*
X130428571Y-140462500D01*
X130357142Y-140426785D01*
X130250000Y-140426785D01*
X130178571Y-140391071D01*
X130142857Y-140319642D01*
X130142857Y-140283928D01*
X130178571Y-140212500D01*
X130250000Y-140176785D01*
X130357142Y-140176785D01*
X130428571Y-140212500D01*
X130678571Y-140176785D02*
X130964285Y-140176785D01*
X130785714Y-139926785D02*
X130785714Y-140569642D01*
X130821428Y-140641071D01*
X130892857Y-140676785D01*
X130964285Y-140676785D01*
X131500000Y-140641071D02*
X131428571Y-140676785D01*
X131285714Y-140676785D01*
X131214285Y-140641071D01*
X131178571Y-140569642D01*
X131178571Y-140283928D01*
X131214285Y-140212500D01*
X131285714Y-140176785D01*
X131428571Y-140176785D01*
X131500000Y-140212500D01*
X131535714Y-140283928D01*
X131535714Y-140355357D01*
X131178571Y-140426785D01*
X131857142Y-140676785D02*
X131857142Y-140176785D01*
X131857142Y-140319642D02*
X131892857Y-140248214D01*
X131928571Y-140212500D01*
X132000000Y-140176785D01*
X132071428Y-140176785D01*
X132857142Y-139891071D02*
X132214285Y-140855357D01*
X133107142Y-140283928D02*
X133357142Y-140283928D01*
X133464285Y-140676785D02*
X133107142Y-140676785D01*
X133107142Y-139926785D01*
X133464285Y-139926785D01*
X133785714Y-140176785D02*
X133785714Y-140926785D01*
X133785714Y-140212500D02*
X133857142Y-140176785D01*
X134000000Y-140176785D01*
X134071428Y-140212500D01*
X134107142Y-140248214D01*
X134142857Y-140319642D01*
X134142857Y-140533928D01*
X134107142Y-140605357D01*
X134071428Y-140641071D01*
X134000000Y-140676785D01*
X133857142Y-140676785D01*
X133785714Y-140641071D01*
X134464285Y-140676785D02*
X134464285Y-140176785D01*
X134464285Y-139926785D02*
X134428571Y-139962500D01*
X134464285Y-139998214D01*
X134500000Y-139962500D01*
X134464285Y-139926785D01*
X134464285Y-139998214D01*
X134785714Y-140641071D02*
X134857142Y-140676785D01*
X135000000Y-140676785D01*
X135071428Y-140641071D01*
X135107142Y-140569642D01*
X135107142Y-140533928D01*
X135071428Y-140462500D01*
X135000000Y-140426785D01*
X134892857Y-140426785D01*
X134821428Y-140391071D01*
X134785714Y-140319642D01*
X134785714Y-140283928D01*
X134821428Y-140212500D01*
X134892857Y-140176785D01*
X135000000Y-140176785D01*
X135071428Y-140212500D01*
X135535714Y-140676785D02*
X135464285Y-140641071D01*
X135428571Y-140605357D01*
X135392857Y-140533928D01*
X135392857Y-140319642D01*
X135428571Y-140248214D01*
X135464285Y-140212500D01*
X135535714Y-140176785D01*
X135642857Y-140176785D01*
X135714285Y-140212500D01*
X135750000Y-140248214D01*
X135785714Y-140319642D01*
X135785714Y-140533928D01*
X135750000Y-140605357D01*
X135714285Y-140641071D01*
X135642857Y-140676785D01*
X135535714Y-140676785D01*
X136428571Y-140676785D02*
X136428571Y-139926785D01*
X136428571Y-140641071D02*
X136357142Y-140676785D01*
X136214285Y-140676785D01*
X136142857Y-140641071D01*
X136107142Y-140605357D01*
X136071428Y-140533928D01*
X136071428Y-140319642D01*
X136107142Y-140248214D01*
X136142857Y-140212500D01*
X136214285Y-140176785D01*
X136357142Y-140176785D01*
X136428571Y-140212500D01*
X137071428Y-140641071D02*
X137000000Y-140676785D01*
X136857142Y-140676785D01*
X136785714Y-140641071D01*
X136750000Y-140569642D01*
X136750000Y-140283928D01*
X136785714Y-140212500D01*
X136857142Y-140176785D01*
X137000000Y-140176785D01*
X137071428Y-140212500D01*
X137107142Y-140283928D01*
X137107142Y-140355357D01*
X136750000Y-140426785D01*
X137571428Y-139926785D02*
X137642857Y-139926785D01*
X137714285Y-139962500D01*
X137750000Y-139998214D01*
X137785714Y-140069642D01*
X137821428Y-140212500D01*
X137821428Y-140391071D01*
X137785714Y-140533928D01*
X137750000Y-140605357D01*
X137714285Y-140641071D01*
X137642857Y-140676785D01*
X137571428Y-140676785D01*
X137500000Y-140641071D01*
X137464285Y-140605357D01*
X137428571Y-140533928D01*
X137392857Y-140391071D01*
X137392857Y-140212500D01*
X137428571Y-140069642D01*
X137464285Y-139998214D01*
X137500000Y-139962500D01*
X137571428Y-139926785D01*
X138464285Y-139926785D02*
X138321428Y-139926785D01*
X138250000Y-139962500D01*
X138214285Y-139998214D01*
X138142857Y-140105357D01*
X138107142Y-140248214D01*
X138107142Y-140533928D01*
X138142857Y-140605357D01*
X138178571Y-140641071D01*
X138250000Y-140676785D01*
X138392857Y-140676785D01*
X138464285Y-140641071D01*
X138500000Y-140605357D01*
X138535714Y-140533928D01*
X138535714Y-140355357D01*
X138500000Y-140283928D01*
X138464285Y-140248214D01*
X138392857Y-140212500D01*
X138250000Y-140212500D01*
X138178571Y-140248214D01*
X138142857Y-140283928D01*
X138107142Y-140355357D01*
X139392857Y-139891071D02*
X138750000Y-140855357D01*
X139642857Y-140676785D02*
X139642857Y-139926785D01*
X139964285Y-140676785D02*
X139964285Y-140283928D01*
X139928571Y-140212500D01*
X139857142Y-140176785D01*
X139750000Y-140176785D01*
X139678571Y-140212500D01*
X139642857Y-140248214D01*
X140607142Y-140641071D02*
X140535714Y-140676785D01*
X140392857Y-140676785D01*
X140321428Y-140641071D01*
X140285714Y-140569642D01*
X140285714Y-140283928D01*
X140321428Y-140212500D01*
X140392857Y-140176785D01*
X140535714Y-140176785D01*
X140607142Y-140212500D01*
X140642857Y-140283928D01*
X140642857Y-140355357D01*
X140285714Y-140426785D01*
X140892857Y-140676785D02*
X141285714Y-140176785D01*
X140892857Y-140176785D02*
X141285714Y-140676785D01*
X141892857Y-140676785D02*
X141892857Y-139926785D01*
X141892857Y-140641071D02*
X141821428Y-140676785D01*
X141678571Y-140676785D01*
X141607142Y-140641071D01*
X141571428Y-140605357D01*
X141535714Y-140533928D01*
X141535714Y-140319642D01*
X141571428Y-140248214D01*
X141607142Y-140212500D01*
X141678571Y-140176785D01*
X141821428Y-140176785D01*
X141892857Y-140212500D01*
X142250000Y-140676785D02*
X142250000Y-140176785D01*
X142250000Y-139926785D02*
X142214285Y-139962500D01*
X142250000Y-139998214D01*
X142285714Y-139962500D01*
X142250000Y-139926785D01*
X142250000Y-139998214D01*
X142571428Y-140641071D02*
X142642857Y-140676785D01*
X142785714Y-140676785D01*
X142857142Y-140641071D01*
X142892857Y-140569642D01*
X142892857Y-140533928D01*
X142857142Y-140462500D01*
X142785714Y-140426785D01*
X142678571Y-140426785D01*
X142607142Y-140391071D01*
X142571428Y-140319642D01*
X142571428Y-140283928D01*
X142607142Y-140212500D01*
X142678571Y-140176785D01*
X142785714Y-140176785D01*
X142857142Y-140212500D01*
X143214285Y-140176785D02*
X143214285Y-140926785D01*
X143214285Y-140212500D02*
X143285714Y-140176785D01*
X143428571Y-140176785D01*
X143500000Y-140212500D01*
X143535714Y-140248214D01*
X143571428Y-140319642D01*
X143571428Y-140533928D01*
X143535714Y-140605357D01*
X143500000Y-140641071D01*
X143428571Y-140676785D01*
X143285714Y-140676785D01*
X143214285Y-140641071D01*
X144000000Y-140676785D02*
X143928571Y-140641071D01*
X143892857Y-140569642D01*
X143892857Y-139926785D01*
X144607142Y-140676785D02*
X144607142Y-140283928D01*
X144571428Y-140212500D01*
X144500000Y-140176785D01*
X144357142Y-140176785D01*
X144285714Y-140212500D01*
X144607142Y-140641071D02*
X144535714Y-140676785D01*
X144357142Y-140676785D01*
X144285714Y-140641071D01*
X144250000Y-140569642D01*
X144250000Y-140498214D01*
X144285714Y-140426785D01*
X144357142Y-140391071D01*
X144535714Y-140391071D01*
X144607142Y-140355357D01*
X144892857Y-140176785D02*
X145071428Y-140676785D01*
X145250000Y-140176785D02*
X145071428Y-140676785D01*
X145000000Y-140855357D01*
X144964285Y-140891071D01*
X144892857Y-140926785D01*
X145928571Y-140676785D02*
X145500000Y-140676785D01*
X145714285Y-140676785D02*
X145714285Y-139926785D01*
X145642857Y-140033928D01*
X145571428Y-140105357D01*
X145500000Y-140141071D01*
X146571428Y-139926785D02*
X146428571Y-139926785D01*
X146357142Y-139962500D01*
X146321428Y-139998214D01*
X146250000Y-140105357D01*
X146214285Y-140248214D01*
X146214285Y-140533928D01*
X146250000Y-140605357D01*
X146285714Y-140641071D01*
X146357142Y-140676785D01*
X146500000Y-140676785D01*
X146571428Y-140641071D01*
X146607142Y-140605357D01*
X146642857Y-140533928D01*
X146642857Y-140355357D01*
X146607142Y-140283928D01*
X146571428Y-140248214D01*
X146500000Y-140212500D01*
X146357142Y-140212500D01*
X146285714Y-140248214D01*
X146250000Y-140283928D01*
X146214285Y-140355357D01*
X119446428Y-138439285D02*
X119446428Y-137689285D01*
X119625000Y-137689285D01*
X119732142Y-137725000D01*
X119803571Y-137796428D01*
X119839285Y-137867857D01*
X119875000Y-138010714D01*
X119875000Y-138117857D01*
X119839285Y-138260714D01*
X119803571Y-138332142D01*
X119732142Y-138403571D01*
X119625000Y-138439285D01*
X119446428Y-138439285D01*
X120339285Y-137689285D02*
X120410714Y-137689285D01*
X120482142Y-137725000D01*
X120517857Y-137760714D01*
X120553571Y-137832142D01*
X120589285Y-137975000D01*
X120589285Y-138153571D01*
X120553571Y-138296428D01*
X120517857Y-138367857D01*
X120482142Y-138403571D01*
X120410714Y-138439285D01*
X120339285Y-138439285D01*
X120267857Y-138403571D01*
X120232142Y-138367857D01*
X120196428Y-138296428D01*
X120160714Y-138153571D01*
X120160714Y-137975000D01*
X120196428Y-137832142D01*
X120232142Y-137760714D01*
X120267857Y-137725000D01*
X120339285Y-137689285D01*
X80989285Y-138439285D02*
X80989285Y-137689285D01*
X81167857Y-137689285D01*
X81275000Y-137725000D01*
X81346428Y-137796428D01*
X81382142Y-137867857D01*
X81417857Y-138010714D01*
X81417857Y-138117857D01*
X81382142Y-138260714D01*
X81346428Y-138332142D01*
X81275000Y-138403571D01*
X81167857Y-138439285D01*
X80989285Y-138439285D01*
X82132142Y-138439285D02*
X81703571Y-138439285D01*
X81917857Y-138439285D02*
X81917857Y-137689285D01*
X81846428Y-137796428D01*
X81775000Y-137867857D01*
X81703571Y-137903571D01*
X82810714Y-137689285D02*
X82453571Y-137689285D01*
X82417857Y-138046428D01*
X82453571Y-138010714D01*
X82525000Y-137975000D01*
X82703571Y-137975000D01*
X82775000Y-138010714D01*
X82810714Y-138046428D01*
X82846428Y-138117857D01*
X82846428Y-138296428D01*
X82810714Y-138367857D01*
X82775000Y-138403571D01*
X82703571Y-138439285D01*
X82525000Y-138439285D01*
X82453571Y-138403571D01*
X82417857Y-138367857D01*
D11*
%TO.C,J2*%
X132030000Y-122770000D02*
X130380000Y-122770000D01*
X130380000Y-122770000D02*
X130380000Y-135590000D01*
X130380000Y-135590000D02*
X135680000Y-135590000D01*
X135680000Y-135590000D02*
X135680000Y-122770000D01*
X135680000Y-122770000D02*
X134030000Y-122770000D01*
X134030000Y-122770000D02*
G75*
G02*
X132030000Y-122770000I-1000000J0D01*
G01*
%TO.C,J6*%
X121330000Y-138670000D02*
X121330000Y-140000000D01*
X120000000Y-138670000D02*
X121330000Y-138670000D01*
X118730000Y-138670000D02*
X118730000Y-141330000D01*
X118730000Y-141330000D02*
X80570000Y-141330000D01*
X118730000Y-138670000D02*
X80570000Y-138670000D01*
X80570000Y-138670000D02*
X80570000Y-141330000D01*
%TO.C,C1*%
X82910000Y-126473752D02*
X82910000Y-125051248D01*
X81090000Y-126473752D02*
X81090000Y-125051248D01*
%TO.C,J1*%
X145840000Y-122770000D02*
X144190000Y-122770000D01*
X145840000Y-135590000D02*
X145840000Y-122770000D01*
X140540000Y-135590000D02*
X145840000Y-135590000D01*
X140540000Y-122770000D02*
X140540000Y-135590000D01*
X142190000Y-122770000D02*
X140540000Y-122770000D01*
X144190000Y-122770000D02*
G75*
G02*
X142190000Y-122770000I-1000000J0D01*
G01*
%TO.C,J3*%
X125520000Y-122770000D02*
X123870000Y-122770000D01*
X125520000Y-135590000D02*
X125520000Y-122770000D01*
X120220000Y-135590000D02*
X125520000Y-135590000D01*
X120220000Y-122770000D02*
X120220000Y-135590000D01*
X121870000Y-122770000D02*
X120220000Y-122770000D01*
X123870000Y-122770000D02*
G75*
G02*
X121870000Y-122770000I-1000000J0D01*
G01*
%TO.C,J4*%
X111710000Y-122770000D02*
X110060000Y-122770000D01*
X110060000Y-122770000D02*
X110060000Y-135590000D01*
X110060000Y-135590000D02*
X115360000Y-135590000D01*
X115360000Y-135590000D02*
X115360000Y-122770000D01*
X115360000Y-122770000D02*
X113710000Y-122770000D01*
X113710000Y-122770000D02*
G75*
G02*
X111710000Y-122770000I-1000000J0D01*
G01*
%TO.C,J5*%
X80570000Y-129050000D02*
X81900000Y-129050000D01*
X80570000Y-130380000D02*
X80570000Y-129050000D01*
X80570000Y-131650000D02*
X83230000Y-131650000D01*
X83230000Y-131650000D02*
X83230000Y-134250000D01*
X80570000Y-131650000D02*
X80570000Y-134250000D01*
X80570000Y-134250000D02*
X83230000Y-134250000D01*
%TO.C,J7*%
X76870000Y-123970000D02*
X78200000Y-123970000D01*
X76870000Y-125300000D02*
X76870000Y-123970000D01*
X76870000Y-126570000D02*
X79530000Y-126570000D01*
X79530000Y-126570000D02*
X79530000Y-139330000D01*
X76870000Y-126570000D02*
X76870000Y-139330000D01*
X76870000Y-139330000D02*
X79530000Y-139330000D01*
%TO.C,Q1*%
X113460000Y-120780000D02*
X113460000Y-119850000D01*
X113460000Y-117620000D02*
X113460000Y-118550000D01*
X113460000Y-117620000D02*
X111300000Y-117620000D01*
X113460000Y-120780000D02*
X112000000Y-120780000D01*
%TO.C,Q2*%
X123760000Y-120680000D02*
X122300000Y-120680000D01*
X123760000Y-117520000D02*
X121600000Y-117520000D01*
X123760000Y-117520000D02*
X123760000Y-118450000D01*
X123760000Y-120680000D02*
X123760000Y-119750000D01*
%TO.C,Q3*%
X133860000Y-120780000D02*
X132400000Y-120780000D01*
X133860000Y-117620000D02*
X131700000Y-117620000D01*
X133860000Y-117620000D02*
X133860000Y-118550000D01*
X133860000Y-120780000D02*
X133860000Y-119850000D01*
%TO.C,Q4*%
X144060000Y-120780000D02*
X144060000Y-119850000D01*
X144060000Y-117620000D02*
X144060000Y-118550000D01*
X144060000Y-117620000D02*
X141900000Y-117620000D01*
X144060000Y-120780000D02*
X142600000Y-120780000D01*
%TO.C,R1*%
X102872936Y-122935000D02*
X103327064Y-122935000D01*
X102872936Y-121465000D02*
X103327064Y-121465000D01*
%TO.C,R2*%
X102872936Y-123715000D02*
X103327064Y-123715000D01*
X102872936Y-125185000D02*
X103327064Y-125185000D01*
%TO.C,R3*%
X102872936Y-127435000D02*
X103327064Y-127435000D01*
X102872936Y-125965000D02*
X103327064Y-125965000D01*
%TO.C,R4*%
X102872936Y-128215000D02*
X103327064Y-128215000D01*
X102872936Y-129685000D02*
X103327064Y-129685000D01*
%TO.C,R5*%
X102872936Y-131935000D02*
X103327064Y-131935000D01*
X102872936Y-130465000D02*
X103327064Y-130465000D01*
%TO.C,R6*%
X102872936Y-132715000D02*
X103327064Y-132715000D01*
X102872936Y-134185000D02*
X103327064Y-134185000D01*
%TO.C,R7*%
X102872936Y-136435000D02*
X103327064Y-136435000D01*
X102872936Y-134965000D02*
X103327064Y-134965000D01*
%TO.C,R8*%
X96765000Y-119472936D02*
X96765000Y-119927064D01*
X98235000Y-119472936D02*
X98235000Y-119927064D01*
%TO.C,R9*%
X94935000Y-119472936D02*
X94935000Y-119927064D01*
X93465000Y-119472936D02*
X93465000Y-119927064D01*
%TO.C,R10*%
X90165000Y-119472936D02*
X90165000Y-119927064D01*
X91635000Y-119472936D02*
X91635000Y-119927064D01*
%TO.C,R11*%
X88235000Y-119472936D02*
X88235000Y-119927064D01*
X86765000Y-119472936D02*
X86765000Y-119927064D01*
%TO.C,U1*%
X86590000Y-125065000D02*
X85300000Y-125065000D01*
X86590000Y-124490000D02*
X86590000Y-125065000D01*
X87165000Y-124490000D02*
X86590000Y-124490000D01*
X96810000Y-124490000D02*
X96810000Y-125065000D01*
X96235000Y-124490000D02*
X96810000Y-124490000D01*
X86590000Y-134710000D02*
X86590000Y-134135000D01*
X87165000Y-134710000D02*
X86590000Y-134710000D01*
X96810000Y-134710000D02*
X96810000Y-134135000D01*
X96235000Y-134710000D02*
X96810000Y-134710000D01*
%TO.C,J2*%
D10*
X132466666Y-136152380D02*
X132466666Y-136866666D01*
X132419047Y-137009523D01*
X132323809Y-137104761D01*
X132180952Y-137152380D01*
X132085714Y-137152380D01*
X132895238Y-136247619D02*
X132942857Y-136200000D01*
X133038095Y-136152380D01*
X133276190Y-136152380D01*
X133371428Y-136200000D01*
X133419047Y-136247619D01*
X133466666Y-136342857D01*
X133466666Y-136438095D01*
X133419047Y-136580952D01*
X132847619Y-137152380D01*
X133466666Y-137152380D01*
%TO.C,J6*%
X121782380Y-140333333D02*
X122496666Y-140333333D01*
X122639523Y-140380952D01*
X122734761Y-140476190D01*
X122782380Y-140619047D01*
X122782380Y-140714285D01*
X121782380Y-139428571D02*
X121782380Y-139619047D01*
X121830000Y-139714285D01*
X121877619Y-139761904D01*
X122020476Y-139857142D01*
X122210952Y-139904761D01*
X122591904Y-139904761D01*
X122687142Y-139857142D01*
X122734761Y-139809523D01*
X122782380Y-139714285D01*
X122782380Y-139523809D01*
X122734761Y-139428571D01*
X122687142Y-139380952D01*
X122591904Y-139333333D01*
X122353809Y-139333333D01*
X122258571Y-139380952D01*
X122210952Y-139428571D01*
X122163333Y-139523809D01*
X122163333Y-139714285D01*
X122210952Y-139809523D01*
X122258571Y-139857142D01*
X122353809Y-139904761D01*
%TO.C,C1*%
X81833333Y-122957142D02*
X81785714Y-123004761D01*
X81642857Y-123052380D01*
X81547619Y-123052380D01*
X81404761Y-123004761D01*
X81309523Y-122909523D01*
X81261904Y-122814285D01*
X81214285Y-122623809D01*
X81214285Y-122480952D01*
X81261904Y-122290476D01*
X81309523Y-122195238D01*
X81404761Y-122100000D01*
X81547619Y-122052380D01*
X81642857Y-122052380D01*
X81785714Y-122100000D01*
X81833333Y-122147619D01*
X82785714Y-123052380D02*
X82214285Y-123052380D01*
X82500000Y-123052380D02*
X82500000Y-122052380D01*
X82404761Y-122195238D01*
X82309523Y-122290476D01*
X82214285Y-122338095D01*
%TO.C,J1*%
X143066666Y-136052380D02*
X143066666Y-136766666D01*
X143019047Y-136909523D01*
X142923809Y-137004761D01*
X142780952Y-137052380D01*
X142685714Y-137052380D01*
X144066666Y-137052380D02*
X143495238Y-137052380D01*
X143780952Y-137052380D02*
X143780952Y-136052380D01*
X143685714Y-136195238D01*
X143590476Y-136290476D01*
X143495238Y-136338095D01*
%TO.C,J3*%
X122266666Y-136252380D02*
X122266666Y-136966666D01*
X122219047Y-137109523D01*
X122123809Y-137204761D01*
X121980952Y-137252380D01*
X121885714Y-137252380D01*
X122647619Y-136252380D02*
X123266666Y-136252380D01*
X122933333Y-136633333D01*
X123076190Y-136633333D01*
X123171428Y-136680952D01*
X123219047Y-136728571D01*
X123266666Y-136823809D01*
X123266666Y-137061904D01*
X123219047Y-137157142D01*
X123171428Y-137204761D01*
X123076190Y-137252380D01*
X122790476Y-137252380D01*
X122695238Y-137204761D01*
X122647619Y-137157142D01*
%TO.C,J4*%
X112166666Y-136252380D02*
X112166666Y-136966666D01*
X112119047Y-137109523D01*
X112023809Y-137204761D01*
X111880952Y-137252380D01*
X111785714Y-137252380D01*
X113071428Y-136585714D02*
X113071428Y-137252380D01*
X112833333Y-136204761D02*
X112595238Y-136919047D01*
X113214285Y-136919047D01*
%TO.C,J5*%
X81466666Y-134452380D02*
X81466666Y-135166666D01*
X81419047Y-135309523D01*
X81323809Y-135404761D01*
X81180952Y-135452380D01*
X81085714Y-135452380D01*
X82419047Y-134452380D02*
X81942857Y-134452380D01*
X81895238Y-134928571D01*
X81942857Y-134880952D01*
X82038095Y-134833333D01*
X82276190Y-134833333D01*
X82371428Y-134880952D01*
X82419047Y-134928571D01*
X82466666Y-135023809D01*
X82466666Y-135261904D01*
X82419047Y-135357142D01*
X82371428Y-135404761D01*
X82276190Y-135452380D01*
X82038095Y-135452380D01*
X81942857Y-135404761D01*
X81895238Y-135357142D01*
%TO.C,J7*%
X77866666Y-122422380D02*
X77866666Y-123136666D01*
X77819047Y-123279523D01*
X77723809Y-123374761D01*
X77580952Y-123422380D01*
X77485714Y-123422380D01*
X78247619Y-122422380D02*
X78914285Y-122422380D01*
X78485714Y-123422380D01*
%TO.C,Q1*%
X109904761Y-119947619D02*
X109809523Y-119900000D01*
X109714285Y-119804761D01*
X109571428Y-119661904D01*
X109476190Y-119614285D01*
X109380952Y-119614285D01*
X109428571Y-119852380D02*
X109333333Y-119804761D01*
X109238095Y-119709523D01*
X109190476Y-119519047D01*
X109190476Y-119185714D01*
X109238095Y-118995238D01*
X109333333Y-118900000D01*
X109428571Y-118852380D01*
X109619047Y-118852380D01*
X109714285Y-118900000D01*
X109809523Y-118995238D01*
X109857142Y-119185714D01*
X109857142Y-119519047D01*
X109809523Y-119709523D01*
X109714285Y-119804761D01*
X109619047Y-119852380D01*
X109428571Y-119852380D01*
X110809523Y-119852380D02*
X110238095Y-119852380D01*
X110523809Y-119852380D02*
X110523809Y-118852380D01*
X110428571Y-118995238D01*
X110333333Y-119090476D01*
X110238095Y-119138095D01*
%TO.C,Q2*%
X120204761Y-119747619D02*
X120109523Y-119700000D01*
X120014285Y-119604761D01*
X119871428Y-119461904D01*
X119776190Y-119414285D01*
X119680952Y-119414285D01*
X119728571Y-119652380D02*
X119633333Y-119604761D01*
X119538095Y-119509523D01*
X119490476Y-119319047D01*
X119490476Y-118985714D01*
X119538095Y-118795238D01*
X119633333Y-118700000D01*
X119728571Y-118652380D01*
X119919047Y-118652380D01*
X120014285Y-118700000D01*
X120109523Y-118795238D01*
X120157142Y-118985714D01*
X120157142Y-119319047D01*
X120109523Y-119509523D01*
X120014285Y-119604761D01*
X119919047Y-119652380D01*
X119728571Y-119652380D01*
X120538095Y-118747619D02*
X120585714Y-118700000D01*
X120680952Y-118652380D01*
X120919047Y-118652380D01*
X121014285Y-118700000D01*
X121061904Y-118747619D01*
X121109523Y-118842857D01*
X121109523Y-118938095D01*
X121061904Y-119080952D01*
X120490476Y-119652380D01*
X121109523Y-119652380D01*
%TO.C,Q3*%
X130204761Y-119647619D02*
X130109523Y-119600000D01*
X130014285Y-119504761D01*
X129871428Y-119361904D01*
X129776190Y-119314285D01*
X129680952Y-119314285D01*
X129728571Y-119552380D02*
X129633333Y-119504761D01*
X129538095Y-119409523D01*
X129490476Y-119219047D01*
X129490476Y-118885714D01*
X129538095Y-118695238D01*
X129633333Y-118600000D01*
X129728571Y-118552380D01*
X129919047Y-118552380D01*
X130014285Y-118600000D01*
X130109523Y-118695238D01*
X130157142Y-118885714D01*
X130157142Y-119219047D01*
X130109523Y-119409523D01*
X130014285Y-119504761D01*
X129919047Y-119552380D01*
X129728571Y-119552380D01*
X130490476Y-118552380D02*
X131109523Y-118552380D01*
X130776190Y-118933333D01*
X130919047Y-118933333D01*
X131014285Y-118980952D01*
X131061904Y-119028571D01*
X131109523Y-119123809D01*
X131109523Y-119361904D01*
X131061904Y-119457142D01*
X131014285Y-119504761D01*
X130919047Y-119552380D01*
X130633333Y-119552380D01*
X130538095Y-119504761D01*
X130490476Y-119457142D01*
%TO.C,Q4*%
X140404761Y-119647619D02*
X140309523Y-119600000D01*
X140214285Y-119504761D01*
X140071428Y-119361904D01*
X139976190Y-119314285D01*
X139880952Y-119314285D01*
X139928571Y-119552380D02*
X139833333Y-119504761D01*
X139738095Y-119409523D01*
X139690476Y-119219047D01*
X139690476Y-118885714D01*
X139738095Y-118695238D01*
X139833333Y-118600000D01*
X139928571Y-118552380D01*
X140119047Y-118552380D01*
X140214285Y-118600000D01*
X140309523Y-118695238D01*
X140357142Y-118885714D01*
X140357142Y-119219047D01*
X140309523Y-119409523D01*
X140214285Y-119504761D01*
X140119047Y-119552380D01*
X139928571Y-119552380D01*
X141214285Y-118885714D02*
X141214285Y-119552380D01*
X140976190Y-118504761D02*
X140738095Y-119219047D01*
X141357142Y-119219047D01*
%TO.C,R1*%
X100133333Y-122752380D02*
X99800000Y-122276190D01*
X99561904Y-122752380D02*
X99561904Y-121752380D01*
X99942857Y-121752380D01*
X100038095Y-121800000D01*
X100085714Y-121847619D01*
X100133333Y-121942857D01*
X100133333Y-122085714D01*
X100085714Y-122180952D01*
X100038095Y-122228571D01*
X99942857Y-122276190D01*
X99561904Y-122276190D01*
X101085714Y-122752380D02*
X100514285Y-122752380D01*
X100800000Y-122752380D02*
X100800000Y-121752380D01*
X100704761Y-121895238D01*
X100609523Y-121990476D01*
X100514285Y-122038095D01*
%TO.C,R2*%
X100133333Y-124902380D02*
X99800000Y-124426190D01*
X99561904Y-124902380D02*
X99561904Y-123902380D01*
X99942857Y-123902380D01*
X100038095Y-123950000D01*
X100085714Y-123997619D01*
X100133333Y-124092857D01*
X100133333Y-124235714D01*
X100085714Y-124330952D01*
X100038095Y-124378571D01*
X99942857Y-124426190D01*
X99561904Y-124426190D01*
X100514285Y-123997619D02*
X100561904Y-123950000D01*
X100657142Y-123902380D01*
X100895238Y-123902380D01*
X100990476Y-123950000D01*
X101038095Y-123997619D01*
X101085714Y-124092857D01*
X101085714Y-124188095D01*
X101038095Y-124330952D01*
X100466666Y-124902380D01*
X101085714Y-124902380D01*
%TO.C,R3*%
X100133333Y-127152380D02*
X99800000Y-126676190D01*
X99561904Y-127152380D02*
X99561904Y-126152380D01*
X99942857Y-126152380D01*
X100038095Y-126200000D01*
X100085714Y-126247619D01*
X100133333Y-126342857D01*
X100133333Y-126485714D01*
X100085714Y-126580952D01*
X100038095Y-126628571D01*
X99942857Y-126676190D01*
X99561904Y-126676190D01*
X100466666Y-126152380D02*
X101085714Y-126152380D01*
X100752380Y-126533333D01*
X100895238Y-126533333D01*
X100990476Y-126580952D01*
X101038095Y-126628571D01*
X101085714Y-126723809D01*
X101085714Y-126961904D01*
X101038095Y-127057142D01*
X100990476Y-127104761D01*
X100895238Y-127152380D01*
X100609523Y-127152380D01*
X100514285Y-127104761D01*
X100466666Y-127057142D01*
%TO.C,R4*%
X100133333Y-129402380D02*
X99800000Y-128926190D01*
X99561904Y-129402380D02*
X99561904Y-128402380D01*
X99942857Y-128402380D01*
X100038095Y-128450000D01*
X100085714Y-128497619D01*
X100133333Y-128592857D01*
X100133333Y-128735714D01*
X100085714Y-128830952D01*
X100038095Y-128878571D01*
X99942857Y-128926190D01*
X99561904Y-128926190D01*
X100990476Y-128735714D02*
X100990476Y-129402380D01*
X100752380Y-128354761D02*
X100514285Y-129069047D01*
X101133333Y-129069047D01*
%TO.C,R5*%
X100033333Y-131752380D02*
X99700000Y-131276190D01*
X99461904Y-131752380D02*
X99461904Y-130752380D01*
X99842857Y-130752380D01*
X99938095Y-130800000D01*
X99985714Y-130847619D01*
X100033333Y-130942857D01*
X100033333Y-131085714D01*
X99985714Y-131180952D01*
X99938095Y-131228571D01*
X99842857Y-131276190D01*
X99461904Y-131276190D01*
X100938095Y-130752380D02*
X100461904Y-130752380D01*
X100414285Y-131228571D01*
X100461904Y-131180952D01*
X100557142Y-131133333D01*
X100795238Y-131133333D01*
X100890476Y-131180952D01*
X100938095Y-131228571D01*
X100985714Y-131323809D01*
X100985714Y-131561904D01*
X100938095Y-131657142D01*
X100890476Y-131704761D01*
X100795238Y-131752380D01*
X100557142Y-131752380D01*
X100461904Y-131704761D01*
X100414285Y-131657142D01*
%TO.C,R6*%
X100033333Y-134002380D02*
X99700000Y-133526190D01*
X99461904Y-134002380D02*
X99461904Y-133002380D01*
X99842857Y-133002380D01*
X99938095Y-133050000D01*
X99985714Y-133097619D01*
X100033333Y-133192857D01*
X100033333Y-133335714D01*
X99985714Y-133430952D01*
X99938095Y-133478571D01*
X99842857Y-133526190D01*
X99461904Y-133526190D01*
X100890476Y-133002380D02*
X100700000Y-133002380D01*
X100604761Y-133050000D01*
X100557142Y-133097619D01*
X100461904Y-133240476D01*
X100414285Y-133430952D01*
X100414285Y-133811904D01*
X100461904Y-133907142D01*
X100509523Y-133954761D01*
X100604761Y-134002380D01*
X100795238Y-134002380D01*
X100890476Y-133954761D01*
X100938095Y-133907142D01*
X100985714Y-133811904D01*
X100985714Y-133573809D01*
X100938095Y-133478571D01*
X100890476Y-133430952D01*
X100795238Y-133383333D01*
X100604761Y-133383333D01*
X100509523Y-133430952D01*
X100461904Y-133478571D01*
X100414285Y-133573809D01*
%TO.C,R7*%
X100033333Y-136252380D02*
X99700000Y-135776190D01*
X99461904Y-136252380D02*
X99461904Y-135252380D01*
X99842857Y-135252380D01*
X99938095Y-135300000D01*
X99985714Y-135347619D01*
X100033333Y-135442857D01*
X100033333Y-135585714D01*
X99985714Y-135680952D01*
X99938095Y-135728571D01*
X99842857Y-135776190D01*
X99461904Y-135776190D01*
X100366666Y-135252380D02*
X101033333Y-135252380D01*
X100604761Y-136252380D01*
%TO.C,R8*%
X99602380Y-119866666D02*
X99126190Y-120200000D01*
X99602380Y-120438095D02*
X98602380Y-120438095D01*
X98602380Y-120057142D01*
X98650000Y-119961904D01*
X98697619Y-119914285D01*
X98792857Y-119866666D01*
X98935714Y-119866666D01*
X99030952Y-119914285D01*
X99078571Y-119961904D01*
X99126190Y-120057142D01*
X99126190Y-120438095D01*
X99030952Y-119295238D02*
X98983333Y-119390476D01*
X98935714Y-119438095D01*
X98840476Y-119485714D01*
X98792857Y-119485714D01*
X98697619Y-119438095D01*
X98650000Y-119390476D01*
X98602380Y-119295238D01*
X98602380Y-119104761D01*
X98650000Y-119009523D01*
X98697619Y-118961904D01*
X98792857Y-118914285D01*
X98840476Y-118914285D01*
X98935714Y-118961904D01*
X98983333Y-119009523D01*
X99030952Y-119104761D01*
X99030952Y-119295238D01*
X99078571Y-119390476D01*
X99126190Y-119438095D01*
X99221428Y-119485714D01*
X99411904Y-119485714D01*
X99507142Y-119438095D01*
X99554761Y-119390476D01*
X99602380Y-119295238D01*
X99602380Y-119104761D01*
X99554761Y-119009523D01*
X99507142Y-118961904D01*
X99411904Y-118914285D01*
X99221428Y-118914285D01*
X99126190Y-118961904D01*
X99078571Y-119009523D01*
X99030952Y-119104761D01*
%TO.C,R9*%
X96302380Y-119866666D02*
X95826190Y-120200000D01*
X96302380Y-120438095D02*
X95302380Y-120438095D01*
X95302380Y-120057142D01*
X95350000Y-119961904D01*
X95397619Y-119914285D01*
X95492857Y-119866666D01*
X95635714Y-119866666D01*
X95730952Y-119914285D01*
X95778571Y-119961904D01*
X95826190Y-120057142D01*
X95826190Y-120438095D01*
X96302380Y-119390476D02*
X96302380Y-119200000D01*
X96254761Y-119104761D01*
X96207142Y-119057142D01*
X96064285Y-118961904D01*
X95873809Y-118914285D01*
X95492857Y-118914285D01*
X95397619Y-118961904D01*
X95350000Y-119009523D01*
X95302380Y-119104761D01*
X95302380Y-119295238D01*
X95350000Y-119390476D01*
X95397619Y-119438095D01*
X95492857Y-119485714D01*
X95730952Y-119485714D01*
X95826190Y-119438095D01*
X95873809Y-119390476D01*
X95921428Y-119295238D01*
X95921428Y-119104761D01*
X95873809Y-119009523D01*
X95826190Y-118961904D01*
X95730952Y-118914285D01*
%TO.C,R10*%
X93002380Y-120342857D02*
X92526190Y-120676190D01*
X93002380Y-120914285D02*
X92002380Y-120914285D01*
X92002380Y-120533333D01*
X92050000Y-120438095D01*
X92097619Y-120390476D01*
X92192857Y-120342857D01*
X92335714Y-120342857D01*
X92430952Y-120390476D01*
X92478571Y-120438095D01*
X92526190Y-120533333D01*
X92526190Y-120914285D01*
X93002380Y-119390476D02*
X93002380Y-119961904D01*
X93002380Y-119676190D02*
X92002380Y-119676190D01*
X92145238Y-119771428D01*
X92240476Y-119866666D01*
X92288095Y-119961904D01*
X92002380Y-118771428D02*
X92002380Y-118676190D01*
X92050000Y-118580952D01*
X92097619Y-118533333D01*
X92192857Y-118485714D01*
X92383333Y-118438095D01*
X92621428Y-118438095D01*
X92811904Y-118485714D01*
X92907142Y-118533333D01*
X92954761Y-118580952D01*
X93002380Y-118676190D01*
X93002380Y-118771428D01*
X92954761Y-118866666D01*
X92907142Y-118914285D01*
X92811904Y-118961904D01*
X92621428Y-119009523D01*
X92383333Y-119009523D01*
X92192857Y-118961904D01*
X92097619Y-118914285D01*
X92050000Y-118866666D01*
X92002380Y-118771428D01*
%TO.C,R11*%
X89602380Y-120342857D02*
X89126190Y-120676190D01*
X89602380Y-120914285D02*
X88602380Y-120914285D01*
X88602380Y-120533333D01*
X88650000Y-120438095D01*
X88697619Y-120390476D01*
X88792857Y-120342857D01*
X88935714Y-120342857D01*
X89030952Y-120390476D01*
X89078571Y-120438095D01*
X89126190Y-120533333D01*
X89126190Y-120914285D01*
X89602380Y-119390476D02*
X89602380Y-119961904D01*
X89602380Y-119676190D02*
X88602380Y-119676190D01*
X88745238Y-119771428D01*
X88840476Y-119866666D01*
X88888095Y-119961904D01*
X89602380Y-118438095D02*
X89602380Y-119009523D01*
X89602380Y-118723809D02*
X88602380Y-118723809D01*
X88745238Y-118819047D01*
X88840476Y-118914285D01*
X88888095Y-119009523D01*
%TO.C,U1*%
X84838095Y-122852380D02*
X84838095Y-123661904D01*
X84885714Y-123757142D01*
X84933333Y-123804761D01*
X85028571Y-123852380D01*
X85219047Y-123852380D01*
X85314285Y-123804761D01*
X85361904Y-123757142D01*
X85409523Y-123661904D01*
X85409523Y-122852380D01*
X86409523Y-123852380D02*
X85838095Y-123852380D01*
X86123809Y-123852380D02*
X86123809Y-122852380D01*
X86028571Y-122995238D01*
X85933333Y-123090476D01*
X85838095Y-123138095D01*
%TD*%
M02*
