M48
INCH,TZ
T1C0.0130
T2C0.0315
T3C0.0394
%
G90
G05
T1
X56260Y-45433
X56339Y-46457
X56575Y-43465
X56850Y-41457
X57403Y-43781
X58110Y-41142
X59094Y-42402
X59606Y-42402
X59606Y-43346
X59606Y-44803
X60118Y-42402
X60315Y-44803
X60591Y-42402
X60827Y-40748
X61102Y-42402
X61614Y-42402
X62126Y-42402
X62638Y-42402
X63976Y-46299
X64094Y-45827
X64685Y-40866
X66575Y-40787
X66575Y-41732
X66575Y-42677
X66575Y-43583
X66811Y-44567
X68749Y-40503
X72913Y-40512
T2
X68189Y-42402
X68189Y-43402
X68189Y-44402
X68189Y-45402
X68189Y-46402
X71189Y-42402
X71189Y-43402
X71189Y-44402
X71189Y-45402
X71189Y-46402
X72189Y-42402
X72189Y-43402
X72189Y-44402
X72189Y-45402
X72189Y-46402
X75189Y-42402
X75189Y-43402
X75189Y-44402
X75189Y-45402
X75189Y-46402
T3
X54409Y-41449
X54409Y-42449
X54409Y-43449
X54409Y-44449
X54409Y-45449
X54409Y-46449
X55992Y-43449
X55992Y-44449
X55992Y-47244
X56992Y-47244
X57992Y-47244
X58992Y-47244
X59992Y-47244
X60992Y-47244
X61992Y-47244
X62992Y-47244
T0
M30
